<svg width="16" height="16" viewBox="0 0 16 16" fill="none" xmlns="http://www.w3.org/2000/svg">
<path d="M7.98828 12.1582C6.13672 12.1582 5.04688 10.5879 5.04688 8.16797V7.83984C5.04688 5.43164 6.14844 3.84375 8.01172 3.84375C9.86914 3.84375 10.9473 5.41406 10.9473 7.83984V8.16797C10.9473 10.5762 9.8457 12.1582 7.98828 12.1582ZM8 4.95117C6.99219 4.95117 6.37109 6.04102 6.37109 7.8457V8.15625C6.37109 9.9668 6.99805 11.0508 8 11.0508C9.00195 11.0508 9.62305 9.96094 9.62305 8.15625V7.8457C9.62305 6.04688 9.00195 4.95117 8 4.95117Z" fill="black"/>
<path d="M0 2C0 0.895431 0.895431 0 2 0H14C15.1046 0 16 0.895431 16 2V14C16 15.1046 15.1046 16 14 16H2C0.895431 16 0 15.1046 0 14V2ZM15 2C15 1.44772 14.5523 1 14 1H2C1.44772 1 1 1.44772 1 2V14C1 14.5523 1.44772 15 2 15H14C14.5523 15 15 14.5523 15 14V2Z" fill="black"/>
</svg>
