<svg width="16" height="16" viewBox="0 0 16 16" fill="none" xmlns="http://www.w3.org/2000/svg">
<path d="M2.87282 11.2975V4.14165H1.69853L0 5.37885V6.51644L1.64086 5.33691H1.69853V11.2975H2.87282Z" fill="black"/>
<path d="M6.08639 6.20714C6.08639 6.19666 6.08639 6.15996 6.08639 6.14423C6.08639 5.52563 6.52675 4.97518 7.28166 4.97518C7.95792 4.97518 8.45595 5.41554 8.45595 6.08132C8.45595 6.70517 8.03656 7.18222 7.64862 7.60685L4.99074 10.5531V11.2975H9.77178V10.3067H6.64209V10.2385L8.40877 8.25167C9.05882 7.52822 9.64597 6.9201 9.64597 5.98172C9.64597 4.84937 8.72331 4.0001 7.30787 4.0001C5.73516 4.0001 4.9488 5.0643 4.9488 6.14947V6.20714H6.08639Z" fill="black"/>
<path d="M12.6446 8.08915H13.431C14.254 8.08915 14.8045 8.57145 14.8097 9.26869C14.8202 9.97641 14.2593 10.4849 13.389 10.4797C12.6184 10.4744 12.0627 10.0603 12.0103 9.52556H10.9146C10.9566 10.5793 11.853 11.4443 13.3785 11.4443C14.8569 11.4443 16.0207 10.6055 15.9997 9.30014C15.9788 8.1573 15.0771 7.64879 14.448 7.58588V7.52298C14.9827 7.43386 15.7953 6.86244 15.7743 5.84542C15.7481 4.7917 14.8412 3.98962 13.4152 4.0001C11.9159 4.00534 11.0981 4.88082 11.0666 5.89784H12.1833C12.2147 5.39982 12.6813 4.95421 13.389 4.95421C14.0915 4.95421 14.5948 5.38933 14.5948 6.02366C14.6 6.66323 14.0915 7.1298 13.3943 7.1298H12.6446V8.08915Z" fill="black"/>
</svg>
