<svg width="16" height="16" viewBox="0 0 16 16" fill="none" xmlns="http://www.w3.org/2000/svg">
<path d="M16 8C16 12.4183 12.4183 16 8 16C3.58172 16 0 12.4183 0 8C0 3.58172 3.58172 0 8 0C12.4183 0 16 3.58172 16 8ZM6.64648 6.24023C6.64648 5.54883 7.13867 4.93359 7.98242 4.93359C8.73828 4.93359 9.29492 5.42578 9.29492 6.16992C9.29492 6.86719 8.82617 7.40039 8.39258 7.875L5.42188 11.168V12H10.7656V10.8926H7.26758V10.8164L9.24219 8.5957C9.27438 8.55988 9.30643 8.52431 9.33829 8.48895C10.0256 7.72616 10.625 7.06096 10.625 6.05859C10.625 4.79297 9.59375 3.84375 8.01172 3.84375C6.25391 3.84375 5.375 5.0332 5.375 6.24609V6.31055H6.64648V6.24023Z" fill="black"/>
</svg>
