<svg width="16" height="16" viewBox="0 0 16 16" fill="none" xmlns="http://www.w3.org/2000/svg">
<path d="M2 0C0.895431 0 0 0.895431 0 2V14C0 15.1046 0.895431 16 2 16H14C15.1046 16 16 15.1046 16 14V2C16 0.895431 15.1046 0 14 0H2ZM6.64648 6.24023V6.31055H5.375V6.24609C5.375 5.0332 6.25391 3.84375 8.01172 3.84375C9.59375 3.84375 10.625 4.79297 10.625 6.05859C10.625 7.06096 10.0256 7.72616 9.33829 8.48895C9.30643 8.52431 9.27438 8.55988 9.24219 8.5957L7.26758 10.8164V10.8926H10.7656V12H5.42188V11.168L8.39258 7.875C8.82617 7.40039 9.29492 6.86719 9.29492 6.16992C9.29492 5.42578 8.73828 4.93359 7.98242 4.93359C7.13867 4.93359 6.64648 5.54883 6.64648 6.24023Z" fill="black"/>
</svg>
