<svg width="16" height="16" viewBox="0 0 16 16" fill="none" xmlns="http://www.w3.org/2000/svg">
<path d="M16 8C16 12.4183 12.4183 16 8 16C3.58172 16 0 12.4183 0 8C0 3.58172 3.58172 0 8 0C12.4183 0 16 3.58172 16 8ZM7.91797 8.41406C8.83789 8.41406 9.45312 8.95312 9.45898 9.73242C9.4707 10.5234 8.84375 11.0918 7.87109 11.0859C7.00977 11.0801 6.38867 10.6172 6.33008 10.0195H5.10547C5.15234 11.1973 6.1543 12.1641 7.85938 12.1641C9.51172 12.1641 10.8125 11.2266 10.7891 9.76758C10.7656 8.49023 9.75781 7.92188 9.05469 7.85156V7.78125C9.65234 7.68164 10.5605 7.04297 10.5371 5.90625C10.5078 4.72852 9.49414 3.83203 7.90039 3.84375C6.22461 3.84961 5.31055 4.82812 5.27539 5.96484H6.52344C6.55859 5.4082 7.08008 4.91016 7.87109 4.91016C8.65625 4.91016 9.21875 5.39648 9.21875 6.10547C9.22461 6.82031 8.65625 7.3418 7.87695 7.3418H7.03906V8.41406H7.91797Z" fill="black"/>
</svg>
