<svg width="16" height="16" viewBox="0 0 16 16" fill="none" xmlns="http://www.w3.org/2000/svg">
<path d="M7.91797 8.41406H7.03906V7.3418H7.87695C8.65625 7.3418 9.22461 6.82031 9.21875 6.10547C9.21875 5.39648 8.65625 4.91016 7.87109 4.91016C7.08008 4.91016 6.55859 5.4082 6.52344 5.96484H5.27539C5.31055 4.82812 6.22461 3.84961 7.90039 3.84375C9.49414 3.83203 10.5078 4.72852 10.5371 5.90625C10.5605 7.04297 9.65234 7.68164 9.05469 7.78125V7.85156C9.75781 7.92188 10.7656 8.49023 10.7891 9.76758C10.8125 11.2266 9.51172 12.1641 7.85938 12.1641C6.1543 12.1641 5.15234 11.1973 5.10547 10.0195H6.33008C6.38867 10.6172 7.00977 11.0801 7.87109 11.0859C8.84375 11.0918 9.4707 10.5234 9.45898 9.73242C9.45312 8.95312 8.83789 8.41406 7.91797 8.41406Z" fill="black"/>
<path d="M16 8C16 12.4183 12.4183 16 8 16C3.58172 16 0 12.4183 0 8C0 3.58172 3.58172 0 8 0C12.4183 0 16 3.58172 16 8ZM1 8C1 11.866 4.13401 15 8 15C11.866 15 15 11.866 15 8C15 4.13401 11.866 1 8 1C4.13401 1 1 4.13401 1 8Z" fill="black"/>
</svg>
