<svg width="16" height="16" viewBox="0 0 16 16" fill="none" xmlns="http://www.w3.org/2000/svg">
<path d="M2 0C0.895431 0 0 0.895431 0 2V14C0 15.1046 0.895431 16 2 16H14C15.1046 16 16 15.1046 16 14V2C16 0.895431 15.1046 0 14 0H2ZM7.91797 8.41406H7.03906V7.3418H7.87695C8.65625 7.3418 9.22461 6.82031 9.21875 6.10547C9.21875 5.39648 8.65625 4.91016 7.87109 4.91016C7.08008 4.91016 6.55859 5.4082 6.52344 5.96484H5.27539C5.31055 4.82812 6.22461 3.84961 7.90039 3.84375C9.49414 3.83203 10.5078 4.72852 10.5371 5.90625C10.5605 7.04297 9.65234 7.68164 9.05469 7.78125V7.85156C9.75781 7.92188 10.7656 8.49023 10.7891 9.76758C10.8125 11.2266 9.51172 12.1641 7.85938 12.1641C6.1543 12.1641 5.15234 11.1973 5.10547 10.0195H6.33008C6.38867 10.6172 7.00977 11.0801 7.87109 11.0859C8.84375 11.0918 9.4707 10.5234 9.45898 9.73242C9.45312 8.95312 8.83789 8.41406 7.91797 8.41406Z" fill="black"/>
</svg>
