<svg width="16" height="16" viewBox="0 0 16 16" fill="none" xmlns="http://www.w3.org/2000/svg">
<path d="M16 8C16 12.4183 12.4183 16 8 16C3.58172 16 0 12.4183 0 8C0 3.58172 3.58172 0 8 0C12.4183 0 16 3.58172 16 8ZM7.51866 5.0572C6.63305 6.47538 5.7465 7.89506 4.97656 9.32227V10.4414H8.84961V12H10.1094V10.4414H11.1172V9.33398H10.1094V4.00195H8.17578C7.958 4.35367 7.73836 4.70539 7.51866 5.0572ZM6.22461 9.28125V9.33398H8.84961V5.0625H8.78516C7.91797 6.39258 6.99805 7.86914 6.22461 9.28125Z" fill="black"/>
</svg>
