<svg width="16" height="16" viewBox="0 0 16 16" fill="none" xmlns="http://www.w3.org/2000/svg">
<path d="M7.51866 5.0572C7.73836 4.70539 7.958 4.35367 8.17578 4.00195H10.1094V9.33398H11.1172V10.4414H10.1094V12H8.84961V10.4414H4.97656V9.32227C5.7465 7.89506 6.63305 6.47538 7.51866 5.0572ZM6.22461 9.28125V9.33398H8.84961V5.0625H8.78516C7.91797 6.39258 6.99805 7.86914 6.22461 9.28125Z" fill="black"/>
<path d="M16 8C16 12.4183 12.4183 16 8 16C3.58172 16 0 12.4183 0 8C0 3.58172 3.58172 0 8 0C12.4183 0 16 3.58172 16 8ZM1 8C1 11.866 4.13401 15 8 15C11.866 15 15 11.866 15 8C15 4.13401 11.866 1 8 1C4.13401 1 1 4.13401 1 8Z" fill="black"/>
</svg>
