<svg width="16" height="16" viewBox="0 0 16 16" fill="none" xmlns="http://www.w3.org/2000/svg">
<path d="M7.51866 5.0572C7.73836 4.70539 7.958 4.35367 8.17578 4.00195H10.1094V9.33398H11.1172V10.4414H10.1094V12H8.84961V10.4414H4.97656V9.32227C5.7465 7.89506 6.63305 6.47538 7.51866 5.0572ZM6.22461 9.28125V9.33398H8.84961V5.0625H8.78516C7.91797 6.39258 6.99805 7.86914 6.22461 9.28125Z" fill="black"/>
<path d="M0 2C0 0.895431 0.895431 0 2 0H14C15.1046 0 16 0.895431 16 2V14C16 15.1046 15.1046 16 14 16H2C0.895431 16 0 15.1046 0 14V2ZM15 2C15 1.44772 14.5523 1 14 1H2C1.44772 1 1 1.44772 1 2V14C1 14.5523 1.44772 15 2 15H14C14.5523 15 15 14.5523 15 14V2Z" fill="black"/>
</svg>
