<svg width="16" height="16" viewBox="0 0 16 16" fill="none" xmlns="http://www.w3.org/2000/svg">
<path d="M6.22461 9.28125V9.33398H8.84961V5.0625H8.78516C7.91797 6.39258 6.99805 7.86914 6.22461 9.28125Z" fill="black"/>
<path d="M2 0C0.895431 0 0 0.895431 0 2V14C0 15.1046 0.895431 16 2 16H14C15.1046 16 16 15.1046 16 14V2C16 0.895431 15.1046 0 14 0H2ZM7.51866 5.0572C7.73836 4.70539 7.958 4.35367 8.17578 4.00195H10.1094V9.33398H11.1172V10.4414H10.1094V12H8.84961V10.4414H4.97656V9.32227C5.7465 7.89506 6.63305 6.47538 7.51866 5.0572Z" fill="black"/>
</svg>
