<svg width="16" height="16" viewBox="0 0 16 16" fill="none" xmlns="http://www.w3.org/2000/svg">
<path d="M16 8C16 12.4183 12.4183 16 8 16C3.58172 16 0 12.4183 0 8C0 3.58172 3.58172 0 8 0C12.4183 0 16 3.58172 16 8ZM7.99414 12.1582C9.73438 12.1582 10.918 11.0391 10.918 9.35156C10.918 7.71094 9.74023 6.76758 8.35742 6.76758C7.46094 6.76758 6.91602 7.18945 6.74609 7.44727H6.68164L6.875 5.10352H10.4961V4.00195H5.79102L5.44531 8.63086H6.59375C6.78711 8.27344 7.26172 7.82227 8.0293 7.82227C8.87891 7.82227 9.61133 8.42578 9.61133 9.39258C9.61133 10.4766 8.83203 11.0742 8.04102 11.0742C7.34375 11.0742 6.65234 10.7637 6.51172 10.043H5.27539C5.33984 11.2559 6.42383 12.1582 7.99414 12.1582Z" fill="black"/>
</svg>
