<svg width="16" height="16" viewBox="0 0 16 16" fill="none" xmlns="http://www.w3.org/2000/svg">
<path d="M2 0C0.895431 0 0 0.895431 0 2V14C0 15.1046 0.895431 16 2 16H14C15.1046 16 16 15.1046 16 14V2C16 0.895431 15.1046 0 14 0H2ZM7.99414 12.1582C6.42383 12.1582 5.33984 11.2559 5.27539 10.043H6.51172C6.65234 10.7637 7.34375 11.0742 8.04102 11.0742C8.83203 11.0742 9.61133 10.4766 9.61133 9.39258C9.61133 8.42578 8.87891 7.82227 8.0293 7.82227C7.26172 7.82227 6.78711 8.27344 6.59375 8.63086H5.44531L5.79102 4.00195H10.4961V5.10352H6.875L6.68164 7.44727H6.74609C6.91602 7.18945 7.46094 6.76758 8.35742 6.76758C9.74023 6.76758 10.918 7.71094 10.918 9.35156C10.918 11.0391 9.73438 12.1582 7.99414 12.1582Z" fill="black"/>
</svg>
