<svg width="16" height="16" viewBox="0 0 16 16" fill="none" xmlns="http://www.w3.org/2000/svg">
<path d="M8.11133 7.86328C7.19141 7.86328 6.54688 8.51367 6.54688 9.43945C6.54688 10.4707 7.25 11.0742 8.10547 11.0742C8.97266 11.0742 9.6582 10.541 9.6582 9.44531C9.6582 8.38477 8.91406 7.86328 8.11133 7.86328Z" fill="black"/>
<path d="M2 0C0.895431 0 0 0.895431 0 2V14C0 15.1046 0.895431 16 2 16H14C15.1046 16 16 15.1046 16 14V2C16 0.895431 15.1046 0 14 0H2ZM8.21094 3.85547C9.82227 3.85547 10.7246 4.8457 10.7832 5.75391H9.49414C9.39453 5.39648 8.98438 4.93945 8.18164 4.93945C7.10352 4.93945 6.36523 6.0293 6.37695 7.97461H6.45898C6.6875 7.42969 7.31445 6.82031 8.43945 6.82031C9.69336 6.82031 10.9473 7.69922 10.9473 9.375C10.9473 11.1445 9.72852 12.1582 8.09961 12.1582C7.16797 12.1582 6.25977 11.8301 5.69141 10.9043C5.32227 10.3008 5.09375 9.44531 5.09375 8.26172C5.09375 5.25 6.3418 3.85547 8.21094 3.85547Z" fill="black"/>
</svg>
