<svg width="16" height="16" viewBox="0 0 16 16" fill="none" xmlns="http://www.w3.org/2000/svg">
<path d="M1 8C1 11.866 4.13401 15 8 15C11.866 15 15 11.866 15 8C15 4.13401 11.866 1 8 1C4.13401 1 1 4.13401 1 8ZM16 8C16 12.4183 12.4183 16 8 16C3.58172 16 0 12.4183 0 8C0 3.58172 3.58172 0 8 0C12.4183 0 16 3.58172 16 8ZM10.9707 9.80273C10.9707 11.1973 9.75195 12.1582 7.98242 12.1582C6.21875 12.1582 5.0293 11.2031 5.0293 9.81445C5.0293 8.54297 5.97852 7.96289 6.67578 7.81055V7.74609C6.05469 7.55273 5.3457 7.00781 5.3457 5.96484C5.3457 4.74023 6.43555 3.84375 8.00586 3.84375C9.57617 3.84375 10.6602 4.74023 10.6602 5.96484C10.6602 7.02539 9.92188 7.55859 9.32422 7.74609V7.81055C10.0273 7.96289 10.9707 8.55469 10.9707 9.80273ZM6.62305 6.09375C6.62305 6.83203 7.20898 7.34766 8.00586 7.34766C8.80273 7.34766 9.38281 6.83203 9.38281 6.09375C9.38281 5.36133 8.80273 4.86328 8.00586 4.86328C7.20898 4.86328 6.62305 5.36133 6.62305 6.09375ZM6.3418 9.73828C6.3418 10.5762 7.0625 11.1504 8.00586 11.1504C8.94922 11.1504 9.66406 10.5762 9.66406 9.73828C9.66406 8.89453 8.94922 8.31445 8.00586 8.31445C7.0625 8.31445 6.3418 8.89453 6.3418 9.73828Z" fill="black"/>
</svg>
