<svg width="16" height="16" viewBox="0 0 16 16" fill="none" xmlns="http://www.w3.org/2000/svg">
<path d="M16 8C16 12.4183 12.4183 16 8 16C3.58172 16 0 12.4183 0 8C0 3.58172 3.58172 0 8 0C12.4183 0 16 3.58172 16 8ZM7.77734 12.1465C9.88086 12.1465 10.9004 10.6816 10.9004 7.8457C10.9004 4.69922 9.44141 3.83203 7.92969 3.83203C6.30078 3.83203 5.05859 4.85156 5.05859 6.5625C5.05859 8.26758 6.23047 9.22852 7.625 9.22852C8.68555 9.22852 9.32422 8.67188 9.55859 8.04492H9.63477C9.68164 9.71484 9.16016 11.0684 7.80078 11.0684C7.0918 11.0684 6.65234 10.7051 6.55273 10.3477H5.25781C5.35156 11.2559 6.18359 12.1465 7.77734 12.1465ZM7.89453 8.17383C8.70312 8.17383 9.42969 7.64648 9.42969 6.58008C9.42969 5.51367 8.76172 4.9043 7.87109 4.9043C7.0332 4.9043 6.35352 5.51953 6.35352 6.5625C6.35352 7.63477 7.0625 8.17383 7.89453 8.17383Z" fill="black"/>
</svg>
