<svg width="16" height="16" viewBox="0 0 16 16" fill="none" xmlns="http://www.w3.org/2000/svg">
<path d="M7.77734 12.1465C6.18359 12.1465 5.35156 11.2559 5.25781 10.3477H6.55273C6.65234 10.7051 7.0918 11.0684 7.80078 11.0684C9.16016 11.0684 9.68164 9.71484 9.63477 8.04492H9.55859C9.32422 8.67188 8.68555 9.22852 7.625 9.22852C6.23047 9.22852 5.05859 8.26758 5.05859 6.5625C5.05859 4.85156 6.30078 3.83203 7.92969 3.83203C9.44141 3.83203 10.9004 4.69922 10.9004 7.8457C10.9004 10.6816 9.88086 12.1465 7.77734 12.1465ZM7.89453 8.17383C8.70312 8.17383 9.42969 7.64648 9.42969 6.58008C9.42969 5.51367 8.76172 4.9043 7.87109 4.9043C7.0332 4.9043 6.35352 5.51953 6.35352 6.5625C6.35352 7.63477 7.0625 8.17383 7.89453 8.17383Z" fill="black"/>
<path d="M0 2C0 0.895431 0.895431 0 2 0H14C15.1046 0 16 0.895431 16 2V14C16 15.1046 15.1046 16 14 16H2C0.895431 16 0 15.1046 0 14V2ZM15 2C15 1.44772 14.5523 1 14 1H2C1.44772 1 1 1.44772 1 2V14C1 14.5523 1.44772 15 2 15H14C14.5523 15 15 14.5523 15 14V2Z" fill="black"/>
</svg>
