<svg width="16" height="16" viewBox="0 0 16 16" fill="none" xmlns="http://www.w3.org/2000/svg">
<path d="M6.42779 1.15139C6.70753 0.591907 7.21296 2.98023e-08 8 0C8.78704 -5.96046e-08 9.29247 0.591907 9.57221 1.15139C9.86084 1.72866 10 2.43164 10 3L10 6.69098L15.1708 9.27639C15.679 9.53048 16 10.0499 16 10.618L16 12C16 12.147 15.9353 12.2865 15.8232 12.3815C15.711 12.4765 15.5628 12.5174 15.4178 12.4932L9.911 11.5754L9.5355 13.8284L10.8536 15.1464C10.9966 15.2894 11.0393 15.5045 10.9619 15.6913C10.8845 15.8782 10.7022 16 10.5 16L5.5 16C5.29777 16 5.11545 15.8782 5.03806 15.6913C4.96067 15.5045 5.00345 15.2894 5.14645 15.1464L6.4645 13.8284L6.089 11.5754L0.5822 12.4932C0.437223 12.5174 0.288958 12.4765 0.176813 12.3815C0.0646668 12.2865 0 12.147 0 12L0 10.618C0 10.0499 0.321003 9.53048 0.829179 9.27639L6 6.69098V3C6 2.43164 6.13915 1.72866 6.42779 1.15139ZM7.32221 1.59861C7.11085 2.02134 7 2.56836 7 3V7C7 7.18939 6.893 7.36252 6.72361 7.44721L1.27639 10.1708C1.107 10.2555 1 10.4286 1 10.618V11.4098L6.4178 10.5068C6.69019 10.4614 6.9478 10.6454 6.9932 10.9178L7.4932 13.9178C7.51974 14.0771 7.46773 14.2394 7.35355 14.3536L6.70711 15H9.29289L8.64645 14.3536C8.53227 14.2394 8.48026 14.0771 8.5068 13.9178L9.0068 10.9178C9.0522 10.6454 9.30981 10.4614 9.5822 10.5068L15 11.4098V10.618C15 10.4286 14.893 10.2555 14.7236 10.1708L9.27639 7.44721C9.107 7.36252 9 7.18939 9 7L9 3C9 2.56836 8.88916 2.02134 8.67779 1.59861C8.45753 1.15809 8.21296 1 8 1C7.78704 1 7.54247 1.15809 7.32221 1.59861Z" fill="black"/>
</svg>
