<svg width="16" height="16" viewBox="0 0 16 16" fill="none" xmlns="http://www.w3.org/2000/svg">
<path d="M8 0C7.21296 0 6.70753 0.591907 6.42779 1.15139C6.13915 1.72866 6 2.43164 6 3V6.69098L4 7.69098V7.5C4 7.22386 3.77614 7 3.5 7H2.5C2.22386 7 2 7.22386 2 7.5V8.69098L0.829179 9.27639C0.321003 9.53048 0 10.0499 0 10.618V12C0 12.147 0.0646668 12.2865 0.176813 12.3815C0.288958 12.4765 0.437223 12.5174 0.5822 12.4932L2.2134 12.2213L2.52566 13.1581C2.59372 13.3623 2.78478 13.5 3 13.5C3.21522 13.5 3.40628 13.3623 3.47434 13.1581L3.87914 11.9437L6.089 11.5754L6.4645 13.8284L5.14645 15.1464C5.00345 15.2894 4.96067 15.5045 5.03806 15.6913C5.11545 15.8782 5.29777 16 5.5 16H10.5C10.7022 16 10.8845 15.8782 10.9619 15.6913C11.0393 15.5045 10.9966 15.2894 10.8536 15.1464L9.5355 13.8284L9.911 11.5754L12.1209 11.9437L12.5257 13.1581C12.5937 13.3623 12.7848 13.5 13 13.5C13.2152 13.5 13.4063 13.3623 13.4743 13.1581L13.7866 12.2213L15.4178 12.4932C15.5628 12.5174 15.711 12.4765 15.8232 12.3815C15.9353 12.2865 16 12.147 16 12V10.618C16 10.0499 15.679 9.53048 15.1708 9.27639L14 8.69098V7.5C14 7.22386 13.7761 7 13.5 7H12.5C12.2239 7 12 7.22386 12 7.5V7.69098L10 6.69098V3C10 2.43164 9.86084 1.72866 9.57221 1.15139C9.29247 0.591907 8.78704 0 8 0ZM7 3C7 2.56836 7.11085 2.02134 7.32221 1.59861C7.54247 1.15809 7.78704 1 8 1C8.21296 1 8.45753 1.15809 8.67779 1.59861C8.88916 2.02134 9 2.56836 9 3V7C9 7.18939 9.107 7.36252 9.27639 7.44721L14.7236 10.1708C14.893 10.2555 15 10.4286 15 10.618V11.4098L9.5822 10.5068C9.30981 10.4614 9.0522 10.6454 9.0068 10.9178L8.5068 13.9178C8.48026 14.0771 8.53227 14.2394 8.64645 14.3536L9.29289 15H6.70711L7.35355 14.3536C7.46773 14.2394 7.51974 14.0771 7.4932 13.9178L6.9932 10.9178C6.9478 10.6454 6.69019 10.4614 6.4178 10.5068L1 11.4098V10.618C1 10.4286 1.107 10.2555 1.27639 10.1708L6.72361 7.44721C6.893 7.36252 7 7.18939 7 7V3Z" fill="black"/>
</svg>
