<svg width="16" height="16" viewBox="0 0 16 16" fill="none" xmlns="http://www.w3.org/2000/svg">
<path d="M8.5 5.5C8.5 5.22386 8.27614 5 8 5C7.72386 5 7.5 5.22386 7.5 5.5V8.86151L6.07125 11.2428C5.92918 11.4795 6.00596 11.7867 6.24275 11.9287C6.47954 12.0708 6.78667 11.994 6.92875 11.7572L8.42875 9.25725C8.47537 9.17954 8.5 9.09062 8.5 9V5.5Z" fill="black"/>
<path d="M6.5 0C6.22386 0 6 0.223858 6 0.5C6 0.776142 6.22386 1 6.5 1H7V2.07094C3.60749 2.55639 1 5.47347 1 9C1 11.2575 2.06896 13.2651 3.72655 14.5445L3.12463 15.1464C2.92937 15.3417 2.92937 15.6583 3.12463 15.8536C3.31989 16.0488 3.63647 16.0488 3.83173 15.8536L4.57762 15.1077C5.58982 15.676 6.75768 16 8 16C9.24232 16 10.4102 15.676 11.4224 15.1077L12.1683 15.8536C12.3635 16.0488 12.6801 16.0488 12.8754 15.8536C13.0706 15.6583 13.0706 15.3417 12.8754 15.1464L12.2735 14.5445C13.931 13.2651 15 11.2575 15 9C15 5.47347 12.3925 2.55639 9 2.07094V1H9.5C9.77614 1 10 0.776142 10 0.5C10 0.223858 9.77614 0 9.5 0H6.5ZM7.53793 3.0175C7.69034 3.00591 7.84443 3 8 3C8.15557 3 8.30966 3.00591 8.46207 3.0175C11.5596 3.25314 14 5.84182 14 9C14 11.1237 12.8971 12.99 11.2304 14.0571C10.2982 14.6539 9.19027 15 8 15C6.80973 15 5.70182 14.6539 4.76959 14.0571C3.10293 12.99 2 11.1237 2 9C2 5.84182 4.44038 3.25314 7.53793 3.0175Z" fill="black"/>
<path d="M0 3.5C0 4.25335 0.333216 4.92887 0.860303 5.38722C1.6299 3.86932 2.86932 2.6299 4.38722 1.8603C3.92887 1.33322 3.25335 1 2.5 1C1.11929 1 0 2.11929 0 3.5Z" fill="black"/>
<path d="M13.5 1C12.7467 1 12.0711 1.33322 11.6128 1.8603C13.1307 2.6299 14.3701 3.86932 15.1397 5.38722C15.6668 4.92887 16 4.25335 16 3.5C16 2.11929 14.8807 1 13.5 1Z" fill="black"/>
</svg>
