<svg width="16" height="16" viewBox="0 0 16 16" fill="none" xmlns="http://www.w3.org/2000/svg">
<path d="M6 0.5C6 0.223858 6.22386 0 6.5 0H9.5C9.77614 0 10 0.223858 10 0.5C10 0.776142 9.77614 1 9.5 1H9V2.07094C12.3925 2.55639 15 5.47347 15 9C15 11.2575 13.931 13.2651 12.2735 14.5445L12.8754 15.1464C13.0706 15.3417 13.0706 15.6583 12.8754 15.8536C12.6801 16.0488 12.3635 16.0488 12.1683 15.8536L11.4224 15.1077C10.4102 15.676 9.24232 16 8 16C6.75768 16 5.58982 15.676 4.57762 15.1077L3.83173 15.8536C3.63647 16.0488 3.31989 16.0488 3.12463 15.8536C2.92937 15.6583 2.92937 15.3417 3.12463 15.1464L3.72655 14.5445C2.06896 13.2651 1 11.2575 1 9C1 5.47347 3.60749 2.55639 7 2.07094V1H6.5C6.22386 1 6 0.776142 6 0.5ZM8.5 5.5C8.5 5.22386 8.27614 5 8 5C7.72386 5 7.5 5.22386 7.5 5.5V8.86151L6.07125 11.2428C5.92918 11.4795 6.00596 11.7867 6.24275 11.9287C6.47954 12.0708 6.78667 11.994 6.92875 11.7572L8.42875 9.25725C8.47537 9.17954 8.5 9.09062 8.5 9V5.5Z" fill="black"/>
<path d="M0.860303 5.38722C0.333216 4.92887 0 4.25335 0 3.5C0 2.11929 1.11929 1 2.5 1C3.25335 1 3.92887 1.33322 4.38722 1.8603C2.86932 2.6299 1.6299 3.86932 0.860303 5.38722Z" fill="black"/>
<path d="M11.6128 1.8603C12.0711 1.33322 12.7467 1 13.5 1C14.8807 1 16 2.11929 16 3.5C16 4.25335 15.6668 4.92887 15.1397 5.38722C14.3701 3.86932 13.1307 2.6299 11.6128 1.8603Z" fill="black"/>
</svg>
