<svg width="16" height="16" viewBox="0 0 16 16" fill="none" xmlns="http://www.w3.org/2000/svg">
<path d="M7.99596 0C3.57995 0 0 3.58179 0 8.00005C0 12.0566 3.01793 15.4075 6.92991 15.9291V14.3171C6.92991 13.8625 6.64336 13.454 6.21269 13.3094C3.95558 12.5508 2.34086 10.3924 2.40033 7.86505C2.47274 4.78832 4.97778 2.36923 8.0537 2.40025C11.1184 2.43126 13.5932 4.92649 13.5932 8.00005C13.5932 8.07009 13.5915 8.1398 13.5889 8.20913C13.5883 8.22466 13.5878 8.24033 13.5872 8.25591C13.5842 8.32033 13.5803 8.38462 13.5753 8.4485C13.5738 8.46885 13.5717 8.48913 13.5698 8.50943C13.5659 8.55404 13.5614 8.59836 13.5563 8.6426C13.5506 8.69284 13.5441 8.74279 13.5371 8.7925C13.534 8.81524 13.531 8.83803 13.5275 8.86058C12.8422 13.377 6.96279 15.9153 6.93052 15.9292C7.27919 15.9756 7.63476 16 7.99596 16C12.4121 16 15.992 12.4183 15.992 8.00005C15.992 3.58179 12.4121 0 7.99596 0Z" fill="black"/>
</svg>
