<svg width="17" height="16" viewBox="0 0 17 16" fill="none" xmlns="http://www.w3.org/2000/svg">
<path d="M2.54138 0H13.5C14.9039 0 16.0405 1.1472 16.0405 2.56326V10.8597C16.0343 10.8592 15.5087 10.8135 13.0618 10.0466C12.6496 9.90728 12.1458 9.72015 11.5833 9.51125C11.2797 9.39848 10.959 9.27937 10.6264 9.15801C11.1962 8.15902 11.6513 7.02141 11.9505 5.78504H8.82325V4.64908H12.6541V4.015H8.82325V2.12133H7.25988C6.98563 2.12133 6.98563 2.39438 6.98563 2.39438V4.015H3.11122V4.64908H6.98563V5.78504H3.7868V6.41896H9.99084C9.7638 7.20784 9.45897 7.94847 9.0972 8.62135C7.08409 7.95146 4.93595 7.40851 3.58643 7.7427C2.72337 7.95716 2.16753 8.33991 1.84098 8.74094C0.342193 10.5801 1.41716 13.3735 4.58242 13.3735C6.45392 13.3735 8.25677 12.3212 9.6541 10.587C11.7338 11.5952 16.0231 13.3248 16.0405 13.3321V13.4372C16.0405 14.8523 14.9039 16 13.5 16H2.54138C1.13716 16 0 14.8523 0 13.4372V2.56326C0 1.1472 1.13716 0 2.54138 0Z" fill="black"/>
<path d="M2.3087 9.27071C1.08896 10.3434 1.81865 12.3041 4.28674 12.3041C5.72123 12.3041 7.15513 11.379 8.2809 9.89789C6.67931 9.10946 5.32215 8.54537 3.85604 8.69149C3.4595 8.7312 2.71573 8.90819 2.3087 9.27071Z" fill="black"/>
</svg>
