<svg width="16" height="16" viewBox="0 0 16 16" fill="none" xmlns="http://www.w3.org/2000/svg">
<path d="M1.22573 10.8807H0L2.05635 4.61927H3.47514L5.52251 10.8807H4.23392L3.75351 9.27064H1.70614L1.22573 10.8807ZM2.76125 5.81651H2.70737L1.95757 8.34862H3.51106L2.76125 5.81651Z" fill="black"/>
<path d="M5.97688 10.8807V4.61927H8.53609C9.62712 4.61927 10.3455 5.20183 10.3455 6.16055C10.3455 6.92202 9.901 7.38073 9.29487 7.53211V7.58716C10.0312 7.66055 10.6598 8.17431 10.6598 9.11468C10.6598 10.2339 9.77079 10.8807 8.52711 10.8807H5.97688ZM7.18015 5.55046V7.22477H7.97935C8.79201 7.22477 9.1512 6.91743 9.1512 6.37156C9.1512 5.86239 8.82344 5.55046 8.25323 5.55046H7.18015ZM7.18015 8.08716V9.94954H8.08261C9.03446 9.94954 9.42508 9.63761 9.42508 9.04128C9.42508 8.44954 9.04344 8.08716 8.32955 8.08716H7.18015Z" fill="black"/>
<path d="M12.2689 7.37615V8.15138C12.2689 9.30734 12.7583 9.95413 13.6159 9.95413C14.3208 9.95413 14.7788 9.5 14.8282 8.8578H16V8.97706C15.9416 10.1743 14.9494 11 13.6069 11C11.9591 11 11.0342 9.92661 11.0342 8.15138V7.37156C11.0342 5.59633 11.9681 4.5 13.6069 4.5C14.9539 4.5 15.9461 5.34862 16 6.58716V6.70183H14.8282C14.7788 6.0367 14.3118 5.54587 13.6159 5.54587C12.7673 5.54587 12.2689 6.2156 12.2689 7.37615Z" fill="black"/>
</svg>
