<svg width="16" height="16" viewBox="0 0 16 16" fill="none" xmlns="http://www.w3.org/2000/svg">
<path d="M1 13.5C1 13.7761 1.22386 14 1.5 14H5.29682C5.47979 14 5.64815 13.9001 5.73576 13.7394L11 3H14.5C14.7761 3 15 2.77614 15 2.5C15 2.22386 14.7761 2 14.5 2H10.7032C10.5202 2 10.3519 2.09994 10.2642 2.26057L5 13H1.5C1.22386 13 1 13.2239 1 13.5Z" fill="black"/>
<path d="M11 13.5C11 13.7761 11.2239 14 11.5 14H14.5C14.7761 14 15 13.7761 15 13.5C15 13.2239 14.7761 13 14.5 13H11.5C11.2239 13 11 13.2239 11 13.5Z" fill="black"/>
</svg>
