<svg width="16" height="16" viewBox="0 0 16 16" fill="none" xmlns="http://www.w3.org/2000/svg">
<path d="M2.76057 3.06102C3.003 2.92879 3.30672 3.01812 3.43895 3.26055L4.72195 5.61271C5.72235 5.21901 6.83194 4.99997 8 4.99997C9.16806 4.99997 10.2777 5.21901 11.2781 5.61271L12.5611 3.26055C12.6933 3.01812 12.997 2.92879 13.2394 3.06102C13.4819 3.19326 13.5712 3.49697 13.4389 3.7394L12.1872 6.03422C14.4748 7.26613 16 9.4772 16 12H0C0 9.4772 1.5252 7.26613 3.81277 6.03422L2.56105 3.7394C2.42882 3.49697 2.51815 3.19326 2.76057 3.06102ZM5 10C5.55228 10 6 9.55228 6 9C6 8.44772 5.55228 8 5 8C4.44772 8 4 8.44772 4 9C4 9.55228 4.44772 10 5 10ZM11 10C11.5523 10 12 9.55228 12 9C12 8.44772 11.5523 8 11 8C10.4477 8 10 8.44772 10 9C10 9.55228 10.4477 10 11 10Z" fill="black"/>
</svg>
