<svg width="16" height="16" viewBox="0 0 16 16" fill="none" xmlns="http://www.w3.org/2000/svg">
<path d="M10.2134 1.47102L10.9043 0.21162C10.9496 0.128243 10.9335 0.0643062 10.8558 0.0193481C10.7713 -0.0194188 10.7065 0.000225015 10.6612 0.076891L9.96069 1.34636C9.34429 1.07705 8.69236 0.942146 8.00489 0.942146C7.31727 0.942146 6.66528 1.07708 6.04912 1.34636L5.34859 0.076891C5.30307 0.000225015 5.23822 -0.0192452 5.15403 0.0193481C5.0761 0.0645087 5.05997 0.128243 5.10549 0.21162L5.79636 1.47102C5.09583 1.82406 4.5379 2.31574 4.12277 2.94712C3.70765 3.57885 3.5 4.26919 3.5 5.01936H12.5C12.5 4.26936 12.2923 3.57899 11.8772 2.94712C11.4621 2.31574 10.9074 1.82406 10.2134 1.47102ZM6.21933 3.30285C6.14462 3.37685 6.05539 3.41368 5.95166 3.41368C5.84774 3.41368 5.76032 3.37685 5.689 3.30285C5.61769 3.22919 5.58203 3.14136 5.58203 3.03851C5.58203 2.93601 5.61769 2.848 5.689 2.77417C5.76032 2.70051 5.84794 2.66369 5.95166 2.66369C6.05539 2.66369 6.14462 2.70051 6.21933 2.77417C6.29386 2.84818 6.33131 2.93601 6.33131 3.03851C6.3311 3.14119 6.29369 3.22919 6.21933 3.30285ZM10.3204 3.30285C10.2489 3.37685 10.1613 3.41368 10.0578 3.41368C9.95381 3.41368 9.8646 3.37685 9.79004 3.30285C9.71536 3.22919 9.67809 3.14136 9.67809 3.03851C9.67809 2.93601 9.71536 2.848 9.79004 2.77417C9.8646 2.70051 9.95381 2.66369 10.0578 2.66369C10.1615 2.66369 10.2489 2.70051 10.3204 2.77417C10.3918 2.84818 10.4274 2.93601 10.4274 3.03851C10.4274 3.14119 10.3917 3.22919 10.3204 3.30285Z" fill="black"/>
<path d="M3.5 11.7691C3.5 12.0642 3.60372 12.314 3.8112 12.5191C4.01885 12.7241 4.27167 12.8266 4.57013 12.8266H5.32883L5.3387 15.0095C5.3387 15.2852 5.43598 15.5193 5.63054 15.7116C5.82511 15.9039 6.05875 16 6.33107 16C6.60986 16 6.8467 15.9039 7.04129 15.7116C7.23588 15.5193 7.33317 15.2852 7.33317 15.0095V12.8268H8.67585V15.0095C8.67585 15.2852 8.7731 15.5193 8.9677 15.7116C9.16229 15.9039 9.39892 16 9.67792 16C9.95671 16 10.1935 15.9039 10.3881 15.7116C10.5827 15.5193 10.68 15.2852 10.68 15.0095V12.8268H11.4395C11.7313 12.8268 11.9809 12.7243 12.1888 12.5192C12.3962 12.3142 12.5 12.0644 12.5 11.7693V5.36516H3.5V11.7691Z" fill="black"/>
<path d="M13.9952 5.18262C13.7219 5.18262 13.4878 5.2757 13.2927 5.46134C13.0976 5.64733 13 5.87579 13 6.14632V10.2093C13 10.4805 13.0975 10.7102 13.2927 10.8992C13.4878 11.0881 13.7221 11.1826 13.9952 11.1826C14.2747 11.1826 14.5122 11.0881 14.7073 10.8992C14.9025 10.7102 15 10.4805 15 10.2093V6.14632C15 5.87576 14.9025 5.64733 14.7073 5.46134C14.5122 5.2757 14.2747 5.18262 13.9952 5.18262Z" fill="black"/>
<path d="M1.29265 5.46603C1.48774 5.27709 1.72506 5.18262 2.00477 5.18262C2.27799 5.18262 2.51223 5.27709 2.70735 5.46603C2.90246 5.65497 3 5.88167 3 6.14632V10.2093C3 10.4805 2.9039 10.7102 2.71222 10.8992C2.52016 11.0881 2.28427 11.1826 2.00477 11.1826C1.72506 11.1826 1.48774 11.0881 1.29265 10.8992C1.09754 10.7102 1 10.4805 1 10.2093V6.14632C1 5.8817 1.09757 5.65497 1.29265 5.46603Z" fill="black"/>
</svg>
