<svg width="16" height="16" viewBox="0 0 16 16" fill="none" xmlns="http://www.w3.org/2000/svg">
<path d="M5.5 2C3.567 2 2 3.567 2 5.5V10.5C2 12.433 3.567 14 5.5 14H10.5C12.433 14 14 12.433 14 10.5V8C14 7.72386 14.2239 7.5 14.5 7.5C14.7761 7.5 15 7.72386 15 8V10.5C15 12.9853 12.9853 15 10.5 15H5.5C3.01472 15 1 12.9853 1 10.5V5.5C1 3.01472 3.01472 1 5.5 1H8C8.27614 1 8.5 1.22386 8.5 1.5C8.5 1.77614 8.27614 2 8 2H5.5Z" fill="black"/>
<path d="M16 3C16 4.65685 14.6569 6 13 6C11.3431 6 10 4.65685 10 3C10 1.34315 11.3431 0 13 0C14.6569 0 16 1.34315 16 3Z" fill="black"/>
</svg>
