<svg width="16" height="16" viewBox="0 0 16 16" fill="none" xmlns="http://www.w3.org/2000/svg">
<path fill-rule="evenodd" clip-rule="evenodd" d="M7.64645 0.146447C7.84171 -0.0488155 8.15829 -0.0488155 8.35355 0.146447L10.3536 2.14645C10.5488 2.34171 10.5488 2.65829 10.3536 2.85355C10.1583 3.04882 9.84171 3.04882 9.64645 2.85355L8.5 1.70711V5.5C8.5 5.77614 8.27614 6 8 6C7.72386 6 7.5 5.77614 7.5 5.5V1.70711L6.35355 2.85355C6.15829 3.04882 5.84171 3.04882 5.64645 2.85355C5.45118 2.65829 5.45118 2.34171 5.64645 2.14645L7.64645 0.146447ZM8 10C8.27614 10 8.5 10.2239 8.5 10.5V14.2929L9.64645 13.1464C9.84171 12.9512 10.1583 12.9512 10.3536 13.1464C10.5488 13.3417 10.5488 13.6583 10.3536 13.8536L8.35355 15.8536C8.15829 16.0488 7.84171 16.0488 7.64645 15.8536L5.64645 13.8536C5.45118 13.6583 5.45118 13.3417 5.64645 13.1464C5.84171 12.9512 6.15829 12.9512 6.35355 13.1464L7.5 14.2929V10.5C7.5 10.2239 7.72386 10 8 10Z" fill="black"/>
<path fill-rule="evenodd" clip-rule="evenodd" d="M0.146447 8.35355C-0.0488155 8.15829 -0.0488155 7.84171 0.146447 7.64645L2.14645 5.64645C2.34171 5.45118 2.65829 5.45118 2.85355 5.64645C3.04882 5.84171 3.04882 6.15829 2.85355 6.35355L1.70711 7.5H5.5C5.77614 7.5 6 7.72386 6 8C6 8.27614 5.77614 8.5 5.5 8.5H1.70711L2.85355 9.64645C3.04882 9.84171 3.04882 10.1583 2.85355 10.3536C2.65829 10.5488 2.34171 10.5488 2.14645 10.3536L0.146447 8.35355ZM10 8C10 7.72386 10.2239 7.5 10.5 7.5L14.2929 7.5L13.1464 6.35355C12.9512 6.15829 12.9512 5.84171 13.1464 5.64645C13.3417 5.45118 13.6583 5.45118 13.8536 5.64645L15.8536 7.64645C16.0488 7.84171 16.0488 8.15829 15.8536 8.35355L13.8536 10.3536C13.6583 10.5488 13.3417 10.5488 13.1464 10.3536C12.9512 10.1583 12.9512 9.84171 13.1464 9.64645L14.2929 8.5H10.5C10.2239 8.5 10 8.27614 10 8Z" fill="black"/>
</svg>
