<svg width="16" height="16" viewBox="0 0 16 16" fill="none" xmlns="http://www.w3.org/2000/svg">
<path d="M14 16C15.1046 16 16 15.1046 16 14V2C16 0.895431 15.1046 0 14 0H2C0.895431 0 0 0.895431 0 2V14C0 15.1046 0.895431 16 2 16H14ZM5.9038 5.19671L10 9.2929L10 6.52513C10 6.24899 10.2239 6.02513 10.5 6.02513C10.7761 6.02513 11 6.24899 11 6.52513V10.5C11 10.7762 10.7761 11 10.5 11L6.52517 11C6.24902 11 6.02516 10.7761 6.02516 10.5C6.02516 10.2239 6.24902 10 6.52517 10L9.29289 10L5.1967 5.90382C5.00144 5.70855 5.00144 5.39197 5.1967 5.19671C5.39196 5.00145 5.70854 5.00145 5.9038 5.19671Z" fill="black"/>
</svg>
