<svg width="16" height="16" viewBox="0 0 16 16" fill="none" xmlns="http://www.w3.org/2000/svg">
<path fill-rule="evenodd" clip-rule="evenodd" d="M1 3.5C1 3.22386 1.22386 3 1.5 3L14.5 3C14.7761 3 15 3.22386 15 3.5C15 3.77614 14.7761 4 14.5 4L1.5 4C1.22386 4 1 3.77614 1 3.5Z" fill="black"/>
<path fill-rule="evenodd" clip-rule="evenodd" d="M8 6C8.27614 6 8.5 6.22386 8.5 6.5L8.5 12.2929L10.6464 10.1464C10.8417 9.95118 11.1583 9.95118 11.3536 10.1464C11.5488 10.3417 11.5488 10.6583 11.3536 10.8536L8.35355 13.8536C8.15829 14.0488 7.84171 14.0488 7.64645 13.8536L4.64645 10.8536C4.45118 10.6583 4.45118 10.3417 4.64645 10.1464C4.84171 9.95118 5.15829 9.95118 5.35355 10.1464L7.5 12.2929L7.5 6.5C7.5 6.22386 7.72386 6 8 6Z" fill="black"/>
</svg>
