<svg width="16" height="16" viewBox="0 0 16 16" fill="none" xmlns="http://www.w3.org/2000/svg">
<path d="M14 0C15.1046 0 16 0.895431 16 2V14C16 15.1046 15.1046 16 14 16H2C0.895431 16 0 15.1046 0 14V2C0 0.895431 0.895431 0 2 0H14ZM5.9038 10.8033L10 6.7071L10 9.47487C10 9.75101 10.2239 9.97487 10.5 9.97487C10.7761 9.97487 11 9.75101 11 9.47487V5.49999C11 5.22385 10.7761 4.99999 10.5 4.99999L6.52517 4.99999C6.24902 4.99999 6.02516 5.22385 6.02516 5.49999C6.02516 5.77614 6.24902 5.99999 6.52517 5.99999L9.29289 5.99999L5.1967 10.0962C5.00144 10.2914 5.00144 10.608 5.1967 10.8033C5.39196 10.9986 5.70854 10.9986 5.9038 10.8033Z" fill="black"/>
</svg>
