<svg width="16" height="16" viewBox="0 0 16 16" fill="none" xmlns="http://www.w3.org/2000/svg">
<path fill-rule="evenodd" clip-rule="evenodd" d="M1 8C1 11.866 4.13401 15 8 15C11.866 15 15 11.866 15 8C15 4.13401 11.866 1 8 1C4.13401 1 1 4.13401 1 8ZM16 8C16 12.4183 12.4183 16 8 16C3.58172 16 0 12.4183 0 8C0 3.58172 3.58172 0 8 0C12.4183 0 16 3.58172 16 8ZM5.85354 5.14645C5.65828 4.95118 5.3417 4.95118 5.14644 5.14645C4.95117 5.34171 4.95117 5.65829 5.14644 5.85355L9.24263 9.94975L6.4749 9.94974C6.19876 9.94974 5.9749 10.1736 5.9749 10.4497C5.9749 10.7259 6.19876 10.9497 6.4749 10.9497L10.4497 10.9497C10.7259 10.9497 10.9497 10.7259 10.9497 10.4497V6.47487C10.9497 6.19872 10.7259 5.97487 10.4497 5.97487C10.1736 5.97487 9.94974 6.19872 9.94974 6.47487L9.94974 9.24264L5.85354 5.14645Z" fill="black"/>
</svg>
