<svg width="16" height="16" viewBox="0 0 16 16" fill="none" xmlns="http://www.w3.org/2000/svg">
<path fill-rule="evenodd" clip-rule="evenodd" d="M1 8C1 11.866 4.13401 15 8 15C11.866 15 15 11.866 15 8C15 4.13401 11.866 1 8 1C4.13401 1 1 4.13401 1 8ZM16 8C16 12.4183 12.4183 16 8 16C3.58172 16 0 12.4183 0 8C0 3.58172 3.58172 0 8 0C12.4183 0 16 3.58172 16 8ZM5.85354 10.8033C5.65828 10.9986 5.3417 10.9986 5.14644 10.8033C4.95117 10.608 4.95117 10.2914 5.14644 10.0962L9.24263 5.99999L6.4749 5.99999C6.19876 5.99999 5.9749 5.77614 5.9749 5.49999C5.9749 5.22385 6.19876 4.99999 6.4749 4.99999L10.4497 4.99999C10.7259 4.99999 10.9497 5.22385 10.9497 5.49999V9.47487C10.9497 9.75101 10.7259 9.97487 10.4497 9.97487C10.1736 9.97487 9.94974 9.75101 9.94974 9.47487L9.94974 6.7071L5.85354 10.8033Z" fill="black"/>
</svg>
