<svg width="16" height="16" viewBox="0 0 16 16" fill="none" xmlns="http://www.w3.org/2000/svg">
<path fill-rule="evenodd" clip-rule="evenodd" d="M4.85355 14.8536C4.65829 15.0488 4.34171 15.0488 4.14645 14.8536L0.146446 10.8536C-0.0488157 10.6583 -0.0488157 10.3417 0.146446 10.1464C0.341709 9.95118 0.658291 9.95118 0.853554 10.1464L4 13.2929V3.5C4 2.11929 5.11929 1 6.5 1H14.5C14.7761 1 15 1.22386 15 1.5C15 1.77614 14.7761 2 14.5 2H6.5C5.67157 2 5 2.67157 5 3.5V13.2929L8.14645 10.1464C8.34171 9.95118 8.65829 9.95118 8.85355 10.1464C9.04882 10.3417 9.04882 10.6583 8.85355 10.8536L4.85355 14.8536Z" fill="black"/>
</svg>
