<svg width="16" height="16" viewBox="0 0 16 16" fill="none" xmlns="http://www.w3.org/2000/svg">
<path d="M16 8C16 3.58172 12.4183 0 8 0C3.58172 0 0 3.58172 0 8C0 12.4183 3.58172 16 8 16C12.4183 16 16 12.4183 16 8ZM10.0962 5.19671C10.2915 5.00145 10.608 5.00145 10.8033 5.19671C10.9986 5.39197 10.9986 5.70855 10.8033 5.90382L6.70711 10L9.47483 10C9.75098 10 9.97484 10.2239 9.97484 10.5C9.97484 10.7761 9.75098 11 9.47483 11L5.5 11C5.22386 11 5 10.7762 5 10.5V6.52513C5 6.24899 5.22386 6.02513 5.5 6.02513C5.77614 6.02513 6 6.24899 6 6.52513L6 9.2929L10.0962 5.19671Z" fill="black"/>
</svg>
