<svg width="16" height="16" viewBox="0 0 16 16" fill="none" xmlns="http://www.w3.org/2000/svg">
<path d="M2 16C0.895431 16 0 15.1046 0 14V2C0 0.895431 0.895431 0 2 0H14C15.1046 0 16 0.895431 16 2V14C16 15.1046 15.1046 16 14 16H2ZM10.0962 5.19671L6 9.2929L6 6.52513C6 6.24899 5.77614 6.02513 5.5 6.02513C5.22386 6.02513 5 6.24899 5 6.52513L5 10.5C5 10.7762 5.22386 11 5.5 11L9.47483 11C9.75098 11 9.97484 10.7761 9.97484 10.5C9.97484 10.2239 9.75098 10 9.47483 10L6.70711 10L10.8033 5.90382C10.9986 5.70855 10.9986 5.39197 10.8033 5.19671C10.608 5.00145 10.2915 5.00145 10.0962 5.19671Z" fill="black"/>
</svg>
