<svg width="16" height="16" viewBox="0 0 16 16" fill="none" xmlns="http://www.w3.org/2000/svg">
<path fill-rule="evenodd" clip-rule="evenodd" d="M1 8C1 11.866 4.13401 15 8 15C11.866 15 15 11.866 15 8C15 4.13401 11.866 1 8 1C4.13401 1 1 4.13401 1 8ZM16 8C16 12.4183 12.4183 16 8 16C3.58172 16 0 12.4183 0 8C0 3.58172 3.58172 0 8 0C12.4183 0 16 3.58172 16 8ZM10.0962 10.8033C10.2915 10.9986 10.608 10.9986 10.8033 10.8033C10.9986 10.608 10.9986 10.2914 10.8033 10.0962L6.70711 5.99999L9.47483 5.99999C9.75098 5.99999 9.97484 5.77614 9.97484 5.49999C9.97484 5.22385 9.75098 4.99999 9.47483 4.99999L5.5 4.99999C5.22386 4.99999 5 5.22385 5 5.49999L5 9.47487C5 9.75101 5.22386 9.97487 5.5 9.97487C5.77614 9.97487 6 9.75101 6 9.47487L6 6.7071L10.0962 10.8033Z" fill="black"/>
</svg>
