<svg width="16" height="16" viewBox="0 0 16 16" fill="none" xmlns="http://www.w3.org/2000/svg">
<path d="M0 8C0 3.58172 3.58172 0 8 0C12.4183 0 16 3.58172 16 8C16 12.4183 12.4183 16 8 16C3.58172 16 0 12.4183 0 8ZM5.9038 5.19671C5.70854 5.00145 5.39196 5.00145 5.1967 5.19671C5.00144 5.39197 5.00144 5.70855 5.1967 5.90382L9.29289 10L6.52517 10C6.24902 10 6.02516 10.2239 6.02516 10.5C6.02516 10.7761 6.24902 11 6.52517 11L10.5 11C10.7761 11 11 10.7762 11 10.5V6.52513C11 6.24899 10.7761 6.02513 10.5 6.02513C10.2239 6.02513 10 6.24899 10 6.52513L10 9.2929L5.9038 5.19671Z" fill="black"/>
</svg>
