<svg width="16" height="16" viewBox="0 0 16 16" fill="none" xmlns="http://www.w3.org/2000/svg">
<path fill-rule="evenodd" clip-rule="evenodd" d="M1.14645 4.85355C0.951184 4.65829 0.951184 4.34171 1.14645 4.14645L5.14645 0.146446C5.34171 -0.0488157 5.65829 -0.0488157 5.85355 0.146446C6.04882 0.341709 6.04882 0.658291 5.85355 0.853554L2.70711 4H12.5C13.8807 4 15 5.11929 15 6.5V14.5C15 14.7761 14.7761 15 14.5 15C14.2239 15 14 14.7761 14 14.5V6.5C14 5.67157 13.3284 5 12.5 5H2.70711L5.85355 8.14645C6.04882 8.34171 6.04882 8.65829 5.85355 8.85355C5.65829 9.04882 5.34171 9.04882 5.14645 8.85355L1.14645 4.85355Z" fill="black"/>
</svg>
