<svg width="16" height="16" viewBox="0 0 16 16" fill="none" xmlns="http://www.w3.org/2000/svg">
<path fill-rule="evenodd" clip-rule="evenodd" d="M15 2C15 1.44772 14.5523 1 14 1H2C1.44772 1 1 1.44772 1 2V14C1 14.5523 1.44772 15 2 15H14C14.5523 15 15 14.5523 15 14V2ZM0 2C0 0.895431 0.895431 0 2 0H14C15.1046 0 16 0.895431 16 2V14C16 15.1046 15.1046 16 14 16H2C0.895431 16 0 15.1046 0 14V2ZM11.5 7.5C11.7761 7.5 12 7.72386 12 8C12 8.27614 11.7761 8.5 11.5 8.5H5.70711L7.85355 10.6464C8.04882 10.8417 8.04882 11.1583 7.85355 11.3536C7.65829 11.5488 7.34171 11.5488 7.14645 11.3536L4.14645 8.35355C3.95118 8.15829 3.95118 7.84171 4.14645 7.64645L7.14645 4.64645C7.34171 4.45118 7.65829 4.45118 7.85355 4.64645C8.04882 4.84171 8.04882 5.15829 7.85355 5.35355L5.70711 7.5H11.5Z" fill="black"/>
</svg>
