<svg width="16" height="16" viewBox="0 0 16 16" fill="none" xmlns="http://www.w3.org/2000/svg">
<path d="M2 0C0.895431 0 0 0.895431 0 2V14C0 15.1046 0.895431 16 2 16H14C15.1046 16 16 15.1046 16 14V2C16 0.895431 15.1046 0 14 0H2ZM10.0962 10.8033L6 6.7071L6 9.47487C6 9.75101 5.77614 9.97487 5.5 9.97487C5.22386 9.97487 5 9.75101 5 9.47487L5 5.49999C5 5.22385 5.22386 4.99999 5.5 4.99999L9.47483 4.99999C9.75098 4.99999 9.97484 5.22385 9.97484 5.49999C9.97484 5.77614 9.75098 5.99999 9.47483 5.99999L6.70711 5.99999L10.8033 10.0962C10.9986 10.2914 10.9986 10.608 10.8033 10.8033C10.608 10.9986 10.2915 10.9986 10.0962 10.8033Z" fill="black"/>
</svg>
