<svg width="16" height="16" viewBox="0 0 16 16" fill="none" xmlns="http://www.w3.org/2000/svg">
<path fill-rule="evenodd" clip-rule="evenodd" d="M0.171598 15.8284C0.36686 16.0237 0.683443 16.0237 0.878705 15.8284L4.9749 11.7322L4.9749 14.5C4.9749 14.7762 5.19876 15 5.4749 15C5.75104 15 5.9749 14.7762 5.9749 14.5L5.9749 10.5251C5.9749 10.249 5.75104 10.0251 5.4749 10.0251L1.50006 10.0251C1.22392 10.0251 1.00006 10.249 1.00006 10.5251C1.00006 10.8013 1.22392 11.0251 1.50006 11.0251L4.26779 11.0251L0.171598 15.1213C-0.023664 15.3166 -0.023664 15.6332 0.171598 15.8284Z" fill="black"/>
<path fill-rule="evenodd" clip-rule="evenodd" d="M15.8285 0.171574C15.6332 -0.0236881 15.3166 -0.0236881 15.1214 0.171574L11.0252 4.26777L11.0252 1.49999C11.0252 1.22385 10.8013 0.999994 10.5252 0.999994C10.249 0.999994 10.0252 1.22385 10.0252 1.49999L10.0252 5.47487C10.0252 5.75102 10.249 5.97488 10.5252 5.97488L14.5 5.97487C14.7761 5.97487 15 5.75101 15 5.47487C15 5.19873 14.7761 4.97487 14.5 4.97487L11.7323 4.97487L15.8285 0.878681C16.0237 0.683419 16.0237 0.366836 15.8285 0.171574Z" fill="black"/>
</svg>
