<svg width="16" height="16" viewBox="0 0 16 16" fill="none" xmlns="http://www.w3.org/2000/svg">
<path fill-rule="evenodd" clip-rule="evenodd" d="M15 2C15 1.44772 14.5523 1 14 1H2C1.44772 1 1 1.44772 1 2V14C1 14.5523 1.44772 15 2 15H14C14.5523 15 15 14.5523 15 14V2ZM0 2C0 0.895431 0.895431 0 2 0H14C15.1046 0 16 0.895431 16 2V14C16 15.1046 15.1046 16 14 16H2C0.895431 16 0 15.1046 0 14V2ZM5.85354 10.8033C5.65828 10.9986 5.3417 10.9986 5.14644 10.8033C4.95117 10.608 4.95117 10.2914 5.14644 10.0962L9.24263 5.99999L6.4749 5.99999C6.19876 5.99999 5.9749 5.77614 5.9749 5.49999C5.9749 5.22385 6.19876 4.99999 6.4749 4.99999L10.4497 4.99999C10.7259 4.99999 10.9497 5.22385 10.9497 5.49999V9.47487C10.9497 9.75101 10.7259 9.97487 10.4497 9.97487C10.1736 9.97487 9.94974 9.75101 9.94974 9.47487L9.94974 6.7071L5.85354 10.8033Z" fill="black"/>
</svg>
