<svg width="16" height="16" viewBox="0 0 16 16" fill="none" xmlns="http://www.w3.org/2000/svg">
<path fill-rule="evenodd" clip-rule="evenodd" d="M8 10C8.27614 10 8.5 9.77614 8.5 9.5V3.70711L10.6464 5.85355C10.8417 6.04882 11.1583 6.04882 11.3536 5.85355C11.5488 5.65829 11.5488 5.34171 11.3536 5.14645L8.35355 2.14645C8.15829 1.95118 7.84171 1.95118 7.64644 2.14645L4.64644 5.14645C4.45118 5.34171 4.45118 5.65829 4.64644 5.85355C4.84171 6.04882 5.15829 6.04882 5.35355 5.85355L7.5 3.70711L7.5 9.5C7.5 9.77614 7.72386 10 8 10Z" fill="black"/>
<path fill-rule="evenodd" clip-rule="evenodd" d="M1 12.5C1 12.2239 1.22386 12 1.5 12H14.5C14.7761 12 15 12.2239 15 12.5C15 12.7761 14.7761 13 14.5 13H1.5C1.22386 13 1 12.7761 1 12.5Z" fill="black"/>
</svg>
