<svg width="16" height="16" viewBox="0 0 16 16" fill="none" xmlns="http://www.w3.org/2000/svg">
<path fill-rule="evenodd" clip-rule="evenodd" d="M15 2C15 1.44772 14.5523 1 14 1H2C1.44772 1 1 1.44772 1 2V14C1 14.5523 1.44772 15 2 15H14C14.5523 15 15 14.5523 15 14V2ZM0 2C0 0.895431 0.895431 0 2 0H14C15.1046 0 16 0.895431 16 2V14C16 15.1046 15.1046 16 14 16H2C0.895431 16 0 15.1046 0 14V2ZM5.85354 5.14645C5.65828 4.95118 5.3417 4.95118 5.14644 5.14645C4.95117 5.34171 4.95117 5.65829 5.14644 5.85355L9.24263 9.94975L6.4749 9.94974C6.19876 9.94974 5.9749 10.1736 5.9749 10.4497C5.9749 10.7259 6.19876 10.9497 6.4749 10.9497L10.4497 10.9497C10.7259 10.9497 10.9497 10.7259 10.9497 10.4497V6.47487C10.9497 6.19872 10.7259 5.97487 10.4497 5.97487C10.1736 5.97487 9.94974 6.19872 9.94974 6.47487L9.94974 9.24264L5.85354 5.14645Z" fill="black"/>
</svg>
