<svg width="16" height="16" viewBox="0 0 16 16" fill="none" xmlns="http://www.w3.org/2000/svg">
<path d="M8 15C7.72386 15 7.5 14.7761 7.5 14.5V1.5C7.5 1.22386 7.72386 1 8 1C8.27614 1 8.5 1.22386 8.5 1.5V14.5C8.5 14.7761 8.27614 15 8 15Z" fill="black"/>
<path d="M0.146447 8.35355C-0.0488155 8.15829 -0.0488155 7.84171 0.146447 7.64645L2.14645 5.64645C2.34171 5.45118 2.65829 5.45118 2.85355 5.64645C3.04882 5.84171 3.04882 6.15829 2.85355 6.35355L1.70711 7.5L5.5 7.5C5.77614 7.5 6 7.72386 6 8C6 8.27614 5.77614 8.5 5.5 8.5L1.70711 8.5L2.85355 9.64645C3.04882 9.84171 3.04882 10.1583 2.85355 10.3536C2.65829 10.5488 2.34171 10.5488 2.14645 10.3536L0.146447 8.35355ZM10 8C10 7.72386 10.2239 7.5 10.5 7.5H14.2929L13.1464 6.35355C12.9512 6.15829 12.9512 5.84171 13.1464 5.64645C13.3417 5.45118 13.6583 5.45118 13.8536 5.64645L15.8536 7.64645C16.0488 7.84171 16.0488 8.15829 15.8536 8.35355L13.8536 10.3536C13.6583 10.5488 13.3417 10.5488 13.1464 10.3536C12.9512 10.1583 12.9512 9.84171 13.1464 9.64645L14.2929 8.5H10.5C10.2239 8.5 10 8.27614 10 8Z" fill="black"/>
</svg>
