<svg width="16" height="16" viewBox="0 0 16 16" fill="none" xmlns="http://www.w3.org/2000/svg">
<path fill-rule="evenodd" clip-rule="evenodd" d="M15 2C15 1.44772 14.5523 1 14 1H2C1.44772 1 1 1.44772 1 2V14C1 14.5523 1.44772 15 2 15H14C14.5523 15 15 14.5523 15 14V2ZM0 2C0 0.895431 0.895431 0 2 0H14C15.1046 0 16 0.895431 16 2V14C16 15.1046 15.1046 16 14 16H2C0.895431 16 0 15.1046 0 14V2ZM4.5 7.5C4.22386 7.5 4 7.72386 4 8C4 8.27614 4.22386 8.5 4.5 8.5H10.2929L8.14645 10.6464C7.95118 10.8417 7.95118 11.1583 8.14645 11.3536C8.34171 11.5488 8.65829 11.5488 8.85355 11.3536L11.8536 8.35355C12.0488 8.15829 12.0488 7.84171 11.8536 7.64645L8.85355 4.64645C8.65829 4.45118 8.34171 4.45118 8.14645 4.64645C7.95118 4.84171 7.95118 5.15829 8.14645 5.35355L10.2929 7.5H4.5Z" fill="black"/>
</svg>
