<svg width="16" height="16" viewBox="0 0 16 16" fill="none" xmlns="http://www.w3.org/2000/svg">
<path fill-rule="evenodd" clip-rule="evenodd" d="M15 2C15 1.44772 14.5523 1 14 1H2C1.44772 1 1 1.44772 1 2V14C1 14.5523 1.44772 15 2 15H14C14.5523 15 15 14.5523 15 14V2ZM0 2C0 0.895431 0.895431 0 2 0H14C15.1046 0 16 0.895431 16 2V14C16 15.1046 15.1046 16 14 16H2C0.895431 16 0 15.1046 0 14V2ZM10.0962 5.14645C10.2915 4.95118 10.608 4.95118 10.8033 5.14645C10.9986 5.34171 10.9986 5.65829 10.8033 5.85355L6.70711 9.94975L9.47483 9.94974C9.75098 9.94974 9.97484 10.1736 9.97484 10.4497C9.97484 10.7259 9.75098 10.9497 9.47483 10.9497L5.5 10.9497C5.22386 10.9497 5 10.7259 5 10.4497L5 6.47487C5 6.19872 5.22386 5.97487 5.5 5.97487C5.77614 5.97487 6 6.19872 6 6.47487L6 9.24264L10.0962 5.14645Z" fill="black"/>
</svg>
