<svg width="16" height="16" viewBox="0 0 16 16" fill="none" xmlns="http://www.w3.org/2000/svg">
<path fill-rule="evenodd" clip-rule="evenodd" d="M15 2C15 1.44772 14.5523 1 14 1H2C1.44772 1 1 1.44772 1 2V14C1 14.5523 1.44772 15 2 15H14C14.5523 15 15 14.5523 15 14V2ZM0 2C0 0.895431 0.895431 0 2 0H14C15.1046 0 16 0.895431 16 2V14C16 15.1046 15.1046 16 14 16H2C0.895431 16 0 15.1046 0 14V2ZM10.0962 10.8033C10.2915 10.9986 10.608 10.9986 10.8033 10.8033C10.9986 10.608 10.9986 10.2914 10.8033 10.0962L6.70711 5.99999L9.47483 5.99999C9.75098 5.99999 9.97484 5.77614 9.97484 5.49999C9.97484 5.22385 9.75098 4.99999 9.47483 4.99999L5.5 4.99999C5.22386 4.99999 5 5.22385 5 5.49999L5 9.47487C5 9.75101 5.22386 9.97487 5.5 9.97487C5.77614 9.97487 6 9.75101 6 9.47487L6 6.7071L10.0962 10.8033Z" fill="black"/>
</svg>
