<svg width="16" height="16" viewBox="0 0 16 16" fill="none" xmlns="http://www.w3.org/2000/svg">
<path d="M0 8C0 12.4183 3.58172 16 8 16C12.4183 16 16 12.4183 16 8C16 3.58172 12.4183 0 8 0C3.58172 0 0 3.58172 0 8ZM5.9038 10.8033C5.70854 10.9986 5.39196 10.9986 5.1967 10.8033C5.00144 10.608 5.00144 10.2914 5.1967 10.0962L9.29289 5.99999L6.52517 5.99999C6.24902 5.99999 6.02516 5.77614 6.02516 5.49999C6.02516 5.22385 6.24902 4.99999 6.52517 4.99999L10.5 4.99999C10.7761 4.99999 11 5.22385 11 5.49999V9.47487C11 9.75101 10.7761 9.97487 10.5 9.97487C10.2239 9.97487 10 9.75101 10 9.47487L10 6.7071L5.9038 10.8033Z" fill="black"/>
</svg>
