<svg width="16" height="16" viewBox="0 0 16 16" fill="none" xmlns="http://www.w3.org/2000/svg">
<path d="M1.14645 7.64645C0.951184 7.84171 0.951184 8.15829 1.14645 8.35355L3.14645 10.3536C3.34171 10.5488 3.65829 10.5488 3.85355 10.3536C4.04882 10.1583 4.04882 9.84171 3.85355 9.64645L2.70711 8.5L13.2929 8.5L12.1464 9.64645C11.9512 9.84171 11.9512 10.1583 12.1464 10.3536C12.3417 10.5488 12.6583 10.5488 12.8536 10.3536L14.8536 8.35355C15.0488 8.15829 15.0488 7.84171 14.8536 7.64645L12.8536 5.64645C12.6583 5.45118 12.3417 5.45118 12.1464 5.64645C11.9512 5.84171 11.9512 6.15829 12.1464 6.35355L13.2929 7.5L2.70711 7.5L3.85355 6.35355C4.04882 6.15829 4.04882 5.84171 3.85355 5.64645C3.65829 5.45118 3.34171 5.45118 3.14645 5.64645L1.14645 7.64645Z" fill="black"/>
</svg>
