<svg width="16" height="16" viewBox="0 0 16 16" fill="none" xmlns="http://www.w3.org/2000/svg">
<path fill-rule="evenodd" clip-rule="evenodd" d="M5.82845 10.1716C5.63319 9.97632 5.3166 9.97632 5.12134 10.1716L1.02515 14.2678L1.02515 11.5C1.02515 11.2239 0.80129 11 0.525147 11C0.249005 11 0.0251465 11.2239 0.0251468 11.5L0.0251465 15.4749C0.0251465 15.751 0.249005 15.9749 0.525147 15.9749L4.49998 15.9749C4.77612 15.9749 4.99998 15.751 4.99998 15.4749C4.99998 15.1987 4.77612 14.9749 4.49998 14.9749L1.73225 14.9749L5.82845 10.8787C6.02371 10.6834 6.02371 10.3668 5.82845 10.1716Z" fill="black"/>
<path fill-rule="evenodd" clip-rule="evenodd" d="M10.1716 5.82843C10.3668 6.02369 10.6834 6.02369 10.8787 5.82843L14.9749 1.73224L14.9749 4.50001C14.9749 4.77615 15.1987 5.00001 15.4749 5.00001C15.751 5.00001 15.9749 4.77615 15.9749 4.50001L15.9749 0.525129C15.9749 0.248987 15.751 0.0251284 15.4749 0.0251284L11.5 0.0251312C11.2239 0.0251312 11 0.24899 11 0.525132C11 0.801274 11.2239 1.02513 11.5 1.02513L14.2678 1.02513L10.1716 5.12132C9.97632 5.31659 9.97632 5.63317 10.1716 5.82843Z" fill="black"/>
</svg>
