<svg width="16" height="16" viewBox="0 0 16 16" fill="none" xmlns="http://www.w3.org/2000/svg">
<path fill-rule="evenodd" clip-rule="evenodd" d="M2.85357 15.8536C2.71057 15.9966 2.49551 16.0393 2.30867 15.9619C2.12184 15.8845 2.00001 15.7022 2.00001 15.5V14.5V14H1.50001H0.500015C0.297783 14 0.115465 13.8782 0.0380748 13.6913C-0.0393156 13.5045 0.00346222 13.2894 0.146461 13.1464L1.64646 11.6464C1.74023 11.5527 1.86741 11.5 2.00001 11.5H3.00001H3.79291L6.89646 8.39645C7.09172 8.20118 7.40831 8.20118 7.60357 8.39645C7.79883 8.59171 7.79883 8.90829 7.60357 9.10355L4.50001 12.2071V13V14C4.50001 14.1326 4.44734 14.2598 4.35357 14.3536L2.85357 15.8536ZM16 3.5C16 3.70223 15.8782 3.88455 15.6914 3.96194C15.5045 4.03933 15.2895 3.99655 15.1465 3.85355L14 2.70711L12.9944 3.71272C13.2303 3.96129 13.4337 4.24414 13.5942 4.5576C14.1559 5.65438 14.1793 7.07455 13.3806 8.65023C12.5882 10.2135 10.9864 11.9385 8.27565 13.7297L8 13.9118L7.72436 13.7297C7.00661 13.2554 6.36661 12.7858 5.79879 12.3226L8.31069 9.81066C8.89647 9.22488 8.89647 8.27513 8.31069 7.68934C7.7249 7.10355 6.77515 7.10355 6.18937 7.68934L3.65766 10.2211C3.21937 9.68257 2.8767 9.15787 2.61938 8.65023C1.82069 7.07455 1.84415 5.65438 2.40576 4.5576C3.42628 2.56459 6.18124 1.80901 8.00001 3.23258C9.25074 2.25362 10.9442 2.30519 12.2119 3.08103L13.2929 2L12.1465 0.853554C12.0035 0.710554 11.9607 0.495496 12.0381 0.308659C12.1155 0.121821 12.2978 0 12.5 0H14H15.5C15.7762 0 16 0.223858 16 0.5V2V3.5Z" fill="black"/>
</svg>
