<svg width="16" height="16" viewBox="0 0 16 16" fill="none" xmlns="http://www.w3.org/2000/svg">
<path fill-rule="evenodd" clip-rule="evenodd" d="M14.5 1.5C14.7761 1.5 15 1.72386 15 2V6.8C15 8.18071 13.8807 9.3 12.5 9.3H2.70711L6.05355 12.6464C6.24882 12.8417 6.24882 13.1583 6.05355 13.3536C5.85829 13.5488 5.54171 13.5488 5.34645 13.3536L1.14645 9.15355C0.951184 8.95829 0.951184 8.64171 1.14645 8.44645L5.14645 4.44645C5.34171 4.25118 5.65829 4.25118 5.85355 4.44645C6.04882 4.64171 6.04882 4.95829 5.85355 5.15355L2.70711 8.3H12.5C13.3284 8.3 14 7.62843 14 6.8V2C14 1.72386 14.2239 1.5 14.5 1.5Z" fill="black"/>
</svg>
