<svg width="16" height="16" viewBox="0 0 16 16" fill="none" xmlns="http://www.w3.org/2000/svg">
<path fill-rule="evenodd" clip-rule="evenodd" d="M1 8C1 11.866 4.13401 15 8 15C11.866 15 15 11.866 15 8C15 4.13401 11.866 1 8 1C4.13401 1 1 4.13401 1 8ZM16 8C16 12.4183 12.4183 16 8 16C3.58172 16 0 12.4183 0 8C0 3.58172 3.58172 0 8 0C12.4183 0 16 3.58172 16 8ZM10.0962 5.14645C10.2915 4.95118 10.608 4.95118 10.8033 5.14645C10.9986 5.34171 10.9986 5.65829 10.8033 5.85355L6.70711 9.94975L9.47483 9.94974C9.75098 9.94974 9.97484 10.1736 9.97484 10.4497C9.97484 10.7259 9.75098 10.9497 9.47483 10.9497L5.5 10.9497C5.22386 10.9497 5 10.7259 5 10.4497L5 6.47487C5 6.19872 5.22386 5.97487 5.5 5.97487C5.77614 5.97487 6 6.19872 6 6.47487L6 9.24264L10.0962 5.14645Z" fill="black"/>
</svg>
