<svg width="16" height="16" viewBox="0 0 16 16" fill="none" xmlns="http://www.w3.org/2000/svg">
<path fill-rule="evenodd" clip-rule="evenodd" d="M2.85357 15.8536C2.71057 15.9966 2.49551 16.0393 2.30867 15.9619C2.12184 15.8845 2.00001 15.7022 2.00001 15.5V14.5V14H1.50001H0.500015C0.297783 14 0.115465 13.8782 0.0380748 13.6913C-0.0393156 13.5045 0.00346222 13.2894 0.146461 13.1464L1.64646 11.6464C1.74023 11.5527 1.86741 11.5 2.00001 11.5H3.00001H3.79291L4.3223 10.9706C3.55179 10.1676 2.99476 9.39077 2.61939 8.65023C1.8207 7.07455 1.84416 5.65438 2.40577 4.5576C3.42629 2.56459 6.18125 1.80901 8.00002 3.23258C9.25074 2.25362 10.9442 2.30519 12.2119 3.08103L13.2929 2L12.1465 0.853554C12.0035 0.710554 11.9607 0.495496 12.0381 0.308659C12.1155 0.121821 12.2978 0 12.5 0H14H15.5C15.7762 0 16 0.223858 16 0.5V2V3.5C16 3.70223 15.8782 3.88455 15.6914 3.96194C15.5045 4.03933 15.2895 3.99655 15.1465 3.85355L14 2.70711L12.9944 3.71271C13.2303 3.96129 13.4337 4.24414 13.5943 4.5576C14.1559 5.65438 14.1793 7.07455 13.3806 8.65023C12.5883 10.2135 10.9864 11.9385 8.27566 13.7297L8.00001 13.9118L7.72437 13.7297C6.66624 13.0305 5.77707 12.3414 5.03906 11.6681L4.50001 12.2071V13V14C4.50001 14.1326 4.44734 14.2598 4.35357 14.3536L2.85357 15.8536ZM5.74695 10.9602C6.36847 11.5239 7.11365 12.1092 8.00001 12.7108C10.4555 11.0443 11.8274 9.50268 12.4887 8.19811C13.168 6.85793 13.0961 5.7788 12.7042 5.01337C11.8872 3.41792 9.61666 2.95872 8.35839 4.25204L8.00001 4.6204L7.64164 4.25204C6.38337 2.95872 4.11282 3.41792 3.29587 5.01337C2.90393 5.7788 2.83203 6.85793 3.51135 8.19811C3.83391 8.83446 4.32556 9.52721 5.02957 10.2633L6.89646 8.39645C7.09172 8.20118 7.40831 8.20118 7.60357 8.39645C7.79883 8.59171 7.79883 8.90829 7.60357 9.10355L5.74695 10.9602Z" fill="black"/>
</svg>
