<svg width="16" height="16" viewBox="0 0 16 16" fill="none" xmlns="http://www.w3.org/2000/svg">
<path fill-rule="evenodd" clip-rule="evenodd" d="M14.8536 4.85355C15.0488 4.65829 15.0488 4.34171 14.8536 4.14645L10.8536 0.146446C10.6583 -0.0488157 10.3417 -0.0488157 10.1464 0.146446C9.95118 0.341709 9.95118 0.658291 10.1464 0.853554L13.2929 4H3.5C2.11929 4 1 5.11929 1 6.5V14.5C1 14.7761 1.22386 15 1.5 15C1.77614 15 2 14.7761 2 14.5V6.5C2 5.67157 2.67157 5 3.5 5H13.2929L10.1464 8.14645C9.95118 8.34171 9.95118 8.65829 10.1464 8.85355C10.3417 9.04882 10.6583 9.04882 10.8536 8.85355L14.8536 4.85355Z" fill="black"/>
</svg>
