<svg width="16" height="16" viewBox="0 0 16 16" fill="none" xmlns="http://www.w3.org/2000/svg">
<path d="M8.35355 14.8536C8.15829 15.0488 7.84171 15.0488 7.64645 14.8536L5.64645 12.8536C5.45118 12.6583 5.45118 12.3417 5.64645 12.1464C5.84171 11.9512 6.15829 11.9512 6.35355 12.1464L7.5 13.2929L7.5 2.70711L6.35355 3.85355C6.15829 4.04882 5.84171 4.04882 5.64645 3.85355C5.45118 3.65829 5.45118 3.34171 5.64645 3.14645L7.64645 1.14645C7.84171 0.951185 8.15829 0.951185 8.35355 1.14645L10.3536 3.14645C10.5488 3.34171 10.5488 3.65829 10.3536 3.85355C10.1583 4.04882 9.84171 4.04882 9.64645 3.85355L8.5 2.70711L8.5 13.2929L9.64645 12.1464C9.84171 11.9512 10.1583 11.9512 10.3536 12.1464C10.5488 12.3417 10.5488 12.6583 10.3536 12.8536L8.35355 14.8536Z" fill="black"/>
</svg>
