<svg width="16" height="16" viewBox="0 0 16 16" fill="none" xmlns="http://www.w3.org/2000/svg">
<path d="M8 15C7.72386 15 7.5 14.7761 7.5 14.5V1.5C7.5 1.22386 7.72386 1 8 1C8.27614 1 8.5 1.22386 8.5 1.5V14.5C8.5 14.7761 8.27614 15 8 15Z" fill="black"/>
<path d="M0 8C-1.20706e-08 7.72386 0.223858 7.5 0.5 7.5H4.29289L3.14645 6.35355C2.95118 6.15829 2.95118 5.84171 3.14645 5.64645C3.34171 5.45118 3.65829 5.45118 3.85355 5.64645L5.85355 7.64645C6.04882 7.84171 6.04882 8.15829 5.85355 8.35355L3.85355 10.3536C3.65829 10.5488 3.34171 10.5488 3.14645 10.3536C2.95118 10.1583 2.95118 9.84171 3.14645 9.64645L4.29289 8.5H0.5C0.223858 8.5 1.20706e-08 8.27614 0 8ZM11.7071 8.5L12.8536 9.64645C13.0488 9.84171 13.0488 10.1583 12.8536 10.3536C12.6583 10.5488 12.3417 10.5488 12.1464 10.3536L10.1464 8.35355C9.95118 8.15829 9.95118 7.84171 10.1464 7.64645L12.1464 5.64645C12.3417 5.45118 12.6583 5.45118 12.8536 5.64645C13.0488 5.84171 13.0488 6.15829 12.8536 6.35355L11.7071 7.5H15.5C15.7761 7.5 16 7.72386 16 8C16 8.27614 15.7761 8.5 15.5 8.5H11.7071Z" fill="black"/>
</svg>
