<svg width="16" height="16" viewBox="0 0 16 16" fill="none" xmlns="http://www.w3.org/2000/svg">
<path fill-rule="evenodd" clip-rule="evenodd" d="M4.85355 1.14645C4.65829 0.951184 4.34171 0.951184 4.14645 1.14645L0.146446 5.14645C-0.0488157 5.34171 -0.0488157 5.65829 0.146446 5.85355C0.341709 6.04882 0.658291 6.04882 0.853554 5.85355L4 2.70711V12.5C4 13.8807 5.11929 15 6.5 15H14.5C14.7761 15 15 14.7761 15 14.5C15 14.2239 14.7761 14 14.5 14H6.5C5.67157 14 5 13.3284 5 12.5V2.70711L8.14645 5.85355C8.34171 6.04882 8.65829 6.04882 8.85355 5.85355C9.04882 5.65829 9.04882 5.34171 8.85355 5.14645L4.85355 1.14645Z" fill="black"/>
</svg>
