<svg width="16" height="16" viewBox="0 0 16 16" fill="none" xmlns="http://www.w3.org/2000/svg">
<path d="M0 12.5V3.5C0 2.67157 0.671573 2 1.5 2H14.5C15.3284 2 16 2.67157 16 3.5V12.5C16 13.3284 15.3284 14 14.5 14H1.5C0.671572 14 0 13.3284 0 12.5ZM2.5 4C2.22386 4 2 4.22386 2 4.5V7.5C2 7.77614 2.22386 8 2.5 8C2.77614 8 3 7.77614 3 7.5V5H5.5C5.77614 5 6 4.77614 6 4.5C6 4.22386 5.77614 4 5.5 4H2.5ZM13.5 12C13.7761 12 14 11.7761 14 11.5V8.5C14 8.22386 13.7761 8 13.5 8C13.2239 8 13 8.22386 13 8.5V11H10.5C10.2239 11 10 11.2239 10 11.5C10 11.7761 10.2239 12 10.5 12H13.5Z" fill="black"/>
</svg>
