<svg width="16" height="16" viewBox="0 0 16 16" fill="none" xmlns="http://www.w3.org/2000/svg">
<path d="M7.99998 0C8.55227 0 8.99998 0.447715 8.99998 1V6.26796L13.5622 3.63397C14.0405 3.35783 14.6521 3.52171 14.9282 4C15.2043 4.47829 15.0405 5.08988 14.5622 5.36603L9.99998 8.00001L14.5621 10.634C15.0404 10.9101 15.2043 11.5217 14.9282 12C14.652 12.4783 14.0404 12.6422 13.5621 12.366L8.99998 9.73206V15C8.99998 15.5523 8.55227 16 7.99998 16C7.4477 16 6.99998 15.5523 6.99998 15V9.73206L2.43782 12.366C1.95953 12.6422 1.34794 12.4783 1.0718 12C0.795655 11.5217 0.95953 10.9101 1.43782 10.634L5.99998 8.00001L1.43779 5.36603C0.959496 5.08988 0.795621 4.47829 1.07176 4C1.34791 3.52171 1.9595 3.35783 2.43779 3.63397L6.99998 6.26796V1C6.99998 0.447715 7.4477 0 7.99998 0Z" fill="black"/>
</svg>
