<svg width="16" height="16" viewBox="0 0 16 16" fill="none" xmlns="http://www.w3.org/2000/svg">
<path d="M9.66873 0.864295L8.00004 0L6.33135 0.864295L4.47333 1.1459L3.63135 2.82596L2.2937 4.1459L2.60004 6L2.2937 7.8541L3.63135 9.17404L4.47333 10.8541L6.33135 11.1357L8.00004 12L9.66873 11.1357L11.5268 10.8541L12.3687 9.17404L13.7064 7.8541L13.4 6L13.7064 4.1459L12.3687 2.82596L11.5268 1.1459L9.66873 0.864295ZM10.8648 2.05699L11.5487 3.42171L12.6353 4.4939L12.3865 6L12.6353 7.5061L11.5487 8.57829L10.8648 9.94301L9.35553 10.1718L8.00004 10.8738L6.64455 10.1718L5.13528 9.94301L4.45133 8.57829L3.36476 7.5061L3.6136 6L3.36476 4.49391L4.45133 3.42171L5.13528 2.05699L6.64455 1.82824L8.00004 1.12617L9.35553 1.82824L10.8648 2.05699Z" fill="black"/>
<path d="M4.00004 11.7938V16L8.00004 15L12 16V11.7938L9.98193 12.0997L8.00003 13.1262L6.01813 12.0997L4.00004 11.7938Z" fill="black"/>
</svg>
