<svg width="16" height="16" viewBox="0 0 16 16" fill="none" xmlns="http://www.w3.org/2000/svg">
<path d="M4 9.5C4 9.22386 4.22386 9 4.5 9H11.5C11.7761 9 12 9.22386 12 9.5V13.5C12 13.7761 11.7761 14 11.5 14H4.5C4.22386 14 4 13.7761 4 13.5V9.5ZM5 10V13H11V10H10V10.5C10 10.7761 9.77614 11 9.5 11C9.22386 11 9 10.7761 9 10.5V10H5Z" fill="black"/>
<path d="M8 0C6.89543 0 6 0.895431 6 2H3.5C2.39543 2 1.5 2.89543 1.5 4V5C1.5 5.51974 1.69825 5.99318 2.02326 6.34881C2.00815 6.39651 2 6.4473 2 6.5V14C2 15.1046 2.89543 16 4 16H12C13.1046 16 14 15.1046 14 14V6.5C14 6.4473 13.9918 6.39651 13.9767 6.34881C14.3017 5.99318 14.5 5.51974 14.5 5V4C14.5 2.89543 13.6046 2 12.5 2H10C10 0.895431 9.10457 0 8 0ZM8 1C7.44772 1 7 1.44772 7 2H9C9 1.44772 8.55228 1 8 1ZM3 14V6.93699C3.15981 6.97812 3.32735 7 3.5 7H7.5V7.5C7.5 7.77614 7.72386 8 8 8C8.27614 8 8.5 7.77614 8.5 7.5V7H12.5C12.6726 7 12.8402 6.97812 13 6.93699V14C13 14.5523 12.5523 15 12 15H4C3.44772 15 3 14.5523 3 14ZM12.5 3C13.0523 3 13.5 3.44772 13.5 4V5C13.5 5.55228 13.0523 6 12.5 6H3.5C2.94772 6 2.5 5.55228 2.5 5V4C2.5 3.44772 2.94772 3 3.5 3H12.5Z" fill="black"/>
</svg>
