<svg width="16" height="16" viewBox="0 0 16 16" fill="none" xmlns="http://www.w3.org/2000/svg">
<path d="M15.6829 3C15.6829 1.89543 14.7875 1 13.6829 1H6.60279C6.01894 1 5.46424 1.25513 5.08428 1.69842L0.240744 7.34921C-0.0802479 7.7237 -0.0802479 8.2763 0.240744 8.65079L5.08428 14.3016C5.46424 14.7449 6.01894 15 6.60279 15H13.6829C14.7875 15 15.6829 14.1046 15.6829 13V3ZM5.82937 5.85355C5.63411 5.65829 5.63411 5.34171 5.82937 5.14645C6.02463 4.95118 6.34121 4.95118 6.53648 5.14645L8.68292 7.29289L10.8294 5.14645C11.0246 4.95118 11.3412 4.95118 11.5365 5.14645C11.7317 5.34171 11.7317 5.65829 11.5365 5.85355L9.39003 8L11.5365 10.1464C11.7317 10.3417 11.7317 10.6583 11.5365 10.8536C11.3412 11.0488 11.0246 11.0488 10.8294 10.8536L8.68292 8.70711L6.53648 10.8536C6.34121 11.0488 6.02463 11.0488 5.82937 10.8536C5.63411 10.6583 5.63411 10.3417 5.82937 10.1464L7.97582 8L5.82937 5.85355Z" fill="black"/>
</svg>
