<svg width="16" height="16" viewBox="0 0 16 16" fill="none" xmlns="http://www.w3.org/2000/svg">
<path d="M8 0C6.89543 0 6 0.895431 6 2H3.5C2.39543 2 1.5 2.89543 1.5 4V5C1.5 6.10457 2.39543 7 3.5 7H7.5V7.5C7.5 7.77614 7.72386 8 8 8C8.27614 8 8.5 7.77614 8.5 7.5V7H12.5C13.6046 7 14.5 6.10457 14.5 5V4C14.5 2.89543 13.6046 2 12.5 2H10C10 0.895431 9.10457 0 8 0ZM9 2C9 1.44772 8.55228 1 8 1C7.44772 1 7 1.44772 7 2H9Z" fill="black"/>
<path d="M5 11V13H11V11H10V11.5C10 11.7761 9.77614 12 9.5 12C9.22386 12 9 11.7761 9 11.5V11H5Z" fill="black"/>
<path d="M14 7.59865C13.5587 7.85391 13.0464 8 12.5 8H9.41465C9.20873 8.5826 8.65311 9 8 9C7.34689 9 6.79127 8.5826 6.58535 8H3.5C2.95357 8 2.44126 7.85391 2 7.59865V14C2 15.1046 2.89543 16 4 16H12C13.1046 16 14 15.1046 14 14V7.59865ZM4 10.5C4 10.2239 4.22386 10 4.5 10H11.5C11.7761 10 12 10.2239 12 10.5V13.5C12 13.7761 11.7761 14 11.5 14H4.5C4.22386 14 4 13.7761 4 13.5V10.5Z" fill="black"/>
</svg>
