<svg width="16" height="16" viewBox="0 0 16 16" fill="none" xmlns="http://www.w3.org/2000/svg">
<path d="M4.04043 7.4292C4.31778 5.49028 5.9844 4 7.99995 4C10.0155 4 11.6821 5.49028 11.9595 7.4292C11.9986 7.70256 11.8087 7.95586 11.5353 7.99496C11.2619 8.03406 11.0086 7.84416 10.9695 7.5708C10.7617 6.11743 9.51087 5 7.99995 5C6.48904 5 5.23825 6.11743 5.03036 7.5708C4.99126 7.84416 4.73796 8.03406 4.4646 7.99496C4.19124 7.95586 4.00133 7.70256 4.04043 7.4292Z" fill="black"/>
<path d="M3.99995 9.5C3.99995 9.22386 4.22381 9 4.49995 9H11.5C11.7761 9 12 9.22386 12 9.5V13.5C12 13.7761 11.7761 14 11.5 14H4.49995C4.22381 14 3.99995 13.7761 3.99995 13.5V9.5ZM4.99995 10V13H11V10H9.99995V10.5C9.99995 10.7761 9.77609 11 9.49995 11C9.22381 11 8.99995 10.7761 8.99995 10.5V10H4.99995Z" fill="black"/>
<path d="M5.99995 2.34141V2C5.99995 0.895431 6.89538 0 7.99995 0C9.10452 0 9.99995 0.895431 9.99995 2V2.34141C10.4651 2.50581 10.9039 2.72593 11.3083 2.99375L11.7238 1.7472C11.9789 0.981933 12.9885 0.818098 13.4725 1.46343L14.2428 2.49042C14.4397 2.75293 14.4952 3.09534 14.3914 3.40665L13.5891 5.8136C13.8544 6.49107 14 7.22853 14 8V13.5009C14 14.8819 12.8804 16 11.5 16H4.49995C3.11952 16 1.99995 14.8819 1.99995 13.5009V8C1.99995 7.22853 2.14555 6.49107 2.41077 5.8136L1.60845 3.40665C1.50469 3.09534 1.56025 2.75293 1.75714 2.49042L2.52738 1.46343C3.01138 0.818098 4.02098 0.981933 4.27606 1.7472L4.69158 2.99375C5.09603 2.72593 5.53483 2.50581 5.99995 2.34141ZM6.99995 2V2.08296C7.32516 2.0284 7.65924 2 7.99995 2C8.34066 2 8.67474 2.0284 8.99995 2.08296V2C8.99995 1.44772 8.55224 1 7.99995 1C7.44767 1 6.99995 1.44772 6.99995 2ZM12.9411 4.59537L13.4428 3.09042L12.6725 2.06343L12.141 3.6581C12.4385 3.9419 12.7068 4.25597 12.9411 4.59537ZM3.85894 3.6581L3.32738 2.06343L2.55714 3.09042L3.05879 4.59537C3.29309 4.25597 3.56145 3.9419 3.85894 3.6581ZM7.99995 3C5.23853 3 2.99995 5.23858 2.99995 8V13.5009C2.99995 14.329 3.67124 15 4.49995 15H11.5C12.3287 15 13 14.329 13 13.5009V8C13 5.23858 10.7614 3 7.99995 3Z" fill="black"/>
</svg>
