<svg width="16" height="16" viewBox="0 0 16 16" fill="none" xmlns="http://www.w3.org/2000/svg">
<path d="M0 3C0 1.89543 0.895431 1 2 1H9.08013C9.66398 1 10.2187 1.25513 10.5986 1.69842L15.4422 7.34921C15.7632 7.7237 15.7632 8.2763 15.4422 8.65079L10.5986 14.3016C10.2187 14.7449 9.66398 15 9.08013 15H2C0.89543 15 0 14.1046 0 13V3ZM9.85355 5.85355C10.0488 5.65829 10.0488 5.34171 9.85355 5.14645C9.65829 4.95118 9.34171 4.95118 9.14645 5.14645L7 7.29289L4.85355 5.14645C4.65829 4.95118 4.34171 4.95118 4.14645 5.14645C3.95118 5.34171 3.95118 5.65829 4.14645 5.85355L6.29289 8L4.14645 10.1464C3.95118 10.3417 3.95118 10.6583 4.14645 10.8536C4.34171 11.0488 4.65829 11.0488 4.85355 10.8536L7 8.70711L9.14645 10.8536C9.34171 11.0488 9.65829 11.0488 9.85355 10.8536C10.0488 10.6583 10.0488 10.3417 9.85355 10.1464L7.70711 8L9.85355 5.85355Z" fill="black"/>
</svg>
