<svg width="16" height="16" viewBox="0 0 16 16" fill="none" xmlns="http://www.w3.org/2000/svg">
<path d="M5 13H11V10H10V10.5C10 10.7761 9.77614 11 9.5 11C9.22386 11 9 10.7761 9 10.5V10H5V13Z" fill="black"/>
<path d="M6 2V2.34141C3.66962 3.16508 2 5.38756 2 8V9.19098L0.829179 9.77639C0.321003 10.0305 0 10.5499 0 11.118V13.5C0 14.3284 0.671573 15 1.5 15H2.49939C2.95552 15.6073 3.68196 16 4.5 16H11.5C12.318 16 13.0445 15.6073 13.5006 15H14.5C15.3284 15 16 14.3284 16 13.5V11.118C16 10.5499 15.679 10.0305 15.1708 9.77639L14 9.19098V8C14 5.38756 12.3304 3.16508 10 2.34141V2C10 0.895431 9.10457 0 8 0C6.89543 0 6 0.895431 6 2ZM8 1C8.55228 1 9 1.44772 9 2V2.08296C8.67479 2.0284 8.34071 2 8 2C7.65929 2 7.32521 2.0284 7 2.08296V2C7 1.44772 7.44772 1 8 1ZM8 4C10.0156 4 11.6822 5.49028 11.9595 7.4292C11.9986 7.70256 11.8087 7.95586 11.5354 7.99496C11.262 8.03406 11.0087 7.84416 10.9696 7.5708C10.7617 6.11743 9.51092 5 8 5C6.48908 5 5.2383 6.11743 5.03041 7.5708C4.99131 7.84416 4.73801 8.03406 4.46465 7.99496C4.19129 7.95586 4.00138 7.70256 4.04048 7.4292C4.31782 5.49028 5.98444 4 8 4ZM4.5 9H11.5C11.7761 9 12 9.22386 12 9.5V13.5C12 13.7761 11.7761 14 11.5 14H4.5C4.22386 14 4 13.7761 4 13.5V9.5C4 9.22386 4.22386 9 4.5 9Z" fill="black"/>
</svg>
