<svg width="16" height="16" viewBox="0 0 16 16" fill="none" xmlns="http://www.w3.org/2000/svg">
<path d="M4.04048 7.4292C4.31782 5.49028 5.98444 4 8 4C10.0156 4 11.6822 5.49028 11.9595 7.4292C11.9986 7.70256 11.8087 7.95586 11.5354 7.99496C11.262 8.03406 11.0087 7.84416 10.9696 7.5708C10.7617 6.11743 9.51092 5 8 5C6.48908 5 5.2383 6.11743 5.03041 7.5708C4.99131 7.84416 4.73801 8.03406 4.46465 7.99496C4.19129 7.95586 4.00138 7.70256 4.04048 7.4292Z" fill="black"/>
<path d="M4 9.5C4 9.22386 4.22386 9 4.5 9H11.5C11.7761 9 12 9.22386 12 9.5V13.5C12 13.7761 11.7761 14 11.5 14H4.5C4.22386 14 4 13.7761 4 13.5V9.5ZM5 10V13H11V10H10V10.5C10 10.7761 9.77614 11 9.5 11C9.22386 11 9 10.7761 9 10.5V10H5Z" fill="black"/>
<path d="M6 2.34141V2C6 0.895431 6.89543 0 8 0C9.10457 0 10 0.895431 10 2V2.34141C12.3304 3.16508 14 5.38756 14 8V13.5009C14 14.8819 12.8804 16 11.5 16H4.5C3.11957 16 2 14.8819 2 13.5009V8C2 5.38756 3.66962 3.16508 6 2.34141ZM7 2V2.08296C7.32521 2.0284 7.65929 2 8 2C8.34071 2 8.67479 2.0284 9 2.08296V2C9 1.44772 8.55228 1 8 1C7.44772 1 7 1.44772 7 2ZM8 3C5.23858 3 3 5.23858 3 8V13.5009C3 14.329 3.67129 15 4.5 15H11.5C12.3287 15 13 14.329 13 13.5009V8C13 5.23858 10.7614 3 8 3Z" fill="black"/>
</svg>
