<svg width="16" height="16" viewBox="0 0 16 16" fill="none" xmlns="http://www.w3.org/2000/svg">
<path d="M5 10V13H11V10H10V10.5C10 10.7761 9.77614 11 9.5 11C9.22386 11 9 10.7761 9 10.5V10H5Z" fill="black"/>
<path d="M5.99995 2V2.34141C5.53483 2.50581 5.09603 2.72593 4.69158 2.99375L4.27606 1.7472C4.02098 0.981933 3.01138 0.818098 2.52738 1.46343L1.75714 2.49042C1.56025 2.75293 1.50469 3.09534 1.60845 3.40665L2.41077 5.8136C2.14555 6.49107 1.99995 7.22853 1.99995 8V13.5009C1.99995 14.8819 3.11952 16 4.49995 16H11.5C12.8804 16 14 14.8819 14 13.5009V8C14 7.22853 13.8544 6.49107 13.5891 5.8136L14.3914 3.40665C14.4952 3.09534 14.4397 2.75293 14.2428 2.49042L13.4725 1.46343C12.9885 0.818098 11.9789 0.981933 11.7238 1.7472L11.3083 2.99375C10.9039 2.72593 10.4651 2.50581 9.99995 2.34141V2C9.99995 0.895431 9.10452 0 7.99995 0C6.89538 0 5.99995 0.895431 5.99995 2ZM6.99994 2C6.99994 1.44772 7.44766 1 7.99994 1C8.55223 1 8.99994 1.44772 8.99994 2V2.08296C8.67473 2.0284 8.34065 2 7.99994 2C7.65923 2 7.32515 2.0284 6.99994 2.08296V2ZM12.9411 4.59537C12.7068 4.25597 12.4384 3.9419 12.141 3.6581L12.6725 2.06343L13.4428 3.09042L12.9411 4.59537ZM3.85893 3.6581C3.56144 3.9419 3.29308 4.25597 3.05878 4.59537L2.55713 3.09042L3.32737 2.06343L3.85893 3.6581ZM4.04048 7.4292C4.31782 5.49028 5.98444 4 8 4C10.0156 4 11.6822 5.49028 11.9595 7.4292C11.9986 7.70256 11.8087 7.95586 11.5354 7.99496C11.262 8.03406 11.0087 7.84416 10.9696 7.5708C10.7617 6.11743 9.51092 5 8 5C6.48908 5 5.2383 6.11743 5.03041 7.5708C4.99131 7.84416 4.73801 8.03406 4.46465 7.99496C4.19129 7.95586 4.00138 7.70256 4.04048 7.4292ZM4 9.5C4 9.22386 4.22386 9 4.5 9H11.5C11.7761 9 12 9.22386 12 9.5V13.5C12 13.7761 11.7761 14 11.5 14H4.5C4.22386 14 4 13.7761 4 13.5V9.5Z" fill="black"/>
</svg>
