<svg width="16" height="16" viewBox="0 0 16 16" fill="none" xmlns="http://www.w3.org/2000/svg">
<path d="M9.85355 5.14645C10.0488 5.34171 10.0488 5.65829 9.85355 5.85355L7.70711 8L9.85355 10.1464C10.0488 10.3417 10.0488 10.6583 9.85355 10.8536C9.65829 11.0488 9.34171 11.0488 9.14645 10.8536L7 8.70711L4.85355 10.8536C4.65829 11.0488 4.34171 11.0488 4.14645 10.8536C3.95118 10.6583 3.95118 10.3417 4.14645 10.1464L6.29289 8L4.14645 5.85355C3.95118 5.65829 3.95118 5.34171 4.14645 5.14645C4.34171 4.95118 4.65829 4.95118 4.85355 5.14645L7 7.29289L9.14645 5.14645C9.34171 4.95118 9.65829 4.95118 9.85355 5.14645Z" fill="black"/>
<path d="M2 1C0.895431 1 0 1.89543 0 3V13C0 14.1046 0.89543 15 2 15H9.08013C9.66398 15 10.2187 14.7449 10.5986 14.3016L15.4422 8.65079C15.7632 8.2763 15.7632 7.7237 15.4422 7.34921L10.5986 1.69842C10.2187 1.25513 9.66398 1 9.08013 1H2ZM9.08013 2C9.37206 2 9.6494 2.12756 9.83939 2.34921L14.6829 8L9.83939 13.6508C9.6494 13.8724 9.37206 14 9.08013 14H2C1.44772 14 1 13.5523 1 13V3C1 2.44772 1.44772 2 2 2H9.08013Z" fill="black"/>
</svg>
