<svg width="16" height="16" viewBox="0 0 16 16" fill="none" xmlns="http://www.w3.org/2000/svg">
<path fill-rule="evenodd" clip-rule="evenodd" d="M10.8536 8.14645C11.0488 8.34171 11.0488 8.65829 10.8536 8.85355L7.85355 11.8536C7.75979 11.9473 7.63261 12 7.5 12C7.36739 12 7.24021 11.9473 7.14645 11.8536L5.64645 10.3536C5.45118 10.1583 5.45118 9.84171 5.64645 9.64645C5.84171 9.45118 6.15829 9.45118 6.35355 9.64645L7.5 10.7929L10.1464 8.14645C10.3417 7.95118 10.6583 7.95118 10.8536 8.14645Z" fill="black"/>
<path d="M8 1C9.38071 1 10.5 2.11929 10.5 3.5V4H5.5V3.5C5.5 2.11929 6.61929 1 8 1ZM11.5 4V3.5C11.5 1.567 9.933 0 8 0C6.067 0 4.5 1.567 4.5 3.5V4H1V14C1 15.1046 1.89543 16 3 16H13C14.1046 16 15 15.1046 15 14V4H11.5ZM2 5H14V14C14 14.5523 13.5523 15 13 15H3C2.44772 15 2 14.5523 2 14V5Z" fill="black"/>
</svg>
