<svg width="16" height="16" viewBox="0 0 16 16" fill="none" xmlns="http://www.w3.org/2000/svg">
<path fill-rule="evenodd" clip-rule="evenodd" d="M10.5 3.5C10.5 2.11929 9.38071 1 8 1C6.61929 1 5.5 2.11929 5.5 3.5V4H10.5V3.5ZM11.5 3.5V4H15V14C15 15.1046 14.1046 16 13 16H3C1.89543 16 1 15.1046 1 14V4H4.5V3.5C4.5 1.567 6.067 0 8 0C9.933 0 11.5 1.567 11.5 3.5ZM10.8536 8.85355C11.0488 8.65829 11.0488 8.34171 10.8536 8.14645C10.6583 7.95118 10.3417 7.95118 10.1464 8.14645L7.5 10.7929L6.35355 9.64645C6.15829 9.45118 5.84171 9.45118 5.64645 9.64645C5.45118 9.84171 5.45118 10.1583 5.64645 10.3536L7.14645 11.8536C7.24021 11.9473 7.36739 12 7.5 12C7.63261 12 7.75979 11.9473 7.85355 11.8536L10.8536 8.85355Z" fill="black"/>
</svg>
