<svg width="16" height="16" viewBox="0 0 16 16" fill="none" xmlns="http://www.w3.org/2000/svg">
<path fill-rule="evenodd" clip-rule="evenodd" d="M8 7.5C8.27614 7.5 8.5 7.72386 8.5 8V9.5H10C10.2761 9.5 10.5 9.72386 10.5 10C10.5 10.2761 10.2761 10.5 10 10.5H8.5V12C8.5 12.2761 8.27614 12.5 8 12.5C7.72386 12.5 7.5 12.2761 7.5 12V10.5H6C5.72386 10.5 5.5 10.2761 5.5 10C5.5 9.72386 5.72386 9.5 6 9.5H7.5V8C7.5 7.72386 7.72386 7.5 8 7.5Z" fill="black"/>
<path d="M8 1C9.38071 1 10.5 2.11929 10.5 3.5V4H5.5V3.5C5.5 2.11929 6.61929 1 8 1ZM11.5 4V3.5C11.5 1.567 9.933 0 8 0C6.067 0 4.5 1.567 4.5 3.5V4H1V14C1 15.1046 1.89543 16 3 16H13C14.1046 16 15 15.1046 15 14V4H11.5ZM2 5H14V14C14 14.5523 13.5523 15 13 15H3C2.44772 15 2 14.5523 2 14V5Z" fill="black"/>
</svg>
