<svg width="16" height="16" viewBox="0 0 16 16" fill="none" xmlns="http://www.w3.org/2000/svg">
<path fill-rule="evenodd" clip-rule="evenodd" d="M10.5 3.5C10.5 2.11929 9.38071 1 8 1C6.61929 1 5.5 2.11929 5.5 3.5V4H10.5V3.5ZM11.5 3.5V4H15V14C15 15.1046 14.1046 16 13 16H3C1.89543 16 1 15.1046 1 14V4H4.5V3.5C4.5 1.567 6.067 0 8 0C9.933 0 11.5 1.567 11.5 3.5ZM6.85355 8.14645C6.65829 7.95118 6.34171 7.95118 6.14645 8.14645C5.95118 8.34171 5.95118 8.65829 6.14645 8.85355L7.29289 10L6.14645 11.1464C5.95118 11.3417 5.95118 11.6583 6.14645 11.8536C6.34171 12.0488 6.65829 12.0488 6.85355 11.8536L8 10.7071L9.14645 11.8536C9.34171 12.0488 9.65829 12.0488 9.85355 11.8536C10.0488 11.6583 10.0488 11.3417 9.85355 11.1464L8.70711 10L9.85355 8.85355C10.0488 8.65829 10.0488 8.34171 9.85355 8.14645C9.65829 7.95118 9.34171 7.95118 9.14645 8.14645L8 9.29289L6.85355 8.14645Z" fill="black"/>
</svg>
