<svg width="16" height="16" viewBox="0 0 16 16" fill="none" xmlns="http://www.w3.org/2000/svg">
<path fill-rule="evenodd" clip-rule="evenodd" d="M10.5 3.5C10.5 2.11929 9.38071 1 8 1C6.61929 1 5.5 2.11929 5.5 3.5V4H10.5V3.5ZM11.5 3.5V4H15V14C15 15.1046 14.1046 16 13 16H3C1.89543 16 1 15.1046 1 14V4H4.5V3.5C4.5 1.567 6.067 0 8 0C9.933 0 11.5 1.567 11.5 3.5ZM14 14V5H2V14C2 14.5523 2.44772 15 3 15H13C13.5523 15 14 14.5523 14 14ZM8 7.99275C9.66439 6.282 13.8254 9.27581 8 13.125C2.17465 9.27581 6.33561 6.282 8 7.99275Z" fill="black"/>
</svg>
