<svg width="16" height="16" viewBox="0 0 16 16" fill="none" xmlns="http://www.w3.org/2000/svg">
<path fill-rule="evenodd" clip-rule="evenodd" d="M6.14645 8.14645C6.34171 7.95118 6.65829 7.95118 6.85355 8.14645L8 9.29289L9.14645 8.14645C9.34171 7.95118 9.65829 7.95118 9.85355 8.14645C10.0488 8.34171 10.0488 8.65829 9.85355 8.85355L8.70711 10L9.85355 11.1464C10.0488 11.3417 10.0488 11.6583 9.85355 11.8536C9.65829 12.0488 9.34171 12.0488 9.14645 11.8536L8 10.7071L6.85355 11.8536C6.65829 12.0488 6.34171 12.0488 6.14645 11.8536C5.95118 11.6583 5.95118 11.3417 6.14645 11.1464L7.29289 10L6.14645 8.85355C5.95118 8.65829 5.95118 8.34171 6.14645 8.14645Z" fill="black"/>
<path d="M8 1C9.38071 1 10.5 2.11929 10.5 3.5V4H5.5V3.5C5.5 2.11929 6.61929 1 8 1ZM11.5 4V3.5C11.5 1.567 9.933 0 8 0C6.067 0 4.5 1.567 4.5 3.5V4H1V14C1 15.1046 1.89543 16 3 16H13C14.1046 16 15 15.1046 15 14V4H11.5ZM2 5H14V14C14 14.5523 13.5523 15 13 15H3C2.44772 15 2 14.5523 2 14V5Z" fill="black"/>
</svg>
