<svg width="16" height="16" viewBox="0 0 16 16" fill="none" xmlns="http://www.w3.org/2000/svg">
<path fill-rule="evenodd" clip-rule="evenodd" d="M10.5 3.5C10.5 2.11929 9.38071 1 8 1C6.61929 1 5.5 2.11929 5.5 3.5V4H10.5V3.5ZM11.5 3.5V4H15V14C15 15.1046 14.1046 16 13 16H3C1.89543 16 1 15.1046 1 14V4H4.5V3.5C4.5 1.567 6.067 0 8 0C9.933 0 11.5 1.567 11.5 3.5ZM8.5 8C8.5 7.72386 8.27614 7.5 8 7.5C7.72386 7.5 7.5 7.72386 7.5 8V9.5H6C5.72386 9.5 5.5 9.72386 5.5 10C5.5 10.2761 5.72386 10.5 6 10.5H7.5V12C7.5 12.2761 7.72386 12.5 8 12.5C8.27614 12.5 8.5 12.2761 8.5 12V10.5H10C10.2761 10.5 10.5 10.2761 10.5 10C10.5 9.72386 10.2761 9.5 10 9.5H8.5V8Z" fill="black"/>
</svg>
