<svg width="16" height="16" viewBox="0 0 16 16" fill="none" xmlns="http://www.w3.org/2000/svg">
<path fill-rule="evenodd" clip-rule="evenodd" d="M8.48933 10.9196C19.4129 3.38171 11.281 -2.38689 8 0.985503C4.719 -2.38689 -3.41287 3.38171 7.51067 10.9196L7.27639 11.3882C7.21464 11.5117 7.2647 11.6619 7.38819 11.7236C7.51168 11.7854 7.66185 11.7353 7.7236 11.6118L7.76327 11.5325C7.77256 11.7029 7.78832 11.8471 7.81504 11.9817C7.88339 12.3259 8.02256 12.6042 8.26256 13.0842L8.27639 13.1118C8.48774 13.5345 8.45756 13.9618 8.32533 14.3584C8.19145 14.7601 7.95991 15.1094 7.79198 15.3613C7.7154 15.4762 7.74644 15.6314 7.86132 15.708C7.9762 15.7846 8.13142 15.7536 8.20801 15.6387L8.21222 15.6324C8.37795 15.3838 8.64322 14.9859 8.79967 14.5166C8.95911 14.0382 9.01226 13.4655 8.7236 12.8882C8.46613 12.3733 8.35932 12.1556 8.30547 11.8843C8.28819 11.7974 8.2763 11.7046 8.26811 11.5952L8.27639 11.6118C8.33813 11.7353 8.4883 11.7854 8.6118 11.7236C8.73529 11.6619 8.78535 11.5117 8.7236 11.3882L8.48933 10.9196ZM6.72682 1.2686C5.55957 0.659234 3.92675 1.1265 3.27282 2.40357C3.03576 2.86653 2.91309 3.48406 3.07111 4.25459C3.12635 4.52395 3.53758 4.45083 3.59841 4.18268C3.88313 2.92746 4.7753 1.7214 6.58662 1.6551C6.82096 1.64652 6.9347 1.37713 6.72682 1.2686Z" fill="black"/>
</svg>
