<svg width="16" height="17" viewBox="0 0 16 17" fill="none" xmlns="http://www.w3.org/2000/svg">
<path d="M7.86808 13.6723C9.14839 13.0089 13 10.0402 13 5.84375C13 2.61634 10.5376 0 7.5 0C4.46243 0 2 2.61634 2 5.84375C2 10.0402 5.85161 13.0089 7.13192 13.6723L6.42678 14.4215C6.26929 14.5889 6.38083 14.875 6.60355 14.875H7.32338C7.51559 15.5321 8.06723 15.9729 8.76144 16.2523C9.62846 16.6012 10.7891 16.7344 12 16.7344C12.1381 16.7344 12.25 16.6154 12.25 16.4688C12.25 16.3221 12.1381 16.2031 12 16.2031C10.8109 16.2031 9.72154 16.0706 8.93856 15.7555C8.39329 15.5361 8.03113 15.2455 7.86143 14.875H8.39645C8.61917 14.875 8.73071 14.5889 8.57322 14.4215L7.86808 13.6723ZM12 5.84375C12 7.83227 10.9544 9.56923 9.73039 10.8698C9.12775 11.5101 8.51091 12.0124 8.02404 12.3498C7.81373 12.4955 7.63536 12.6051 7.5 12.6797C7.36465 12.6051 7.18627 12.4955 6.97596 12.3498C6.48909 12.0124 5.87225 11.5101 5.26961 10.8698C4.04555 9.56923 3 7.83227 3 5.84375C3 3.20314 5.01472 1.0625 7.5 1.0625C9.98528 1.0625 12 3.20314 12 5.84375ZM7.30545 12.7758C7.28518 12.7836 7.28715 12.7812 7.30649 12.7754L7.30545 12.7758Z" fill="black"/>
</svg>
