<svg width="16" height="16" viewBox="0 0 16 16" fill="none" xmlns="http://www.w3.org/2000/svg">
<path fill-rule="evenodd" clip-rule="evenodd" d="M8 2.41955L7.28325 1.68283C6.1537 0.521815 4.03983 0.9056 3.27279 2.40357C2.92234 3.08798 2.8219 4.11019 3.50871 5.46515C4.16128 6.75256 5.52134 8.31873 8 10.0421C10.4787 8.31873 11.8387 6.75256 12.4913 5.46515C13.1781 4.11019 13.0777 3.08798 12.7272 2.40357C11.9602 0.9056 9.8463 0.521815 8.71675 1.68283L8 2.41955ZM7.51067 10.9196C-3.26938 3.48073 4.50864 -2.23503 7.86824 0.857315C7.91296 0.898478 7.9569 0.941202 8 0.985503C8.0431 0.941202 8.08704 0.898478 8.13176 0.857315C11.4914 -2.23503 19.2694 3.48073 8.48933 10.9196L8.7236 11.3882C8.78535 11.5117 8.73529 11.6619 8.6118 11.7236C8.4883 11.7854 8.33813 11.7353 8.27639 11.6118L8.26811 11.5952C8.2763 11.7046 8.28819 11.7974 8.30547 11.8843C8.35932 12.1556 8.46613 12.3733 8.7236 12.8882C9.01226 13.4655 8.95911 14.0382 8.79967 14.5166C8.64322 14.9859 8.37795 15.3838 8.21222 15.6324L8.20801 15.6387C8.13142 15.7536 7.9762 15.7846 7.86132 15.708C7.74644 15.6314 7.7154 15.4762 7.79198 15.3613C7.95991 15.1094 8.19145 14.7601 8.32533 14.3584C8.45756 13.9618 8.48774 13.5345 8.27639 13.1118L8.26256 13.0842C8.02256 12.6042 7.88339 12.3259 7.81504 11.9817C7.78832 11.8471 7.77256 11.7029 7.76327 11.5325L7.7236 11.6118C7.66185 11.7353 7.51168 11.7854 7.38819 11.7236C7.2647 11.6619 7.21464 11.5117 7.27639 11.3882L7.51067 10.9196ZM6.012 2.06102C5.36339 1.88111 4.52893 2.14449 4.16288 2.85935C4.03096 3.11699 3.91692 3.54768 4.08258 4.19357C4.14515 4.43753 4.49635 4.39176 4.5691 4.15064C4.77941 3.45366 5.19648 2.70425 5.92788 2.45914C6.14461 2.3865 6.23226 2.12212 6.012 2.06102Z" fill="black"/>
</svg>
