<svg width="16" height="16" viewBox="0 0 16 16" fill="none" xmlns="http://www.w3.org/2000/svg">
<path d="M7.86808 12.8681C9.14839 12.2436 13 9.44956 13 5.5C13 2.46243 10.5376 0 7.5 0C4.46243 0 2 2.46243 2 5.5C2 9.44956 5.85161 12.2436 7.13192 12.8681L6.42678 13.5732C6.26929 13.7307 6.38083 14 6.60355 14H7.32338C7.51559 14.6184 8.06723 15.0333 8.76144 15.2963C9.62846 15.6247 10.7891 15.75 12 15.75C12.1381 15.75 12.25 15.6381 12.25 15.5C12.25 15.3619 12.1381 15.25 12 15.25C10.8109 15.25 9.72154 15.1253 8.93856 14.8287C8.39329 14.6222 8.03113 14.3487 7.86143 14H8.39645C8.61917 14 8.73071 13.7307 8.57322 13.5732L7.86808 12.8681Z" fill="black"/>
</svg>
