<svg width="16" height="16" viewBox="0 0 16 16" fill="none" xmlns="http://www.w3.org/2000/svg">
<path d="M2.67944 7.67645L9.17123 1.17193C10.7333 -0.390168 13.2663 -0.390514 14.8284 1.17158C16.3895 2.73266 16.3905 5.26304 14.8315 6.82538L13.3536 8.35361L8.34763 13.3595L6.82538 14.8315C5.26304 16.3905 2.73266 16.3895 1.17157 14.8284C-0.390524 13.2663 -0.390524 10.7337 1.17157 9.17159L1.17307 9.17009L2.67759 7.67829L2.67944 7.67645ZM8.38909 4.81803C8.19382 4.62277 7.87724 4.62277 7.68198 4.81803C7.48672 5.0133 7.48672 5.32988 7.68198 5.52514C7.87724 5.7204 8.19382 5.7204 8.38909 5.52514C8.58435 5.32988 8.58435 5.0133 8.38909 4.81803ZM6.97487 6.93935C7.17014 6.74409 7.17014 6.42751 6.97487 6.23225C6.77961 6.03699 6.46303 6.03699 6.26777 6.23225C6.0725 6.42751 6.0725 6.74409 6.26777 6.93935C6.46303 7.13462 6.77961 7.13462 6.97487 6.93935ZM5.56066 8.35357C5.75592 8.15831 5.75592 7.84172 5.56066 7.64646C5.3654 7.4512 5.04882 7.4512 4.85355 7.64646C4.65829 7.84172 4.65829 8.15831 4.85355 8.35357C5.04882 8.54883 5.3654 8.54883 5.56066 8.35357ZM8.38909 11.182C8.58435 10.9867 8.58435 10.6702 8.38909 10.4749C8.19382 10.2796 7.87724 10.2796 7.68198 10.4749C7.48672 10.6702 7.48672 10.9867 7.68198 11.182C7.87724 11.3773 8.19382 11.3773 8.38909 11.182ZM9.8033 9.06068C9.60804 8.86541 9.29146 8.86541 9.09619 9.06068C8.90093 9.25594 8.90093 9.57252 9.09619 9.76778C9.29146 9.96304 9.60804 9.96304 9.8033 9.76778C9.99856 9.57252 9.99856 9.25594 9.8033 9.06068ZM11.2175 8.35357C11.4128 8.15831 11.4128 7.84172 11.2175 7.64646C11.0223 7.4512 10.7057 7.4512 10.5104 7.64646C10.3151 7.84172 10.3151 8.15831 10.5104 8.35357C10.7057 8.54883 11.0223 8.54883 11.2175 8.35357ZM6.97487 9.06068C6.77961 8.86541 6.46303 8.86541 6.26777 9.06068C6.0725 9.25594 6.0725 9.57252 6.26777 9.76778C6.46303 9.96304 6.77961 9.96304 6.97487 9.76778C7.17014 9.57252 7.17014 9.25594 6.97487 9.06068ZM8.38909 8.35357C8.58435 8.15831 8.58435 7.84172 8.38909 7.64646C8.19382 7.4512 7.87724 7.4512 7.68198 7.64646C7.48672 7.84172 7.48672 8.15831 7.68198 8.35357C7.87724 8.54883 8.19382 8.54883 8.38909 8.35357ZM9.8033 6.23225C9.60804 6.03699 9.29146 6.03699 9.09619 6.23225C8.90093 6.42751 8.90093 6.74409 9.09619 6.93935C9.29146 7.13462 9.60804 7.13462 9.8033 6.93935C9.99856 6.74409 9.99856 6.42751 9.8033 6.23225ZM8.64645 3.35357L12.6464 7.35357L13.3536 6.64646L9.35355 2.64646L8.64645 3.35357ZM7.35355 12.6465L3.35355 8.64646L2.64645 9.35357L6.64645 13.3536L7.35355 12.6465Z" fill="black"/>
</svg>
