<svg width="16" height="16" viewBox="0 0 16 16" fill="none" xmlns="http://www.w3.org/2000/svg">
<path d="M14.1213 1.87869C12.9497 0.707117 11.0503 0.707117 9.87868 1.87869L8.73336 3.02626L12.994 7.28693L14.1213 6.12128C15.2928 4.94971 15.2929 3.05026 14.1213 1.87869ZM12.2929 8.00001L8.02694 3.73406L3.73825 8.03115L8 12.2929L12.2929 8.00001ZM7.28692 12.994L3.02999 8.73711L1.87868 9.87869C0.707767 11.0503 0.707327 12.95 1.87868 14.1213C3.05025 15.2929 4.94975 15.2929 6.12132 14.1213L6.12724 14.1154L7.28692 12.994ZM2.67944 7.67645L9.17123 1.17193C10.7333 -0.390168 13.2663 -0.390514 14.8284 1.17158C16.3895 2.73266 16.3905 5.26304 14.8315 6.82538L13.3536 8.35361L8.34763 13.3595L6.82538 14.8315C5.26304 16.3905 2.73266 16.3895 1.17157 14.8284C-0.390524 13.2663 -0.390524 10.7337 1.17157 9.17159L1.17307 9.17009L2.67759 7.67829L2.67944 7.67645Z" fill="black"/>
<path d="M5.56066 7.64646C5.75592 7.84172 5.75592 8.1583 5.56066 8.35356C5.3654 8.54883 5.04882 8.54883 4.85355 8.35356C4.65829 8.1583 4.65829 7.84172 4.85355 7.64646C5.04882 7.45119 5.3654 7.45119 5.56066 7.64646Z" fill="black"/>
<path d="M6.97487 6.23224C7.17014 6.42751 7.17014 6.74409 6.97487 6.93935C6.77961 7.13461 6.46303 7.13461 6.26777 6.93935C6.0725 6.74409 6.0725 6.42751 6.26777 6.23224C6.46303 6.03698 6.77961 6.03698 6.97487 6.23224Z" fill="black"/>
<path d="M8.38909 4.81803C8.58435 5.01329 8.58435 5.32987 8.38909 5.52514C8.19383 5.7204 7.87724 5.7204 7.68198 5.52514C7.48672 5.32987 7.48672 5.01329 7.68198 4.81803C7.87724 4.62277 8.19383 4.62277 8.38909 4.81803Z" fill="black"/>
<path d="M8.38909 10.4749C8.58435 10.6701 8.58435 10.9867 8.38909 11.182C8.19383 11.3773 7.87724 11.3773 7.68198 11.182C7.48672 10.9867 7.48672 10.6701 7.68198 10.4749C7.87724 10.2796 8.19383 10.2796 8.38909 10.4749Z" fill="black"/>
<path d="M9.8033 9.06067C9.99856 9.25593 9.99856 9.57251 9.8033 9.76778C9.60804 9.96304 9.29146 9.96304 9.09619 9.76778C8.90093 9.57251 8.90093 9.25593 9.09619 9.06067C9.29146 8.86541 9.60804 8.86541 9.8033 9.06067Z" fill="black"/>
<path d="M11.2175 7.64646C11.4128 7.84172 11.4128 8.1583 11.2175 8.35356C11.0223 8.54883 10.7057 8.54883 10.5104 8.35356C10.3151 8.1583 10.3151 7.84172 10.5104 7.64646C10.7057 7.45119 11.0223 7.45119 11.2175 7.64646Z" fill="black"/>
<path d="M6.97487 9.06067C7.17014 9.25593 7.17014 9.57251 6.97487 9.76778C6.77961 9.96304 6.46303 9.96304 6.26777 9.76778C6.0725 9.57251 6.0725 9.25593 6.26777 9.06067C6.46303 8.86541 6.77961 8.86541 6.97487 9.06067Z" fill="black"/>
<path d="M8.38909 7.64646C8.58435 7.84172 8.58435 8.1583 8.38909 8.35356C8.19383 8.54883 7.87724 8.54883 7.68198 8.35356C7.48672 8.1583 7.48672 7.84172 7.68198 7.64646C7.87724 7.45119 8.19383 7.45119 8.38909 7.64646Z" fill="black"/>
<path d="M9.8033 6.23224C9.99856 6.42751 9.99856 6.74409 9.8033 6.93935C9.60804 7.13461 9.29146 7.13461 9.09619 6.93935C8.90093 6.74409 8.90093 6.42751 9.09619 6.23224C9.29146 6.03698 9.60804 6.03698 9.8033 6.23224Z" fill="black"/>
</svg>
