<svg width="16" height="16" viewBox="0 0 16 16" fill="none" xmlns="http://www.w3.org/2000/svg">
<path d="M8.00004 0L14.6099 3H15.5C15.7762 3 16 3.22386 16 3.5L16 5.5C16 5.77614 15.7761 6 15.5 6H15L15 13C15.2295 13 15.4295 13.1574 15.4851 13.38L15.9851 15.38C16.0224 15.5294 15.9889 15.6886 15.8941 15.81C15.7994 15.9314 15.654 16 15.5 16H0.500035C0.346068 16 0.200686 15.9314 0.105933 15.81C0.011179 15.6886 -0.0223786 15.5294 0.014964 15.38L0.514964 13.38C0.57061 13.1574 0.770601 13 1.00004 13L1 6H0.5C0.223858 6 0 5.77614 0 5.5L3.52859e-05 3.5C3.52859e-05 3.22386 0.223893 3 0.500035 3H1.39022L8.00004 0ZM3.77652 3H12.2235L8.00004 1L3.77652 3ZM2 6L2.00004 13H3.00004L3 6H2ZM4 6L4.00004 13H6.50004L6.5 6H4ZM7.5 6L7.50004 13H8.50004L8.5 6H7.5ZM9.5 6L9.50004 13H12L12 6H9.5ZM13 6L13 13H14V6H13ZM15 5V4H1.00004V5H15ZM14.6096 14H1.39042L1.14042 15H14.8596L14.6096 14Z" fill="black"/>
</svg>
