<svg width="16" height="16" viewBox="0 0 16 16" fill="none" xmlns="http://www.w3.org/2000/svg">
<path d="M8.27739 0.0839748C8.10944 -0.0279916 7.89064 -0.0279916 7.72269 0.0839748L0.222689 5.08397C0.0393602 5.20619 -0.0423563 5.43401 0.0214929 5.64489C0.0853421 5.85577 0.279705 6 0.500039 6H2.37504V13H1.50004C1.2239 13 1.00004 13.2239 1.00004 13.5C1.00004 13.7761 1.2239 14 1.50004 14H14.5C14.7762 14 15 13.7761 15 13.5C15 13.2239 14.7762 13 14.5 13H13.625V6H15.5C15.7204 6 15.9147 5.85577 15.9786 5.64489C16.0424 5.43401 15.9607 5.20619 15.7774 5.08397L8.27739 0.0839748ZM12.375 6V13H11.125V6H12.375ZM9.87504 6V13H8.62504V6H9.87504ZM7.37504 6V13H6.12504V6H7.37504ZM4.87504 6V13H3.62504V6H4.87504ZM8 4C7.44772 4 7 3.55228 7 3C7 2.44772 7.44772 2 8 2C8.55228 2 9 2.44772 9 3C9 3.55228 8.55228 4 8 4Z" fill="black"/>
<path d="M0.500039 15C0.223896 15 3.88751e-05 15.2239 3.88751e-05 15.5C3.88751e-05 15.7761 0.223896 16 0.500039 16H15.5C15.7762 16 16 15.7761 16 15.5C16 15.2239 15.7762 15 15.5 15H0.500039Z" fill="black"/>
</svg>
