<svg width="16" height="16" viewBox="0 0 16 16" fill="none" xmlns="http://www.w3.org/2000/svg">
<path d="M4 9.99995C4 9.44767 4.44772 8.99995 5 8.99995C5.55228 8.99995 6 9.44767 6 9.99995V12C6 12.5522 5.55228 13 5 13C4.44772 13 4 12.5522 4 12V9.99995Z" fill="black"/>
<path d="M7 9.99995C7 9.44767 7.44772 8.99995 8 8.99995C8.55228 8.99995 9 9.44767 9 9.99995V12C9 12.5522 8.55228 13 8 13C7.44772 13 7 12.5522 7 12V9.99995Z" fill="black"/>
<path d="M10 9.99995C10 9.44767 10.4477 8.99995 11 8.99995C11.5523 8.99995 12 9.44767 12 9.99995V12C12 12.5522 11.5523 13 11 13C10.4477 13 10 12.5522 10 12V9.99995Z" fill="black"/>
<path d="M5.75725 1.07121C5.99404 1.21328 6.07082 1.52041 5.92875 1.7572L3.3831 5.99995H12.6169L10.0713 1.7572C9.92918 1.52041 10.006 1.21328 10.2428 1.07121C10.4795 0.929133 10.7867 1.00592 10.9287 1.24271L13.7831 5.99995H15.5C15.7761 5.99995 16 6.22381 16 6.49995V7.49995C16 7.7761 15.7761 7.99995 15.5 7.99995H14.8772L13.0326 14.456C12.9406 14.778 12.6463 15 12.3114 15H3.68858C3.35372 15 3.05943 14.778 2.96743 14.456L1.12285 7.99995H0.5C0.223858 7.99995 0 7.7761 0 7.49995V6.49995C0 6.22381 0.223858 5.99995 0.5 5.99995H2.2169L5.07125 1.24271C5.21333 1.00592 5.52046 0.929133 5.75725 1.07121ZM2.16287 7.99995L3.87715 14H12.1228L13.8371 7.99995H2.16287Z" fill="black"/>
</svg>
