<svg width="16" height="16" viewBox="0 0 16 16" fill="none" xmlns="http://www.w3.org/2000/svg">
<path d="M5.75725 1.07121C5.99404 1.21328 6.07082 1.52041 5.92875 1.7572L3.3831 5.99995H12.6169L10.0713 1.7572C9.92918 1.52041 10.006 1.21328 10.2428 1.07121C10.4795 0.929133 10.7867 1.00592 10.9287 1.24271L13.7831 5.99995H15.5C15.7761 5.99995 16 6.22381 16 6.49995V7.49995C16 7.7761 15.7761 7.99995 15.5 7.99995H0.5C0.223858 7.99995 0 7.7761 0 7.49995V6.49995C0 6.22381 0.223858 5.99995 0.5 5.99995H2.2169L5.07125 1.24271C5.21333 1.00592 5.52046 0.929133 5.75725 1.07121Z" fill="black"/>
<path d="M2.46776 15.4262L0.942566 9H15.0574L13.5322 15.4262C13.4508 15.7628 13.1496 16 12.8032 16H3.19676C2.85043 16 2.54914 15.7628 2.46776 15.4262Z" fill="black"/>
</svg>
