<svg width="16" height="16" viewBox="0 0 16 16" fill="none" xmlns="http://www.w3.org/2000/svg">
<path d="M5.75725 1.07121C5.99404 1.21328 6.07082 1.52041 5.92875 1.7572L3.3831 5.99995H12.6169L10.0713 1.7572C9.92918 1.52041 10.006 1.21328 10.2428 1.07121C10.4795 0.929133 10.7867 1.00592 10.9287 1.24271L13.7831 5.99995H15.5C15.7761 5.99995 16 6.22381 16 6.49995V7.49995C16 7.7761 15.7761 7.99995 15.5 7.99995H0.5C0.223858 7.99995 0 7.7761 0 7.49995V6.49995C0 6.22381 0.223858 5.99995 0.5 5.99995H2.2169L5.07125 1.24271C5.21333 1.00592 5.52046 0.929133 5.75725 1.07121ZM3.39353 15L1.91457 9H0.942572L2.46776 15.4262C2.54915 15.7628 2.85044 16 3.19676 16H12.8032C13.1496 16 13.4509 15.7628 13.5322 15.4262L15.0574 9H14.0854L12.6065 15H3.39353Z" fill="black"/>
</svg>
