<svg width="16" height="16" viewBox="0 0 16 16" fill="none" xmlns="http://www.w3.org/2000/svg">
<path d="M5.07125 1.24283C5.21333 1.00604 5.52046 0.929255 5.75725 1.07133C5.99404 1.2134 6.07082 1.52053 5.92875 1.75732L3.3831 6.00008H12.6169L10.0713 1.75732C9.92918 1.52053 10.006 1.2134 10.2428 1.07133C10.4795 0.929255 10.7867 1.00604 10.9287 1.24283L13.7831 6.00008H15.5C15.7761 6.00008 16 6.22393 16 6.50008V8.50008C16 8.77622 15.7761 9.00008 15.5 9.00008H15V14.0001C15 15.1046 14.1046 16.0001 13 16.0001H3C1.89543 16.0001 1 15.1046 1 14.0001V9.00008H0.5C0.223858 9.00008 0 8.77622 0 8.50008V6.50008C0 6.22393 0.223858 6.00008 0.5 6.00008H2.2169L5.07125 1.24283ZM3.5 10.5001C3.5 10.2239 3.27614 10.0001 3 10.0001C2.72386 10.0001 2.5 10.2239 2.5 10.5001V13.5001C2.5 13.7762 2.72386 14.0001 3 14.0001C3.27614 14.0001 3.5 13.7762 3.5 13.5001V10.5001ZM6 10.5001C6 10.2239 5.77614 10.0001 5.5 10.0001C5.22386 10.0001 5 10.2239 5 10.5001V13.5001C5 13.7762 5.22386 14.0001 5.5 14.0001C5.77614 14.0001 6 13.7762 6 13.5001V10.5001ZM8.5 10.5001C8.5 10.2239 8.27614 10.0001 8 10.0001C7.72386 10.0001 7.5 10.2239 7.5 10.5001V13.5001C7.5 13.7762 7.72386 14.0001 8 14.0001C8.27614 14.0001 8.5 13.7762 8.5 13.5001V10.5001ZM11 10.5001C11 10.2239 10.7761 10.0001 10.5 10.0001C10.2239 10.0001 10 10.2239 10 10.5001V13.5001C10 13.7762 10.2239 14.0001 10.5 14.0001C10.7761 14.0001 11 13.7762 11 13.5001V10.5001ZM13.5 10.5001C13.5 10.2239 13.2761 10.0001 13 10.0001C12.7239 10.0001 12.5 10.2239 12.5 10.5001V13.5001C12.5 13.7762 12.7239 14.0001 13 14.0001C13.2761 14.0001 13.5 13.7762 13.5 13.5001V10.5001Z" fill="black"/>
</svg>
