<svg width="16" height="16" viewBox="0 0 16 16" fill="none" xmlns="http://www.w3.org/2000/svg">
<path d="M5.92875 1.7572C6.07082 1.52041 5.99404 1.21328 5.75725 1.07121C5.52046 0.929133 5.21333 1.00592 5.07125 1.24271L2.2169 5.99995H0.5C0.223858 5.99995 0 6.22381 0 6.49995V7.49995C0 7.7761 0.223858 7.99995 0.5 7.99995H1.12285L2.96743 14.456C3.05943 14.778 3.35372 15 3.68858 15H12.3114C12.6463 15 12.9406 14.778 13.0326 14.456L14.8772 7.99995H15.5C15.7761 7.99995 16 7.7761 16 7.49995V6.49995C16 6.22381 15.7761 5.99995 15.5 5.99995H13.7831L10.9287 1.24271C10.7867 1.00592 10.4795 0.929133 10.2428 1.07121C10.006 1.21328 9.92918 1.52041 10.0713 1.7572L12.6169 5.99995H3.3831L5.92875 1.7572ZM4 10C4 9.44772 4.44772 9 5 9C5.55228 9 6 9.44772 6 10V12C6 12.5523 5.55228 13 5 13C4.44772 13 4 12.5523 4 12V10ZM7 10C7 9.44772 7.44772 9 8 9C8.55228 9 9 9.44772 9 10V12C9 12.5523 8.55228 13 8 13C7.44772 13 7 12.5523 7 12V10ZM11 9C11.5523 9 12 9.44772 12 10V12C12 12.5523 11.5523 13 11 13C10.4477 13 10 12.5523 10 12V10C10 9.44772 10.4477 9 11 9Z" fill="black"/>
</svg>
