<svg width="16" height="16" viewBox="0 0 16 16" fill="none" xmlns="http://www.w3.org/2000/svg">
<path d="M9.58473 2.56781C9.78575 2.68472 9.87962 2.9248 9.81123 3.14706L8.67701 6.83332H10.6667C10.8662 6.83332 11.0466 6.95189 11.1257 7.135C11.1843 7.27055 11.179 7.42226 11.1169 7.55085C11.1056 7.57428 11.0924 7.59694 11.0774 7.61859C11.0634 7.63866 11.0479 7.65787 11.0308 7.67603L5.69744 13.3427C5.53807 13.512 5.28298 13.5491 5.08196 13.4322C4.88094 13.3153 4.78707 13.0752 4.85546 12.853L5.9897 9.16668H4.00001C3.80053 9.16668 3.62014 9.04811 3.54102 8.865C3.46901 8.69833 3.49344 8.50721 3.60149 8.3647C3.61216 8.35063 3.62365 8.33703 3.63593 8.32397L8.96924 2.65733C9.12862 2.48799 9.38371 2.45089 9.58473 2.56781Z" fill="black"/>
<path d="M2 4H6.3323L5.39113 5H2C1.44772 5 1 5.44772 1 6V10C1 10.5523 1.44772 11 2 11H4.37935L4.07165 12H2C0.89543 12 0 11.1046 0 10V6C0 4.89543 0.895431 4 2 4Z" fill="black"/>
<path d="M2 6H4.44995L2.90773 7.63861C2.49759 8.07438 2.38571 8.71226 2.62307 9.2616C2.76358 9.5868 3.01055 9.84414 3.31285 10H2V6Z" fill="black"/>
<path d="M10.5951 4L10.2874 5H12C12.5523 5 13 5.44772 13 6V10C13 10.5523 12.5523 11 12 11H9.27558L8.3344 12H12C13.1046 12 14 11.1046 14 10V6C14 4.89543 13.1046 4 12 4H10.5951Z" fill="black"/>
<path d="M12 10H10.2168L11.759 8.36137C11.8564 8.25791 11.9369 8.14306 12 8.02071V10Z" fill="black"/>
<path d="M12 6.64603V6H11.3539C11.627 6.1408 11.8549 6.36441 12 6.64603Z" fill="black"/>
<path d="M16 8C16 8.82843 15.3284 9.5 14.5 9.5V6.5C15.3284 6.5 16 7.17157 16 8Z" fill="black"/>
</svg>
