<svg width="16" height="16" viewBox="0 0 16 16" fill="none" xmlns="http://www.w3.org/2000/svg">
<path d="M2 6H12V10H2V6Z" fill="black"/>
<path d="M2 4C0.895431 4 0 4.89543 0 6V10C0 11.1046 0.89543 12 2 12H12C13.1046 12 14 11.1046 14 10V6C14 4.89543 13.1046 4 12 4H2ZM12 5C12.5523 5 13 5.44772 13 6V10C13 10.5523 12.5523 11 12 11H2C1.44772 11 1 10.5523 1 10V6C1 5.44772 1.44772 5 2 5H12Z" fill="black"/>
<path d="M16 8C16 8.82843 15.3284 9.5 14.5 9.5V6.5C15.3284 6.5 16 7.17157 16 8Z" fill="black"/>
</svg>
