<svg width="16" height="16" viewBox="0 0 16 16" fill="none" xmlns="http://www.w3.org/2000/svg">
<path d="M4.65405 3C5.11506 3 5.54095 3.03512 5.93172 3.1405C6.32248 3.21075 6.643 3.35564 6.92839 3.53126C7.21378 3.70689 7.42453 3.95715 7.56942 4.27767C7.70992 4.59818 7.78456 4.98895 7.78456 5.41484C7.78456 5.91098 7.67918 6.33687 7.42892 6.65738C7.21378 6.9779 6.86253 7.26328 6.43225 7.47403C7.03815 7.64966 7.49917 7.97017 7.78017 8.39606C8.06117 8.82195 8.24118 9.35322 8.24118 9.95912C8.24118 10.4553 8.13581 10.8812 7.95579 11.2368C7.78017 11.5924 7.49478 11.9129 7.17426 12.1237C6.85375 12.3388 6.46298 12.5145 6.03709 12.6198C5.6112 12.7252 5.18531 12.7955 4.75942 12.7955L0 12.8042V3H4.65405ZM4.36866 6.9779C4.75942 6.9779 5.07994 6.87252 5.32581 6.69251C5.57169 6.51249 5.68145 6.19637 5.68145 5.8056C5.68145 5.59046 5.64633 5.37971 5.57608 5.23921C5.50583 5.09871 5.40045 4.98895 5.25556 4.88357C5.11506 4.81332 4.97017 4.74307 4.79455 4.70795C4.61893 4.67282 4.43891 4.67282 4.22816 4.67282H2.16896V6.98229C2.16896 6.97789 4.36866 6.9779 4.36866 6.9779ZM4.47403 11.1709C4.68917 11.1709 4.89992 11.1358 5.07994 11.1007C5.25556 11.0656 5.43558 10.9953 5.57608 10.8855C5.71658 10.7758 5.82634 10.6704 5.93172 10.4948C6.00197 10.3192 6.07222 10.104 6.07222 9.85375C6.07222 9.35761 5.93172 9.00197 5.64633 8.7517C5.36094 8.53656 4.97017 8.43119 4.50916 8.43119H2.16896V11.1665H4.47403V11.1709Z" fill="black"/>
<path d="M11.3322 11.1358C11.6176 11.4212 12.0435 11.5617 12.6098 11.5617C13.0006 11.5617 13.3562 11.4563 13.6416 11.2763C13.927 11.0612 14.1026 10.8504 14.1729 10.6353H15.9116C15.6262 11.4871 15.2003 12.093 14.6339 12.4837C14.0675 12.8394 13.3914 13.0501 12.5747 13.0501C12.0083 13.0501 11.5078 12.9447 11.0468 12.7647C10.5858 12.5891 10.2301 12.3388 9.90961 11.9832C9.5891 11.6627 9.34322 11.2719 9.19833 10.8109C9.02271 10.3499 8.94807 9.85375 8.94807 9.28297C8.94807 8.7517 9.01832 8.25117 9.19833 7.79016C9.37835 7.32915 9.62422 6.93838 9.94474 6.58274C10.2653 6.26223 10.656 5.97684 11.0819 5.80121C11.5429 5.62559 12.0039 5.51582 12.5747 5.51582C13.1806 5.51582 13.7119 5.6212 14.1729 5.87146C14.6339 6.12173 14.9896 6.40273 15.2749 6.82862C15.5603 7.21938 15.7711 7.68039 15.916 8.17653C15.9862 8.67267 16.0213 9.1732 15.9862 9.73959H10.836C10.836 10.3192 11.0468 10.8504 11.3322 11.1358ZM13.5714 7.40379C13.3211 7.15352 12.9304 7.01302 12.4693 7.01302C12.1488 7.01302 11.903 7.08327 11.6878 7.18865C11.4727 7.29402 11.3322 7.43891 11.1917 7.57941C11.0512 7.71991 10.9765 7.89993 10.9414 8.07555C10.9063 8.25117 10.8712 8.39606 10.8712 8.53656H14.0675C13.9973 8.00969 13.8173 7.65405 13.5714 7.40379ZM10.4453 3.67616H14.4232V4.63331H10.4453V3.67616Z" fill="black"/>
</svg>
