<svg width="17" height="17" viewBox="0 0 17 17" fill="none" xmlns="http://www.w3.org/2000/svg">
<path d="M5.16403 14H15C14.7015 13.801 14.4426 13.4474 14.2193 13C13.3208 11.1994 13 7.87916 13 7C13 6.73602 12.9796 6.47681 12.9401 6.22388L12.0024 7.16159C12.0219 7.86971 12.1594 9.31637 12.4589 10.7422C12.62 11.5091 12.8355 12.3076 13.1219 13H6.16403L5.16403 14Z" fill="black"/>
<path d="M10.7451 4.09047C10.2128 3.58785 9.54259 3.22977 8.7972 3.07924L8 2.91825L7.20281 3.07925C5.37552 3.44829 4.00002 5.06463 4.00002 7C4.00002 7.62782 3.86566 9.19725 3.54116 10.7422C3.49121 10.9799 3.43604 11.2207 3.37515 11.4605L1.72232 13.1133C1.74205 13.0762 1.7615 13.0385 1.7807 13C2.67922 11.1994 3.00002 7.87916 3.00002 7C3.00002 4.57934 4.7202 2.56045 7.00484 2.09904C7.00164 2.06646 7 2.03342 7 2C7 1.44772 7.44771 1 8 1C8.55228 1 9 1.44772 9 2C9 2.03342 8.99836 2.06646 8.99516 2.09903C9.93722 2.28928 10.7833 2.74435 11.4524 3.38321L10.7451 4.09047Z" fill="black"/>
<path d="M10 15C10 16.1046 9.10457 17 8 17C6.89543 17 6 16.1046 6 15H10Z" fill="black"/>
<path d="M0.624812 15.625C0.417706 15.8321 0.417706 16.1679 0.624812 16.375C0.831919 16.5821 1.1677 16.5821 1.37481 16.375L16.1248 1.625C16.3319 1.4179 16.3319 1.08211 16.1248 0.875003C15.9177 0.667896 15.5819 0.667897 15.3748 0.875003L0.624812 15.625Z" fill="black"/>
</svg>
