<svg width="17" height="17" viewBox="0 0 17 17" fill="none" xmlns="http://www.w3.org/2000/svg">
<path d="M5.16403 14H15C13.5 13 13 8.0976 13 7C13 6.73602 12.9796 6.47681 12.9401 6.22388L5.16403 14Z" fill="black"/>
<path d="M11.4524 3.38321C10.7833 2.74435 9.93722 2.28928 8.99516 2.09903C8.99836 2.06646 9 2.03342 9 2C9 1.44772 8.55228 1 8 1C7.44771 1 7 1.44772 7 2C7 2.03342 7.00164 2.06646 7.00484 2.09904C4.7202 2.56045 3.00002 4.57934 3.00002 7C3.00002 7.89794 2.66537 11.3423 1.72232 13.1133L11.4524 3.38321Z" fill="black"/>
<path d="M10 15C10 16.1046 9.10457 17 8 17C6.89543 17 6 16.1046 6 15H10Z" fill="black"/>
<path d="M0.624812 15.625C0.417706 15.8321 0.417706 16.1679 0.624812 16.375C0.831919 16.5821 1.1677 16.5821 1.37481 16.375L16.1248 1.625C16.3319 1.4179 16.3319 1.08211 16.1248 0.875003C15.9177 0.667896 15.5819 0.667897 15.3748 0.875003L0.624812 15.625Z" fill="black"/>
</svg>
