<svg width="16" height="16" viewBox="0 0 16 16" fill="none" xmlns="http://www.w3.org/2000/svg">
<path fill-rule="evenodd" clip-rule="evenodd" d="M0 10.5C0 9.67157 0.671573 9 1.5 9H2.5C3.32843 9 4 9.67157 4 10.5V11.5C4 12.3284 3.32843 13 2.5 13H1.5C0.671573 13 0 12.3284 0 11.5V10.5ZM1.5 10C1.22386 10 1 10.2239 1 10.5V11.5C1 11.7761 1.22386 12 1.5 12H2.5C2.77614 12 3 11.7761 3 11.5V10.5C3 10.2239 2.77614 10 2.5 10H1.5Z" fill="black"/>
<path fill-rule="evenodd" clip-rule="evenodd" d="M12 10.5C12 9.67157 12.6716 9 13.5 9H14.5C15.3284 9 16 9.67157 16 10.5V11.5C16 12.3284 15.3284 13 14.5 13H13.5C12.6716 13 12 12.3284 12 11.5V10.5ZM13.5 10C13.2239 10 13 10.2239 13 10.5V11.5C13 11.7761 13.2239 12 13.5 12H14.5C14.7761 12 15 11.7761 15 11.5V10.5C15 10.2239 14.7761 10 14.5 10H13.5Z" fill="black"/>
<path fill-rule="evenodd" clip-rule="evenodd" d="M6 4.5C6 3.67157 6.67157 3 7.5 3H8.5C9.32843 3 10 3.67157 10 4.5V5.5C10 6.32843 9.32843 7 8.5 7H7.5C6.67157 7 6 6.32843 6 5.5V4.5ZM7.5 4C7.22386 4 7 4.22386 7 4.5V5.5C7 5.77614 7.22386 6 7.5 6H8.5C8.77614 6 9 5.77614 9 5.5V4.5C9 4.22386 8.77614 4 8.5 4H7.5Z" fill="black"/>
<path d="M6 4.5H1.86622C1.69331 4.2011 1.37014 4 1 4C0.447715 4 0 4.44772 0 5C0 5.55228 0.447715 6 1 6C1.37014 6 1.69331 5.7989 1.86622 5.5H4.53431C3.26043 6.30439 2.28543 7.53912 1.8135 9H2.5C2.6235 9 2.74351 9.01493 2.85833 9.04307C3.41562 7.57969 4.57969 6.41561 6.04307 5.85833C6.01492 5.74351 6 5.6235 6 5.5V4.5Z" fill="black"/>
<path d="M9.95693 5.85833C9.98507 5.74351 10 5.6235 10 5.5V4.5H14.1338C14.3067 4.2011 14.6299 4 15 4C15.5523 4 16 4.44772 16 5C16 5.55228 15.5523 6 15 6C14.6299 6 14.3067 5.7989 14.1338 5.5H11.4657C12.7396 6.30439 13.7146 7.53912 14.1865 9H13.5C13.3765 9 13.2565 9.01493 13.1417 9.04307C12.5844 7.57968 11.4203 6.41562 9.95693 5.85833Z" fill="black"/>
</svg>
