<svg width="16" height="16" viewBox="0 0 16 16" fill="none" xmlns="http://www.w3.org/2000/svg">
<path fill-rule="evenodd" clip-rule="evenodd" d="M1 2.5C1 1.67157 1.67157 1 2.5 1H3.5C4.32843 1 5 1.67157 5 2.5H9.13378C9.30669 2.2011 9.62986 2 10 2C10.5523 2 11 2.44772 11 3C11 3.55228 10.5523 4 10 4C9.62986 4 9.30669 3.7989 9.13378 3.5H7.12408C7.30321 3.67941 7.46458 3.88138 7.60809 4.10462C8.24589 5.09675 8.5 6.45944 8.5 8C8.5 9.99307 8.75684 11.0925 9.2125 11.7C9.56918 12.1756 10.1081 12.4213 11.0001 12.4838C11.0088 11.6628 11.677 11 12.5 11H13.5C14.3284 11 15 11.6716 15 12.5V13.5C15 14.3284 14.3284 15 13.5 15H12.5C11.6716 15 11 14.3284 11 13.5H6.86622C6.69331 13.7989 6.37014 14 6 14C5.44772 14 5 13.5523 5 13C5 12.4477 5.44772 12 6 12C6.37014 12 6.69331 12.2011 6.86622 12.5H8.57717C8.52023 12.437 8.46532 12.3704 8.4125 12.3C7.74316 11.4075 7.5 10.0069 7.5 8C7.5 6.54056 7.25411 5.40325 6.76691 4.64538C6.37757 4.03974 5.81482 3.64446 4.99965 3.53258C4.98232 4.34596 4.31754 5 3.5 5H2.5C1.67157 5 1 4.32843 1 3.5V2.5ZM2.5 2C2.22386 2 2 2.22386 2 2.5V3.5C2 3.77614 2.22386 4 2.5 4H3.5C3.77614 4 4 3.77614 4 3.5V2.5C4 2.22386 3.77614 2 3.5 2H2.5ZM12.5 12C12.2239 12 12 12.2239 12 12.5V13.5C12 13.7761 12.2239 14 12.5 14H13.5C13.7761 14 14 13.7761 14 13.5V12.5C14 12.2239 13.7761 12 13.5 12H12.5Z" fill="black"/>
</svg>
