<svg width="16" height="16" viewBox="0 0 16 16" fill="none" xmlns="http://www.w3.org/2000/svg">
<path d="M4 4.5C4 4.22386 4.22386 4 4.5 4H6C6.27614 4 6.5 4.22386 6.5 4.5C6.5 4.77614 6.27614 5 6 5V5.5H10.1396L10.5257 4.34189C10.5937 4.13772 10.7848 4 11 4H12C12.2761 4 12.5 4.22386 12.5 4.5C12.5 4.77614 12.2761 5 12 5H11.3604L11.0488 5.9347L11.8558 7.22591C12.2084 7.08032 12.5948 7 13 7C14.6569 7 16 8.34315 16 10C16 11.6569 14.6569 13 13 13C11.3431 13 10 11.6569 10 10C10 9.10754 10.3897 8.3061 11.0082 7.75656L10.5 6.9434L8.424 10.265C8.33263 10.4112 8.1724 10.5 8 10.5H5.95852C5.72048 11.9189 4.4865 13 3 13C1.34315 13 0 11.6569 0 10C0 8.34315 1.34315 7 3 7C3.40517 7 3.79158 7.08032 4.14418 7.22591L5 5.8566V5H4.5C4.22386 5 4 4.77614 4 4.5ZM5.5 6.9434L4.99177 7.75656C5.49223 8.2012 5.84289 8.81075 5.95852 9.5H7.09788L5.5 6.9434ZM8 9.0566L9.59788 6.5H6.40212L8 9.0566ZM4.93699 9.5C4.85098 9.16583 4.68078 8.86546 4.45034 8.62285L3.90212 9.5H4.93699ZM3.60263 8.09239C3.41246 8.03237 3.21001 8 3 8C1.89543 8 1 8.89543 1 10C1 11.1046 1.89543 12 3 12C3.93192 12 4.71497 11.3626 4.93699 10.5H3C2.81824 10.5 2.65079 10.4014 2.56268 10.2424C2.47457 10.0834 2.47967 9.88913 2.576 9.735L3.60263 8.09239ZM11.5497 8.62285C11.209 8.98148 11 9.46633 11 10C11 11.1046 11.8954 12 13 12C14.1046 12 15 11.1046 15 10C15 8.89543 14.1046 8 13 8C12.79 8 12.5875 8.03237 12.3974 8.09239L13.424 9.735C13.5704 9.96917 13.4992 10.2776 13.265 10.424C13.0308 10.5704 12.7224 10.4992 12.576 10.265L11.5497 8.62285Z" fill="black"/>
</svg>
