<svg width="16" height="16" viewBox="0 0 16 16" fill="none" xmlns="http://www.w3.org/2000/svg">
<path d="M8.35069 5.04569C8.05578 5.07995 7.83088 5.31945 7.80997 5.62148C7.80096 5.75163 7.80378 5.76045 8.09877 6.51953C8.76989 8.24656 8.93249 8.66222 8.95983 8.72072C9.02608 8.86239 9.11924 8.99567 9.23563 9.1153C9.32494 9.20709 9.38385 9.25645 9.48347 9.323C9.65857 9.43994 9.74546 9.47227 10.4268 9.674C11.0905 9.87052 11.4531 10.0011 11.7655 10.1562C12.1703 10.3571 12.4527 10.5856 12.6314 10.8568C12.7595 11.0514 12.8731 11.4003 12.9224 11.7515C12.9418 11.8887 12.9419 12.1922 12.9227 12.3163C12.881 12.5857 12.7978 12.8114 12.6704 13.0003C12.6027 13.1007 12.6263 13.0839 12.7247 12.9615C13.0034 12.6151 13.2872 12.023 13.432 11.4861C13.6073 10.8363 13.6311 10.1385 13.5006 9.47811C13.2465 8.19203 12.4346 7.08214 11.2911 6.45764C11.2193 6.41839 10.9456 6.27495 10.5746 6.08206C10.5183 6.05278 10.4416 6.0127 10.404 5.993C10.3665 5.97328 10.2897 5.9332 10.2334 5.90394C10.1771 5.87467 10.0151 5.79023 9.8733 5.71631C9.73152 5.64237 9.57288 5.55966 9.52075 5.53248C9.36186 5.44964 9.25525 5.39398 9.17577 5.35238C8.80814 5.15992 8.65253 5.08213 8.60818 5.06862C8.56164 5.05447 8.44344 5.0363 8.41378 5.03873C8.40753 5.03925 8.37914 5.04238 8.35069 5.04569Z" fill="black"/>
<path d="M9.15214 11.4929C9.13177 11.5049 9.10318 11.5224 9.08858 11.5317C9.07397 11.541 9.04157 11.5611 9.01655 11.5765C8.92472 11.6328 8.6805 11.7833 8.47064 11.9128C8.33272 11.998 8.31225 12.0107 8.13705 12.1194C8.07449 12.1582 8.00796 12.1991 7.98919 12.2103C7.97043 12.2215 7.89025 12.2709 7.81102 12.32C7.73178 12.3692 7.59361 12.4545 7.50396 12.5096C7.4143 12.5647 7.25394 12.6636 7.14761 12.7294C7.04127 12.7952 6.90138 12.8815 6.83675 12.9211C6.77211 12.9607 6.71241 12.999 6.70407 13.0062C6.69168 13.0168 6.1168 13.3729 5.82835 13.5486C5.60927 13.6821 5.35583 13.7713 5.09639 13.8064C4.97561 13.8227 4.74705 13.8228 4.62661 13.8065C4.30004 13.7624 3.99918 13.6406 3.74153 13.4482C3.64046 13.3728 3.45019 13.1826 3.37745 13.0844C3.20603 12.853 3.09513 12.6048 3.0377 12.3239C3.02448 12.2592 3.01198 12.2047 3.00993 12.2026C3.00456 12.1972 3.01426 12.2948 3.03175 12.4225C3.04994 12.5552 3.0887 12.7473 3.13044 12.9115C3.45349 14.1825 4.37275 15.2163 5.61719 15.7081C5.97553 15.8497 6.33714 15.9389 6.7306 15.9827C6.87844 15.9992 7.29693 16.0058 7.45122 15.9941C8.15883 15.9405 8.77496 15.7322 9.40702 15.3327C9.46332 15.2972 9.56908 15.2305 9.64205 15.1845C9.71503 15.1386 9.80714 15.0802 9.84677 15.0548C9.88638 15.0293 9.93414 14.9993 9.95291 14.988C9.97167 14.9767 10.0092 14.9531 10.0363 14.9356C10.0634 14.918 10.1794 14.8447 10.2941 14.7725L11.4579 14.0374C11.9684 13.7166 12.1206 13.604 12.3578 13.3717C12.4566 13.2749 12.6057 13.1096 12.6131 13.0886C12.6146 13.0843 12.6411 13.0435 12.672 12.9978C12.7975 12.8121 12.8812 12.5846 12.9227 12.3163C12.9419 12.1922 12.9418 11.8887 12.9224 11.7515C12.8851 11.486 12.8003 11.185 12.7089 10.9933C12.5589 10.6789 12.2395 10.3933 11.7806 10.1633C11.6539 10.0997 11.523 10.0416 11.5084 10.0424C11.5015 10.0428 11.0745 10.3038 10.5595 10.6225C10.0445 10.9411 9.5975 11.2177 9.56624 11.2372C9.53496 11.2566 9.48122 11.2894 9.44682 11.3101L9.15214 11.4929Z" fill="black"/>
<path d="M3.00442 12.1836L3.03314 12.3125C3.12297 12.7155 3.27862 13.006 3.54919 13.2759C3.67646 13.4028 3.77378 13.4794 3.9117 13.561C4.20353 13.7337 4.51762 13.8189 4.86166 13.8187C5.22199 13.8185 5.53369 13.7287 5.85489 13.5323C5.9091 13.4992 6.12149 13.3685 6.32686 13.2417L6.70027 13.0114L6.70016 5.33527C6.70008 3.79827 6.69727 2.88547 6.69241 2.81386C6.66178 2.36384 6.47358 1.95014 6.15711 1.63722C6.05999 1.54118 5.977 1.47704 5.72978 1.30692C5.60677 1.22226 5.38158 1.06717 5.22938 0.962281C5.07718 0.857386 4.82641 0.684586 4.67211 0.578272C4.51782 0.471966 4.29775 0.320291 4.18308 0.241227C3.94418 0.0765089 3.92548 0.0650523 3.85326 0.0392131C3.75933 0.00561012 3.65979 -0.00673304 3.56515 0.00348739C3.28932 0.0332767 3.06851 0.232431 3.01112 0.503189C3.00219 0.545314 3.00054 1.10593 3.00043 4.14869L3.00442 12.1836Z" fill="black"/>
</svg>
