<svg width="16" height="16" viewBox="0 0 16 16" fill="none" xmlns="http://www.w3.org/2000/svg">
<path d="M3 2.5C3 1.67157 3.67157 1 4.5 1H5.5C6.32843 1 7 1.67157 7 2.5V5H9V2.5C9 1.67157 9.67157 1 10.5 1H11.5C12.3284 1 13 1.67157 13 2.5V4.88197C13 5.07135 13.107 5.24448 13.2764 5.32918L14.1708 5.77639C14.679 6.03048 15 6.54988 15 7.11803V14.5C15 15.3284 14.3284 16 13.5 16H10.5C9.67157 16 9 15.3284 9 14.5V11.5C9 11.3674 9.05268 11.2402 9.14645 11.1464L10 10.2929V9.5C10 9.22386 9.77614 9 9.5 9H6.5C6.22386 9 6 9.22386 6 9.5V10.2929L6.85355 11.1464C6.94732 11.2402 7 11.3674 7 11.5V14.5C7 15.3284 6.32843 16 5.5 16H2.5C1.67157 16 1 15.3284 1 14.5V7.11803C1 6.54988 1.321 6.03048 1.82918 5.77639L2.72361 5.32918C2.893 5.24448 3 5.07135 3 4.88197V2.5ZM4.5 2C4.22386 2 4 2.22386 4 2.5V3H6V2.5C6 2.22386 5.77614 2 5.5 2H4.5ZM6 4H4V4.88197C4 5.45012 3.679 5.96952 3.17082 6.22361L2.27639 6.67082C2.107 6.75552 2 6.92865 2 7.11803V13H6V11.7071L5.14645 10.8536C5.05268 10.7598 5 10.6326 5 10.5V9.5C5 8.67157 5.67157 8 6.5 8H9.5C10.3284 8 11 8.67157 11 9.5V10.5C11 10.6326 10.9473 10.7598 10.8536 10.8536L10 11.7071V13H14V7.11803C14 6.92865 13.893 6.75552 13.7236 6.67082L12.8292 6.22361C12.321 5.96952 12 5.45012 12 4.88197V4H10V5.5C10 5.77614 9.77614 6 9.5 6H6.5C6.22386 6 6 5.77614 6 5.5V4ZM10 3H12V2.5C12 2.22386 11.7761 2 11.5 2H10.5C10.2239 2 10 2.22386 10 2.5V3ZM14 14H10V14.5C10 14.7761 10.2239 15 10.5 15H13.5C13.7761 15 14 14.7761 14 14.5V14ZM6 14H2V14.5C2 14.7761 2.22386 15 2.5 15H5.5C5.77614 15 6 14.7761 6 14.5V14Z" fill="black"/>
</svg>
