<svg width="16" height="16" viewBox="0 0 16 16" fill="none" xmlns="http://www.w3.org/2000/svg">
<path d="M4.5 1C3.67157 1 3 1.67157 3 2.5V3H7V2.5C7 1.67157 6.32843 1 5.5 1H4.5Z" fill="black"/>
<path d="M7 4V5H9V4H13V4.88197C13 5.07135 13.107 5.24448 13.2764 5.32918L14.1708 5.77639C14.679 6.03048 15 6.54988 15 7.11803V13H9V11.5C9 11.3674 9.05268 11.2402 9.14645 11.1464L10 10.2929V9.5C10 9.22386 9.77614 9 9.5 9H6.5C6.22386 9 6 9.22386 6 9.5V10.2929L6.85355 11.1464C6.94732 11.2402 7 11.3674 7 11.5V13H1V7.11803C1 6.54988 1.321 6.03048 1.82918 5.77639L2.72361 5.32918C2.893 5.24448 3 5.07135 3 4.88197V4H7Z" fill="black"/>
<path d="M1 14V14.5C1 15.3284 1.67157 16 2.5 16H5.5C6.32843 16 7 15.3284 7 14.5V14H1Z" fill="black"/>
<path d="M9 14V14.5C9 15.3284 9.67157 16 10.5 16H13.5C14.3284 16 15 15.3284 15 14.5V14H9Z" fill="black"/>
<path d="M13 3H9V2.5C9 1.67157 9.67157 1 10.5 1H11.5C12.3284 1 13 1.67157 13 2.5V3Z" fill="black"/>
</svg>
