<svg width="16" height="16" viewBox="0 0 16 16" fill="none" xmlns="http://www.w3.org/2000/svg">
<path d="M2.5 3C2.22386 3 2 3.22386 2 3.5C2 3.77614 2.22386 4 2.5 4H13.5C13.7761 4 14 3.77614 14 3.5C14 3.22386 13.7761 3 13.5 3H2.5Z" fill="black"/>
<path d="M2.5 6C2.22386 6 2 6.22386 2 6.5C2 6.77614 2.22386 7 2.5 7H8.5C8.77614 7 9 6.77614 9 6.5C9 6.22386 8.77614 6 8.5 6H2.5Z" fill="black"/>
<path d="M2.5 9C2.22386 9 2 9.22386 2 9.5C2 9.77614 2.22386 10 2.5 10H8.5C8.77614 10 9 9.77614 9 9.5C9 9.22386 8.77614 9 8.5 9H2.5Z" fill="black"/>
<path d="M2.5 12C2.22386 12 2 12.2239 2 12.5C2 12.7761 2.22386 13 2.5 13H13.5C13.7761 13 14 12.7761 14 12.5C14 12.2239 13.7761 12 13.5 12H2.5Z" fill="black"/>
<path d="M12.6133 6.62695C12.5 6.54883 12.3516 6.45703 12.168 6.35156L12.3789 6C12.5 6.07422 12.6504 6.16992 12.8301 6.28711C13.0098 6.4043 13.1797 6.54688 13.3398 6.71484C13.4961 6.87891 13.6289 7.06641 13.7383 7.27734C13.8477 7.48438 13.9023 7.71484 13.9023 7.96875C13.9023 8.32812 13.8301 8.61914 13.6855 8.8418C13.541 9.06055 13.3008 9.16992 12.9648 9.16992C12.75 9.16992 12.582 9.09961 12.4609 8.95898C12.3359 8.81445 12.2734 8.66016 12.2734 8.49609C12.2734 8.26562 12.3438 8.0918 12.4844 7.97461C12.6211 7.85352 12.8105 7.79297 13.0527 7.79297H13.334C13.3105 7.58984 13.2695 7.42383 13.2109 7.29492C13.1523 7.16602 13.0684 7.04297 12.959 6.92578C12.8418 6.80078 12.7266 6.70117 12.6133 6.62695Z" fill="black"/>
<path d="M10.4453 6.62695C10.332 6.54883 10.1836 6.45703 10 6.35156L10.2109 6C10.332 6.07422 10.4824 6.16992 10.6621 6.28711C10.8418 6.4043 11.0117 6.54688 11.1719 6.71484C11.3281 6.87891 11.4609 7.06641 11.5703 7.27734C11.6797 7.48438 11.7344 7.71484 11.7344 7.96875C11.7344 8.32812 11.6621 8.61914 11.5176 8.8418C11.373 9.06055 11.1328 9.16992 10.7969 9.16992C10.582 9.16992 10.4141 9.09961 10.293 8.95898C10.168 8.81445 10.1055 8.66016 10.1055 8.49609C10.1055 8.26562 10.1758 8.0918 10.3164 7.97461C10.4531 7.85352 10.6426 7.79297 10.8848 7.79297H11.166C11.1426 7.58984 11.1035 7.42578 11.0488 7.30078C10.9902 7.17188 10.9043 7.04688 10.791 6.92578C10.6738 6.80078 10.5586 6.70117 10.4453 6.62695Z" fill="black"/>
</svg>
