<svg width="16" height="16" viewBox="0 0 16 16" fill="none" xmlns="http://www.w3.org/2000/svg">
<path d="M2.5 3C2.22386 3 2 3.22386 2 3.5C2 3.77614 2.22386 4 2.5 4H13.5C13.7761 4 14 3.77614 14 3.5C14 3.22386 13.7761 3 13.5 3H2.5Z" fill="black"/>
<path d="M7.5 6C7.22386 6 7 6.22386 7 6.5C7 6.77614 7.22386 7 7.5 7H13.5C13.7761 7 14 6.77614 14 6.5C14 6.22386 13.7761 6 13.5 6H7.5Z" fill="black"/>
<path d="M7.5 9C7.22386 9 7 9.22386 7 9.5C7 9.77614 7.22386 10 7.5 10H13.5C13.7761 10 14 9.77614 14 9.5C14 9.22386 13.7761 9 13.5 9H7.5Z" fill="black"/>
<path d="M2.5 12C2.22386 12 2 12.2239 2 12.5C2 12.7761 2.22386 13 2.5 13H13.5C13.7761 13 14 12.7761 14 12.5C14 12.2239 13.7761 12 13.5 12H2.5Z" fill="black"/>
<path d="M3.28906 6.62695C3.40234 6.54883 3.55078 6.45703 3.73438 6.35156L3.52344 6C3.40234 6.07422 3.25195 6.16992 3.07227 6.28711C2.89258 6.4043 2.72266 6.54688 2.5625 6.71484C2.40625 6.87891 2.27344 7.06641 2.16406 7.27734C2.05469 7.48438 2 7.71484 2 7.96875C2 8.32812 2.07227 8.61914 2.2168 8.8418C2.36133 9.06055 2.60156 9.16992 2.9375 9.16992C3.15234 9.16992 3.32031 9.09961 3.44141 8.95898C3.56641 8.81445 3.62891 8.66016 3.62891 8.49609C3.62891 8.26562 3.55859 8.0918 3.41797 7.97461C3.28125 7.85352 3.0918 7.79297 2.84961 7.79297H2.56836C2.5918 7.58984 2.63281 7.42383 2.69141 7.29492C2.75 7.16602 2.83398 7.04297 2.94336 6.92578C3.06055 6.80078 3.17578 6.70117 3.28906 6.62695Z" fill="black"/>
<path d="M5.45703 6.62695C5.57031 6.54883 5.71875 6.45703 5.90234 6.35156L5.69141 6C5.57031 6.07422 5.41992 6.16992 5.24023 6.28711C5.06055 6.4043 4.89062 6.54688 4.73047 6.71484C4.57422 6.87891 4.44141 7.06641 4.33203 7.27734C4.22266 7.48438 4.16797 7.71484 4.16797 7.96875C4.16797 8.32812 4.24023 8.61914 4.38477 8.8418C4.5293 9.06055 4.76953 9.16992 5.10547 9.16992C5.32031 9.16992 5.48828 9.09961 5.60938 8.95898C5.73438 8.81445 5.79688 8.66016 5.79688 8.49609C5.79688 8.26562 5.72656 8.0918 5.58594 7.97461C5.44922 7.85352 5.25977 7.79297 5.01758 7.79297H4.73633C4.75977 7.58984 4.79883 7.42578 4.85352 7.30078C4.91211 7.17188 4.99805 7.04688 5.11133 6.92578C5.22852 6.80078 5.34375 6.70117 5.45703 6.62695Z" fill="black"/>
</svg>
