<svg width="16" height="16" viewBox="0 0 16 16" fill="none" xmlns="http://www.w3.org/2000/svg">
<path d="M8.54289 3.9483L9.85899 5.26439L8.54289 6.58049V3.9483ZM8.54289 12.0517L9.85899 10.7356L8.54289 9.41951V12.0517ZM7.13278 8.0094L4.27497 5.13278L5.10223 4.30552L7.3772 6.58049V1.12808L11.5135 5.26439L8.78731 8.0094L11.5323 10.7544L7.396 14.8907V9.41951L5.10223 11.6945L4.27497 10.8672L7.13278 8.0094ZM7.90364 16C11.4007 16 13.8073 14.3455 13.8073 7.9906C13.8073 1.65452 11.4007 0 7.90364 0C4.40658 0 2 1.65452 2 8.0094C2 14.3455 4.40658 16 7.90364 16Z" fill="black"/>
</svg>
