<svg width="16" height="16" viewBox="0 0 16 16" fill="none" xmlns="http://www.w3.org/2000/svg">
<path fill-rule="evenodd" clip-rule="evenodd" d="M0 0.5C0 0.223858 0.223858 0 0.5 0H4.5C4.77614 0 5 0.223858 5 0.5C5 0.776142 4.77614 1 4.5 1H0.5C0.223858 1 0 0.776142 0 0.5ZM0 2.5C0 2.22386 0.223858 2 0.5 2H7.5C7.77614 2 8 2.22386 8 2.5C8 2.77614 7.77614 3 7.5 3H0.5C0.223858 3 0 2.77614 0 2.5ZM9 2.5C9 2.22386 9.22386 2 9.5 2H14.5C14.7761 2 15 2.22386 15 2.5C15 2.77614 14.7761 3 14.5 3H9.5C9.22386 3 9 2.77614 9 2.5ZM0 4.5C0 4.22386 0.223858 4 0.5 4H3.5C3.77614 4 4 4.22386 4 4.5C4 4.77614 3.77614 5 3.5 5H0.5C0.223858 5 0 4.77614 0 4.5ZM5 4.5C5 4.22386 5.22386 4 5.5 4H10.5C10.7761 4 11 4.22386 11 4.5C11 4.77614 10.7761 5 10.5 5H5.5C5.22386 5 5 4.77614 5 4.5ZM12 4.5C12 4.22386 12.2239 4 12.5 4H15.5C15.7761 4 16 4.22386 16 4.5C16 4.77614 15.7761 5 15.5 5H12.5C12.2239 5 12 4.77614 12 4.5ZM0 6.5C0 6.22386 0.223858 6 0.5 6H6.5C6.77614 6 7 6.22386 7 6.5C7 6.77614 6.77614 7 6.5 7H0.5C0.223858 7 0 6.77614 0 6.5ZM8 6.5C8 6.22386 8.22386 6 8.5 6H13.5C13.7761 6 14 6.22386 14 6.5C14 6.77614 13.7761 7 13.5 7H8.5C8.22386 7 8 6.77614 8 6.5ZM0 8.5C0 8.22386 0.223858 8 0.5 8H5.5C5.77614 8 6 8.22386 6 8.5C6 8.77614 5.77614 9 5.5 9H0.5C0.223858 9 0 8.77614 0 8.5ZM7 8.5C7 8.22386 7.22386 8 7.5 8H14.5C14.7761 8 15 8.22386 15 8.5C15 8.77614 14.7761 9 14.5 9H7.5C7.22386 9 7 8.77614 7 8.5ZM0 10.5C0 10.2239 0.223858 10 0.5 10H8.5C8.77614 10 9 10.2239 9 10.5C9 10.7761 8.77614 11 8.5 11H0.5C0.223858 11 0 10.7761 0 10.5ZM0 12.5C0 12.2239 0.223858 12 0.5 12H4.5C4.77614 12 5 12.2239 5 12.5C5 12.7761 4.77614 13 4.5 13H0.5C0.223858 13 0 12.7761 0 12.5ZM0 14.5C0 14.2239 0.223858 14 0.5 14H2.5C2.77614 14 3 14.2239 3 14.5C3 14.7761 2.77614 15 2.5 15H0.5C0.223858 15 0 14.7761 0 14.5Z" fill="black"/>
</svg>
