<svg width="16" height="16" viewBox="0 0 16 16" fill="none" xmlns="http://www.w3.org/2000/svg">
<path fill-rule="evenodd" clip-rule="evenodd" d="M2 15.5V2C2 0.895431 2.89543 0 4 0H12C13.1046 0 14 0.895431 14 2V15.5C14 15.6765 13.907 15.8399 13.7552 15.9299C13.6035 16.02 13.4155 16.0234 13.2606 15.9389L8 13.0695L2.73943 15.9389C2.58451 16.0234 2.39651 16.02 2.24477 15.9299C2.09302 15.8399 2 15.6765 2 15.5ZM6.85355 5.14645C6.65829 4.95118 6.34171 4.95118 6.14645 5.14645C5.95118 5.34171 5.95118 5.65829 6.14645 5.85355L7.29289 7L6.14645 8.14645C5.95118 8.34171 5.95118 8.65829 6.14645 8.85355C6.34171 9.04882 6.65829 9.04882 6.85355 8.85355L8 7.70711L9.14645 8.85355C9.34171 9.04882 9.65829 9.04882 9.85355 8.85355C10.0488 8.65829 10.0488 8.34171 9.85355 8.14645L8.70711 7L9.85355 5.85355C10.0488 5.65829 10.0488 5.34171 9.85355 5.14645C9.65829 4.95118 9.34171 4.95118 9.14645 5.14645L8 6.29289L6.85355 5.14645Z" fill="black"/>
</svg>
