<svg width="16" height="16" viewBox="0 0 16 16" fill="none" xmlns="http://www.w3.org/2000/svg">
<path d="M7.84065 4.09905C7.90584 3.96698 8.09416 3.96698 8.15935 4.09905L8.79423 5.38547C8.82011 5.43791 8.87014 5.47426 8.92802 5.48267L10.3477 5.68896C10.4934 5.71014 10.5516 5.88925 10.4461 5.99205L9.41888 6.99339C9.377 7.03421 9.35789 7.09303 9.36778 7.15067L9.61028 8.56457C9.63518 8.70973 9.48282 8.82043 9.35245 8.7519L8.08269 8.08434C8.03092 8.05712 7.96908 8.05712 7.91731 8.08434L6.64755 8.7519C6.51718 8.82043 6.36482 8.70973 6.38972 8.56457L6.63222 7.15067C6.64211 7.09303 6.623 7.03421 6.58112 6.99339L5.55386 5.99205C5.44839 5.88925 5.50659 5.71014 5.65234 5.68896L7.07198 5.48267C7.12986 5.47426 7.17989 5.43791 7.20577 5.38547L7.84065 4.09905Z" fill="black"/>
<path d="M2 2C2 0.895431 2.89543 0 4 0H12C13.1046 0 14 0.89543 14 2V15.5C14 15.6844 13.8985 15.8538 13.7359 15.9408C13.5733 16.0278 13.3761 16.0183 13.2226 15.916L8 13.1009L2.77735 15.916C2.62392 16.0183 2.42665 16.0278 2.26407 15.9408C2.10149 15.8538 2 15.6844 2 15.5V2ZM4 1C3.44772 1 3 1.44772 3 2V14.5657L7.72265 12.084C7.8906 11.972 8.1094 11.972 8.27735 12.084L13 14.5657V2C13 1.44772 12.5523 1 12 1H4Z" fill="black"/>
</svg>
