<svg width="16" height="16" viewBox="0 0 16 16" fill="none" xmlns="http://www.w3.org/2000/svg">
<path fill-rule="evenodd" clip-rule="evenodd" d="M2 15.5V2C2 0.895431 2.89543 0 4 0H12C13.1046 0 14 0.895431 14 2V15.5C14 15.6765 13.907 15.8399 13.7552 15.9299C13.6035 16.02 13.4155 16.0234 13.2606 15.9389L8 13.0695L2.73943 15.9389C2.58451 16.0234 2.39651 16.02 2.24477 15.9299C2.09302 15.8399 2 15.6765 2 15.5ZM8.15935 4.09905C8.09416 3.96698 7.90584 3.96698 7.84065 4.09905L7.20577 5.38547C7.17989 5.43791 7.12986 5.47426 7.07198 5.48267L5.65234 5.68896C5.50659 5.71014 5.44839 5.88925 5.55386 5.99205L6.58112 6.99339C6.623 7.03421 6.64211 7.09303 6.63222 7.15067L6.38972 8.56457C6.36482 8.70973 6.51718 8.82043 6.64755 8.7519L7.91731 8.08434C7.96908 8.05713 8.03092 8.05713 8.08269 8.08434L9.35245 8.75189C9.48282 8.82043 9.63518 8.70973 9.61028 8.56457L9.36778 7.15067C9.35789 7.09303 9.377 7.03421 9.41888 6.99339L10.4461 5.99205C10.5516 5.88925 10.4934 5.71014 10.3477 5.68896L8.92802 5.48267C8.87014 5.47426 8.82011 5.43791 8.79423 5.38547L8.15935 4.09905Z" fill="black"/>
</svg>
