<svg width="16" height="16" viewBox="0 0 16 16" fill="none" xmlns="http://www.w3.org/2000/svg">
<path fill-rule="evenodd" clip-rule="evenodd" d="M2 15.5V2C2 0.895431 2.89543 0 4 0H12C13.1046 0 14 0.895431 14 2V15.5C14 15.6765 13.907 15.8399 13.7552 15.9299C13.6035 16.02 13.4155 16.0234 13.2606 15.9389L8 13.0695L2.73943 15.9389C2.58451 16.0234 2.39651 16.02 2.24477 15.9299C2.09302 15.8399 2 15.6765 2 15.5ZM8.5 4.5C8.5 4.22386 8.27614 4 8 4C7.72386 4 7.5 4.22386 7.5 4.5V6H6C5.72386 6 5.5 6.22386 5.5 6.5C5.5 6.77614 5.72386 7 6 7H7.5V8.5C7.5 8.77614 7.72386 9 8 9C8.27614 9 8.5 8.77614 8.5 8.5V7H10C10.2761 7 10.5 6.77614 10.5 6.5C10.5 6.22386 10.2761 6 10 6H8.5V4.5Z" fill="black"/>
</svg>
