<svg width="16" height="16" viewBox="0 0 16 16" fill="none" xmlns="http://www.w3.org/2000/svg">
<path fill-rule="evenodd" clip-rule="evenodd" d="M2 15.5V2C2 0.895431 2.89543 0 4 0H12C13.1046 0 14 0.895431 14 2V15.5C14 15.6765 13.907 15.8399 13.7552 15.9299C13.6035 16.02 13.4155 16.0234 13.2606 15.9389L8 13.0695L2.73943 15.9389C2.58451 16.0234 2.39651 16.02 2.24477 15.9299C2.09302 15.8399 2 15.6765 2 15.5ZM10.8536 5.85355C11.0488 5.65829 11.0488 5.34171 10.8536 5.14645C10.6583 4.95118 10.3417 4.95118 10.1464 5.14645L7.5 7.79289L6.35355 6.64645C6.15829 6.45118 5.84171 6.45118 5.64645 6.64645C5.45118 6.84171 5.45118 7.15829 5.64645 7.35355L7.14645 8.85355C7.24021 8.94732 7.36739 9 7.5 9C7.63261 9 7.75979 8.94732 7.85355 8.85355L10.8536 5.85355Z" fill="black"/>
</svg>
