<svg width="16" height="16" viewBox="0 0 16 16" fill="none" xmlns="http://www.w3.org/2000/svg">
<path d="M14 0C14.2761 0 14.5 0.223858 14.5 0.5V2H15C15.5523 2 16 2.44772 16 3V5H0V3C0 2.44772 0.447715 2 1 2H13.5V0.5C13.5 0.223858 13.7239 0 14 0ZM2 3.5C2 3.77614 2.22386 4 2.5 4C2.77614 4 3 3.77614 3 3.5C3 3.22386 2.77614 3 2.5 3C2.22386 3 2 3.22386 2 3.5ZM4 3.5C4 3.77614 4.22386 4 4.5 4C4.77614 4 5 3.77614 5 3.5C5 3.22386 4.77614 3 4.5 3C4.22386 3 4 3.22386 4 3.5ZM11.5 4C11.7761 4 12 3.77614 12 3.5C12 3.22386 11.7761 3 11.5 3C11.2239 3 11 3.22386 11 3.5C11 3.77614 11.2239 4 11.5 4ZM13 3.5C13 3.77614 13.2239 4 13.5 4C13.7761 4 14 3.77614 14 3.5C14 3.22386 13.7761 3 13.5 3C13.2239 3 13 3.22386 13 3.5ZM9.5 3H6.5C6.22386 3 6 3.22386 6 3.5C6 3.77614 6.22386 4 6.5 4H9.5C9.77614 4 10 3.77614 10 3.5C10 3.22386 9.77614 3 9.5 3Z" fill="black"/>
<path d="M6 10.5C6 11.3284 5.32843 12 4.5 12C3.67157 12 3 11.3284 3 10.5C3 9.67157 3.67157 9 4.5 9C5.32843 9 6 9.67157 6 10.5ZM4.5 11C4.77614 11 5 10.7761 5 10.5C5 10.2239 4.77614 10 4.5 10C4.22386 10 4 10.2239 4 10.5C4 10.7761 4.22386 11 4.5 11Z" fill="black"/>
<path d="M11.5 12C12.3284 12 13 11.3284 13 10.5C13 9.67157 12.3284 9 11.5 9C10.6716 9 10 9.67157 10 10.5C10 11.3284 10.6716 12 11.5 12ZM12 10.5C12 10.7761 11.7761 11 11.5 11C11.2239 11 11 10.7761 11 10.5C11 10.2239 11.2239 10 11.5 10C11.7761 10 12 10.2239 12 10.5Z" fill="black"/>
<path d="M0 6H16V14C16 14.5523 15.5523 15 15 15H1C0.447716 15 0 14.5523 0 14V6ZM2 10.5C2 11.8807 3.11929 13 4.5 13C5.88071 13 7 11.8807 7 10.5C7 9.11929 5.88071 8 4.5 8C3.11929 8 2 9.11929 2 10.5ZM9 10.5C9 11.8807 10.1193 13 11.5 13C12.8807 13 14 11.8807 14 10.5C14 9.11929 12.8807 8 11.5 8C10.1193 8 9 9.11929 9 10.5Z" fill="black"/>
</svg>
