<svg width="16" height="16" viewBox="0 0 16 16" fill="none" xmlns="http://www.w3.org/2000/svg">
<path d="M1.16095 8C1.16095 11.7779 4.22358 14.8406 8.00153 14.8406C11.7795 14.8406 14.8421 11.7779 14.8421 8C14.8421 4.22244 11.7801 1.15998 8.00257 1.15942C7.6824 1.15937 7.42289 0.899789 7.42294 0.579624C7.42299 0.259459 7.68257 -4.75176e-05 8.00274 6.52637e-09C12.4205 0.000655764 16.0015 3.58217 16.0015 8C16.0015 12.4183 12.4198 16 8.00153 16C3.58325 16 0.00152588 12.4183 0.00152588 8C0.00152588 6.32812 0.517251 4.73714 1.44698 3.41168L0.783662 2.83507C0.434223 2.5313 0.564339 1.96067 1.01092 1.83842L3.53092 1.14855C3.9299 1.03933 4.31162 1.37115 4.25898 1.78145L3.92655 4.37294C3.86764 4.83218 3.32067 5.04045 2.97123 4.73669L2.32756 4.17716C1.57604 5.28995 1.16095 6.61166 1.16095 8Z" fill="black"/>
<path d="M6.64129 11.6711V8.8433H8.21058L9.70854 11.6711H11.0231L9.37736 8.66498C10.2741 8.36436 10.804 7.55934 10.804 6.56579C10.804 5.19521 9.8614 4.31885 8.34815 4.31885H5.49998V11.6711H6.64129ZM6.64129 7.92109V5.27673H8.21058C9.09204 5.27673 9.62702 5.77605 9.62702 6.59636C9.62702 7.43705 9.12261 7.92109 8.24115 7.92109H6.64129Z" fill="black"/>
</svg>
