<svg width="16" height="16" viewBox="0 0 16 16" fill="none" xmlns="http://www.w3.org/2000/svg">
<path d="M0 3.5C0 3.22386 0.223858 3 0.5 3H15.5C15.7761 3 16 3.22386 16 3.5V5.5C16 5.77614 15.7761 6 15.5 6H0.5C0.223858 6 0 5.77614 0 5.5V3.5Z" fill="black"/>
<path d="M0 8.5C0 8.22386 0.223858 8 0.5 8H15.5C15.7761 8 16 8.22386 16 8.5V9.5C16 9.77614 15.7761 10 15.5 10H0.5C0.223858 10 0 9.77614 0 9.5V8.5Z" fill="black"/>
<path d="M0 12.5C0 12.2239 0.223858 12 0.5 12H15.5C15.7761 12 16 12.2239 16 12.5C16 12.7761 15.7761 13 15.5 13H0.5C0.223858 13 0 12.7761 0 12.5Z" fill="black"/>
</svg>
