<svg width="16" height="16" viewBox="0 0 16 16" fill="none" xmlns="http://www.w3.org/2000/svg">
<path d="M0.96875 0H0V0.96875H0.5V1H0.96875V0.96875H1V0.5H0.96875V0Z" fill="black"/>
<path d="M1.90625 1H2.84375V0H1.90625V1Z" fill="black"/>
<path d="M3.78125 1H4.71875V0H3.78125V1Z" fill="black"/>
<path d="M5.65625 1H6.59375V0H5.65625V1Z" fill="black"/>
<path d="M7.53125 0.96875V1H8.46875V0.96875H8.5V0.5H8.46875V0H7.53125V0.5H7.5V0.96875H7.53125Z" fill="black"/>
<path d="M9.40625 1H10.3438V0H9.40625V1Z" fill="black"/>
<path d="M11.2812 1H12.2188V0H11.2812V1Z" fill="black"/>
<path d="M13.1562 1H14.0938V0H13.1562V1Z" fill="black"/>
<path d="M15.0312 1H15.5V0.96875H16V0H15.0312V0.5H15V0.96875H15.0312V1Z" fill="black"/>
<path d="M1 2.84375V1.90625H0V2.84375H1Z" fill="black"/>
<path d="M7.5 1.90625V2.84375H8.5V1.90625H7.5Z" fill="black"/>
<path d="M15 1.90625V2.84375H16V1.90625H15Z" fill="black"/>
<path d="M1 4.71875V3.78125H0V4.71875H1Z" fill="black"/>
<path d="M7.5 3.78125V4.71875H8.5V3.78125H7.5Z" fill="black"/>
<path d="M15 3.78125V4.71875H16V3.78125H15Z" fill="black"/>
<path d="M1 6.59375V5.65625H0V6.59375H1Z" fill="black"/>
<path d="M7.5 5.65625V6.59375H8.5V5.65625H7.5Z" fill="black"/>
<path d="M15 5.65625V6.59375H16V5.65625H15Z" fill="black"/>
<path d="M0.5 8.5H0.96875V8.46875H1V7.53125H0.96875V7.5H0.5V7.53125H0V8.46875H0.5V8.5Z" fill="black"/>
<path d="M1.90625 8.5H2.84375V7.5H1.90625V8.5Z" fill="black"/>
<path d="M3.78125 8.5H4.71875V7.5H3.78125V8.5Z" fill="black"/>
<path d="M5.65625 8.5H6.59375V7.5H5.65625V8.5Z" fill="black"/>
<path d="M8.46875 8.5V8.46875H8.5V7.53125H8.46875V7.5H7.53125V7.53125H7.5V8.46875H7.53125V8.5H8.46875Z" fill="black"/>
<path d="M9.40625 8.5H10.3438V7.5H9.40625V8.5Z" fill="black"/>
<path d="M11.2812 8.5H12.2188V7.5H11.2812V8.5Z" fill="black"/>
<path d="M13.1562 8.5H14.0938V7.5H13.1562V8.5Z" fill="black"/>
<path d="M15.0312 8.5H15.5V8.46875H16V7.53125H15.5V7.5H15.0312V7.53125H15V8.46875H15.0312V8.5Z" fill="black"/>
<path d="M0 9.40625V10.3438H1V9.40625H0Z" fill="black"/>
<path d="M7.5 9.40625V10.3438H8.5V9.40625H7.5Z" fill="black"/>
<path d="M16 10.3438V9.40625H15V10.3438H16Z" fill="black"/>
<path d="M0 11.2812V12.2188H1V11.2812H0Z" fill="black"/>
<path d="M7.5 11.2812V12.2188H8.5V11.2812H7.5Z" fill="black"/>
<path d="M16 12.2188V11.2812H15V12.2188H16Z" fill="black"/>
<path d="M0 13.1562V14.0938H1V13.1562H0Z" fill="black"/>
<path d="M7.5 13.1562V14.0938H8.5V13.1562H7.5Z" fill="black"/>
<path d="M16 14.0938V13.1562H15V14.0938H16Z" fill="black"/>
<path d="M0 15H16V16H0V15Z" fill="black"/>
</svg>
