<svg width="16" height="16" viewBox="0 0 16 16" fill="none" xmlns="http://www.w3.org/2000/svg">
<path d="M1 3.5C1 3.22386 1.22386 3 1.5 3H14.5C14.7761 3 15 3.22386 15 3.5V4.5C15 4.77614 14.7761 5 14.5 5H1.5C1.22386 5 1 4.77614 1 4.5V3.5Z" fill="black"/>
<path d="M1 7.5C1 7.22386 1.22386 7 1.5 7H6.5C6.77614 7 7 7.22386 7 7.5V8.5C7 8.77614 6.77614 9 6.5 9H1.5C1.22386 9 1 8.77614 1 8.5V7.5Z" fill="black"/>
<path d="M1 11.5C1 11.2239 1.22386 11 1.5 11H2.5C2.77614 11 3 11.2239 3 11.5V12.5C3 12.7761 2.77614 13 2.5 13H1.5C1.22386 13 1 12.7761 1 12.5V11.5Z" fill="black"/>
<path d="M9 11.5C9 11.2239 9.22386 11 9.5 11H10.5C10.7761 11 11 11.2239 11 11.5V12.5C11 12.7761 10.7761 13 10.5 13H9.5C9.22386 13 9 12.7761 9 12.5V11.5Z" fill="black"/>
<path d="M5 11.5C5 11.2239 5.22386 11 5.5 11H6.5C6.77614 11 7 11.2239 7 11.5V12.5C7 12.7761 6.77614 13 6.5 13H5.5C5.22386 13 5 12.7761 5 12.5V11.5Z" fill="black"/>
<path d="M13 11.5C13 11.2239 13.2239 11 13.5 11H14.5C14.7761 11 15 11.2239 15 11.5V12.5C15 12.7761 14.7761 13 14.5 13H13.5C13.2239 13 13 12.7761 13 12.5V11.5Z" fill="black"/>
<path d="M9 7.5C9 7.22386 9.22386 7 9.5 7H14.5C14.7761 7 15 7.22386 15 7.5V8.5C15 8.77614 14.7761 9 14.5 9H9.5C9.22386 9 9 8.77614 9 8.5V7.5Z" fill="black"/>
</svg>
