<svg width="16" height="16" viewBox="0 0 16 16" fill="none" xmlns="http://www.w3.org/2000/svg">
<path d="M0 0H0.96875V0.5H1V0.96875H0.96875V1H0.5V0.96875H0V0ZM2.84375 1H1.90625V0H2.84375V1ZM4.71875 1H3.78125V0H4.71875V1ZM6.59375 1H5.65625V0H6.59375V1ZM7.53125 1V0.96875H7.5V0.5H7.53125V0H8.46875V0.5H8.5V0.96875H8.46875V1H7.53125ZM10.3438 1H9.40625V0H10.3438V1ZM12.2188 1H11.2812V0H12.2188V1ZM14.0938 1H13.1562V0H14.0938V1ZM15.5 1H15.0312V0.96875H15V0.5H15.0312V0H16V0.96875H15.5V1ZM1 1.90625V2.84375H0V1.90625H1ZM7.5 2.84375V1.90625H8.5V2.84375H7.5ZM15 2.84375V1.90625H16V2.84375H15ZM1 3.78125V4.71875H0V3.78125H1ZM7.5 4.71875V3.78125H8.5V4.71875H7.5ZM15 4.71875V3.78125H16V4.71875H15ZM1 5.65625V6.59375H0V5.65625H1ZM7.5 6.59375V5.65625H8.5V6.59375H7.5ZM15 6.59375V5.65625H16V6.59375H15ZM0.96875 8.5H0.5V8.46875H0V7.53125H0.5V7.5H0.96875V7.53125H1V8.46875H0.96875V8.5ZM2.84375 8.5H1.90625V7.5H2.84375V8.5ZM4.71875 8.5H3.78125V7.5H4.71875V8.5ZM6.59375 8.5H5.65625V7.5H6.59375V8.5ZM8.46875 8.46875V8.5H7.53125V8.46875H7.5V7.53125H7.53125V7.5H8.46875V7.53125H8.5V8.46875H8.46875ZM10.3438 8.5H9.40625V7.5H10.3438V8.5ZM12.2188 8.5H11.2812V7.5H12.2188V8.5ZM14.0938 8.5H13.1562V7.5H14.0938V8.5ZM15.5 8.5H15.0312V8.46875H15V7.53125H15.0312V7.5H15.5V7.53125H16V8.46875H15.5V8.5ZM0 10.3438V9.40625H1V10.3438H0ZM7.5 10.3438V9.40625H8.5V10.3438H7.5ZM16 9.40625V10.3438H15V9.40625H16ZM0 12.2188V11.2812H1V12.2188H0ZM7.5 12.2188V11.2812H8.5V12.2188H7.5ZM16 11.2812V12.2188H15V11.2812H16ZM0 14.0938V13.1562H1V14.0938H0ZM7.5 14.0938V13.1562H8.5V14.0938H7.5ZM16 13.1562V14.0938H15V13.1562H16ZM0.96875 16H0V15.0312H0.5V15H0.96875V15.0312H1V15.5H0.96875V16ZM2.84375 16H1.90625V15H2.84375V16ZM4.71875 16H3.78125V15H4.71875V16ZM6.59375 16H5.65625V15H6.59375V16ZM7.53125 16V15.5H7.5V15.0312H7.53125V15H8.46875V15.0312H8.5V15.5H8.46875V16H7.53125ZM10.3438 16H9.40625V15H10.3438V16ZM12.2188 16H11.2812V15H12.2188V16ZM14.0938 16H13.1562V15H14.0938V16ZM15.0312 16V15.5H15V15.0312H15.0312V15H15.5V15.0312H16V16H15.0312Z" fill="black"/>
</svg>
