<svg width="16" height="16" viewBox="0 0 16 16" fill="none" xmlns="http://www.w3.org/2000/svg">
<path fill-rule="evenodd" clip-rule="evenodd" d="M6.36364 2.5C6.36364 2.22386 6.58749 2 6.86364 2H13.5C14.3284 2 15 2.67157 15 3.5V13.5C15 14.3284 14.3284 15 13.5 15H3.5C2.67157 15 2 14.3284 2 13.5V6.86364C2 6.58749 2.22386 6.36364 2.5 6.36364C2.77614 6.36364 3 6.58749 3 6.86364V13.5C3 13.7761 3.22386 14 3.5 14H13.5C13.7761 14 14 13.7761 14 13.5V3.5C14 3.22386 13.7761 3 13.5 3H6.86364C6.58749 3 6.36364 2.77614 6.36364 2.5Z" fill="black"/>
<path fill-rule="evenodd" clip-rule="evenodd" d="M11 10.5C11 10.7761 10.7761 11 10.5 11H5.5C5.22386 11 5 10.7761 5 10.5C5 10.2239 5.22386 10 5.5 10H9.29289L1.14645 1.85355C0.951184 1.65829 0.951184 1.34171 1.14645 1.14645C1.34171 0.951184 1.65829 0.951184 1.85355 1.14645L10 9.29289V5.5C10 5.22386 10.2239 5 10.5 5C10.7761 5 11 5.22386 11 5.5V10.5Z" fill="black"/>
</svg>
