<svg width="16" height="16" viewBox="0 0 16 16" fill="none" xmlns="http://www.w3.org/2000/svg">
<path fill-rule="evenodd" clip-rule="evenodd" d="M9.63636 2.5C9.63636 2.22386 9.41251 2 9.13636 2H2.5C1.67157 2 1 2.67157 1 3.5V13.5C1 14.3284 1.67157 15 2.5 15H12.5C13.3284 15 14 14.3284 14 13.5V6.86364C14 6.58749 13.7761 6.36364 13.5 6.36364C13.2239 6.36364 13 6.58749 13 6.86364V13.5C13 13.7761 12.7761 14 12.5 14H2.5C2.22386 14 2 13.7761 2 13.5V3.5C2 3.22386 2.22386 3 2.5 3H9.13636C9.41251 3 9.63636 2.77614 9.63636 2.5Z" fill="black"/>
<path fill-rule="evenodd" clip-rule="evenodd" d="M5 10.5C5 10.7761 5.22386 11 5.5 11H10.5C10.7761 11 11 10.7761 11 10.5C11 10.2239 10.7761 10 10.5 10H6.70711L14.8536 1.85355C15.0488 1.65829 15.0488 1.34171 14.8536 1.14645C14.6583 0.951184 14.3417 0.951184 14.1464 1.14645L6 9.29289V5.5C6 5.22386 5.77614 5 5.5 5C5.22386 5 5 5.22386 5 5.5V10.5Z" fill="black"/>
</svg>
