<svg width="16" height="16" viewBox="0 0 16 16" fill="none" xmlns="http://www.w3.org/2000/svg">
<path fill-rule="evenodd" clip-rule="evenodd" d="M15.5285 2.97293C15.8133 3.08683 16 3.36261 16 3.66929V12.3308C16 12.6374 15.8133 12.9132 15.5285 13.0271L8.27854 15.9271C8.09974 15.9987 7.90026 15.9987 7.72146 15.9271L0.471457 13.0271C0.186713 12.9132 0 12.6374 0 12.3308V3.66929C0 3.36261 0.186713 3.08683 0.471457 2.97293L7.44291 0.184311C7.44599 0.18308 7.44908 0.181859 7.45216 0.180648L7.72146 0.0729296C7.90026 0.00140642 8.09974 0.00140615 8.27854 0.0729295L8.54787 0.180658C8.55094 0.181865 8.55402 0.183083 8.55709 0.184311L15.5285 2.97293ZM10.4037 2.00001L4.25 4.46148L1.84633 3.50001L1 3.83855V4.23852L7.5 6.83852V14.7615L8 14.9615L8.5 14.7615V6.83852L15 4.23852V3.83855L14.1537 3.50001L8 5.96148L5.59629 5L11.75 2.53853L10.4037 2.00001Z" fill="black"/>
</svg>
