<svg width="16" height="16" viewBox="0 0 16 16" fill="none" xmlns="http://www.w3.org/2000/svg">
<path fill-rule="evenodd" clip-rule="evenodd" d="M7.36364 12.5C7.36364 12.7761 7.58749 13 7.86364 13H14.5C15.3284 13 16 12.3284 16 11.5V1.5C16 0.671572 15.3284 0 14.5 0H4.5C3.67157 0 3 0.671573 3 1.5V8.13636C3 8.41251 3.22386 8.63636 3.5 8.63636C3.77614 8.63636 4 8.41251 4 8.13636V1.5C4 1.22386 4.22386 1 4.5 1H14.5C14.7761 1 15 1.22386 15 1.5V11.5C15 11.7761 14.7761 12 14.5 12H7.86364C7.58749 12 7.36364 12.2239 7.36364 12.5Z" fill="black"/>
<path fill-rule="evenodd" clip-rule="evenodd" d="M0 15.5C0 15.7761 0.223858 16 0.5 16H5.5C5.77614 16 6 15.7761 6 15.5C6 15.2239 5.77614 15 5.5 15H1.70711L9.85355 6.85355C10.0488 6.65829 10.0488 6.34171 9.85355 6.14645C9.65829 5.95118 9.34171 5.95118 9.14645 6.14645L1 14.2929V10.5C1 10.2239 0.776142 10 0.5 10C0.223858 10 0 10.2239 0 10.5V15.5Z" fill="black"/>
</svg>
