<svg width="16" height="16" viewBox="0 0 16 16" fill="none" xmlns="http://www.w3.org/2000/svg">
<path fill-rule="evenodd" clip-rule="evenodd" d="M15.5285 2.97293C15.8133 3.08683 16 3.36261 16 3.66929V12.3308C16 12.6374 15.8133 12.9132 15.5285 13.0271L8.27854 15.9271C8.09974 15.9987 7.90026 15.9987 7.72146 15.9271L0.471457 13.0271C0.186713 12.9132 0 12.6374 0 12.3308V3.66929C0 3.36261 0.186713 3.08683 0.471457 2.97293L7.44291 0.18434L7.44691 0.18275L7.72146 0.0729296C7.90026 0.00140642 8.09974 0.00140615 8.27854 0.0729295L8.55315 0.182774L8.55709 0.18434L15.5285 2.97293ZM14.1537 3.50003L8 5.96151L1.84629 3.50003L1 3.83855V4.23855L7.5 6.83854V14.7615L8 14.9615L8.5 14.7615V6.83854L15 4.23854V3.83855L14.1537 3.50003Z" fill="black"/>
</svg>
