<svg width="16" height="16" viewBox="0 0 16 16" fill="none" xmlns="http://www.w3.org/2000/svg">
<path d="M8.1857 1.11279C8.06649 1.06511 7.93351 1.06511 7.8143 1.11279L1.84629 3.49999L4.25 4.46148L10.4037 1.99999L8.1857 1.11279ZM11.75 2.53851L5.59629 4.99999L8 5.96148L14.1537 3.49999L11.75 2.53851ZM15 4.23851L8.5 6.83851V14.7615L15 12.1615V4.23851ZM7.5 14.7615V6.83851L1 4.23851V12.1615L7.5 14.7615ZM7.44291 0.184311C7.80053 0.0412648 8.19947 0.0412647 8.55709 0.184311L15.6857 3.03575C15.8755 3.11169 16 3.29554 16 3.49999V12.1615C16 12.5704 15.751 12.9381 15.3714 13.09L8.1857 15.9642C8.06649 16.0119 7.93351 16.0119 7.8143 15.9642L0.628609 13.09C0.248951 12.9381 0 12.5704 0 12.1615V3.49999C0 3.29554 0.124475 3.11169 0.314305 3.03575L7.44291 0.184311Z" fill="black"/>
</svg>
