<svg width="16" height="16" viewBox="0 0 16 16" fill="none" xmlns="http://www.w3.org/2000/svg">
<path fill-rule="evenodd" clip-rule="evenodd" d="M10 3.5C10 3.22386 9.77614 3 9.5 3L1.5 3C1.22386 3 1 3.22386 1 3.5V12.5C1 12.7761 1.22386 13 1.5 13H9.5C9.77614 13 10 12.7761 10 12.5V10.5C10 10.2239 10.2239 10 10.5 10C10.7761 10 11 10.2239 11 10.5V12.5C11 13.3284 10.3284 14 9.5 14H1.5C0.671574 14 0 13.3284 0 12.5V3.5C0 2.67157 0.671573 2 1.5 2L9.5 2C10.3284 2 11 2.67157 11 3.5V5.5C11 5.77614 10.7761 6 10.5 6C10.2239 6 10 5.77614 10 5.5V3.5Z" fill="black"/>
<path fill-rule="evenodd" clip-rule="evenodd" d="M4.14645 8.35355C3.95118 8.15829 3.95118 7.84171 4.14645 7.64645L7.14645 4.64645C7.34171 4.45118 7.65829 4.45118 7.85355 4.64645C8.04882 4.84171 8.04882 5.15829 7.85355 5.35355L5.70711 7.5L14.5 7.5C14.7761 7.5 15 7.72386 15 8C15 8.27614 14.7761 8.5 14.5 8.5H5.70711L7.85355 10.6464C8.04882 10.8417 8.04882 11.1583 7.85355 11.3536C7.65829 11.5488 7.34171 11.5488 7.14645 11.3536L4.14645 8.35355Z" fill="black"/>
</svg>
