<svg width="16" height="16" viewBox="0 0 16 16" fill="none" xmlns="http://www.w3.org/2000/svg">
<path fill-rule="evenodd" clip-rule="evenodd" d="M3.5 10C3.22386 10 3 9.77614 3 9.5V1.5C3 1.22386 3.22386 1 3.5 1H12.5C12.7761 1 13 1.22386 13 1.5V9.5C13 9.77614 12.7761 10 12.5 10H10.5C10.2239 10 10 10.2239 10 10.5C10 10.7761 10.2239 11 10.5 11H12.5C13.3284 11 14 10.3284 14 9.5V1.5C14 0.671574 13.3284 0 12.5 0H3.5C2.67157 0 2 0.671573 2 1.5V9.5C2 10.3284 2.67157 11 3.5 11H5.5C5.77614 11 6 10.7761 6 10.5C6 10.2239 5.77614 10 5.5 10H3.5Z" fill="black"/>
<path fill-rule="evenodd" clip-rule="evenodd" d="M7.64645 4.14645C7.84171 3.95118 8.15829 3.95118 8.35355 4.14645L11.3536 7.14645C11.5488 7.34171 11.5488 7.65829 11.3536 7.85355C11.1583 8.04882 10.8417 8.04882 10.6464 7.85355L8.5 5.70711V14.5C8.5 14.7761 8.27614 15 8 15C7.72386 15 7.5 14.7761 7.5 14.5V5.70711L5.35355 7.85355C5.15829 8.04882 4.84171 8.04882 4.64645 7.85355C4.45118 7.65829 4.45118 7.34171 4.64645 7.14645L7.64645 4.14645Z" fill="black"/>
</svg>
