<svg width="16" height="16" viewBox="0 0 16 16" fill="none" xmlns="http://www.w3.org/2000/svg">
<path fill-rule="evenodd" clip-rule="evenodd" d="M3.5 6C3.22386 6 3 6.22386 3 6.5V14.5C3 14.7761 3.22386 15 3.5 15H12.5C12.7761 15 13 14.7761 13 14.5V6.5C13 6.22386 12.7761 6 12.5 6H10.5C10.2239 6 10 5.77614 10 5.5C10 5.22386 10.2239 5 10.5 5H12.5C13.3284 5 14 5.67157 14 6.5V14.5C14 15.3284 13.3284 16 12.5 16H3.5C2.67157 16 2 15.3284 2 14.5V6.5C2 5.67157 2.67157 5 3.5 5H5.5C5.77614 5 6 5.22386 6 5.5C6 5.77614 5.77614 6 5.5 6H3.5Z" fill="black"/>
<path fill-rule="evenodd" clip-rule="evenodd" d="M7.64645 11.8536C7.84171 12.0488 8.15829 12.0488 8.35355 11.8536L11.3536 8.85355C11.5488 8.65829 11.5488 8.34171 11.3536 8.14645C11.1583 7.95118 10.8417 7.95118 10.6464 8.14645L8.5 10.2929V1.5C8.5 1.22386 8.27614 1 8 1C7.72386 1 7.5 1.22386 7.5 1.5V10.2929L5.35355 8.14645C5.15829 7.95118 4.84171 7.95118 4.64645 8.14645C4.45118 8.34171 4.45118 8.65829 4.64645 8.85355L7.64645 11.8536Z" fill="black"/>
</svg>
