<svg width="16" height="16" viewBox="0 0 16 16" fill="none" xmlns="http://www.w3.org/2000/svg">
<path d="M3.75 0C3.43524 0 3.13885 0.148194 2.95 0.4L0.1 4.2C0.0350889 4.28655 0 4.39182 0 4.5V15C0 15.5523 0.447715 16 1 16H15C15.5523 16 16 15.5523 16 15V4.5C16 4.39182 15.9649 4.28655 15.9 4.2L13.05 0.4C12.8611 0.148194 12.5648 0 12.25 0H3.75ZM8.5 4H14.5L15 4.66667V5H1V4.66667L1.5 4H7.5V1H8.5V4ZM8 7.99275C9.66439 6.282 13.8254 9.27581 8 13.125C2.17465 9.27581 6.33561 6.282 8 7.99275Z" fill="black"/>
</svg>
