<svg width="16" height="16" viewBox="0 0 16 16" fill="none" xmlns="http://www.w3.org/2000/svg">
<path d="M7.75193 0.0658784C7.90565 -0.0219595 8.09435 -0.0219595 8.24807 0.0658784L11.9981 2.20874C12.1539 2.29776 12.25 2.46343 12.25 2.64286V6.63841L15.7481 8.63731C15.9039 8.72633 16 8.892 16 9.07143V13.3571C16 13.5366 15.9039 13.7022 15.7481 13.7913L11.9981 15.9341C11.8444 16.022 11.6556 16.022 11.5019 15.9341L8 13.933L4.49807 15.9341C4.34435 16.022 4.15565 16.022 4.00193 15.9341L0.25193 13.7913C0.096143 13.7022 0 13.5366 0 13.3571V9.07143C0 8.892 0.096143 8.72633 0.251931 8.63731L3.75 6.63841V2.64286C3.75 2.46343 3.84614 2.29776 4.00193 2.20874L7.75193 0.0658784ZM4.25 7.50445L1.50778 9.07143L4.25 10.6384L6.99222 9.07143L4.25 7.50445ZM7.5 9.93302L4.75 11.5044V14.6384L7.5 13.067V9.93302ZM8.5 13.067L11.25 14.6384V11.5044L8.5 9.93302V13.067ZM9.00778 9.07143L11.75 10.6384L14.4922 9.07143L11.75 7.50445L9.00778 9.07143ZM11.25 6.63841V3.50445L8.5 5.07588V8.20984L11.25 6.63841ZM7.5 8.20984V5.07588L4.75 3.50445V6.63841L7.5 8.20984ZM5.25778 2.64286L8 4.20984L10.7422 2.64286L8 1.07588L5.25778 2.64286ZM15 9.93302L12.25 11.5044V14.6384L15 13.067V9.93302ZM3.75 14.6384V11.5044L1 9.93302V13.067L3.75 14.6384Z" fill="black"/>
</svg>
