<svg width="16" height="16" viewBox="0 0 16 16" fill="none" xmlns="http://www.w3.org/2000/svg">
<path fill-rule="evenodd" clip-rule="evenodd" d="M1.11426 8.06348V7.89941C2.11914 7.79688 2.61133 7.28418 2.61133 6.2998V4.50195C2.61133 3.4082 3.00098 2.96387 3.96484 2.96387H4.23828V2H3.8623C2.24902 2 1.49023 2.75879 1.49023 4.35156V5.87598C1.49023 6.96973 1.11426 7.33203 0 7.33203V8.63086C1.11426 8.63086 1.49023 8.99316 1.49023 10.0869V11.6113C1.49023 13.2041 2.24902 13.9629 3.8623 13.9629H4.23828V12.999H3.96484C3.00098 12.999 2.61133 12.5547 2.61133 11.4609V9.66309C2.61133 8.67871 2.11914 8.16602 1.11426 8.06348ZM14.8857 7.89941V8.06348C13.8809 8.16602 13.3887 8.67871 13.3887 9.66309V11.4609C13.3887 12.5547 12.999 12.999 12.0352 12.999H11.7617V13.9629H12.1377C13.751 13.9629 14.5098 13.2041 14.5098 11.6113V10.0869C14.5098 8.99316 14.8857 8.63086 16 8.63086V7.33203C14.8857 7.33203 14.5098 6.96973 14.5098 5.87598V4.35156C14.5098 2.75879 13.751 2 12.1377 2H11.7617V2.96387H12.0352C12.999 2.96387 13.3887 3.4082 13.3887 4.50195V6.2998C13.3887 7.28418 13.8809 7.79688 14.8857 7.89941ZM7.5 11.5V9.20709L5.87866 10.8284L5.17155 10.1213L6.79288 8.5H4.5V7.5H6.79291L5.17159 5.87868L5.8787 5.17158L7.5 6.79288V4.5H8.5V6.79288L10.1213 5.17158L10.8284 5.87868L9.20709 7.5H11.5V8.5H9.20712L10.8284 10.1213L10.1213 10.8284L8.5 9.20709V11.5H7.5Z" fill="black"/>
</svg>
