<svg width="16" height="16" viewBox="0 0 16 16" fill="none" xmlns="http://www.w3.org/2000/svg">
<path d="M2.11426 8.06348V7.89941C3.11914 7.79688 3.61133 7.28418 3.61133 6.2998V4.50195C3.61133 3.4082 4.00098 2.96387 4.96484 2.96387H5.23828V2H4.8623C3.24902 2 2.49023 2.75879 2.49023 4.35156V5.87598C2.49023 6.96973 2.11426 7.33203 1 7.33203V8.63086C2.11426 8.63086 2.49023 8.99316 2.49023 10.0869V11.6113C2.49023 13.2041 3.24902 13.9629 4.8623 13.9629H5.23828V12.999H4.96484C4.00098 12.999 3.61133 12.5547 3.61133 11.4609V9.66309C3.61133 8.67871 3.11914 8.16602 2.11426 8.06348Z" fill="black"/>
<path d="M13.8857 7.89941V8.06348C12.8809 8.16602 12.3887 8.67871 12.3887 9.66309V11.4609C12.3887 12.5547 11.999 12.999 11.0352 12.999H10.7617V13.9629H11.1377C12.751 13.9629 13.5098 13.2041 13.5098 11.6113V10.0869C13.5098 8.99316 13.8857 8.63086 15 8.63086V7.33203C13.8857 7.33203 13.5098 6.96973 13.5098 5.87598V4.35156C13.5098 2.75879 12.751 2 11.1377 2H10.7617V2.96387H11.0352C11.999 2.96387 12.3887 3.4082 12.3887 4.50195V6.2998C12.3887 7.28418 12.8809 7.79688 13.8857 7.89941Z" fill="black"/>
</svg>
