<svg width="16" height="16" viewBox="0 0 16 16" fill="none" xmlns="http://www.w3.org/2000/svg">
<path d="M0 0.5C0 0.223858 0.223858 0 0.5 0H15.5C15.7761 0 16 0.223858 16 0.5V3.5C16 3.77614 15.7761 4 15.5 4H14V6H15.5C15.7761 6 16 6.22386 16 6.5V9.5C16 9.77614 15.7761 10 15.5 10H14V12H15.5C15.7761 12 16 12.2239 16 12.5V15.5C16 15.7761 15.7761 16 15.5 16H0.5C0.223858 16 0 15.7761 0 15.5V12.5C0 12.2239 0.223858 12 0.5 12H2V10H0.5C0.223858 10 0 9.77614 0 9.5V6.5C0 6.22386 0.223858 6 0.5 6H2V4H0.5C0.223858 4 0 3.77614 0 3.5V0.5ZM3 4V6H7.5V4H3ZM8.5 4V6H13V4H8.5ZM3 10V12H7.5V10H3ZM8.5 10V12H13V10H8.5ZM1 1V3H4.5V1H1ZM5.5 1V3H10.5V1H5.5ZM11.5 1V3H15V1H11.5ZM1 7V9H4.5V7H1ZM5.5 7V9H10.5V7H5.5ZM11.5 7V9H15V7H11.5ZM1 13V15H4.5V13H1ZM5.5 13V15H10.5V13H5.5ZM11.5 13V15H15V13H11.5Z" fill="black"/>
</svg>
