<svg width="16" height="16" viewBox="0 0 16 16" fill="none" xmlns="http://www.w3.org/2000/svg">
<path d="M6.5 1C5.67173 1 5 1.67117 5 2.49976V3H1.5C0.671573 3 0 3.67157 0 4.5V5.88414L7.61351 7.91441C7.86674 7.98194 8.13326 7.98194 8.38649 7.91441L16 5.88414V4.5C16 3.67157 15.3284 3 14.5 3H11V2.49976C11 1.67117 10.3283 1 9.5 1H6.5ZM6.5 2H9.5C9.7763 2 10 2.22463 10 2.50061V3H6V2.49976C6 2.22377 6.2237 2 6.5 2Z" fill="black"/>
<path d="M0 12.5C0 13.3284 0.671573 14 1.5 14H14.5C15.3284 14 16 13.3284 16 12.5V6.84919L8.12883 8.94817C8.04442 8.97068 7.95558 8.97068 7.87117 8.94817L0 6.84919V12.5Z" fill="black"/>
</svg>
