<svg width="16" height="16" viewBox="0 0 16 16" fill="none" xmlns="http://www.w3.org/2000/svg">
<path d="M8.5 5.5C8.5 5.77614 8.27614 6 8 6C7.72386 6 7.5 5.77614 7.5 5.5C7.5 5.22386 7.72386 5 8 5C8.27614 5 8.5 5.22386 8.5 5.5Z" fill="black"/>
<path d="M13.5 11.5C13.2239 11.5 13 11.2761 13 11C13 10.7238 13.2239 10.5 13.5 10.5C13.7761 10.5 14 10.7238 14 11C14 11.2761 13.7761 11.5 13.5 11.5Z" fill="black"/>
<path d="M2 11C2 11.2761 2.22386 11.5 2.5 11.5C2.77614 11.5 3 11.2761 3 11C3 10.7238 2.77614 10.5 2.5 10.5C2.22386 10.5 2 10.7238 2 11Z" fill="black"/>
<path d="M12.2426 7.46447C12.0474 7.65973 11.7308 7.65973 11.5355 7.46447C11.3403 7.2692 11.3403 6.95262 11.5355 6.75736C11.7308 6.5621 12.0474 6.5621 12.2426 6.75736C12.4379 6.95262 12.4379 7.2692 12.2426 7.46447Z" fill="black"/>
<path d="M3.75736 6.75736C3.5621 6.95262 3.5621 7.2692 3.75736 7.46447C3.95262 7.65973 4.26921 7.65973 4.46447 7.46447C4.65973 7.2692 4.65973 6.95262 4.46447 6.75736C4.26921 6.5621 3.95262 6.5621 3.75736 6.75736Z" fill="black"/>
<path d="M8 7C5.79086 7 4 8.79086 4 11C4 11.2761 4.22386 11.5 4.5 11.5H11.5C11.7761 11.5 12 11.2761 12 11C12 8.79086 10.2091 7 8 7ZM8 8C9.4865 8 10.7205 9.08114 10.9585 10.5H5.04148C5.27952 9.08114 6.5135 8 8 8Z" fill="black"/>
</svg>
