<svg width="16" height="16" viewBox="0 0 16 16" fill="none" xmlns="http://www.w3.org/2000/svg">
<path d="M8 11C6.34315 11 5 9.65685 5 8C5 6.34315 6.34315 5 8 5C9.65686 5 11 6.34315 11 8C11 9.65685 9.65686 11 8 11ZM8 12C10.2091 12 12 10.2091 12 8C12 5.79086 10.2091 4 8 4C5.79086 4 4 5.79086 4 8C4 10.2091 5.79086 12 8 12Z" fill="black"/>
<path d="M8.5 2.5C8.5 2.77614 8.27614 3 8 3C7.72386 3 7.5 2.77614 7.5 2.5C7.5 2.22386 7.72386 2 8 2C8.27614 2 8.5 2.22386 8.5 2.5Z" fill="black"/>
<path d="M8.5 13.5C8.5 13.7761 8.27614 14 8 14C7.72386 14 7.5 13.7761 7.5 13.5C7.5 13.2239 7.72386 13 8 13C8.27614 13 8.5 13.2239 8.5 13.5Z" fill="black"/>
<path d="M13.5 8.5C13.2239 8.5 13 8.27614 13 8C13 7.72386 13.2239 7.5 13.5 7.5C13.7761 7.5 14 7.72386 14 8C14 8.27614 13.7761 8.5 13.5 8.5Z" fill="black"/>
<path d="M2.5 8.5C2.22386 8.5 2 8.27614 2 8C2 7.72386 2.22386 7.5 2.5 7.5C2.77614 7.5 3 7.72386 3 8C3 8.27614 2.77614 8.5 2.5 8.5Z" fill="black"/>
<path d="M12.2426 4.46447C12.0474 4.65973 11.7308 4.65973 11.5355 4.46447C11.3403 4.26921 11.3403 3.95262 11.5355 3.75736C11.7308 3.5621 12.0474 3.5621 12.2426 3.75736C12.4379 3.95262 12.4379 4.26921 12.2426 4.46447Z" fill="black"/>
<path d="M4.46447 12.2426C4.26921 12.4379 3.95262 12.4379 3.75736 12.2426C3.5621 12.0474 3.5621 11.7308 3.75736 11.5355C3.95262 11.3403 4.26921 11.3403 4.46447 11.5355C4.65973 11.7308 4.65973 12.0474 4.46447 12.2426Z" fill="black"/>
<path d="M11.5355 12.2426C11.3403 12.0473 11.3403 11.7307 11.5355 11.5355C11.7308 11.3402 12.0474 11.3402 12.2426 11.5355C12.4379 11.7307 12.4379 12.0473 12.2426 12.2426C12.0474 12.4379 11.7308 12.4379 11.5355 12.2426Z" fill="black"/>
<path d="M3.75736 4.46442C3.5621 4.26915 3.5621 3.95257 3.75736 3.75731C3.95262 3.56205 4.26921 3.56205 4.46447 3.75731C4.65973 3.95257 4.65973 4.26915 4.46447 4.46442C4.26921 4.65968 3.95262 4.65968 3.75736 4.46442Z" fill="black"/>
</svg>
