<svg width="16" height="16" viewBox="0 0 16 16" fill="none" xmlns="http://www.w3.org/2000/svg">
<path d="M3.05025 3.05025C0.316582 5.78392 0.316582 10.2161 3.05025 12.9497C3.24551 13.145 3.24551 13.4616 3.05025 13.6569C2.85499 13.8521 2.53841 13.8521 2.34315 13.6569C-0.781049 10.5327 -0.781049 5.46734 2.34315 2.34315C2.53841 2.14789 2.85499 2.14789 3.05025 2.34315C3.24551 2.53841 3.24551 2.85499 3.05025 3.05025ZM5.17157 5.17157C3.60948 6.73367 3.60948 9.26633 5.17157 10.8284C5.36684 11.0237 5.36683 11.3403 5.17157 11.5355C4.97631 11.7308 4.65973 11.7308 4.46447 11.5355C2.51184 9.58291 2.51184 6.41709 4.46447 4.46447C4.65973 4.26921 4.97631 4.26921 5.17157 4.46447C5.36683 4.65973 5.36684 4.97631 5.17157 5.17157ZM10.8284 4.46447C11.0237 4.26921 11.3403 4.26921 11.5355 4.46447C13.4882 6.41709 13.4882 9.58291 11.5355 11.5355C11.3403 11.7308 11.0237 11.7308 10.8284 11.5355C10.6332 11.3403 10.6332 11.0237 10.8284 10.8284C12.3905 9.26633 12.3905 6.73367 10.8284 5.17157C10.6332 4.97631 10.6332 4.65973 10.8284 4.46447ZM12.9497 2.34315C13.145 2.14789 13.4616 2.14789 13.6569 2.34315C16.781 5.46734 16.781 10.5327 13.6569 13.6569C13.4616 13.8521 13.145 13.8521 12.9497 13.6569C12.7545 13.4616 12.7545 13.145 12.9497 12.9497C15.6834 10.2161 15.6834 5.78392 12.9497 3.05025C12.7545 2.85499 12.7545 2.53841 12.9497 2.34315Z" fill="black"/>
<path d="M6.00009 8C6.00009 6.89543 6.89552 6 8.00009 6C9.10466 6 10.0001 6.89543 10.0001 8C10.0001 8.93192 9.3627 9.71497 8.50009 9.93699V15.5C8.50009 15.7761 8.27623 16 8.00009 16C7.72395 16 7.50009 15.7761 7.50009 15.5V9.93699C6.63747 9.71497 6.00009 8.93192 6.00009 8Z" fill="black"/>
</svg>
