<svg width="16" height="16" viewBox="0 0 16 16" fill="none" xmlns="http://www.w3.org/2000/svg">
<path d="M13.3841 3.4075C13.9195 3.68431 14.6032 4.55998 14.9403 5.37101C15.4303 6.60774 15.6028 7.94777 15.443 9.2684C15.4401 9.29396 15.4372 9.31938 15.4344 9.34473C15.4259 9.41964 15.4175 9.49386 15.4078 9.56863C15.0761 11.4813 14.0395 13.2001 12.5025 14.3858C10.9654 15.5715 9.03975 16.1378 7.10555 15.9731C5.17135 15.8084 3.36919 14.9245 2.05483 13.4959C0.740463 12.0674 0.00940975 10.198 0.00598145 8.25682V8.21679C0.0223715 7.85434 0.0606036 7.49321 0.120469 7.13536C0.129877 7.0609 0.195327 6.71424 0.209938 6.64599L0.220346 6.59475C0.40873 5.75044 0.762469 4.95181 1.26115 4.24494C1.47815 3.93518 1.72072 3.64434 1.9863 3.37507C2.21936 3.13662 2.47308 2.91927 2.74449 2.72557C2.82572 2.67071 2.91253 2.62462 3.00348 2.58807C2.98587 2.85648 2.96425 4.14146 3.27169 4.53116H3.27529C3.79112 3.92608 4.42695 3.43468 5.14253 3.08805C4.98007 3.71065 4.98761 4.36542 5.16434 4.98411C5.23375 5.03103 5.30057 5.08168 5.3645 5.13583C5.47106 5.22616 5.58997 5.34347 5.81811 5.56851C5.83961 5.58972 5.86208 5.6119 5.88561 5.63509L5.89491 5.64359C5.94115 5.68915 5.99374 5.73484 6.05122 5.78035C6.06952 5.79484 6.08833 5.80932 6.10758 5.82377C6.49067 6.11122 7.05115 6.38676 7.41437 6.56532C7.61545 6.66418 7.75608 6.73331 7.77271 6.7583C7.77542 6.76122 7.77686 6.76369 7.77695 6.76568C7.76474 6.95863 7.08242 7.62414 6.84403 7.62414C4.63814 7.62414 4.28007 8.95856 4.28007 8.95856C4.36683 9.95601 4.99375 10.7977 5.79674 11.3165C5.89703 11.3811 6.00004 11.4407 6.10507 11.4949C6.1483 11.5173 6.19214 11.5375 6.23597 11.5573C6.3119 11.591 6.38782 11.6221 6.46375 11.6506C6.78859 11.7656 7.12883 11.8312 7.47312 11.8454C10.5172 11.9881 11.6289 9.04096 10.603 7.09966L10.6024 7.09858C10.5352 6.97156 10.4589 6.84886 10.3733 6.73162C10.2315 6.53734 10.0645 6.35805 9.87188 6.19897C9.83413 6.16779 9.79541 6.13739 9.7557 6.10781C9.61613 6.00403 9.46443 5.91031 9.30052 5.82836C9.30025 5.82839 9.3008 5.82832 9.30052 5.82836C9.29951 5.82785 9.29933 5.82724 9.29832 5.82674C9.33917 5.82142 9.38005 5.81706 9.42093 5.81364C10.0388 5.76201 10.657 5.92639 11.1688 6.28088C10.9969 5.97752 10.786 5.69984 10.5426 5.45438C10.4023 5.31287 10.2512 5.18206 10.0905 5.06321C9.97792 4.98011 9.8607 4.90287 9.73921 4.83192C9.14227 4.48328 8.46365 4.29892 7.77235 4.29758C7.69443 4.29758 7.61851 4.30298 7.54242 4.30839C7.5282 4.3094 7.51398 4.31042 7.49974 4.31139C7.49977 4.3108 7.49981 4.3102 7.49984 4.30961L7.49754 4.30977C7.2648 4.32573 7.0351 4.36255 6.81106 4.41923C6.77309 4.42884 6.73528 4.43902 6.69764 4.44977C6.5446 4.29923 6.45054 4.20875 6.36452 4.13583C6.30059 4.08168 6.23378 4.03104 6.16437 3.98411C6.12826 3.85773 6.09922 3.72984 6.07725 3.60103C6.50949 3.44195 6.96446 3.34397 7.42912 3.31211L7.47833 3.30865C7.53105 3.30489 7.60351 3.29972 7.68388 3.29731C7.99595 2.2125 8.73296 0.843366 10.1698 0.00208229L10.1668 0.00728629C10.1676 0.00690344 10.1687 0.00629175 10.1697 0.00571385C10.1708 0.00508324 10.1718 0.00449286 10.1724 0.00428398C10.1729 0.0041043 10.1736 0.00364232 10.1742 0.00318768C10.1749 0.00262946 10.1756 0.00208229 10.1762 0.00208229C10.181 0.000770747 10.186 0.000770747 10.1908 0.00208229C10.1957 0.00267226 10.2002 0.00503877 10.2034 0.00873038C10.2067 0.012422 10.2085 0.0171803 10.2084 0.0220977C10.2349 0.12866 10.2737 0.231769 10.3241 0.329334C10.3479 0.377971 10.3753 0.430812 10.4096 0.489457C10.4694 0.592136 10.5309 0.68941 10.5923 0.786485C11.0817 1.5596 11.6151 2.16452 12.135 2.75413C12.906 3.62839 13.6473 4.46898 14.1711 5.77432L14.1697 5.76131C14.0309 4.94086 13.7659 4.14685 13.3841 3.4075Z" fill="black"/>
</svg>
