<svg width="16" height="16" viewBox="0 0 16 16" fill="none" xmlns="http://www.w3.org/2000/svg">
<path d="M8 16C12.4183 16 16 12.4183 16 8C16 3.58172 12.4183 0 8 0C3.58172 0 0 3.58172 0 8C0 12.4183 3.58172 16 8 16ZM8.25 1.25V2.75C8.25 2.88807 8.13807 3 8 3C7.86193 3 7.75 2.88807 7.75 2.75V1.25C7.75 1.11193 7.86193 1 8 1C8.13807 1 8.25 1.11193 8.25 1.25ZM8.25 13.25V14.75C8.25 14.8881 8.13807 15 8 15C7.86193 15 7.75 14.8881 7.75 14.75V13.25C7.75 13.1119 7.86193 13 8 13C8.13807 13 8.25 13.1119 8.25 13.25ZM4.5 1.93784C4.61957 1.8688 4.77247 1.90977 4.84151 2.02934L5.59151 3.32838C5.66054 3.44795 5.61957 3.60085 5.5 3.66989C5.38043 3.73892 5.22753 3.69795 5.15849 3.57838L4.40849 2.27934C4.33946 2.15977 4.38043 2.00687 4.5 1.93784ZM10.5 12.3301C10.6196 12.2611 10.7725 12.3021 10.8415 12.4216L11.5915 13.7207C11.6605 13.8403 11.6196 13.9932 11.5 14.0622C11.3804 14.1312 11.2275 14.0903 11.1585 13.9707L10.4085 12.6716C10.3395 12.5521 10.3804 12.3992 10.5 12.3301ZM2.27934 4.40849L3.57838 5.15849C3.69795 5.22753 3.73892 5.38043 3.66989 5.5C3.60085 5.61957 3.44795 5.66054 3.32838 5.59151L2.02934 4.84151C1.90977 4.77247 1.8688 4.61957 1.93784 4.5C2.00687 4.38043 2.15977 4.33946 2.27934 4.40849ZM12.6716 10.4085L13.9707 11.1585C14.0903 11.2275 14.1312 11.3804 14.0622 11.5C13.9932 11.6196 13.8403 11.6605 13.7207 11.5915L12.4216 10.8415C12.3021 10.7725 12.2611 10.6196 12.3301 10.5C12.3992 10.3804 12.5521 10.3395 12.6716 10.4085ZM1 8C1 7.86193 1.11193 7.75 1.25 7.75H2.75C2.88807 7.75 3 7.86193 3 8C3 8.13807 2.88807 8.25 2.75 8.25H1.25C1.11193 8.25 1 8.13807 1 8ZM13 8C13 7.86193 13.1119 7.75 13.25 7.75H14.75C14.8881 7.75 15 7.86193 15 8C15 8.13807 14.8881 8.25 14.75 8.25H13.25C13.1119 8.25 13 8.13807 13 8ZM2.02934 11.1585L3.32838 10.4085C3.44795 10.3395 3.60085 10.3804 3.66989 10.5C3.73892 10.6196 3.69795 10.7725 3.57838 10.8415L2.27934 11.5915C2.15977 11.6605 2.00687 11.6196 1.93784 11.5C1.8688 11.3804 1.90977 11.2275 2.02934 11.1585ZM12.4216 5.15849L13.7207 4.40849C13.8403 4.33946 13.9932 4.38043 14.0622 4.5C14.1312 4.61957 14.0903 4.77247 13.9707 4.84151L12.6716 5.59151C12.5521 5.66054 12.3992 5.61957 12.3301 5.5C12.2611 5.38043 12.3021 5.22753 12.4216 5.15849ZM4.5 14.0622C4.38043 13.9931 4.33946 13.8402 4.40849 13.7207L5.15849 12.4216C5.22753 12.302 5.38043 12.2611 5.5 12.3301C5.61957 12.3991 5.66054 12.552 5.59151 12.6716L4.84151 13.9707C4.77247 14.0902 4.61957 14.1312 4.5 14.0622ZM10.5 3.66986C10.3804 3.60082 10.3395 3.44793 10.4085 3.32835L11.1585 2.02931C11.2275 1.90974 11.3804 1.86877 11.5 1.93781C11.6196 2.00684 11.6605 2.15974 11.5915 2.27931L10.8415 3.57835C10.7725 3.69793 10.6196 3.73889 10.5 3.66986ZM6.49446 1.41531L6.62387 1.89827C6.65961 2.03164 6.58046 2.16872 6.4471 2.20446C6.31373 2.2402 6.17665 2.16105 6.14091 2.02768L6.0115 1.54472C5.97577 1.41135 6.05491 1.27427 6.18828 1.23853C6.32164 1.2028 6.45873 1.28194 6.49446 1.41531ZM9.85911 13.9723L9.98852 14.4553C10.0243 14.5887 9.94511 14.7258 9.81174 14.7615C9.67838 14.7972 9.54129 14.7181 9.50556 14.5847L9.37615 14.1018C9.34041 13.9684 9.41956 13.8313 9.55293 13.7956C9.68629 13.7598 9.82338 13.839 9.85911 13.9723ZM3.05026 3.05026C3.14789 2.95262 3.30618 2.95262 3.40381 3.05026L3.75736 3.40381C3.85499 3.50144 3.85499 3.65973 3.75736 3.75736C3.65973 3.85499 3.50144 3.85499 3.40381 3.75736L3.05026 3.40381C2.95262 3.30618 2.95262 3.14789 3.05026 3.05026ZM12.2426 12.2426C12.3403 12.145 12.4986 12.145 12.5962 12.2426L12.9497 12.5962C13.0474 12.6938 13.0474 12.8521 12.9497 12.9497C12.8521 13.0474 12.6938 13.0474 12.5962 12.9497L12.2426 12.5962C12.145 12.4986 12.145 12.3403 12.2426 12.2426ZM1.54472 6.0115L2.02768 6.14091C2.16105 6.17665 2.2402 6.31373 2.20446 6.4471C2.16872 6.58046 2.03164 6.65961 1.89827 6.62387L1.41531 6.49446C1.28194 6.45873 1.2028 6.32164 1.23853 6.18828C1.27427 6.05491 1.41135 5.97577 1.54472 6.0115ZM14.1018 9.37615L14.5847 9.50556C14.7181 9.54129 14.7972 9.67838 14.7615 9.81174C14.7258 9.94511 14.5887 10.0243 14.4553 9.98852L13.9723 9.85911C13.839 9.82338 13.7598 9.68629 13.7956 9.55293C13.8313 9.41956 13.9684 9.34041 14.1018 9.37615ZM1.23853 9.81172C1.2028 9.67836 1.28194 9.54127 1.41531 9.50554L1.89827 9.37613C2.03164 9.34039 2.16872 9.41954 2.20446 9.5529C2.2402 9.68627 2.16105 9.82335 2.02768 9.85909L1.54472 9.9885C1.41135 10.0242 1.27427 9.94509 1.23853 9.81172ZM13.7956 6.44707C13.7598 6.31371 13.839 6.17662 13.9723 6.14089L14.4553 6.01148C14.5887 5.97574 14.7258 6.05489 14.7615 6.18825C14.7972 6.32162 14.7181 6.45871 14.5847 6.49444L14.1018 6.62385C13.9684 6.65959 13.8313 6.58044 13.7956 6.44707ZM3.04455 12.9439C2.94749 12.8414 2.93532 12.6843 3.01647 12.5679L6.91367 6.97624C6.93068 6.95184 6.9519 6.93067 6.97634 6.91372L12.5784 3.03042C12.6891 2.94116 12.8493 2.94972 12.9498 3.05025C13.0503 3.15079 13.0589 3.31096 12.9696 3.42163L9.08632 9.0237C9.06938 9.04815 9.04821 9.06937 9.02381 9.08638L3.43217 12.9836C3.31595 13.0646 3.15925 13.0526 3.05674 12.956C3.05455 12.954 3.05239 12.9519 3.05026 12.9497C3.04832 12.9478 3.04641 12.9458 3.04455 12.9439ZM6.18828 14.7615C6.05491 14.7257 5.97577 14.5886 6.0115 14.4553L6.14091 13.9723C6.17665 13.839 6.31373 13.7598 6.4471 13.7955C6.58046 13.8313 6.65961 13.9684 6.62387 14.1017L6.49446 14.5847C6.45873 14.7181 6.32165 14.7972 6.18828 14.7615ZM9.55292 2.20443C9.41956 2.16869 9.34041 2.03161 9.37615 1.89824L9.50556 1.41528C9.54129 1.28191 9.67838 1.20277 9.81174 1.2385C9.94511 1.27424 10.0243 1.41132 9.98852 1.54469L9.85911 2.02765C9.82338 2.16102 9.68629 2.24017 9.55292 2.20443Z" fill="black"/>
</svg>
