<svg width="16" height="16" viewBox="0 0 16 16" fill="none" xmlns="http://www.w3.org/2000/svg">
<path d="M9.48216 9.34108C9.41333 9.4033 9.31256 9.4944 9.31256 9.65C9.31256 9.8125 9.41881 9.975 9.61256 10.1062C10.4885 10.7188 12.133 10.6469 12.204 10.6438L12.2063 10.6438C12.8726 10.6433 13.5266 10.4642 14.1001 10.125C14.6774 9.78729 15.1565 9.30452 15.4898 8.72458C15.8231 8.14463 15.999 7.48764 16.0001 6.81875C16.0177 5.50262 15.5603 4.60076 15.3341 4.15471C15.3197 4.12631 15.3062 4.09969 15.2938 4.075C13.9626 1.4875 11.1063 3.9106e-08 8.00006 3.9106e-08C5.89768 -0.000207692 3.87971 0.827187 2.38261 2.30323C1.52269 3.15106 0.87432 4.17375 0.472583 5.28908C1.48812 4.04864 3.18363 3.26251 5.00008 3.26251C7.82976 3.26251 10.0101 5.14752 10.0101 8.06L10.0063 8.06002C10.0063 8.06085 10.0063 8.06168 10.0063 8.0625C10.0063 8.4 9.83756 8.89375 9.51881 9.30625L9.52506 9.3C9.51399 9.31231 9.49903 9.32583 9.48216 9.34108Z" fill="black"/>
<path d="M0.00913986 7.75275C0.0072606 7.79985 0.00631336 7.84686 0.00631336 7.89373C-0.00460006 9.10207 0.253737 10.2977 0.762563 11.3937C1.59586 13.1681 3.05165 14.5748 4.85358 15.3467C5.6247 15.6771 6.43623 15.8813 7.25809 15.9582C6.9869 15.8549 6.7242 15.7289 6.47289 15.5812H6.4637L6.34253 15.506C5.73083 15.1261 5.2005 14.6287 4.78216 14.0426C4.30587 13.39 3.97799 12.6412 3.82147 11.8485C3.66476 11.0549 3.68362 10.2366 3.87673 9.45111C4.06984 8.66558 4.43252 7.93183 4.93931 7.30135C5.4461 6.67086 6.08473 6.15893 6.81038 5.80146L6.81912 5.79726L6.84457 5.78529C7.0526 5.68725 7.4654 5.49271 8.01179 5.50002C8.14089 5.5011 8.26933 5.51207 8.39602 5.53268C8.10352 5.25302 7.76901 5.01737 7.40257 4.83528L7.39289 4.83033C6.34766 4.28229 5.19887 4.26251 5.00008 4.26251C2.56094 4.26251 0.175925 5.89716 0.00913986 7.75275Z" fill="black"/>
<path d="M10.2726 15.6646C10.3613 15.6384 10.4496 15.6106 10.5376 15.5812C10.4361 15.6133 10.3337 15.6418 10.2306 15.6669C10.2445 15.6662 10.2586 15.6654 10.2726 15.6646Z" fill="black"/>
<path d="M10.2277 15.667C10.3379 15.6392 10.4406 15.6102 10.5313 15.5813L10.6126 15.5562C12.3347 14.9611 13.8028 13.7972 14.7751 12.2563C14.8033 12.2094 14.8155 12.1546 14.8096 12.1003C14.8037 12.0459 14.7802 11.9949 14.7426 11.9552C14.705 11.9155 14.6554 11.8892 14.6015 11.8804C14.5475 11.8715 14.4921 11.8806 14.4438 11.9062C14.2293 12.0177 14.008 12.1159 13.7813 12.2C13.0635 12.4672 12.3035 12.6027 11.5376 12.6C8.58132 12.6 6.00632 10.5688 6.00632 7.95625C6.0078 7.82149 6.02311 7.68782 6.05166 7.55725C5.93425 7.67434 5.82308 7.79803 5.71873 7.92785C5.30335 8.44461 5.00609 9.04601 4.84782 9.68984C4.68954 10.3337 4.67408 11.0043 4.80252 11.6548C4.93096 12.3052 5.20019 12.9197 5.59131 13.455L5.5947 13.4597C5.90954 13.9013 6.30222 14.2813 6.7531 14.5812H6.75618L6.89988 14.6712C7.77687 15.2203 8.62105 15.7488 10.2277 15.667Z" fill="black"/>
</svg>
