<svg width="16" height="16" viewBox="0 0 16 16" fill="none" xmlns="http://www.w3.org/2000/svg">
<path d="M15.8254 0.12029C15.9935 0.264266 16.0469 0.501593 15.9567 0.703697C14.4262 4.13468 11.2138 8.8743 8.86227 11.3447C8.22716 12.012 7.54616 12.4205 7.02348 12.6626C6.81786 12.7578 6.63568 12.8278 6.48885 12.878C6.4711 13.1051 6.42878 13.4159 6.32843 13.7456C6.12786 14.4046 5.66245 15.2248 4.62136 15.4851C3.5492 15.7531 2.35462 15.7535 1.54292 15.6182C1.33748 15.584 1.14585 15.5393 0.980547 15.4834C0.825775 15.4311 0.650744 15.3548 0.514627 15.2357C0.443829 15.1737 0.360185 15.0799 0.311435 14.9481C0.258258 14.8043 0.259521 14.6486 0.315083 14.5051C0.410093 14.2596 0.631487 14.1253 0.776495 14.0528C1.16954 13.8563 1.40109 13.6002 1.64337 13.2275C1.73756 13.0826 1.82737 12.9298 1.93011 12.755C1.96705 12.6921 2.00566 12.6264 2.04674 12.5572C2.1982 12.3021 2.37307 12.0176 2.59324 11.7094C3.12105 10.9705 3.79396 10.7845 4.33889 10.8132C4.46509 10.8198 4.58224 10.8377 4.68713 10.8606C4.74935 10.6888 4.82884 10.4812 4.92515 10.253C5.18625 9.63422 5.58306 8.83431 6.1124 8.18428C8.28757 5.51317 12.2914 1.97796 15.2287 0.0800421C15.4146 -0.0400593 15.6573 -0.0236867 15.8254 0.12029Z" fill="black"/>
</svg>
