<svg width="16" height="16" viewBox="0 0 16 16" fill="none" xmlns="http://www.w3.org/2000/svg">
<path d="M2.52242 5H2C1.85445 5 1.71612 5.06343 1.62113 5.17372C1.52615 5.28402 1.48394 5.43022 1.50554 5.57417L2.87779 14.7225C2.98793 15.4568 3.6187 16 4.36119 16H11.6388C12.3813 16 13.0121 15.4568 13.1222 14.7225L14.4945 5.57417C14.5161 5.43022 14.4739 5.28402 14.3789 5.17372C14.2839 5.06343 14.1456 5 14 5H13.4776C13.225 2.19675 10.869 0 8 0C5.13098 0 2.77504 2.19675 2.52242 5ZM3.52747 5C3.77619 2.75002 5.68373 1 8 1C10.3163 1 12.2238 2.75002 12.4725 5H3.52747ZM13.4194 6L12.1333 14.5742C12.0966 14.8189 11.8863 15 11.6388 15H4.36119C4.11369 15 3.90344 14.8189 3.86672 14.5742L2.5806 6H13.4194Z" fill="black"/>
</svg>
