<svg width="16" height="16" viewBox="0 0 16 16" fill="none" xmlns="http://www.w3.org/2000/svg">
<path d="M4.97841 0.854671C4.89814 0.590452 4.61888 0.441331 4.35466 0.5216C4.09044 0.601868 3.94132 0.881131 4.02159 1.14535L4.43222 2.49702C3.54693 3.39867 3 4.63574 3 6H13C13 4.63574 12.4531 3.39867 11.5678 2.49702L11.9784 1.14535C12.0587 0.881131 11.9096 0.601868 11.6453 0.5216C11.3811 0.441331 11.1019 0.590452 11.0216 0.854671L10.731 1.81114C9.94592 1.29836 9.00743 1.00001 8 1.00001C6.99257 1.00001 6.05408 1.29836 5.26898 1.81114L4.97841 0.854671Z" fill="black"/>
<path d="M13 6V7H8.5V15.9753C11.0267 15.7245 13 13.5927 13 11H13.5C13.7761 11 14 11.2239 14 11.5V12C14 12.2762 14.2239 12.5 14.5 12.5C14.7761 12.5 15 12.2762 15 12V11.5C15 10.6716 14.3284 10 13.5 10H13V9.00001H14.5C14.7761 9.00001 15 8.77615 15 8.50001C15 8.22387 14.7761 8.00001 14.5 8.00001H13V7L13.5 7.00001C14.3284 7.00001 15 6.32844 15 5.50001V5.00001C15 4.72387 14.7761 4.50001 14.5 4.50001C14.2239 4.50001 14 4.72387 14 5.00001V5.50001C14 5.77615 13.7761 6.00001 13.5 6.00001L13 6Z" fill="black"/>
<path d="M7.5 15.9753V7H3V6L2.5 6.00001C2.22386 6.00001 2 5.77615 2 5.50001V5.00001C2 4.72387 1.77614 4.50001 1.5 4.50001C1.22386 4.50001 1 4.72387 1 5.00001V5.50001C1 6.32844 1.67157 7.00001 2.5 7.00001L3 7V8.00001H1.5C1.22386 8.00001 1 8.22387 1 8.50001C1 8.77615 1.22386 9.00001 1.5 9.00001H3V10H2.5C1.67157 10 1 10.6716 1 11.5V12C1 12.2762 1.22386 12.5 1.5 12.5C1.77614 12.5 2 12.2762 2 12V11.5C2 11.2239 2.22386 11 2.5 11H3C3 13.5927 4.97334 15.7245 7.5 15.9753Z" fill="black"/>
</svg>
