<svg width="16" height="16" viewBox="0 0 16 16" fill="none" xmlns="http://www.w3.org/2000/svg">
<path d="M2 1C2 0.447716 2.44771 0 3 0H13C13.5523 0 14 0.447715 14 1V8.76389C13.4692 8.28885 12.7684 8 12 8C10.3431 8 9 9.34315 9 11C9 11.088 9.00379 11.1751 9.01121 11.2611C8.7026 11.437 8.44536 11.6926 8.26756 12H6.5C6.22386 12 6 12.2239 6 12.5V16H3C2.44772 16 2 15.5523 2 15V1ZM4 2.5V3.5C4 3.77614 4.22386 4 4.5 4H5.5C5.77614 4 6 3.77614 6 3.5V2.5C6 2.22386 5.77614 2 5.5 2H4.5C4.22386 2 4 2.22386 4 2.5ZM7 2.5V3.5C7 3.77614 7.22386 4 7.5 4H8.5C8.77614 4 9 3.77614 9 3.5V2.5C9 2.22386 8.77614 2 8.5 2H7.5C7.22386 2 7 2.22386 7 2.5ZM10.5 2C10.2239 2 10 2.22386 10 2.5V3.5C10 3.77614 10.2239 4 10.5 4H11.5C11.7761 4 12 3.77614 12 3.5V2.5C12 2.22386 11.7761 2 11.5 2H10.5ZM4 5.5V6.5C4 6.77614 4.22386 7 4.5 7H5.5C5.77614 7 6 6.77614 6 6.5V5.5C6 5.22386 5.77614 5 5.5 5H4.5C4.22386 5 4 5.22386 4 5.5ZM7.5 5C7.22386 5 7 5.22386 7 5.5V6.5C7 6.77614 7.22386 7 7.5 7H8.5C8.77614 7 9 6.77614 9 6.5V5.5C9 5.22386 8.77614 5 8.5 5H7.5ZM10 5.5V6.5C10 6.77614 10.2239 7 10.5 7H11.5C11.7761 7 12 6.77614 12 6.5V5.5C12 5.22386 11.7761 5 11.5 5H10.5C10.2239 5 10 5.22386 10 5.5ZM4.5 8C4.22386 8 4 8.22386 4 8.5V9.5C4 9.77614 4.22386 10 4.5 10H5.5C5.77614 10 6 9.77614 6 9.5V8.5C6 8.22386 5.77614 8 5.5 8H4.5ZM7 8.5V9.5C7 9.77614 7.22386 10 7.5 10H8.5C8.77614 10 9 9.77614 9 9.5V8.5C9 8.22386 8.77614 8 8.5 8H7.5C7.22386 8 7 8.22386 7 8.5Z" fill="black"/>
<path d="M9 13C9 12.4477 9.44772 12 10 12V11C10 9.89543 10.8954 9 12 9C13.1046 9 14 9.89543 14 11V12C14.5523 12 15 12.4477 15 13V15C15 15.5523 14.5523 16 14 16H10C9.44772 16 9 15.5523 9 15V13ZM12 10C11.4477 10 11 10.4477 11 11V12H13V11C13 10.4477 12.5523 10 12 10Z" fill="black"/>
</svg>
