<svg width="16" height="16" viewBox="0 0 16 16" fill="none" xmlns="http://www.w3.org/2000/svg">
<path d="M15 0.500001C15 0.326712 14.9103 0.165778 14.7629 0.0746751C14.6155 -0.0164282 14.4314 -0.0247102 14.2764 0.0527869L6.27639 4.05279C6.107 4.13748 6 4.31061 6 4.5V7.63962L0.341886 9.52566C0.137715 9.59372 0 9.78479 0 10V15.5C0 15.7761 0.223858 16 0.5 16H9.5C9.77614 16 10 15.7761 10 15.5V14H11V15.5C11 15.7761 11.2239 16 11.5 16H14.5C14.7761 16 15 15.7761 15 15.5V0.500001ZM2 11H3V12H2V11ZM4 11H5V12H4V11ZM3 13V14H2V13H3ZM4 13H5V14H4V13ZM13 3V4H12V3H13ZM8 5H9V6H8V5ZM9 7V8H8V7H9ZM8 9H9V10H8V9ZM10 9H11V10H10V9ZM9 11V12H8V11H9ZM10 11H11V12H10V11ZM13 9V10H12V9H13ZM12 11H13V12H12V11ZM10 7H11V8H10V7ZM13 7V8H12V7H13ZM11 5V6H10V5H11ZM12 5H13V6H12V5Z" fill="black"/>
</svg>
