<svg width="16" height="16" viewBox="0 0 16 16" fill="none" xmlns="http://www.w3.org/2000/svg">
<path d="M12.5 16C14.433 16 16 14.433 16 12.5C16 10.567 14.433 9 12.5 9C10.567 9 9 10.567 9 12.5C9 14.433 10.567 16 12.5 16ZM12.8536 10.1464L14.3536 11.6464C14.5488 11.8417 14.5488 12.1583 14.3536 12.3536C14.1583 12.5488 13.8417 12.5488 13.6464 12.3536L13 11.7071V14.5C13 14.7761 12.7761 15 12.5 15C12.2239 15 12 14.7761 12 14.5V11.7071L11.3536 12.3536C11.1583 12.5488 10.8417 12.5488 10.6464 12.3536C10.4512 12.1583 10.4512 11.8417 10.6464 11.6464L12.1464 10.1464C12.2402 10.0527 12.3674 10 12.5 10C12.6326 10 12.7598 10.0527 12.8536 10.1464Z" fill="black"/>
<path d="M2 1C2 0.447716 2.44771 0 3 0H13C13.5523 0 14 0.447715 14 1V8.25606C13.5308 8.09023 13.026 8 12.5 8C11.0337 8 9.73115 8.70134 8.90957 9.78686C8.96656 9.70566 9 9.60674 9 9.5V8.5C9 8.22386 8.77614 8 8.5 8H7.5C7.22386 8 7 8.22386 7 8.5V9.5C7 9.77614 7.22386 10 7.5 10H8.5C8.65773 10 8.79841 9.92696 8.89005 9.81286C8.42476 10.4369 8.11748 11.1857 8.02746 12H6.5C6.22386 12 6 12.2239 6 12.5V16H3C2.44772 16 2 15.5523 2 15V1ZM4 2.5V3.5C4 3.77614 4.22386 4 4.5 4H5.5C5.77614 4 6 3.77614 6 3.5V2.5C6 2.22386 5.77614 2 5.5 2H4.5C4.22386 2 4 2.22386 4 2.5ZM7 2.5V3.5C7 3.77614 7.22386 4 7.5 4H8.5C8.77614 4 9 3.77614 9 3.5V2.5C9 2.22386 8.77614 2 8.5 2H7.5C7.22386 2 7 2.22386 7 2.5ZM10.5 2C10.2239 2 10 2.22386 10 2.5V3.5C10 3.77614 10.2239 4 10.5 4H11.5C11.7761 4 12 3.77614 12 3.5V2.5C12 2.22386 11.7761 2 11.5 2H10.5ZM4 5.5V6.5C4 6.77614 4.22386 7 4.5 7H5.5C5.77614 7 6 6.77614 6 6.5V5.5C6 5.22386 5.77614 5 5.5 5H4.5C4.22386 5 4 5.22386 4 5.5ZM7.5 5C7.22386 5 7 5.22386 7 5.5V6.5C7 6.77614 7.22386 7 7.5 7H8.5C8.77614 7 9 6.77614 9 6.5V5.5C9 5.22386 8.77614 5 8.5 5H7.5ZM10 5.5V6.5C10 6.77614 10.2239 7 10.5 7H11.5C11.7761 7 12 6.77614 12 6.5V5.5C12 5.22386 11.7761 5 11.5 5H10.5C10.2239 5 10 5.22386 10 5.5ZM4.5 8C4.22386 8 4 8.22386 4 8.5V9.5C4 9.77614 4.22386 10 4.5 10H5.5C5.77614 10 6 9.77614 6 9.5V8.5C6 8.22386 5.77614 8 5.5 8H4.5Z" fill="black"/>
</svg>
