<svg width="16" height="16" viewBox="0 0 16 16" fill="none" xmlns="http://www.w3.org/2000/svg">
<path d="M8 15C4.13401 15 1 11.866 1 8C1 4.13401 4.13401 1 8 1C11.866 1 15 4.13401 15 8C15 11.866 11.866 15 8 15ZM8 16C12.4183 16 16 12.4183 16 8C16 3.58172 12.4183 0 8 0C3.58172 0 0 3.58172 0 8C0 12.4183 3.58172 16 8 16Z" fill="black"/>
<path d="M8 13C5.23858 13 3 10.7614 3 8C3 5.23858 5.23858 3 8 3C10.7614 3 13 5.23858 13 8C13 10.7614 10.7614 13 8 13ZM8 14C11.3137 14 14 11.3137 14 8C14 4.68629 11.3137 2 8 2C4.68629 2 2 4.68629 2 8C2 11.3137 4.68629 14 8 14Z" fill="black"/>
<path d="M8 11C6.34315 11 5 9.65685 5 8C5 6.34315 6.34315 5 8 5C9.65685 5 11 6.34315 11 8C11 9.65685 9.65685 11 8 11ZM8 12C10.2091 12 12 10.2091 12 8C12 5.79086 10.2091 4 8 4C5.79086 4 4 5.79086 4 8C4 10.2091 5.79086 12 8 12Z" fill="black"/>
<path d="M9.50002 8C9.50002 8.82843 8.82845 9.5 8.00002 9.5C7.17159 9.5 6.50002 8.82843 6.50002 8C6.50002 7.17157 7.17159 6.5 8.00002 6.5C8.82845 6.5 9.50002 7.17157 9.50002 8Z" fill="black"/>
</svg>
