<svg width="16" height="16" viewBox="0 0 16 16" fill="none" xmlns="http://www.w3.org/2000/svg">
<path d="M5 11C5 11.5523 4.55228 12 4 12C3.44772 12 3 11.5523 3 11C3 10.4477 3.44772 10 4 10C4.55228 10 5 10.4477 5 11Z" fill="black"/>
<path d="M13 11C13 11.5523 12.5523 12 12 12C11.4477 12 11 11.5523 11 11C11 10.4477 11.4477 10 12 10C12.5523 10 13 10.4477 13 11Z" fill="black"/>
<path d="M7 10C6.44772 10 6 10.4477 6 11C6 11.5523 6.44772 12 7 12H9C9.55228 12 10 11.5523 10 11C10 10.4477 9.55228 10 9 10H7Z" fill="black"/>
<path d="M8 4C6.12439 4 4.57371 4.1088 3.4483 4.2258C3.19354 4.25229 3 4.467 3 4.72312V8.27683C3 8.53295 3.19354 8.74766 3.4483 8.77415C4.57371 8.89115 6.12439 8.99995 8 8.99995C9.87561 8.99995 11.4263 8.89115 12.5517 8.77415C12.8065 8.74766 13 8.53295 13 8.27683V4.72312C13 4.467 12.8065 4.25229 12.5517 4.2258C11.4263 4.1088 9.87561 4 8 4Z" fill="black"/>
<path d="M8 3C6.1628 3 4.64684 3.10659 3.5517 3.22044C3.27704 3.249 3.03123 3.04949 3.00268 2.77483C2.97413 2.50016 3.17364 2.25436 3.4483 2.2258C4.57371 2.1088 6.12439 2 8 2C9.87561 2 11.4263 2.1088 12.5517 2.2258C12.8264 2.25436 13.0259 2.50016 12.9973 2.77483C12.9688 3.04949 12.723 3.249 12.4483 3.22044C11.3532 3.10659 9.8372 3 8 3Z" fill="black"/>
<path d="M15 8C15.5523 8 16 7.55228 16 7V5C16 4.44772 15.5523 4 15 4V2.63961C15 1.45165 14.1546 0.407903 12.9362 0.267862C11.7916 0.136304 10.0993 0 8 0C5.90068 0 4.20839 0.136303 3.0638 0.267862C1.84541 0.407902 1 1.45165 1 2.63961V4C0.447715 4 0 4.44772 0 5V7C0 7.55228 0.447715 8 1 8V11.5C1 12.3179 1.39278 13.0441 2 13.5002V15.5C2 15.7761 2.22386 16 2.5 16H4.5C4.77614 16 5 15.7761 5 15.5V14H11V15.5C11 15.7761 11.2239 16 11.5 16H13.5C13.7761 16 14 15.7761 14 15.5V13.5002C14.6072 13.0441 15 12.3179 15 11.5V8ZM8 1C10.0564 1 11.7103 1.13354 12.822 1.26132C13.4979 1.339 14 1.92084 14 2.63961V11.5C14 12.3284 13.3284 13 12.5 13H3.5C2.67157 13 2 12.3284 2 11.5V2.63961C2 1.92084 2.50212 1.339 3.17799 1.26132C4.28971 1.13354 5.9436 1 8 1Z" fill="black"/>
</svg>
