<svg width="16" height="16" viewBox="0 0 16 16" fill="none" xmlns="http://www.w3.org/2000/svg">
<path d="M16 7C16 7.55228 15.5523 8 15 8V11.5C15 12.3179 14.6072 13.0441 14 13.5002V15.5C14 15.7761 13.7761 16 13.5 16H11.5C11.2239 16 11 15.7761 11 15.5V14H5V15.5C5 15.7761 4.77614 16 4.5 16H2.5C2.22386 16 2 15.7761 2 15.5V13.5002C1.39278 13.0441 1 12.3179 1 11.5V8C0.447715 8 0 7.55228 0 7V5C0 4.44772 0.447715 4 1 4V2.63961C1 1.45165 1.84541 0.407902 3.0638 0.267862C4.20839 0.136303 5.90068 0 8 0C10.0993 0 11.7916 0.136304 12.9362 0.267862C14.1546 0.407903 15 1.45165 15 2.63961V4C15.5523 4 16 4.44772 16 5V7ZM3.55168 3.22044C4.64681 3.10659 6.16277 3 7.99998 3C9.83718 3 11.3531 3.10659 12.4483 3.22044C12.7229 3.249 12.9687 3.04949 12.9973 2.77483C13.0259 2.50016 12.8263 2.25436 12.5517 2.2258C11.4263 2.1088 9.87559 2 7.99998 2C6.12437 2 4.57369 2.1088 3.44828 2.2258C3.17361 2.25436 2.9741 2.50016 3.00266 2.77483C3.03121 3.04949 3.27702 3.249 3.55168 3.22044ZM7.99998 4C6.12437 4 4.57369 4.1088 3.44828 4.2258C3.19352 4.25229 2.99998 4.467 2.99998 4.72312V8.27683C2.99998 8.53295 3.19352 8.74766 3.44828 8.77415C4.57369 8.89115 6.12437 8.99995 7.99998 8.99995C9.87559 8.99995 11.4263 8.89115 12.5517 8.77415C12.8064 8.74766 13 8.53295 13 8.27683V4.72312C13 4.467 12.8064 4.25229 12.5517 4.2258C11.4263 4.1088 9.87559 4 7.99998 4ZM4.99998 11C4.99998 10.4477 4.55226 10 3.99998 10C3.44769 10 2.99998 10.4477 2.99998 11C2.99998 11.5523 3.44769 12 3.99998 12C4.55226 12 4.99998 11.5523 4.99998 11ZM13 11C13 10.4477 12.5523 10 12 10C11.4477 10 11 10.4477 11 11C11 11.5523 11.4477 12 12 12C12.5523 12 13 11.5523 13 11ZM5.99998 11C5.99998 11.5523 6.44769 12 6.99998 12H8.99998C9.55226 12 9.99998 11.5523 9.99998 11C9.99998 10.4477 9.55226 10 8.99998 10H6.99998C6.44769 10 5.99998 10.4477 5.99998 11Z" fill="black"/>
</svg>
