<svg width="16" height="16" viewBox="0 0 16 16" fill="none" xmlns="http://www.w3.org/2000/svg">
<path d="M16 8C16 12.4183 12.4183 16 8 16C3.58172 16 0 12.4183 0 8C0 3.58172 3.58172 0 8 0C12.4183 0 16 3.58172 16 8ZM8.14648 4.99219C9.10742 4.99219 9.78711 5.625 9.875 6.50391H11.1699V6.41602C11.0762 4.89844 9.82227 3.84375 8.14062 3.84375C6.07227 3.84375 4.87109 5.2207 4.87109 7.48242V8.55469C4.87109 10.8223 6.04883 12.1582 8.14062 12.1582C9.81641 12.1582 11.0703 11.1387 11.1699 9.69141V9.59766H9.875C9.78711 10.4297 9.125 11.0156 8.14648 11.0156C6.92188 11.0156 6.21875 10.125 6.21875 8.55469V7.49414C6.21875 5.91211 6.93359 4.99219 8.14648 4.99219Z" fill="black"/>
</svg>
