<svg width="16" height="16" viewBox="0 0 16 16" fill="none" xmlns="http://www.w3.org/2000/svg">
<path d="M2 0C0.895431 0 0 0.895431 0 2V14C0 15.1046 0.895431 16 2 16H14C15.1046 16 16 15.1046 16 14V2C16 0.895431 15.1046 0 14 0H2ZM8.14648 4.99219C6.93359 4.99219 6.21875 5.91211 6.21875 7.49414V8.55469C6.21875 10.125 6.92188 11.0156 8.14648 11.0156C9.125 11.0156 9.78711 10.4297 9.875 9.59766H11.1699V9.69141C11.0703 11.1387 9.81641 12.1582 8.14062 12.1582C6.04883 12.1582 4.87109 10.8223 4.87109 8.55469V7.48242C4.87109 5.2207 6.07227 3.84375 8.14062 3.84375C9.82227 3.84375 11.0762 4.89844 11.1699 6.41602V6.50391H9.875C9.78711 5.625 9.10742 4.99219 8.14648 4.99219Z" fill="black"/>
</svg>
