<svg width="16" height="16" viewBox="0 0 16 16" fill="none" xmlns="http://www.w3.org/2000/svg">
<path d="M7.39893 0.803916L7.99373 0.0125L8.5917 0.801526C8.84283 1.13289 8.7657 1.56142 8.5 1.80601V4H11C12.1046 4 13 4.89543 13 6V9H14C15.1046 9 16 9.89543 16 11V15C16 15.5523 15.5523 16 15 16H1C0.447716 16 0 15.5523 0 15V11C0 9.89543 0.895431 9 2 9H3V6C3 4.89543 3.89543 4 5 4H7.5V1.81285C7.22895 1.57016 7.14757 1.13835 7.39893 0.803916ZM12 6.41424C11.766 6.41424 11.5321 6.32499 11.3536 6.14648C10.606 5.39893 9.39399 5.39893 8.64645 6.14648C8.28942 6.5035 7.71058 6.5035 7.35355 6.14648C6.60601 5.39893 5.39399 5.39893 4.64645 6.14648C4.46794 6.32499 4.23397 6.41424 4 6.41424V7.41424C4.48989 7.41424 4.97978 7.22736 5.35355 6.85358C5.71058 6.49656 6.28942 6.49656 6.64645 6.85358C7.39399 7.60113 8.60601 7.60113 9.35355 6.85358C9.71058 6.49656 10.2894 6.49656 10.6464 6.85358C11.0202 7.22735 11.5101 7.41424 12 7.41424V6.41424ZM14.6464 12.1465C14.2894 12.5035 13.7106 12.5035 13.3535 12.1465C12.606 11.3989 11.394 11.3989 10.6464 12.1465C10.2894 12.5035 9.71055 12.5035 9.35353 12.1465C8.60598 11.3989 7.39397 11.3989 6.64642 12.1465C6.2894 12.5035 5.71055 12.5035 5.35353 12.1465C4.60598 11.3989 3.39397 11.3989 2.64642 12.1465C2.2894 12.5035 1.71055 12.5035 1.35353 12.1465L1 11.7929V13.1328C1.73739 13.5852 2.71493 13.4922 3.35353 12.8536C3.71055 12.4966 4.2894 12.4966 4.64642 12.8536C5.39397 13.6011 6.60598 13.6011 7.35353 12.8536C7.71055 12.4966 8.2894 12.4966 8.64642 12.8536C9.39397 13.6011 10.606 13.6011 11.3535 12.8536C11.7106 12.4966 12.2894 12.4966 12.6464 12.8536C13.285 13.4922 14.2626 13.5853 15 13.1328V11.7929L14.6464 12.1465Z" fill="black"/>
</svg>
