<svg width="16" height="16" viewBox="0 0 16 16" fill="none" xmlns="http://www.w3.org/2000/svg">
<path d="M2.89905 0.803916L3.49385 0.0125L4.09183 0.801526C4.34295 1.13289 4.26582 1.56142 4.00012 1.80601V6.69212C3.64562 6.6324 3.31118 6.56498 3.00012 6.49074V1.81285C2.72907 1.57016 2.6477 1.13835 2.89905 0.803916Z" fill="black"/>
<path d="M13.0001 1.80601V6.49074C12.6891 6.56498 12.3546 6.6324 12.0001 6.69212V1.81285C11.7291 1.57016 11.6477 1.13835 11.899 0.803916L12.4939 0.0125L13.0918 0.801526C13.343 1.13289 13.2658 1.56142 13.0001 1.80601Z" fill="black"/>
<path d="M10.0001 1.80601C10.2658 1.56142 10.343 1.13289 10.0918 0.801526L9.49385 0.0125L8.89905 0.803916C8.6477 1.13835 8.72907 1.57016 9.00012 1.81285V6.98238C9.34124 6.97026 9.6751 6.95202 10.0001 6.9281V1.80601Z" fill="black"/>
<path d="M7.00012 1.80601V6.98238C6.65901 6.97026 6.32514 6.95202 6.00012 6.9281V1.81285C5.72907 1.57016 5.6477 1.13835 5.89905 0.803916L6.49385 0.0125L7.09183 0.801526C7.34295 1.13289 7.26582 1.56142 7.00012 1.80601Z" fill="black"/>
<path d="M4.50009 6.98772V4.2258C4.82159 4.1816 5.15559 4.14337 5.50009 4.11158V7.16034C5.50009 7.29129 5.60114 7.40006 5.73174 7.40967L5.96339 7.42672C6.29484 7.45111 6.63502 7.46969 6.98233 7.48203L7.24121 7.49122C7.38267 7.49625 7.50009 7.38293 7.50009 7.24138V4.00425C7.66546 4.0014 7.83215 3.99995 8 3.99995C8.16791 3.99995 8.33466 4.0014 8.50009 4.00425V7.24138C8.50009 7.38293 8.6175 7.49625 8.75896 7.49122L9.01784 7.48203C9.36515 7.46969 9.70534 7.45111 10.0368 7.42672L10.2684 7.40967C10.399 7.40006 10.5001 7.29129 10.5001 7.16034V4.11159C10.8446 4.14339 11.1786 4.18162 11.5001 4.22582V6.98772C11.5001 7.14238 11.6391 7.25993 11.7916 7.23424L12.0831 7.18513C12.4475 7.12376 12.793 7.05416 13.1162 6.97704L13.3081 6.93122C13.4207 6.90436 13.5001 6.80377 13.5001 6.68806V4.62097C14.1725 4.80473 14.7514 5.03004 15.1773 5.29851C15.5924 5.56021 16 5.95362 16 6.49995V13.5C16 14.0463 15.5924 14.4397 15.1773 14.7014C14.7372 14.9789 14.1335 15.2102 13.4321 15.3973C12.022 15.7733 10.1016 16 8 16C5.89836 16 3.97801 15.7733 2.56787 15.3973C1.86646 15.2102 1.26283 14.9789 0.822726 14.7014C0.407633 14.4397 0 14.0463 0 13.5V6.49995C0 5.95362 0.407633 5.56021 0.822726 5.29851C1.24859 5.03001 1.82756 4.80469 2.50009 4.62092V6.68806C2.50009 6.80377 2.5795 6.90436 2.69205 6.93122L2.88401 6.97704C3.20715 7.05416 3.55267 7.12376 3.91703 7.18513L4.20856 7.23424C4.36107 7.25993 4.50009 7.14238 4.50009 6.98772ZM1 8.82092V10.4797C1.57728 11.1165 2.51611 11.301 3.29835 10.9098C3.65839 10.7298 4.09321 10.8004 4.37784 11.085L4.7265 11.4337C5.43028 12.1374 6.54447 12.2166 7.34071 11.6194L7.39996 11.575C7.75551 11.3083 8.2444 11.3083 8.59996 11.575L8.6592 11.6194C9.45544 12.2166 10.5696 12.1374 11.2734 11.4337L11.6208 11.0863C11.9062 10.8009 12.3422 10.7301 12.7032 10.9106C13.4842 11.3011 14.4214 11.1187 15 10.4849V8.83329L14.3199 9.74013C14.048 10.1027 13.5557 10.2189 13.1504 10.0162C12.4044 9.64322 11.5034 9.78942 10.9137 10.3792L10.5663 10.7266C10.2144 11.0784 9.65732 11.118 9.2592 10.8194L9.19995 10.775C8.48884 10.2417 7.51107 10.2417 6.79996 10.775L6.74071 10.8194C6.34259 11.118 5.7855 11.0784 5.4336 10.7266L5.08495 10.3779C4.49596 9.78891 3.59616 9.64289 2.85114 10.0154C2.44589 10.218 1.95368 10.101 1.68299 9.73767L1 8.82092Z" fill="black"/>
</svg>
