<svg width="16" height="16" viewBox="0 0 16 16" fill="none" xmlns="http://www.w3.org/2000/svg">
<path d="M3.49373 0.0125L2.89893 0.803916C2.64757 1.13835 2.72895 1.57016 3 1.81285V4.49577C2.8512 4.52989 2.70705 4.56555 2.56787 4.60267C1.86646 4.78971 1.26283 5.02108 0.822726 5.29855C0.407633 5.56026 0 5.95367 0 6.5V13.5C0 14.0463 0.407633 14.4397 0.822726 14.7014C1.26283 14.9789 1.86646 15.2103 2.56787 15.3973C3.97801 15.7734 5.89836 16 8 16C10.1016 16 12.022 15.7734 13.4321 15.3973C14.1335 15.2103 14.7372 14.9789 15.1773 14.7014C15.5924 14.4397 16 14.0463 16 13.5V6.5C16 5.95367 15.5924 5.56026 15.1773 5.29855C14.7372 5.02108 14.1335 4.78971 13.4321 4.60267C13.293 4.56555 13.1488 4.5299 13 4.49577V1.80601C13.2657 1.56142 13.3428 1.13289 13.0917 0.801526L12.4937 0.0125L11.8989 0.803916C11.6476 1.13835 11.729 1.57016 12 1.81285V4.30104C11.3825 4.19992 10.7105 4.12184 10 4.07057V1.80601C10.2657 1.56142 10.3428 1.13289 10.0917 0.801526L9.49373 0.0125L8.89893 0.803916C8.64757 1.13835 8.72895 1.57016 9 1.81285V4.01731C8.67229 4.00588 8.33849 4 8 4C7.66151 4 7.32771 4.00588 7 4.01731V1.80601C7.2657 1.56142 7.34283 1.13289 7.0917 0.801526L6.49373 0.0125L5.89893 0.803916C5.64757 1.13835 5.72895 1.57016 6 1.81285V4.07057C5.28948 4.12184 4.61749 4.19992 4 4.30104V1.80601C4.2657 1.56142 4.34283 1.13289 4.0917 0.801526L3.49373 0.0125ZM2.82553 5.5689C2.88269 5.55366 2.94085 5.53866 3 5.52392V6.49074C3.31106 6.56498 3.6455 6.6324 4 6.69212V5.31513C4.60679 5.20983 5.27955 5.12739 6 5.07328V6.9281C6.32502 6.95202 6.65889 6.97026 7 6.98238V5.01794C7.32652 5.00613 7.66034 5 8 5C8.33966 5 8.67348 5.00613 9 5.01794V6.98238C9.34111 6.97026 9.67498 6.95202 10 6.9281V5.07328C10.7205 5.12739 11.3932 5.20983 12 5.31513V6.69212C12.3545 6.6324 12.6889 6.56498 13 6.49074V5.52392C13.0591 5.53866 13.1173 5.55366 13.1745 5.5689C13.8303 5.74379 14.325 5.94338 14.644 6.14447C14.9879 6.36132 15 6.49405 15 6.5C15 6.50595 14.9879 6.63868 14.644 6.85553C14.325 7.05662 13.8303 7.25621 13.1745 7.4311C11.8701 7.77892 10.0405 8 8 8C5.95951 8 4.12986 7.77892 2.82553 7.4311C2.16971 7.25621 1.67499 7.05662 1.35605 6.85553C1.0121 6.63868 1 6.50595 1 6.5C1 6.49405 1.0121 6.36132 1.35605 6.14447C1.67499 5.94338 2.16971 5.74379 2.82553 5.5689ZM15 7.80594V8.83329L14.3199 9.74013C14.048 10.1027 13.5557 10.2189 13.1504 10.0162C12.4044 9.64322 11.5034 9.78942 10.9137 10.3792L10.5663 10.7266C10.2144 11.0784 9.65732 11.118 9.2592 10.8194L9.19995 10.775C8.48884 10.2417 7.51107 10.2417 6.79996 10.775L6.74071 10.8194C6.34259 11.118 5.7855 11.0784 5.4336 10.7266L5.08495 10.3779C4.49596 9.78891 3.59616 9.64289 2.85114 10.0154C2.44589 10.218 1.95368 10.101 1.68299 9.73767L1 8.82092V7.80594C1.41928 8.03754 1.95642 8.23428 2.56787 8.39733C3.97801 8.77337 5.89836 9 8 9C10.1016 9 12.022 8.77337 13.4321 8.39733C14.0436 8.23428 14.5807 8.03754 15 7.80594ZM15 10.4849V13.5C15 13.506 14.9879 13.6387 14.644 13.8555C14.325 14.0566 13.8303 14.2562 13.1745 14.4311C11.8701 14.7789 10.0405 15 8 15C5.95951 15 4.12986 14.7789 2.82553 14.4311C2.16971 14.2562 1.67499 14.0566 1.35605 13.8555C1.0121 13.6387 1 13.506 1 13.5V10.4797C1.57728 11.1165 2.51611 11.301 3.29835 10.9098C3.65839 10.7298 4.09321 10.8004 4.37784 11.085L4.7265 11.4337C5.43028 12.1374 6.54447 12.2166 7.34071 11.6194L7.39996 11.575C7.75551 11.3083 8.2444 11.3083 8.59996 11.575L8.6592 11.6194C9.45544 12.2166 10.5696 12.1374 11.2734 11.4337L11.6208 11.0863C11.9062 10.8009 12.3422 10.7301 12.7032 10.9106C13.4842 11.3011 14.4214 11.1187 15 10.4849Z" fill="black"/>
</svg>
