<svg width="16" height="16" viewBox="0 0 16 16" fill="none" xmlns="http://www.w3.org/2000/svg">
<path d="M2 2C2 0.895431 2.89543 0 4 0H12C13.1046 0 14 0.895431 14 2V14C14 15.1046 13.1046 16 12 16H4C2.89543 16 2 15.1046 2 14V2ZM4 2.5V4.5C4 4.77614 4.22386 5 4.5 5H11.5C11.7761 5 12 4.77614 12 4.5V2.5C12 2.22386 11.7761 2 11.5 2H4.5C4.22386 2 4 2.22386 4 2.5ZM4 6.5V7.5C4 7.77614 4.22386 8 4.5 8H5.5C5.77614 8 6 7.77614 6 7.5V6.5C6 6.22386 5.77614 6 5.5 6H4.5C4.22386 6 4 6.22386 4 6.5ZM4.5 9C4.22386 9 4 9.22386 4 9.5V10.5C4 10.7761 4.22386 11 4.5 11H5.5C5.77614 11 6 10.7761 6 10.5V9.5C6 9.22386 5.77614 9 5.5 9H4.5ZM4 12.5V13.5C4 13.7761 4.22386 14 4.5 14H5.5C5.77614 14 6 13.7761 6 13.5V12.5C6 12.2239 5.77614 12 5.5 12H4.5C4.22386 12 4 12.2239 4 12.5ZM7.5 6C7.22386 6 7 6.22386 7 6.5V7.5C7 7.77614 7.22386 8 7.5 8H8.5C8.77614 8 9 7.77614 9 7.5V6.5C9 6.22386 8.77614 6 8.5 6H7.5ZM7 9.5V10.5C7 10.7761 7.22386 11 7.5 11H8.5C8.77614 11 9 10.7761 9 10.5V9.5C9 9.22386 8.77614 9 8.5 9H7.5C7.22386 9 7 9.22386 7 9.5ZM7.5 12C7.22386 12 7 12.2239 7 12.5V13.5C7 13.7761 7.22386 14 7.5 14H8.5C8.77614 14 9 13.7761 9 13.5V12.5C9 12.2239 8.77614 12 8.5 12H7.5ZM10 6.5V7.5C10 7.77614 10.2239 8 10.5 8H11.5C11.7761 8 12 7.77614 12 7.5V6.5C12 6.22386 11.7761 6 11.5 6H10.5C10.2239 6 10 6.22386 10 6.5ZM10.5 9C10.2239 9 10 9.22386 10 9.5V13.5C10 13.7761 10.2239 14 10.5 14H11.5C11.7761 14 12 13.7761 12 13.5V9.5C12 9.22386 11.7761 9 11.5 9H10.5Z" fill="black"/>
</svg>
