<svg width="16" height="16" viewBox="0 0 16 16" fill="none" xmlns="http://www.w3.org/2000/svg">
<path d="M4 0.5C4 0.223858 3.77614 0 3.5 0C3.22386 0 3 0.223858 3 0.5V1H2C0.895431 1 0 1.89543 0 3V4H16V3C16 1.89543 15.1046 1 14 1H13V0.5C13 0.223858 12.7761 0 12.5 0C12.2239 0 12 0.223858 12 0.5V1H4V0.5Z" fill="black"/>
<path d="M16 14V5H0V14C0 15.1046 0.895431 16 2 16H14C15.1046 16 16 15.1046 16 14ZM6.85355 8.14645L8 9.29289L9.14645 8.14645C9.34171 7.95118 9.65829 7.95118 9.85355 8.14645C10.0488 8.34171 10.0488 8.65829 9.85355 8.85355L8.70711 10L9.85355 11.1464C10.0488 11.3417 10.0488 11.6583 9.85355 11.8536C9.65829 12.0488 9.34171 12.0488 9.14645 11.8536L8 10.7071L6.85355 11.8536C6.65829 12.0488 6.34171 12.0488 6.14645 11.8536C5.95118 11.6583 5.95118 11.3417 6.14645 11.1464L7.29289 10L6.14645 8.85355C5.95118 8.65829 5.95118 8.34171 6.14645 8.14645C6.34171 7.95118 6.65829 7.95118 6.85355 8.14645Z" fill="black"/>
</svg>
