<svg width="16" height="16" viewBox="0 0 16 16" fill="none" xmlns="http://www.w3.org/2000/svg">
<path d="M6.14645 7.14645C6.34171 6.95118 6.65829 6.95118 6.85355 7.14645L8 8.29289L9.14645 7.14645C9.34171 6.95118 9.65829 6.95118 9.85355 7.14645C10.0488 7.34171 10.0488 7.65829 9.85355 7.85355L8.70711 9L9.85355 10.1464C10.0488 10.3417 10.0488 10.6583 9.85355 10.8536C9.65829 11.0488 9.34171 11.0488 9.14645 10.8536L8 9.70711L6.85355 10.8536C6.65829 11.0488 6.34171 11.0488 6.14645 10.8536C5.95118 10.6583 5.95118 10.3417 6.14645 10.1464L7.29289 9L6.14645 7.85355C5.95118 7.65829 5.95118 7.34171 6.14645 7.14645Z" fill="black"/>
<path d="M3.5 0C3.77614 0 4 0.223858 4 0.5V1H12V0.5C12 0.223858 12.2239 0 12.5 0C12.7761 0 13 0.223858 13 0.5V1H14C15.1046 1 16 1.89543 16 3V14C16 15.1046 15.1046 16 14 16H2C0.895431 16 0 15.1046 0 14V3C0 1.89543 0.895431 1 2 1H3V0.5C3 0.223858 3.22386 0 3.5 0ZM1 4V14C1 14.5523 1.44772 15 2 15H14C14.5523 15 15 14.5523 15 14V4H1Z" fill="black"/>
</svg>
