<svg width="16" height="16" viewBox="0 0 16 16" fill="none" xmlns="http://www.w3.org/2000/svg">
<path d="M4 0.5C4 0.223858 3.77614 0 3.5 0C3.22386 0 3 0.223858 3 0.5V1H2C0.895431 1 0 1.89543 0 3V14C0 15.1046 0.895431 16 2 16H14C15.1046 16 16 15.1046 16 14V3C16 1.89543 15.1046 1 14 1H13V0.5C13 0.223858 12.7761 0 12.5 0C12.2239 0 12 0.223858 12 0.5V1H4V0.5ZM2 4.5V3.5C2 3.22386 2.24421 3 2.54545 3H13.4545C13.7558 3 14 3.22386 14 3.5V4.5C14 4.77614 13.7558 5 13.4545 5H2.54545C2.24421 5 2 4.77614 2 4.5ZM8 7.99275C9.66439 6.282 13.8254 9.27581 8 13.125C2.17465 9.27581 6.33561 6.282 8 7.99275Z" fill="black"/>
</svg>
