<svg width="16" height="16" viewBox="0 0 16 16" fill="none" xmlns="http://www.w3.org/2000/svg">
<path d="M6.44531 12.6875V7.35547H5.8125C5.39844 7.57812 4.90234 7.87109 4.5 8.16016V8.85547C4.875 8.59766 5.46875 8.23438 5.75781 8.07812H5.76953V12.6875H6.44531Z" fill="black"/>
<path d="M7.63281 11.3828C7.67969 12.0234 8.22656 12.7891 9.33594 12.7891C10.5938 12.7891 11.3359 11.7227 11.3359 9.91797C11.3359 7.98438 10.5547 7.25 9.38281 7.25C8.45703 7.25 7.58594 7.92188 7.58594 9.05859C7.58594 10.2188 8.41016 10.8281 9.26172 10.8281C10.0078 10.8281 10.4922 10.4531 10.6445 10.0391H10.6719C10.668 11.3555 10.2109 12.2031 9.36719 12.2031C8.70312 12.2031 8.35938 11.7539 8.31641 11.3828H7.63281ZM10.5859 9.06641C10.5859 9.76172 10.0273 10.2461 9.40234 10.2461C8.80078 10.2461 8.25781 9.86328 8.25781 9.04688C8.25781 8.22266 8.83984 7.83594 9.42578 7.83594C10.0586 7.83594 10.5859 8.23438 10.5859 9.06641Z" fill="black"/>
<path d="M3.5 0C3.77614 0 4 0.223858 4 0.5V1H12V0.5C12 0.223858 12.2239 0 12.5 0C12.7761 0 13 0.223858 13 0.5V1H14C15.1046 1 16 1.89543 16 3V14C16 15.1046 15.1046 16 14 16H2C0.895431 16 0 15.1046 0 14V3C0 1.89543 0.895431 1 2 1H3V0.5C3 0.223858 3.22386 0 3.5 0ZM2 2C1.44772 2 1 2.44772 1 3V14C1 14.5523 1.44772 15 2 15H14C14.5523 15 15 14.5523 15 14V3C15 2.44772 14.5523 2 14 2H2Z" fill="black"/>
<path d="M2.5 4C2.5 3.72386 2.72386 3.5 3 3.5H13C13.2761 3.5 13.5 3.72386 13.5 4V5C13.5 5.27614 13.2761 5.5 13 5.5H3C2.72386 5.5 2.5 5.27614 2.5 5V4Z" fill="black"/>
</svg>
