<svg width="16" height="16" viewBox="0 0 16 16" fill="none" xmlns="http://www.w3.org/2000/svg">
<path d="M4 0.5C4 0.223858 3.77614 0 3.5 0C3.22386 0 3 0.223858 3 0.5V1H2C0.895431 1 0 1.89543 0 3V4H16V3C16 1.89543 15.1046 1 14 1H13V0.5C13 0.223858 12.7761 0 12.5 0C12.2239 0 12 0.223858 12 0.5V1H4V0.5Z" fill="black"/>
<path d="M16 14V5H0V14C0 15.1046 0.895431 16 2 16H14C15.1046 16 16 15.1046 16 14ZM9.5 7H10.5C10.7761 7 11 7.22386 11 7.5V8.5C11 8.77614 10.7761 9 10.5 9H9.5C9.22386 9 9 8.77614 9 8.5V7.5C9 7.22386 9.22386 7 9.5 7ZM12.5 7H13.5C13.7761 7 14 7.22386 14 7.5V8.5C14 8.77614 13.7761 9 13.5 9H12.5C12.2239 9 12 8.77614 12 8.5V7.5C12 7.22386 12.2239 7 12.5 7ZM2 10.5C2 10.2239 2.22386 10 2.5 10H3.5C3.77614 10 4 10.2239 4 10.5V11.5C4 11.7761 3.77614 12 3.5 12H2.5C2.22386 12 2 11.7761 2 11.5V10.5ZM5.5 10H6.5C6.77614 10 7 10.2239 7 10.5V11.5C7 11.7761 6.77614 12 6.5 12H5.5C5.22386 12 5 11.7761 5 11.5V10.5C5 10.2239 5.22386 10 5.5 10Z" fill="black"/>
</svg>
