<svg width="16" height="16" viewBox="0 0 16 16" fill="none" xmlns="http://www.w3.org/2000/svg">
<path d="M4 0.5C4 0.223858 3.77614 0 3.5 0C3.22386 0 3 0.223858 3 0.5V1H2C0.895431 1 0 1.89543 0 3V4H16V3C16 1.89543 15.1046 1 14 1H13V0.5C13 0.223858 12.7761 0 12.5 0C12.2239 0 12 0.223858 12 0.5V1H4V0.5Z" fill="black"/>
<path d="M9.40234 10.2461C10.0273 10.2461 10.5859 9.76172 10.5859 9.06641C10.5859 8.23438 10.0586 7.83594 9.42578 7.83594C8.83984 7.83594 8.25781 8.22266 8.25781 9.04688C8.25781 9.86328 8.80078 10.2461 9.40234 10.2461Z" fill="black"/>
<path d="M16 14V5H0V14C0 15.1046 0.895431 16 2 16H14C15.1046 16 16 15.1046 16 14ZM9.33594 12.7891C8.22656 12.7891 7.67969 12.0234 7.63281 11.3828H8.31641C8.35938 11.7539 8.70312 12.2031 9.36719 12.2031C10.2109 12.2031 10.668 11.3555 10.6719 10.0391H10.6445C10.4922 10.4531 10.0078 10.8281 9.26172 10.8281C8.41016 10.8281 7.58594 10.2188 7.58594 9.05859C7.58594 7.92188 8.45703 7.25 9.38281 7.25C10.5547 7.25 11.3359 7.98438 11.3359 9.91797C11.3359 11.7227 10.5938 12.7891 9.33594 12.7891ZM6.44531 7.35547V12.6875H5.76953V8.07812H5.75781C5.46875 8.23438 4.875 8.59766 4.5 8.85547V8.16016C4.90234 7.87109 5.39844 7.57812 5.8125 7.35547H6.44531Z" fill="black"/>
</svg>
