<svg width="16" height="16" viewBox="0 0 16 16" fill="none" xmlns="http://www.w3.org/2000/svg">
<path d="M4.10388 7.80469L4.90076 10.1797H3.28357L4.08435 7.80469H4.10388Z" fill="black"/>
<path d="M13.1781 10.1016C13.1781 9.26953 12.764 8.74219 12.1156 8.74219C11.4242 8.74219 11.0179 9.23438 11.0179 10.1016V10.3555C11.0179 11.207 11.4242 11.7188 12.1156 11.7188C12.7875 11.7188 13.1781 11.2031 13.1781 10.3555V10.1016Z" fill="black"/>
<path d="M3.5 0C3.77614 0 4 0.223858 4 0.5V1H12V0.5C12 0.223858 12.2239 0 12.5 0C12.7761 0 13 0.223858 13 0.5V1H14C15.1046 1 16 1.89543 16 3V14C16 15.1046 15.1046 16 14 16H2C0.895431 16 0 15.1046 0 14V3C0 1.89543 0.895431 1 2 1H3V0.5C3 0.223858 3.22386 0 3.5 0ZM13.4545 3H2.54545C2.24421 3 2 3.22386 2 3.5V4.5C2 4.77614 2.24421 5 2.54545 5H13.4545C13.7558 5 14 4.77614 14 4.5V3.5C14 3.22386 13.7558 3 13.4545 3ZM2.56091 12.332L3.09998 10.7305H5.08435L5.62341 12.332H6.34216L4.44373 7H3.74841L1.84998 12.332H2.56091ZM9.84998 8.22656H9.17419V10.7695C9.17419 11.4219 8.76013 11.793 8.17029 11.793C7.63123 11.793 7.18982 11.5469 7.18982 10.7812V8.22656H6.51404V10.9727C6.51404 11.9141 7.11951 12.3984 7.96716 12.3984C8.62341 12.3984 9.01013 12.1172 9.15466 11.793H9.18201V12.332H9.84998V8.22656ZM11.1234 12.6367H10.4359C10.5297 13.3203 11.0609 13.8359 12.1039 13.8359C13.0336 13.8359 13.85 13.3086 13.85 12.2578V8.22656H13.2015V8.80469H13.182C12.9906 8.45703 12.5453 8.16406 11.9867 8.16406C11.0219 8.16406 10.3461 8.84375 10.3461 10.0508V10.3906C10.3461 11.6211 11.0297 12.293 11.9867 12.293C12.5453 12.293 12.9945 12 13.1586 11.6445H13.1781V12.25C13.1781 12.8945 12.7562 13.2734 12.1078 13.2734C11.5453 13.2734 11.1976 12.9688 11.1234 12.6367Z" fill="black"/>
</svg>
