<svg width="16" height="16" viewBox="0 0 16 16" fill="none" xmlns="http://www.w3.org/2000/svg">
<path d="M4 0.5C4 0.223858 3.77614 0 3.5 0C3.22386 0 3 0.223858 3 0.5V1H2C0.895431 1 0 1.89543 0 3V4H16V3C16 1.89543 15.1046 1 14 1H13V0.5C13 0.223858 12.7761 0 12.5 0C12.2239 0 12 0.223858 12 0.5V1H4V0.5Z" fill="black"/>
<path d="M4.10388 7.80469L4.90076 10.1797H3.28357L4.08435 7.80469H4.10388Z" fill="black"/>
<path d="M13.1781 10.1016C13.1781 9.26953 12.764 8.74219 12.1156 8.74219C11.4242 8.74219 11.0179 9.23438 11.0179 10.1016V10.3555C11.0179 11.207 11.4242 11.7188 12.1156 11.7188C12.7875 11.7188 13.1781 11.2031 13.1781 10.3555V10.1016Z" fill="black"/>
<path d="M16 14V5H0V14C0 15.1046 0.895431 16 2 16H14C15.1046 16 16 15.1046 16 14ZM2.56091 12.332H1.84998L3.74841 7H4.44373L6.34216 12.332H5.62341L5.08435 10.7305H3.09998L2.56091 12.332ZM9.84998 8.22656V12.332H9.18201V11.793H9.15466C9.01013 12.1172 8.62341 12.3984 7.96716 12.3984C7.11951 12.3984 6.51404 11.9141 6.51404 10.9727V8.22656H7.18982V10.7812C7.18982 11.5469 7.63123 11.793 8.17029 11.793C8.76013 11.793 9.17419 11.4219 9.17419 10.7695V8.22656H9.84998ZM11.1234 12.6367C11.1976 12.9688 11.5453 13.2734 12.1078 13.2734C12.7562 13.2734 13.1781 12.8945 13.1781 12.25V11.6445H13.1586C12.9945 12 12.5453 12.293 11.9867 12.293C11.0297 12.293 10.3461 11.6211 10.3461 10.3906V10.0508C10.3461 8.84375 11.0219 8.16406 11.9867 8.16406C12.5453 8.16406 12.9906 8.45703 13.182 8.80469H13.2015V8.22656H13.85V12.2578C13.85 13.3086 13.0336 13.8359 12.1039 13.8359C11.0609 13.8359 10.5297 13.3203 10.4359 12.6367H11.1234Z" fill="black"/>
</svg>
