<svg width="16" height="16" viewBox="0 0 16 16" fill="none" xmlns="http://www.w3.org/2000/svg">
<path d="M6.44531 11.6875V6.35547H5.8125C5.39844 6.57812 4.90234 6.87109 4.5 7.16016V7.85547C4.875 7.59766 5.46875 7.23438 5.75781 7.07812H5.76953V11.6875H6.44531Z" fill="black"/>
<path d="M7.63281 10.3828C7.67969 11.0234 8.22656 11.7891 9.33594 11.7891C10.5938 11.7891 11.3359 10.7227 11.3359 8.91797C11.3359 6.98438 10.5547 6.25 9.38281 6.25C8.45703 6.25 7.58594 6.92188 7.58594 8.05859C7.58594 9.21875 8.41016 9.82812 9.26172 9.82812C10.0078 9.82812 10.4922 9.45312 10.6445 9.03906H10.6719C10.668 10.3555 10.2109 11.2031 9.36719 11.2031C8.70312 11.2031 8.35938 10.7539 8.31641 10.3828H7.63281ZM10.5859 8.06641C10.5859 8.76172 10.0273 9.24609 9.40234 9.24609C8.80078 9.24609 8.25781 8.86328 8.25781 8.04688C8.25781 7.22266 8.83984 6.83594 9.42578 6.83594C10.0586 6.83594 10.5859 7.23438 10.5859 8.06641Z" fill="black"/>
<path d="M3.5 0C3.77614 0 4 0.223858 4 0.5V1H12V0.5C12 0.223858 12.2239 0 12.5 0C12.7761 0 13 0.223858 13 0.5V1H14C15.1046 1 16 1.89543 16 3V14C16 15.1046 15.1046 16 14 16H2C0.895431 16 0 15.1046 0 14V3C0 1.89543 0.895431 1 2 1H3V0.5C3 0.223858 3.22386 0 3.5 0ZM1 4V14C1 14.5523 1.44772 15 2 15H14C14.5523 15 15 14.5523 15 14V4H1Z" fill="black"/>
</svg>
