<svg width="16" height="16" viewBox="0 0 16 16" fill="none" xmlns="http://www.w3.org/2000/svg">
<path fill-rule="evenodd" clip-rule="evenodd" d="M2 0C0.895431 0 0 0.895431 0 2H16C16 0.895431 15.1046 0 14 0H2ZM0 14V3H16V14C16 15.1046 15.1046 16 14 16H2C0.895431 16 0 15.1046 0 14ZM12 6C12 6.55228 12.4477 7 13 7C13.5523 7 14 6.55228 14 6C14 5.44772 13.5523 5 13 5C12.4477 5 12 5.44772 12 6ZM5 9C5 9.55229 5.44772 10 6 10C6.55228 10 7 9.55229 7 9C7 8.44771 6.55228 8 6 8C5.44772 8 5 8.44771 5 9ZM10 7C9.44771 7 9 6.55228 9 6C9 5.44772 9.44771 5 10 5C10.5523 5 11 5.44772 11 6C11 6.55228 10.5523 7 10 7ZM2 9C2 9.55229 2.44772 10 3 10C3.55228 10 4 9.55229 4 9C4 8.44771 3.55228 8 3 8C2.44772 8 2 8.44771 2 9Z" fill="black"/>
</svg>
