<svg width="16" height="16" viewBox="0 0 16 16" fill="none" xmlns="http://www.w3.org/2000/svg">
<path d="M4 0.5C4 0.223858 3.77614 0 3.5 0C3.22386 0 3 0.223858 3 0.5V1H2C0.895431 1 0 1.89543 0 3V4H16V3C16 1.89543 15.1046 1 14 1H13V0.5C13 0.223858 12.7761 0 12.5 0C12.2239 0 12 0.223858 12 0.5V1H4V0.5Z" fill="black"/>
<path d="M16 7V5H0V10H5C5.55228 10 6 10.4477 6 11C6 11.5523 5.55228 12 5 12H0V14C0 15.1046 0.895431 16 2 16H14C15.1046 16 16 15.1046 16 14V9H10C9.44771 9 9 8.55228 9 8C9 7.44772 9.44772 7 10 7H16Z" fill="black"/>
</svg>
