<svg width="16" height="16" viewBox="0 0 16 16" fill="none" xmlns="http://www.w3.org/2000/svg">
<path d="M4 0.5C4 0.223858 3.77614 0 3.5 0C3.22386 0 3 0.223858 3 0.5V1H2C0.895431 1 0 1.89543 0 3V4H16V3C16 1.89543 15.1046 1 14 1H13V0.5C13 0.223858 12.7761 0 12.5 0C12.2239 0 12 0.223858 12 0.5V1H4V0.5Z" fill="black"/>
<path d="M16 14V5H0V14C0 15.1046 0.895431 16 2 16H14C15.1046 16 16 15.1046 16 14ZM10.8536 8.85355L7.85355 11.8536C7.75979 11.9473 7.63261 12 7.5 12C7.36739 12 7.24021 11.9473 7.14645 11.8536L5.64645 10.3536C5.45118 10.1583 5.45118 9.84171 5.64645 9.64645C5.84171 9.45118 6.15829 9.45118 6.35355 9.64645L7.5 10.7929L10.1464 8.14645C10.3417 7.95118 10.6583 7.95118 10.8536 8.14645C11.0488 8.34171 11.0488 8.65829 10.8536 8.85355Z" fill="black"/>
</svg>
