<svg width="16" height="16" viewBox="0 0 16 16" fill="none" xmlns="http://www.w3.org/2000/svg">
<path d="M3.5 0C3.77614 0 4 0.223858 4 0.5V1H12V0.5C12 0.223858 12.2239 0 12.5 0C12.7761 0 13 0.223858 13 0.5V1H14C15.1046 1 16 1.89543 16 3V14C16 15.1046 15.1046 16 14 16H2C0.895431 16 0 15.1046 0 14V3C0 1.89543 0.895431 1 2 1H3V0.5C3 0.223858 3.22386 0 3.5 0ZM13.4545 3H2.54545C2.24421 3 2 3.22386 2 3.5V4.5C2 4.77614 2.24421 5 2.54545 5H13.4545C13.7558 5 14 4.77614 14 4.5V3.5C14 3.22386 13.7558 3 13.4545 3ZM11.2148 7.85547C11.4531 7.85547 11.6484 7.66797 11.6484 7.42969C11.6484 7.1875 11.4531 7 11.2148 7C10.9766 7 10.7852 7.1875 10.7852 7.42969C10.7852 7.66797 10.9766 7.85547 11.2148 7.85547ZM11.5508 8.41797H10.8789V12.5234H11.5508V8.41797ZM4.68359 12.5234V10.2227H6.94531V9.61328H4.68359V7.80078H7.14844V7.19141H4V12.5234H4.68359ZM7.98047 12.5234H8.65625V9.98047C8.65625 9.42578 8.88281 8.97266 9.60938 8.97266C9.73438 8.97266 9.86719 8.97656 9.9375 8.98828V8.375C9.85547 8.36328 9.76953 8.35547 9.68359 8.35547C9.10156 8.35547 8.79297 8.67578 8.67188 8.92188H8.65234V8.41797H7.98047V12.5234Z" fill="black"/>
</svg>
