<svg width="16" height="16" viewBox="0 0 16 16" fill="none" xmlns="http://www.w3.org/2000/svg">
<path d="M14 0H2C0.89543 0 0 0.89543 0 2V14C0 15.1046 0.89543 16 2 16H14C15.1046 16 16 15.1046 16 14V2C16 0.89543 15.1046 0 14 0ZM1 3.85714C1 3.38376 1.44772 3 2 3H14C14.5523 3 15 3.38376 15 3.85714V14.1429C15 14.6162 14.5523 15 14 15H2C1.44772 15 1 14.6162 1 14.1429V3.85714Z" fill="black"/>
<path d="M7 10C7.55228 10 8 9.55228 8 9C8 8.44772 7.55228 8 7 8C6.44772 8 1 8 1 8V10C1 10 6.72386 10 7 10Z" fill="black"/>
<path d="M9 7C9.27614 7 15 7 15 7V5C15 5 9.55229 5 9 5C8.44772 5 8 5.44772 8 6C8 6.55228 8.44772 7 9 7Z" fill="black"/>
</svg>
