<svg width="16" height="16" viewBox="0 0 16 16" fill="none" xmlns="http://www.w3.org/2000/svg">
<path d="M3.5 0C3.77614 0 4 0.223858 4 0.5V1H12V0.5C12 0.223858 12.2239 0 12.5 0C12.7761 0 13 0.223858 13 0.5V1H14C15.1046 1 16 1.89543 16 3V14C16 15.1046 15.1046 16 14 16H2C0.895431 16 0 15.1046 0 14V3C0 1.89543 0.895431 1 2 1H3V0.5C3 0.223858 3.22386 0 3.5 0ZM13.4545 3H2.54545C2.24421 3 2 3.22386 2 3.5V4.5C2 4.77614 2.24421 5 2.54545 5H13.4545C13.7558 5 14 4.77614 14 4.5V3.5C14 3.22386 13.7558 3 13.4545 3ZM8.5 7C8.22386 7 8 7.22386 8 7.5V8.5C8 8.77614 8.22386 9 8.5 9H9.5C9.77614 9 10 8.77614 10 8.5V7.5C10 7.22386 9.77614 7 9.5 7H8.5ZM11.5 7C11.2239 7 11 7.22386 11 7.5V8.5C11 8.77614 11.2239 9 11.5 9H12.5C12.7761 9 13 8.77614 13 8.5V7.5C13 7.22386 12.7761 7 12.5 7H11.5ZM3 10.5V11.5C3 11.7761 3.22386 12 3.5 12H4.5C4.77614 12 5 11.7761 5 11.5V10.5C5 10.2239 4.77614 10 4.5 10H3.5C3.22386 10 3 10.2239 3 10.5ZM6.5 10C6.22386 10 6 10.2239 6 10.5V11.5C6 11.7761 6.22386 12 6.5 12H7.5C7.77614 12 8 11.7761 8 11.5V10.5C8 10.2239 7.77614 10 7.5 10H6.5Z" fill="black"/>
</svg>
