<svg width="16" height="16" viewBox="0 0 16 16" fill="none" xmlns="http://www.w3.org/2000/svg">
<path d="M3.5 0C3.77614 0 4 0.223858 4 0.5V1H12V0.5C12 0.223858 12.2239 0 12.5 0C12.7761 0 13 0.223858 13 0.5V1H14C15.1046 1 16 1.89543 16 3V14C16 15.1046 15.1046 16 14 16H2C0.895431 16 0 15.1046 0 14V3C0 1.89543 0.895431 1 2 1H3V0.5C3 0.223858 3.22386 0 3.5 0ZM13.4545 3H2.54545C2.24421 3 2 3.22386 2 3.5V4.5C2 4.77614 2.24421 5 2.54545 5H13.4545C13.7558 5 14 4.77614 14 4.5V3.5C14 3.22386 13.7558 3 13.4545 3ZM10.8536 8.85355C11.0488 8.65829 11.0488 8.34171 10.8536 8.14645C10.6583 7.95118 10.3417 7.95118 10.1464 8.14645L7.5 10.7929L6.35355 9.64645C6.15829 9.45118 5.84171 9.45118 5.64645 9.64645C5.45118 9.84171 5.45118 10.1583 5.64645 10.3536L7.14645 11.8536C7.24021 11.9473 7.36739 12 7.5 12C7.63261 12 7.75979 11.9473 7.85355 11.8536L10.8536 8.85355Z" fill="black"/>
</svg>
