<svg width="16" height="16" viewBox="0 0 16 16" fill="none" xmlns="http://www.w3.org/2000/svg">
<path d="M2.56091 11.332L3.09998 9.73047H5.08435L5.62341 11.332H6.34216L4.44373 6H3.74841L1.84998 11.332H2.56091ZM4.10388 6.80469L4.90076 9.17969H3.28357L4.08435 6.80469H4.10388Z" fill="black"/>
<path d="M9.84998 7.22656H9.17419V9.76953C9.17419 10.4219 8.76013 10.793 8.17029 10.793C7.63123 10.793 7.18982 10.5469 7.18982 9.78125V7.22656H6.51404V9.97266C6.51404 10.9141 7.11951 11.3984 7.96716 11.3984C8.62341 11.3984 9.01013 11.1172 9.15466 10.793H9.18201V11.332H9.84998V7.22656Z" fill="black"/>
<path d="M12.1078 12.2734C11.5453 12.2734 11.1976 11.9688 11.1234 11.6367H10.4359C10.5297 12.3203 11.0609 12.8359 12.1039 12.8359C13.0336 12.8359 13.85 12.3086 13.85 11.2578V7.22656H13.2015V7.80469H13.182C12.9906 7.45703 12.5453 7.16406 11.9867 7.16406C11.0219 7.16406 10.3461 7.84375 10.3461 9.05078V9.39062C10.3461 10.6211 11.0297 11.293 11.9867 11.293C12.5453 11.293 12.9945 11 13.1586 10.6445H13.1781V11.25C13.1781 11.8945 12.7562 12.2734 12.1078 12.2734ZM12.1156 7.74219C12.764 7.74219 13.1781 8.26953 13.1781 9.10156V9.35547C13.1781 10.2031 12.7875 10.7188 12.1156 10.7188C11.4242 10.7188 11.0179 10.207 11.0179 9.35547V9.10156C11.0179 8.23438 11.4242 7.74219 12.1156 7.74219Z" fill="black"/>
<path d="M3.5 0C3.77614 0 4 0.223858 4 0.5V1H12V0.5C12 0.223858 12.2239 0 12.5 0C12.7761 0 13 0.223858 13 0.5V1H14C15.1046 1 16 1.89543 16 3V14C16 15.1046 15.1046 16 14 16H2C0.895431 16 0 15.1046 0 14V3C0 1.89543 0.895431 1 2 1H3V0.5C3 0.223858 3.22386 0 3.5 0ZM1 4V14C1 14.5523 1.44772 15 2 15H14C14.5523 15 15 14.5523 15 14V4H1Z" fill="black"/>
</svg>
