<svg width="16" height="16" viewBox="0 0 16 16" fill="none" xmlns="http://www.w3.org/2000/svg">
<path fill-rule="evenodd" clip-rule="evenodd" d="M4 0.5C4 0.223858 3.77614 0 3.5 0C3.22386 0 3 0.223858 3 0.5V1H2C0.895431 1 0 1.89543 0 3V14C0 15.1046 0.895431 16 2 16H14C15.1046 16 16 15.1046 16 14V3C16 1.89543 15.1046 1 14 1H13V0.5C13 0.223858 12.7761 0 12.5 0C12.2239 0 12 0.223858 12 0.5V1H4V0.5ZM1 3C1 2.44772 1.44772 2 2 2H14C14.5523 2 15 2.44772 15 3V14C15 14.5523 14.5523 15 14 15H2C1.44772 15 1 14.5523 1 14V3ZM3 3.5C2.72386 3.5 2.5 3.72386 2.5 4V5C2.5 5.27614 2.72386 5.5 3 5.5H13C13.2761 5.5 13.5 5.27614 13.5 5V4C13.5 3.72386 13.2761 3.5 13 3.5H3ZM8 7.99275C9.66439 6.282 13.8254 9.27581 8 13.125C2.17465 9.27581 6.33561 6.282 8 7.99275Z" fill="black"/>
</svg>
