<svg width="16" height="16" viewBox="0 0 16 16" fill="none" xmlns="http://www.w3.org/2000/svg">
<path d="M4.68359 11.5234V9.22266H6.94531V8.61328H4.68359V6.80078H7.14844V6.19141H4V11.5234H4.68359Z" fill="black"/>
<path d="M7.98047 11.5234H8.65625V8.98047C8.65625 8.42578 8.88281 7.97266 9.60938 7.97266C9.73438 7.97266 9.86719 7.97656 9.9375 7.98828V7.375C9.85547 7.36328 9.76953 7.35547 9.68359 7.35547C9.10156 7.35547 8.79297 7.67578 8.67188 7.92188H8.65234V7.41797H7.98047V11.5234Z" fill="black"/>
<path d="M10.7852 6.42969C10.7852 6.66797 10.9766 6.85547 11.2148 6.85547C11.4531 6.85547 11.6484 6.66797 11.6484 6.42969C11.6484 6.1875 11.4531 6 11.2148 6C10.9766 6 10.7852 6.1875 10.7852 6.42969ZM10.8789 11.5234H11.5508V7.41797H10.8789V11.5234Z" fill="black"/>
<path d="M3.5 0C3.77614 0 4 0.223858 4 0.5V1H12V0.5C12 0.223858 12.2239 0 12.5 0C12.7761 0 13 0.223858 13 0.5V1H14C15.1046 1 16 1.89543 16 3V14C16 15.1046 15.1046 16 14 16H2C0.895431 16 0 15.1046 0 14V3C0 1.89543 0.895431 1 2 1H3V0.5C3 0.223858 3.22386 0 3.5 0ZM1 4V14C1 14.5523 1.44772 15 2 15H14C14.5523 15 15 14.5523 15 14V4H1Z" fill="black"/>
</svg>
