<svg width="16" height="16" viewBox="0 0 16 16" fill="none" xmlns="http://www.w3.org/2000/svg">
<path fill-rule="evenodd" clip-rule="evenodd" d="M4 0.5C4 0.223858 3.77614 0 3.5 0C3.22386 0 3 0.223858 3 0.5V1H2C0.895431 1 0 1.89543 0 3V14C0 15.1046 0.895431 16 2 16H14C15.1046 16 16 15.1046 16 14V3C16 1.89543 15.1046 1 14 1H13V0.5C13 0.223858 12.7761 0 12.5 0C12.2239 0 12 0.223858 12 0.5V1H4V0.5ZM1 14V4H15V14C15 14.5523 14.5523 15 14 15H2C1.44772 15 1 14.5523 1 14ZM8 7.49275C9.66439 5.782 13.8254 8.77581 8 12.625C2.17465 8.77581 6.33561 5.782 8 7.49275Z" fill="black"/>
</svg>
