<svg width="16" height="16" viewBox="0 0 16 16" fill="none" xmlns="http://www.w3.org/2000/svg">
<path d="M10.8536 8.14645C11.0488 8.34171 11.0488 8.65829 10.8536 8.85355L7.85355 11.8536C7.75979 11.9473 7.63261 12 7.5 12C7.36739 12 7.24021 11.9473 7.14645 11.8536L5.64645 10.3536C5.45118 10.1583 5.45118 9.84171 5.64645 9.64645C5.84171 9.45118 6.15829 9.45118 6.35355 9.64645L7.5 10.7929L10.1464 8.14645C10.3417 7.95118 10.6583 7.95118 10.8536 8.14645Z" fill="black"/>
<path d="M3.5 0C3.77614 0 4 0.223858 4 0.5V1H12V0.5C12 0.223858 12.2239 0 12.5 0C12.7761 0 13 0.223858 13 0.5V1H14C15.1046 1 16 1.89543 16 3V14C16 15.1046 15.1046 16 14 16H2C0.895431 16 0 15.1046 0 14V3C0 1.89543 0.895431 1 2 1H3V0.5C3 0.223858 3.22386 0 3.5 0ZM2 2C1.44772 2 1 2.44772 1 3V14C1 14.5523 1.44772 15 2 15H14C14.5523 15 15 14.5523 15 14V3C15 2.44772 14.5523 2 14 2H2Z" fill="black"/>
<path d="M2.5 4C2.5 3.72386 2.72386 3.5 3 3.5H13C13.2761 3.5 13.5 3.72386 13.5 4V5C13.5 5.27614 13.2761 5.5 13 5.5H3C2.72386 5.5 2.5 5.27614 2.5 5V4Z" fill="black"/>
</svg>
