<svg width="16" height="16" viewBox="0 0 16 16" fill="none" xmlns="http://www.w3.org/2000/svg">
<path d="M10.5 8.5C10.5 9.88071 9.38071 11 8 11C6.61929 11 5.5 9.88071 5.5 8.5C5.5 7.11929 6.61929 6 8 6C9.38071 6 10.5 7.11929 10.5 8.5Z" fill="black"/>
<path d="M2 4C0.895431 4 0 4.89543 0 6V12C0 13.1046 0.895431 14 2 14H14C15.1046 14 16 13.1046 16 12V6C16 4.89543 15.1046 4 14 4H12.8284C12.298 4 11.7893 3.78929 11.4142 3.41421L10.5858 2.58579C10.2107 2.21071 9.70201 2 9.17157 2H6.82843C6.29799 2 5.78929 2.21071 5.41421 2.58579L4.58579 3.41421C4.21071 3.78929 3.70201 4 3.17157 4H2ZM2.5 6C2.22386 6 2 5.77614 2 5.5C2 5.22386 2.22386 5 2.5 5C2.77614 5 3 5.22386 3 5.5C3 5.77614 2.77614 6 2.5 6ZM11.5 8.5C11.5 10.433 9.933 12 8 12C6.067 12 4.5 10.433 4.5 8.5C4.5 6.567 6.067 5 8 5C9.933 5 11.5 6.567 11.5 8.5Z" fill="black"/>
</svg>
