<svg width="16" height="16" viewBox="0 0 16 16" fill="none" xmlns="http://www.w3.org/2000/svg">
<path d="M6 3C6 4.65685 4.65685 6 3 6C1.34315 6 0 4.65685 0 3C0 1.34315 1.34315 0 3 0C4.65685 0 6 1.34315 6 3ZM1 3C1 4.10457 1.89543 5 3 5C4.10457 5 5 4.10457 5 3C5 1.89543 4.10457 1 3 1C1.89543 1 1 1.89543 1 3Z" fill="black"/>
<path d="M9 6H9.5C10.5158 6 11.3548 6.75732 11.483 7.73817L14.5939 6.35557C15.2551 6.06166 16 6.54572 16 7.26938V14.7306C16 15.4543 15.2551 15.9383 14.5939 15.6444L11.483 14.2618C11.3548 15.2427 10.5158 16 9.5 16H2C0.89543 16 0 15.1046 0 14V8C0 6.89543 0.89543 6 2 6H3H9ZM15 14.7306L15 7.26938L11.5 8.82494V13.1751L15 14.7306ZM1 8V14C1 14.5523 1.44772 15 2 15H9.5C10.0523 15 10.5 14.5523 10.5 14V8C10.5 7.44772 10.0523 7 9.5 7H2C1.44772 7 1 7.44772 1 8Z" fill="black"/>
<path d="M9 6C10.6569 6 12 4.65685 12 3C12 1.34315 10.6569 0 9 0C7.34315 0 6 1.34315 6 3C6 4.65685 7.34315 6 9 6ZM7 3C7 1.89543 7.89543 1 9 1C10.1046 1 11 1.89543 11 3C11 4.10457 10.1046 5 9 5C7.89543 5 7 4.10457 7 3Z" fill="black"/>
</svg>
