<svg width="16" height="16" viewBox="0 0 16 16" fill="none" xmlns="http://www.w3.org/2000/svg">
<path fill-rule="evenodd" clip-rule="evenodd" d="M10.9615 12.3653C11.2394 12.068 11.4276 11.6858 11.483 11.2618L14.5939 12.6444C15.2551 12.9383 16 12.4543 16 11.7306V4.26938C16 3.54572 15.2551 3.06166 14.5939 3.35557L11.483 4.73817C11.3548 3.75732 10.5158 3 9.5 3H4.27193L10.9615 12.3653ZM0.846576 3.3659C0.3344 3.72808 0 4.32499 0 5V11C0 12.1046 0.89543 13 2 13H7.72807L0.846576 3.3659Z" fill="black"/>
<path fill-rule="evenodd" clip-rule="evenodd" d="M10.5931 15.2906L0.59314 1.29059L1.40687 0.709351L11.4069 14.7094L10.5931 15.2906Z" fill="black"/>
</svg>
