<svg width="16" height="16" viewBox="0 0 16 16" fill="none" xmlns="http://www.w3.org/2000/svg">
<path d="M5 8C5 6.34315 7.34315 5 9 5V4C6.79086 4 5 5.79086 5 8Z" fill="black"/>
<path d="M12.3178 3H14.3333C15.2538 3 16 3.74619 16 4.66667V11.3333C16 12.2538 15.2538 13 14.3333 13H12.3178C11.3675 13.6318 10.2267 14 9 14C7.77326 14 6.63251 13.6318 5.68221 13H1.66667C0.746192 13 0 12.2538 0 11.3333V4.66667C0 3.74619 0.746192 3 1.66667 3H2C2 2.44772 2.44772 2 3 2H4C4.55228 2 5 2.44772 5 3H5.68221C6.63251 2.36815 7.77326 2 9 2C10.2267 2 11.3675 2.36815 12.3178 3ZM2 4.5C2 4.22386 1.77614 4 1.5 4C1.22386 4 1 4.22386 1 4.5C1 4.77614 1.22386 5 1.5 5C1.77614 5 2 4.77614 2 4.5ZM14 8C14 5.23858 11.7614 3 9 3C6.23858 3 4 5.23858 4 8C4 10.7614 6.23858 13 9 13C11.7614 13 14 10.7614 14 8Z" fill="black"/>
</svg>
