<svg width="16" height="16" viewBox="0 0 16 16" fill="none" xmlns="http://www.w3.org/2000/svg">
<path fill-rule="evenodd" clip-rule="evenodd" d="M7.27049 1.04714C7.66556 0.625727 8.33449 0.625725 8.72956 1.04714L15.0754 7.81608C15.6742 8.45475 15.2214 9.50002 14.3459 9.50002H11.5V10.5C11.5 11.0523 11.0523 11.5 10.5 11.5H5.50003C4.94774 11.5 4.50003 11.0523 4.50003 10.5V9.50002H1.65414C0.778704 9.50002 0.325857 8.45475 0.924607 7.81608L7.27049 1.04714ZM14.3459 8.50002L8.00003 1.73108L1.65414 8.50002H4.50003C5.05231 8.50002 5.50003 8.94774 5.50003 9.50002V10.5H10.5V9.50002C10.5 8.94774 10.9477 8.50002 11.5 8.50002L14.3459 8.50002Z" fill="black"/>
<path fill-rule="evenodd" clip-rule="evenodd" d="M4.5 13.5C4.5 12.9477 4.94772 12.5 5.5 12.5H10.5C11.0523 12.5 11.5 12.9477 11.5 13.5V14.5C11.5 15.0523 11.0523 15.5 10.5 15.5H5.5C4.94771 15.5 4.5 15.0523 4.5 14.5V13.5ZM10.5 13.5H5.5V14.5H10.5V13.5Z" fill="black"/>
</svg>
