<svg width="16" height="16" viewBox="0 0 16 16" fill="none" xmlns="http://www.w3.org/2000/svg">
<path d="M11.0209 5.364C12.1924 4.19242 12.1924 2.29293 11.0209 1.12136C9.84928 -0.0502176 7.94978 -0.0502172 6.77821 1.12136L1.12136 6.77821C-0.0502174 7.94978 -0.0502174 9.84928 1.12136 11.0209C2.14648 12.046 3.72892 12.1741 4.89338 11.4053C5.05973 11.2954 5.21755 11.1673 5.364 11.0208L11.0209 5.364ZM4.60665 4.70713L7.48532 1.82846C8.26637 1.04741 9.53269 1.04741 10.3137 1.82846C11.0948 2.60951 11.0948 3.87584 10.3137 4.65689L7.43508 7.53555L4.60665 4.70713Z" fill="black"/>
<path d="M12 8.00003C14.2092 8.00003 16 9.79089 16 12C16 14.2092 14.2092 16 12 16C9.7909 16 8.00004 14.2092 8.00004 12C8.00004 9.79089 9.7909 8.00003 12 8.00003ZM11.5 9.04151C10.0812 9.27955 9.00004 10.5135 9.00004 12C9.00004 13.4865 10.0812 14.7205 11.5 14.9586V9.04151ZM12.5 14.9586C13.9189 14.7205 15 13.4865 15 12C15 10.5135 13.9189 9.27955 12.5 9.04151V14.9586Z" fill="black"/>
</svg>
