<svg width="16" height="16" viewBox="0 0 16 16" fill="none" xmlns="http://www.w3.org/2000/svg">
<path d="M4 9C4 9.55228 3.55228 10 3 10C2.44772 10 2 9.55228 2 9C2 8.44772 2.44772 8 3 8C3.55228 8 4 8.44772 4 9Z" fill="black"/>
<path d="M14 9C14 9.55228 13.5523 10 13 10C12.4477 10 12 9.55228 12 9C12 8.44772 12.4477 8 13 8C13.5523 8 14 8.44772 14 9Z" fill="black"/>
<path d="M6 8C5.44772 8 5 8.44772 5 9C5 9.55228 5.44772 10 6 10H10C10.5523 10 11 9.55228 11 9C11 8.44772 10.5523 8 10 8H6Z" fill="black"/>
<path d="M4.8618 4.27639L3.9057 6.18861C3.72959 6.54081 4.01095 6.95195 4.40346 6.92034C5.31207 6.84716 6.75319 6.75 8 6.75C9.24681 6.75 10.6879 6.84716 11.5965 6.92034C11.989 6.95195 12.2704 6.54081 12.0943 6.18861L11.1382 4.27639C11.0535 4.107 10.8804 4 10.691 4H5.30902C5.11963 4 4.9465 4.107 4.8618 4.27639Z" fill="black"/>
<path d="M2.52093 3.5152C2.91488 2.59599 3.81872 2 4.81879 2H11.1812C12.1813 2 13.0851 2.59599 13.4791 3.5152L14.271 5.36297C14.3462 5.53842 14.4811 5.68154 14.6518 5.7669C15.1506 6.01629 15.5063 6.48197 15.6157 7.02878L15.9515 8.70775C15.9837 8.86918 16 9.03341 16 9.19804V9.61104C16 10.425 15.6097 11.1538 15 11.6085V13.5C15 13.7761 14.7761 14 14.5 14H12.5C12.2239 14 12 13.7761 12 13.5V12.162C10.7084 12.21 9.25538 12.25 8 12.25C6.74462 12.25 5.29163 12.21 4 12.162V13.5C4 13.7761 3.77614 14 3.5 14H1.5C1.22386 14 1 13.7761 1 13.5V11.6085C0.390331 11.1538 0 10.425 0 9.61104V9.19804C0 9.03341 0.0162617 8.86918 0.0485483 8.70775L0.384342 7.02878C0.493703 6.48198 0.849394 6.01629 1.34816 5.7669C1.51889 5.68154 1.65384 5.53842 1.72903 5.36297L2.52093 3.5152ZM4.81879 3C4.21875 3 3.67644 3.3576 3.44007 3.90912L2.64817 5.75689C2.47981 6.14974 2.17765 6.47019 1.79537 6.66133C1.57262 6.77271 1.41376 6.98069 1.36492 7.2249L1.02913 8.90386C1.00976 9.00072 1 9.09926 1 9.19804V9.61104C1 10.4075 1.61926 11.0593 2.40789 11.0952C3.96284 11.1659 6.19387 11.25 8 11.25C9.80613 11.25 12.0372 11.1659 13.5921 11.0952C14.3807 11.0593 15 10.4075 15 9.61104V9.19804C15 9.09926 14.9902 9.00072 14.9709 8.90386L14.6351 7.2249C14.5862 6.98069 14.4274 6.77271 14.2046 6.66133C13.8223 6.47019 13.5202 6.14974 13.3518 5.75689L12.5599 3.90912C12.3236 3.3576 11.7812 3 11.1812 3H4.81879Z" fill="black"/>
</svg>
