<svg width="16" height="16" viewBox="0 0 16 16" fill="none" xmlns="http://www.w3.org/2000/svg">
<path d="M2.52093 3.5152C2.91488 2.59599 3.81872 2 4.81879 2H11.1812C12.1813 2 13.0851 2.59599 13.4791 3.5152L14.271 5.36297C14.3462 5.53842 14.4811 5.68154 14.6518 5.7669C15.1506 6.01629 15.5063 6.48197 15.6157 7.02878L15.9515 8.70775C15.9837 8.86918 16 9.03341 16 9.19804V9.61104C16 10.425 15.6097 11.1538 15 11.6085V13.5C15 13.7761 14.7761 14 14.5 14H12.5C12.2239 14 12 13.7761 12 13.5V12.162C10.7084 12.21 9.25538 12.25 8 12.25C6.74462 12.25 5.29163 12.21 4 12.162V13.5C4 13.7761 3.77614 14 3.5 14H1.5C1.22386 14 1 13.7761 1 13.5V11.6085C0.390331 11.1538 0 10.425 0 9.61104V9.19804C0 9.03341 0.0162617 8.86918 0.0485483 8.70775L0.384342 7.02878C0.493703 6.48198 0.849394 6.01629 1.34816 5.7669C1.51889 5.68154 1.65384 5.53842 1.72903 5.36297L2.52093 3.5152ZM3 10C3.55228 10 4 9.55228 4 9C4 8.44772 3.55228 8 3 8C2.44772 8 2 8.44772 2 9C2 9.55228 2.44772 10 3 10ZM13 10C13.5523 10 14 9.55228 14 9C14 8.44772 13.5523 8 13 8C12.4477 8 12 8.44772 12 9C12 9.55228 12.4477 10 13 10ZM6 8C5.44772 8 5 8.44772 5 9C5 9.55228 5.44772 10 6 10H10C10.5523 10 11 9.55228 11 9C11 8.44772 10.5523 8 10 8H6ZM2.90568 5.18861C2.72958 5.54081 3.01094 5.95195 3.40344 5.92034C4.31206 5.84716 6.75318 5.75 7.99999 5.75C9.24679 5.75 11.6879 5.84716 12.5965 5.92034C12.989 5.95195 13.2704 5.54081 13.0943 5.18861L12.1382 3.27639C12.0535 3.107 11.8804 3 11.691 3H4.309C4.11962 3 3.94649 3.107 3.86179 3.27639L2.90568 5.18861Z" fill="black"/>
</svg>
