<svg width="16" height="16" viewBox="0 0 16 16" fill="none" xmlns="http://www.w3.org/2000/svg">
<path d="M0 2C0 0.895431 0.895431 0 2 0H14C15.1046 0 16 0.895431 16 2V14C16 15.1046 15.1046 16 14 16H2C0.895431 16 0 15.1046 0 14V2ZM5.5 12C5.5 12.1969 5.61556 12.3755 5.79517 12.4561C5.97479 12.5368 6.18502 12.5045 6.33218 12.3737L10.8322 8.3737C10.9389 8.27881 11 8.14281 11 7.99999C11 7.85717 10.9389 7.72117 10.8322 7.62629L6.33218 3.62629C6.18502 3.49548 5.97479 3.46321 5.79517 3.54387C5.61556 3.62453 5.5 3.8031 5.5 3.99999V12Z" fill="black"/>
</svg>
