<svg width="16" height="16" viewBox="0 0 16 16" fill="none" xmlns="http://www.w3.org/2000/svg">
<path d="M0 2C0 0.895431 0.895431 0 2 0H14C15.1046 0 16 0.895431 16 2V14C16 15.1046 15.1046 16 14 16H2C0.895431 16 0 15.1046 0 14V2ZM4.00001 6C3.80311 6 3.62455 6.11556 3.54389 6.29517C3.46323 6.47479 3.49549 6.68502 3.6263 6.83218L7.6263 11.3322C7.72119 11.4389 7.85719 11.5 8.00001 11.5C8.14283 11.5 8.27883 11.4389 8.37371 11.3322L12.3737 6.83218C12.5045 6.68502 12.5368 6.47479 12.4561 6.29517C12.3755 6.11556 12.1969 6 12 6H4.00001Z" fill="black"/>
</svg>
