<svg width="16" height="16" viewBox="0 0 16 16" fill="none" xmlns="http://www.w3.org/2000/svg">
<path d="M14 1C14.5523 1 15 1.44772 15 2V14C15 14.5523 14.5523 15 14 15H2C1.44772 15 1 14.5523 1 14V2C1 1.44772 1.44772 1 2 1H14ZM2 0C0.895431 0 0 0.895431 0 2V14C0 15.1046 0.895431 16 2 16H14C15.1046 16 16 15.1046 16 14V2C16 0.895431 15.1046 0 14 0H2Z" fill="black"/>
<path d="M10.2048 12.4561C10.3844 12.3755 10.5 12.1969 10.5 12V3.99999C10.5 3.8031 10.3844 3.62453 10.2048 3.54387C10.0252 3.46321 9.81498 3.49548 9.66782 3.62629L5.16782 7.62629C5.06107 7.72117 5 7.85717 5 7.99999C5 8.14281 5.06107 8.27881 5.16782 8.3737L9.66782 12.3737C9.81498 12.5045 10.0252 12.5368 10.2048 12.4561Z" fill="black"/>
</svg>
