<svg width="16" height="16" viewBox="0 0 16 16" fill="none" xmlns="http://www.w3.org/2000/svg">
<path d="M3.6263 6.83218C3.49549 6.68502 3.46323 6.47479 3.54389 6.29517C3.62455 6.11556 3.80311 6 4.00001 6H12C12.1969 6 12.3755 6.11556 12.4561 6.29517C12.5368 6.47479 12.5045 6.68502 12.3737 6.83218L8.37371 11.3322C8.27883 11.4389 8.14283 11.5 8.00001 11.5C7.85719 11.5 7.72119 11.4389 7.6263 11.3322L3.6263 6.83218Z" fill="black"/>
<path d="M0 2C0 0.895431 0.895431 0 2 0H14C15.1046 0 16 0.895431 16 2V14C16 15.1046 15.1046 16 14 16H2C0.895431 16 0 15.1046 0 14V2ZM15 2C15 1.44772 14.5523 1 14 1H2C1.44772 1 1 1.44772 1 2V14C1 14.5523 1.44772 15 2 15H14C14.5523 15 15 14.5523 15 14V2Z" fill="black"/>
</svg>
