<svg width="16" height="16" viewBox="0 0 16 16" fill="none" xmlns="http://www.w3.org/2000/svg">
<path d="M14 1C14.5523 1 15 1.44772 15 2V14C15 14.5523 14.5523 15 14 15H2C1.44772 15 1 14.5523 1 14V2C1 1.44772 1.44772 1 2 1H14ZM2 0C0.895431 0 0 0.895431 0 2V14C0 15.1046 0.895431 16 2 16H14C15.1046 16 16 15.1046 16 14V2C16 0.895431 15.1046 0 14 0H2Z" fill="black"/>
<path d="M3.54389 10.7048C3.62455 10.8844 3.80311 11 4.00001 11H12C12.1969 11 12.3755 10.8844 12.4561 10.7048C12.5368 10.5252 12.5045 10.315 12.3737 10.1678L8.37371 5.66782C8.27883 5.56107 8.14283 5.5 8.00001 5.5C7.85719 5.5 7.72119 5.56107 7.6263 5.66782L3.6263 10.1678C3.49549 10.315 3.46323 10.5252 3.54389 10.7048Z" fill="black"/>
</svg>
