<svg width="16" height="16" viewBox="0 0 16 16" fill="none" xmlns="http://www.w3.org/2000/svg">
<path d="M0.5 1C0.223858 1 0 1.22386 0 1.5C0 1.77614 0.223858 2 0.5 2H1.60961L2.01131 3.6068L3.50856 11.5921C3.55291 11.8286 3.75939 12 4 12H5C3.89543 12 3 12.8954 3 14C3 15.1046 3.89543 16 5 16C6.10457 16 7 15.1046 7 14C7 12.8954 6.10457 12 5 12H12C10.8954 12 10 12.8954 10 14C10 15.1046 10.8954 16 12 16C13.1046 16 14 15.1046 14 14C14 12.8954 13.1046 12 12 12H13C13.2406 12 13.4471 11.8286 13.4914 11.5921L14.9914 3.59214C15.0188 3.44595 14.9797 3.29514 14.8848 3.18068C14.7898 3.06622 14.6487 3 14.5 3H2.89039L2.48507 1.37873C2.42943 1.15615 2.22943 1 2 1H0.5ZM6 14C6 14.5523 5.55228 15 5 15C4.44772 15 4 14.5523 4 14C4 13.4477 4.44772 13 5 13C5.55228 13 6 13.4477 6 14ZM13 14C13 14.5523 12.5523 15 12 15C11.4477 15 11 14.5523 11 14C11 13.4477 11.4477 13 12 13C12.5523 13 13 13.4477 13 14ZM11.3536 6.35355L8.35355 9.35355C8.25978 9.44732 8.13261 9.5 8 9.5C7.86739 9.5 7.74021 9.44732 7.64645 9.35355L6.14645 7.85355C5.95118 7.65829 5.95118 7.34171 6.14645 7.14645C6.34171 6.95118 6.65829 6.95118 6.85355 7.14645L8 8.29289L10.6464 5.64645C10.8417 5.45118 11.1583 5.45118 11.3536 5.64645C11.5488 5.84171 11.5488 6.15829 11.3536 6.35355Z" fill="black"/>
</svg>
