<svg width="16" height="16" viewBox="0 0 16 16" fill="none" xmlns="http://www.w3.org/2000/svg">
<path d="M8 10C9.10457 10 10 9.10457 10 8C10 6.89543 9.10457 6 8 6C6.89543 6 6 6.89543 6 8C6 9.10457 6.89543 10 8 10Z" fill="black"/>
<path d="M0 4C0 3.44772 0.447715 3 1 3H15C15.5523 3 16 3.44772 16 4V12C16 12.5523 15.5523 13 15 13H1C0.447715 13 0 12.5523 0 12V4ZM3 4C3 5.10457 2.10457 6 1 6V10C2.10457 10 3 10.8954 3 12H13C13 10.8954 13.8954 10 15 10V6C13.8954 6 13 5.10457 13 4H3Z" fill="black"/>
</svg>
