<svg width="16" height="16" viewBox="0 0 16 16" fill="none" xmlns="http://www.w3.org/2000/svg">
<path d="M1.5 2C0.671573 2 0 2.67157 0 3.5V12.5C0 13.3284 0.671573 14 1.5 14H1.69098L3.55279 10.2764C3.63748 10.107 3.81061 10 4 10H12C12.1894 10 12.3625 10.107 12.4472 10.2764L14.309 14H14.5C15.3284 14 16 13.3284 16 12.5V3.5C16 2.67157 15.3284 2 14.5 2H1.5ZM4 7C3.44772 7 3 6.55228 3 6C3 5.44772 3.44772 5 4 5C4.55228 5 5 5.44772 5 6C5 6.55228 4.55228 7 4 7ZM12 7C11.4477 7 11 6.55228 11 6C11 5.44772 11.4477 5 12 5C12.5523 5 13 5.44772 13 6C13 6.55228 12.5523 7 12 7ZM6 6C6 5.44772 6.44771 5 7 5H9C9.55228 5 10 5.44772 10 6C10 6.55228 9.55228 7 9 7H7C6.44771 7 6 6.55228 6 6Z" fill="black"/>
<path d="M13.191 14L11.691 11H4.30902L2.80902 14H13.191Z" fill="black"/>
</svg>
