<svg width="16" height="16" viewBox="0 0 16 16" fill="none" xmlns="http://www.w3.org/2000/svg">
<path d="M4 8C4.55228 8 5 7.55228 5 7C5 6.44772 4.55228 6 4 6C3.44772 6 3 6.44772 3 7C3 7.55228 3.44772 8 4 8Z" fill="black"/>
<path d="M13 7C13 7.55228 12.5523 8 12 8C11.4477 8 11 7.55228 11 7C11 6.44772 11.4477 6 12 6C12.5523 6 13 6.44772 13 7Z" fill="black"/>
<path d="M7 6C6.44772 6 6 6.44772 6 7C6 7.55228 6.44772 8 7 8H9C9.55229 8 10 7.55228 10 7C10 6.44772 9.55229 6 9 6H7Z" fill="black"/>
<path d="M1.5 2C0.671573 2 0 2.67157 0 3.5V12.5C0 13.3284 0.671573 14 1.5 14H14.5C15.3284 14 16 13.3284 16 12.5V3.5C16 2.67157 15.3284 2 14.5 2H1.5ZM1 3.5C1 3.22386 1.22386 3 1.5 3H14.5C14.7761 3 15 3.22386 15 3.5V12.5C15 12.7761 14.7761 13 14.5 13H13.809L12.4472 10.2764C12.3625 10.107 12.1894 10 12 10H4C3.81061 10 3.63748 10.107 3.55279 10.2764L2.19098 13H1.5C1.22386 13 1 12.7761 1 12.5V3.5ZM11.691 11L12.691 13H3.30902L4.30902 11H11.691Z" fill="black"/>
</svg>
