<svg width="16" height="16" viewBox="0 0 16 16" fill="none" xmlns="http://www.w3.org/2000/svg">
<path d="M7.64646 9.35354L3.85356 13.1464C3.53858 13.4614 3.76167 14 4.20712 14H11.7929C12.2384 14 12.4614 13.4614 12.1465 13.1464L8.35357 9.35354C8.1583 9.15828 7.84172 9.15828 7.64646 9.35354Z" fill="black"/>
<path d="M11.4142 11H14.5C14.7761 11 15 10.7761 15 10.5V3.5C15 3.22386 14.7761 3 14.5 3H1.5C1.22386 3 1 3.22386 1 3.5V10.5C1 10.7761 1.22386 11 1.5 11H4.58577L3.58577 12H1.5C0.671573 12 0 11.3284 0 10.5V3.5C0 2.67157 0.671573 2 1.5 2H14.5C15.3284 2 16 2.67157 16 3.5V10.5C16 11.3284 15.3284 12 14.5 12H12.4142L11.4142 11Z" fill="black"/>
</svg>
