<svg width="16" height="16" viewBox="0 0 16 16" fill="none" xmlns="http://www.w3.org/2000/svg">
<path d="M16 8C16 12.4183 12.4183 16 8 16C3.58172 16 0 12.4183 0 8C0 3.58172 3.58172 0 8 0C12.4183 0 16 3.58172 16 8ZM5.40808 5.88916C6.08923 5.88916 6.54626 6.35938 6.5946 6.99658H7.74158V6.88672C7.68884 5.7002 6.71765 4.88721 5.39929 4.88721C3.79529 4.88721 2.88123 5.9375 2.88123 7.63818V8.38525C2.88123 10.0859 3.7865 11.1143 5.39929 11.1143C6.71326 11.1143 7.68445 10.3232 7.74158 9.17627V9.06201H6.5946C6.54626 9.67725 6.09802 10.1123 5.40808 10.1123C4.56873 10.1123 4.08972 9.49268 4.08972 8.38525V7.64258C4.08972 6.53076 4.57751 5.88916 5.40808 5.88916ZM10.8116 5.88916C11.4927 5.88916 11.9498 6.35938 11.9981 6.99658H13.1451V6.88672C13.0924 5.7002 12.1212 4.88721 10.8028 4.88721C9.1988 4.88721 8.28474 5.9375 8.28474 7.63818V8.38525C8.28474 10.0859 9.19001 11.1143 10.8028 11.1143C12.1168 11.1143 13.088 10.3232 13.1451 9.17627V9.06201H11.9981C11.9498 9.67725 11.5015 10.1123 10.8116 10.1123C9.97224 10.1123 9.49324 9.49268 9.49324 8.38525V7.64258C9.49324 6.53076 9.98103 5.88916 10.8116 5.88916Z" fill="black"/>
</svg>
