<svg width="16" height="16" viewBox="0 0 16 16" fill="none" xmlns="http://www.w3.org/2000/svg">
<path d="M2 0C0.895431 0 0 0.895431 0 2V14C0 15.1046 0.895431 16 2 16H14C15.1046 16 16 15.1046 16 14V2C16 0.895431 15.1046 0 14 0H2ZM5.40808 5.88916C4.57751 5.88916 4.08972 6.53076 4.08972 7.64258V8.38525C4.08972 9.49268 4.56873 10.1123 5.40808 10.1123C6.09802 10.1123 6.54626 9.67725 6.5946 9.06201H7.74158V9.17627C7.68445 10.3232 6.71326 11.1143 5.39929 11.1143C3.7865 11.1143 2.88123 10.0859 2.88123 8.38525V7.63818C2.88123 5.9375 3.79529 4.88721 5.39929 4.88721C6.71765 4.88721 7.68884 5.7002 7.74158 6.88672V6.99658H6.5946C6.54626 6.35938 6.08923 5.88916 5.40808 5.88916ZM10.8116 5.88916C9.98103 5.88916 9.49324 6.53076 9.49324 7.64258V8.38525C9.49324 9.49268 9.97224 10.1123 10.8116 10.1123C11.5015 10.1123 11.9498 9.67725 11.9981 9.06201H13.1451V9.17627C13.088 10.3232 12.1168 11.1143 10.8028 11.1143C9.19001 11.1143 8.28474 10.0859 8.28474 8.38525V7.63818C8.28474 5.9375 9.1988 4.88721 10.8028 4.88721C12.1212 4.88721 13.0924 5.7002 13.1451 6.88672V6.99658H11.9981C11.9498 6.35938 11.4927 5.88916 10.8116 5.88916Z" fill="black"/>
</svg>
