<svg width="16" height="16" viewBox="0 0 16 16" fill="none" xmlns="http://www.w3.org/2000/svg">
<path d="M14 1C14.5523 1 15 1.44772 15 2V10C15 10.5523 14.5523 11 14 11H11.5C10.8705 11 10.2777 11.2964 9.9 11.8L8 14.3333L6.1 11.8C5.72229 11.2964 5.12951 11 4.5 11H2C1.44772 11 1 10.5523 1 10V2C1 1.44772 1.44772 1 2 1H14ZM2 0C0.895431 0 0 0.895431 0 2V10C0 11.1046 0.89543 12 2 12H4.5C4.81476 12 5.11115 12.1482 5.3 12.4L7.2 14.9333C7.6 15.4667 8.4 15.4667 8.8 14.9333L10.7 12.4C10.8889 12.1482 11.1852 12 11.5 12H14C15.1046 12 16 11.1046 16 10V2C16 0.895431 15.1046 0 14 0H2Z" fill="black"/>
<path d="M5 6C5 6.55228 4.55228 7 4 7C3.44772 7 3 6.55228 3 6C3 5.44772 3.44772 5 4 5C4.55228 5 5 5.44772 5 6Z" fill="black"/>
<path d="M9 6C9 6.55228 8.55229 7 8 7C7.44772 7 7 6.55228 7 6C7 5.44772 7.44772 5 8 5C8.55229 5 9 5.44772 9 6Z" fill="black"/>
<path d="M13 6C13 6.55228 12.5523 7 12 7C11.4477 7 11 6.55228 11 6C11 5.44772 11.4477 5 12 5C12.5523 5 13 5.44772 13 6Z" fill="black"/>
</svg>
