<svg width="16" height="16" viewBox="0 0 16 16" fill="none" xmlns="http://www.w3.org/2000/svg">
<path d="M16 2C16 0.895431 15.1046 0 14 0H2C0.895431 0 0 0.895431 0 2V10C0 11.1046 0.895431 12 2 12H11.5858C11.851 12 12.1054 12.1054 12.2929 12.2929L15.1464 15.1464C15.4614 15.4614 16 15.2383 16 14.7929V2ZM3.5 3H12.5C12.7761 3 13 3.22386 13 3.5C13 3.77614 12.7761 4 12.5 4H3.5C3.22386 4 3 3.77614 3 3.5C3 3.22386 3.22386 3 3.5 3ZM3.5 5.5H12.5C12.7761 5.5 13 5.72386 13 6C13 6.27614 12.7761 6.5 12.5 6.5H3.5C3.22386 6.5 3 6.27614 3 6C3 5.72386 3.22386 5.5 3.5 5.5ZM3.5 8H8.5C8.77614 8 9 8.22386 9 8.5C9 8.77614 8.77614 9 8.5 9H3.5C3.22386 9 3 8.77614 3 8.5C3 8.22386 3.22386 8 3.5 8Z" fill="black"/>
</svg>
