<svg width="16" height="16" viewBox="0 0 16 16" fill="none" xmlns="http://www.w3.org/2000/svg">
<path d="M2 1C1.44772 1 1 1.44772 1 2V10C1 10.5523 1.44772 11 2 11H11.5858C12.1162 11 12.6249 11.2107 13 11.5858L15 13.5858V2C15 1.44772 14.5523 1 14 1H2ZM14 0C15.1046 0 16 0.895431 16 2V14.7929C16 15.2383 15.4614 15.4614 15.1464 15.1464L12.2929 12.2929C12.1054 12.1054 11.851 12 11.5858 12H2C0.895431 12 0 11.1046 0 10V2C0 0.895431 0.895431 0 2 0H14Z" fill="black"/>
<path d="M7.06576 4.7606C6.76869 4.30281 6.25304 4 5.66667 4C4.74619 4 4 4.74619 4 5.66667C4 6.58714 4.74619 7.33333 5.66667 7.33333C5.99594 7.33333 6.30291 7.23785 6.5614 7.07305C6.42994 7.46195 6.1864 7.87672 5.78358 8.29392C5.62374 8.45947 5.62837 8.72324 5.79392 8.88308C5.95947 9.04292 6.22324 9.03829 6.38308 8.87275C7.87032 7.33239 7.67687 5.65853 7.06576 4.7606Z" fill="black"/>
<path d="M11.0658 4.7606C10.7687 4.30281 10.253 4 9.66667 4C8.74619 4 8 4.74619 8 5.66667C8 6.58714 8.74619 7.33333 9.66667 7.33333C9.99594 7.33333 10.3029 7.23785 10.5614 7.07305C10.4299 7.46195 10.1864 7.87672 9.78358 8.29392C9.62374 8.45947 9.62837 8.72324 9.79392 8.88308C9.95947 9.04292 10.2232 9.03829 10.3831 8.87275C11.8703 7.33239 11.6769 5.65853 11.0658 4.7606Z" fill="black"/>
</svg>
