<svg width="16" height="16" viewBox="0 0 16 16" fill="none" xmlns="http://www.w3.org/2000/svg">
<path d="M14 1C14.5523 1 15 1.44772 15 2V10C15 10.5523 14.5523 11 14 11H4.41421C3.88378 11 3.37507 11.2107 3 11.5858L1 13.5858V2C1 1.44772 1.44772 1 2 1H14ZM2 0C0.895431 0 0 0.895431 0 2V14.7929C0 15.2383 0.53857 15.4614 0.853553 15.1464L3.70711 12.2929C3.89464 12.1054 4.149 12 4.41421 12H14C15.1046 12 16 11.1046 16 10V2C16 0.895431 15.1046 0 14 0H2Z" fill="black"/>
<path d="M8 3.99275C9.66439 2.282 13.8254 5.27581 8 9.125C2.17465 5.27581 6.33561 2.282 8 3.99275Z" fill="black"/>
</svg>
