<svg width="16" height="16" viewBox="0 0 16 16" fill="none" xmlns="http://www.w3.org/2000/svg">
<path d="M16 8C16 11.866 12.4183 15 8 15C7.18324 15 6.39508 14.8929 5.65284 14.6939C5.06898 14.9897 3.72774 15.5584 1.47172 15.9277C1.27271 15.9603 1.12037 15.7521 1.19898 15.5664C1.55308 14.7299 1.87251 13.6162 1.96979 12.6001C0.743061 11.3699 0 9.76087 0 8C0 4.13401 3.58172 1 8 1C12.4183 1 16 4.13401 16 8ZM7.1937 6.76641C7.12801 6.66822 7.05188 6.5771 6.96683 6.49448C6.82511 6.35233 6.66691 6.23977 6.4982 6.16964L6.49029 6.16639C6.26175 6.05979 6.00519 6 5.7341 6C4.77638 6 4 6.74619 4 7.66667C4 8.58714 4.77638 9.33333 5.7341 9.33333C6.07667 9.33333 6.39604 9.23786 6.66497 9.07309C6.52827 9.46177 6.27501 9.87656 5.85574 10.2939C5.68944 10.4595 5.69425 10.7232 5.8665 10.8831C6.03874 11.0429 6.31319 11.0383 6.4795 10.8727C7.81424 9.54409 7.84943 8.11463 7.42148 7.16738C7.35735 7.02542 7.28068 6.89016 7.1937 6.76641ZM11.0002 9.07309C10.8635 9.46177 10.6102 9.87656 10.1909 10.2939C10.0246 10.4595 10.0294 10.7232 10.2017 10.8831C10.3739 11.0429 10.6484 11.0383 10.8147 10.8727C12.1494 9.54409 12.1846 8.11463 11.7567 7.16738C11.6925 7.02542 11.6159 6.89016 11.5289 6.7664C11.4632 6.66822 11.3871 6.57711 11.302 6.49449C11.1603 6.35234 11.0021 6.23977 10.8334 6.16964L10.8255 6.16639C10.5969 6.05979 10.3404 6 10.0693 6C9.11158 6 8.3352 6.74619 8.3352 7.66667C8.3352 8.58714 9.11158 9.33333 10.0693 9.33333C10.4119 9.33333 10.7312 9.23786 11.0002 9.07309Z" fill="#040404"/>
</svg>
