<svg width="16" height="16" viewBox="0 0 16 16" fill="none" xmlns="http://www.w3.org/2000/svg">
<path d="M14 1C14.5523 1 15 1.44772 15 2V10C15 10.5523 14.5523 11 14 11H11.5C10.8705 11 10.2777 11.2964 9.9 11.8L8 14.3333L6.1 11.8C5.72229 11.2964 5.12951 11 4.5 11H2C1.44772 11 1 10.5523 1 10V2C1 1.44772 1.44772 1 2 1H14ZM2 0C0.895431 0 0 0.895431 0 2V10C0 11.1046 0.89543 12 2 12H4.5C4.81476 12 5.11115 12.1482 5.3 12.4L7.2 14.9333C7.6 15.4667 8.4 15.4667 8.8 14.9333L10.7 12.4C10.8889 12.1482 11.1852 12 11.5 12H14C15.1046 12 16 11.1046 16 10V2C16 0.895431 15.1046 0 14 0H2Z" fill="black"/>
<path d="M7.06576 4.7606C6.76869 4.30281 6.25304 4 5.66667 4C4.74619 4 4 4.74619 4 5.66667C4 6.58714 4.74619 7.33333 5.66667 7.33333C5.99594 7.33333 6.30291 7.23785 6.5614 7.07305C6.42994 7.46195 6.1864 7.87672 5.78358 8.29392C5.62374 8.45947 5.62837 8.72324 5.79392 8.88308C5.95947 9.04292 6.22324 9.03829 6.38308 8.87275C7.87032 7.33239 7.67687 5.65853 7.06576 4.7606Z" fill="black"/>
<path d="M11.0658 4.7606C10.7687 4.30281 10.253 4 9.66667 4C8.74619 4 8 4.74619 8 5.66667C8 6.58714 8.74619 7.33333 9.66667 7.33333C9.99594 7.33333 10.3029 7.23785 10.5614 7.07305C10.4299 7.46195 10.1864 7.87672 9.78358 8.29392C9.62374 8.45947 9.62837 8.72324 9.79392 8.88308C9.95947 9.04292 10.2232 9.03829 10.3831 8.87275C11.8703 7.33239 11.6769 5.65853 11.0658 4.7606Z" fill="black"/>
</svg>
