<svg width="16" height="16" viewBox="0 0 16 16" fill="none" xmlns="http://www.w3.org/2000/svg">
<path d="M2.67789 11.894C2.88828 12.1049 2.99363 12.3988 2.96523 12.6954C2.90159 13.3601 2.75502 14.0519 2.56677 14.6945C3.96166 14.3721 4.81358 13.9981 5.20082 13.8019C5.42062 13.6905 5.67381 13.6642 5.91182 13.728C6.56966 13.9044 7.27076 14 8 14C11.9956 14 15 11.1925 15 8C15 4.80754 11.9956 2 8 2C4.0044 2 1 4.80754 1 8C1 9.46809 1.6173 10.8304 2.67789 11.894ZM2.18489 15.7989C2.17816 15.8003 2.17142 15.8016 2.16466 15.8029C2.07283 15.821 1.97922 15.8388 1.88382 15.8563C1.75 15.8808 1.61264 15.9047 1.47172 15.9277C1.27271 15.9603 1.12037 15.7521 1.19898 15.5664C1.25034 15.4451 1.30097 15.3179 1.3503 15.1861C1.38164 15.1023 1.41245 15.0167 1.44259 14.9294C1.44389 14.9256 1.44518 14.9219 1.44648 14.9181C1.69422 14.1984 1.89596 13.3711 1.96979 12.6001C0.743061 11.3699 0 9.76087 0 8C0 4.13401 3.58172 1 8 1C12.4183 1 16 4.13401 16 8C16 11.866 12.4183 15 8 15C7.18324 15 6.39508 14.8929 5.65284 14.6939C5.13337 14.9571 4.01434 15.4363 2.18489 15.7989Z" fill="black"/>
<path d="M7.06576 6.7606C6.76869 6.30281 6.25304 6 5.66667 6C4.74619 6 4 6.74619 4 7.66667C4 8.58714 4.74619 9.33333 5.66667 9.33333C5.99594 9.33333 6.30291 9.23785 6.5614 9.07305C6.42994 9.46195 6.1864 9.87672 5.78358 10.2939C5.62374 10.4595 5.62837 10.7232 5.79392 10.8831C5.95947 11.0429 6.22324 11.0383 6.38308 10.8727C7.87032 9.33239 7.67687 7.65853 7.06576 6.7606Z" fill="black"/>
<path d="M11.0658 6.7606C10.7687 6.30281 10.253 6 9.66667 6C8.74619 6 8 6.74619 8 7.66667C8 8.58714 8.74619 9.33333 9.66667 9.33333C9.99594 9.33333 10.3029 9.23785 10.5614 9.07305C10.4299 9.46195 10.1864 9.87672 9.78358 10.2939C9.62374 10.4595 9.62837 10.7232 9.79392 10.8831C9.95947 11.0429 10.2232 11.0383 10.3831 10.8727C11.8703 9.33239 11.6769 7.65853 11.0658 6.7606Z" fill="black"/>
</svg>
