<svg width="16" height="16" viewBox="0 0 16 16" fill="none" xmlns="http://www.w3.org/2000/svg">
<path d="M0 2C0 0.895431 0.895431 0 2 0H14C15.1046 0 16 0.895431 16 2V10C16 11.1046 15.1046 12 14 12H11.5C11.1852 12 10.8889 12.1482 10.7 12.4L8.8 14.9333C8.4 15.4667 7.6 15.4667 7.2 14.9333L5.3 12.4C5.11115 12.1482 4.81476 12 4.5 12H2C0.89543 12 0 11.1046 0 10V2ZM3.5 3C3.22386 3 3 3.22386 3 3.5C3 3.77614 3.22386 4 3.5 4H12.5C12.7761 4 13 3.77614 13 3.5C13 3.22386 12.7761 3 12.5 3H3.5ZM3.5 5.5C3.22386 5.5 3 5.72386 3 6C3 6.27614 3.22386 6.5 3.5 6.5H12.5C12.7761 6.5 13 6.27614 13 6C13 5.72386 12.7761 5.5 12.5 5.5H3.5ZM3.5 8C3.22386 8 3 8.22386 3 8.5C3 8.77614 3.22386 9 3.5 9H8.5C8.77614 9 9 8.77614 9 8.5C9 8.22386 8.77614 8 8.5 8H3.5Z" fill="black"/>
</svg>
