<svg width="16" height="16" viewBox="0 0 16 16" fill="none" xmlns="http://www.w3.org/2000/svg">
<path d="M16 8C16 11.866 12.4183 15 8 15C7.18324 15 6.39508 14.8929 5.65284 14.6939C5.06898 14.9897 3.72774 15.5584 1.47172 15.9277C1.27271 15.9603 1.12037 15.7521 1.19898 15.5664C1.55308 14.7299 1.87251 13.6162 1.96979 12.6001C0.743061 11.3699 0 9.76087 0 8C0 4.13401 3.58172 1 8 1C12.4183 1 16 4.13401 16 8ZM4.5 5C4.22386 5 4 5.22386 4 5.5C4 5.77614 4.22386 6 4.5 6H11.5C11.7761 6 12 5.77614 12 5.5C12 5.22386 11.7761 5 11.5 5H4.5ZM4.5 7.5C4.22386 7.5 4 7.72386 4 8C4 8.27614 4.22386 8.5 4.5 8.5H11.5C11.7761 8.5 12 8.27614 12 8C12 7.72386 11.7761 7.5 11.5 7.5H4.5ZM4.5 10C4.22386 10 4 10.2239 4 10.5C4 10.7761 4.22386 11 4.5 11H8.5C8.77614 11 9 10.7761 9 10.5C9 10.2239 8.77614 10 8.5 10H4.5Z" fill="#040404"/>
</svg>
