<svg width="16" height="16" viewBox="0 0 16 16" fill="none" xmlns="http://www.w3.org/2000/svg">
<path d="M16 2C16 0.895431 15.1046 0 14 0H2C0.895431 0 0 0.895431 0 2V10C0 11.1046 0.895431 12 2 12H11.5858C11.851 12 12.1054 12.1054 12.2929 12.2929L15.1464 15.1464C15.4614 15.4614 16 15.2383 16 14.7929V2ZM7.1937 4.76641C7.28068 4.89016 7.35735 5.02542 7.42148 5.16738C7.84943 6.11463 7.81424 7.54409 6.4795 8.87275C6.31319 9.03829 6.03874 9.04292 5.8665 8.88308C5.69425 8.72324 5.68944 8.45947 5.85574 8.29392C6.27501 7.87656 6.52827 7.46177 6.66497 7.07309C6.39603 7.23786 6.07667 7.33333 5.7341 7.33333C4.77638 7.33333 4 6.58714 4 5.66667C4 4.74619 4.77638 4 5.7341 4C6.00519 4 6.26175 4.05979 6.49029 4.16639L6.4982 4.16964C6.66691 4.23977 6.82511 4.35233 6.96683 4.49448C7.05188 4.5771 7.12801 4.66822 7.1937 4.76641ZM11.0002 7.07309C10.7312 7.23786 10.4119 7.33333 10.0693 7.33333C9.11158 7.33333 8.3352 6.58714 8.3352 5.66667C8.3352 4.74619 9.11158 4 10.0693 4C10.3404 4 10.5969 4.05979 10.8255 4.16639L10.8334 4.16964C11.0021 4.23977 11.1603 4.35234 11.302 4.49449C11.3871 4.57711 11.4632 4.66822 11.5289 4.7664C11.6159 4.89016 11.6925 5.02542 11.7567 5.16738C12.1846 6.11463 12.1494 7.54409 10.8147 8.87275C10.6484 9.03829 10.3739 9.04292 10.2017 8.88308C10.0294 8.72324 10.0246 8.45947 10.1909 8.29392C10.6102 7.87656 10.8635 7.46177 11.0002 7.07309Z" fill="black"/>
</svg>
