<svg width="16" height="16" viewBox="0 0 16 16" fill="none" xmlns="http://www.w3.org/2000/svg">
<path d="M8 15C12.4183 15 16 11.866 16 8C16 4.13401 12.4183 1 8 1C3.58172 1 0 4.13401 0 8C0 9.76087 0.743061 11.3699 1.96979 12.6001C1.87251 13.6162 1.55308 14.7299 1.19898 15.5664C1.12037 15.7521 1.27271 15.9603 1.47172 15.9277C3.72774 15.5584 5.06898 14.9897 5.65284 14.6939C6.39508 14.8929 7.18324 15 8 15ZM8 5.99275C9.66439 4.282 13.8254 7.27581 8 11.125C2.17465 7.27581 6.33561 4.282 8 5.99275Z" fill="black"/>
</svg>
