<svg width="16" height="16" viewBox="0 0 16 16" fill="none" xmlns="http://www.w3.org/2000/svg">
<path d="M14 1C14.5523 1 15 1.44772 15 2V10C15 10.5523 14.5523 11 14 11H11.5C10.8705 11 10.2777 11.2964 9.9 11.8L8 14.3333L6.1 11.8C5.72229 11.2964 5.12951 11 4.5 11H2C1.44772 11 1 10.5523 1 10V2C1 1.44772 1.44772 1 2 1H14ZM2 0C0.895431 0 0 0.895431 0 2V10C0 11.1046 0.89543 12 2 12H4.5C4.81476 12 5.11115 12.1482 5.3 12.4L7.2 14.9333C7.6 15.4667 8.4 15.4667 8.8 14.9333L10.7 12.4C10.8889 12.1482 11.1852 12 11.5 12H14C15.1046 12 16 11.1046 16 10V2C16 0.895431 15.1046 0 14 0H2Z" fill="black"/>
<path d="M3 3.5C3 3.22386 3.22386 3 3.5 3H12.5C12.7761 3 13 3.22386 13 3.5C13 3.77614 12.7761 4 12.5 4H3.5C3.22386 4 3 3.77614 3 3.5ZM3 6C3 5.72386 3.22386 5.5 3.5 5.5H12.5C12.7761 5.5 13 5.72386 13 6C13 6.27614 12.7761 6.5 12.5 6.5H3.5C3.22386 6.5 3 6.27614 3 6ZM3 8.5C3 8.22386 3.22386 8 3.5 8H8.5C8.77614 8 9 8.22386 9 8.5C9 8.77614 8.77614 9 8.5 9H3.5C3.22386 9 3 8.77614 3 8.5Z" fill="black"/>
</svg>
