<svg width="16" height="16" viewBox="0 0 16 16" fill="none" xmlns="http://www.w3.org/2000/svg">
<path d="M0 2C0 0.895431 0.895431 0 2 0H14C15.1046 0 16 0.895431 16 2V10C16 11.1046 15.1046 12 14 12H11.5C11.1852 12 10.8889 12.1482 10.7 12.4L8.8 14.9333C8.4 15.4667 7.6 15.4667 7.2 14.9333L5.3 12.4C5.11115 12.1482 4.81476 12 4.5 12H2C0.89543 12 0 11.1046 0 10V2ZM5 6C5 5.44772 4.55228 5 4 5C3.44772 5 3 5.44772 3 6C3 6.55228 3.44772 7 4 7C4.55228 7 5 6.55228 5 6ZM9 6C9 5.44772 8.55229 5 8 5C7.44772 5 7 5.44772 7 6C7 6.55228 7.44772 7 8 7C8.55229 7 9 6.55228 9 6ZM12 7C12.5523 7 13 6.55228 13 6C13 5.44772 12.5523 5 12 5C11.4477 5 11 5.44772 11 6C11 6.55228 11.4477 7 12 7Z" fill="black"/>
</svg>
