<svg width="16" height="16" viewBox="0 0 16 16" fill="none" xmlns="http://www.w3.org/2000/svg">
<path d="M0 2C0 0.895431 0.895431 0 2 0H14C15.1046 0 16 0.895431 16 2V10C16 11.1046 15.1046 12 14 12H11.5C11.1852 12 10.8889 12.1482 10.7 12.4L8.8 14.9333C8.4 15.4667 7.6 15.4667 7.2 14.9333L5.3 12.4C5.11115 12.1482 4.81476 12 4.5 12H2C0.89543 12 0 11.1046 0 10V2ZM7.1937 4.76641C7.12801 4.66822 7.05188 4.5771 6.96683 4.49448C6.82511 4.35233 6.66691 4.23977 6.4982 4.16964L6.49029 4.16639C6.26175 4.05979 6.00519 4 5.7341 4C4.77638 4 4 4.74619 4 5.66667C4 6.58714 4.77638 7.33333 5.7341 7.33333C6.07667 7.33333 6.39603 7.23786 6.66497 7.07309C6.52827 7.46177 6.27501 7.87656 5.85574 8.29392C5.68944 8.45947 5.69425 8.72324 5.8665 8.88308C6.03874 9.04292 6.31319 9.03829 6.4795 8.87275C7.81424 7.54409 7.84943 6.11463 7.42148 5.16738C7.35735 5.02542 7.28068 4.89016 7.1937 4.76641ZM11.0002 7.07309C10.8635 7.46177 10.6102 7.87656 10.1909 8.29392C10.0246 8.45947 10.0294 8.72324 10.2017 8.88308C10.3739 9.04292 10.6484 9.03829 10.8147 8.87275C12.1494 7.54409 12.1846 6.11463 11.7567 5.16738C11.6925 5.02542 11.6159 4.89016 11.5289 4.7664C11.4632 4.66822 11.3871 4.57711 11.302 4.49449C11.1603 4.35234 11.0021 4.23977 10.8334 4.16964L10.8255 4.16639C10.5969 4.05979 10.3404 4 10.0693 4C9.11158 4 8.3352 4.74619 8.3352 5.66667C8.3352 6.58714 9.11158 7.33333 10.0693 7.33333C10.4119 7.33333 10.7312 7.23786 11.0002 7.07309Z" fill="black"/>
</svg>
