<svg width="16" height="16" viewBox="0 0 16 16" fill="none" xmlns="http://www.w3.org/2000/svg">
<path d="M2.5 8C2.5 4.96243 4.96243 2.5 8 2.5C9.00262 2.5 9.94117 2.76782 10.7496 3.2355C10.9887 3.37377 11.2945 3.29209 11.4328 3.05306C11.5711 2.81403 11.4894 2.50816 11.2504 2.36989C10.2938 1.81654 9.1831 1.5 8 1.5C4.41015 1.5 1.5 4.41015 1.5 8C1.5 11.5899 4.41015 14.5 8 14.5C11.5899 14.5 14.5 11.5899 14.5 8C14.5 7.72386 14.2761 7.5 14 7.5C13.7239 7.5 13.5 7.72386 13.5 8C13.5 11.0376 11.0376 13.5 8 13.5C4.96243 13.5 2.5 11.0376 2.5 8Z" fill="black"/>
<path d="M15.3536 3.35355C15.5488 3.15829 15.5488 2.84171 15.3536 2.64645C15.1583 2.45118 14.8417 2.45118 14.6464 2.64645L8 9.29289L5.35355 6.64645C5.15829 6.45118 4.84171 6.45118 4.64645 6.64645C4.45118 6.84171 4.45118 7.15829 4.64645 7.35355L7.64645 10.3536C7.84171 10.5488 8.15829 10.5488 8.35355 10.3536L15.3536 3.35355Z" fill="black"/>
</svg>
