<svg width="16" height="16" viewBox="0 0 16 16" fill="none" xmlns="http://www.w3.org/2000/svg">
<path d="M0 6C0 2.68629 2.68629 0 6 0C9.31371 0 12 2.68629 12 6C12 9.31371 9.31371 12 6 12C2.68629 12 0 9.31371 0 6Z" fill="black"/>
<path d="M12.9291 5H14.5C14.7761 5 15 5.22386 15 5.5V14.5C15 14.7761 14.7761 15 14.5 15H5.5C5.22386 15 5 14.7761 5 14.5V12.9291C4.65807 12.8802 4.32412 12.8066 4 12.7101V14.5C4 15.3284 4.67157 16 5.5 16H14.5C15.3284 16 16 15.3284 16 14.5V5.5C16 4.67157 15.3284 4 14.5 4H12.7101C12.8066 4.32412 12.8802 4.65807 12.9291 5Z" fill="black"/>
</svg>
