<svg width="16" height="16" viewBox="0 0 16 16" fill="none" xmlns="http://www.w3.org/2000/svg">
<path d="M4 1.5H3C1.89543 1.5 1 2.39543 1 3.5V14C1 15.1046 1.89543 16 3 16H13C14.1046 16 15 15.1046 15 14V3.5C15 2.39543 14.1046 1.5 13 1.5H12V2.5H13C13.5523 2.5 14 2.94772 14 3.5V14C14 14.5523 13.5523 15 13 15H3C2.44772 15 2 14.5523 2 14V3.5C2 2.94772 2.44772 2.5 3 2.5H4V1.5Z" fill="black"/>
<path d="M9.5 1C9.77614 1 10 1.22386 10 1.5V2.5C10 2.77614 9.77614 3 9.5 3H6.5C6.22386 3 6 2.77614 6 2.5V1.5C6 1.22386 6.22386 1 6.5 1H9.5ZM6.5 0C5.67157 0 5 0.671573 5 1.5V2.5C5 3.32843 5.67157 4 6.5 4H9.5C10.3284 4 11 3.32843 11 2.5V1.5C11 0.671573 10.3284 0 9.5 0H6.5Z" fill="black"/>
<path fill-rule="evenodd" clip-rule="evenodd" d="M6.14645 7.14645C6.34171 6.95118 6.65829 6.95118 6.85355 7.14645L8 8.29289L9.14645 7.14645C9.34171 6.95118 9.65829 6.95118 9.85355 7.14645C10.0488 7.34171 10.0488 7.65829 9.85355 7.85355L8.70711 9L9.85355 10.1464C10.0488 10.3417 10.0488 10.6583 9.85355 10.8536C9.65829 11.0488 9.34171 11.0488 9.14645 10.8536L8 9.70711L6.85355 10.8536C6.65829 11.0488 6.34171 11.0488 6.14645 10.8536C5.95118 10.6583 5.95118 10.3417 6.14645 10.1464L7.29289 9L6.14645 7.85355C5.95118 7.65829 5.95118 7.34171 6.14645 7.14645Z" fill="black"/>
</svg>
