<svg width="16" height="16" viewBox="0 0 16 16" fill="none" xmlns="http://www.w3.org/2000/svg">
<path d="M10 0.5C10 0.223857 9.77614 0 9.5 0H6.5C6.22386 0 6 0.223857 6 0.5C6 0.776142 5.77614 1 5.5 1C5.22386 1 5 1.22386 5 1.5V2C5 2.27614 5.22386 2.5 5.5 2.5H10.5C10.7761 2.5 11 2.27614 11 2V1.5C11 1.22386 10.7761 1 10.5 1C10.2239 1 10 0.776142 10 0.5Z" fill="black"/>
<path d="M4.08535 1H3.5C2.67157 1 2 1.67157 2 2.5V14.5C2 15.3284 2.67157 16 3.5 16H12.5C13.3284 16 14 15.3284 14 14.5V2.5C14 1.67157 13.3284 1 12.5 1H11.9146C11.9699 1.15639 12 1.32468 12 1.5V2C12 2.82843 11.3284 3.5 10.5 3.5H5.5C4.67157 3.5 4 2.82843 4 2V1.5C4 1.32468 4.03008 1.15639 4.08535 1ZM10 7C10 6.44772 10.4477 6 11 6C11.5523 6 12 6.44772 12 7V12C12 12.5523 11.5523 13 11 13C10.4477 13 10 12.5523 10 12V7ZM4 11C4 10.4477 4.44772 10 5 10C5.55228 10 6 10.4477 6 11V12C6 12.5523 5.55228 13 5 13C4.44772 13 4 12.5523 4 12V11ZM8 8C8.55228 8 9 8.44772 9 9V12C9 12.5523 8.55228 13 8 13C7.44772 13 7 12.5523 7 12V9C7 8.44772 7.44772 8 8 8Z" fill="black"/>
</svg>
