<svg width="17" height="16" viewBox="0 0 17 16" fill="none" xmlns="http://www.w3.org/2000/svg">
<path fill-rule="evenodd" clip-rule="evenodd" d="M10.0576 0.501312C10.0576 0.22517 9.83376 0 9.55762 0H6.57856C6.30242 0 6.07856 0.22517 6.07856 0.501312C6.07856 0.776009 5.85587 1 5.58118 1C5.30648 1 5.08379 1.22269 5.08379 1.49738V2C5.08379 2.27614 5.30765 2.5 5.58379 2.5H10.5524C10.8285 2.5 11.0524 2.27614 11.0524 2V1.49738C11.0524 1.22269 10.8297 1 10.555 1C10.2803 1 10.0576 0.776009 10.0576 0.501312Z" fill="black"/>
<path fill-rule="evenodd" clip-rule="evenodd" d="M4.17394 1H3.60474C2.77631 1 2.10474 1.67157 2.10474 2.5V14.5C2.10474 15.3284 2.77631 16 3.60474 16H12.6047C13.4332 16 14.1047 15.3284 14.1047 14.5V2.5C14.1047 1.67157 13.4332 1 12.6047 1H11.9622C12.0172 1.15639 12.0471 1.32468 12.0471 1.5V2C12.0471 2.82843 11.3791 3.5 10.555 3.5H5.58118C4.75709 3.5 4.08903 2.82843 4.08903 2V1.5C4.08903 1.32468 4.11895 1.15639 4.17394 1ZM8.06809 6.4818C9.72376 4.80907 13.8629 7.73635 8.06809 11.5C2.27323 7.73635 6.41241 4.80907 8.06809 6.4818Z" fill="black"/>
</svg>
