<svg width="16" height="16" viewBox="0 0 16 16" fill="none" xmlns="http://www.w3.org/2000/svg">
<path d="M10 0.5C10 0.223857 9.77614 0 9.5 0H6.5C6.22386 0 6 0.223857 6 0.5C6 0.776142 5.77614 1 5.5 1C5.22386 1 5 1.22386 5 1.5V2C5 2.27614 5.22386 2.5 5.5 2.5H10.5C10.7761 2.5 11 2.27614 11 2V1.5C11 1.22386 10.7761 1 10.5 1C10.2239 1 10 0.776142 10 0.5Z" fill="black"/>
<path d="M4.08535 1H3.5C2.67157 1 2 1.67157 2 2.5V14.5C2 15.3284 2.67157 16 3.5 16H12.5C13.3284 16 14 15.3284 14 14.5V2.5C14 1.67157 13.3284 1 12.5 1H11.9146C11.9699 1.15639 12 1.32468 12 1.5V2C12 2.82843 11.3284 3.5 10.5 3.5H5.5C4.67157 3.5 4 2.82843 4 2V1.5C4 1.32468 4.03008 1.15639 4.08535 1ZM8 8.29289L9.14645 7.14645C9.34171 6.95118 9.65829 6.95118 9.85355 7.14645C10.0488 7.34171 10.0488 7.65829 9.85355 7.85355L8.70711 9L9.85355 10.1464C10.0488 10.3417 10.0488 10.6583 9.85355 10.8536C9.65829 11.0488 9.34171 11.0488 9.14645 10.8536L8 9.70711L6.85355 10.8536C6.65829 11.0488 6.34171 11.0488 6.14645 10.8536C5.95118 10.6583 5.95118 10.3417 6.14645 10.1464L7.29289 9L6.14645 7.85355C5.95118 7.65829 5.95118 7.34171 6.14645 7.14645C6.34171 6.95118 6.65829 6.95118 6.85355 7.14645L8 8.29289Z" fill="black"/>
</svg>
