<svg width="16" height="16" viewBox="0 0 16 16" fill="none" xmlns="http://www.w3.org/2000/svg">
<path d="M6.5 0C5.67157 0 5 0.671573 5 1.5V2.5C5 3.32843 5.67157 4 6.5 4H9.5C10.3284 4 11 3.32843 11 2.5V1.5C11 0.671573 10.3284 0 9.5 0H6.5ZM9.5 1C9.77614 1 10 1.22386 10 1.5V2.5C10 2.77614 9.77614 3 9.5 3H6.5C6.22386 3 6 2.77614 6 2.5V1.5C6 1.22386 6.22386 1 6.5 1H9.5Z" fill="black"/>
<path d="M4 1.5H3C1.89543 1.5 1 2.39543 1 3.5V14C1 15.1046 1.89543 16 3 16H13C14.1046 16 15 15.1046 15 14V3.5C15 2.39543 14.1046 1.5 13 1.5H12V2.5C12 3.88071 10.8807 5 9.5 5H6.5C5.11929 5 4 3.88071 4 2.5V1.5ZM10 8C10 7.44772 10.4477 7 11 7C11.5523 7 12 7.44772 12 8V13C12 13.5523 11.5523 14 11 14C10.4477 14 10 13.5523 10 13V8ZM4 12C4 11.4477 4.44772 11 5 11C5.55228 11 6 11.4477 6 12V13C6 13.5523 5.55228 14 5 14C4.44772 14 4 13.5523 4 13V12ZM8 9C8.55228 9 9 9.44772 9 10V13C9 13.5523 8.55228 14 8 14C7.44772 14 7 13.5523 7 13V10C7 9.44772 7.44772 9 8 9Z" fill="black"/>
</svg>
