<svg width="16" height="16" viewBox="0 0 16 16" fill="none" xmlns="http://www.w3.org/2000/svg">
<path d="M10 0.5C10 0.223857 9.77614 0 9.5 0H6.5C6.22386 0 6 0.223857 6 0.5C6 0.776142 5.77614 1 5.5 1C5.22386 1 5 1.22386 5 1.5V2C5 2.27614 5.22386 2.5 5.5 2.5H10.5C10.7761 2.5 11 2.27614 11 2V1.5C11 1.22386 10.7761 1 10.5 1C10.2239 1 10 0.776142 10 0.5Z" fill="black"/>
<path d="M4.08535 1H3.5C2.67157 1 2 1.67157 2 2.5V14.5C2 15.3284 2.67157 16 3.5 16H12.5C13.3284 16 14 15.3284 14 14.5V2.5C14 1.67157 13.3284 1 12.5 1H11.9146C11.9699 1.15639 12 1.32468 12 1.5V2C12 2.82843 11.3284 3.5 10.5 3.5H5.5C4.67157 3.5 4 2.82843 4 2V1.5C4 1.32468 4.03008 1.15639 4.08535 1ZM9.97891 5.35633L11.372 10H11.5C11.7761 10 12 10.2239 12 10.5C12 10.7761 11.7761 11 11.5 11H11C10.7792 11 10.5845 10.8552 10.5211 10.6437L9.58078 7.50932L8.4889 12.6048C8.44107 12.828 8.24816 12.9904 8.02009 12.9996C7.79201 13.0088 7.58668 12.8623 7.52109 12.6437L6.38337 8.85129L5.44721 10.7236C5.36252 10.893 5.18939 11 5 11H4.5C4.22386 11 4 10.7761 4 10.5C4 10.2239 4.22386 10 4.5 10H4.69098L6.05279 7.27639C6.14446 7.09304 6.33876 6.98423 6.54299 7.00185C6.74723 7.01948 6.92001 7.15998 6.97891 7.35633L7.91922 10.4907L9.0111 5.39524C9.05893 5.17204 9.25184 5.00957 9.47991 5.0004C9.70799 4.99123 9.91332 5.13769 9.97891 5.35633Z" fill="black"/>
</svg>
