<svg width="16" height="16" viewBox="0 0 16 16" fill="none" xmlns="http://www.w3.org/2000/svg">
<path d="M6.5 0C5.67157 0 5 0.671573 5 1.5V2.5C5 3.32843 5.67157 4 6.5 4H9.5C10.3284 4 11 3.32843 11 2.5V1.5C11 0.671573 10.3284 0 9.5 0H6.5ZM9.5 1C9.77614 1 10 1.22386 10 1.5V2.5C10 2.77614 9.77614 3 9.5 3H6.5C6.22386 3 6 2.77614 6 2.5V1.5C6 1.22386 6.22386 1 6.5 1H9.5Z" fill="black"/>
<path d="M4 1.5H3C1.89543 1.5 1 2.39543 1 3.5V14C1 15.1046 1.89543 16 3 16H13C14.1046 16 15 15.1046 15 14V3.5C15 2.39543 14.1046 1.5 13 1.5H12V2.5C12 3.88071 10.8807 5 9.5 5H6.5C5.11929 5 4 3.88071 4 2.5V1.5ZM9.97891 6.35633L11.372 11H11.5C11.7761 11 12 11.2239 12 11.5C12 11.7761 11.7761 12 11.5 12H11C10.7792 12 10.5845 11.8552 10.5211 11.6437L9.58078 8.50932L8.4889 13.6048C8.44107 13.828 8.24816 13.9904 8.02009 13.9996C7.79201 14.0088 7.58668 13.8623 7.52109 13.6437L6.38337 9.85129L5.44721 11.7236C5.36252 11.893 5.18939 12 5 12H4.5C4.22386 12 4 11.7761 4 11.5C4 11.2239 4.22386 11 4.5 11H4.69098L6.05279 8.27639C6.14446 8.09304 6.33876 7.98423 6.54299 8.00185C6.74723 8.01948 6.92001 8.15998 6.97891 8.35633L7.91922 11.4907L9.0111 6.39524C9.05893 6.17204 9.25184 6.00957 9.47991 6.0004C9.70799 5.99123 9.91332 6.13769 9.97891 6.35633Z" fill="black"/>
</svg>
