<svg width="16" height="16" viewBox="0 0 16 16" fill="none" xmlns="http://www.w3.org/2000/svg">
<path d="M9.5 0C9.77614 0 10 0.223858 10 0.5C10 0.776142 10.2239 1 10.5 1C10.7761 1 11 1.22386 11 1.5V2C11 2.27614 10.7761 2.5 10.5 2.5H5.5C5.22386 2.5 5 2.27614 5 2V1.5C5 1.22386 5.22386 1 5.5 1C5.77614 1 6 0.776142 6 0.5C6 0.223858 6.22386 0 6.5 0H9.5Z" fill="black"/>
<path d="M3 2.5C3 2.22386 3.22386 2 3.5 2H4C4.27614 2 4.5 1.77614 4.5 1.5C4.5 1.22386 4.27614 1 4 1H3.5C2.67157 1 2 1.67157 2 2.5V14.5C2 15.3284 2.67157 16 3.5 16H12.5C13.3284 16 14 15.3284 14 14.5V2.5C14 1.67157 13.3284 1 12.5 1H12C11.7239 1 11.5 1.22386 11.5 1.5C11.5 1.77614 11.7239 2 12 2H12.5C12.7761 2 13 2.22386 13 2.5V14.5C13 14.7761 12.7761 15 12.5 15H3.5C3.22386 15 3 14.7761 3 14.5V2.5Z" fill="black"/>
<path d="M10.8536 7.85355C11.0488 7.65829 11.0488 7.34171 10.8536 7.14645C10.6583 6.95118 10.3417 6.95118 10.1464 7.14645L7.5 9.79289L6.35355 8.64645C6.15829 8.45118 5.84171 8.45118 5.64645 8.64645C5.45118 8.84171 5.45118 9.15829 5.64645 9.35355L7.14645 10.8536C7.24021 10.9473 7.36739 11 7.5 11C7.63261 11 7.75979 10.9473 7.85355 10.8536L10.8536 7.85355Z" fill="black"/>
</svg>
