<svg width="16" height="16" viewBox="0 0 16 16" fill="none" xmlns="http://www.w3.org/2000/svg">
<path d="M9.5 0C9.77614 0 10 0.223858 10 0.5C10 0.776142 10.2239 1 10.5 1C10.7761 1 11 1.22386 11 1.5V2C11 2.27614 10.7761 2.5 10.5 2.5H5.5C5.22386 2.5 5 2.27614 5 2V1.5C5 1.22386 5.22386 1 5.5 1C5.77614 1 6 0.776142 6 0.5C6 0.223858 6.22386 0 6.5 0H9.5Z" fill="black"/>
<path d="M3 2.5C3 2.22386 3.22386 2 3.5 2H4C4.27614 2 4.5 1.77614 4.5 1.5C4.5 1.22386 4.27614 1 4 1H3.5C2.67157 1 2 1.67157 2 2.5V14.5C2 15.3284 2.67157 16 3.5 16H12.5C13.3284 16 14 15.3284 14 14.5V2.5C14 1.67157 13.3284 1 12.5 1H12C11.7239 1 11.5 1.22386 11.5 1.5C11.5 1.77614 11.7239 2 12 2H12.5C12.7761 2 13 2.22386 13 2.5V14.5C13 14.7761 12.7761 15 12.5 15H3.5C3.22386 15 3 14.7761 3 14.5V2.5Z" fill="black"/>
<path d="M8 8.29289L6.85355 7.14645C6.65829 6.95118 6.34171 6.95118 6.14645 7.14645C5.95118 7.34171 5.95118 7.65829 6.14645 7.85355L7.29289 9L6.14645 10.1464C5.95118 10.3417 5.95118 10.6583 6.14645 10.8536C6.34171 11.0488 6.65829 11.0488 6.85355 10.8536L8 9.70711L9.14645 10.8536C9.34171 11.0488 9.65829 11.0488 9.85355 10.8536C10.0488 10.6583 10.0488 10.3417 9.85355 10.1464L8.70711 9L9.85355 7.85355C10.0488 7.65829 10.0488 7.34171 9.85355 7.14645C9.65829 6.95118 9.34171 6.95118 9.14645 7.14645L8 8.29289Z" fill="black"/>
</svg>
