<svg width="16" height="16" viewBox="0 0 16 16" fill="none" xmlns="http://www.w3.org/2000/svg">
<path fill-rule="evenodd" clip-rule="evenodd" d="M5 1.5C5 0.671573 5.67157 0 6.5 0H9.5C10.3284 0 11 0.671573 11 1.5V2.5C11 3.32843 10.3284 4 9.5 4H6.5C5.67157 4 5 3.32843 5 2.5V1.5ZM10 1.5C10 1.22386 9.77614 1 9.5 1H6.5C6.22386 1 6 1.22386 6 1.5V2.5C6 2.77614 6.22386 3 6.5 3H9.5C9.77614 3 10 2.77614 10 2.5V1.5Z" fill="black"/>
<path d="M3 1.5H4V2.5H3C2.44772 2.5 2 2.94772 2 3.5V14C2 14.5523 2.44772 15 3 15H13C13.5523 15 14 14.5523 14 14V3.5C14 2.94772 13.5523 2.5 13 2.5H12V1.5H13C14.1046 1.5 15 2.39543 15 3.5V14C15 15.1046 14.1046 16 13 16H3C1.89543 16 1 15.1046 1 14V3.5C1 2.39543 1.89543 1.5 3 1.5Z" fill="black"/>
<path d="M8 6.9818C9.66439 5.30907 13.8254 8.23635 8 12C2.17465 8.23635 6.33561 5.30907 8 6.9818Z" fill="black"/>
</svg>
