<svg width="16" height="16" viewBox="0 0 16 16" fill="none" xmlns="http://www.w3.org/2000/svg">
<path d="M9.5 0C9.77614 0 10 0.223858 10 0.5C10 0.776142 10.2239 1 10.5 1C10.7761 1 11 1.22386 11 1.5V2C11 2.27614 10.7761 2.5 10.5 2.5H5.5C5.22386 2.5 5 2.27614 5 2V1.5C5 1.22386 5.22386 1 5.5 1C5.77614 1 6 0.776142 6 0.5C6 0.223858 6.22386 0 6.5 0H9.5Z" fill="black"/>
<path d="M3.5 1H4.08535C4.03008 1.15639 4 1.32468 4 1.5V2C4 2.82843 4.67157 3.5 5.5 3.5H10.5C11.3284 3.5 12 2.82843 12 2V1.5C12 1.32468 11.9699 1.15639 11.9146 1H12.5C13.3284 1 14 1.67157 14 2.5V14.5C14 15.3284 13.3284 16 12.5 16H3.5C2.67157 16 2 15.3284 2 14.5V2.5C2 1.67157 2.67157 1 3.5 1Z" fill="black"/>
</svg>
