<svg width="16" height="16" viewBox="0 0 16 16" fill="none" xmlns="http://www.w3.org/2000/svg">
<path fill-rule="evenodd" clip-rule="evenodd" d="M10 1.5C10 1.22386 9.77614 1 9.5 1H6.5C6.22386 1 6 1.22386 6 1.5V2.5C6 2.77614 6.22386 3 6.5 3H9.5C9.77614 3 10 2.77614 10 2.5V1.5ZM5 1.5C5 0.671573 5.67157 0 6.5 0H9.5C10.3284 0 11 0.671573 11 1.5V2.5C11 3.32843 10.3284 4 9.5 4H6.5C5.67157 4 5 3.32843 5 2.5V1.5ZM3 1.5H4V2.5H3C2.44772 2.5 2 2.94772 2 3.5V14C2 14.5523 2.44772 15 3 15H13C13.5523 15 14 14.5523 14 14V3.5C14 2.94772 13.5523 2.5 13 2.5H12V1.5H13C14.1046 1.5 15 2.39543 15 3.5V14C15 15.1046 14.1046 16 13 16H3C1.89543 16 1 15.1046 1 14V3.5C1 2.39543 1.89543 1.5 3 1.5ZM9.97891 5.35633C9.91332 5.13769 9.70799 4.99123 9.47991 5.0004C9.25184 5.00957 9.05893 5.17204 9.0111 5.39524L7.91922 10.4907L6.97891 7.35633C6.92001 7.15998 6.74723 7.01948 6.54299 7.00185C6.33876 6.98422 6.14446 7.09304 6.05279 7.27639L4.69098 10H4.5C4.22386 10 4 10.2239 4 10.5C4 10.7761 4.22386 11 4.5 11H5C5.18939 11 5.36252 10.893 5.44721 10.7236L6.38337 8.85129L7.52109 12.6437C7.58668 12.8623 7.79201 13.0088 8.02009 12.9996C8.24816 12.9904 8.44107 12.828 8.4889 12.6048L9.58078 7.50932L10.5211 10.6437C10.5845 10.8552 10.7792 11 11 11H11.5C11.7761 11 12 10.7761 12 10.5C12 10.2239 11.7761 10 11.5 10H11.372L9.97891 5.35633Z" fill="black"/>
</svg>
