<svg width="16" height="16" viewBox="0 0 16 16" fill="none" xmlns="http://www.w3.org/2000/svg">
<path d="M9.5 0C9.77614 0 10 0.223858 10 0.5C10 0.776142 10.2239 1 10.5 1C10.7761 1 11 1.22386 11 1.5V2C11 2.27614 10.7761 2.5 10.5 2.5H5.5C5.22386 2.5 5 2.27614 5 2V1.5C5 1.22386 5.22386 1 5.5 1C5.77614 1 6 0.776142 6 0.5C6 0.223858 6.22386 0 6.5 0H9.5Z" fill="black"/>
<path d="M3 2.5C3 2.22386 3.22386 2 3.5 2H4C4.27614 2 4.5 1.77614 4.5 1.5C4.5 1.22386 4.27614 1 4 1H3.5C2.67157 1 2 1.67157 2 2.5V14.5C2 15.3284 2.67157 16 3.5 16H12.5C13.3284 16 14 15.3284 14 14.5V2.5C14 1.67157 13.3284 1 12.5 1H12C11.7239 1 11.5 1.22386 11.5 1.5C11.5 1.77614 11.7239 2 12 2H12.5C12.7761 2 13 2.22386 13 2.5V14.5C13 14.7761 12.7761 15 12.5 15H3.5C3.22386 15 3 14.7761 3 14.5V2.5Z" fill="black"/>
<path d="M9.97891 5.35633C9.91332 5.13769 9.70799 4.99123 9.47991 5.0004C9.25184 5.00957 9.05893 5.17204 9.0111 5.39524L7.91922 10.4907L6.97891 7.35633C6.92001 7.15998 6.74723 7.01948 6.54299 7.00185C6.33876 6.98423 6.14446 7.09304 6.05279 7.27639L4.69098 10H4.5C4.22386 10 4 10.2239 4 10.5C4 10.7761 4.22386 11 4.5 11H5C5.18939 11 5.36252 10.893 5.44721 10.7236L6.38337 8.85129L7.52109 12.6437C7.58668 12.8623 7.79201 13.0088 8.02009 12.9996C8.24816 12.9904 8.44107 12.828 8.4889 12.6048L9.58078 7.50932L10.5211 10.6437C10.5845 10.8552 10.7792 11 11 11H11.5C11.7761 11 12 10.7761 12 10.5C12 10.2239 11.7761 10 11.5 10H11.372L9.97891 5.35633Z" fill="black"/>
</svg>
