<svg width="17" height="16" viewBox="0 0 17 16" fill="none" xmlns="http://www.w3.org/2000/svg">
<path d="M10.0576 0.501312C10.0576 0.22517 9.83376 0 9.55762 0H6.57856C6.30242 0 6.07856 0.22517 6.07856 0.501312C6.07856 0.776009 5.85587 1 5.58118 1C5.30648 1 5.08379 1.22269 5.08379 1.49738V2C5.08379 2.27614 5.30765 2.5 5.58379 2.5H10.5524C10.8285 2.5 11.0524 2.27614 11.0524 2V1.49738C11.0524 1.22269 10.8297 1 10.555 1C10.2803 1 10.0576 0.776009 10.0576 0.501312Z" fill="black"/>
<path d="M3.60474 2C3.32859 2 3.10474 2.22386 3.10474 2.5V14.5C3.10474 14.7761 3.32859 15 3.60474 15H12.6047C12.8809 15 13.1047 14.7761 13.1047 14.5V2.5C13.1047 2.22386 12.8809 2 12.6047 2H12.1047C11.8286 2 11.6047 1.77614 11.6047 1.5C11.6047 1.22386 11.8286 1 12.1047 1H12.6047C13.4332 1 14.1047 1.67157 14.1047 2.5V14.5C14.1047 15.3284 13.4332 16 12.6047 16H3.60474C2.77631 16 2.10474 15.3284 2.10474 14.5V2.5C2.10474 1.67157 2.77631 1 3.60474 1H4.10474C4.38088 1 4.60474 1.22386 4.60474 1.5C4.60474 1.77614 4.38088 2 4.10474 2H3.60474Z" fill="black"/>
<path d="M8.06803 6.4818C9.72371 4.80907 13.8629 7.73635 8.06803 11.5C2.27318 7.73635 6.41236 4.80907 8.06803 6.4818Z" fill="black"/>
</svg>
