<svg width="16" height="16" viewBox="0 0 16 16" fill="none" xmlns="http://www.w3.org/2000/svg">
<path fill-rule="evenodd" clip-rule="evenodd" d="M3.11154 5.11154C3.03352 5.31405 2.97618 5.51941 2.94223 5.725C1.26586 6.09512 0 7.55511 0 9.31818C0 11.366 1.70754 13 3.78125 13H11L10 12H3.78125C2.23059 12 1 10.7849 1 9.31818C1 7.95266 2.06371 6.80512 3.46088 6.65155L3.90625 6.6026V6.15455C3.90625 6.07989 3.91206 6.00274 3.92362 5.92362L3.11154 5.11154ZM5.66128 3.66128L4.93737 2.93737C5.7788 2.37421 6.83445 2 8 2C10.6902 2 12.9233 3.99944 13.1657 6.57898C14.7581 6.80411 16 8.13656 16 9.77273C16 10.9164 15.3932 11.9117 14.4841 12.4841L13.7513 11.7513C14.4975 11.3783 15 10.6257 15 9.77273C15 8.55703 13.9793 7.54545 12.6875 7.54545H12.1875V7.04545C12.1875 4.8256 10.3273 3 8 3C7.12492 3 6.32202 3.2594 5.66128 3.66128Z" fill="black"/>
<path d="M13.6465 14.3535L1.64648 2.35353L2.35359 1.64642L14.3536 13.6464L13.6465 14.3535Z" fill="black"/>
</svg>
