<svg width="16" height="16" viewBox="0 0 16 16" fill="none" xmlns="http://www.w3.org/2000/svg">
<path d="M8.5 3C10.9287 3 12.9524 4.73121 13.4053 7.02715C14.8705 7.22503 16 8.48061 16 10C16 11.6569 14.6569 13 13 13H11.5C11.7761 13 12 12.7761 12 12.5C12 12.2239 11.7761 12 11.5 12L1.05051 12C0.757566 11.7129 0.514865 11.3748 0.336816 11L9.5 11C9.77614 11 10 10.7761 10 10.5C10 10.2239 9.77614 10 9.5 10H0.0354443C0.0120859 9.8367 0 9.66976 0 9.5C0 9.33024 0.0120859 9.1633 0.0354443 9H7.5C7.77614 9 8 8.77614 8 8.5C8 8.22386 7.77614 8 7.5 8H0.336816C0.898548 6.81753 2.1038 6 3.5 6C3.63721 6 3.77271 6.00792 3.90606 6.02335C4.67207 4.24546 6.44002 3 8.5 3Z" fill="black"/>
</svg>
