<svg width="16" height="16" viewBox="0 0 16 16" fill="none" xmlns="http://www.w3.org/2000/svg">
<path fill-rule="evenodd" clip-rule="evenodd" d="M3.11154 5.11154C3.03352 5.31405 2.97618 5.51941 2.94223 5.725C1.26586 6.09512 0 7.55511 0 9.31818C0 11.366 1.70754 13 3.78125 13H11L3.11154 5.11154ZM14.4841 12.4841L4.93737 2.93737C5.7788 2.37421 6.83445 2 8 2C10.6902 2 12.9233 3.99944 13.1657 6.57898C14.7581 6.80411 16 8.13656 16 9.77273C16 10.9164 15.3932 11.9117 14.4841 12.4841Z" fill="black"/>
<path fill-rule="evenodd" clip-rule="evenodd" d="M13.6465 14.3535L1.64648 2.35353L2.35359 1.64642L14.3536 13.6464L13.6465 14.3535Z" fill="black"/>
</svg>
