<svg width="16" height="16" viewBox="0 0 16 16" fill="none" xmlns="http://www.w3.org/2000/svg">
<path d="M4.15811 12.0255C4.42009 12.1129 4.56167 12.396 4.47434 12.658L3.97434 14.158C3.88702 14.42 3.60386 14.5615 3.34189 14.4742C3.07991 14.3869 2.93833 14.1037 3.02566 13.8418L3.52566 12.3418C3.61298 12.0798 3.89614 11.9382 4.15811 12.0255ZM7.15811 12.0255C7.42009 12.1129 7.56167 12.396 7.47434 12.658L6.47434 15.658C6.38702 15.92 6.10386 16.0615 5.84189 15.9742C5.57992 15.8869 5.43833 15.6037 5.52566 15.3418L6.52566 12.3418C6.61298 12.0798 6.89614 11.9382 7.15811 12.0255ZM10.1581 12.0255C10.4201 12.1129 10.5617 12.396 10.4743 12.658L9.97434 14.158C9.88702 14.42 9.60386 14.5615 9.34189 14.4742C9.07992 14.3869 8.93833 14.1037 9.02566 13.8418L9.52566 12.3418C9.61298 12.0798 9.89614 11.9382 10.1581 12.0255ZM13.1581 12.0255C13.4201 12.1129 13.5617 12.396 13.4743 12.658L12.4743 15.658C12.387 15.92 12.1039 16.0615 11.8419 15.9742C11.5799 15.8869 11.4383 15.6037 11.5257 15.3418L12.5257 12.3418C12.613 12.0798 12.8961 11.9382 13.1581 12.0255Z" fill="black"/>
<path d="M13.4053 5.02703C12.9524 2.73108 10.9287 0.999878 8.5 0.999878C6.44002 0.999878 4.67207 2.24534 3.90606 4.02323C3.77271 4.0078 3.63721 3.99988 3.5 3.99988C1.567 3.99988 0 5.56688 0 7.49988C0 9.43287 1.567 10.9999 3.5 10.9999L13 10.9999C14.6569 10.9999 16 9.65673 16 7.99988C16 6.48049 14.8705 5.22491 13.4053 5.02703ZM8.5 1.99988C10.5586 1.99988 12.2546 3.55544 12.4756 5.55495C12.5037 5.80931 12.7193 6.00139 12.9752 6.00002L13 5.99988L13.0013 5.99988C14.1053 6.00057 15 6.89573 15 7.99988C15 9.10445 14.1046 9.99988 13 9.99988L3.5 9.99988C2.11929 9.99988 1 8.88059 1 7.49988C1 6.11917 2.11929 4.99988 3.5 4.99988C3.70933 4.99988 3.91197 5.0255 4.10527 5.07353C4.35911 5.1366 4.61867 4.99339 4.70065 4.74501C5.22714 3.14996 6.72992 1.99988 8.5 1.99988Z" fill="black"/>
</svg>
