<svg width="16" height="16" viewBox="0 0 16 16" fill="none" xmlns="http://www.w3.org/2000/svg">
<path d="M4.15813 12.0255C4.4201 12.1129 4.56168 12.396 4.47436 12.658L3.97436 14.158C3.88703 14.42 3.60387 14.5616 3.3419 14.4742C3.07993 14.3869 2.93835 14.1037 3.02567 13.8418L3.52567 12.3418C3.613 12.0798 3.89616 11.9382 4.15813 12.0255ZM7.15813 12.0255C7.4201 12.1129 7.56168 12.396 7.47436 12.658L6.47436 15.658C6.38703 15.92 6.10387 16.0616 5.8419 15.9742C5.57993 15.8869 5.43835 15.6037 5.52567 15.3418L6.52567 12.3418C6.613 12.0798 6.89616 11.9382 7.15813 12.0255ZM10.1581 12.0255C10.4201 12.1129 10.5617 12.396 10.4744 12.658L9.97436 14.158C9.88703 14.42 9.60387 14.5616 9.3419 14.4742C9.07993 14.3869 8.93835 14.1037 9.02567 13.8418L9.52567 12.3418C9.613 12.0798 9.89615 11.9382 10.1581 12.0255ZM13.1581 12.0255C13.4201 12.1129 13.5617 12.396 13.4744 12.658L12.4744 15.658C12.387 15.92 12.1039 16.0616 11.8419 15.9742C11.5799 15.8869 11.4383 15.6037 11.5257 15.3418L12.5257 12.3418C12.613 12.0798 12.8962 11.9382 13.1581 12.0255Z" fill="black"/>
<path d="M13.4053 5.02703C12.9524 2.73108 10.9287 0.999878 8.5 0.999878C6.44002 0.999878 4.67207 2.24534 3.90606 4.02323C3.77271 4.0078 3.63721 3.99988 3.5 3.99988C1.567 3.99988 0 5.56688 0 7.49988C0 9.43287 1.567 10.9999 3.5 10.9999L13 10.9999C14.6569 10.9999 16 9.65673 16 7.99988C16 6.48049 14.8705 5.22491 13.4053 5.02703Z" fill="black"/>
</svg>
