<svg width="16" height="16" viewBox="0 0 16 16" fill="none" xmlns="http://www.w3.org/2000/svg">
<path d="M11.4726 9.00015C11.2239 6.7501 9.31633 5 7 5C5.03642 5 3.36759 6.25725 2.75267 8.01005C1.21152 8.13582 0 9.42642 0 11C0 12.6569 1.34315 14 3 14H11.5C12.8807 14 14 12.8807 14 11.5C14 10.1193 12.8807 9 11.5 9C11.4908 9 11.4817 9.00005 11.4726 9.00015Z" fill="black"/>
<path d="M14.5443 9.77192C14.0725 8.9425 13.2715 8.32473 12.3191 8.09636C11.6983 5.7384 9.55272 4 7 4C6.65228 4 6.31217 4.03225 5.98248 4.0939C6.65975 2.84671 7.981 2 9.5 2C11.3651 2 12.9315 3.27615 13.3747 5.0031C13.4162 5.00104 13.458 5 13.5 5C14.8807 5 16 6.11929 16 7.5C16 8.50835 15.4034 9.37641 14.5443 9.77192Z" fill="black"/>
</svg>
