<svg width="16" height="16" viewBox="0 0 16 16" fill="none" xmlns="http://www.w3.org/2000/svg">
<path d="M13.4053 4.27715C12.9524 1.98121 10.9287 0.25 8.5 0.25C6.44002 0.25 4.67207 1.49546 3.90606 3.27335C3.77271 3.25792 3.63721 3.25 3.5 3.25C1.567 3.25 0 4.817 0 6.75C0 8.683 1.567 10.25 3.5 10.25L13 10.25C14.6569 10.25 16 8.90685 16 7.25C16 5.73061 14.8705 4.47503 13.4053 4.27715ZM8.5 1.25C10.5586 1.25 12.2546 2.80556 12.4756 4.80507C12.5037 5.05943 12.7193 5.25151 12.9752 5.25014L13 5.25L13.0013 5.25C14.1053 5.25069 15 6.14586 15 7.25C15 8.35457 14.1046 9.25 13 9.25L3.5 9.25C2.11929 9.25 1 8.13071 1 6.75C1 5.36929 2.11929 4.25 3.5 4.25C3.70933 4.25 3.91197 4.27562 4.10527 4.32365C4.35911 4.38673 4.61867 4.24351 4.70065 3.99513C5.22714 2.40008 6.72992 1.25 8.5 1.25Z" fill="black"/>
<path d="M2.62499 11.5C2.76306 11.5 2.87499 11.6119 2.87499 11.75V12.3192L3.37596 12.0329C3.49584 11.9644 3.64856 12.0061 3.71706 12.126C3.78556 12.2458 3.74391 12.3986 3.62403 12.4671L3.12889 12.75L3.62403 13.0329C3.74391 13.1014 3.78556 13.2542 3.71705 13.374C3.64855 13.4939 3.49584 13.5356 3.37596 13.4671L2.87499 13.1808V13.75C2.87499 13.8881 2.76306 14 2.62499 14C2.48692 14 2.37499 13.8881 2.37499 13.75V13.1808L1.87404 13.4671C1.75416 13.5356 1.60145 13.4939 1.53295 13.374C1.46444 13.2542 1.50609 13.1014 1.62597 13.0329L2.12111 12.75L1.62596 12.4671C1.50609 12.3986 1.46444 12.2458 1.53294 12.126C1.60144 12.0061 1.75416 11.9644 1.87403 12.0329L2.37499 12.3192V11.75C2.37499 11.6119 2.48692 11.5 2.62499 11.5Z" fill="black"/>
<path d="M5.37499 13.5C5.51306 13.5 5.62499 13.6119 5.62499 13.75V14.3192L6.12597 14.0329C6.24584 13.9644 6.39856 14.0061 6.46706 14.126C6.53556 14.2458 6.49391 14.3986 6.37403 14.4671L5.87889 14.75L6.37403 15.0329C6.49391 15.1014 6.53556 15.2542 6.46705 15.374C6.39855 15.4939 6.24584 15.5356 6.12596 15.4671L5.62499 15.1808V15.75C5.62499 15.8881 5.51306 16 5.37499 16C5.23692 16 5.12499 15.8881 5.12499 15.75V15.1808L4.62404 15.4671C4.50416 15.5356 4.35145 15.4939 4.28295 15.374C4.21444 15.2542 4.25609 15.1014 4.37597 15.0329L4.87111 14.75L4.37596 14.4671C4.25609 14.3986 4.21444 14.2458 4.28294 14.126C4.35144 14.0061 4.50416 13.9644 4.62403 14.0329L5.12499 14.3192V13.75C5.12499 13.6119 5.23692 13.5 5.37499 13.5Z" fill="black"/>
<path d="M10.875 13.5C11.0131 13.5 11.125 13.6119 11.125 13.75V14.3192L11.626 14.0329C11.7458 13.9644 11.8986 14.0061 11.9671 14.126C12.0356 14.2458 11.9939 14.3986 11.874 14.4671L11.3789 14.75L11.874 15.0329C11.9939 15.1014 12.0356 15.2542 11.9671 15.374C11.8986 15.4939 11.7458 15.5356 11.626 15.4671L11.125 15.1808V15.75C11.125 15.8881 11.0131 16 10.875 16C10.7369 16 10.625 15.8881 10.625 15.75V15.1808L10.124 15.4671C10.0042 15.5356 9.85145 15.4939 9.78295 15.374C9.71444 15.2542 9.75609 15.1014 9.87597 15.0329L10.3711 14.75L9.87597 14.4671C9.75609 14.3986 9.71444 14.2458 9.78294 14.126C9.85144 14.0061 10.0042 13.9644 10.124 14.0329L10.625 14.3192V13.75C10.625 13.6119 10.7369 13.5 10.875 13.5Z" fill="black"/>
<path d="M8.12499 11.5C8.26306 11.5 8.37499 11.6119 8.37499 11.75V12.3192L8.87597 12.0329C8.99584 11.9644 9.14856 12.0061 9.21706 12.126C9.28556 12.2458 9.24391 12.3986 9.12403 12.4671L8.62889 12.75L9.12403 13.0329C9.24391 13.1014 9.28556 13.2542 9.21705 13.374C9.14855 13.4939 8.99584 13.5356 8.87596 13.4671L8.37499 13.1808V13.75C8.37499 13.8881 8.26306 14 8.12499 14C7.98692 14 7.87499 13.8881 7.87499 13.75V13.1808L7.37404 13.4671C7.25416 13.5356 7.10145 13.4939 7.03295 13.374C6.96444 13.2542 7.00609 13.1014 7.12597 13.0329L7.62111 12.75L7.12596 12.4671C7.00609 12.3986 6.96444 12.2458 7.03294 12.126C7.10144 12.0061 7.25416 11.9644 7.37403 12.0329L7.87499 12.3192V11.75C7.87499 11.6119 7.98692 11.5 8.12499 11.5Z" fill="black"/>
<path d="M13.625 11.5C13.7631 11.5 13.875 11.6119 13.875 11.75V12.3192L14.376 12.0329C14.4958 11.9644 14.6486 12.0061 14.7171 12.126C14.7856 12.2458 14.7439 12.3986 14.624 12.4671L14.1289 12.75L14.624 13.0329C14.7439 13.1014 14.7856 13.2542 14.7171 13.374C14.6486 13.4939 14.4958 13.5356 14.376 13.4671L13.875 13.1808V13.75C13.875 13.8881 13.7631 14 13.625 14C13.4869 14 13.375 13.8881 13.375 13.75V13.1808L12.874 13.4671C12.7542 13.5356 12.6014 13.4939 12.5329 13.374C12.4644 13.2542 12.5061 13.1014 12.626 13.0329L13.1211 12.75L12.626 12.4671C12.5061 12.3986 12.4644 12.2458 12.5329 12.126C12.6014 12.0061 12.7542 11.9644 12.874 12.0329L13.375 12.3192V11.75C13.375 11.6119 13.4869 11.5 13.625 11.5Z" fill="black"/>
</svg>
