<svg width="16" height="16" viewBox="0 0 16 16" fill="none" xmlns="http://www.w3.org/2000/svg">
<path d="M3 13.5C3 13.2239 3.22386 13 3.5 13L12.5 13C12.7761 13 13 13.2239 13 13.5C13 13.7761 12.7761 14 12.5 14L3.5 14C3.22386 14 3 13.7761 3 13.5ZM3 15.5C3 15.2239 3.22386 15 3.5 15L12.5 15C12.7761 15 13 15.2239 13 15.5C13 15.7761 12.7761 16 12.5 16H3.5C3.22386 16 3 15.7761 3 15.5Z" fill="black"/>
<path d="M13.4053 6.02715C12.9524 3.73121 10.9287 2 8.5 2C6.44002 2 4.67207 3.24546 3.90606 5.02335C3.77271 5.00792 3.63721 5 3.5 5C1.567 5 0 6.567 0 8.5C0 10.433 1.567 12 3.5 12L13 12C14.6569 12 16 10.6569 16 9C16 7.48061 14.8705 6.22503 13.4053 6.02715Z" fill="black"/>
</svg>
