<svg width="16" height="16" viewBox="0 0 16 16" fill="none" xmlns="http://www.w3.org/2000/svg">
<path d="M13.4053 4.52715C12.9524 2.23121 10.9287 0.5 8.5 0.5C6.44002 0.5 4.67207 1.74546 3.90606 3.52335C3.77271 3.50792 3.63721 3.5 3.5 3.5C1.567 3.5 0 5.067 0 7C0 8.933 1.567 10.5 3.5 10.5L13 10.5C14.6569 10.5 16 9.15685 16 7.5C16 5.98061 14.8705 4.72503 13.4053 4.52715ZM8.5 1.5C10.5586 1.5 12.2546 3.05556 12.4756 5.05507C12.5037 5.30943 12.7193 5.50151 12.9752 5.50014L13 5.5L13.0013 5.5C14.1053 5.50069 15 6.39586 15 7.5C15 8.60457 14.1046 9.5 13 9.5L3.5 9.5C2.11929 9.5 1 8.38071 1 7C1 5.61929 2.11929 4.5 3.5 4.5C3.70933 4.5 3.91197 4.52562 4.10527 4.57365C4.35911 4.63673 4.61867 4.49351 4.70065 4.24513C5.22714 2.65008 6.72992 1.5 8.5 1.5Z" fill="black"/>
<path d="M3.75 15.25C3.75 15.6642 3.41421 16 3 16C2.58579 16 2.25 15.6642 2.25 15.25C2.25 14.8358 2.58579 14.5 3 14.5C3.41421 14.5 3.75 14.8358 3.75 15.25Z" fill="black"/>
<path d="M4.15811 11.5257C4.42008 11.613 4.56167 11.8961 4.47434 12.1581L3.97434 13.6581C3.88702 13.9201 3.60386 14.0617 3.34189 13.9743C3.07991 13.887 2.93833 13.6039 3.02566 13.3419L3.52566 11.8419C3.61298 11.5799 3.89614 11.4383 4.15811 11.5257Z" fill="black"/>
<path d="M7.75 15.25C7.75 15.6642 7.41421 16 7 16C6.58579 16 6.25 15.6642 6.25 15.25C6.25 14.8358 6.58579 14.5 7 14.5C7.41421 14.5 7.75 14.8358 7.75 15.25Z" fill="black"/>
<path d="M8.15811 11.5257C8.42008 11.613 8.56167 11.8961 8.47434 12.1581L7.97434 13.6581C7.88702 13.9201 7.60386 14.0617 7.34189 13.9743C7.07991 13.887 6.93833 13.6039 7.02566 13.3419L7.52566 11.8419C7.61298 11.5799 7.89614 11.4383 8.15811 11.5257Z" fill="black"/>
<path d="M11.75 15.25C11.75 15.6642 11.4142 16 11 16C10.5858 16 10.25 15.6642 10.25 15.25C10.25 14.8358 10.5858 14.5 11 14.5C11.4142 14.5 11.75 14.8358 11.75 15.25Z" fill="black"/>
<path d="M12.1581 11.5257C12.4201 11.613 12.5617 11.8961 12.4743 12.1581L11.9743 13.6581C11.887 13.9201 11.6039 14.0617 11.3419 13.9743C11.0799 13.887 10.9383 13.6039 11.0257 13.3419L11.5257 11.8419C11.613 11.5799 11.8961 11.4383 12.1581 11.5257Z" fill="black"/>
</svg>
