<svg width="16" height="16" viewBox="0 0 16 16" fill="none" xmlns="http://www.w3.org/2000/svg">
<path d="M7.00049 8C8.93349 8 10.5005 9.567 10.5005 11.5C10.5005 11.5185 10.5003 11.537 10.5001 11.5554C10.4976 11.7113 10.5681 11.8595 10.6907 11.956C10.8132 12.0524 10.9737 12.0862 11.1248 12.0473C11.2443 12.0165 11.3701 12 11.5005 12C12.3289 12 13.0005 12.6716 13.0005 13.5C13.0005 14.3284 12.3289 15 11.5005 15L3.00049 15C1.89592 15 1.00049 14.1046 1.00049 13C1.00049 11.8954 1.89592 11 3.00049 11C3.03424 11 3.06777 11.0008 3.10108 11.0025C3.3383 11.0142 3.55101 10.8574 3.61003 10.6273C3.99766 9.11628 5.36934 8 7.00049 8ZM11.473 11.0001C11.2244 8.7501 9.31682 7 7.00049 7C5.03691 7 3.36808 8.25725 2.75316 10.0101C1.212 10.1358 0.000488281 11.4264 0.000488281 13C0.000488281 14.6569 1.34363 16 3.00049 16H11.5005C12.8812 16 14.0005 14.8807 14.0005 13.5C14.0005 12.1193 12.8812 11 11.5005 11C11.4913 11 11.4822 11 11.473 11.0001Z" fill="black"/>
<path d="M11.2857 1.77766C11.4034 1.60137 11.3972 1.37004 11.2701 1.20036C11.1431 1.03069 10.9229 0.95955 10.7206 1.02284C8.8551 1.60647 7.50046 3.34789 7.50046 5.40702C7.50046 5.61703 7.51456 5.82376 7.54186 6.0263C7.90487 6.06176 8.25752 6.13249 8.59634 6.23504C8.53364 5.96922 8.50046 5.69199 8.50046 5.40702C8.50046 4.28121 9.01842 3.27574 9.82946 2.61676C9.73412 2.98536 9.6834 3.3718 9.6834 3.76981C9.6834 6.26078 11.6664 8.28861 14.1399 8.36083C13.559 8.76406 12.8537 9.00003 12.0935 9.00003C12.0279 9.00003 11.9626 8.99827 11.8979 8.99479C12.0604 9.31185 12.193 9.64676 12.292 9.99581C13.8046 9.93144 15.1275 9.13526 15.9158 7.95442C16.0335 7.77814 16.0273 7.5468 15.9002 7.37713C15.7732 7.20745 15.553 7.13631 15.3507 7.1996C15.0121 7.30554 14.6514 7.36282 14.2764 7.36282C12.292 7.36282 10.6834 5.75417 10.6834 3.76981C10.6834 3.03203 10.9052 2.34759 11.2857 1.77766Z" fill="black"/>
</svg>
