<svg width="16" height="16" viewBox="0 0 16 16" fill="none" xmlns="http://www.w3.org/2000/svg">
<path d="M8.5 2C10.9287 2 12.9524 3.73121 13.4053 6.02715C14.8705 6.22503 16 7.48061 16 9C16 10.6569 14.6569 12 13 12L3.5 12C1.73676 12 0.278059 10.6961 0.0354443 9H5.5C5.77614 9 6 8.77614 6 8.5C6 8.22386 5.77614 8 5.5 8H0.0354443C0.278059 6.30385 1.73676 5 3.5 5C3.63721 5 3.77271 5.00792 3.90606 5.02335C4.67207 3.24546 6.44002 2 8.5 2ZM2.5 10C2.22386 10 2 10.2239 2 10.5C2 10.7761 2.22386 11 2.5 11L11.5 11C11.7761 11 12 10.7761 12 10.5C12 10.2239 11.7761 10 11.5 10L2.5 10Z" fill="black"/>
<path d="M0 13.5C0 13.2239 0.223858 13 0.5 13L9.5 13C9.77614 13 10 13.2239 10 13.5C10 13.7761 9.77614 14 9.5 14L0.5 14C0.223858 14 0 13.7761 0 13.5Z" fill="black"/>
</svg>
