<svg width="16" height="16" viewBox="0 0 16 16" fill="none" xmlns="http://www.w3.org/2000/svg">
<path d="M2.62497 11.5C2.76304 11.5 2.87497 11.6119 2.87497 11.75V12.3192L3.37595 12.0329C3.49583 11.9644 3.64854 12.0061 3.71704 12.126C3.78554 12.2458 3.7439 12.3986 3.62402 12.4671L3.12887 12.75L3.62401 13.0329C3.74389 13.1014 3.78554 13.2542 3.71704 13.374C3.64853 13.4939 3.49582 13.5356 3.37594 13.4671L2.87497 13.1808V13.75C2.87497 13.8881 2.76304 14 2.62497 14C2.4869 14 2.37497 13.8881 2.37497 13.75V13.1808L1.87402 13.4671C1.75414 13.5356 1.60143 13.4939 1.53293 13.374C1.46443 13.2542 1.50607 13.1014 1.62595 13.0329L2.12109 12.75L1.62595 12.4671C1.50607 12.3986 1.46442 12.2458 1.53292 12.126C1.60142 12.0061 1.75414 11.9644 1.87402 12.0329L2.37497 12.3192V11.75C2.37497 11.6119 2.4869 11.5 2.62497 11.5Z" fill="black"/>
<path d="M5.37497 13.5C5.51304 13.5 5.62497 13.6119 5.62497 13.75V14.3192L6.12595 14.0329C6.24583 13.9644 6.39854 14.0061 6.46704 14.126C6.53554 14.2458 6.4939 14.3986 6.37402 14.4671L5.87887 14.75L6.37401 15.0329C6.49389 15.1014 6.53554 15.2542 6.46704 15.374C6.39853 15.4939 6.24582 15.5356 6.12594 15.4671L5.62497 15.1808V15.75C5.62497 15.8881 5.51304 16 5.37497 16C5.2369 16 5.12497 15.8881 5.12497 15.75V15.1808L4.62402 15.4671C4.50414 15.5356 4.35143 15.4939 4.28293 15.374C4.21443 15.2542 4.25607 15.1014 4.37595 15.0329L4.87109 14.75L4.37595 14.4671C4.25607 14.3986 4.21442 14.2458 4.28292 14.126C4.35142 14.0061 4.50414 13.9644 4.62402 14.0329L5.12497 14.3192V13.75C5.12497 13.6119 5.2369 13.5 5.37497 13.5Z" fill="black"/>
<path d="M10.875 13.5C11.013 13.5 11.125 13.6119 11.125 13.75V14.3192L11.6259 14.0329C11.7458 13.9644 11.8985 14.0061 11.967 14.126C12.0355 14.2458 11.9939 14.3986 11.874 14.4671L11.3789 14.75L11.874 15.0329C11.9939 15.1014 12.0355 15.2542 11.967 15.374C11.8985 15.4939 11.7458 15.5356 11.6259 15.4671L11.125 15.1808V15.75C11.125 15.8881 11.013 16 10.875 16C10.7369 16 10.625 15.8881 10.625 15.75V15.1808L10.124 15.4671C10.0041 15.5356 9.85143 15.4939 9.78293 15.374C9.71443 15.2542 9.75607 15.1014 9.87595 15.0329L10.3711 14.75L9.87595 14.4671C9.75607 14.3986 9.71442 14.2458 9.78292 14.126C9.85142 14.0061 10.0041 13.9644 10.124 14.0329L10.625 14.3192V13.75C10.625 13.6119 10.7369 13.5 10.875 13.5Z" fill="black"/>
<path d="M8.12497 11.5C8.26304 11.5 8.37497 11.6119 8.37497 11.75V12.3192L8.87595 12.0329C8.99583 11.9644 9.14854 12.0061 9.21704 12.126C9.28554 12.2458 9.2439 12.3986 9.12402 12.4671L8.62887 12.75L9.12401 13.0329C9.24389 13.1014 9.28554 13.2542 9.21704 13.374C9.14853 13.4939 8.99582 13.5356 8.87594 13.4671L8.37497 13.1808V13.75C8.37497 13.8881 8.26304 14 8.12497 14C7.9869 14 7.87497 13.8881 7.87497 13.75V13.1808L7.37402 13.4671C7.25414 13.5356 7.10143 13.4939 7.03293 13.374C6.96443 13.2542 7.00607 13.1014 7.12595 13.0329L7.62109 12.75L7.12595 12.4671C7.00607 12.3986 6.96442 12.2458 7.03292 12.126C7.10142 12.0061 7.25414 11.9644 7.37402 12.0329L7.87497 12.3192V11.75C7.87497 11.6119 7.9869 11.5 8.12497 11.5Z" fill="black"/>
<path d="M13.625 11.5C13.763 11.5 13.875 11.6119 13.875 11.75V12.3192L14.3759 12.0329C14.4958 11.9644 14.6485 12.0061 14.717 12.126C14.7855 12.2458 14.7439 12.3986 14.624 12.4671L14.1289 12.75L14.624 13.0329C14.7439 13.1014 14.7855 13.2542 14.717 13.374C14.6485 13.4939 14.4958 13.5356 14.3759 13.4671L13.875 13.1808V13.75C13.875 13.8881 13.763 14 13.625 14C13.4869 14 13.375 13.8881 13.375 13.75V13.1808L12.874 13.4671C12.7541 13.5356 12.6014 13.4939 12.5329 13.374C12.4644 13.2542 12.5061 13.1014 12.626 13.0329L13.1211 12.75L12.6259 12.4671C12.5061 12.3986 12.4644 12.2458 12.5329 12.126C12.6014 12.0061 12.7541 11.9644 12.874 12.0329L13.375 12.3192V11.75C13.375 11.6119 13.4869 11.5 13.625 11.5Z" fill="black"/>
<path d="M13.4053 4.27715C12.9524 1.98121 10.9287 0.25 8.5 0.25C6.44002 0.25 4.67207 1.49546 3.90606 3.27335C3.77271 3.25792 3.63721 3.25 3.5 3.25C1.567 3.25 0 4.817 0 6.75C0 8.683 1.567 10.25 3.5 10.25L13 10.25C14.6569 10.25 16 8.90685 16 7.25C16 5.73061 14.8705 4.47503 13.4053 4.27715Z" fill="black"/>
</svg>
