<svg width="16" height="16" viewBox="0 0 16 16" fill="none" xmlns="http://www.w3.org/2000/svg">
<path d="M2.65813 11.0257C2.9201 11.113 3.06168 11.3962 2.97436 11.6581L2.47436 13.1581C2.38703 13.4201 2.10387 13.5617 1.8419 13.4744C1.57993 13.387 1.43835 13.1039 1.52567 12.8419L2.02567 11.3419C2.113 11.0799 2.39616 10.9383 2.65813 11.0257ZM12.1581 11.0257C12.4201 11.113 12.5617 11.3962 12.4744 11.6581L11.9744 13.1581C11.887 13.4201 11.6039 13.5617 11.3419 13.4744C11.0799 13.387 10.9383 13.1039 11.0257 12.8419L11.5257 11.3419C11.613 11.0799 11.8962 10.9383 12.1581 11.0257ZM4.65813 12.5257C4.9201 12.613 5.06168 12.8962 4.97436 13.1581L4.47436 14.6581C4.38703 14.9201 4.10387 15.0617 3.8419 14.9744C3.57993 14.887 3.43835 14.6039 3.52567 14.3419L4.02567 12.8419C4.113 12.5799 4.39616 12.4383 4.65813 12.5257ZM14.1581 12.5257C14.4201 12.613 14.5617 12.8962 14.4744 13.1581L13.9744 14.6581C13.887 14.9201 13.6039 15.0617 13.3419 14.9744C13.0799 14.887 12.9383 14.6039 13.0257 14.3419L13.5257 12.8419C13.613 12.5799 13.8962 12.4383 14.1581 12.5257Z" fill="black"/>
<path d="M7.0528 11.2764C7.1375 11.107 7.31063 11 7.50001 11H8.50001C8.66074 11 8.81166 11.0773 8.90563 11.2077C8.99961 11.338 9.02518 11.5057 8.97435 11.6581L8.69373 12.5H9.50001C9.69222 12.5 9.8674 12.6102 9.95066 12.7834C10.0339 12.9567 10.0105 13.1623 9.89045 13.3124L7.89045 15.8124C7.74361 15.9959 7.48874 16.0524 7.2781 15.9481C7.06746 15.8437 6.95793 15.6068 7.01494 15.3787L7.35962 14L6.50001 14C6.32672 14 6.16579 13.9103 6.07469 13.7629C5.98358 13.6155 5.9753 13.4314 6.0528 13.2764L7.0528 11.2764Z" fill="black"/>
<path d="M13.4053 4.02715C12.9524 1.73121 10.9287 0 8.5 0C6.44002 0 4.67207 1.24546 3.90606 3.02335C3.77271 3.00792 3.63721 3 3.5 3C1.567 3 0 4.567 0 6.5C0 8.433 1.567 10 3.5 10L13 10C14.6569 10 16 8.65685 16 7C16 5.48061 14.8705 4.22503 13.4053 4.02715Z" fill="black"/>
</svg>
