<svg width="16" height="16" viewBox="0 0 16 16" fill="none" xmlns="http://www.w3.org/2000/svg">
<path d="M8 2C6.57359 2 5.31176 2.56046 4.40576 3.34182C3.63985 4.00237 3.08479 4.8617 2.94223 5.725C1.26586 6.09512 0 7.55511 0 9.31818C0 11.366 1.70754 13 3.78125 13H12.6875C14.5023 13 16 11.5695 16 9.77273C16 8.13656 14.7581 6.80411 13.1657 6.57898C12.9233 3.99944 10.6902 2 8 2ZM10.3536 7.14645C10.5488 7.34171 10.5488 7.65829 10.3536 7.85355C10.1583 8.04882 9.84171 8.04882 9.64645 7.85355L8.5 6.70711V10.5C8.5 10.7761 8.27614 11 8 11C7.72386 11 7.5 10.7761 7.5 10.5V6.70711L6.35355 7.85355C6.15829 8.04882 5.84171 8.04882 5.64645 7.85355C5.45118 7.65829 5.45118 7.34171 5.64645 7.14645L7.64645 5.14645C7.84171 4.95118 8.15829 4.95118 8.35355 5.14645L10.3536 7.14645Z" fill="black"/>
</svg>
