<svg width="16" height="16" viewBox="0 0 16 16" fill="none" xmlns="http://www.w3.org/2000/svg">
<path d="M13.4053 4.02715C12.9524 1.73121 10.9287 0 8.5 0C6.44002 0 4.67207 1.24546 3.90606 3.02335C3.77271 3.00792 3.63721 3 3.5 3C1.567 3 0 4.567 0 6.5C0 8.433 1.567 10 3.5 10L13 10C14.6569 10 16 8.65685 16 7C16 5.48061 14.8705 4.22503 13.4053 4.02715ZM8.5 1C10.5586 1 12.2546 2.55556 12.4756 4.55507C12.5037 4.80943 12.7193 5.00151 12.9752 5.00014L13 5L13.0013 5C14.1053 5.00069 15 5.89586 15 7C15 8.10457 14.1046 9 13 9L3.5 9C2.11929 9 1 7.88071 1 6.5C1 5.11929 2.11929 4 3.5 4C3.70933 4 3.91197 4.02562 4.10527 4.07365C4.35911 4.13673 4.61867 3.99351 4.70065 3.74513C5.22714 2.15008 6.72992 1 8.5 1Z" fill="black"/>
<path d="M2.37499 13.5C2.51306 13.5 2.62499 13.6119 2.62499 13.75V14.3192L3.12597 14.0329C3.24584 13.9644 3.39856 14.0061 3.46706 14.126C3.53556 14.2458 3.49391 14.3986 3.37404 14.4671L2.87889 14.75L3.37403 15.0329C3.49391 15.1014 3.53556 15.2542 3.46705 15.374C3.39855 15.4939 3.24584 15.5356 3.12596 15.4671L2.62499 15.1808V15.75C2.62499 15.8881 2.51306 16 2.37499 16C2.23692 16 2.12499 15.8881 2.12499 15.75V15.1808L1.62404 15.4671C1.50416 15.5356 1.35145 15.4939 1.28295 15.374C1.21444 15.2542 1.25609 15.1014 1.37597 15.0329L1.87111 14.75L1.37597 14.4671C1.25609 14.3986 1.21444 14.2458 1.28294 14.126C1.35144 14.0061 1.50416 13.9644 1.62404 14.0329L2.12499 14.3192V13.75C2.12499 13.6119 2.23692 13.5 2.37499 13.5Z" fill="black"/>
<path d="M4.22361 11.0528C4.4706 11.1763 4.57071 11.4766 4.44721 11.7236L3.94721 12.7236C3.82372 12.9706 3.52338 13.0707 3.27639 12.9472C3.0294 12.8237 2.92929 12.5234 3.05279 12.2764L3.55279 11.2764C3.67628 11.0294 3.97662 10.9293 4.22361 11.0528Z" fill="black"/>
<path d="M6.37499 13.5C6.51306 13.5 6.62499 13.6119 6.62499 13.75V14.3192L7.12597 14.0329C7.24584 13.9644 7.39856 14.0061 7.46706 14.126C7.53556 14.2458 7.49391 14.3986 7.37404 14.4671L6.87889 14.75L7.37403 15.0329C7.49391 15.1014 7.53556 15.2542 7.46705 15.374C7.39855 15.4939 7.24584 15.5356 7.12596 15.4671L6.62499 15.1808V15.75C6.62499 15.8881 6.51306 16 6.37499 16C6.23692 16 6.12499 15.8881 6.12499 15.75V15.1808L5.62404 15.4671C5.50416 15.5356 5.35145 15.4939 5.28295 15.374C5.21444 15.2542 5.25609 15.1014 5.37597 15.0329L5.87111 14.75L5.37597 14.4671C5.25609 14.3986 5.21444 14.2458 5.28294 14.126C5.35144 14.0061 5.50416 13.9644 5.62404 14.0329L6.12499 14.3192V13.75C6.12499 13.6119 6.23692 13.5 6.37499 13.5Z" fill="black"/>
<path d="M8.22361 11.0528C8.4706 11.1763 8.57071 11.4766 8.44721 11.7236L7.94721 12.7236C7.82372 12.9706 7.52338 13.0707 7.27639 12.9472C7.0294 12.8237 6.92929 12.5234 7.05279 12.2764L7.55279 11.2764C7.67628 11.0294 7.97662 10.9293 8.22361 11.0528Z" fill="black"/>
<path d="M10.375 13.5C10.5131 13.5 10.625 13.6119 10.625 13.75V14.3192L11.126 14.0329C11.2458 13.9644 11.3986 14.0061 11.4671 14.126C11.5356 14.2458 11.4939 14.3986 11.374 14.4671L10.8789 14.75L11.374 15.0329C11.4939 15.1014 11.5356 15.2542 11.4671 15.374C11.3986 15.4939 11.2458 15.5356 11.126 15.4671L10.625 15.1808V15.75C10.625 15.8881 10.5131 16 10.375 16C10.2369 16 10.125 15.8881 10.125 15.75V15.1808L9.62404 15.4671C9.50416 15.5356 9.35145 15.4939 9.28295 15.374C9.21444 15.2542 9.25609 15.1014 9.37597 15.0329L9.87111 14.75L9.37597 14.4671C9.25609 14.3986 9.21444 14.2458 9.28294 14.126C9.35144 14.0061 9.50416 13.9644 9.62404 14.0329L10.125 14.3192V13.75C10.125 13.6119 10.2369 13.5 10.375 13.5Z" fill="black"/>
<path d="M12.2236 11.0528C12.4706 11.1763 12.5707 11.4766 12.4472 11.7236L11.9472 12.7236C11.8237 12.9706 11.5234 13.0707 11.2764 12.9472C11.0294 12.8237 10.9293 12.5234 11.0528 12.2764L11.5528 11.2764C11.6763 11.0294 11.9766 10.9293 12.2236 11.0528Z" fill="black"/>
</svg>
