<svg width="16" height="16" viewBox="0 0 16 16" fill="none" xmlns="http://www.w3.org/2000/svg">
<path d="M4 11.5C4 11.2239 4.22386 11 4.5 11L13.5 11C13.7761 11 14 11.2239 14 11.5C14 11.7761 13.7761 12 13.5 12L4.5 12C4.22386 12 4 11.7761 4 11.5ZM1 13.5C1 13.2239 1.22386 13 1.5 13L10.5 13C10.7761 13 11 13.2239 11 13.5C11 13.7761 10.7761 14 10.5 14L1.5 14C1.22386 14 1 13.7761 1 13.5ZM3 15.5C3 15.2239 3.22386 15 3.5 15L12.5 15C12.7761 15 13 15.2239 13 15.5C13 15.7761 12.7761 16 12.5 16H3.5C3.22386 16 3 15.7761 3 15.5Z" fill="black"/>
<path d="M13.4053 4.02715C12.9524 1.73121 10.9287 0 8.5 0C6.44002 0 4.67207 1.24546 3.90606 3.02335C3.77271 3.00792 3.63721 3 3.5 3C1.567 3 0 4.567 0 6.5C0 8.433 1.567 10 3.5 10L13 10C14.6569 10 16 8.65685 16 7C16 5.48061 14.8705 4.22503 13.4053 4.02715Z" fill="black"/>
</svg>
