<svg width="16" height="16" viewBox="0 0 16 16" fill="none" xmlns="http://www.w3.org/2000/svg">
<path fill-rule="evenodd" clip-rule="evenodd" d="M8 0C6.57359 0 5.31176 0.560456 4.40576 1.34182C3.63985 2.00237 3.08479 2.8617 2.94223 3.725C1.26586 4.09512 0 5.55511 0 7.31818C0 9.36599 1.70754 11 3.78125 11H7.5V5.70711L5.35355 7.85355C5.15829 8.04882 4.84171 8.04882 4.64645 7.85355C4.45118 7.65829 4.45118 7.34171 4.64645 7.14645L7.64645 4.14645C7.84171 3.95118 8.15829 3.95118 8.35355 4.14645L11.3536 7.14645C11.5488 7.34171 11.5488 7.65829 11.3536 7.85355C11.1583 8.04882 10.8417 8.04882 10.6464 7.85355L8.5 5.70711V11H12.6875C14.5023 11 16 9.56949 16 7.77273C16 6.13656 14.7581 4.80411 13.1657 4.57898C12.9233 1.99944 10.6902 0 8 0Z" fill="black"/>
<path fill-rule="evenodd" clip-rule="evenodd" d="M7.5 14.5V11H8.5V14.5C8.5 14.7761 8.27614 15 8 15C7.72386 15 7.5 14.7761 7.5 14.5Z" fill="black"/>
</svg>
