<svg width="16" height="16" viewBox="0 0 16 16" fill="none" xmlns="http://www.w3.org/2000/svg">
<path d="M8.5 4C6.72992 4 5.22714 5.15008 4.70065 6.74513C4.61409 7.00736 4.33135 7.14977 4.06912 7.06321C3.8069 6.97665 3.66449 6.69391 3.75104 6.43168C4.40876 4.4391 6.28567 3 8.5 3C10.9287 3 12.9524 4.73121 13.4053 7.02715C14.8705 7.22504 16 8.48061 16 10C16 11.6569 14.6569 13 13 13L0.5 13C0.223858 13 0 12.7761 0 12.5C0 12.2239 0.223858 12 0.5 12L13 12C14.1046 12 15 11.1046 15 10C15 8.89586 14.1053 8.00069 13.0013 8C13.0009 8 13.0004 8 13 8L12.9752 8.00014C12.7193 8.00151 12.5037 7.80943 12.4756 7.55507C12.2546 5.55556 10.5586 4 8.5 4ZM0 8.5C0 8.22386 0.223858 8 0.5 8H7.5C7.77614 8 8 8.22386 8 8.5C8 8.77614 7.77614 9 7.5 9H0.5C0.223858 9 0 8.77614 0 8.5ZM0 10.5C0 10.2239 0.223858 10 0.5 10H9.5C9.77614 10 10 10.2239 10 10.5C10 10.7761 9.77614 11 9.5 11L0.5 11C0.223858 11 0 10.7761 0 10.5Z" fill="black"/>
</svg>
