<svg width="16" height="16" viewBox="0 0 16 16" fill="none" xmlns="http://www.w3.org/2000/svg">
<path d="M7 8C8.933 8 10.5 9.567 10.5 11.5C10.5 11.5185 10.4999 11.537 10.4996 11.5554C10.4972 11.7113 10.5676 11.8595 10.6902 11.956C10.8127 12.0524 10.9732 12.0862 11.1243 12.0473C11.2438 12.0165 11.3696 12 11.5 12C12.3284 12 13 12.6716 13 13.5C13 14.3284 12.3284 15 11.5 15L3 15C1.89543 15 1 14.1046 1 13C1 11.8954 1.89543 11 3 11C3.03375 11 3.06728 11.0008 3.10059 11.0025C3.33781 11.0142 3.55053 10.8574 3.60954 10.6273C3.99717 9.11628 5.36885 8 7 8ZM11.4726 11.0001C11.2239 8.7501 9.31633 7 7 7C5.03642 7 3.36759 8.25725 2.75267 10.0101C1.21152 10.1358 0 11.4264 0 13C0 14.6569 1.34315 16 3 16H11.5C12.8807 16 14 14.8807 14 13.5C14 12.1193 12.8807 11 11.5 11C11.4908 11 11.4817 11 11.4726 11.0001Z" fill="black"/>
<path d="M10.5 1.5C10.5 1.22386 10.2761 1 9.99999 1C9.72385 1 9.49999 1.22386 9.49999 1.5V2.5C9.49999 2.77614 9.72385 3 9.99999 3C10.2761 3 10.5 2.77614 10.5 2.5V1.5ZM14.2426 3.46445C14.4379 3.26919 14.4379 2.95261 14.2426 2.75735C14.0474 2.56208 13.7308 2.56208 13.5355 2.75735L12.8284 3.46445C12.6332 3.65972 12.6332 3.9763 12.8284 4.17156C13.0237 4.36682 13.3403 4.36682 13.5355 4.17156L14.2426 3.46445ZM6.46447 2.75735C6.2692 2.56209 5.95262 2.56209 5.75736 2.75735C5.5621 2.95261 5.5621 3.26919 5.75736 3.46445L6.46447 4.17156C6.65973 4.36682 6.97631 4.36682 7.17157 4.17156C7.36683 3.9763 7.36683 3.65972 7.17157 3.46445L6.46447 2.75735ZM8.19821 6.13086C8.52162 5.46163 9.2069 4.99999 10 4.99999C11.1046 4.99999 12 5.89542 12 6.99999C12 7.51025 11.8089 7.97587 11.4944 8.32922C11.693 8.61027 11.8659 8.91079 12.0097 9.22734C12.6178 8.67831 13 7.88378 13 6.99999C13 5.34313 11.6569 3.99999 10 3.99999C8.69281 3.99999 7.5809 4.83603 7.16979 6.00257C7.52194 6.01325 7.86575 6.05701 8.19821 6.13086ZM12.6825 10.2048C13.2825 10.4201 13.8066 10.7947 14.2039 11.2775C14.2173 11.2667 14.2302 11.2551 14.2426 11.2426C14.4379 11.0474 14.4379 10.7308 14.2426 10.5355L13.5355 9.82841C13.3403 9.63315 13.0237 9.63315 12.8284 9.82842C12.725 9.93185 12.6763 10.0693 12.6825 10.2048ZM14.5 6.49999C14.2239 6.49999 14 6.72385 14 6.99999C14 7.27613 14.2239 7.49999 14.5 7.49999H15.5C15.7761 7.49999 16 7.27613 16 6.99999C16 6.72385 15.7761 6.49999 15.5 6.49999H14.5Z" fill="black"/>
</svg>
