<svg width="16" height="16" viewBox="0 0 16 16" fill="none" xmlns="http://www.w3.org/2000/svg">
<path d="M2.37497 13.5C2.51304 13.5 2.62497 13.6119 2.62497 13.75V14.3192L3.12595 14.0329C3.24583 13.9644 3.39854 14.0061 3.46704 14.126C3.53554 14.2458 3.4939 14.3985 3.37402 14.467L2.87887 14.75L3.37401 15.0329C3.49389 15.1014 3.53554 15.2541 3.46704 15.374C3.39853 15.4939 3.24582 15.5356 3.12594 15.467L2.62497 15.1808V15.75C2.62497 15.8881 2.51304 16 2.37497 16C2.2369 16 2.12497 15.8881 2.12497 15.75V15.1808L1.62402 15.467C1.50414 15.5356 1.35143 15.4939 1.28293 15.374C1.21443 15.2541 1.25607 15.1014 1.37595 15.0329L1.87109 14.75L1.37595 14.467C1.25607 14.3985 1.21442 14.2458 1.28292 14.126C1.35142 14.0061 1.50414 13.9644 1.62402 14.0329L2.12497 14.3192V13.75C2.12497 13.6119 2.2369 13.5 2.37497 13.5Z" fill="black"/>
<path d="M4.22359 11.0528C4.47058 11.1763 4.57069 11.4766 4.4472 11.7236L3.9472 12.7236C3.8237 12.9706 3.52336 13.0707 3.27637 12.9472C3.02939 12.8237 2.92927 12.5234 3.05277 12.2764L3.55277 11.2764C3.67626 11.0294 3.9766 10.9293 4.22359 11.0528Z" fill="black"/>
<path d="M6.37497 13.5C6.51304 13.5 6.62497 13.6119 6.62497 13.75V14.3192L7.12595 14.0329C7.24583 13.9644 7.39854 14.0061 7.46704 14.126C7.53555 14.2458 7.4939 14.3985 7.37402 14.467L6.87887 14.75L7.37401 15.0329C7.49389 15.1014 7.53554 15.2541 7.46704 15.374C7.39853 15.4939 7.24582 15.5356 7.12594 15.467L6.62497 15.1808V15.75C6.62497 15.8881 6.51304 16 6.37497 16C6.2369 16 6.12497 15.8881 6.12497 15.75V15.1808L5.62402 15.467C5.50414 15.5356 5.35143 15.4939 5.28293 15.374C5.21443 15.2541 5.25607 15.1014 5.37595 15.0329L5.87109 14.75L5.37595 14.467C5.25607 14.3985 5.21442 14.2458 5.28292 14.126C5.35142 14.0061 5.50414 13.9644 5.62402 14.0329L6.12497 14.3192V13.75C6.12497 13.6119 6.2369 13.5 6.37497 13.5Z" fill="black"/>
<path d="M8.22359 11.0528C8.47058 11.1763 8.57069 11.4766 8.4472 11.7236L7.9472 12.7236C7.8237 12.9706 7.52336 13.0707 7.27637 12.9472C7.02939 12.8237 6.92927 12.5234 7.05277 12.2764L7.55277 11.2764C7.67626 11.0294 7.9766 10.9293 8.22359 11.0528Z" fill="black"/>
<path d="M10.375 13.5C10.513 13.5 10.625 13.6119 10.625 13.75V14.3192L11.1259 14.0329C11.2458 13.9644 11.3985 14.0061 11.467 14.126C11.5355 14.2458 11.4939 14.3985 11.374 14.467L10.8789 14.75L11.374 15.0329C11.4939 15.1014 11.5355 15.2541 11.467 15.374C11.3985 15.4939 11.2458 15.5356 11.1259 15.467L10.625 15.1808V15.75C10.625 15.8881 10.513 16 10.375 16C10.2369 16 10.125 15.8881 10.125 15.75V15.1808L9.62402 15.467C9.50414 15.5356 9.35143 15.4939 9.28293 15.374C9.21443 15.2541 9.25607 15.1014 9.37595 15.0329L9.87109 14.75L9.37595 14.467C9.25607 14.3985 9.21442 14.2458 9.28292 14.126C9.35142 14.0061 9.50414 13.9644 9.62402 14.0329L10.125 14.3192V13.75C10.125 13.6119 10.2369 13.5 10.375 13.5Z" fill="black"/>
<path d="M12.2236 11.0528C12.4706 11.1763 12.5707 11.4766 12.4472 11.7236L11.9472 12.7236C11.8237 12.9706 11.5234 13.0707 11.2764 12.9472C11.0294 12.8237 10.9293 12.5234 11.0528 12.2764L11.5528 11.2764C11.6763 11.0294 11.9766 10.9293 12.2236 11.0528Z" fill="black"/>
<path d="M13.4053 4.02715C12.9524 1.73121 10.9287 0 8.5 0C6.44002 0 4.67207 1.24546 3.90606 3.02335C3.77271 3.00792 3.63721 3 3.5 3C1.567 3 0 4.567 0 6.5C0 8.433 1.567 10 3.5 10L13 10C14.6569 10 16 8.65685 16 7C16 5.48061 14.8705 4.22503 13.4053 4.02715Z" fill="black"/>
</svg>
