<svg width="16" height="16" viewBox="0 0 16 16" fill="none" xmlns="http://www.w3.org/2000/svg">
<path d="M4.17556 11.0317C4.43412 11.1287 4.56512 11.4169 4.46816 11.6754L2.96816 15.6754C2.8712 15.934 2.583 16.065 2.32444 15.968C2.06588 15.8711 1.93488 15.5829 2.03184 15.3243L3.53184 11.3243C3.6288 11.0658 3.917 10.9348 4.17556 11.0317ZM7.17556 11.0317C7.43412 11.1287 7.56512 11.4169 7.46816 11.6754L5.96816 15.6754C5.8712 15.934 5.583 16.065 5.32444 15.968C5.06588 15.8711 4.93488 15.5829 5.03184 15.3243L6.53184 11.3243C6.6288 11.0658 6.917 10.9348 7.17556 11.0317ZM10.1756 11.0317C10.4341 11.1287 10.5651 11.4169 10.4682 11.6754L8.96816 15.6754C8.8712 15.934 8.583 16.065 8.32444 15.968C8.06588 15.8711 7.93488 15.5829 8.03184 15.3243L9.53184 11.3243C9.6288 11.0658 9.917 10.9348 10.1756 11.0317ZM13.1756 11.0317C13.4341 11.1287 13.5651 11.4169 13.4682 11.6754L11.9682 15.6754C11.8712 15.934 11.583 16.065 11.3244 15.968C11.0659 15.8711 10.9349 15.5829 11.0318 15.3243L12.5318 11.3243C12.6288 11.0658 12.917 10.9348 13.1756 11.0317Z" fill="black"/>
<path d="M13.4053 4.02703C12.9524 1.73108 10.9287 -0.00012207 8.5 -0.00012207C6.44002 -0.00012207 4.67207 1.24534 3.90606 3.02323C3.77271 3.0078 3.63721 2.99988 3.5 2.99988C1.567 2.99988 0 4.56688 0 6.49988C0 8.43287 1.567 9.99988 3.5 9.99988L13 9.99988C14.6569 9.99988 16 8.65673 16 6.99988C16 5.48049 14.8705 4.22491 13.4053 4.02703ZM8.5 0.999878C10.5586 0.999878 12.2546 2.55544 12.4756 4.55495C12.5037 4.80931 12.7193 5.00139 12.9752 5.00002L13 4.99988L13.0013 4.99988C14.1053 5.00057 15 5.89573 15 6.99988C15 8.10445 14.1046 8.99988 13 8.99988L3.5 8.99988C2.11929 8.99988 1 7.88059 1 6.49988C1 5.11917 2.11929 3.99988 3.5 3.99988C3.70933 3.99988 3.91197 4.0255 4.10527 4.07353C4.35911 4.1366 4.61867 3.99339 4.70065 3.74501C5.22714 2.14996 6.72992 0.999878 8.5 0.999878Z" fill="black"/>
</svg>
