<svg width="16" height="16" viewBox="0 0 16 16" fill="none" xmlns="http://www.w3.org/2000/svg">
<path d="M8 2C6.57359 2 5.31176 2.56046 4.40576 3.34182C3.63985 4.00237 3.08479 4.8617 2.94223 5.725C1.26586 6.09512 0 7.55511 0 9.31818C0 11.366 1.70754 13 3.78125 13H12.6875C14.5023 13 16 11.5695 16 9.77273C16 8.13656 14.7581 6.80411 13.1657 6.57898C12.9233 3.99944 10.6902 2 8 2ZM6 7.5H10C10.2761 7.5 10.5 7.72386 10.5 8C10.5 8.27614 10.2761 8.5 10 8.5H6C5.72386 8.5 5.5 8.27614 5.5 8C5.5 7.72386 5.72386 7.5 6 7.5Z" fill="black"/>
</svg>
