<svg width="16" height="16" viewBox="0 0 16 16" fill="none" xmlns="http://www.w3.org/2000/svg">
<path d="M13.4053 4.02715C12.9524 1.73121 10.9287 0 8.5 0C6.44002 0 4.67207 1.24546 3.90606 3.02335C3.77271 3.00792 3.63721 3 3.5 3C1.567 3 0 4.567 0 6.5C0 8.433 1.567 10 3.5 10L13 10C14.6569 10 16 8.65685 16 7C16 5.48061 14.8705 4.22503 13.4053 4.02715ZM8.5 1C10.5586 1 12.2546 2.55556 12.4756 4.55507C12.5037 4.80943 12.7193 5.00151 12.9752 5.00014L13 5L13.0013 5C14.1053 5.00069 15 5.89586 15 7C15 8.10457 14.1046 9 13 9L3.5 9C2.11929 9 1 7.88071 1 6.5C1 5.11929 2.11929 4 3.5 4C3.70933 4 3.91197 4.02562 4.10527 4.07365C4.35911 4.13673 4.61867 3.99351 4.70065 3.74513C5.22714 2.15008 6.72992 1 8.5 1Z" fill="black"/>
<path d="M7.05279 11.2764C7.13748 11.107 7.31061 11 7.5 11H8.5C8.66072 11 8.81165 11.0773 8.90562 11.2076C8.9996 11.338 9.02517 11.5056 8.97434 11.6581L8.69371 12.5H9.5C9.6922 12.5 9.86739 12.6102 9.95065 12.7834C10.0339 12.9566 10.0105 13.1623 9.89043 13.3123L7.89043 15.8123C7.74359 15.9959 7.48873 16.0524 7.27809 15.9481C7.06745 15.8437 6.95792 15.6068 7.01493 15.3787L7.35961 14L6.5 14C6.32671 14 6.16578 13.9103 6.07467 13.7629C5.98357 13.6155 5.97529 13.4314 6.05279 13.2764L7.05279 11.2764Z" fill="black"/>
</svg>
