<svg width="16" height="16" viewBox="0 0 16 16" fill="none" xmlns="http://www.w3.org/2000/svg">
<path d="M13.4053 8.52715C12.9524 6.23121 10.9287 4.5 8.5 4.5C6.44002 4.5 4.67207 5.74546 3.90606 7.52335C3.77271 7.50792 3.63721 7.5 3.5 7.5C1.567 7.5 0 9.067 0 11C0 12.933 1.567 14.5 3.5 14.5L13 14.5C14.6569 14.5 16 13.1569 16 11.5C16 9.98061 14.8705 8.72503 13.4053 8.52715ZM8.5 5.5C10.5586 5.5 12.2546 7.05556 12.4756 9.05507C12.5037 9.30943 12.7193 9.50151 12.9752 9.50014L13 9.5C13.0004 9.5 13.0009 9.5 13.0013 9.5C14.1053 9.50069 15 10.3959 15 11.5C15 12.6046 14.1046 13.5 13 13.5L3.5 13.5C2.11929 13.5 1 12.3807 1 11C1 9.61929 2.11929 8.5 3.5 8.5C3.70933 8.5 3.91197 8.52562 4.10527 8.57365C4.35911 8.63673 4.61867 8.49351 4.70065 8.24513C5.22714 6.65008 6.72992 5.5 8.5 5.5Z" fill="black"/>
</svg>
