<svg width="16" height="16" viewBox="0 0 16 16" fill="none" xmlns="http://www.w3.org/2000/svg">
<path fill-rule="evenodd" clip-rule="evenodd" d="M8 0C6.57359 0 5.31176 0.560456 4.40576 1.34182C3.63985 2.00237 3.08479 2.8617 2.94223 3.725C1.26586 4.09512 0 5.55511 0 7.31818C0 9.36599 1.70754 11 3.78125 11H7.5V5.5C7.5 5.22386 7.72386 5 8 5C8.27614 5 8.5 5.22386 8.5 5.5V11H12.6875C14.5023 11 16 9.56949 16 7.77273C16 6.13656 14.7581 4.80411 13.1657 4.57898C12.9233 1.99944 10.6902 0 8 0Z" fill="black"/>
<path fill-rule="evenodd" clip-rule="evenodd" d="M7.64645 15.8536C7.84171 16.0488 8.15829 16.0488 8.35355 15.8536L11.3536 12.8536C11.5488 12.6583 11.5488 12.3417 11.3536 12.1464C11.1583 11.9512 10.8417 11.9512 10.6464 12.1464L8.5 14.2929V11H7.5V14.2929L5.35355 12.1464C5.15829 11.9512 4.84171 11.9512 4.64645 12.1464C4.45118 12.3417 4.45118 12.6583 4.64645 12.8536L7.64645 15.8536Z" fill="black"/>
</svg>
