<svg width="16" height="16" viewBox="0 0 16 16" fill="none" xmlns="http://www.w3.org/2000/svg">
<path d="M8.5 3C6.72992 3 5.22714 4.15008 4.70065 5.74513C4.61409 6.00736 4.33135 6.14977 4.06912 6.06321C3.8069 5.97665 3.66449 5.69391 3.75104 5.43168C4.40876 3.4391 6.28567 2 8.5 2C10.9287 2 12.9524 3.73121 13.4053 6.02715C14.8705 6.22504 16 7.48061 16 9C16 10.6569 14.6569 12 13 12L4.5 12C4.22386 12 4 11.7761 4 11.5C4 11.2239 4.22386 11 4.5 11L13 11C14.1046 11 15 10.1046 15 9C15 7.89586 14.1053 7.00069 13.0013 7C13.0009 7 13.0004 7 13 7L12.9752 7.00014C12.7193 7.00151 12.5037 6.80943 12.4756 6.55507C12.2546 4.55556 10.5586 3 8.5 3ZM0 7.5C0 7.22386 0.223858 7 0.5 7L5.5 7C5.77614 7 6 7.22386 6 7.5C6 7.77614 5.77614 8 5.5 8H0.5C0.223858 8 0 7.77614 0 7.5ZM2 9.5C2 9.22386 2.22386 9 2.5 9L11.5 9C11.7761 9 12 9.22386 12 9.5C12 9.77614 11.7761 10 11.5 10L2.5 10C2.22386 10 2 9.77614 2 9.5ZM0 13.5C0 13.2239 0.223858 13 0.5 13L9.5 13C9.77614 13 10 13.2239 10 13.5C10 13.7761 9.77614 14 9.5 14L0.5 14C0.223858 14 0 13.7761 0 13.5Z" fill="black"/>
</svg>
