<svg width="16" height="16" viewBox="0 0 16 16" fill="none" xmlns="http://www.w3.org/2000/svg">
<path d="M8 2C6.57359 2 5.31176 2.56046 4.40576 3.34182C3.63985 4.00237 3.08479 4.8617 2.94223 5.725C1.26586 6.09512 0 7.55511 0 9.31818C0 11.366 1.70754 13 3.78125 13H12.6875C14.5023 13 16 11.5695 16 9.77273C16 8.13656 14.7581 6.80411 13.1657 6.57898C12.9233 3.99944 10.6902 2 8 2ZM10.3536 6.85355L7.35355 9.85355C7.25979 9.94732 7.13261 10 7 10C6.86739 10 6.74021 9.94732 6.64645 9.85355L5.14645 8.35355C4.95118 8.15829 4.95118 7.84171 5.14645 7.64645C5.34171 7.45118 5.65829 7.45118 5.85355 7.64645L7 8.79289L9.64645 6.14645C9.84171 5.95118 10.1583 5.95118 10.3536 6.14645C10.5488 6.34171 10.5488 6.65829 10.3536 6.85355Z" fill="black"/>
</svg>
