<svg width="16" height="16" viewBox="0 0 16 16" fill="none" xmlns="http://www.w3.org/2000/svg">
<path d="M8 2C6.57359 2 5.31176 2.56046 4.40576 3.34182C3.63985 4.00237 3.08479 4.8617 2.94223 5.725C1.26586 6.09512 0 7.55511 0 9.31818C0 11.366 1.70754 13 3.78125 13H12.6875C14.5023 13 16 11.5695 16 9.77273C16 8.13656 14.7581 6.80411 13.1657 6.57898C12.9233 3.99944 10.6902 2 8 2ZM10.3536 8.85355L8.35355 10.8536C8.15829 11.0488 7.84171 11.0488 7.64645 10.8536L5.64645 8.85355C5.45118 8.65829 5.45118 8.34171 5.64645 8.14645C5.84171 7.95118 6.15829 7.95118 6.35355 8.14645L7.5 9.29289V5.5C7.5 5.22386 7.72386 5 8 5C8.27614 5 8.5 5.22386 8.5 5.5V9.29289L9.64645 8.14645C9.84171 7.95118 10.1583 7.95118 10.3536 8.14645C10.5488 8.34171 10.5488 8.65829 10.3536 8.85355Z" fill="black"/>
</svg>
