<svg width="16" height="16" viewBox="0 0 16 16" fill="none" xmlns="http://www.w3.org/2000/svg">
<path d="M4.17558 11.0317C4.43414 11.1287 4.56514 11.4169 4.46818 11.6755L2.96818 15.6755C2.87122 15.934 2.58301 16.065 2.32445 15.9681C2.06589 15.8711 1.93489 15.5829 2.03185 15.3243L3.53185 11.3243C3.62881 11.0658 3.91702 10.9348 4.17558 11.0317ZM7.17558 11.0317C7.43414 11.1287 7.56514 11.4169 7.46818 11.6755L5.96818 15.6755C5.87122 15.934 5.58301 16.065 5.32445 15.9681C5.06589 15.8711 4.93489 15.5829 5.03185 15.3243L6.53185 11.3243C6.62881 11.0658 6.91702 10.9348 7.17558 11.0317ZM10.1756 11.0317C10.4341 11.1287 10.5651 11.4169 10.4682 11.6755L8.96818 15.6755C8.87122 15.934 8.58301 16.065 8.32445 15.9681C8.06589 15.8711 7.93489 15.5829 8.03185 15.3243L9.53185 11.3243C9.62881 11.0658 9.91702 10.9348 10.1756 11.0317ZM13.1756 11.0317C13.4341 11.1287 13.5651 11.4169 13.4682 11.6755L11.9682 15.6755C11.8712 15.934 11.583 16.065 11.3245 15.9681C11.0659 15.8711 10.9349 15.5829 11.0318 15.3243L12.5318 11.3243C12.6288 11.0658 12.917 10.9348 13.1756 11.0317Z" fill="black"/>
<path d="M13.4053 4.02703C12.9524 1.73108 10.9287 -0.00012207 8.5 -0.00012207C6.44002 -0.00012207 4.67207 1.24534 3.90606 3.02323C3.77271 3.0078 3.63721 2.99988 3.5 2.99988C1.567 2.99988 0 4.56688 0 6.49988C0 8.43287 1.567 9.99988 3.5 9.99988L13 9.99988C14.6569 9.99988 16 8.65673 16 6.99988C16 5.48049 14.8705 4.22491 13.4053 4.02703Z" fill="black"/>
</svg>
