<svg width="16" height="16" viewBox="0 0 16 16" fill="none" xmlns="http://www.w3.org/2000/svg">
<path fill-rule="evenodd" clip-rule="evenodd" d="M10.3536 6.14645C10.5488 6.34171 10.5488 6.65829 10.3536 6.85355L7.35355 9.85355C7.25979 9.94732 7.13261 10 7 10C6.86739 10 6.74021 9.94732 6.64645 9.85355L5.14645 8.35355C4.95118 8.15829 4.95118 7.84171 5.14645 7.64645C5.34171 7.45118 5.65829 7.45118 5.85355 7.64645L7 8.79289L9.64645 6.14645C9.84171 5.95118 10.1583 5.95118 10.3536 6.14645Z" fill="black"/>
<path d="M4.40576 3.34182C5.31176 2.56046 6.57359 2 8 2C10.6902 2 12.9233 3.99944 13.1657 6.57898C14.7581 6.80411 16 8.13656 16 9.77273C16 11.5695 14.5023 13 12.6875 13H3.78125C1.70754 13 0 11.366 0 9.31818C0 7.55511 1.26586 6.09512 2.94223 5.725C3.08479 4.8617 3.63985 4.00237 4.40576 3.34182ZM5.05886 4.09909C4.30231 4.75157 3.90625 5.5383 3.90625 6.15455V6.6026L3.46088 6.65155C2.06371 6.80512 1 7.95266 1 9.31818C1 10.7849 2.23059 12 3.78125 12H12.6875C13.9793 12 15 10.9884 15 9.77273C15 8.55703 13.9793 7.54545 12.6875 7.54545H12.1875V7.04545C12.1875 4.8256 10.3273 3 8 3C6.83758 3 5.80253 3.45773 5.05886 4.09909Z" fill="black"/>
</svg>
