<svg width="16" height="16" viewBox="0 0 16 16" fill="none" xmlns="http://www.w3.org/2000/svg">
<path d="M5.5 9.511C5.5763 10.4645 6.32909 11.2078 7.6821 11.2958V12H8.2823V11.291C9.68108 11.1932 10.5 10.445 10.5 9.35941C10.5 8.37164 9.87436 7.86308 8.75534 7.59902L8.2823 7.48655V5.56968C8.8825 5.63814 9.26399 5.96577 9.35554 6.42054H10.4084C10.3321 5.50122 9.54374 4.7824 8.2823 4.70416V4H7.6821V4.71883C6.48677 4.83619 5.67294 5.55501 5.67294 6.57213C5.67294 7.47188 6.27823 8.04401 7.28535 8.27873L7.6821 8.37653V10.4108C7.06663 10.3178 6.65972 9.98044 6.56816 9.511H5.5ZM7.67701 7.34474C7.08698 7.20782 6.76653 6.9291 6.76653 6.50856C6.76653 6.03912 7.11241 5.68704 7.6821 5.58435V7.34474H7.67701ZM8.36877 8.5379C9.08596 8.70416 9.41658 8.97311 9.41658 9.44743C9.41658 9.99022 9.00458 10.3619 8.2823 10.4303V8.51834L8.36877 8.5379Z" fill="black"/>
<path d="M8 15C4.13401 15 1 11.866 1 8C1 4.13401 4.13401 1 8 1C11.866 1 15 4.13401 15 8C15 11.866 11.866 15 8 15ZM8 16C12.4183 16 16 12.4183 16 8C16 3.58172 12.4183 0 8 0C3.58172 0 0 3.58172 0 8C0 12.4183 3.58172 16 8 16Z" fill="black"/>
<path d="M8 13.5C4.96243 13.5 2.5 11.0376 2.5 8C2.5 4.96243 4.96243 2.5 8 2.5C11.0376 2.5 13.5 4.96243 13.5 8C13.5 11.0376 11.0376 13.5 8 13.5ZM8 14C11.3137 14 14 11.3137 14 8C14 4.68629 11.3137 2 8 2C4.68629 2 2 4.68629 2 8C2 11.3137 4.68629 14 8 14Z" fill="black"/>
</svg>
