<svg width="16" height="16" viewBox="0 0 16 16" fill="none" xmlns="http://www.w3.org/2000/svg">
<path d="M0 13C0 13.8284 0.671573 14.5 1.5 14.5H14.5C15.3284 14.5 16 13.8284 16 13V6C16 5.17157 15.3284 4.5 14.5 4.5H1.5C0.671573 4.5 0 5.17157 0 6V13Z" fill="black"/>
<path d="M2 3C2 3.27614 2.22386 3.5 2.5 3.5H13.5C13.7761 3.5 14 3.27614 14 3C14 2.72386 13.7761 2.5 13.5 2.5H2.5C2.22386 2.5 2 2.72386 2 3ZM4 1C4 1.27614 4.22386 1.5 4.5 1.5H11.5C11.7761 1.5 12 1.27614 12 1C12 0.723858 11.7761 0.5 11.5 0.5H4.5C4.22386 0.5 4 0.723858 4 1Z" fill="black"/>
</svg>
