<svg width="16" height="16" viewBox="0 0 16 16" fill="none" xmlns="http://www.w3.org/2000/svg">
<path d="M2.5 3.5C2.22386 3.5 2 3.27614 2 3C2 2.72386 2.22386 2.5 2.5 2.5H13.5C13.7761 2.5 14 2.72386 14 3C14 3.27614 13.7761 3.5 13.5 3.5H2.5Z" fill="black"/>
<path d="M4.5 1.5C4.22386 1.5 4 1.27614 4 1C4 0.723858 4.22386 0.5 4.5 0.5H11.5C11.7761 0.5 12 0.723858 12 1C12 1.27614 11.7761 1.5 11.5 1.5H4.5Z" fill="black"/>
<path d="M0 13C0 13.8284 0.671573 14.5 1.5 14.5H14.5C15.3284 14.5 16 13.8284 16 13V6C16 5.17157 15.3284 4.5 14.5 4.5H1.5C0.671573 4.5 0 5.17157 0 6V13ZM6.25762 6.56268C6.41659 6.47457 6.61087 6.47967 6.765 6.576L10.765 9.076C10.9112 9.16737 11 9.32761 11 9.5C11 9.6724 10.9112 9.83263 10.765 9.924L6.765 12.424C6.61087 12.5203 6.41659 12.5254 6.25762 12.4373C6.09864 12.3492 6 12.1818 6 12V7C6 6.81824 6.09864 6.65079 6.25762 6.56268Z" fill="black"/>
</svg>
