<svg width="16" height="16" viewBox="0 0 16 16" fill="none" xmlns="http://www.w3.org/2000/svg">
<path d="M3.5 2C4.32843 2 5 2.67157 5 3.5V5H3.5C2.67157 5 2 4.32843 2 3.5C2 2.67157 2.67157 2 3.5 2ZM6 5V3.5C6 2.11929 4.88071 1 3.5 1C2.11929 1 1 2.11929 1 3.5C1 4.88071 2.11929 6 3.5 6H5V10H3.5C2.11929 10 1 11.1193 1 12.5C1 13.8807 2.11929 15 3.5 15C4.88071 15 6 13.8807 6 12.5V11H10V12.5C10 13.8807 11.1193 15 12.5 15C13.8807 15 15 13.8807 15 12.5C15 11.1193 13.8807 10 12.5 10H11V6H12.5C13.8807 6 15 4.88071 15 3.5C15 2.11929 13.8807 1 12.5 1C11.1193 1 10 2.11929 10 3.5V5H6ZM10 6V10H6V6H10ZM11 5V3.5C11 2.67157 11.6716 2 12.5 2C13.3284 2 14 2.67157 14 3.5C14 4.32843 13.3284 5 12.5 5H11ZM11 11H12.5C13.3284 11 14 11.6716 14 12.5C14 13.3284 13.3284 14 12.5 14C11.6716 14 11 13.3284 11 12.5V11ZM5 11V12.5C5 13.3284 4.32843 14 3.5 14C2.67157 14 2 13.3284 2 12.5C2 11.6716 2.67157 11 3.5 11H5Z" fill="black"/>
</svg>
