<svg width="16" height="17" viewBox="0 0 16 17" fill="none" xmlns="http://www.w3.org/2000/svg">
<path d="M15.5 8.51641C15.5 12.6585 12.1421 16.0164 8 16.0164C3.85786 16.0164 0.5 12.6585 0.5 8.51641C0.5 5.05296 2.84765 2.13783 6.03843 1.27553C6.0134 1.18801 5.99999 1.09557 5.99999 1C5.99999 0.447715 6.4477 0 6.99999 0H8.99999C9.55227 0 9.99999 0.447715 9.99999 1C9.99999 1.09557 9.98658 1.188 9.96155 1.27553C13.1523 2.13782 15.5 5.05296 15.5 8.51641ZM11.8891 4.6109L6.93939 7.43933L4.11096 12.3891L9.06071 9.56065L11.8891 4.6109Z" fill="black"/>
</svg>
