<svg width="16" height="16" viewBox="0 0 16 16" fill="none" xmlns="http://www.w3.org/2000/svg">
<path d="M9.96982 4.87911L10.9228 8.69107C10.1585 8.87836 9.14087 9 8.00003 9C6.8592 9 5.84154 8.87836 5.07727 8.69107L6.03026 4.87911C6.63472 4.95692 7.30061 5 8.00003 5C8.69946 5 9.36535 4.95692 9.96982 4.87911Z" fill="black"/>
<path d="M9.72547 3.90175L8.97018 0.880573C8.71769 -0.129379 7.28239 -0.129381 7.0299 0.880571L6.2746 3.90175C6.79976 3.96428 7.38181 4 8.00003 4C8.61826 4 9.20031 3.96428 9.72547 3.90175Z" fill="black"/>
<path d="M14.1213 12.5149C14.3369 12.5689 14.4911 12.7587 14.4996 12.9808C14.5082 13.203 14.369 13.4041 14.1581 13.4744L8.15812 15.4744C8.05548 15.5086 7.94452 15.5086 7.84189 15.4744L1.84189 13.4744C1.631 13.4041 1.49184 13.203 1.50037 12.9808C1.5089 12.7587 1.66307 12.5689 1.87874 12.5149L4.27047 11.917L4.83473 9.65998C5.6968 9.87172 6.79896 9.99876 8.00002 9.99876C9.2011 9.99876 10.3033 9.87171 11.1653 9.65997L11.7296 11.917L14.1213 12.5149Z" fill="black"/>
</svg>
