<svg width="16" height="16" viewBox="0 0 16 16" fill="none" xmlns="http://www.w3.org/2000/svg">
<path d="M11.5 6.02651C11.5 6.30266 11.2761 6.52651 11 6.52651C10.7239 6.52651 10.5 6.30266 10.5 6.02651C10.5 5.75037 10.7239 5.52651 11 5.52651C11.2761 5.52651 11.5 5.75037 11.5 6.02651Z" fill="black"/>
<path d="M10 7.52651C10.2761 7.52651 10.5 7.30266 10.5 7.02651C10.5 6.75037 10.2761 6.52651 10 6.52651C9.72386 6.52651 9.5 6.75037 9.5 7.02651C9.5 7.30266 9.72386 7.52651 10 7.52651Z" fill="black"/>
<path d="M12.5 7.02651C12.5 7.30266 12.2761 7.52651 12 7.52651C11.7239 7.52651 11.5 7.30266 11.5 7.02651C11.5 6.75037 11.7239 6.52651 12 6.52651C12.2761 6.52651 12.5 6.75037 12.5 7.02651Z" fill="black"/>
<path d="M11 8.52651C11.2761 8.52651 11.5 8.30266 11.5 8.02651C11.5 7.75037 11.2761 7.52651 11 7.52651C10.7239 7.52651 10.5 7.75037 10.5 8.02651C10.5 8.30266 10.7239 8.52651 11 8.52651Z" fill="black"/>
<path d="M4.5 5.52651H5.5V6.52651H6.5V7.52651H5.5V8.52651H4.5V7.52651H3.5V6.52651H4.5V5.52651Z" fill="black"/>
<path d="M3.0511 3.25948C2.97963 2.99274 3.13792 2.71857 3.40465 2.6471L5.33651 2.12947C5.60324 2.05799 5.87741 2.21629 5.94888 2.48302C5.95208 2.49496 5.95482 2.50692 5.95711 2.51887C6.61182 2.44024 7.30784 2.40151 8 2.40151C8.71922 2.40151 9.44262 2.44332 10.1195 2.52828C10.1221 2.5132 10.1254 2.4981 10.1294 2.48302C10.2009 2.21629 10.4751 2.05799 10.7418 2.12947L12.6737 2.6471C12.9404 2.71857 13.0987 2.99274 13.0272 3.25948C13.0161 3.30095 13.0001 3.33981 12.9799 3.37558C13.1201 3.46626 13.2457 3.56513 13.3535 3.67296C13.7612 4.08059 14.1328 4.72332 14.4476 5.44511C14.7672 6.17804 15.0469 7.03612 15.2528 7.91142C15.4585 8.7862 15.5935 9.69101 15.6175 10.5171C15.6411 11.3325 15.5583 12.1194 15.2888 12.7271C15.0389 13.2908 14.4479 13.621 13.8442 13.5573C13.2081 13.4903 12.7285 13.1631 12.3307 12.7844C12.086 12.5515 11.8346 12.2581 11.5924 11.9756C11.4663 11.8284 11.3425 11.684 11.2237 11.5527C10.4956 10.7488 9.62746 10.0265 7.99999 10.0265C6.37252 10.0265 5.50437 10.7488 4.77631 11.5527C4.6574 11.684 4.53373 11.8283 4.40755 11.9756C4.16537 12.2581 3.91394 12.5515 3.66925 12.7844C3.27147 13.1631 2.79188 13.4903 2.15576 13.5573C1.55209 13.621 0.961038 13.2908 0.711145 12.7271C0.441703 12.1194 0.358859 11.3324 0.382493 10.5171C0.40644 9.691 0.541494 8.78619 0.747234 7.91141C0.953095 7.03612 1.23275 6.17803 1.5524 5.44511C1.86718 4.72331 2.23881 4.08059 2.64645 3.67296C2.76927 3.55013 2.91521 3.43892 3.07936 3.33821C3.06795 3.3132 3.05845 3.28691 3.0511 3.25948ZM5.08738 3.67204C4.21041 3.85666 3.61847 4.11515 3.35355 4.38007C3.07804 4.65558 2.76653 5.16268 2.46902 5.84486C2.17636 6.51591 1.91457 7.31594 1.72067 8.14036C1.52666 8.96529 1.40365 9.8018 1.38207 10.5461C1.36019 11.3011 1.44436 11.9136 1.62533 12.3218C1.6955 12.4801 1.86925 12.582 2.05094 12.5628C2.37846 12.5283 2.66153 12.363 2.97977 12.0601C3.19214 11.8579 3.38077 11.637 3.59527 11.3857C3.72804 11.2301 3.87073 11.063 4.03508 10.8815C4.86105 9.96943 5.97757 9.02651 7.99999 9.02651C10.0224 9.02651 11.1389 9.96943 11.9649 10.8815C12.1293 11.063 12.2719 11.2301 12.4047 11.3857C12.6192 11.637 12.8078 11.8579 13.0202 12.0601C13.3384 12.363 13.6215 12.5283 13.949 12.5628C14.1307 12.582 14.3045 12.4801 14.3746 12.3218C14.5556 11.9136 14.6398 11.3011 14.6179 10.5461C14.5963 9.80181 14.4733 8.9653 14.2793 8.14036C14.0854 7.31594 13.8236 6.51591 13.531 5.84486C13.2335 5.16269 12.9219 4.65558 12.6464 4.38007C12.3815 4.11515 11.7896 3.85666 10.9126 3.67204C10.0633 3.49324 9.03643 3.40151 8 3.40151C6.96356 3.40151 5.93668 3.49324 5.08738 3.67204Z" fill="black"/>
</svg>
