<svg width="16" height="16" viewBox="0 0 16 16" fill="none" xmlns="http://www.w3.org/2000/svg">
<path d="M6 7.5C6 8.32843 5.32843 9 4.5 9C3.67157 9 3 8.32843 3 7.5C3 6.67157 3.67157 6 4.5 6C5.32843 6 6 6.67157 6 7.5Z" fill="black"/>
<path d="M10.5 8C11.3284 8 12 7.32843 12 6.5C12 5.67157 11.3284 5 10.5 5C9.67157 5 9 5.67157 9 6.5C9 7.32843 9.67157 8 10.5 8Z" fill="black"/>
<path d="M10 11.5C10 12.3284 9.32843 13 8.5 13C7.67157 13 7 12.3284 7 11.5C7 10.6716 7.67157 10 8.5 10C9.32843 10 10 10.6716 10 11.5Z" fill="black"/>
<path d="M8 0C6.51185 0 5.11861 0.406329 3.92516 1.11409C3.76302 1.18142 3.61524 1.27638 3.48769 1.39309C1.38184 2.83408 0 5.25567 0 8C0 12.4183 3.58172 16 8 16C12.4183 16 16 12.4183 16 8C16 3.58172 12.4183 0 8 0ZM11.2507 14.2011C11.0299 14.0732 10.7735 14 10.5 14C9.88071 14 9.34908 14.3753 9.12013 14.9109C8.75541 14.9695 8.38126 15 8 15C6.57966 15 5.25813 14.577 4.15451 13.8501C4.65499 13.607 5 13.0938 5 12.5C5 11.6716 4.32843 11 3.5 11C2.90623 11 2.39303 11.345 2.14995 11.8455C1.42302 10.7419 1 9.42034 1 8C1 6.04715 1.79968 4.28108 3.08943 3.01138C3.29853 3.58803 3.85115 4 4.5 4C5.32843 4 6 3.32843 6 2.5C6 2.08483 5.83133 1.70905 5.55877 1.43745C6.31886 1.15459 7.14138 1 8 1C9.42034 1 10.7419 1.42302 11.8455 2.14995C11.345 2.39303 11 2.90623 11 3.5C11 4.32843 11.6716 5 12.5 5C13.0938 5 13.607 4.65499 13.8501 4.15451C14.577 5.25813 15 6.57966 15 8C15 8.59583 14.9256 9.17427 14.7855 9.72653C14.5229 9.29115 14.0455 9 13.5 9C12.6716 9 12 9.67157 12 10.5C12 11.3284 12.6716 12 13.5 12C13.589 12 13.6763 11.9922 13.761 11.9774C13.1184 12.9065 12.2567 13.6726 11.2507 14.2011Z" fill="black"/>
</svg>
