<svg width="16" height="16" viewBox="0 0 16 16" fill="none" xmlns="http://www.w3.org/2000/svg">
<path d="M6.5 6C6.22386 6 6 6.22386 6 6.5V9.5C6 9.77614 6.22386 10 6.5 10H9.5C9.77614 10 10 9.77614 10 9.5V6.5C10 6.22386 9.77614 6 9.5 6H6.5Z" fill="black"/>
<path d="M5.5 0.5C5.5 0.223858 5.27614 0 5 0C4.72386 0 4.5 0.223858 4.5 0.5V2C3.11929 2 2 3.11929 2 4.5H0.5C0.223858 4.5 0 4.72386 0 5C0 5.27614 0.223858 5.5 0.5 5.5H2V6.5H0.5C0.223858 6.5 0 6.72386 0 7C0 7.27614 0.223858 7.5 0.5 7.5H2V8.5H0.5C0.223858 8.5 0 8.72386 0 9C0 9.27614 0.223858 9.5 0.5 9.5H2V10.5H0.5C0.223858 10.5 0 10.7239 0 11C0 11.2761 0.223858 11.5 0.5 11.5H2C2 12.8807 3.11929 14 4.5 14V15.5C4.5 15.7761 4.72386 16 5 16C5.27614 16 5.5 15.7761 5.5 15.5V14H6.5V15.5C6.5 15.7761 6.72386 16 7 16C7.27614 16 7.5 15.7761 7.5 15.5V14H8.5V15.5C8.5 15.7761 8.72386 16 9 16C9.27614 16 9.5 15.7761 9.5 15.5V14H10.5V15.5C10.5 15.7761 10.7239 16 11 16C11.2761 16 11.5 15.7761 11.5 15.5V14C12.8807 14 14 12.8807 14 11.5H15.5C15.7761 11.5 16 11.2761 16 11C16 10.7239 15.7761 10.5 15.5 10.5H14V9.5H15.5C15.7761 9.5 16 9.27614 16 9C16 8.72386 15.7761 8.5 15.5 8.5H14V7.5H15.5C15.7761 7.5 16 7.27614 16 7C16 6.72386 15.7761 6.5 15.5 6.5H14V5.5H15.5C15.7761 5.5 16 5.27614 16 5C16 4.72386 15.7761 4.5 15.5 4.5H14C14 3.11929 12.8807 2 11.5 2V0.5C11.5 0.223858 11.2761 0 11 0C10.7239 0 10.5 0.223858 10.5 0.5V2H9.5V0.5C9.5 0.223858 9.27614 0 9 0C8.72386 0 8.5 0.223858 8.5 0.5V2H7.5V0.5C7.5 0.223858 7.27614 0 7 0C6.72386 0 6.5 0.223858 6.5 0.5V2H5.5V0.5ZM6.5 5H9.5C10.3284 5 11 5.67157 11 6.5V9.5C11 10.3284 10.3284 11 9.5 11H6.5C5.67157 11 5 10.3284 5 9.5V6.5C5 5.67157 5.67157 5 6.5 5Z" fill="black"/>
</svg>
