<svg width="16" height="16" viewBox="0 0 16 16" fill="none" xmlns="http://www.w3.org/2000/svg">
<path d="M5 0C5.27614 0 5.5 0.223858 5.5 0.5V2H6.5V0.5C6.5 0.223858 6.72386 0 7 0C7.27614 0 7.5 0.223858 7.5 0.5V2H8.5V0.5C8.5 0.223858 8.72386 0 9 0C9.27614 0 9.5 0.223858 9.5 0.5V2H10.5V0.5C10.5 0.223858 10.7239 0 11 0C11.2761 0 11.5 0.223858 11.5 0.5V2C12.8807 2 14 3.11929 14 4.5H15.5C15.7761 4.5 16 4.72386 16 5C16 5.27614 15.7761 5.5 15.5 5.5H14V6.5H15.5C15.7761 6.5 16 6.72386 16 7C16 7.27614 15.7761 7.5 15.5 7.5H14V8.5H15.5C15.7761 8.5 16 8.72386 16 9C16 9.27614 15.7761 9.5 15.5 9.5H14V10.5H15.5C15.7761 10.5 16 10.7239 16 11C16 11.2761 15.7761 11.5 15.5 11.5H14C14 12.8807 12.8807 14 11.5 14V15.5C11.5 15.7761 11.2761 16 11 16C10.7239 16 10.5 15.7761 10.5 15.5V14H9.5V15.5C9.5 15.7761 9.27614 16 9 16C8.72386 16 8.5 15.7761 8.5 15.5V14H7.5V15.5C7.5 15.7761 7.27614 16 7 16C6.72386 16 6.5 15.7761 6.5 15.5V14H5.5V15.5C5.5 15.7761 5.27614 16 5 16C4.72386 16 4.5 15.7761 4.5 15.5V14C3.11929 14 2 12.8807 2 11.5H0.5C0.223858 11.5 0 11.2761 0 11C0 10.7239 0.223858 10.5 0.5 10.5H2V9.5H0.5C0.223858 9.5 0 9.27614 0 9C0 8.72386 0.223858 8.5 0.5 8.5H2V7.5H0.5C0.223858 7.5 0 7.27614 0 7C0 6.72386 0.223858 6.5 0.5 6.5H2V5.5H0.5C0.223858 5.5 0 5.27614 0 5C0 4.72386 0.223858 4.5 0.5 4.5H2C2 3.11929 3.11929 2 4.5 2V0.5C4.5 0.223858 4.72386 0 5 0ZM4.5 3C3.67157 3 3 3.67157 3 4.5V11.5C3 12.3284 3.67157 13 4.5 13H11.5C12.3284 13 13 12.3284 13 11.5V4.5C13 3.67157 12.3284 3 11.5 3H4.5ZM5 6.5C5 5.67157 5.67157 5 6.5 5H9.5C10.3284 5 11 5.67157 11 6.5V9.5C11 10.3284 10.3284 11 9.5 11H6.5C5.67157 11 5 10.3284 5 9.5V6.5ZM6.5 6C6.22386 6 6 6.22386 6 6.5V9.5C6 9.77614 6.22386 10 6.5 10H9.5C9.77614 10 10 9.77614 10 9.5V6.5C10 6.22386 9.77614 6 9.5 6H6.5Z" fill="black"/>
</svg>
