<svg width="16" height="16" viewBox="0 0 16 16" fill="none" xmlns="http://www.w3.org/2000/svg">
<path d="M14 3C14.5523 3 15 3.44772 15 4V12C15 12.5523 14.5523 13 14 13H2C1.44772 13 1 12.5523 1 12V4C1 3.44772 1.44772 3 2 3H14ZM2 2C0.895431 2 0 2.89543 0 4V12C0 13.1046 0.895431 14 2 14H14C15.1046 14 16 13.1046 16 12V4C16 2.89543 15.1046 2 14 2H2Z" fill="black"/>
<path d="M2 5.5C2 5.22386 2.22386 5 2.5 5H4.5C4.77614 5 5 5.22386 5 5.5V6.5C5 6.77614 4.77614 7 4.5 7H2.5C2.22386 7 2 6.77614 2 6.5V5.5Z" fill="black"/>
<path d="M2 8.5C2 8.22386 2.22386 8 2.5 8H7.5C7.77614 8 8 8.22386 8 8.5C8 8.77614 7.77614 9 7.5 9H2.5C2.22386 9 2 8.77614 2 8.5ZM2 10.5C2 10.2239 2.22386 10 2.5 10H3.5C3.77614 10 4 10.2239 4 10.5C4 10.7761 3.77614 11 3.5 11H2.5C2.22386 11 2 10.7761 2 10.5ZM5 10.5C5 10.2239 5.22386 10 5.5 10H6.5C6.77614 10 7 10.2239 7 10.5C7 10.7761 6.77614 11 6.5 11H5.5C5.22386 11 5 10.7761 5 10.5ZM8 10.5C8 10.2239 8.22386 10 8.5 10H9.5C9.77614 10 10 10.2239 10 10.5C10 10.7761 9.77614 11 9.5 11H8.5C8.22386 11 8 10.7761 8 10.5ZM11 10.5C11 10.2239 11.2239 10 11.5 10H12.5C12.7761 10 13 10.2239 13 10.5C13 10.7761 12.7761 11 12.5 11H11.5C11.2239 11 11 10.7761 11 10.5Z" fill="black"/>
</svg>
