<svg width="16" height="16" viewBox="0 0 16 16" fill="none" xmlns="http://www.w3.org/2000/svg">
<path d="M11 5.5C11 5.22386 11.2239 5 11.5 5H13.5C13.7761 5 14 5.22386 14 5.5V6.5C14 6.77614 13.7761 7 13.5 7H11.5C11.2239 7 11 6.77614 11 6.5V5.5Z" fill="black"/>
<path d="M2 2C0.895431 2 0 2.89543 0 4V12C0 13.1046 0.895431 14 2 14H14C15.1046 14 16 13.1046 16 12V4C16 2.89543 15.1046 2 14 2H2ZM15 4V9H1V4C1 3.44772 1.44772 3 2 3H14C14.5523 3 15 3.44772 15 4ZM14 13H2C1.44772 13 1 12.5523 1 12V11H15V12C15 12.5523 14.5523 13 14 13Z" fill="black"/>
</svg>
