<svg width="16" height="16" viewBox="0 0 16 16" fill="none" xmlns="http://www.w3.org/2000/svg">
<path d="M0 4C0 2.89543 0.895431 2 2 2H14C15.1046 2 16 2.89543 16 4V12C16 13.1046 15.1046 14 14 14H2C0.895431 14 0 13.1046 0 12V4ZM2.5 5C2.22386 5 2 5.22386 2 5.5V6.5C2 6.77614 2.22386 7 2.5 7H4.5C4.77614 7 5 6.77614 5 6.5V5.5C5 5.22386 4.77614 5 4.5 5H2.5ZM2.5 8C2.22386 8 2 8.22386 2 8.5C2 8.77614 2.22386 9 2.5 9H7.5C7.77614 9 8 8.77614 8 8.5C8 8.22386 7.77614 8 7.5 8H2.5ZM2.5 10C2.22386 10 2 10.2239 2 10.5C2 10.7761 2.22386 11 2.5 11H3.5C3.77614 11 4 10.7761 4 10.5C4 10.2239 3.77614 10 3.5 10H2.5ZM5.5 10C5.22386 10 5 10.2239 5 10.5C5 10.7761 5.22386 11 5.5 11H6.5C6.77614 11 7 10.7761 7 10.5C7 10.2239 6.77614 10 6.5 10H5.5ZM8.5 10C8.22386 10 8 10.2239 8 10.5C8 10.7761 8.22386 11 8.5 11H9.5C9.77614 11 10 10.7761 10 10.5C10 10.2239 9.77614 10 9.5 10H8.5ZM11.5 10C11.2239 10 11 10.2239 11 10.5C11 10.7761 11.2239 11 11.5 11H12.5C12.7761 11 13 10.7761 13 10.5C13 10.2239 12.7761 10 12.5 10H11.5Z" fill="black"/>
</svg>
