<svg width="16" height="16" viewBox="0 0 16 16" fill="none" xmlns="http://www.w3.org/2000/svg">
<path d="M0 4C0 2.89543 0.895431 2 2 2H14C15.1046 2 16 2.89543 16 4V12C16 13.1046 15.1046 14 14 14H2C0.895431 14 0 13.1046 0 12V4ZM2 3C1.44772 3 1 3.44772 1 4V5H15V4C15 3.44772 14.5523 3 14 3H2ZM15 7H1V12C1 12.5523 1.44772 13 2 13H14C14.5523 13 15 12.5523 15 12V7Z" fill="black"/>
<path d="M2 10C2 9.44772 2.44772 9 3 9H4C4.55228 9 5 9.44772 5 10V11C5 11.5523 4.55228 12 4 12H3C2.44772 12 2 11.5523 2 11V10Z" fill="black"/>
</svg>
