<svg width="18" height="18" viewBox="0 0 18 18" fill="none" xmlns="http://www.w3.org/2000/svg">
<path d="M3.5 0.5C3.77614 0.5 4 0.723858 4 1V14H17C17.2761 14 17.5 14.2239 17.5 14.5C17.5 14.7761 17.2761 15 17 15H15V17C15 17.2761 14.7761 17.5 14.5 17.5C14.2239 17.5 14 17.2761 14 17V15H3.5C3.22386 15 3 14.7761 3 14.5V4H1C0.723858 4 0.5 3.77614 0.5 3.5C0.5 3.22386 0.723858 3 1 3H3V1C3 0.723858 3.22386 0.5 3.5 0.5ZM6 3.5C6 3.22386 6.22386 3 6.5 3H14.5C14.7761 3 15 3.22386 15 3.5V11.5C15 11.7761 14.7761 12 14.5 12C14.2239 12 14 11.7761 14 11.5V4H6.5C6.22386 4 6 3.77614 6 3.5Z" fill="black"/>
</svg>
