<svg width="16" height="16" viewBox="0 0 16 16" fill="none" xmlns="http://www.w3.org/2000/svg">
<path d="M8 0C8.27614 0 8.5 0.223858 8.5 0.5V1.01758C11.9675 1.2623 14.7377 4.03251 14.9824 7.5H15.5C15.7761 7.5 16 7.72386 16 8C16 8.27614 15.7761 8.5 15.5 8.5H14.9824C14.7377 11.9675 11.9675 14.7377 8.5 14.9824V15.5C8.5 15.7761 8.27614 16 8 16C7.72386 16 7.5 15.7761 7.5 15.5V14.9824C4.03251 14.7377 1.2623 11.9675 1.01758 8.5H0.5C0.223858 8.5 0 8.27614 0 8C0 7.72386 0.223858 7.5 0.5 7.5H1.01758C1.2623 4.03251 4.03251 1.2623 7.5 1.01758V0.5C7.5 0.223858 7.72386 0 8 0ZM7.5 2.02054C4.5851 2.26101 2.26101 4.5851 2.02054 7.5H3.02469C3.25922 5.13779 5.13779 3.25922 7.5 3.02469V2.02054ZM8.5 3.02469C10.8622 3.25922 12.7408 5.13779 12.9753 7.5H13.9795C13.739 4.5851 11.4149 2.26101 8.5 2.02054V3.02469ZM12.9753 8.5C12.7408 10.8622 10.8622 12.7408 8.5 12.9753V13.9795C11.4149 13.739 13.739 11.4149 13.9795 8.5H12.9753ZM7.5 12.9753C5.13779 12.7408 3.25922 10.8622 3.02469 8.5H2.02054C2.26101 11.4149 4.5851 13.739 7.5 13.9795V12.9753ZM10 8C10 6.89543 9.10457 6 8 6C6.89543 6 6 6.89543 6 8C6 9.10457 6.89543 10 8 10C9.10457 10 10 9.10457 10 8Z" fill="black"/>
</svg>
