<svg width="16" height="16" viewBox="0 0 16 16" fill="none" xmlns="http://www.w3.org/2000/svg">
<path fill-rule="evenodd" clip-rule="evenodd" d="M0.500004 6.00003C0.348345 6.00003 0.204881 6.06886 0.109984 6.18717C0.0150858 6.30547 -0.0209887 6.46045 0.0119109 6.60849L1.66388 14.0424C1.91807 15.1862 2.9326 16 4.10435 16H9.89566C11.0674 16 12.0819 15.1862 12.3361 14.0424L12.4671 13.4528C12.6403 13.4838 12.8184 13.5 13 13.5C14.6569 13.5 16 12.1569 16 10.5C16 9.10856 15.0529 7.93861 13.7679 7.59929L13.9881 6.60849C14.021 6.46045 13.9849 6.30547 13.89 6.18717C13.7951 6.06886 13.6517 6.00003 13.5 6.00003H0.500004ZM13 12.5C12.8924 12.5 12.787 12.4916 12.6844 12.4753L13.5507 8.57673C14.3873 8.8158 15 9.58652 15 10.5C15 11.6046 14.1046 12.5 13 12.5Z" fill="black"/>
<path d="M4.40006 0.799926L4.39675 0.804404L4.38349 0.822563C4.37162 0.838948 4.35416 0.863391 4.33297 0.893991C4.29027 0.955677 4.2341 1.04 4.17875 1.13226C4.12246 1.22607 4.07232 1.31932 4.0377 1.4001C4.01233 1.45929 4.00398 1.49208 4.00126 1.50274C4.00062 1.50526 4.00013 1.50665 4.00013 1.50665C4.00183 1.55153 4.02108 1.62873 4.09204 1.75488C4.16668 1.88758 4.27043 2.02725 4.4 2.20001L4.40915 2.21221C4.52777 2.37034 4.66953 2.55931 4.77954 2.75488C4.89245 2.95561 5 3.21043 5 3.50001C5 3.68771 4.93524 3.86832 4.88145 3.99385C4.82232 4.13182 4.74746 4.26773 4.67875 4.38226C4.6091 4.49834 4.54027 4.60151 4.48922 4.67524C4.46353 4.71235 4.44193 4.74259 4.42646 4.76397L4.40798 4.78927L4.40259 4.79655L4.40093 4.79877L4.40016 4.79979C4.23448 5.02071 3.92091 5.0657 3.7 4.90001C3.47917 4.73439 3.43435 4.42117 3.59981 4.20027L3.60325 4.19562L3.61651 4.17746C3.62838 4.16108 3.64584 4.13663 3.66703 4.10603C3.70973 4.04435 3.7659 3.96002 3.82125 3.86776C3.87754 3.77396 3.92768 3.6807 3.9623 3.59993C3.98767 3.54074 3.99602 3.50795 3.99874 3.49729C3.99938 3.49476 3.99987 3.49337 3.99987 3.49337C3.99817 3.44849 3.97892 3.37129 3.90796 3.24514C3.83332 3.11244 3.72957 2.97278 3.6 2.80001L3.59085 2.78781C3.47222 2.62968 3.33047 2.44071 3.22046 2.24514C3.10755 2.04441 3 1.78959 3 1.50001C3 1.31232 3.06476 1.1317 3.11855 1.00618C3.17768 0.868202 3.25254 0.732289 3.32125 0.617763C3.3909 0.501687 3.45973 0.398513 3.51078 0.324781C3.53647 0.287673 3.55807 0.257429 3.57354 0.236053L3.59907 0.201256L3.59984 0.20023C3.76552 -0.020684 4.07909 -0.0656741 4.3 0.100011C4.52082 0.265628 4.56551 0.579027 4.40006 0.799926Z" fill="black"/>
<path d="M7.40006 0.799926L7.39675 0.804404L7.38349 0.822563C7.37162 0.838948 7.35416 0.863391 7.33297 0.893991C7.29027 0.955677 7.2341 1.04 7.17875 1.13226C7.12246 1.22607 7.07232 1.31932 7.0377 1.4001C7.01233 1.45929 7.00398 1.49208 7.00126 1.50274C7.00062 1.50526 7.00013 1.50665 7.00013 1.50665C7.00183 1.55153 7.02108 1.62873 7.09204 1.75488C7.16668 1.88758 7.27043 2.02725 7.4 2.20001L7.40915 2.21221C7.52777 2.37034 7.66953 2.55931 7.77954 2.75488C7.89245 2.95561 8 3.21043 8 3.50001C8 3.68771 7.93524 3.86832 7.88145 3.99385C7.82232 4.13182 7.74746 4.26773 7.67875 4.38226C7.6091 4.49834 7.54027 4.60151 7.48922 4.67524C7.46353 4.71235 7.44193 4.74259 7.42646 4.76397L7.40798 4.78927L7.40259 4.79655L7.40093 4.79877L7.40016 4.79979C7.23448 5.02071 6.92091 5.0657 6.7 4.90001C6.47917 4.73439 6.43435 4.42117 6.5998 4.20027L6.60325 4.19562L6.61651 4.17746C6.62838 4.16108 6.64584 4.13663 6.66703 4.10603C6.70973 4.04435 6.7659 3.96002 6.82125 3.86776C6.87754 3.77396 6.92768 3.6807 6.9623 3.59993C6.98767 3.54074 6.99602 3.50795 6.99874 3.49729C6.99938 3.49476 6.99987 3.49337 6.99987 3.49337C6.99817 3.44849 6.97892 3.37129 6.90796 3.24514C6.83332 3.11244 6.72957 2.97278 6.6 2.80001L6.59085 2.78781C6.47222 2.62968 6.33047 2.44071 6.22046 2.24514C6.10755 2.04441 6 1.78959 6 1.50001C6 1.31232 6.06476 1.1317 6.11855 1.00618C6.17768 0.868202 6.25254 0.732289 6.32125 0.617763C6.3909 0.501687 6.45973 0.398513 6.51078 0.324781C6.53647 0.287673 6.55807 0.257429 6.57354 0.236053L6.59907 0.201256L6.59984 0.20023C6.76552 -0.020684 7.07909 -0.0656741 7.3 0.100011C7.52082 0.265628 7.56551 0.579027 7.40006 0.799926Z" fill="black"/>
<path d="M10.4001 0.799926L10.3967 0.804404L10.3835 0.822563C10.3716 0.838948 10.3542 0.863391 10.333 0.893991C10.2903 0.955677 10.2341 1.04 10.1787 1.13226C10.1225 1.22607 10.0723 1.31932 10.0377 1.4001C10.0123 1.45929 10.004 1.49208 10.0013 1.50274C10.0006 1.50526 10.0001 1.50665 10.0001 1.50665C10.0018 1.55153 10.0211 1.62873 10.092 1.75488C10.1667 1.88758 10.2704 2.02725 10.4 2.20001L10.4092 2.21221C10.5278 2.37034 10.6695 2.55931 10.7795 2.75488C10.8924 2.95561 11 3.21043 11 3.50001C11 3.68771 10.9352 3.86832 10.8814 3.99385C10.8223 4.13182 10.7475 4.26773 10.6787 4.38226C10.6091 4.49834 10.5403 4.60151 10.4892 4.67524C10.4635 4.71235 10.4419 4.74259 10.4265 4.76397L10.408 4.78927L10.4026 4.79655L10.4009 4.79877L10.4002 4.79979C10.2345 5.02071 9.92091 5.0657 9.7 4.90001C9.47917 4.73439 9.43435 4.42117 9.5998 4.20027L9.60325 4.19562L9.61651 4.17746C9.62838 4.16108 9.64584 4.13663 9.66703 4.10603C9.70973 4.04435 9.7659 3.96002 9.82125 3.86776C9.87754 3.77396 9.92768 3.6807 9.9623 3.59993C9.98767 3.54074 9.99602 3.50795 9.99874 3.49729C9.99938 3.49476 9.99987 3.49337 9.99987 3.49337C9.99817 3.44849 9.97892 3.37129 9.90796 3.24514C9.83332 3.11244 9.72957 2.97278 9.6 2.80001L9.59085 2.78781C9.47222 2.62968 9.33047 2.44071 9.22046 2.24514C9.10755 2.04441 9 1.78959 9 1.50001C9 1.31232 9.06476 1.1317 9.11855 1.00618C9.17768 0.868202 9.25254 0.732289 9.32125 0.617763C9.3909 0.501687 9.45973 0.398513 9.51078 0.324781C9.53647 0.287673 9.55807 0.257429 9.57354 0.236053L9.59907 0.201256L9.59984 0.20023C9.76552 -0.020684 10.0791 -0.0656741 10.3 0.100011C10.5208 0.265628 10.5655 0.579027 10.4001 0.799926Z" fill="black"/>
</svg>
