<svg width="16" height="16" viewBox="0 0 16 16" fill="none" xmlns="http://www.w3.org/2000/svg">
<path d="M13.9015 0.334396C14.004 0.590788 13.8793 0.881773 13.6229 0.98433L11.368 1.88628L10.9686 3.81254C11.3441 3.90759 11.6826 4.02811 11.9401 4.18029C12.1684 4.31523 12.5 4.57599 12.5 4.99997C12.5 5.04601 12.4961 5.09012 12.4888 5.13236L11.5275 14.2002C11.4923 14.5351 11.3377 14.8973 11.0031 15.1304C10.5152 15.4703 9.50937 16 7.99323 16C6.47709 16 5.47128 15.4703 4.98341 15.1304C4.64877 14.8973 4.49417 14.5351 4.45892 14.2002L3.51117 5.13236C3.50391 5.09012 3.5 5.04601 3.5 4.99997C3.5 4.57599 3.83163 4.31523 4.05992 4.18029C4.32169 4.02557 4.6672 3.90357 5.0503 3.80779C5.82421 3.61432 6.86686 3.49997 8 3.49997C8.71234 3.49997 9.38891 3.54516 9.98545 3.62679L10.4491 1.41163C10.485 1.25036 10.5981 1.11721 10.7515 1.05585L13.2515 0.0558532C13.5079 -0.0467035 13.7989 0.0780044 13.9015 0.334396ZM9.7677 4.60663C9.2444 4.53913 8.64341 4.49997 8 4.49997C6.924 4.49997 5.96665 4.60948 5.29284 4.77794C5.00659 4.8495 4.79125 4.92691 4.64488 4.99997C4.79125 5.07303 5.00659 5.15045 5.29284 5.22201C5.96665 5.39046 6.924 5.49997 8 5.49997C8.57098 5.49997 9.10855 5.46913 9.58806 5.41502L9.7677 4.60663ZM10.0596 6.36276C9.44527 6.45094 8.74204 6.49997 8 6.49997C6.86686 6.49997 5.82421 6.38563 5.05031 6.19215C4.89829 6.15415 4.7522 6.11201 4.61491 6.06535L5.45342 14.0955C5.46612 14.2162 5.5138 14.2812 5.55504 14.3099C5.91243 14.5589 6.72262 15 7.99323 15C9.26384 15 10.074 14.5589 10.4314 14.3099C10.4727 14.2812 10.5203 14.2162 10.533 14.0955L11.3851 6.06535C11.2478 6.11201 11.1017 6.15415 10.9497 6.19215C10.6891 6.2573 10.398 6.31347 10.0833 6.35933C10.0755 6.36066 10.0676 6.3618 10.0596 6.36276ZM4.46746 4.88425C4.46746 4.88425 4.46966 4.88617 4.47246 4.89022C4.46859 4.8863 4.46746 4.88425 4.46746 4.88425ZM11.5325 4.88425C11.5325 4.88425 11.5314 4.8863 11.5275 4.89022C11.5303 4.88617 11.5325 4.88425 11.5325 4.88425ZM11.3551 4.99997C11.2164 4.93074 11.0158 4.85759 10.7515 4.78922L10.6524 5.23543C10.6708 5.231 10.6891 5.22652 10.7072 5.22201C10.9934 5.15045 11.2088 5.07303 11.3551 4.99997Z" fill="black"/>
</svg>
