<svg width="16" height="16" viewBox="0 0 16 16" fill="none" xmlns="http://www.w3.org/2000/svg">
<path fill-rule="evenodd" clip-rule="evenodd" d="M0.109984 3.18714C0.204881 3.06884 0.348345 3 0.500004 3H13.5C13.6517 3 13.7951 3.06884 13.89 3.18714C13.9849 3.30544 14.021 3.46042 13.9881 3.60847L13.7679 4.59926C15.0529 4.93858 16 6.10853 16 7.5C16 9.15685 14.6569 10.5 13 10.5C12.8184 10.5 12.6403 10.4838 12.4671 10.4527L12.3361 11.0423C12.0819 12.1862 11.0674 13 9.89566 13H4.10435C2.9326 13 1.91807 12.1862 1.66388 11.0423L0.0119109 3.60847C-0.0209887 3.46042 0.0150858 3.30544 0.109984 3.18714ZM12.6844 9.47531C12.787 9.49155 12.8924 9.5 13 9.5C14.1046 9.5 15 8.60457 15 7.5C15 6.58649 14.3873 5.81577 13.5507 5.5767L12.6844 9.47531ZM1.12331 4L2.64007 10.8254C2.79258 11.5117 3.4013 12 4.10435 12H9.89566C10.5987 12 11.2074 11.5117 11.3599 10.8254L12.8767 4H1.12331Z" fill="black"/>
</svg>
