<svg width="16" height="16" viewBox="0 0 16 16" fill="none" xmlns="http://www.w3.org/2000/svg">
<path d="M4 10.7813C4.14782 12.4484 5.51294 13.6306 7.59107 13.7837V15H8.63448V13.7837C10.9039 13.6051 12.3125 12.3463 12.3125 10.4836C12.3125 8.89307 11.3647 7.97448 9.35617 7.45565L8.63448 7.26853V3.46659C9.75615 3.57716 10.5126 4.18104 10.7039 5.08262H12.1734C12.0082 3.4836 10.6343 2.33536 8.63448 2.20778V1H7.59107V2.23329C5.65207 2.46294 4.32172 3.70474 4.32172 5.38882C4.32172 6.84326 5.28687 7.87242 6.98241 8.3062L7.59107 8.4678V12.4994C6.44332 12.3293 5.65207 11.6999 5.46077 10.7813H4ZM7.39108 6.94532C6.34767 6.68165 5.79119 6.12029 5.79119 5.32928C5.79119 4.38518 6.49549 3.68773 7.59107 3.50061V6.99635L7.39108 6.94532ZM8.98228 8.81652C10.2692 9.13973 10.8343 9.67558 10.8343 10.5857C10.8343 11.6829 10.0083 12.4143 8.63448 12.5249V8.73147L8.98228 8.81652Z" fill="black"/>
</svg>
