<svg width="16" height="16" viewBox="0 0 16 16" fill="none" xmlns="http://www.w3.org/2000/svg">
<path d="M4 8.58537H5.96896C6.08426 9.05022 6.15521 9.52367 6.15521 10.0143C6.15521 11.4003 5.41907 12.5108 4.07982 12.7862V14H12V12.7604H6.49224V12.6313C7.31707 12.1062 7.62749 11.1851 7.62749 9.93687C7.62749 9.47202 7.55654 9.02439 7.45898 8.58537H10.7494V7.61263H7.21951C7.03326 6.88953 6.84701 6.15782 6.84701 5.36585C6.84701 4.09182 7.89357 3.29986 9.42794 3.29986C10.1641 3.29986 10.9446 3.49785 11.5299 3.76471V2.45624C10.9534 2.19799 10.1375 2 9.34812 2C6.86475 2 5.32151 3.29125 5.32151 5.36585C5.32151 6.1406 5.51663 6.88092 5.72062 7.61263H4V8.58537Z" fill="black"/>
</svg>
