<svg width="16" height="16" viewBox="0 0 16 16" fill="none" xmlns="http://www.w3.org/2000/svg">
<path d="M4 9.42094H5.06264C5.39957 12.3219 7.31749 14 10.3413 14C10.9633 14 11.5076 13.9325 12 13.8145V12.5158C11.5162 12.6339 10.9546 12.6845 10.3413 12.6845C8.2419 12.6845 6.88553 11.487 6.56587 9.42094H10.5832V8.49332H6.49676C6.49676 8.47646 6.49676 8.45959 6.49676 8.44273V7.55727C6.49676 7.44765 6.49676 7.33802 6.5054 7.22839H10.5832V6.30077H6.61771C7.00648 4.40337 8.33693 3.31553 10.3413 3.31553C10.9546 3.31553 11.5162 3.36613 12 3.49262V2.19396C11.5076 2.06746 10.9633 2 10.3413 2C7.41253 2 5.52052 3.56852 5.09719 6.30077H4V7.22839H5.0108C5.0108 7.32959 5.0108 7.43921 5.0108 7.54041V8.49332H4V9.42094Z" fill="black"/>
</svg>
