<svg width="16" height="16" viewBox="0 0 16 16" fill="none" xmlns="http://www.w3.org/2000/svg">
<path d="M5.49995 13V14.25C5.49995 14.3881 5.61188 14.5 5.74995 14.5H6.74995C6.88802 14.5 6.99995 14.3881 6.99995 14.25V13H7.49995V14.25C7.49995 14.3881 7.61188 14.5 7.74995 14.5H8.74995C8.88802 14.5 8.99995 14.3881 8.99995 14.25V13H9.08432C11.0762 13 12.5 11.967 12.5 10.1795C12.5 8.67766 11.4932 7.85714 10.314 7.73993V7.65201C11.2847 7.41026 11.9966 6.67766 11.9966 5.46154C11.9966 3.9304 10.8461 3 9.09152 3H8.99995V1.75C8.99995 1.61193 8.88802 1.5 8.74995 1.5H7.74995C7.61188 1.5 7.49995 1.61193 7.49995 1.75V3H6.92709V1.75C6.92709 1.61193 6.81516 1.5 6.67709 1.5H5.74995C5.61188 1.5 5.49995 1.61193 5.49995 1.75V3L3.50159 3.01123C3.36352 3.01123 3.25159 3.12316 3.25159 3.26123V4.25001C3.25159 4.38745 3.36254 4.49912 3.49998 4.5L4.25476 4.49522C4.66709 4.49787 4.99995 4.83287 4.99995 5.24521V10.75C4.99995 11.1642 4.66417 11.5 4.24995 11.5L3.50159 11.5112C3.36352 11.5112 3.25159 11.6232 3.25159 11.7612V12.7612C3.25159 12.8993 3.36352 13.0112 3.50159 13.0112L5.49995 13ZM6.92709 4.48718H8.64569C9.55173 4.48718 10.0838 4.98535 10.0838 5.79853C10.0838 6.67033 9.50858 7.16117 8.20705 7.16117H6.92709V4.48718ZM6.92709 8.53846H8.76793C9.90408 8.53846 10.5225 9.11722 10.5225 10.0623C10.5225 11.0147 9.89688 11.5128 8.36525 11.5128H6.92709V8.53846Z" fill="black"/>
</svg>
