<svg width="16" height="16" viewBox="0 0 16 16" fill="none" xmlns="http://www.w3.org/2000/svg">
<path d="M0 5C0 7.42843 1.73124 9.45251 4.02684 9.90535C4.09333 9.1722 4.28156 8.47421 4.57116 7.83173C3.69462 7.53638 3.1321 6.86422 2.99896 5.91085H2.5V5.4845H2.9657V5.05039C2.9657 5.00388 2.9657 4.95736 2.96985 4.91473H2.5V4.48837H3.01143C3.23597 3.24031 4.2131 2.5 5.68087 2.5C5.99688 2.5 6.27131 2.53101 6.5 2.58527V3.31783C6.27963 3.26357 6.00936 3.23643 5.68503 3.23643C4.76611 3.23643 4.14657 3.70155 3.95114 4.48837H5.86798V4.91473H3.88877C3.88462 4.96124 3.88462 5.01163 3.88462 5.06202V5.4845H5.86798V5.91085H3.93035C4.04832 6.51292 4.39848 6.94144 4.93484 7.13971C5.97685 5.41769 7.79556 4.21818 9.90535 4.02684C9.45251 1.73124 7.42843 0 5 0C2.23858 0 0 2.23858 0 5ZM16 10.5C16 13.5376 13.5376 16 10.5 16C7.46243 16 5 13.5376 5 10.5C5 7.46243 7.46243 5 10.5 5C13.5376 5 16 7.46243 16 10.5ZM8.25 11.8221C8.31867 12.6565 8.99619 13.3068 10.2139 13.3839V14H10.7541V13.3796C12.013 13.294 12.75 12.6394 12.75 11.6895C12.75 10.8252 12.1869 10.3802 11.1798 10.1491L10.7541 10.0507V8.37347C11.2943 8.43337 11.6376 8.72005 11.72 9.11797H12.6676C12.5989 8.31357 11.8894 7.6846 10.7541 7.61614V7H10.2139V7.62897C9.1381 7.73166 8.40565 8.36064 8.40565 9.25061C8.40565 10.0379 8.95041 10.5385 9.85682 10.7439L10.2139 10.8295V12.6094C9.65997 12.5281 9.29374 12.2329 9.21134 11.8221H8.25ZM10.2093 9.92665C9.67828 9.80685 9.38988 9.56296 9.38988 9.19499C9.38988 8.78423 9.70117 8.47616 10.2139 8.38631V9.92665H10.2093ZM10.8319 10.9707C11.4774 11.1161 11.7749 11.3515 11.7749 11.7665C11.7749 12.2414 11.4041 12.5666 10.7541 12.6265V10.9535L10.8319 10.9707Z" fill="black"/>
</svg>
