<svg width="16" height="16" viewBox="0 0 16 16" fill="none" xmlns="http://www.w3.org/2000/svg">
<path d="M2.5 0C2.33368 0 2.17067 0.0163118 2.01264 0.0475742L2.20671 1.02856C2.30117 1.00988 2.39918 1 2.5 1H2.95833V0H2.5Z" fill="black"/>
<path d="M4.79167 0H3.875V1H4.79167V0Z" fill="black"/>
<path d="M6.625 0H5.70833V1H6.625V0Z" fill="black"/>
<path d="M8.45833 0H7.54167V1H8.45833V0Z" fill="black"/>
<path d="M10.2917 0H9.375V1H10.2917V0Z" fill="black"/>
<path d="M12.125 0H11.2083V1H12.125V0Z" fill="black"/>
<path d="M13.5 0H13.0417V1H13.5C13.6008 1 13.6988 1.00988 13.7933 1.02856L13.9874 0.0475741C13.8293 0.0163118 13.6663 0 13.5 0Z" fill="black"/>
<path d="M15.5786 1.11061C15.3962 0.838196 15.1618 0.603761 14.8894 0.421385L14.3331 1.25235C14.4969 1.36201 14.638 1.50314 14.7476 1.66693L15.5786 1.11061Z" fill="black"/>
<path d="M1.11061 0.421385C0.838196 0.603761 0.603761 0.838196 0.421385 1.11061L1.25235 1.66693C1.36201 1.50314 1.50314 1.36201 1.66693 1.25235L1.11061 0.421385Z" fill="black"/>
<path d="M16 2.5C16 2.33368 15.9837 2.17067 15.9524 2.01264L14.9714 2.20671C14.9901 2.30117 15 2.39918 15 2.5V2.95833H16V2.5Z" fill="black"/>
<path d="M0.0475741 2.01264C0.0163118 2.17067 0 2.33368 0 2.5V2.95833H1V2.5C1 2.39918 1.00988 2.30117 1.02856 2.20671L0.0475741 2.01264Z" fill="black"/>
<path d="M0 3.875V4.79167H1V3.875H0Z" fill="black"/>
<path d="M16 4.79167V3.875H15V4.79167H16Z" fill="black"/>
<path d="M0 5.70833V6.625H1V5.70833H0Z" fill="black"/>
<path d="M16 6.625V5.70833H15V6.625H16Z" fill="black"/>
<path d="M0 7.54167V8.45833H1V7.54167H0Z" fill="black"/>
<path d="M15 8.45833H16V7.54167H15V8.45833Z" fill="black"/>
<path d="M0 9.375V10.2917H1V9.375H0Z" fill="black"/>
<path d="M16 10.2917V9.375H15V10.2917H16Z" fill="black"/>
<path d="M0 11.2083V12.125H1V11.2083H0Z" fill="black"/>
<path d="M16 12.125V11.2083H15V12.125H16Z" fill="black"/>
<path d="M0 13.0417V13.5C0 13.6663 0.0163118 13.8293 0.0475742 13.9874L1.02856 13.7933C1.00988 13.6988 1 13.6008 1 13.5V13.0417H0Z" fill="black"/>
<path d="M16 13.5V13.0417H15V13.5C15 13.6008 14.9901 13.6988 14.9714 13.7933L15.9524 13.9874C15.9837 13.8293 16 13.6663 16 13.5Z" fill="black"/>
<path d="M0.421385 14.8894C0.603761 15.1618 0.838196 15.3962 1.11061 15.5786L1.66693 14.7476C1.50314 14.638 1.36201 14.4969 1.25235 14.3331L0.421385 14.8894Z" fill="black"/>
<path d="M14.8894 15.5786C15.1618 15.3962 15.3962 15.1618 15.5786 14.8894L14.7476 14.3331C14.638 14.4969 14.4969 14.638 14.3331 14.7476L14.8894 15.5786Z" fill="black"/>
<path d="M2.01264 15.9524C2.17067 15.9837 2.33368 16 2.5 16H2.95833V15H2.5C2.39918 15 2.30117 14.9901 2.20671 14.9714L2.01264 15.9524Z" fill="black"/>
<path d="M13.5 16C13.6663 16 13.8293 15.9837 13.9874 15.9524L13.7933 14.9714C13.6988 14.9901 13.6008 15 13.5 15H13.0417V16H13.5Z" fill="black"/>
<path d="M3.875 16H4.79167V15H3.875V16Z" fill="black"/>
<path d="M5.70833 16H6.625V15H5.70833V16Z" fill="black"/>
<path d="M7.54167 16H8.45833V15H7.54167V16Z" fill="black"/>
<path d="M9.375 16H10.2917V15H9.375V16Z" fill="black"/>
<path d="M11.2083 16H12.125V15H11.2083V16Z" fill="black"/>
<path d="M4.5 7.5C4.22386 7.5 4 7.72386 4 8C4 8.27614 4.22386 8.5 4.5 8.5H11.5C11.7761 8.5 12 8.27614 12 8C12 7.72386 11.7761 7.5 11.5 7.5H4.5Z" fill="black"/>
</svg>
