<svg width="16" height="16" viewBox="0 0 16 16" fill="none" xmlns="http://www.w3.org/2000/svg">
<path d="M13 5.69813C12.729 5.90046 12.4201 6.07563 12.096 6.22295C11.022 6.71114 9.57336 7 8 7C6.42664 7 4.97802 6.71114 3.90401 6.22295C3.5799 6.07563 3.27105 5.90046 3 5.69813V7C3 7.37372 3.35608 7.87543 4.31781 8.31258C5.23441 8.72922 6.53579 9 8 9C8.66607 9 9.29844 8.94397 9.87622 8.84366C9.44552 9.15327 9.07177 9.53711 8.77366 9.97643C8.51999 9.99201 8.26172 10 8 10C6.42664 10 4.97802 9.71114 3.90401 9.22295C3.5799 9.07563 3.27105 8.90046 3 8.69813V10C3 10.3737 3.35608 10.8754 4.31781 11.3126C5.23441 11.7292 6.53579 12 8 12L8.02747 12C8.00932 12.1641 8 12.331 8 12.5C8 12.6009 8.00332 12.701 8.00986 12.8002C8.00334 12.8659 8 12.9326 8 13C6.42664 13 4.97802 12.7111 3.90401 12.2229C3.5799 12.0756 3.27105 11.9005 3 11.6981V13C3 13.3737 3.35608 13.8754 4.31781 14.3126C5.23441 14.7292 6.53579 15 8 15C8 15.3631 8.09679 15.7037 8.26597 15.9972C8.17775 15.9991 8.08907 16 8 16C6.42664 16 4.97802 15.7111 3.90401 15.2229C2.87513 14.7553 2 14.007 2 13V4C2 2.993 2.87513 2.24472 3.90401 1.77705C4.97802 1.28886 6.42664 1 8 1C9.57336 1 11.022 1.28886 12.096 1.77705C13.1249 2.24472 14 2.993 14 4V8.25606C13.5308 8.09023 13.026 8 12.5 8C12.415 8 12.3305 8.00236 12.2466 8.00701C12.7873 7.65415 13 7.28884 13 7V5.69813ZM4.31781 2.68742C3.35608 3.12457 3 3.62628 3 4C3 4.37372 3.35608 4.87543 4.31781 5.31258C5.23441 5.72922 6.53579 6 8 6C9.46421 6 10.7656 5.72922 11.6822 5.31258C12.6439 4.87543 13 4.37372 13 4C13 3.62628 12.6439 3.12457 11.6822 2.68742C10.7656 2.27078 9.46421 2 8 2C6.53579 2 5.23441 2.27078 4.31781 2.68742Z" fill="black"/>
<path d="M9 13C9 12.4477 9.44772 12 10 12V11C10 9.89543 10.8954 9 12 9C13.1046 9 14 9.89543 14 11V12C14.5523 12 15 12.4477 15 13V15C15 15.5523 14.5523 16 14 16H10C9.44772 16 9 15.5523 9 15V13ZM12 10C11.4477 10 11 10.4477 11 11V12H13V11C13 10.4477 12.5523 10 12 10Z" fill="black"/>
</svg>
