<svg width="16" height="16" viewBox="0 0 16 16" fill="none" xmlns="http://www.w3.org/2000/svg">
<path d="M13.8789 10.414C12.9082 9.77094 11.5875 9.877 10.7322 10.7322C9.877 11.5875 9.77094 12.9082 10.414 13.8789L13.8789 10.414ZM14.586 11.1211L11.1211 14.586C12.0918 15.2291 13.4125 15.123 14.2678 14.2678C15.123 13.4125 15.2291 12.0918 14.586 11.1211ZM10.0251 10.0251C11.392 8.65829 13.608 8.65829 14.9749 10.0251C16.3417 11.392 16.3417 13.608 14.9749 14.9749C13.608 16.3417 11.392 16.3417 10.0251 14.9749C8.65829 13.608 8.65829 11.392 10.0251 10.0251Z" fill="black"/>
<path d="M8 1C6.42664 1 4.97802 1.28886 3.90401 1.77705C2.87513 2.24472 2 2.993 2 4C2 5.007 2.87513 5.75528 3.90401 6.22295C4.97802 6.71114 6.42664 7 8 7C9.57336 7 11.022 6.71114 12.096 6.22295C13.1249 5.75528 14 5.007 14 4C14 2.993 13.1249 2.24472 12.096 1.77705C11.022 1.28886 9.57336 1 8 1Z" fill="black"/>
<path d="M2 7V6.16101C2.45727 6.59277 3.00423 6.91242 3.49021 7.13332C4.72165 7.69307 6.31752 8 8 8C9.68248 8 11.2783 7.69307 12.5098 7.13332C12.9958 6.91242 13.5427 6.59277 14 6.16101V7C14 7.42391 13.8449 7.80198 13.5886 8.13256C13.24 8.04596 12.8754 8 12.5 8C10.95 8 9.583 8.78368 8.77366 9.97644C8.51999 9.99201 8.26172 10 8 10C6.42664 10 4.97802 9.71114 3.90401 9.22295C2.87513 8.75528 2 8.007 2 7Z" fill="black"/>
<path d="M8.25691 10.9976C8.17152 10.9992 8.08587 11 8 11C6.31752 11 4.72165 10.6931 3.49021 10.1333C3.00423 9.91242 2.45727 9.59277 2 9.16101V10C2 11.007 2.87513 11.7553 3.90401 12.223C4.97802 12.7111 6.42664 13 8 13C8.00916 13 8.01831 13 8.02746 13C8.00932 12.8358 8 12.669 8 12.5C8 11.9732 8.09054 11.4675 8.25691 10.9976Z" fill="black"/>
<path d="M8.25523 13.9976C8.1704 13.9992 8.08531 14 8 14C6.31752 14 4.72165 13.6931 3.49021 13.1333C3.00423 12.9124 2.45727 12.5928 2 12.161V13C2 14.007 2.87513 14.7553 3.90401 15.223C4.97802 15.7111 6.42664 16 8 16C8.53623 16 9.05798 15.9665 9.55534 15.9029C8.97067 15.3965 8.51784 14.742 8.25523 13.9976Z" fill="black"/>
</svg>
