<svg width="16" height="16" viewBox="0 0 16 16" fill="none" xmlns="http://www.w3.org/2000/svg">
<path d="M8 1C6.42664 1 4.97802 1.28886 3.90401 1.77705C2.87513 2.24472 2 2.993 2 4C2 5.007 2.87513 5.75528 3.90401 6.22295C4.97802 6.71114 6.42664 7 8 7C9.57336 7 11.022 6.71114 12.096 6.22295C13.1249 5.75528 14 5.007 14 4C14 2.993 13.1249 2.24472 12.096 1.77705C11.022 1.28886 9.57336 1 8 1Z" fill="black"/>
<path d="M3.90401 9.22295C2.87513 8.75528 2 8.007 2 7V6.16101C2.45727 6.59277 3.00423 6.91242 3.49021 7.13332C4.72165 7.69307 6.31752 8 8 8C9.68248 8 11.2783 7.69307 12.5098 7.13332C12.9958 6.91242 13.5427 6.59277 14 6.16101V7C14 7.42391 13.8449 7.80198 13.5886 8.13256C13.24 8.04596 12.8754 8 12.5 8C12.4075 8 12.3157 8.00279 12.2247 8.00829C12.1505 8.00279 12.0756 8 12 8C11.245 8 10.5551 8.27891 10.0278 8.73932C9.53293 9.0653 9.10622 9.48633 8.77366 9.97644C8.51999 9.99201 8.26172 10 8 10C6.42664 10 4.97802 9.71114 3.90401 9.22295Z" fill="black"/>
<path d="M8 14C6.31752 14 4.72165 13.6931 3.49021 13.1333C3.00423 12.9124 2.45727 12.5928 2 12.161V13C2 14.007 2.87513 14.7553 3.90401 15.223C4.97802 15.7111 6.42664 16 8 16C8.08907 16 8.17775 15.9991 8.26597 15.9972C8.09679 15.7037 8 15.3631 8 15V14Z" fill="black"/>
<path d="M8 12.5C8 12.6009 8.00332 12.701 8.00986 12.8002C8.00334 12.8659 8 12.9326 8 13C6.42664 13 4.97802 12.7111 3.90401 12.223C2.87513 11.7553 2 11.007 2 10V9.16101C2.45727 9.59277 3.00423 9.91242 3.49021 10.1333C4.72165 10.6931 6.31752 11 8 11C8.08587 11 8.17152 10.9992 8.25691 10.9976C8.09054 11.4675 8 11.9732 8 12.5Z" fill="black"/>
<path d="M9 13C9 12.4477 9.44772 12 10 12V11C10 9.89543 10.8954 9 12 9C13.1046 9 14 9.89543 14 11V12C14.5523 12 15 12.4477 15 13V15C15 15.5523 14.5523 16 14 16H10C9.44772 16 9 15.5523 9 15V13ZM12 10C11.4477 10 11 10.4477 11 11V12H13V11C13 10.4477 12.5523 10 12 10Z" fill="black"/>
</svg>
