<svg width="16" height="16" viewBox="0 0 16 16" fill="none" xmlns="http://www.w3.org/2000/svg">
<path d="M8 1C6.42664 1 4.97802 1.28886 3.90401 1.77705C2.87513 2.24472 2 2.993 2 4C2 5.007 2.87513 5.75528 3.90401 6.22295C4.97802 6.71114 6.42664 7 8 7C9.57336 7 11.022 6.71114 12.096 6.22295C13.1249 5.75528 14 5.007 14 4C14 2.993 13.1249 2.24472 12.096 1.77705C11.022 1.28886 9.57336 1 8 1Z" fill="black"/>
<path d="M2 7V6.16101C2.45727 6.59277 3.00423 6.91242 3.49021 7.13332C4.72165 7.69307 6.31752 8 8 8C9.68248 8 11.2783 7.69307 12.5098 7.13332C12.9958 6.91242 13.5427 6.59277 14 6.16101V7C14 7.42391 13.8449 7.80198 13.5886 8.13256C13.24 8.04596 12.8754 8 12.5 8C10.95 8 9.583 8.78368 8.77366 9.97644C8.51999 9.99201 8.26172 10 8 10C6.42664 10 4.97802 9.71114 3.90401 9.22295C2.87513 8.75528 2 8.007 2 7Z" fill="black"/>
<path d="M8.25691 10.9976C8.17152 10.9992 8.08587 11 8 11C6.31752 11 4.72165 10.6931 3.49021 10.1333C3.00423 9.91242 2.45727 9.59277 2 9.16101V10C2 11.007 2.87513 11.7553 3.90401 12.223C4.97802 12.7111 6.42664 13 8 13C8.00916 13 8.01831 13 8.02746 13C8.00932 12.8358 8 12.669 8 12.5C8 11.9732 8.09054 11.4675 8.25691 10.9976Z" fill="black"/>
<path d="M8.25523 13.9976C8.1704 13.9992 8.08531 14 8 14C6.31752 14 4.72165 13.6931 3.49021 13.1333C3.00423 12.9124 2.45727 12.5928 2 12.161V13C2 14.007 2.87513 14.7553 3.90401 15.223C4.97802 15.7111 6.42664 16 8 16C8.53623 16 9.05798 15.9665 9.55534 15.9029C8.97067 15.3965 8.51784 14.742 8.25523 13.9976Z" fill="black"/>
<path d="M11.8855 9.45954C12.0661 8.84682 12.9339 8.84682 13.1145 9.45954L13.1583 9.60814C13.2737 9.99964 13.7209 10.1849 14.0793 9.98963L14.2154 9.91553C14.7763 9.60997 15.39 10.2237 15.0845 10.7846L15.0104 10.9207C14.8151 11.2791 15.0004 11.7263 15.3919 11.8417L15.5405 11.8855C16.1532 12.0661 16.1532 12.9339 15.5405 13.1145L15.3919 13.1583C15.0004 13.2737 14.8151 13.7209 15.0104 14.0793L15.0845 14.2154C15.39 14.7763 14.7763 15.39 14.2154 15.0845L14.0793 15.0104C13.7209 14.8151 13.2737 15.0004 13.1583 15.3919L13.1145 15.5405C12.9339 16.1532 12.0661 16.1532 11.8855 15.5405L11.8417 15.3919C11.7263 15.0004 11.2791 14.8151 10.9207 15.0104L10.7846 15.0845C10.2237 15.39 9.60997 14.7763 9.91553 14.2154L9.98963 14.0793C10.1849 13.7209 9.99964 13.2737 9.60814 13.1583L9.45954 13.1145C8.84682 12.9339 8.84682 12.0661 9.45954 11.8855L9.60814 11.8417C9.99964 11.7263 10.1849 11.2791 9.98963 10.9207L9.91553 10.7846C9.60997 10.2237 10.2237 9.60997 10.7846 9.91553L10.9207 9.98963C11.2791 10.1849 11.7263 9.99964 11.8417 9.60814L11.8855 9.45954ZM14 12.5C14 11.6716 13.3284 11 12.5 11C11.6716 11 11 11.6716 11 12.5C11 13.3284 11.6716 14 12.5 14C13.3284 14 14 13.3284 14 12.5Z" fill="black"/>
</svg>
