<svg width="16" height="16" viewBox="0 0 16 16" fill="none" xmlns="http://www.w3.org/2000/svg">
<path d="M12.5 16C14.433 16 16 14.433 16 12.5C16 10.567 14.433 9 12.5 9C10.567 9 9 10.567 9 12.5C9 14.433 10.567 16 12.5 16ZM13 11V12H14C14.2761 12 14.5 12.2239 14.5 12.5C14.5 12.7761 14.2761 13 14 13H13V14C13 14.2761 12.7761 14.5 12.5 14.5C12.2239 14.5 12 14.2761 12 14V13H11C10.7239 13 10.5 12.7761 10.5 12.5C10.5 12.2239 10.7239 12 11 12H12V11C12 10.7239 12.2239 10.5 12.5 10.5C12.7761 10.5 13 10.7239 13 11Z" fill="black"/>
<path d="M8 1C6.42664 1 4.97802 1.28886 3.90401 1.77705C2.87513 2.24472 2 2.993 2 4C2 5.007 2.87513 5.75528 3.90401 6.22295C4.97802 6.71114 6.42664 7 8 7C9.57336 7 11.022 6.71114 12.096 6.22295C13.1249 5.75528 14 5.007 14 4C14 2.993 13.1249 2.24472 12.096 1.77705C11.022 1.28886 9.57336 1 8 1Z" fill="black"/>
<path d="M2 7V6.16101C2.45727 6.59277 3.00423 6.91242 3.49021 7.13332C4.72165 7.69307 6.31752 8 8 8C9.68248 8 11.2783 7.69307 12.5098 7.13332C12.9958 6.91242 13.5427 6.59277 14 6.16101V7C14 7.42391 13.8449 7.80198 13.5886 8.13256C13.24 8.04596 12.8754 8 12.5 8C10.95 8 9.583 8.78368 8.77366 9.97644C8.51999 9.99201 8.26172 10 8 10C6.42664 10 4.97802 9.71114 3.90401 9.22295C2.87513 8.75528 2 8.007 2 7Z" fill="black"/>
<path d="M8.25691 10.9976C8.17152 10.9992 8.08587 11 8 11C6.31752 11 4.72165 10.6931 3.49021 10.1333C3.00423 9.91242 2.45727 9.59277 2 9.16101V10C2 11.007 2.87513 11.7553 3.90401 12.223C4.97802 12.7111 6.42664 13 8 13C8.00916 13 8.01831 13 8.02746 13C8.00932 12.8358 8 12.669 8 12.5C8 11.9732 8.09054 11.4675 8.25691 10.9976Z" fill="black"/>
<path d="M8.25523 13.9976C8.1704 13.9992 8.08531 14 8 14C6.31752 14 4.72165 13.6931 3.49021 13.1333C3.00423 12.9124 2.45727 12.5928 2 12.161V13C2 14.007 2.87513 14.7553 3.90401 15.223C4.97802 15.7111 6.42664 16 8 16C8.53623 16 9.05798 15.9665 9.55534 15.9029C8.97067 15.3965 8.51784 14.742 8.25523 13.9976Z" fill="black"/>
</svg>
