<svg width="16" height="16" viewBox="0 0 16 16" fill="none" xmlns="http://www.w3.org/2000/svg">
<path d="M12.096 6.22295C12.4201 6.07563 12.729 5.90046 13 5.69813V7C13 7.28884 12.7873 7.65415 12.2466 8.00701C12.3305 8.00236 12.415 8 12.5 8C13.026 8 13.5308 8.09023 14 8.25606V4C14 2.993 13.1249 2.24472 12.096 1.77705C11.022 1.28886 9.57336 1 8 1C6.42664 1 4.97802 1.28886 3.90401 1.77705C2.87513 2.24472 2 2.993 2 4V13C2 14.007 2.87513 14.7553 3.90401 15.2229C4.97802 15.7111 6.42664 16 8 16C8.53623 16 9.05798 15.9664 9.55534 15.9029C9.24393 15.6332 8.96992 15.3214 8.74213 14.9765C8.50036 14.9919 8.2526 15 8 15C6.53579 15 5.23441 14.7292 4.31781 14.3126C3.35608 13.8754 3 13.3737 3 13V11.6981C3.27105 11.9005 3.5799 12.0756 3.90401 12.2229C4.97802 12.7111 6.42664 13 8 13C8.00916 13 8.01831 13 8.02746 13C8.00932 12.8358 8 12.669 8 12.5C8 12.331 8.00932 12.1641 8.02747 12C8.01832 12 8.00916 12 8 12C6.53579 12 5.23441 11.7292 4.31781 11.3126C3.35608 10.8754 3 10.3737 3 10V8.69813C3.27105 8.90046 3.5799 9.07563 3.90401 9.22295C4.97802 9.71114 6.42664 10 8 10C8.26172 10 8.51999 9.99201 8.77366 9.97643C9.07177 9.53711 9.44552 9.15327 9.87622 8.84366C9.29844 8.94397 8.66607 9 8 9C6.53579 9 5.23441 8.72922 4.31781 8.31258C3.35608 7.87543 3 7.37372 3 7V5.69813C3.27105 5.90046 3.5799 6.07563 3.90401 6.22295C4.97802 6.71114 6.42664 7 8 7C9.57336 7 11.022 6.71114 12.096 6.22295ZM3 4C3 3.62628 3.35608 3.12457 4.31781 2.68742C5.23441 2.27078 6.53579 2 8 2C9.46421 2 10.7656 2.27078 11.6822 2.68742C12.6439 3.12457 13 3.62628 13 4C13 4.37372 12.6439 4.87543 11.6822 5.31258C10.7656 5.72922 9.46421 6 8 6C6.53579 6 5.23441 5.72922 4.31781 5.31258C3.35608 4.87543 3 4.37372 3 4Z" fill="black"/>
<path d="M11.8855 9.45954C12.0661 8.84682 12.9339 8.84682 13.1145 9.45954L13.1583 9.60814C13.2737 9.99964 13.7209 10.1849 14.0793 9.98963L14.2154 9.91553C14.7763 9.60997 15.39 10.2237 15.0845 10.7846L15.0104 10.9207C14.8151 11.2791 15.0004 11.7263 15.3919 11.8417L15.5405 11.8855C16.1532 12.0661 16.1532 12.9339 15.5405 13.1145L15.3919 13.1583C15.0004 13.2737 14.8151 13.7209 15.0104 14.0793L15.0845 14.2154C15.39 14.7763 14.7763 15.39 14.2154 15.0845L14.0793 15.0104C13.7209 14.8151 13.2737 15.0004 13.1583 15.3919L13.1145 15.5405C12.9339 16.1532 12.0661 16.1532 11.8855 15.5405L11.8417 15.3919C11.7263 15.0004 11.2791 14.8151 10.9207 15.0104L10.7846 15.0845C10.2237 15.39 9.60997 14.7763 9.91553 14.2154L9.98963 14.0793C10.1849 13.7209 9.99964 13.2737 9.60814 13.1583L9.45954 13.1145C8.84682 12.9339 8.84682 12.0661 9.45954 11.8855L9.60814 11.8417C9.99964 11.7263 10.1849 11.2791 9.98963 10.9207L9.91553 10.7846C9.60997 10.2237 10.2237 9.60997 10.7846 9.91553L10.9207 9.98963C11.2791 10.1849 11.7263 9.99964 11.8417 9.60814L11.8855 9.45954ZM14 12.5C14 13.3284 13.3284 14 12.5 14C11.6716 14 11 13.3284 11 12.5C11 11.6716 11.6716 11 12.5 11C13.3284 11 14 11.6716 14 12.5Z" fill="black"/>
</svg>
