<svg width="16" height="16" viewBox="0 0 16 16" fill="none" xmlns="http://www.w3.org/2000/svg">
<path d="M5 8V4H11V8H5Z" fill="black"/>
<path d="M4 0C2.89543 0 2 0.895431 2 2V14C2 15.1046 2.89543 16 4 16H12C13.1046 16 14 15.1046 14 14V2C14 0.895431 13.1046 0 12 0H4ZM4 1.5C4 1.77614 3.77614 2 3.5 2C3.22386 2 3 1.77614 3 1.5C3 1.22386 3.22386 1 3.5 1C3.77614 1 4 1.22386 4 1.5ZM13 1.5C13 1.77614 12.7761 2 12.5 2C12.2239 2 12 1.77614 12 1.5C12 1.22386 12.2239 1 12.5 1C12.7761 1 13 1.22386 13 1.5ZM3.5 11C3.77614 11 4 10.7761 4 10.5C4 10.2239 3.77614 10 3.5 10C3.22386 10 3 10.2239 3 10.5C3 10.7761 3.22386 11 3.5 11ZM13 10.5C13 10.7761 12.7761 11 12.5 11C12.2239 11 12 10.7761 12 10.5C12 10.2239 12.2239 10 12.5 10C12.7761 10 13 10.2239 13 10.5ZM4.75 3H11.25C11.6642 3 12 3.33579 12 3.75V8.25C12 8.66421 11.6642 9 11.25 9H4.75C4.33579 9 4 8.66421 4 8.25V3.75C4 3.33579 4.33579 3 4.75 3ZM5 12H11C11.5523 12 12 12.4477 12 13V15H11V13H10.25V15H9.25V13H8.5V15H7.5V13H6.75V15H5.75V13H5V15H4V13C4 12.4477 4.44772 12 5 12Z" fill="black"/>
</svg>
