<svg width="16" height="16" viewBox="0 0 16 16" fill="none" xmlns="http://www.w3.org/2000/svg">
<path d="M8.7847 9.89633C10.061 9.55139 11 8.38535 11 7C11 5.34315 9.65685 4 8 4C6.34315 4 5 5.34315 5 7C5 8.34642 5.88699 9.48567 7.10851 9.86532C7.77642 9.4248 8.50495 8.95489 9.06364 8.59692C9.28821 8.45304 9.54696 8.71179 9.40308 8.93636C9.21994 9.22219 9.00751 9.55246 8.7847 9.89633ZM9 7C9 7.55228 8.55228 8 8 8C7.44772 8 7 7.55228 7 7C7 6.44772 7.44772 6 8 6C8.55228 6 9 6.44772 9 7Z" fill="black"/>
<path d="M4 0C2.89543 0 2 0.895431 2 2V14C2 15.1046 2.89543 16 4 16H12C13.1046 16 14 15.1046 14 14V2C14 0.895431 13.1046 0 12 0H4ZM13 1.5C13 1.77614 12.7761 2 12.5 2C12.2239 2 12 1.77614 12 1.5C12 1.22386 12.2239 1 12.5 1C12.7761 1 13 1.22386 13 1.5ZM13 14.5C13 14.7761 12.7761 15 12.5 15C12.2239 15 12 14.7761 12 14.5C12 14.2239 12.2239 14 12.5 14C12.7761 14 13 14.2239 13 14.5ZM3.5 15C3.22386 15 3 14.7761 3 14.5C3 14.2239 3.22386 14 3.5 14C3.77614 14 4 14.2239 4 14.5C4 14.7761 3.77614 15 3.5 15ZM4 1.5C4 1.77614 3.77614 2 3.5 2C3.22386 2 3 1.77614 3 1.5C3 1.22386 3.22386 1 3.5 1C3.77614 1 4 1.22386 4 1.5ZM6.88192 12.6771C6.45141 13.1076 5.7534 13.1076 5.32289 12.6771C4.89237 12.2466 4.89237 11.5486 5.32289 11.1181C5.42107 11.0199 5.7177 10.8043 6.11717 10.53C4.85725 9.85664 4 8.52843 4 7C4 4.79086 5.79086 3 8 3C10.2091 3 12 4.79086 12 7C12 9.18798 10.2433 10.9657 8.06335 10.9995C7.52558 11.8127 7.04394 12.5151 6.88192 12.6771Z" fill="black"/>
</svg>
