<svg width="16" height="16" viewBox="0 0 16 16" fill="none" xmlns="http://www.w3.org/2000/svg">
<path d="M12 2.5C12 2.77614 11.7761 3 11.5 3C11.2239 3 11 2.77614 11 2.5C11 2.22386 11.2239 2 11.5 2C11.7761 2 12 2.22386 12 2.5Z" fill="black"/>
<path d="M12 13.5C12 13.7761 11.7761 14 11.5 14C11.2239 14 11 13.7761 11 13.5C11 13.2239 11.2239 13 11.5 13C11.7761 13 12 13.2239 12 13.5Z" fill="black"/>
<path d="M4.5 14C4.77614 14 5 13.7761 5 13.5C5 13.2239 4.77614 13 4.5 13C4.22386 13 4 13.2239 4 13.5C4 13.7761 4.22386 14 4.5 14Z" fill="black"/>
<path d="M5 2.5C5 2.77614 4.77614 3 4.5 3C4.22386 3 4 2.77614 4 2.5C4 2.22386 4.22386 2 4.5 2C4.77614 2 5 2.22386 5 2.5Z" fill="black"/>
<path d="M8 8C8.55228 8 9 7.55228 9 7C9 6.44772 8.55228 6 8 6C7.44772 6 7 6.44772 7 7C7 7.55228 7.44772 8 8 8Z" fill="black"/>
<path d="M12 7C12 9.18798 10.2433 10.9657 8.06335 10.9995C7.52558 11.8127 7.04394 12.5151 6.88192 12.6771C6.45141 13.1076 5.7534 13.1076 5.32289 12.6771C4.89237 12.2466 4.89237 11.5486 5.32289 11.1181C5.42107 11.0199 5.7177 10.8043 6.11717 10.5301C4.85725 9.85664 4 8.52843 4 7C4 4.79086 5.79086 3 8 3C10.2091 3 12 4.79086 12 7ZM11 7C11 5.34315 9.65685 4 8 4C6.34315 4 5 5.34315 5 7C5 8.34642 5.88698 9.48567 7.10851 9.86532C7.77642 9.4248 8.50495 8.95489 9.06364 8.59692C9.28821 8.45304 9.54696 8.71179 9.40308 8.93636C9.21994 9.22219 9.0075 9.55246 8.7847 9.89633C10.061 9.55139 11 8.38535 11 7Z" fill="black"/>
<path d="M2 2C2 0.895431 2.89543 0 4 0H12C13.1046 0 14 0.895431 14 2V14C14 15.1046 13.1046 16 12 16H4C2.89543 16 2 15.1046 2 14V2ZM4 1C3.44772 1 3 1.44772 3 2V14C3 14.5523 3.44772 15 4 15H12C12.5523 15 13 14.5523 13 14V2C13 1.44772 12.5523 1 12 1H4Z" fill="black"/>
</svg>
