<svg width="16" height="16" viewBox="0 0 16 16" fill="none" xmlns="http://www.w3.org/2000/svg">
<path d="M4.75 4C4.33579 4 4 4.33579 4 4.75V8.25C4 8.66421 4.33579 9 4.75 9H11.25C11.6642 9 12 8.66421 12 8.25V4.75C12 4.33579 11.6642 4 11.25 4H4.75ZM5 8V5H11V8H5Z" fill="black"/>
<path d="M5 2.5C5 2.77614 4.77614 3 4.5 3C4.22386 3 4 2.77614 4 2.5C4 2.22386 4.22386 2 4.5 2C4.77614 2 5 2.22386 5 2.5Z" fill="black"/>
<path d="M12 2.5C12 2.77614 11.7761 3 11.5 3C11.2239 3 11 2.77614 11 2.5C11 2.22386 11.2239 2 11.5 2C11.7761 2 12 2.22386 12 2.5Z" fill="black"/>
<path d="M4.5 11C4.77614 11 5 10.7761 5 10.5C5 10.2239 4.77614 10 4.5 10C4.22386 10 4 10.2239 4 10.5C4 10.7761 4.22386 11 4.5 11Z" fill="black"/>
<path d="M11.5 11C11.7761 11 12 10.7761 12 10.5C12 10.2239 11.7761 10 11.5 10C11.2239 10 11 10.2239 11 10.5C11 10.7761 11.2239 11 11.5 11Z" fill="black"/>
<path d="M2 2C2 0.895431 2.89543 0 4 0H12C13.1046 0 14 0.895431 14 2V14C14 15.1046 13.1046 16 12 16H4C2.89543 16 2 15.1046 2 14V2ZM13 14V2C13 1.44772 12.5523 1 12 1H4C3.44772 1 3 1.44772 3 2V14C3 14.5523 3.44772 15 4 15L4 13C4 12.4477 4.44772 12 5 12H11C11.5523 12 12 12.4477 12 13V15C12.5523 15 13 14.5523 13 14ZM5.75 15V13H5V15H5.75ZM7.5 15V13H6.75V15H7.5ZM9.25 15V13H8.5V15H9.25ZM11 13H10.25V15H11V13Z" fill="black"/>
</svg>
