<svg width="16" height="16" viewBox="0 0 16 16" fill="none" xmlns="http://www.w3.org/2000/svg">
<path fill-rule="evenodd" clip-rule="evenodd" d="M6 3.5C6 2.67157 6.67157 2 7.5 2H8.5C9.32843 2 10 2.67157 10 3.5V4.5C10 5.32843 9.32843 6 8.5 6V7H14C14.2761 7 14.5 7.22386 14.5 7.5V8.5C14.5 8.77614 14.2761 9 14 9C13.7239 9 13.5 8.77614 13.5 8.5V8H8.5V8.5C8.5 8.77614 8.27614 9 8 9C7.72386 9 7.5 8.77614 7.5 8.5V8H2.5V8.5C2.5 8.77614 2.27614 9 2 9C1.72386 9 1.5 8.77614 1.5 8.5V7.5C1.5 7.22386 1.72386 7 2 7H7.5V6C6.67157 6 6 5.32843 6 4.5V3.5ZM0 11.5C0 10.6716 0.671573 10 1.5 10H2.5C3.32843 10 4 10.6716 4 11.5V12.5C4 13.3284 3.32843 14 2.5 14H1.5C0.671573 14 0 13.3284 0 12.5V11.5ZM6 11.5C6 10.6716 6.67157 10 7.5 10H8.5C9.32843 10 10 10.6716 10 11.5V12.5C10 13.3284 9.32843 14 8.5 14H7.5C6.67157 14 6 13.3284 6 12.5V11.5ZM12 11.5C12 10.6716 12.6716 10 13.5 10H14.5C15.3284 10 16 10.6716 16 11.5V12.5C16 13.3284 15.3284 14 14.5 14H13.5C12.6716 14 12 13.3284 12 12.5V11.5Z" fill="black"/>
</svg>
