<svg width="16" height="16" viewBox="0 0 16 16" fill="none" xmlns="http://www.w3.org/2000/svg">
<path fill-rule="evenodd" clip-rule="evenodd" d="M6 3.5C6 2.67157 6.67157 2 7.5 2H8.5C9.32843 2 10 2.67157 10 3.5V4.5C10 5.32843 9.32843 6 8.5 6V7H11C11.2761 7 11.5 7.22386 11.5 7.5V8.5C11.5 8.77614 11.2761 9 11 9C10.7239 9 10.5 8.77614 10.5 8.5V8H5.5V8.5C5.5 8.77614 5.27614 9 5 9C4.72386 9 4.5 8.77614 4.5 8.5V7.5C4.5 7.22386 4.72386 7 5 7H7.5V6C6.67157 6 6 5.32843 6 4.5V3.5ZM3 11.5C3 10.6716 3.67157 10 4.5 10H5.5C6.32843 10 7 10.6716 7 11.5V12.5C7 13.3284 6.32843 14 5.5 14H4.5C3.67157 14 3 13.3284 3 12.5V11.5ZM9 11.5C9 10.6716 9.67157 10 10.5 10H11.5C12.3284 10 13 10.6716 13 11.5V12.5C13 13.3284 12.3284 14 11.5 14H10.5C9.67157 14 9 13.3284 9 12.5V11.5Z" fill="black"/>
</svg>
