<svg width="16" height="16" viewBox="0 0 16 16" fill="none" xmlns="http://www.w3.org/2000/svg">
<path fill-rule="evenodd" clip-rule="evenodd" d="M6 3.5C6 2.67157 6.67157 2 7.5 2H8.5C9.32843 2 10 2.67157 10 3.5V4.5C10 5.32843 9.32843 6 8.5 6V7H14C14.2761 7 14.5 7.22386 14.5 7.5V8.5C14.5 8.77614 14.2761 9 14 9C13.7239 9 13.5 8.77614 13.5 8.5V8H8.5V8.5C8.5 8.77614 8.27614 9 8 9C7.72386 9 7.5 8.77614 7.5 8.5V8H2.5V8.5C2.5 8.77614 2.27614 9 2 9C1.72386 9 1.5 8.77614 1.5 8.5V7.5C1.5 7.22386 1.72386 7 2 7H7.5V6C6.67157 6 6 5.32843 6 4.5V3.5ZM8.5 5C8.77614 5 9 4.77614 9 4.5V3.5C9 3.22386 8.77614 3 8.5 3H7.5C7.22386 3 7 3.22386 7 3.5V4.5C7 4.77614 7.22386 5 7.5 5H8.5ZM0 11.5C0 10.6716 0.671573 10 1.5 10H2.5C3.32843 10 4 10.6716 4 11.5V12.5C4 13.3284 3.32843 14 2.5 14H1.5C0.671573 14 0 13.3284 0 12.5V11.5ZM1.5 11C1.22386 11 1 11.2239 1 11.5V12.5C1 12.7761 1.22386 13 1.5 13H2.5C2.77614 13 3 12.7761 3 12.5V11.5C3 11.2239 2.77614 11 2.5 11H1.5ZM6 11.5C6 10.6716 6.67157 10 7.5 10H8.5C9.32843 10 10 10.6716 10 11.5V12.5C10 13.3284 9.32843 14 8.5 14H7.5C6.67157 14 6 13.3284 6 12.5V11.5ZM7.5 11C7.22386 11 7 11.2239 7 11.5V12.5C7 12.7761 7.22386 13 7.5 13H8.5C8.77614 13 9 12.7761 9 12.5V11.5C9 11.2239 8.77614 11 8.5 11H7.5ZM12 11.5C12 10.6716 12.6716 10 13.5 10H14.5C15.3284 10 16 10.6716 16 11.5V12.5C16 13.3284 15.3284 14 14.5 14H13.5C12.6716 14 12 13.3284 12 12.5V11.5ZM13.5 11C13.2239 11 13 11.2239 13 11.5V12.5C13 12.7761 13.2239 13 13.5 13H14.5C14.7761 13 15 12.7761 15 12.5V11.5C15 11.2239 14.7761 11 14.5 11H13.5Z" fill="black"/>
</svg>
