<svg width="16" height="16" viewBox="0 0 16 16" fill="none" xmlns="http://www.w3.org/2000/svg">
<path d="M9.04941 0.434678C8.46983 -0.144894 7.53016 -0.144892 6.95059 0.434679L0.434678 6.95059C-0.144896 7.53017 -0.144894 8.46984 0.434679 9.04941L6.95059 15.5653C7.53017 16.1449 8.46984 16.1449 9.04941 15.5653L15.5653 9.04941C16.1449 8.46983 16.1449 7.53016 15.5653 6.95059L9.04941 0.434678ZM8 0.98939C8.1266 0.989391 8.25321 1.03769 8.3498 1.13428L14.8657 7.6502C15.0589 7.84339 15.0589 8.15661 14.8657 8.3498L8.3498 14.8657C8.25321 14.9623 8.1266 15.0106 8 15.0106V0.98939Z" fill="black"/>
</svg>
