<svg width="16" height="16" viewBox="0 0 16 16" fill="none" xmlns="http://www.w3.org/2000/svg">
<path d="M3 0C1.34315 0 0 1.34315 0 3V13C0 14.6569 1.34315 16 3 16H13C14.6569 16 16 14.6569 16 13V3C16 1.34315 14.6569 0 13 0H3ZM5.5 4C5.5 4.82843 4.82843 5.5 4 5.5C3.17157 5.5 2.5 4.82843 2.5 4C2.5 3.17157 3.17157 2.5 4 2.5C4.82843 2.5 5.5 3.17157 5.5 4ZM13.5 12C13.5 12.8284 12.8284 13.5 12 13.5C11.1716 13.5 10.5 12.8284 10.5 12C10.5 11.1716 11.1716 10.5 12 10.5C12.8284 10.5 13.5 11.1716 13.5 12ZM8 9.5C7.17157 9.5 6.5 8.82843 6.5 8C6.5 7.17157 7.17157 6.5 8 6.5C8.82843 6.5 9.5 7.17157 9.5 8C9.5 8.82843 8.82843 9.5 8 9.5Z" fill="black"/>
</svg>
