<svg width="16" height="16" viewBox="0 0 16 16" fill="none" xmlns="http://www.w3.org/2000/svg">
<path d="M16 8C16 12.4183 12.4183 16 8 16C3.58172 16 0 12.4183 0 8C0 3.58172 3.58172 0 8 0C12.4183 0 16 3.58172 16 8ZM10 8C10 6.89543 9.10457 6 8 6C6.89543 6 6 6.89543 6 8C6 9.10457 6.89543 10 8 10C9.10457 10 10 9.10457 10 8ZM3.99994 8C3.99994 5.79086 5.7908 4 7.99994 4C8.27608 4 8.49994 3.77614 8.49994 3.5C8.49994 3.22386 8.27608 3 7.99994 3C5.23851 3 2.99994 5.23858 2.99994 8C2.99994 8.27614 3.2238 8.5 3.49994 8.5C3.77608 8.5 3.99994 8.27614 3.99994 8ZM12.9999 8C12.9999 7.72386 12.7761 7.5 12.4999 7.5C12.2238 7.5 11.9999 7.72386 11.9999 8C11.9999 10.2091 10.2091 12 7.99994 12C7.7238 12 7.49994 12.2239 7.49994 12.5C7.49994 12.7761 7.7238 13 7.99994 13C10.7614 13 12.9999 10.7614 12.9999 8Z" fill="black"/>
</svg>
