<svg width="16" height="16" viewBox="0 0 16 16" fill="none" xmlns="http://www.w3.org/2000/svg">
<path d="M8 15C4.13401 15 1 11.866 1 8C1 4.13401 4.13401 1 8 1C11.866 1 15 4.13401 15 8C15 11.866 11.866 15 8 15ZM8 16C12.4183 16 16 12.4183 16 8C16 3.58172 12.4183 0 8 0C3.58172 0 0 3.58172 0 8C0 12.4183 3.58172 16 8 16Z" fill="black"/>
<path d="M10 8C10 9.10457 9.10457 10 8 10C6.89543 10 6 9.10457 6 8C6 6.89543 6.89543 6 8 6C9.10457 6 10 6.89543 10 8Z" fill="black"/>
<path d="M7.99994 4C5.7908 4 3.99994 5.79086 3.99994 8C3.99994 8.27614 3.77608 8.5 3.49994 8.5C3.2238 8.5 2.99994 8.27614 2.99994 8C2.99994 5.23858 5.23851 3 7.99994 3C8.27608 3 8.49994 3.22386 8.49994 3.5C8.49994 3.77614 8.27608 4 7.99994 4ZM12.4999 7.5C12.7761 7.5 12.9999 7.72386 12.9999 8C12.9999 10.7614 10.7614 13 7.99994 13C7.7238 13 7.49994 12.7761 7.49994 12.5C7.49994 12.2239 7.7238 12 7.99994 12C10.2091 12 11.9999 10.2091 11.9999 8C11.9999 7.72386 12.2238 7.5 12.4999 7.5Z" fill="black"/>
</svg>
