<svg width="16" height="16" viewBox="0 0 16 16" fill="none" xmlns="http://www.w3.org/2000/svg">
<path d="M0 4C0 4 0 2 2 2H14C14 2 16 2 16 4V10C16 10 16 12 14 12H10C10 12.6667 10.0833 13.1667 10.25 13.5H11C11.2761 13.5 11.5 13.7239 11.5 14C11.5 14.2761 11.2761 14.5 11 14.5H5C4.72386 14.5 4.5 14.2761 4.5 14C4.5 13.7239 4.72386 13.5 5 13.5H5.75C5.91667 13.1667 6 12.6667 6 12H2C2 12 0 12 0 10V4ZM1.39845 3.14455C1.29294 3.21489 1.21011 3.31584 1.14443 3.44721C1.07678 3.5825 1.03798 3.72989 1.01764 3.8519C1.00787 3.91053 1.00337 3.95721 1.00136 3.98531C1.00053 3.99696 1.00016 4.00504 1 4.00902V10C1 10.325 1.07838 10.5023 1.14455 10.6016C1.21489 10.7071 1.31584 10.7899 1.44721 10.8556C1.5825 10.9232 1.72989 10.962 1.8519 10.9824C1.91053 10.9921 1.95721 10.9966 1.98531 10.9986C1.99697 10.9995 2.00504 10.9998 2.00903 11H14C14.325 11 14.5023 10.9216 14.6016 10.8554C14.7071 10.7851 14.7899 10.6842 14.8556 10.5528C14.9232 10.4175 14.962 10.2701 14.9824 10.1481C14.9921 10.0895 14.9966 10.0428 14.9986 10.0147C14.9995 10.003 14.9998 9.99496 15 9.99097V4C15 3.67498 14.9216 3.4977 14.8554 3.39845C14.7851 3.29294 14.6842 3.21011 14.5528 3.14443C14.4175 3.07678 14.2701 3.03798 14.1481 3.01764C14.0895 3.00787 14.0428 3.00337 14.0147 3.00136C14.003 3.00053 13.995 3.00016 13.991 3H2C1.67498 3 1.4977 3.07838 1.39845 3.14455Z" fill="black"/>
</svg>
