<svg width="16" height="16" viewBox="0 0 16 16" fill="none" xmlns="http://www.w3.org/2000/svg">
<path d="M1 5C0.447715 5 0 5.44772 0 6V9.19098C0 9.56975 0.214002 9.91602 0.552786 10.0854L2.17082 10.8944C2.30968 10.9639 2.46279 11 2.61803 11H15C15.5523 11 16 10.5523 16 10V6C16 5.44771 15.5523 5 15 5H1ZM2.5 7H13.5C13.7761 7 14 7.22386 14 7.5V8.5C14 8.77614 13.7761 9 13.5 9C13.2239 9 13 8.77614 13 8.5V8H3V8.5C3 8.77614 2.77614 9 2.5 9C2.22386 9 2 8.77614 2 8.5V7.5C2 7.22386 2.22386 7 2.5 7Z" fill="black"/>
</svg>
