<svg width="16" height="16" viewBox="0 0 16 16" fill="none" xmlns="http://www.w3.org/2000/svg">
<path d="M2.5 7C2.22386 7 2 7.22386 2 7.5V8.5C2 8.77614 2.22386 9 2.5 9C2.77614 9 3 8.77614 3 8.5V8H13V8.5C13 8.77614 13.2239 9 13.5 9C13.7761 9 14 8.77614 14 8.5V7.5C14 7.22386 13.7761 7 13.5 7H2.5Z" fill="black"/>
<path d="M1 5C0.447715 5 0 5.44772 0 6V9.19098C0 9.56976 0.214002 9.91602 0.552786 10.0854L2.17082 10.8944C2.30968 10.9639 2.46279 11 2.61803 11H15C15.5523 11 16 10.5523 16 10V6C16 5.44771 15.5523 5 15 5H1ZM1 6H15V10H2.61803L1 9.19098V6Z" fill="black"/>
</svg>
