<svg width="16" height="16" viewBox="0 0 16 16" fill="none" xmlns="http://www.w3.org/2000/svg">
<path fill-rule="evenodd" clip-rule="evenodd" d="M1 1.5C1 1.77614 1.22386 2 1.5 2H14.5C14.7761 2 15 1.77614 15 1.5C15 1.22386 14.7761 1 14.5 1H1.5C1.22386 1 1 1.22386 1 1.5Z" fill="black"/>
<path fill-rule="evenodd" clip-rule="evenodd" d="M1 14.5C1 14.7761 1.22386 15 1.5 15H14.5C14.7761 15 15 14.7761 15 14.5C15 14.2239 14.7761 14 14.5 14H1.5C1.22386 14 1 14.2239 1 14.5Z" fill="black"/>
<path d="M2 7C2 6.44772 2.44772 6 3 6H13C13.5523 6 14 6.44772 14 7V9C14 9.55228 13.5523 10 13 10H3C2.44772 10 2 9.55228 2 9V7Z" fill="black"/>
</svg>
