<svg width="16" height="16" viewBox="0 0 16 16" fill="none" xmlns="http://www.w3.org/2000/svg">
<path d="M1.5 15C1.22386 15 1 15.2239 1 15.5C1 15.7761 1.22386 16 1.5 16H14.5C14.7761 16 15 15.7761 15 15.5C15 15.2239 14.7761 15 14.5 15H13V2.5C13 1.67158 12.3284 1 11.5 1H11V0.500003C11 0.355058 10.9371 0.217245 10.8276 0.122276C10.7181 0.0273076 10.5728 -0.0154699 10.4293 0.00502854L3.42929 1.00503C3.18297 1.04022 3 1.25118 3 1.5V15H1.5ZM11 2H11.5C11.7761 2 12 2.22386 12 2.5V15H11V2ZM8.5 10C8.22386 10 8 9.55229 8 9C8 8.44771 8.22386 8 8.5 8C8.77614 8 9 8.44771 9 9C9 9.55229 8.77614 10 8.5 10Z" fill="black"/>
</svg>
