<svg width="16" height="16" viewBox="0 0 16 16" fill="none" xmlns="http://www.w3.org/2000/svg">
<path d="M8.5 10C8.22386 10 8 9.55229 8 9C8 8.44772 8.22386 8 8.5 8C8.77614 8 9 8.44772 9 9C9 9.55229 8.77614 10 8.5 10Z" fill="black"/>
<path d="M10.8276 0.122276C10.9371 0.217245 11 0.355058 11 0.500003V1H11.5C12.3284 1 13 1.67158 13 2.5V15H14.5C14.7761 15 15 15.2239 15 15.5C15 15.7761 14.7761 16 14.5 16H1.5C1.22386 16 1 15.7761 1 15.5C1 15.2239 1.22386 15 1.5 15H3V1.5C3 1.25118 3.18297 1.04022 3.42929 1.00503L10.4293 0.00502854C10.5728 -0.0154699 10.7181 0.0273076 10.8276 0.122276ZM11.5 2H11V15H12V2.5C12 2.22386 11.7761 2 11.5 2ZM4 1.93365V15H10V1.07651L4 1.93365Z" fill="black"/>
</svg>
