<svg width="16" height="16" viewBox="0 0 16 16" fill="none" xmlns="http://www.w3.org/2000/svg">
<path d="M7.78796 2.3392L6.98902 3.6175C6.88495 3.78402 7.00466 4 7.20102 4H8.7989C8.99526 4 9.11497 3.78402 9.0109 3.6175L8.21196 2.3392C8.11404 2.18254 7.88588 2.18254 7.78796 2.3392Z" fill="black"/>
<path d="M7.78796 13.6608L6.98902 12.3825C6.88495 12.216 7.00466 12 7.20102 12H8.7989C8.99526 12 9.11497 12.216 9.0109 12.3825L8.21196 13.6608C8.11404 13.8175 7.88588 13.8175 7.78796 13.6608Z" fill="black"/>
<path d="M3.61748 9.01094L2.33918 8.212C2.18251 8.11409 2.18251 7.88592 2.33918 7.788L3.61748 6.98907C3.78399 6.885 3.99998 7.00471 3.99998 7.20107V8.79894C3.99998 8.9953 3.78399 9.11501 3.61748 9.01094Z" fill="black"/>
<path d="M13.6608 8.212L12.3825 9.01094C12.216 9.11501 12 8.9953 12 8.79894V7.20107C12 7.00471 12.216 6.885 12.3825 6.98907L13.6608 7.788C13.8174 7.88592 13.8174 8.11409 13.6608 8.212Z" fill="black"/>
<path d="M6.5 0C5.67157 0 5 0.671573 5 1.5V4.5C5 4.77614 4.77614 5 4.5 5H1.5C0.671573 5 0 5.67157 0 6.5V9.5C0 10.3284 0.671573 11 1.5 11H4.5C4.77614 11 5 11.2239 5 11.5V14.5C5 15.3284 5.67157 16 6.5 16H9.5C10.3284 16 11 15.3284 11 14.5V11.5C11 11.2239 11.2239 11 11.5 11H14.5C15.3284 11 16 10.3284 16 9.5V6.5C16 5.67157 15.3284 5 14.5 5H11.5C11.2239 5 11 4.77614 11 4.5V1.5C11 0.671573 10.3284 0 9.5 0H6.5ZM6 1.5C6 1.22386 6.22386 1 6.5 1H9.5C9.77614 1 10 1.22386 10 1.5V4.5C10 5.32843 10.6716 6 11.5 6H14.5C14.7761 6 15 6.22386 15 6.5V9.5C15 9.77614 14.7761 10 14.5 10H11.5C10.6716 10 10 10.6716 10 11.5V14.5C10 14.7761 9.77614 15 9.5 15H6.5C6.22386 15 6 14.7761 6 14.5V11.5C6 10.6716 5.32843 10 4.5 10H1.5C1.22386 10 1 9.77614 1 9.5V6.5C1 6.22386 1.22386 6 1.5 6H4.5C5.32843 6 6 5.32843 6 4.5V1.5Z" fill="black"/>
</svg>
