<svg width="16" height="16" viewBox="0 0 16 16" fill="none" xmlns="http://www.w3.org/2000/svg">
<path d="M6.5 0C5.67157 0 5 0.671573 5 1.5V4.5C5 4.77614 4.77614 5 4.5 5H1.5C0.671573 5 0 5.67157 0 6.5V9.5C0 10.3284 0.671573 11 1.5 11H4.5C4.77614 11 5 11.2239 5 11.5V14.5C5 15.3284 5.67157 16 6.5 16H9.5C10.3284 16 11 15.3284 11 14.5V11.5C11 11.2239 11.2239 11 11.5 11H14.5C15.3284 11 16 10.3284 16 9.5V6.5C16 5.67157 15.3284 5 14.5 5H11.5C11.2239 5 11 4.77614 11 4.5V1.5C11 0.671573 10.3284 0 9.5 0H6.5ZM7.78802 2.3392C7.88594 2.18253 8.1141 2.18253 8.21202 2.3392L9.01096 3.6175C9.11503 3.78401 8.99532 4 8.79896 4H7.20108C7.00472 4 6.88501 3.78401 6.98908 3.6175L7.78802 2.3392ZM7.78802 13.6608L6.98908 12.3825C6.88501 12.216 7.00472 12 7.20108 12H8.79896C8.99532 12 9.11503 12.216 9.01096 12.3825L8.21202 13.6608C8.1141 13.8175 7.88594 13.8175 7.78802 13.6608ZM3.61754 9.01094L2.33924 8.212C2.18257 8.11408 2.18257 7.88592 2.33924 7.788L3.61754 6.98906C3.78405 6.88499 4.00004 7.0047 4.00004 7.20106V8.79894C4.00004 8.9953 3.78405 9.11501 3.61754 9.01094ZM13.6608 8.212L12.3825 9.01094C12.216 9.11501 12 8.9953 12 8.79894V7.20106C12 7.0047 12.216 6.88499 12.3825 6.98906L13.6608 7.788C13.8175 7.88592 13.8175 8.11408 13.6608 8.212Z" fill="black"/>
</svg>
