<svg width="16" height="16" viewBox="0 0 16 16" fill="none" xmlns="http://www.w3.org/2000/svg">
<path d="M8.00003 5.75C9.38807 5.75 10.6733 5.94332 11.6086 6.1352C12.0773 6.23134 12.4605 6.32764 12.7279 6.40031C12.8617 6.43666 12.9666 6.46714 13.0389 6.4888C13.0765 6.50006 13.114 6.51162 13.1514 6.52345L13.1533 6.52406L13.1543 6.5244C13.417 6.60962 13.5608 6.89163 13.4756 7.1543C13.3904 7.4169 13.1085 7.56075 12.8459 7.47566L12.8416 7.47427L12.8244 7.46884C12.8086 7.46391 12.7843 7.45642 12.752 7.44675C12.6873 7.42739 12.5907 7.39927 12.4657 7.36531C12.2156 7.29736 11.853 7.20615 11.4076 7.1148C10.515 6.93168 9.30025 6.75 8.00003 6.75C6.69981 6.75 5.48503 6.93168 4.59241 7.1148C4.1471 7.20615 3.78442 7.29736 3.53437 7.36531C3.4094 7.39927 3.31272 7.42739 3.24809 7.44675C3.21578 7.45642 3.1915 7.46391 3.17571 7.46884L3.15847 7.47427L3.15474 7.47547C2.89211 7.56059 2.60964 7.41692 2.52443 7.1543C2.44012 6.89441 2.58713 6.60808 2.84679 6.52406C4.49617 6.00201 6.27512 5.75 8.00003 5.75Z" fill="black"/>
<path d="M5.22902 2.72206C5.1034 3.18328 5.03901 3.66734 5.00743 4.09683C3.60599 4.29103 2.35638 4.62833 1.48234 5.10874C-0.644163 6.27756 0.036402 11.2045 0.393239 13.1267C0.477927 13.5828 0.879116 13.8992 1.34308 13.8992H14.6569C15.1209 13.8992 15.5221 13.5828 15.6068 13.1266C15.9636 11.2045 16.6442 6.27756 14.5177 5.10874C13.6436 4.62833 12.394 4.29102 10.9925 4.09682C10.961 3.66734 10.8966 3.18328 10.7709 2.72206C10.6095 2.12938 10.3257 1.49425 9.79998 1.09999C8.68495 0.263709 7.31502 0.263709 6.19998 1.09999C5.6743 1.49425 5.39044 2.12938 5.22902 2.72206ZM9.19998 1.89999C9.46028 2.09521 9.66585 2.46996 9.80609 2.98485C9.89374 3.30667 9.94761 3.65246 9.9794 3.98337C8.6857 3.8711 7.31426 3.8711 6.02056 3.98338C6.05235 3.65246 6.10622 3.30667 6.19387 2.98485C6.33411 2.46996 6.53968 2.09521 6.79998 1.89999C7.55946 1.33038 8.4405 1.33038 9.19998 1.89999ZM8 4.89917C10.4747 4.89917 12.7935 5.30215 14.036 5.98509C14.274 6.1159 14.5081 6.39135 14.6912 6.91463C14.874 7.43701 14.9701 8.10985 14.994 8.86675C15.0409 10.3535 14.8053 11.9551 14.6319 12.8992H1.36814C1.19475 11.9551 0.959118 10.3535 1.00604 8.86675C1.02993 8.10985 1.12595 7.43701 1.30875 6.91463C1.49186 6.39135 1.72604 6.1159 1.96402 5.98509C3.20653 5.30215 5.52528 4.89917 8 4.89917Z" fill="black"/>
</svg>
