<svg width="16" height="16" viewBox="0 0 16 16" fill="none" xmlns="http://www.w3.org/2000/svg">
<path d="M5.00742 4.09683C5.01457 3.9996 5.02338 3.89991 5.03413 3.79864C5.08343 3.33464 5.17543 2.8203 5.34661 2.34953C5.51599 1.88368 5.77919 1.41557 6.19997 1.09999C7.315 0.263709 8.68493 0.263709 9.79997 1.09999C10.2207 1.41557 10.4839 1.88368 10.6533 2.34953C10.8245 2.8203 10.9165 3.33464 10.9658 3.79864C10.9766 3.89991 10.9854 3.99959 10.9925 4.09682C12.394 4.29102 13.6436 4.62833 14.5177 5.10874C16.6442 6.27756 15.9636 11.2045 15.6068 13.1266C15.5221 13.5828 15.1209 13.8992 14.6569 13.8992H1.34309C0.879116 13.8992 0.477927 13.5828 0.393239 13.1267C0.036402 11.2045 -0.644163 6.27756 1.48234 5.10874C2.35638 4.62834 3.60599 4.29103 5.00742 4.09683ZM4.04942 5.63348C3.53601 5.72923 3.11625 5.82511 2.82361 5.89741C2.67724 5.93357 2.56254 5.96386 2.48367 5.98534C2.44423 5.99608 2.41373 6.00462 2.39271 6.01059C2.32175 6.03101 2.35855 6.02042 2.35855 6.02042C2.09369 6.09854 1.94231 6.37658 2.02042 6.64145C2.09853 6.90627 2.3765 7.05765 2.64133 6.97961L2.64643 6.97813L2.66585 6.97256C2.68352 6.96755 2.71055 6.95997 2.74642 6.95021C2.81816 6.93067 2.92522 6.90237 3.06346 6.86822C3.34002 6.79989 3.7408 6.70827 4.23276 6.61652C5.21847 6.43269 6.56136 6.25 8 6.25C9.43864 6.25 10.7815 6.43269 11.7672 6.61652C12.2592 6.70827 12.66 6.79989 12.9365 6.86822C13.0748 6.90237 13.1818 6.93067 13.2536 6.95021C13.2895 6.95997 13.3165 6.96755 13.3342 6.97256L13.3536 6.97813L13.3579 6.97938C13.6227 7.0574 13.9015 6.90626 13.9796 6.64145C14.0577 6.37658 13.9063 6.09854 13.6414 6.02042L13.6404 6.02011L13.6384 6.01953L13.6317 6.01757L13.6073 6.01059C13.5863 6.00462 13.5558 5.99608 13.5163 5.98534C13.4375 5.96386 13.3228 5.93357 13.1764 5.89741C12.8838 5.82511 12.464 5.72923 11.9506 5.63348C10.9256 5.44231 9.51845 5.25 8 5.25C6.48155 5.25 5.07444 5.44231 4.04942 5.63348ZM6.79993 1.89999C6.59587 2.05303 6.42165 2.31923 6.28638 2.69125C6.1529 3.05835 6.073 3.48543 6.02851 3.90428C6.02569 3.93075 6.02303 3.95713 6.02051 3.98338C6.3849 3.95175 7.02156 3.92071 7.39481 3.9069C8.26066 3.88474 9.13651 3.91023 9.97936 3.98337C9.97684 3.95712 9.97417 3.93075 9.97136 3.90428C9.92686 3.48543 9.84697 3.05835 9.71349 2.69125C9.57822 2.31923 9.404 2.05303 9.19993 1.89999C8.44045 1.33038 7.55941 1.33038 6.79993 1.89999Z" fill="black"/>
</svg>
