<svg width="16" height="16" viewBox="0 0 16 16" fill="none" xmlns="http://www.w3.org/2000/svg">
<path d="M8.5 1C6.01472 1 4 3.01472 4 5.5V12.5467C4 13.9016 5.0984 15 6.45334 15C7.476 15 8.39139 14.3656 8.75047 13.4081L9.26158 12.0451C9.45844 11.5202 9.73366 11.028 10.0779 10.5855L12.0859 8.00373C12.6783 7.242 13 6.30453 13 5.33952C13 2.94287 11.0571 1 8.66048 1H8.5ZM3 5.5C3 2.46243 5.46243 0 8.5 0H8.66048C11.6094 0 14 2.39059 14 5.33952C14 6.5269 13.6042 7.68041 12.8752 8.61767L10.8672 11.1994C10.585 11.5623 10.3593 11.9658 10.1979 12.3962L9.6868 13.7592C9.18135 15.1071 7.89284 16 6.45334 16C4.54611 16 3 14.4539 3 12.5467V5.5ZM8.5 4C7.67157 4 7 4.67157 7 5.5V8.1948C7.11205 8.13534 7.22263 8.07249 7.33156 8.00317C7.65939 7.79455 7.90945 7.56306 8.05279 7.27639C8.17628 7.0294 8.47662 6.92929 8.72361 7.05279C8.9706 7.17628 9.07071 7.47662 8.94721 7.72361C8.69055 8.23694 8.27394 8.58878 7.86844 8.84683C7.5809 9.02981 7.2665 9.184 7 9.31268V11.5C7 11.7761 6.77614 12 6.5 12C6.22386 12 6 11.7761 6 11.5V5.5C6 4.11929 7.11929 3 8.5 3C9.88071 3 11 4.11929 11 5.5V6C11 6.27614 10.7761 6.5 10.5 6.5C10.2239 6.5 10 6.27614 10 6V5.5C10 4.67157 9.32843 4 8.5 4Z" fill="black"/>
</svg>
