<svg width="16" height="16" viewBox="0 0 16 16" fill="none" xmlns="http://www.w3.org/2000/svg">
<path fill-rule="evenodd" clip-rule="evenodd" d="M6.8247 4.13783C7.42067 6.27906 6.46572 7.7313 4.43642 8.25477C3.74213 8.43387 3.04858 8.44247 2.41787 8.3092C2.37002 8.29909 3.31769 11.0866 3.94034 12.9181C4.10962 13.416 4.25487 13.8432 4.34957 14.1244C4.44168 14.3979 4.28752 14.6917 4.00418 14.7826L3.41079 14.973C3.12244 15.0655 2.81132 14.9124 2.7204 14.6332L0.184865 6.98962C-0.510785 4.8534 0.847099 2.68127 2.74863 2.19078C4.77793 1.66731 6.15133 2.1908 6.8247 4.13783ZM5.95737 6.35905C6.38773 6.24706 6.51847 5.36561 6.24937 4.39028C5.98027 3.41495 5.41323 2.71507 4.98287 2.82706C4.5525 2.93905 4.42177 3.8205 4.69087 4.79583C4.95997 5.77116 5.527 6.47104 5.95737 6.35905Z" fill="black"/>
<path fill-rule="evenodd" clip-rule="evenodd" d="M9.1753 4.13783C8.57933 6.27906 9.53428 7.7313 11.5636 8.25477C12.2579 8.43387 12.9514 8.44247 13.5821 8.3092C13.63 8.29909 12.6823 11.0866 12.0597 12.9181C11.8904 13.416 11.7451 13.8432 11.6504 14.1244C11.5583 14.3979 11.7125 14.6917 11.9958 14.7826L12.5892 14.973C12.8776 15.0655 13.1887 14.9124 13.2796 14.6332L15.8151 6.98962C16.5108 4.8534 15.1529 2.68127 13.2514 2.19078C11.2221 1.66731 9.84867 2.1908 9.1753 4.13783ZM10.0426 6.35905C9.61227 6.24706 9.48153 5.36561 9.75063 4.39028C10.0197 3.41495 10.5868 2.71507 11.0171 2.82706C11.4475 2.93905 11.5782 3.8205 11.3091 4.79583C11.04 5.77116 10.473 6.47104 10.0426 6.35905Z" fill="black"/>
</svg>
