<svg width="16" height="16" viewBox="0 0 16 16" fill="none" xmlns="http://www.w3.org/2000/svg">
<path fill-rule="evenodd" clip-rule="evenodd" d="M8.5 13.1338V12H13.5C14.3284 12 15 11.3284 15 10.5V2H15.5C15.7761 2 16 1.77614 16 1.5C16 1.22386 15.7761 1 15.5 1H0.5C0.223858 1 0 1.22386 0 1.5C0 1.77614 0.223858 2 0.5 2H1V10.5C1 11.3284 1.67157 12 2.5 12H7.5V13.1338C7.2011 13.3067 7 13.6299 7 14C7 14.5523 7.44772 15 8 15C8.55229 15 9 14.5523 9 14C9 13.6299 8.7989 13.3067 8.5 13.1338ZM2 2V10.5C2 10.7761 2.22386 11 2.5 11H13.5C13.7761 11 14 10.7761 14 10.5V2H2Z" fill="black"/>
</svg>
