<svg width="16" height="16" viewBox="0 0 16 16" fill="none" xmlns="http://www.w3.org/2000/svg">
<path fill-rule="evenodd" clip-rule="evenodd" d="M8 0C8.18939 0 8.36252 0.107001 8.44721 0.276393L8.80902 1H13.5C14.3284 1 15 1.67157 15 2.5V11H15.5C15.7761 11 16 11.2239 16 11.5C16 11.7761 15.7761 12 15.5 12H12.6404L13.4851 15.3787C13.552 15.6466 13.3892 15.9181 13.1213 15.9851C12.8534 16.052 12.5819 15.8892 12.5149 15.6213L12.1096 14H3.89039L3.48507 15.6213C3.4181 15.8892 3.14663 16.052 2.87873 15.9851C2.61083 15.9181 2.44795 15.6466 2.51493 15.3787L3.35961 12H0.5C0.223858 12 0 11.7761 0 11.5C0 11.2239 0.223858 11 0.5 11H1V2.5C1 1.67157 1.67157 1 2.5 1H7.19098L7.55279 0.276393C7.63748 0.107001 7.81061 0 8 0ZM2 11H14V2.5C14 2.22386 13.7761 2 13.5 2H2.5C2.22386 2 2 2.22386 2 2.5V11ZM11.6096 12H4.39039L4.14039 13H11.8596L11.6096 12Z" fill="black"/>
</svg>
