<svg width="16" height="16" viewBox="0 0 16 16" fill="none" xmlns="http://www.w3.org/2000/svg">
<path d="M8.44721 0.276393C8.36252 0.107001 8.18939 0 8 0C7.81061 0 7.63748 0.107001 7.55279 0.276393L7.19098 1H2.5C1.67157 1 1 1.67157 1 2.5V10H15V2.5C15 1.67157 14.3284 1 13.5 1H8.80902L8.44721 0.276393Z" fill="black"/>
<path fill-rule="evenodd" clip-rule="evenodd" d="M0.5 11C0.223858 11 0 11.2239 0 11.5C0 11.7761 0.223858 12 0.5 12H3.35961L2.51493 15.3787C2.44795 15.6466 2.61083 15.9181 2.87873 15.9851C3.14663 16.052 3.4181 15.8892 3.48507 15.6213L3.89039 14H12.1096L12.5149 15.6213C12.5819 15.8892 12.8534 16.052 13.1213 15.9851C13.3892 15.9181 13.552 15.6466 13.4851 15.3787L12.6404 12H15.5C15.7761 12 16 11.7761 16 11.5C16 11.2239 15.7761 11 15.5 11H0.5ZM4.14039 13L4.39039 12H11.6096L11.8596 13H4.14039Z" fill="black"/>
</svg>
