<svg width="16" height="16" viewBox="0 0 16 16" fill="none" xmlns="http://www.w3.org/2000/svg">
<path d="M8.4727 0.337005C8.40316 0.135338 8.21333 0 8.00001 0C7.78669 0 7.59687 0.135338 7.52733 0.337005L6.95388 2H2C1.44772 2 1 2.44772 1 3V10C1 10.5523 1.44772 11 2 11H3.85043L2.52733 14.837C2.43731 15.0981 2.57596 15.3827 2.83702 15.4727C3.09808 15.5627 3.38268 15.4241 3.4727 15.163L4.90822 11H7.50001V13.5C7.50001 13.7761 7.72387 14 8.00001 14C8.27616 14 8.50001 13.7761 8.50001 13.5V11H11.0918L12.5273 15.163C12.6173 15.4241 12.902 15.5627 13.163 15.4727C13.4241 15.3827 13.5627 15.0981 13.4727 14.837L12.1496 11H14C14.5523 11 15 10.5523 15 10V3C15 2.44772 14.5523 2 14 2H9.04615L8.4727 0.337005Z" fill="black"/>
</svg>
