<svg width="16" height="16" viewBox="0 0 16 16" fill="none" xmlns="http://www.w3.org/2000/svg">
<path d="M8.00001 0C8.21333 0 8.40316 0.135338 8.4727 0.337005L9.04615 2H14C14.5523 2 15 2.44772 15 3V10C15 10.5523 14.5523 11 14 11H12.1496L13.4727 14.837C13.5627 15.0981 13.4241 15.3827 13.163 15.4727C12.902 15.5627 12.6173 15.4241 12.5273 15.163L11.0918 11H8.50001V14C8.50001 14.2761 8.27616 14.5 8.00001 14.5C7.72387 14.5 7.50001 14.2761 7.50001 14V11H4.90822L3.4727 15.163C3.38268 15.4241 3.09808 15.5627 2.83702 15.4727C2.57596 15.3827 2.43731 15.0981 2.52733 14.837L3.85043 11H2C1.44772 11 1 10.5523 1 10V3C1 2.44772 1.44772 2 2 2H6.95388L7.52733 0.337005C7.59687 0.135338 7.78669 0 8.00001 0ZM2 3V10H14V3H2Z" fill="black"/>
</svg>
