<svg width="16" height="16" viewBox="0 0 16 16" fill="none" xmlns="http://www.w3.org/2000/svg">
<path d="M8 11C9.65685 11 11 9.65685 11 8C11 6.34315 9.65685 5 8 5C6.34315 5 5 6.34315 5 8C5 9.65685 6.34315 11 8 11Z" fill="black"/>
<path d="M13.9972 5.16971C13.9991 5.11337 14 5.0568 14 5C14 2.23858 11.7614 0 9 0C7.82714 0 6.7486 0.403829 5.89584 1.08003C5.60519 1.02745 5.3058 1 5 1C2.23858 1 0 3.23858 0 6C0 7.28498 0.484729 8.45674 1.28131 9.34241C1.0991 9.86114 1 10.419 1 11C1 13.7614 3.23858 16 6 16C7.42305 16 8.70725 15.4055 9.61779 14.4513C10.1613 14.7987 10.8071 15 11.5 15C13.433 15 15 13.433 15 11.5C15 11.1105 14.9364 10.7358 14.8189 10.3859C15.5368 9.83774 16 8.97296 16 8C16 6.69272 15.1638 5.58075 13.9972 5.16971ZM12.9977 5.13638C12.9832 5.57259 13.2532 5.96785 13.6649 6.11288C14.444 6.38738 15 7.13004 15 8C15 8.64804 14.6929 9.22396 14.2121 9.59107C13.8719 9.8508 13.7347 10.2982 13.8709 10.704C13.9544 10.9527 14 11.22 14 11.5C14 12.8807 12.8807 14 11.5 14C11.0036 14 10.5438 13.8563 10.1563 13.6087C9.75335 13.3512 9.22448 13.415 8.89434 13.761C8.16465 14.5256 7.13856 15 6 15C3.79086 15 2 13.2091 2 11C2 10.5334 2.07947 10.0875 2.22479 9.67383C2.34594 9.32896 2.26926 8.94547 2.02482 8.67369C1.38694 7.96447 1 7.02861 1 6C1 3.79086 2.79086 2 5 2C5.24583 2 5.48566 2.02206 5.71784 2.06406C6.00071 2.11523 6.29192 2.04219 6.51716 1.86358C7.19951 1.32251 8.06071 1 9 1C11.2091 1 13 2.79086 13 5C13 5.04568 12.9992 5.09114 12.9977 5.13638Z" fill="black"/>
</svg>
