<svg width="16" height="16" viewBox="0 0 16 16" fill="none" xmlns="http://www.w3.org/2000/svg">
<path d="M8 15C5.23858 15 3 12.7614 3 10C3 8.04417 3.69012 5.71401 4.74237 3.88002C5.26595 2.96747 5.8543 2.22189 6.4463 1.71631C7.04408 1.20579 7.57164 1 8 1C8.42836 1 8.95592 1.20579 9.5537 1.71631C10.1457 2.22189 10.7341 2.96747 11.2576 3.88002C12.3099 5.71401 13 8.04417 13 10C13 12.7614 10.7614 15 8 15ZM8 16C11.3137 16 14 13.3137 14 10C14 5.68629 11 0 8 0C5 0 2 5.68629 2 10C2 13.3137 4.68629 16 8 16Z" fill="black"/>
</svg>
