<svg width="16" height="16" viewBox="0 0 16 16" fill="none" xmlns="http://www.w3.org/2000/svg">
<path d="M7.27046 1.04714C7.66553 0.625727 8.33446 0.625725 8.72954 1.04714L15.0754 7.81608C15.6742 8.45475 15.2213 9.50002 14.3459 9.50002H1.65412C0.778676 9.50002 0.32583 8.45475 0.924579 7.81608L7.27046 1.04714ZM14.3459 8.50002L8 1.73108L1.65412 8.50002L14.3459 8.50002Z" fill="black"/>
<path d="M0.5 11.5C0.5 10.9477 0.947715 10.5 1.5 10.5H14.5C15.0523 10.5 15.5 10.9477 15.5 11.5V12.5C15.5 13.0523 15.0523 13.5 14.5 13.5H1.5C0.947715 13.5 0.5 13.0523 0.5 12.5V11.5ZM14.5 11.5H1.5V12.5H14.5V11.5Z" fill="black"/>
</svg>
