<svg width="16" height="16" viewBox="0 0 16 16" fill="none" xmlns="http://www.w3.org/2000/svg">
<path fill-rule="evenodd" clip-rule="evenodd" d="M12.493 13.368C11.2772 14.3867 9.71023 15 8 15C4.13401 15 1 11.866 1 8C1 4.13401 4.13401 1 8 1C11.866 1 15 4.13401 15 8C15 8.17153 14.9938 8.34163 14.9817 8.51007C15.3262 8.54326 15.6617 8.65747 15.9566 8.83797C15.9853 8.56256 16 8.283 16 8C16 3.58172 12.4183 0 8 0C3.58172 0 0 3.58172 0 8C0 12.4183 3.58172 16 8 16C10.0343 16 11.8913 15.2407 13.303 13.9899C13.0034 13.7849 12.7335 13.5775 12.493 13.368ZM8.76166 10.1472C8.4151 10.227 8.02539 10.3448 7.65543 10.4658C7.39297 10.5517 7.11062 10.4085 7.02477 10.146C6.93893 9.88359 7.08211 9.60123 7.34457 9.51539C7.72461 9.39108 8.1474 9.26245 8.53735 9.1727C8.90773 9.08745 9.31777 9.01978 9.64044 9.06499C9.8 9.08735 10.0344 9.14987 10.2011 9.35058C10.3891 9.5769 10.388 9.84753 10.332 10.0556C10.2786 10.2538 10.164 10.4532 10.0222 10.6491C9.94505 10.7558 9.85351 10.8699 9.74729 10.9921C9.85398 11.1157 9.94585 11.2312 10.0232 11.3389C10.1648 11.536 10.279 11.7359 10.3321 11.934C10.3878 12.1415 10.3895 12.4128 10.2006 12.6395C10.033 12.8407 9.79734 12.9021 9.63788 12.9236C9.31526 12.9671 8.90528 12.8973 8.53551 12.8107C8.14608 12.7196 7.72366 12.5898 7.34457 12.4658C7.08211 12.38 6.93893 12.0976 7.02477 11.8352C7.11062 11.5727 7.39297 11.4295 7.65543 11.5154C8.02634 11.6367 8.41642 11.7558 8.7635 11.8371C8.93969 11.8783 9.08907 11.9058 9.21041 11.9214C9.10183 11.7704 8.93932 11.5778 8.70797 11.3371C8.52129 11.1429 8.52201 10.8357 8.7096 10.6424C8.94038 10.4046 9.10248 10.2141 9.21081 10.0646C9.08907 10.0795 8.93892 10.1064 8.76166 10.1472ZM9.52752 10.0606L9.52525 10.06L9.52216 10.059C9.52596 10.0599 9.52764 10.0605 9.52752 10.0606ZM9.52989 11.9275C9.53 11.9276 9.52829 11.9282 9.52441 11.9291C9.52783 11.9279 9.52977 11.9275 9.52989 11.9275ZM6 8C6.55228 8 7 7.32843 7 6.5C7 5.67157 6.55228 5 6 5C5.44772 5 5 5.67157 5 6.5C5 7.32843 5.44772 8 6 8ZM8.75689 7.43681C8.99819 7.57109 9.30265 7.48434 9.43693 7.24305C9.60517 6.94074 9.91123 6.74991 10.25 6.74991C10.5888 6.74991 10.8949 6.94074 11.0631 7.24305C11.1974 7.48434 11.5019 7.57109 11.7432 7.43681C11.9845 7.30253 12.0712 6.99806 11.9369 6.75677C11.6061 6.16238 10.9795 5.74991 10.25 5.74991C9.52056 5.74991 8.89391 6.16238 8.56313 6.75677C8.42885 6.99806 8.5156 7.30253 8.75689 7.43681ZM14 9.8285C15.1096 8.688 17.8836 10.6839 14 13.25C10.1164 10.6839 12.8904 8.688 14 9.8285Z" fill="black"/>
</svg>
