<svg width="16" height="16" viewBox="0 0 16 16" fill="none" xmlns="http://www.w3.org/2000/svg">
<path d="M8 15C4.13401 15 1 11.866 1 8C1 4.13401 4.13401 1 8 1C11.866 1 15 4.13401 15 8C15 11.866 11.866 15 8 15ZM8 16C12.4183 16 16 12.4183 16 8C16 3.58172 12.4183 0 8 0C3.58172 0 0 3.58172 0 8C0 12.4183 3.58172 16 8 16Z" fill="black"/>
<path d="M4 10.5C4 10.2239 4.22386 10 4.5 10H11.5C11.7761 10 12 10.2239 12 10.5C12 10.7761 11.7761 11 11.5 11H4.5C4.22386 11 4 10.7761 4 10.5Z" fill="black"/>
<path d="M4 6.5C4 6.22386 4.22386 6 4.5 6H6.5C6.77614 6 7 6.22386 7 6.5C7 6.77614 6.77614 7 6.5 7H4.5C4.22386 7 4 6.77614 4 6.5ZM9 6.5C9 6.22386 9.22386 6 9.5 6H11.5C11.7761 6 12 6.22386 12 6.5C12 6.77614 11.7761 7 11.5 7H9.5C9.22386 7 9 6.77614 9 6.5Z" fill="black"/>
</svg>
