<svg width="16" height="16" viewBox="0 0 16 16" fill="none" xmlns="http://www.w3.org/2000/svg">
<path d="M8 15C4.13401 15 1 11.866 1 8C1 4.13401 4.13401 1 8 1C11.866 1 15 4.13401 15 8C15 11.866 11.866 15 8 15ZM8 16C12.4183 16 16 12.4183 16 8C16 3.58172 12.4183 0 8 0C3.58172 0 0 3.58172 0 8C0 12.4183 3.58172 16 8 16Z" fill="black"/>
<path d="M9.14645 5.14645C9.34171 4.95118 9.65829 4.95118 9.85355 5.14645L10.5 5.79289L11.1464 5.14645C11.3417 4.95118 11.6583 4.95118 11.8536 5.14645C12.0488 5.34171 12.0488 5.65829 11.8536 5.85355L11.2071 6.5L11.8536 7.14645C12.0488 7.34171 12.0488 7.65829 11.8536 7.85355C11.6583 8.04882 11.3417 8.04882 11.1464 7.85355L10.5 7.20711L9.85355 7.85355C9.65829 8.04882 9.34171 8.04882 9.14645 7.85355C8.95118 7.65829 8.95118 7.34171 9.14645 7.14645L9.79289 6.5L9.14645 5.85355C8.95118 5.65829 8.95118 5.34171 9.14645 5.14645Z" fill="black"/>
<path d="M4.14645 5.14645C4.34171 4.95118 4.65829 4.95118 4.85355 5.14645L5.5 5.79289L6.14645 5.14645C6.34171 4.95118 6.65829 4.95118 6.85355 5.14645C7.04882 5.34171 7.04882 5.65829 6.85355 5.85355L6.20711 6.5L6.85355 7.14645C7.04882 7.34171 7.04882 7.65829 6.85355 7.85355C6.65829 8.04882 6.34171 8.04882 6.14645 7.85355L5.5 7.20711L4.85355 7.85355C4.65829 8.04882 4.34171 8.04882 4.14645 7.85355C3.95118 7.65829 3.95118 7.34171 4.14645 7.14645L4.79289 6.5L4.14645 5.85355C3.95118 5.65829 3.95118 5.34171 4.14645 5.14645Z" fill="black"/>
<path d="M10 11C10 12.1046 9.10457 13 8 13C6.89543 13 6 12.1046 6 11C6 9.89543 6.89543 9 8 9C9.10457 9 10 9.89543 10 11Z" fill="black"/>
</svg>
