<svg width="16" height="16" viewBox="0 0 16 16" fill="none" xmlns="http://www.w3.org/2000/svg">
<path d="M8 16C12.4183 16 16 12.4183 16 8C16 3.58172 12.4183 0 8 0C3.58172 0 0 3.58172 0 8C0 12.4183 3.58172 16 8 16ZM6.99999 6.5C6.99999 7.32843 6.55228 8 5.99999 8C5.44771 8 4.99999 7.32843 4.99999 6.5C4.99999 5.67157 5.44771 5 5.99999 5C6.55228 5 6.99999 5.67157 6.99999 6.5ZM4.28478 9.5672C4.52382 9.42893 4.82968 9.51061 4.96795 9.74964C5.57387 10.7971 6.70515 11.5 8.00002 11.5C9.29488 11.5 10.4262 10.7971 11.0321 9.74964C11.1704 9.51061 11.4762 9.42893 11.7153 9.5672C11.9543 9.70547 12.036 10.0113 11.8977 10.2504C11.1204 11.5941 9.66628 12.5 8.00002 12.5C6.33375 12.5 4.87966 11.5941 4.10234 10.2504C3.96407 10.0113 4.04575 9.70547 4.28478 9.5672ZM9.99999 8C9.44771 8 8.99999 7.32843 8.99999 6.5C8.99999 5.67157 9.44771 5 9.99999 5C10.5523 5 11 5.67157 11 6.5C11 7.32843 10.5523 8 9.99999 8Z" fill="black"/>
</svg>
