<svg width="16" height="16" viewBox="0 0 16 16" fill="none" xmlns="http://www.w3.org/2000/svg">
<path d="M8 16C12.4183 16 16 12.4183 16 8C16 3.58172 12.4183 0 8 0C3.58172 0 0 3.58172 0 8C0 12.4183 3.58172 16 8 16ZM2.31062 5.24254C2.15284 4.61139 2.6302 4 3.28077 4H5.99999C6.55227 4 6.99999 4.44772 6.99999 5V5.11636C7.30979 5.04027 7.64944 5 7.99999 5C8.35054 5 8.69019 5.04027 8.99999 5.11636V5C8.99999 4.44772 9.4477 4 9.99999 4H12.7192C13.3698 4 13.8471 4.61139 13.6894 5.24254L13.3787 6.48507C13.1561 7.37541 12.3562 8 11.4384 8H11C9.94976 8 9.0886 7.19051 9.00641 6.16142C8.74038 6.06436 8.39296 6 7.99999 6C7.60702 6 7.2596 6.06436 6.99357 6.16143C6.91138 7.19051 6.05022 8 4.99999 8H4.56154C3.64381 8 2.84384 7.37541 2.62126 6.48507L2.31062 5.24254ZM4.96795 9.74964C5.57387 10.7971 6.70515 11.5 8.00002 11.5C9.29488 11.5 10.4262 10.7971 11.0321 9.74964C11.1704 9.51061 11.4762 9.42893 11.7153 9.5672C11.9543 9.70547 12.036 10.0113 11.8977 10.2504C11.1204 11.5941 9.66628 12.5 8.00002 12.5C6.33375 12.5 4.87966 11.5941 4.10234 10.2504C3.96407 10.0113 4.04575 9.70547 4.28478 9.5672C4.52381 9.42893 4.82968 9.51061 4.96795 9.74964Z" fill="black"/>
</svg>
