<svg width="16" height="16" viewBox="0 0 16 16" fill="none" xmlns="http://www.w3.org/2000/svg">
<path d="M8 15C4.13401 15 1 11.866 1 8C1 4.13401 4.13401 1 8 1C11.866 1 15 4.13401 15 8C15 11.866 11.866 15 8 15ZM8 16C12.4183 16 16 12.4183 16 8C16 3.58172 12.4183 0 8 0C3.58172 0 0 3.58172 0 8C0 12.4183 3.58172 16 8 16Z" fill="black"/>
<path d="M6.83096 11.4294C7.18274 11.2887 7.56616 11.1973 8 11.1973C8.91592 11.1973 9.6071 11.6047 10.2503 12.0234C10.4619 12.1612 10.6736 11.9545 10.5317 11.7457C9.96753 10.9156 8.97373 9.6973 8 9.6973C7.46987 9.6973 6.93379 10.0584 6.46434 10.5214C6.54719 10.6999 6.62583 10.8802 6.69552 11.0565C6.74093 11.1713 6.7879 11.2972 6.83096 11.4294Z" fill="black"/>
<path d="M6 11.3333C6 12.2538 5.32843 13 4.5 13C3.67157 13 3 12.2538 3 11.3333C3 10.6274 3.88235 9.04353 4.29359 8.34368C4.38745 8.18394 4.61255 8.18394 4.70641 8.34368C5.11765 9.04353 6 10.6274 6 11.3333Z" fill="black"/>
<path d="M7 6.5C7 7.32843 6.55228 8 6 8C5.44772 8 5 7.32843 5 6.5C5 5.67157 5.44772 5 6 5C6.55228 5 7 5.67157 7 6.5Z" fill="black"/>
<path d="M11 6.5C11 7.32843 10.5523 8 10 8C9.44771 8 9 7.32843 9 6.5C9 5.67157 9.44771 5 10 5C10.5523 5 11 5.67157 11 6.5Z" fill="black"/>
<path d="M9.5 3.5C9.5 3.22386 9.72386 3 10 3C11.1617 3 12.3508 3.58354 12.9472 4.77639C13.0707 5.02338 12.9706 5.32372 12.7236 5.44721C12.4766 5.57071 12.1763 5.4706 12.0528 5.22361C11.6492 4.41646 10.8383 4 10 4C9.72386 4 9.5 3.77614 9.5 3.5Z" fill="black"/>
<path d="M7 3.5C7 3.22386 6.77614 3 6.5 3C5.33834 3 4.14921 3.58354 3.55279 4.77639C3.42929 5.02338 3.5294 5.32372 3.77639 5.44721C4.02338 5.57071 4.32372 5.4706 4.44721 5.22361C4.85079 4.41646 5.66166 4 6.5 4C6.77614 4 7 3.77614 7 3.5Z" fill="black"/>
</svg>
