<svg width="16" height="16" viewBox="0 0 16 16" fill="none" xmlns="http://www.w3.org/2000/svg">
<path d="M8 15C4.13401 15 1 11.866 1 8C1 4.13401 4.13401 1 8 1C11.866 1 15 4.13401 15 8C15 11.866 11.866 15 8 15ZM8 16C12.4183 16 16 12.4183 16 8C16 3.58172 12.4183 0 8 0C3.58172 0 0 3.58172 0 8C0 12.4183 3.58172 16 8 16Z" fill="black"/>
<path d="M7 6.5C7 7.32843 6.55228 8 6 8C5.44772 8 5 7.32843 5 6.5C5 5.67157 5.44772 5 6 5C6.55228 5 7 5.67157 7 6.5Z" fill="black"/>
<path d="M11 6.5C11 7.32843 10.5523 8 10 8C9.44771 8 9 7.32843 9 6.5C9 5.67157 9.44771 5 10 5C10.5523 5 11 5.67157 11 6.5Z" fill="black"/>
<path d="M4.88446 4.02208C5.23354 3.87247 5.73077 3.77064 6.34189 3.97434C6.60386 4.06166 6.88702 3.92008 6.97434 3.65811C7.06166 3.39614 6.92008 3.11298 6.65811 3.02566C5.76923 2.72937 5.01646 2.87754 4.49054 3.10293C4.23017 3.21452 4.02538 3.34469 3.88401 3.44836C3.81305 3.50039 3.75724 3.54636 3.71751 3.58097C3.69375 3.60166 3.67074 3.62306 3.64802 3.64488L3.64719 3.64571L3.64645 3.64644C3.45119 3.8417 3.45118 4.15829 3.64644 4.35355C3.84159 4.5487 4.15791 4.54882 4.3532 4.3539L4.35234 4.35476L4.35158 4.35554L4.3532 4.3539C4.35672 4.35061 4.3639 4.3441 4.37429 4.33505C4.39511 4.31692 4.42913 4.28867 4.47537 4.25477C4.56837 4.18657 4.70733 4.09799 4.88446 4.02208Z" fill="black"/>
<path d="M11.1157 4.02205C10.7666 3.87245 10.2694 3.77062 9.65825 3.97432C9.39627 4.06164 9.11311 3.92006 9.02579 3.65808C8.93847 3.39611 9.08005 3.11295 9.34203 3.02563C10.2309 2.72935 10.9837 2.87752 11.5096 3.10291C11.77 3.21449 11.9748 3.34466 12.1161 3.44833C12.1871 3.50037 12.2429 3.54634 12.2826 3.58094C12.3064 3.60163 12.3294 3.62303 12.3521 3.64485L12.3529 3.64568L12.3537 3.64642C12.549 3.84168 12.549 4.15826 12.3537 4.35353C12.1585 4.54867 11.8422 4.54879 11.6469 4.35388L11.6478 4.35474L11.6486 4.35551L11.6469 4.35388C11.6434 4.35058 11.6362 4.34407 11.6258 4.33503C11.605 4.31689 11.571 4.28865 11.5248 4.25474C11.4318 4.18654 11.2928 4.09796 11.1157 4.02205Z" fill="black"/>
<path d="M8 10C7.002 10 6.253 10.6225 5.753 11.2463C5.37033 11.7236 5.83357 12.3052 6.44029 12.2264C7.4801 12.0912 8.5199 12.0912 9.55971 12.2264C10.1664 12.3052 10.6297 11.7236 10.247 11.2463C9.747 10.6225 8.998 10 8 10Z" fill="black"/>
</svg>
