<svg width="16" height="16" viewBox="0 0 16 16" fill="none" xmlns="http://www.w3.org/2000/svg">
<path d="M8 15C4.13401 15 1 11.866 1 8C1 4.13401 4.13401 1 8 1C11.866 1 15 4.13401 15 8C15 11.866 11.866 15 8 15ZM8 16C12.4183 16 16 12.4183 16 8C16 3.58172 12.4183 0 8 0C3.58172 0 0 3.58172 0 8C0 12.4183 3.58172 16 8 16Z" fill="black"/>
<path d="M11.3146 10.0135C11.5088 9.96749 11.7118 10.0415 11.831 10.2017C11.9501 10.3619 11.9625 10.5776 11.8625 10.7504C11.0852 12.0941 9.63114 13 7.96487 13C6.29861 13 4.84452 12.0941 4.0672 10.7504C3.96723 10.5776 3.97965 10.3619 4.09878 10.2017C4.21791 10.0415 4.4209 9.96749 4.61516 10.0135L4.62018 10.0146L4.63696 10.0186L4.70379 10.0338C4.76244 10.0471 4.84827 10.0662 4.9557 10.0892C5.17074 10.1352 5.4714 10.1966 5.81327 10.2579C6.50558 10.382 7.33522 10.5 7.96487 10.5C8.59452 10.5 9.42416 10.382 10.1165 10.2579C10.4583 10.1966 10.759 10.1352 10.974 10.0892C11.0815 10.0662 11.1673 10.0471 11.226 10.0338L11.2928 10.0186L11.3096 10.0146L11.3146 10.0135Z" fill="black"/>
<path d="M4.7557 4.56649C5.51871 3.14228 8.77516 4.44588 5.70788 8C1.21232 6.40385 3.35789 3.7017 4.7557 4.56649Z" fill="black"/>
<path d="M11.2443 4.56649C12.6421 3.7017 14.7877 6.40385 10.2921 8C7.22484 4.44588 10.4813 3.14228 11.2443 4.56649Z" fill="black"/>
</svg>
