<svg width="16" height="16" viewBox="0 0 16 16" fill="none" xmlns="http://www.w3.org/2000/svg">
<path d="M7 6.25C7 6.94036 6.55228 7.5 6 7.5C5.44772 7.5 5 6.94036 5 6.25C5 5.55964 5.44772 5 6 5C6.55228 5 7 5.55964 7 6.25Z" fill="black"/>
<path d="M10 7.5C10.5523 7.5 11 6.94036 11 6.25C11 5.55964 10.5523 5 10 5C9.44771 5 9 5.55964 9 6.25C9 6.94036 9.44771 7.5 10 7.5Z" fill="black"/>
<path d="M12.9793 10.75C12.8602 11.4594 12.2432 12 11.5 12H4.5C3.75675 12 3.13976 11.4594 3.02074 10.75C3.0071 10.6687 3 10.5852 3 10.5C3 10.4159 3.00693 10.3333 3.02024 10.253L3.02074 10.25C3.13976 9.54057 3.75675 9 4.5 9H11.5C12.2432 9 12.8602 9.54057 12.9793 10.25C12.9929 10.3313 13 10.4148 13 10.5C13 10.5841 12.9931 10.6667 12.9798 10.747L12.9793 10.75ZM4.5 11.5H4.75V10.75H3.5315C3.64252 11.1813 4.03404 11.5 4.5 11.5ZM11.5 11.5C11.966 11.5 12.3575 11.1813 12.4685 10.75H11.25V11.5H11.5ZM12.4685 10.25C12.3575 9.81869 11.966 9.5 11.5 9.5H11.25V10.25H12.4685ZM4.5 9.5C4.03404 9.5 3.64252 9.81869 3.5315 10.25H4.75V9.5H4.5ZM6.25 11.5V10.75H5.25V11.5H6.25ZM6.75 11.5H7.75V10.75H6.75V11.5ZM8.25 11.5H9.25V10.75H8.25V11.5ZM9.75 11.5H10.75V10.75H9.75V11.5ZM10.75 9.5H9.75V10.25H10.75V9.5ZM9.25 9.5H8.25V10.25H9.25V9.5ZM7.75 9.5H6.75V10.25H7.75V9.5ZM6.25 9.5H5.25V10.25H6.25V9.5Z" fill="black"/>
<path d="M8 16C12.4183 16 16 12.4183 16 8C16 3.58172 12.4183 0 8 0C3.58172 0 0 3.58172 0 8C0 12.4183 3.58172 16 8 16ZM8 15C4.13401 15 1 11.866 1 8C1 4.13401 4.13401 1 8 1C11.866 1 15 4.13401 15 8C15 11.866 11.866 15 8 15Z" fill="black"/>
</svg>
