<svg width="16" height="16" viewBox="0 0 16 16" fill="none" xmlns="http://www.w3.org/2000/svg">
<path d="M8 16C12.4183 16 16 12.4183 16 8C16 3.58172 12.4183 0 8 0C3.58172 0 0 3.58172 0 8C0 12.4183 3.58172 16 8 16ZM6.99999 6.5C6.99999 7.32843 6.55228 8 5.99999 8C5.44771 8 4.99999 7.32843 4.99999 6.5C4.99999 5.67157 5.44771 5 5.99999 5C6.55228 5 6.99999 5.67157 6.99999 6.5ZM4.28478 12.4328C4.04575 12.2945 3.96407 11.9887 4.10234 11.7496C4.87966 10.4059 6.33375 9.5 8.00002 9.5C9.66628 9.5 11.1204 10.4059 11.8977 11.7496C12.036 11.9887 11.9543 12.2945 11.7153 12.4328C11.4762 12.5711 11.1704 12.4894 11.0321 12.2504C10.4262 11.2029 9.29488 10.5 8.00002 10.5C6.70515 10.5 5.57387 11.2029 4.96795 12.2504C4.82968 12.4894 4.52382 12.5711 4.28478 12.4328ZM9.99999 8C9.44771 8 8.99999 7.32843 8.99999 6.5C8.99999 5.67157 9.44771 5 9.99999 5C10.5523 5 11 5.67157 11 6.5C11 7.32843 10.5523 8 9.99999 8Z" fill="black"/>
</svg>
