<svg width="16" height="16" viewBox="0 0 16 16" fill="none" xmlns="http://www.w3.org/2000/svg">
<path d="M8 16C12.4183 16 16 12.4183 16 8C16 3.58172 12.4183 0 8 0C3.58172 0 0 3.58172 0 8C0 12.4183 3.58172 16 8 16ZM4.05277 4.2764C4.17627 4.02941 4.47661 3.92929 4.72359 4.05279L6.72359 5.05279C6.97058 5.17628 7.0707 5.47662 6.9472 5.72361C6.93086 5.75629 6.91143 5.78639 6.88943 5.81375C6.96009 6.0194 6.99999 6.25271 6.99999 6.5C6.99999 7.32843 6.55227 8 5.99999 8C5.4477 8 4.99999 7.32843 4.99999 6.5C4.99999 6.09192 5.10863 5.7219 5.28489 5.45147L4.27638 4.94722C4.02939 4.82372 3.92928 4.52339 4.05277 4.2764ZM4.28478 12.4328C4.04575 12.2945 3.96407 11.9887 4.10234 11.7496C4.87966 10.4059 6.33375 9.5 8.00002 9.5C9.66628 9.5 11.1204 10.4059 11.8977 11.7496C12.036 11.9887 11.9543 12.2945 11.7152 12.4328C11.4762 12.5711 11.1704 12.4894 11.0321 12.2504C10.4262 11.2029 9.29488 10.5 8.00002 10.5C6.70515 10.5 5.57387 11.2029 4.96795 12.2504C4.82968 12.4894 4.52381 12.5711 4.28478 12.4328ZM9.99999 8C9.4477 8 8.99999 7.32843 8.99999 6.5C8.99999 6.25271 9.03988 6.0194 9.11054 5.81375C9.08855 5.78639 9.06911 5.75629 9.05277 5.72361C8.92928 5.47662 9.02939 5.17628 9.27638 5.05279L11.2764 4.05279C11.5234 3.92929 11.8237 4.02941 11.9472 4.2764C12.0707 4.52339 11.9706 4.82372 11.7236 4.94722L10.7151 5.45147C10.8913 5.7219 11 6.09192 11 6.5C11 7.32843 10.5523 8 9.99999 8Z" fill="black"/>
</svg>
