<svg width="16" height="16" viewBox="0 0 16 16" fill="none" xmlns="http://www.w3.org/2000/svg">
<path fill-rule="evenodd" clip-rule="evenodd" d="M16 8C16 3.58172 12.4183 0 8 0C3.58172 0 0 3.58172 0 8C0 12.4183 3.58172 16 8 16C10.0343 16 11.8913 15.2407 13.303 13.9899C12.3306 13.3246 11.6715 12.6342 11.3136 11.9281C10.9255 11.1625 10.8944 10.367 11.2375 9.69707C11.7341 8.72725 12.9684 8.23169 14 8.64854C14.6501 8.38582 15.3809 8.48553 15.9566 8.83797C15.9853 8.56256 16 8.283 16 8ZM7 6.5C7 7.32843 6.55228 8 6 8C5.44772 8 5 7.32843 5 6.5C5 5.67157 5.44772 5 6 5C6.55228 5 7 5.67157 7 6.5ZM8.51166 10.1472C8.1651 10.227 7.77539 10.3448 7.40543 10.4658C7.14297 10.5517 6.86062 10.4085 6.77477 10.146C6.68893 9.88359 6.83211 9.60123 7.09457 9.51539C7.47461 9.39108 7.8974 9.26245 8.28735 9.1727C8.65773 9.08745 9.06777 9.01978 9.39044 9.06499C9.55 9.08735 9.7844 9.14987 9.95113 9.35058C10.1391 9.5769 10.138 9.84753 10.082 10.0556C10.0286 10.2538 9.91397 10.4532 9.77224 10.6491C9.69505 10.7558 9.60351 10.8699 9.49729 10.9921C9.60398 11.1157 9.69585 11.2312 9.77325 11.3389C9.91476 11.536 10.029 11.7359 10.0821 11.934C10.1378 12.1415 10.1395 12.4128 9.95064 12.6395C9.78295 12.8407 9.54734 12.9021 9.38788 12.9236C9.06526 12.9671 8.65528 12.8973 8.28551 12.8107C7.89608 12.7196 7.47366 12.5898 7.09457 12.4658C6.83211 12.38 6.68893 12.0976 6.77477 11.8352C6.86062 11.5727 7.14297 11.4295 7.40543 11.5154C7.77634 11.6367 8.16642 11.7558 8.5135 11.8371C8.68969 11.8783 8.83907 11.9058 8.96041 11.9214C8.85183 11.7704 8.68932 11.5778 8.45797 11.3371C8.27129 11.1429 8.27201 10.8357 8.4596 10.6424C8.69038 10.4046 8.85248 10.2141 8.96081 10.0646C8.83907 10.0795 8.68892 10.1064 8.51166 10.1472ZM9.27752 10.0606C9.27741 10.0606 9.27551 10.0602 9.27216 10.059C9.27596 10.0599 9.27764 10.0605 9.27752 10.0606ZM9.27972 11.9277C9.27957 11.9277 9.27932 11.9278 9.27896 11.9279L9.27441 11.9291C9.27783 11.9279 9.27977 11.9275 9.27989 11.9275C9.27991 11.9276 9.27986 11.9276 9.27972 11.9277ZM9.43693 7.24305C9.30265 7.48434 8.99818 7.57109 8.75689 7.43681C8.5156 7.30253 8.42885 6.99806 8.56313 6.75677C8.89391 6.16238 9.52056 5.74991 10.25 5.74991C10.9795 5.74991 11.6061 6.16238 11.9369 6.75677C12.0712 6.99806 11.9845 7.30253 11.7432 7.43681C11.5019 7.57109 11.1974 7.48434 11.0631 7.24305C10.8949 6.94074 10.5888 6.74991 10.25 6.74991C9.91123 6.74991 9.60517 6.94074 9.43693 7.24305ZM14 9.8285C15.1096 8.688 17.8836 10.6839 14 13.25C10.1164 10.6839 12.8904 8.688 14 9.8285Z" fill="black"/>
</svg>
