<svg width="16" height="16" viewBox="0 0 16 16" fill="none" xmlns="http://www.w3.org/2000/svg">
<path d="M8 1C4.13401 1 1 4.13401 1 8C1 11.866 4.13401 15 8 15C11.866 15 15 11.866 15 8C15 4.13401 11.866 1 8 1ZM8 0C12.4183 0 16 3.58172 16 8C16 12.4183 12.4183 16 8 16C3.58172 16 0 12.4183 0 8C0 3.58172 3.58172 0 8 0Z" fill="black"/>
<path d="M4.28479 6.4328C4.52382 6.57107 4.82969 6.48939 4.96796 6.25036C5.57388 5.20291 6.70516 4.5 8.00003 4.5C9.29489 4.5 10.4262 5.20291 11.0321 6.25036C11.1704 6.48939 11.4762 6.57107 11.7153 6.4328C11.9543 6.29453 12.036 5.98867 11.8977 5.74964C11.1204 4.40589 9.66629 3.5 8.00003 3.5C6.33376 3.5 4.87967 4.40589 4.10235 5.74964C3.96408 5.98867 4.04576 6.29453 4.28479 6.4328Z" fill="black"/>
<path d="M7 9.5C7 8.67157 6.55228 8 6 8C5.44772 8 5 8.67157 5 9.5C5 10.3284 5.44772 11 6 11C6.55228 11 7 10.3284 7 9.5Z" fill="black"/>
<path d="M11 9.5C11 8.67157 10.5523 8 10 8C9.44771 8 9 8.67157 9 9.5C9 10.3284 9.44771 11 10 11C10.5523 11 11 10.3284 11 9.5Z" fill="black"/>
</svg>
