<svg width="16" height="16" viewBox="0 0 16 16" fill="none" xmlns="http://www.w3.org/2000/svg">
<path d="M12.9457 11.3981C11.8638 12.9697 10.0522 14 8 14C5.07592 14 2.64039 11.9083 2.10807 9.13953C1.99363 8.5443 2.53421 8.07135 3.13626 8.14151C4.40485 8.28936 6.47915 8.5 8 8.5C9.52085 8.5 11.5951 8.28936 12.8637 8.14151C13.4658 8.07135 14.0064 8.5443 13.8919 9.13953C13.8143 9.54341 13.6961 9.93288 13.5419 10.3035C13.3808 10.6906 13.1804 11.0571 12.9457 11.3981ZM12.8679 9.14772C11.5887 9.295 9.53924 9.5 8 9.5C6.46076 9.5 4.41128 9.295 3.13212 9.14772C3.24194 9.61567 3.41758 10.0583 3.64871 10.4653C3.75256 10.4778 3.86071 10.4905 3.97278 10.5032C5.06632 10.627 6.52543 10.75 8.00003 10.75C9.47464 10.75 10.9338 10.627 12.0273 10.5032C12.1394 10.4905 12.2475 10.4778 12.3513 10.4653C12.5824 10.0583 12.7581 9.61567 12.8679 9.14772ZM11.5071 11.5639C10.4879 11.6644 9.25275 11.75 8.00003 11.75C6.74727 11.75 5.51205 11.6644 4.49292 11.5639C5.39562 12.452 6.63416 13 8 13C9.36584 13 10.6044 12.452 11.5071 11.5639Z" fill="black"/>
<path d="M6.48829 7C6.60174 6.70583 6.66667 6.36429 6.66667 6C6.66667 4.89543 6.06971 4 5.33333 4C4.59695 4 4 4.89543 4 6C4 6.36429 4.06493 6.70583 4.17838 7C4.40892 6.4022 4.83981 6 5.33333 6C5.82686 6 6.25775 6.4022 6.48829 7Z" fill="black"/>
<path d="M12 6C12 6.36429 11.9351 6.70583 11.8216 7C11.5911 6.4022 11.1602 6 10.6667 6C10.1731 6 9.74225 6.4022 9.51171 7C9.39826 6.70583 9.33333 6.36429 9.33333 6C9.33333 4.89543 9.93029 4 10.6667 4C11.403 4 12 4.89543 12 6Z" fill="black"/>
<path d="M8 16C12.4183 16 16 12.4183 16 8C16 3.58172 12.4183 0 8 0C3.58172 0 0 3.58172 0 8C0 12.4183 3.58172 16 8 16ZM8 15C4.13401 15 1 11.866 1 8C1 4.13401 4.13401 1 8 1C11.866 1 15 4.13401 15 8C15 11.866 11.866 15 8 15Z" fill="black"/>
</svg>
