<svg width="16" height="16" viewBox="0 0 16 16" fill="none" xmlns="http://www.w3.org/2000/svg">
<path d="M8 0C12.4183 0 16 3.58172 16 8C16 12.4183 12.4183 16 8 16C3.58172 16 0 12.4183 0 8C0 3.58172 3.58172 0 8 0ZM6.99999 6.5C6.99999 5.67157 6.55228 5 5.99999 5C5.44771 5 4.99999 5.67157 4.99999 6.5C4.99999 7.32843 5.44771 8 5.99999 8C6.55228 8 6.99999 7.32843 6.99999 6.5ZM4.28478 9.5672C4.04575 9.70547 3.96407 10.0113 4.10234 10.2504C4.87966 11.5941 6.33375 12.5 8.00002 12.5C9.66628 12.5 11.1204 11.5941 11.8977 10.2504C12.036 10.0113 11.9543 9.70547 11.7153 9.5672C11.4762 9.42893 11.1704 9.51061 11.0321 9.74964C10.4262 10.7971 9.29488 11.5 8.00002 11.5C6.70515 11.5 5.57387 10.7971 4.96795 9.74964C4.82968 9.51061 4.52382 9.42893 4.28478 9.5672ZM9.43689 6.25686C9.30261 6.01557 8.99815 5.92882 8.75685 6.0631C8.51556 6.19738 8.42881 6.50185 8.56309 6.74314C8.89387 7.33753 9.52052 7.75 10.25 7.75C10.9795 7.75 11.6061 7.33753 11.9369 6.74314C12.0712 6.50185 11.9844 6.19738 11.7431 6.0631C11.5018 5.92882 11.1974 6.01557 11.0631 6.25686C10.8949 6.55917 10.5888 6.75 10.25 6.75C9.91119 6.75 9.60513 6.55917 9.43689 6.25686Z" fill="black"/>
</svg>
