<svg width="16" height="16" viewBox="0 0 16 16" fill="none" xmlns="http://www.w3.org/2000/svg">
<path d="M8 0C12.4183 0 16 3.58172 16 8C16 12.4183 12.4183 16 8 16C3.58172 16 0 12.4183 0 8C0 3.58172 3.58172 0 8 0ZM6.99999 9.5C6.99999 8.67157 6.55228 8 5.99999 8C5.44771 8 4.99999 8.67157 4.99999 9.5C4.99999 10.3284 5.44771 11 5.99999 11C6.55228 11 6.99999 10.3284 6.99999 9.5ZM4.28478 6.4328C4.52382 6.57107 4.82968 6.48939 4.96795 6.25036C5.57387 5.20291 6.70515 4.5 8.00002 4.5C9.29488 4.5 10.4262 5.20291 11.0321 6.25036C11.1704 6.48939 11.4762 6.57107 11.7153 6.4328C11.9543 6.29453 12.036 5.98867 11.8977 5.74964C11.1204 4.40589 9.66628 3.5 8.00002 3.5C6.33375 3.5 4.87966 4.40589 4.10234 5.74964C3.96407 5.98867 4.04575 6.29453 4.28478 6.4328ZM9.99999 8C9.44771 8 8.99999 8.67157 8.99999 9.5C8.99999 10.3284 9.44771 11 9.99999 11C10.5523 11 11 10.3284 11 9.5C11 8.67157 10.5523 8 9.99999 8Z" fill="black"/>
</svg>
