<svg width="16" height="16" viewBox="0 0 16 16" fill="none" xmlns="http://www.w3.org/2000/svg">
<path d="M16 8C16 12.4183 12.4183 16 8 16C3.58172 16 0 12.4183 0 8C0 3.58172 3.58172 0 8 0C12.4183 0 16 3.58172 16 8ZM7 6.25C7 5.55964 6.55228 5 6 5C5.44772 5 5 5.55964 5 6.25C5 6.94036 5.44772 7.5 6 7.5C6.55228 7.5 7 6.94036 7 6.25ZM10 7.5C10.5523 7.5 11 6.94036 11 6.25C11 5.55964 10.5523 5 10 5C9.44771 5 9 5.55964 9 6.25C9 6.94036 9.44771 7.5 10 7.5ZM11.5 12C12.2432 12 12.8602 11.4594 12.9793 10.75L12.9798 10.747C12.9931 10.6667 13 10.5841 13 10.5C13 10.4148 12.9929 10.3313 12.9793 10.25C12.8602 9.54057 12.2432 9 11.5 9H4.5C3.75675 9 3.13976 9.54057 3.02074 10.25L3.02024 10.253C3.00693 10.3333 3 10.4159 3 10.5C3 10.5852 3.0071 10.6687 3.02074 10.75C3.13976 11.4594 3.75675 12 4.5 12H11.5ZM3.5315 10.75C3.64252 11.1813 4.03404 11.5 4.5 11.5H4.75V10.75H3.5315ZM12.4685 10.75C12.3575 11.1813 11.966 11.5 11.5 11.5H11.25V10.75H12.4685ZM11.5 9.5C11.966 9.5 12.3575 9.81869 12.4685 10.25H11.25V9.5H11.5ZM3.5315 10.25C3.64252 9.81869 4.03404 9.5 4.5 9.5H4.75V10.25H3.5315ZM5.25 11.5H6.25V10.75H5.25V11.5ZM7.75 11.5H6.75V10.75H7.75V11.5ZM9.25 11.5H8.25V10.75H9.25V11.5ZM10.75 11.5H9.75V10.75H10.75V11.5ZM9.75 9.5H10.75V10.25H9.75V9.5ZM8.25 9.5H9.25V10.25H8.25V9.5ZM6.75 9.5H7.75V10.25H6.75V9.5ZM5.25 9.5H6.25V10.25H5.25V9.5Z" fill="black"/>
</svg>
