<svg width="16" height="16" viewBox="0 0 16 16" fill="none" xmlns="http://www.w3.org/2000/svg">
<path d="M8 16C12.4183 16 16 12.4183 16 8C16 3.58172 12.4183 0 8 0C3.58172 0 0 3.58172 0 8C0 12.4183 3.58172 16 8 16ZM6.48829 7C6.25775 6.4022 5.82685 6 5.33333 6C4.83981 6 4.40891 6.4022 4.17837 7C4.06493 6.70583 4 6.36429 4 6C4 4.89543 4.59695 4 5.33333 4C6.06971 4 6.66666 4.89543 6.66666 6C6.66666 6.36429 6.60173 6.70583 6.48829 7ZM11.8216 7C11.5911 6.4022 11.1602 6 10.6667 6C10.1731 6 9.74225 6.4022 9.51171 7C9.39826 6.70583 9.33333 6.36429 9.33333 6C9.33333 4.89543 9.93028 4 10.6667 4C11.403 4 12 4.89543 12 6C12 6.36429 11.9351 6.70583 11.8216 7ZM2.69551 8.75571C2.78321 8.67348 2.92221 8.61992 3.07841 8.63813C4.34715 8.78599 6.44718 8.99997 8.00003 8.99997C9.55287 8.99997 11.6529 8.78599 12.9216 8.63813C13.0778 8.61992 13.2168 8.67348 13.3045 8.75571C13.3867 8.83272 13.423 8.93049 13.4009 9.0451C13.3102 9.51687 13.1592 9.96719 12.9562 10.3877C12.6932 10.4234 12.3796 10.4633 12.0273 10.5032C10.9337 10.627 9.47461 10.75 8 10.75C6.52539 10.75 5.06629 10.627 3.97274 10.5032C3.62041 10.4633 3.30681 10.4234 3.04381 10.3877C2.84082 9.96719 2.68981 9.51687 2.5991 9.0451C2.57707 8.93049 2.61338 8.83272 2.69551 8.75571ZM8.00003 13.5C6.28463 13.5 4.75226 12.7145 3.7435 11.4835L3.86026 11.4968C4.97521 11.623 6.47461 11.75 8 11.75C9.52539 11.75 11.0248 11.623 12.1398 11.4968L12.2566 11.4835C11.2478 12.7145 9.71542 13.5 8.00003 13.5Z" fill="black"/>
</svg>
