<svg width="16" height="16" viewBox="0 0 16 16" fill="none" xmlns="http://www.w3.org/2000/svg">
<path d="M8 15C4.13401 15 1 11.866 1 8C1 4.13401 4.13401 1 8 1C11.866 1 15 4.13401 15 8C15 11.866 11.866 15 8 15ZM8 16C12.4183 16 16 12.4183 16 8C16 3.58172 12.4183 0 8 0C3.58172 0 0 3.58172 0 8C0 12.4183 3.58172 16 8 16Z" fill="black"/>
<path d="M7 5.5C7 6.32843 6.55228 7 6 7C5.44772 7 5 6.32843 5 5.5C5 4.67157 5.44772 4 6 4C6.55228 4 7 4.67157 7 5.5Z" fill="black"/>
<path d="M11 5.5C11 6.32843 10.5523 7 10 7C9.44771 7 9 6.32843 9 5.5C9 4.67157 9.44771 4 10 4C10.5523 4 11 4.67157 11 5.5Z" fill="black"/>
<path d="M10 11C10 12.1046 9.10457 13 8 13C6.89543 13 6 12.1046 6 11C6 9.89543 6.89543 9 8 9C9.10457 9 10 9.89543 10 11Z" fill="black"/>
</svg>
