<svg width="16" height="16" viewBox="0 0 16 16" fill="none" xmlns="http://www.w3.org/2000/svg">
<path d="M16 8C16 12.4183 12.4183 16 8 16C3.58172 16 0 12.4183 0 8C0 3.58172 3.58172 0 8 0C12.4183 0 16 3.58172 16 8ZM7 5.5C7 4.67157 6.55228 4 6 4C5.44772 4 5 4.67157 5 5.5C5 6.32843 5.44772 7 6 7C6.55228 7 7 6.32843 7 5.5ZM11 5.5C11 4.67157 10.5523 4 10 4C9.44771 4 9 4.67157 9 5.5C9 6.32843 9.44771 7 10 7C10.5523 7 11 6.32843 11 5.5ZM8 13C9.10457 13 10 12.1046 10 11C10 9.89543 9.10457 9 8 9C6.89543 9 6 9.89543 6 11C6 12.1046 6.89543 13 8 13Z" fill="black"/>
</svg>
