<svg width="16" height="16" viewBox="0 0 16 16" fill="none" xmlns="http://www.w3.org/2000/svg">
<path d="M8 15C4.13401 15 1 11.866 1 8C1 4.13401 4.13401 1 8 1C11.866 1 15 4.13401 15 8C15 11.866 11.866 15 8 15ZM8 16C12.4183 16 16 12.4183 16 8C16 3.58172 12.4183 0 8 0C3.58172 0 0 3.58172 0 8C0 12.4183 3.58172 16 8 16Z" fill="black"/>
<path d="M4.28479 9.5672C4.52382 9.42893 4.82969 9.51061 4.96796 9.74964C5.57388 10.7971 6.70516 11.5 8.00003 11.5C9.29489 11.5 10.4262 10.7971 11.0321 9.74964C11.1704 9.51061 11.4762 9.42893 11.7153 9.5672C11.9543 9.70547 12.036 10.0113 11.8977 10.2504C11.1204 11.5941 9.66629 12.5 8.00003 12.5C6.33376 12.5 4.87967 11.5941 4.10235 10.2504C3.96408 10.0113 4.04576 9.70547 4.28479 9.5672Z" fill="black"/>
<path d="M7 6.5C7 7.32843 6.55228 8 6 8C5.44772 8 5 7.32843 5 6.5C5 5.67157 5.44772 5 6 5C6.55228 5 7 5.67157 7 6.5Z" fill="black"/>
<path d="M11 6.5C11 7.32843 10.5523 8 10 8C9.44771 8 9 7.32843 9 6.5C9 5.67157 9.44771 5 10 5C10.5523 5 11 5.67157 11 6.5Z" fill="black"/>
</svg>
