<svg width="16" height="16" viewBox="0 0 16 16" fill="none" xmlns="http://www.w3.org/2000/svg">
<path d="M8 15C4.13401 15 1 11.866 1 8C1 4.13401 4.13401 1 8 1C11.866 1 15 4.13401 15 8C15 11.866 11.866 15 8 15ZM8 16C12.4183 16 16 12.4183 16 8C16 3.58172 12.4183 0 8 0C3.58172 0 0 3.58172 0 8C0 12.4183 3.58172 16 8 16Z" fill="black"/>
<path d="M4 10.5C4 10.7761 4.22386 11 4.5 11H11.5C11.7761 11 12 10.7761 12 10.5C12 10.2239 11.7761 10 11.5 10H4.5C4.22386 10 4 10.2239 4 10.5Z" fill="black"/>
<path d="M7 6.5C7 5.67157 6.55228 5 6 5C5.44772 5 5 5.67157 5 6.5C5 7.32843 5.44772 8 6 8C6.55228 8 7 7.32843 7 6.5Z" fill="black"/>
<path d="M11 6.5C11 5.67157 10.5523 5 10 5C9.44771 5 9 5.67157 9 6.5C9 7.32843 9.44771 8 10 8C10.5523 8 11 7.32843 11 6.5Z" fill="black"/>
</svg>
