<svg width="16" height="16" viewBox="0 0 16 16" fill="none" xmlns="http://www.w3.org/2000/svg">
<path d="M8 15C4.13401 15 1 11.866 1 8C1 4.13401 4.13401 1 8 1C11.866 1 15 4.13401 15 8C15 11.866 11.866 15 8 15ZM8 16C12.4183 16 16 12.4183 16 8C16 3.58172 12.4183 0 8 0C3.58172 0 0 3.58172 0 8C0 12.4183 3.58172 16 8 16Z" fill="black"/>
<path d="M12.3311 9.50036C12.5097 9.80997 12.5095 10.1913 12.3305 10.5007C11.4675 11.9926 9.85199 13 8.00003 13C6.14806 13 4.53256 11.9926 3.66955 10.5007C3.49058 10.1913 3.49034 9.80997 3.66892 9.50036C3.8475 9.19076 4.17774 9 4.53516 9H11.4649C11.8223 9 12.1526 9.19076 12.3311 9.50036Z" fill="black"/>
<path d="M7 6.5C7 7.32843 6.55228 6.5 6 6.5C5.44772 6.5 5 7.32843 5 6.5C5 5.67157 5.44772 5 6 5C6.55228 5 7 5.67157 7 6.5Z" fill="black"/>
<path d="M11 6.5C11 7.32843 10.5523 6.5 10 6.5C9.44772 6.5 9 7.32843 9 6.5C9 5.67157 9.44772 5 10 5C10.5523 5 11 5.67157 11 6.5Z" fill="black"/>
</svg>
