<svg width="16" height="16" viewBox="0 0 16 16" fill="none" xmlns="http://www.w3.org/2000/svg">
<path d="M0.0495854 3.55544C0.25173 2.66484 1.04822 2 2 2H14C14.9518 2 15.7483 2.66484 15.9504 3.55544L8 8.41403L0.0495854 3.55544Z" fill="black"/>
<path d="M0 4.69708V11.8006L5.80319 8.24348L0 4.69708Z" fill="black"/>
<path d="M6.7614 8.82905L0.191871 12.8559C0.512604 13.5323 1.20168 14 2 14H8.25606C8.09023 13.5308 8 13.026 8 12.5C8 11.1169 8.62396 9.87957 9.60575 9.0541L9.2386 8.82905L8 9.58597L6.7614 8.82905Z" fill="black"/>
<path d="M16 4.69708V9.67133C15.175 8.65183 13.9136 8 12.5 8C11.7954 8 11.1286 8.16195 10.5348 8.45065L10.1968 8.24348L16 4.69708Z" fill="black"/>
<path d="M14.9749 10.0251C13.608 8.65829 11.392 8.65829 10.0251 10.0251C8.65829 11.392 8.65829 13.608 10.0251 14.9749C11.392 16.3417 13.608 16.3417 14.9749 14.9749C16.3417 13.608 16.3417 11.392 14.9749 10.0251ZM10.7322 10.7322C11.5875 9.877 12.9082 9.77094 13.8789 10.414L10.414 13.8789C9.77094 12.9082 9.877 11.5875 10.7322 10.7322ZM11.1211 14.586L14.586 11.1211C15.2291 12.0918 15.123 13.4125 14.2678 14.2678C13.4125 15.123 12.0918 15.2291 11.1211 14.586Z" fill="black"/>
</svg>
