<svg width="16" height="16" viewBox="0 0 16 16" fill="none" xmlns="http://www.w3.org/2000/svg">
<path d="M8.47059 1.31764C8.17647 1.16078 7.82353 1.16078 7.52941 1.31764L1.52941 4.51764C1.20355 4.69144 1 5.03069 1 5.4V6.2169L6.75 9.6669L8 8.9169L9.25 9.6669L15 6.2169V5.4C15 5.03068 14.7965 4.69144 14.4706 4.51764L8.47059 1.31764ZM15 7.38309L10.2218 10.25L15 13.1169V7.38309ZM14.9653 14.2622L8 10.0831L1.03474 14.2622C1.14995 14.6873 1.53846 15 2 15H14C14.4615 15 14.85 14.6873 14.9653 14.2622ZM1 13.1169L5.77817 10.25L1 7.38309V13.1169ZM7.05882 0.435291C7.64706 0.121566 8.35294 0.121566 8.94118 0.435291L14.9412 3.63529C15.5929 3.98288 16 4.66137 16 5.4V14C16 15.1046 15.1046 16 14 16H2C0.895431 16 0 15.1046 0 14V5.4C0 4.66137 0.407097 3.98288 1.05882 3.63529L7.05882 0.435291Z" fill="black"/>
</svg>
