<svg width="16" height="16" viewBox="0 0 16 16" fill="none" xmlns="http://www.w3.org/2000/svg">
<path d="M0.0495854 3.55544C0.25173 2.66484 1.04822 2 2 2H14C14.9518 2 15.7483 2.66484 15.9504 3.55544L8 8.41403L0.0495854 3.55544Z" fill="black"/>
<path d="M0 4.69708V11.8006L5.80319 8.24348L0 4.69708Z" fill="black"/>
<path d="M6.7614 8.82905L0.191871 12.8559C0.512604 13.5323 1.20168 14 2 14H8.25606C8.09023 13.5308 8 13.026 8 12.5C8 11.1169 8.62396 9.87957 9.60575 9.0541L9.2386 8.82905L8 9.58597L6.7614 8.82905Z" fill="black"/>
<path d="M16 4.69708V9.67133C15.175 8.65183 13.9136 8 12.5 8C11.7954 8 11.1286 8.16195 10.5348 8.45065L10.1968 8.24348L16 4.69708Z" fill="black"/>
<path d="M16 12.5C16 14.433 14.433 16 12.5 16C10.567 16 9 14.433 9 12.5C9 10.567 10.567 9 12.5 9C14.433 9 16 10.567 16 12.5ZM14.0072 10.8213C13.7705 10.6792 13.4633 10.756 13.3213 10.9928L12.1507 12.9436L11.6036 12.3964C11.4083 12.2012 11.0917 12.2012 10.8964 12.3964C10.7012 12.5917 10.7012 12.9083 10.8964 13.1036L11.67 13.8771C12.0151 14.2222 12.5924 14.1511 12.8435 13.7327L14.1787 11.5072C14.3208 11.2705 14.244 10.9633 14.0072 10.8213Z" fill="black"/>
</svg>
