<svg width="16" height="16" viewBox="0 0 16 16" fill="none" xmlns="http://www.w3.org/2000/svg">
<path d="M0.0495854 3.55544C0.25173 2.66484 1.04822 2 2 2H14C14.9518 2 15.7483 2.66484 15.9504 3.55544L8 8.41403L0.0495854 3.55544Z" fill="black"/>
<path d="M0 4.69708V11.8006L5.80319 8.24348L0 4.69708Z" fill="black"/>
<path d="M0.191871 12.8559L6.7614 8.82905L8 9.58597L9.2386 8.82905L9.60575 9.0541C8.62396 9.87957 8 11.1169 8 12.5C8 13.026 8.09023 13.5308 8.25606 14H2C1.20168 14 0.512604 13.5323 0.191871 12.8559Z" fill="black"/>
<path d="M16 4.69708V9.67133C15.175 8.65183 13.9136 8 12.5 8C11.7954 8 11.1286 8.16195 10.5348 8.45065L10.1968 8.24348L16 4.69708Z" fill="black"/>
<path d="M12.5 16C14.433 16 16 14.433 16 12.5C16 10.567 14.433 9 12.5 9C10.567 9 9 10.567 9 12.5C9 14.433 10.567 16 12.5 16ZM12.8536 14.3536C12.7572 14.4499 12.6257 14.5028 12.4894 14.4999C12.3532 14.497 12.224 14.4386 12.1318 14.3383L10.9834 13.0883C10.7965 12.8849 10.8099 12.5686 11.0133 12.3818C11.2166 12.195 11.5329 12.2084 11.7198 12.4117L12 12.7167V11C12 10.7239 12.2239 10.5 12.5 10.5C12.7761 10.5 13 10.7239 13 11V12.7929L13.3964 12.3964C13.5917 12.2012 13.9083 12.2012 14.1036 12.3964C14.2988 12.5917 14.2988 12.9083 14.1036 13.1036L12.8536 14.3536Z" fill="black"/>
</svg>
