<svg width="16" height="16" viewBox="0 0 16 16" fill="none" xmlns="http://www.w3.org/2000/svg">
<path fill-rule="evenodd" clip-rule="evenodd" d="M3 7.5L6.5 9.5L8 8.75L9.5 9.5L13 7.5V1.5C13 0.671573 12.3284 0 11.5 0H4.5C3.67157 0 3 0.671573 3 1.5V7.5ZM2 3.13328L1.05882 3.63525C0.407097 3.98283 0 4.66133 0 5.39995V5.71345L2 6.88569V3.13328ZM14 6.88569L16 5.71345V5.39995C16 4.66133 15.5929 3.98283 14.9412 3.63525L14 3.13328V6.88569ZM10.3067 10.2095L16 6.87256V13.3724L10.3067 10.2095ZM15.9411 14.4837L8 10.0719L0.0588878 14.4837C0.27519 15.3545 1.06222 16 2 16H14C14.9378 16 15.7248 15.3545 15.9411 14.4837ZM5.69326 10.2095L0 13.3724V6.87256L5.69326 10.2095ZM8 1.9818C9.66439 0.309069 13.8254 3.23635 8 7C2.17465 3.23635 6.33561 0.309069 8 1.9818Z" fill="black"/>
</svg>
