<svg width="16" height="16" viewBox="0 0 16 16" fill="none" xmlns="http://www.w3.org/2000/svg">
<path d="M0.0495854 3.55544C0.25173 2.66484 1.04822 2 2 2H14C14.9518 2 15.7483 2.66484 15.9504 3.55544L8 8.41403L0.0495854 3.55544Z" fill="black"/>
<path d="M0 4.69708V11.8006L5.80319 8.24348L0 4.69708Z" fill="black"/>
<path d="M0.191871 12.8559L6.7614 8.82905L8 9.58597L9.2386 8.82905L9.60575 9.0541C8.62396 9.87957 8 11.1169 8 12.5C8 13.026 8.09023 13.5308 8.25606 14H2C1.20168 14 0.512604 13.5323 0.191871 12.8559Z" fill="black"/>
<path d="M16 4.69708V9.67133C15.175 8.65183 13.9136 8 12.5 8C11.7954 8 11.1286 8.16195 10.5348 8.45065L10.1968 8.24348L16 4.69708Z" fill="black"/>
<path d="M12.5 16C14.433 16 16 14.433 16 12.5C16 10.567 14.433 9 12.5 9C10.567 9 9 10.567 9 12.5C9 14.433 10.567 16 12.5 16ZM12.8536 10.6464L14.1036 11.8964C14.2988 12.0917 14.2988 12.4083 14.1036 12.6036C13.9083 12.7988 13.5917 12.7988 13.3964 12.6036L13 12.2071V14C13 14.2761 12.7761 14.5 12.5 14.5C12.2239 14.5 12 14.2761 12 14V12.2833L11.7198 12.5883C11.5329 12.7916 11.2166 12.805 11.0133 12.6182C10.8099 12.4314 10.7965 12.1151 10.9834 11.9117L12.1318 10.6617C12.224 10.5614 12.3532 10.503 12.4894 10.5001C12.6257 10.4972 12.7572 10.5501 12.8536 10.6464Z" fill="black"/>
</svg>
