<svg width="16" height="16" viewBox="0 0 16 16" fill="none" xmlns="http://www.w3.org/2000/svg">
<path d="M4 0C2.89543 0 2 0.895431 2 2V3.13328L1.05882 3.63525C0.407097 3.98283 0 4.66133 0 5.39995V14C0 15.1045 0.895431 16 2 16H14C15.1046 16 16 15.1045 16 14V5.39995C16 4.66133 15.5929 3.98283 14.9412 3.63525L14 3.13328V2C14 0.895431 13.1046 0 12 0H4ZM14 4.26662L14.4706 4.5176C14.7965 4.69139 15 5.03064 15 5.39995V6.21686L14 6.81686V4.26662ZM13 7.41686L9.25 9.66686L8 8.91686L6.75 9.66686L3 7.41686V2C3 1.44772 3.44772 1 4 1H12C12.5523 1 13 1.44772 13 2V7.41686ZM2 6.81686L1 6.21686V5.39995C1 5.03064 1.20355 4.69139 1.52941 4.5176L2 4.26662V6.81686ZM15 7.38305V13.1169L10.2218 10.25L15 7.38305ZM14.9653 14.2622C14.85 14.6873 14.4615 15 14 15H2C1.53846 15 1.14995 14.6873 1.03474 14.2622L8 10.083L14.9653 14.2622ZM1 13.1169V7.38305L5.77817 10.25L1 13.1169Z" fill="black"/>
</svg>
