<svg width="16" height="16" viewBox="0 0 16 16" fill="none" xmlns="http://www.w3.org/2000/svg">
<path fill-rule="evenodd" clip-rule="evenodd" d="M8.47059 1.3176C8.17647 1.16074 7.82353 1.16074 7.52941 1.3176L1.52941 4.5176C1.20355 4.69139 1 5.03064 1 5.39995V6.21686L4.23471 8.15769C4.09271 8.47859 4.0142 8.82376 4.00169 9.18406L1 7.38305V13.1169L4.47882 11.0296C4.62865 11.3054 4.81428 11.5826 5.03732 11.8607L1.03474 14.2622C1.14995 14.6873 1.53846 15 2 15H14C14.4615 15 14.85 14.6873 14.9653 14.2622L10.9627 11.8607C11.1857 11.5826 11.3714 11.3054 11.5212 11.0296L15 13.1169V7.38305L11.9983 9.18404C11.9858 8.82375 11.9073 8.47858 11.7653 8.15767L15 6.21686V5.39995C15 5.03064 14.7965 4.69139 14.4706 4.5176L8.47059 1.3176ZM7.05882 0.435245C7.64706 0.12152 8.35294 0.12152 8.94118 0.435245L14.9412 3.63525C15.5929 3.98283 16 4.66133 16 5.39995V14C16 15.1045 15.1046 16 14 16H2C0.895431 16 0 15.1045 0 14V5.39995C0 4.66133 0.407097 3.98283 1.05882 3.63525L7.05882 0.435245ZM8 7.99275C9.66439 6.282 13.8254 9.27581 8 13.125C2.17465 9.27581 6.33561 6.282 8 7.99275Z" fill="black"/>
</svg>
