<svg width="16" height="16" viewBox="0 0 16 16" fill="none" xmlns="http://www.w3.org/2000/svg">
<path d="M0 4C0 2.89543 0.895431 2 2 2H14C15.1046 2 16 2.89543 16 4V8.5C16 8.77614 15.7761 9 15.5 9C15.2239 9 15 8.77614 15 8.5V5.3831L8 9.5831L6.67417 8.7876L1.03376 12.2586C1.14774 12.6855 1.53715 13 2 13H7.5C7.77614 13 8 13.2239 8 13.5C8 13.7761 7.77614 14 7.5 14H2C0.898859 14 0.00555998 13.1101 2.58386e-05 12.0103L0 12V4ZM1 11.1052L5.70808 8.20794L1 5.3831V11.1052ZM1 4V4.2169L8 8.4169L15 4.2169V4C15 3.44772 14.5523 3 14 3H2C1.44772 3 1 3.44772 1 4Z" fill="black"/>
<path d="M12.5 16C14.433 16 16 14.433 16 12.5C16 10.567 14.433 9 12.5 9C10.567 9 9 10.567 9 12.5C9 14.433 10.567 16 12.5 16ZM12.8536 10.6464L14.1036 11.8964C14.2988 12.0917 14.2988 12.4083 14.1036 12.6036C13.9083 12.7988 13.5917 12.7988 13.3964 12.6036L13 12.2071V14C13 14.2761 12.7761 14.5 12.5 14.5C12.2239 14.5 12 14.2761 12 14V12.2833L11.7198 12.5883C11.5329 12.7916 11.2166 12.805 11.0133 12.6182C10.8099 12.4314 10.7965 12.1151 10.9834 11.9117L12.1318 10.6617C12.224 10.5614 12.3532 10.503 12.4894 10.5001C12.6257 10.4972 12.7572 10.5501 12.8536 10.6464Z" fill="black"/>
</svg>
