<svg width="16" height="16" viewBox="0 0 16 16" fill="none" xmlns="http://www.w3.org/2000/svg">
<path d="M0.0495854 3.55544C0.25173 2.66484 1.04822 2 2 2H14C14.9518 2 15.7483 2.66484 15.9504 3.55544L11.7495 6.12266C11.7334 6.08751 11.7164 6.05266 11.6988 6.01812C11.0327 4.71736 9.3362 4.10091 8.00001 4.76817C6.66382 4.10091 4.96732 4.71736 4.30127 6.01812C4.28358 6.05267 4.26666 6.08752 4.25051 6.12267L0.0495854 3.55544Z" fill="black"/>
<path d="M11.5836 8.91076C11.5603 8.95674 11.536 9.00277 11.5107 9.04883L16 11.8006V4.69708L11.9967 7.14357C12.024 7.70639 11.8895 8.30719 11.5836 8.91076Z" fill="black"/>
<path d="M7.44873 11.9593C6.40078 11.2669 5.60983 10.5697 5.0509 9.87752L0.191871 12.8559C0.512604 13.5323 1.20168 14 2 14H14C14.7983 14 15.4874 13.5323 15.8081 12.8559L10.9491 9.87753C10.3902 10.5697 9.59924 11.2669 8.5513 11.9593L8.00001 12.3236L7.44873 11.9593Z" fill="black"/>
<path d="M4.41643 8.91076C4.11049 8.3072 3.97601 7.70641 4.00337 7.14359L0 4.69708V11.8006L4.48933 9.04882C4.46404 9.00276 4.43974 8.95674 4.41643 8.91076Z" fill="black"/>
<path d="M8 5.99275C9.66439 4.282 13.8254 7.27581 8 11.125C2.17465 7.27581 6.33561 4.282 8 5.99275Z" fill="black"/>
</svg>
