<svg width="16" height="16" viewBox="0 0 16 16" fill="none" xmlns="http://www.w3.org/2000/svg">
<path fill-rule="evenodd" clip-rule="evenodd" d="M2 2C2 0.895431 2.89543 0 4 0H12C13.1046 0 14 0.895431 14 2V3.13328L14.9412 3.63525C15.5929 3.98283 16 4.66133 16 5.39995V14C16 15.1045 15.1046 16 14 16H2C0.895431 16 0 15.1045 0 14V5.39995C0 4.66133 0.407097 3.98283 1.05882 3.63525L2 3.13328V2ZM2 4.26662L1.52941 4.5176C1.20355 4.69139 1 5.03064 1 5.39995V6.21686L2 6.81686V4.26662ZM3 7.41686L6.75 9.66686L8 8.91686L9.25 9.66686L13 7.41686V2C13 1.44772 12.5523 1 12 1H4C3.44772 1 3 1.44772 3 2V7.41686ZM14 6.81686L15 6.21686V5.39995C15 5.03064 14.7965 4.69139 14.4706 4.5176L14 4.26662V6.81686ZM8 2.9818C9.66439 1.30907 13.8254 4.23635 8 8C2.17465 4.23635 6.33561 1.30907 8 2.9818ZM15 7.38305L10.2218 10.25L15 13.1169V7.38305ZM14.9653 14.2622L8 10.083L1.03474 14.2622C1.14995 14.6873 1.53846 15 2 15H14C14.4615 15 14.85 14.6873 14.9653 14.2622ZM1 13.1169L5.77817 10.25L1 7.38305V13.1169Z" fill="black"/>
</svg>
