<svg width="16" height="16" viewBox="0 0 16 16" fill="none" xmlns="http://www.w3.org/2000/svg">
<path d="M0.0495854 3.55544C0.25173 2.66484 1.04822 2 2 2H14C14.9518 2 15.7483 2.66484 15.9504 3.55544L8 8.41403L0.0495854 3.55544Z" fill="black"/>
<path d="M0 4.69708V11.8006L5.80319 8.24348L0 4.69708Z" fill="black"/>
<path d="M6.7614 8.82905L0.191871 12.8559C0.512604 13.5323 1.20168 14 2 14H8.25606C8.09023 13.5308 8 13.026 8 12.5C8 11.1169 8.62396 9.87957 9.60575 9.0541L9.2386 8.82905L8 9.58597L6.7614 8.82905Z" fill="black"/>
<path d="M16 4.69708V9.67133C15.175 8.65183 13.9136 8 12.5 8C11.7954 8 11.1286 8.16195 10.5348 8.45065L10.1968 8.24348L16 4.69708Z" fill="black"/>
<path d="M16 12.5C16 14.433 14.433 16 12.5 16C10.567 16 9 14.433 9 12.5C9 10.567 10.567 9 12.5 9C14.433 9 16 10.567 16 12.5ZM11.1464 11.1464C10.9512 11.3417 10.9512 11.6583 11.1464 11.8536L11.7929 12.5L11.1464 13.1464C10.9512 13.3417 10.9512 13.6583 11.1464 13.8536C11.3417 14.0488 11.6583 14.0488 11.8536 13.8536L12.5 13.2071L13.1464 13.8536C13.3417 14.0488 13.6583 14.0488 13.8536 13.8536C14.0488 13.6583 14.0488 13.3417 13.8536 13.1464L13.2071 12.5L13.8536 11.8536C14.0488 11.6583 14.0488 11.3417 13.8536 11.1464C13.6583 10.9512 13.3417 10.9512 13.1464 11.1464L12.5 11.7929L11.8536 11.1464C11.6583 10.9512 11.3417 10.9512 11.1464 11.1464Z" fill="black"/>
</svg>
