<svg width="16" height="16" viewBox="0 0 16 16" fill="none" xmlns="http://www.w3.org/2000/svg">
<path fill-rule="evenodd" clip-rule="evenodd" d="M0 4C0 2.89543 0.895431 2 2 2H14C15.1046 2 16 2.89543 16 4V12C16 13.1046 15.1046 14 14 14H2C0.895431 14 0 13.1046 0 12V4ZM2 3C1.44772 3 1 3.44772 1 4V4.2169L4.2347 6.15772C4.09269 6.47863 4.01419 6.82381 4.00168 7.18411L1 5.3831V11.1052L4.45256 8.98056C4.59907 9.25791 4.78174 9.53677 5.00221 9.8165L1.03376 12.2586C1.14774 12.6855 1.53715 13 2 13H14C14.4628 13 14.8523 12.6855 14.9662 12.2586L10.9978 9.81651C11.2183 9.53679 11.4009 9.25793 11.5475 8.98058L15 11.1052V5.3831L11.9983 7.18409C11.9858 6.82379 11.9073 6.47862 11.7653 6.15771L15 4.2169V4C15 3.44772 14.5523 3 14 3H2ZM8 5.99275C9.66439 4.282 13.8254 7.27581 8 11.125C2.17465 7.27581 6.33561 4.282 8 5.99275Z" fill="black"/>
</svg>
