<svg width="16" height="16" viewBox="0 0 16 16" fill="none" xmlns="http://www.w3.org/2000/svg">
<path d="M8.94118 0.435306C8.35294 0.121581 7.64706 0.121581 7.05882 0.435306L1.05882 3.63531C0.407097 3.98289 0 4.66139 0 5.40001V5.71351L6.70853 9.64551L8 8.92803L9.29147 9.64551L16 5.71351V5.40001C16 4.66139 15.5929 3.98289 14.9412 3.63531L8.94118 0.435306Z" fill="black"/>
<path d="M16 6.87262L10.3067 10.2095L16 13.3725V6.87262Z" fill="black"/>
<path d="M15.9411 14.4837L8 10.072L0.0588878 14.4837C0.27519 15.3546 1.06222 16 2 16H14C14.9378 16 15.7248 15.3546 15.9411 14.4837Z" fill="black"/>
<path d="M0 13.3725L5.69326 10.2095L0 6.87262V13.3725Z" fill="black"/>
</svg>
