<svg width="16" height="16" viewBox="0 0 16 16" fill="none" xmlns="http://www.w3.org/2000/svg">
<path fill-rule="evenodd" clip-rule="evenodd" d="M6.5 9.5L3 7.5V1.5C3 0.671573 3.67157 0 4.5 0H11.5C12.3284 0 13 0.671573 13 1.5V7.5L9.5 9.5L8 8.75L6.5 9.5ZM1.05882 3.63525L2 3.13328V6.88569L0 5.71345V5.39995C0 4.66133 0.407097 3.98283 1.05882 3.63525ZM16 5.71345L14 6.88569V3.13328L14.9412 3.63525C15.5929 3.98283 16 4.66133 16 5.39995V5.71345ZM16 6.87256L10.3067 10.2095L16 13.3724V6.87256ZM8 10.0719L15.9411 14.4837C15.7248 15.3545 14.9378 16 14 16H2C1.06222 16 0.27519 15.3545 0.0588878 14.4837L8 10.0719ZM0 13.3724L5.69326 10.2095L0 6.87256V13.3724Z" fill="black"/>
</svg>
