<svg width="16" height="16" viewBox="0 0 16 16" fill="none" xmlns="http://www.w3.org/2000/svg">
<path d="M8.94118 0.435245C8.35294 0.12152 7.64706 0.12152 7.05882 0.435245L1.05882 3.63525C0.407097 3.98283 0 4.66133 0 5.39995V5.71345L4.2216 8.18781C4.24615 8.13047 4.27271 8.07389 4.30127 8.01812C4.96732 6.71736 6.66382 6.1009 8.00001 6.76817C9.3362 6.1009 11.0327 6.71736 11.6988 8.01812C11.7273 8.07389 11.7539 8.13046 11.7784 8.1878L16 5.71345V5.39995C16 4.66133 15.5929 3.98283 14.9412 3.63525L8.94118 0.435245Z" fill="black"/>
<path d="M0 6.87256L4.00072 9.21746C3.98807 9.75883 4.12384 10.3335 4.41643 10.9108L4.41963 10.9171L0 13.3724V6.87256Z" fill="black"/>
<path d="M0.0588878 14.4837L4.95917 11.7613C5.52205 12.4916 6.34209 13.2281 7.44873 13.9593L8.00001 14.3236L8.5513 13.9593C9.65793 13.2281 10.478 12.4916 11.0408 11.7613L15.9411 14.4837C15.7248 15.3545 14.9378 16 14 16H2C1.06222 16 0.27519 15.3545 0.0588878 14.4837Z" fill="black"/>
<path d="M16 13.3724L11.5804 10.9171L11.5836 10.9108C11.8762 10.3335 12.012 9.75881 11.9993 9.21744L16 6.87256V13.3724Z" fill="black"/>
<path d="M8 7.99275C9.66439 6.282 13.8254 9.27581 8 13.125C2.17465 9.27581 6.33561 6.282 8 7.99275Z" fill="black"/>
</svg>
