<svg width="16" height="16" viewBox="0 0 16 16" fill="none" xmlns="http://www.w3.org/2000/svg">
<path d="M8.5379 1.02039C8.26256 0.999439 8.02236 1.20567 8.00142 1.48102C7.98047 1.75637 8.1867 1.99656 8.46205 2.0175C11.5596 2.25314 14 4.84182 14 8C14 11.3137 11.3137 14 7.99998 14C4.84179 14 2.25311 11.5596 2.01748 8.46207C1.99653 8.18673 1.75634 7.98049 1.48099 8.00144C1.20565 8.02239 0.999415 8.26258 1.02036 8.53793C1.29535 12.1528 4.31493 15 7.99998 15C11.866 15 15 11.866 15 8C15 4.31495 12.1528 1.29538 8.5379 1.02039Z" fill="black"/>
<path d="M7.09619 7.82844C7.29146 8.0237 7.60804 8.0237 7.8033 7.82844C7.99856 7.63318 7.99856 7.3166 7.8033 7.12133L2.70711 2.02514L5.47483 2.02514C5.75098 2.02514 5.97484 1.80129 5.97484 1.52514C5.97484 1.249 5.75098 1.02514 5.47483 1.02514L1.5 1.02514C1.22386 1.02514 1 1.249 1 1.52514V5.50002C1 5.77616 1.22386 6.00002 1.5 6.00002C1.77614 6.00002 2 5.77616 2 5.50002L2 2.73225L7.09619 7.82844Z" fill="black"/>
</svg>
