<svg width="16" height="16" viewBox="0 0 16 16" fill="none" xmlns="http://www.w3.org/2000/svg">
<g clip-path="url(#clip0_1287_4923)">
<path d="M14 13.5V6.5C14 6.22386 13.7761 6 13.5 6H12V4.5C12 4.22386 11.7761 4 11.5 4H10.5V3.5C10.5 3.22386 10.2761 3 10 3H6C5.72386 3 5.5 3.22386 5.5 3.5V4H4.5C4.22386 4 4 4.22386 4 4.5V6H2.5C2.22386 6 2 6.22386 2 6.5V13.5C2 13.7761 2.22386 14 2.5 14H13.5C13.7761 14 14 13.7761 14 13.5ZM3.75 11H4.25C4.38807 11 4.5 11.1119 4.5 11.25V12.75C4.5 12.8881 4.38807 13 4.25 13H3.75C3.61193 13 3.5 12.8881 3.5 12.75V11.25C3.5 11.1119 3.61193 11 3.75 11ZM5.75 11H6.25C6.38807 11 6.5 11.1119 6.5 11.25V12.75C6.5 12.8881 6.38807 13 6.25 13H5.75C5.61193 13 5.5 12.8881 5.5 12.75V11.25C5.5 11.1119 5.61193 11 5.75 11ZM7.5 11.25C7.5 11.1119 7.61193 11 7.75 11H8.25C8.38807 11 8.5 11.1119 8.5 11.25V12.75C8.5 12.8881 8.38807 13 8.25 13H7.75C7.61193 13 7.5 12.8881 7.5 12.75V11.25ZM9.75 11H10.25C10.3881 11 10.5 11.1119 10.5 11.25V12.75C10.5 12.8881 10.3881 13 10.25 13H9.75C9.61193 13 9.5 12.8881 9.5 12.75V11.25C9.5 11.1119 9.61193 11 9.75 11ZM11.5 11.25C11.5 11.1119 11.6119 11 11.75 11H12.25C12.3881 11 12.5 11.1119 12.5 11.25V12.75C12.5 12.8881 12.3881 13 12.25 13H11.75C11.6119 13 11.5 12.8881 11.5 12.75V11.25Z" fill="black"/>
<path d="M2 0C0.89543 0 0 0.895431 0 2V14C0 15.1046 0.895431 16 2 16H14C15.1046 16 16 15.1046 16 14V2C16 0.89543 15.1046 0 14 0H2ZM1 2C1 1.44772 1.44772 1 2 1H14C14.5523 1 15 1.44772 15 2V14C15 14.5523 14.5523 15 14 15H2C1.44772 15 1 14.5523 1 14V2Z" fill="black"/>
</g>
<defs>
<clipPath id="clip0_1287_4923">
<rect width="16" height="16" fill="white"/>
</clipPath>
</defs>
</svg>
