<svg width="16" height="16" viewBox="0 0 16 16" fill="none" xmlns="http://www.w3.org/2000/svg">
<path d="M9.35381 4.24265C9.37936 4.1593 9.34429 4.06927 9.26919 4.02543C9.1941 3.98158 9.09881 3.9955 9.03927 4.059L6.05077 7.24649C5.9997 7.30097 5.98577 7.3807 6.01532 7.44937C6.04488 7.51804 6.11227 7.5625 6.18679 7.5625H7.42814L6.75539 9.75735C6.72984 9.8407 6.76491 9.93073 6.84 9.97457C6.9151 10.0184 7.01039 10.0045 7.06992 9.941L9.94923 6.75351C10.0003 6.69903 10.0142 6.6193 9.98468 6.55063C9.95512 6.48196 9.88773 6.4375 9.81321 6.4375H8.57186L9.35381 4.24265Z" fill="black"/>
<path d="M4.81879 2C3.81872 2 2.91488 2.59599 2.52093 3.5152L1.72903 5.36297C1.65384 5.53842 1.51889 5.68154 1.34816 5.7669C0.849394 6.01629 0.493703 6.48198 0.384342 7.02878L0.0485483 8.70775C0.0162617 8.86918 0 9.03341 0 9.19804V9.61104C0 10.425 0.390331 11.1538 1 11.6085V13.5C1 13.7761 1.22386 14 1.5 14H3.5C3.77614 14 4 13.7761 4 13.5V12.162C5.29163 12.21 6.74462 12.25 8 12.25C9.25538 12.25 10.7084 12.21 12 12.162V13.5C12 13.7761 12.2239 14 12.5 14H14.5C14.7761 14 15 13.7761 15 13.5V11.6085C15.6097 11.1538 16 10.425 16 9.61104V9.19804C16 9.03341 15.9837 8.86918 15.9515 8.70775L15.6157 7.02878C15.5063 6.48197 15.1506 6.01629 14.6518 5.7669C14.4811 5.68154 14.3462 5.53842 14.271 5.36297L13.4791 3.5152C13.0851 2.59599 12.1813 2 11.1812 2H4.81879ZM3.44007 3.90912C3.67644 3.3576 4.21875 3 4.81879 3H11.1812C11.7812 3 12.3236 3.3576 12.5599 3.90912L13.3518 5.75689C13.5202 6.14974 13.8223 6.47019 14.2046 6.66133C14.4274 6.77271 14.5862 6.98069 14.6351 7.2249L14.9709 8.90386C14.9902 9.00072 15 9.09926 15 9.19804V9.61104C15 10.4075 14.3807 11.0593 13.5921 11.0952C12.0372 11.1659 9.80613 11.25 8 11.25C6.19387 11.25 3.96284 11.1659 2.40789 11.0952C1.61926 11.0593 1 10.4075 1 9.61104V9.19804C1 9.09926 1.00976 9.00072 1.02913 8.90386L1.36492 7.2249C1.41376 6.98069 1.57262 6.77271 1.79537 6.66133C2.17765 6.47019 2.47981 6.14974 2.64817 5.75689L3.44007 3.90912Z" fill="black"/>
</svg>
