<svg width="16" height="16" viewBox="0 0 16 16" fill="none" xmlns="http://www.w3.org/2000/svg">
<path d="M2.52093 3.5152C2.91488 2.59599 3.81872 2 4.81879 2H11.1812C12.1813 2 13.0851 2.59599 13.4791 3.5152L14.271 5.36297C14.3462 5.53842 14.4811 5.68154 14.6518 5.7669C15.1506 6.01629 15.5063 6.48197 15.6157 7.02878L15.9515 8.70775C15.9837 8.86918 16 9.03341 16 9.19804V9.61104C16 10.425 15.6097 11.1538 15 11.6085V13.5C15 13.7761 14.7761 14 14.5 14H12.5C12.2239 14 12 13.7761 12 13.5V12.162C10.7084 12.21 9.25538 12.25 8 12.25C6.74462 12.25 5.29163 12.21 4 12.162V13.5C4 13.7761 3.77614 14 3.5 14H1.5C1.22386 14 1 13.7761 1 13.5V11.6085C0.390331 11.1538 0 10.425 0 9.61104V9.19804C0 9.03341 0.0162617 8.86918 0.0485483 8.70775L0.384342 7.02878C0.493703 6.48198 0.849394 6.01629 1.34816 5.7669C1.51889 5.68154 1.65384 5.53842 1.72903 5.36297L2.52093 3.5152ZM9.26919 4.02543C9.1941 3.98158 9.09881 3.9955 9.03927 4.059L6.05077 7.24649C5.9997 7.30097 5.98577 7.3807 6.01532 7.44937C6.04488 7.51804 6.11227 7.5625 6.18679 7.5625H7.42814L6.75539 9.75735C6.72984 9.8407 6.76491 9.93073 6.84 9.97457C6.9151 10.0184 7.01039 10.0045 7.06992 9.941L9.94923 6.75351C10.0003 6.69903 10.0142 6.6193 9.98468 6.55063C9.95512 6.48196 9.88773 6.4375 9.81321 6.4375H8.57186L9.35381 4.24265C9.37936 4.1593 9.34429 4.06927 9.26919 4.02543Z" fill="black"/>
</svg>
