<svg width="16" height="16" viewBox="0 0 16 16" fill="none" xmlns="http://www.w3.org/2000/svg">
<path d="M1 2C1 0.89543 1.89543 0 3 0H9C10.1046 0 11 0.895431 11 2V10C12.1046 10 13 10.8954 13 12V12.5C13 12.7761 13.2239 13 13.5 13C13.7763 13 14 12.7762 14 12.5002V9C14 8.74172 13.8959 8.62258 13.643 8.36477L13.6358 8.35735C13.3793 8.09594 13 7.70932 13 7V4C13 3.86739 13.0527 3.74021 13.1465 3.64644L13.6465 3.14645C13.8417 2.95119 14.1583 2.9512 14.3536 3.14646L14.8536 3.64646C14.9473 3.74022 15 3.8674 15 4.00001V12.5002C15 13.3287 14.3283 14 13.5 14C12.6716 14 12 13.3284 12 12.5V12C12 11.4477 11.5523 11 11 11V15H11.5C11.7761 15 12 15.2239 12 15.5C12 15.7761 11.7761 16 11.5 16H0.5C0.223858 16 0 15.7761 0 15.5C0 15.2239 0.223858 15 0.5 15H1V2ZM3 2.5V7.5C3 7.77614 3.22386 8 3.5 8H8.5C8.77614 8 9 7.77614 9 7.5V2.5C9 2.22386 8.77614 2 8.5 2H3.5C3.22386 2 3 2.22386 3 2.5ZM5.63125 12.4604H4.13955V11.5669H5.54336V11.0615H4.13955V10.207H5.63125V9.66748H3.48525V13H5.63125V12.4604ZM6.94736 13H7.74082L8.84678 9.66748H8.11436L7.37461 12.2822H7.34287L6.5958 9.66748H5.83164L6.94736 13Z" fill="black"/>
</svg>
