<svg width="16" height="16" viewBox="0 0 16 16" fill="none" xmlns="http://www.w3.org/2000/svg">
<path d="M3.5 2C3.22386 2 3 2.22386 3 2.5V7.5C3 7.77614 3.22386 8 3.5 8H8.5C8.77614 8 9 7.77614 9 7.5V2.5C9 2.22386 8.77614 2 8.5 2H3.5Z" fill="black"/>
<path d="M5.63125 12.4604H4.13955V11.5669H5.54336V11.0615H4.13955V10.207H5.63125V9.66748H3.48525V13H5.63125V12.4604Z" fill="black"/>
<path d="M6.94736 13H7.74082L8.84678 9.66748H8.11436L7.37461 12.2822H7.34287L6.5958 9.66748H5.83164L6.94736 13Z" fill="black"/>
<path d="M3 0C1.89543 0 1 0.89543 1 2V15H0.5C0.223858 15 0 15.2239 0 15.5C0 15.7761 0.223858 16 0.5 16H11.5C11.7761 16 12 15.7761 12 15.5C12 15.2239 11.7761 15 11.5 15H11V11C11.5523 11 12 11.4477 12 12V12.5C12 13.3284 12.6716 14 13.5 14C14.3283 14 15 13.3287 15 12.5002V4.00001C15 3.86741 14.9473 3.74023 14.8536 3.64646L14.3536 3.14646C14.1583 2.9512 13.8417 2.9512 13.6465 3.14646L13.1465 3.64645C13.0527 3.74022 13 3.86739 13 4V7C13 7.70933 13.3793 8.09594 13.6358 8.35735L13.643 8.36477C13.8959 8.62259 14 8.74173 14 9V12.5002C14 12.7762 13.7763 13 13.5 13C13.2239 13 13 12.7761 13 12.5V12C13 10.8954 12.1046 10 11 10V2C11 0.895431 10.1046 0 9 0H3ZM10 2V15H2V2C2 1.44772 2.44772 1 3 1H9C9.55228 1 10 1.44772 10 2Z" fill="black"/>
</svg>
