<svg width="16" height="16" viewBox="0 0 16 16" fill="none" xmlns="http://www.w3.org/2000/svg">
<path d="M9.04941 0.43471C8.46984 -0.144862 7.53017 -0.144863 6.95059 0.434709L0.434679 6.95062C-0.144892 7.53019 -0.144894 8.46986 0.434678 9.04944L6.95059 15.5654C7.53016 16.1449 8.46983 16.1449 9.04941 15.5654L15.5653 9.04944C16.1449 8.46987 16.1449 7.5302 15.5653 6.95062L9.04941 0.43471ZM8 4C8.53541 4 8.95377 4.46228 8.9005 4.99504L8.54975 8.50248C8.52151 8.78492 8.28384 9 8 9C7.71616 9 7.47849 8.78492 7.45025 8.50248L7.0995 4.99504C7.04623 4.46229 7.46459 4 8 4ZM8.00154 10C8.55383 10 9.00154 10.4477 9.00154 11C9.00154 11.5523 8.55383 12 8.00154 12C7.44926 12 7.00154 11.5523 7.00154 11C7.00154 10.4477 7.44926 10 8.00154 10Z" fill="black"/>
</svg>
