<svg width="16" height="16" viewBox="0 0 16 16" fill="none" xmlns="http://www.w3.org/2000/svg">
<path d="M6.95059 0.434678C7.53017 -0.144894 8.46984 -0.144892 9.04941 0.434679L15.5653 6.95059C16.1449 7.53017 16.1449 8.46984 15.5653 9.04941L9.04941 15.5653C8.46983 16.1449 7.53016 16.1449 6.95059 15.5653L0.434678 9.04941C-0.144894 8.46983 -0.144892 7.53016 0.434679 6.95059L6.95059 0.434678ZM8.3498 1.13428C8.15661 0.941093 7.84339 0.941093 7.6502 1.13428L1.13428 7.6502C0.941093 7.84339 0.941093 8.15661 1.13428 8.3498L7.6502 14.8657C7.84339 15.0589 8.15661 15.0589 8.3498 14.8657L14.8657 8.3498C15.0589 8.15661 15.0589 7.84339 14.8657 7.6502L8.3498 1.13428Z" fill="black"/>
<path d="M7.00154 11C7.00154 10.4477 7.44926 10 8.00154 10C8.55383 10 9.00154 10.4477 9.00154 11C9.00154 11.5523 8.55383 12 8.00154 12C7.44926 12 7.00154 11.5523 7.00154 11Z" fill="black"/>
<path d="M7.0995 4.99504C7.04623 4.46228 7.46459 4 8 4C8.53541 4 8.95377 4.46228 8.9005 4.99504L8.54975 8.50248C8.52151 8.78492 8.28384 9 8 9C7.71616 9 7.47849 8.78492 7.45025 8.50248L7.0995 4.99504Z" fill="black"/>
</svg>
