<svg width="16" height="16" viewBox="0 0 16 16" fill="none" xmlns="http://www.w3.org/2000/svg">
<path d="M11.4602 0.146447C11.3664 0.0526784 11.2392 0 11.1066 0H4.8934C4.76079 0 4.63361 0.0526784 4.53984 0.146447L0.146447 4.53984C0.0526784 4.63361 0 4.76079 0 4.8934V11.1066C0 11.2392 0.0526784 11.3664 0.146447 11.4602L4.53984 15.8536C4.63361 15.9473 4.76079 16 4.8934 16H11.1066C11.2392 16 11.3664 15.9473 11.4602 15.8536L15.8536 11.4602C15.9473 11.3664 16 11.2392 16 11.1066V4.8934C16 4.76079 15.9473 4.63361 15.8536 4.53984L11.4602 0.146447ZM8 4C8.53541 4 8.95377 4.46228 8.9005 4.99504L8.54975 8.50248C8.52151 8.78492 8.28384 9 8 9C7.71616 9 7.47849 8.78492 7.45025 8.50248L7.0995 4.99504C7.04623 4.46229 7.46459 4 8 4ZM8.00154 10C8.55383 10 9.00154 10.4477 9.00154 11C9.00154 11.5523 8.55383 12 8.00154 12C7.44926 12 7.00154 11.5523 7.00154 11C7.00154 10.4477 7.44926 10 8.00154 10Z" fill="black"/>
</svg>
