<svg width="16" height="16" viewBox="0 0 16 16" fill="none" xmlns="http://www.w3.org/2000/svg">
<path d="M6.82629 10.8809H10.5V12H5.5V4.00195H10.5V5.12109H6.82629V7.40039H10.2829V8.47266H6.82629V10.8809Z" fill="black"/>
<path d="M2.5 0C1.11929 0 0 1.11929 0 2.5V13.5C0 14.8807 1.11929 16 2.5 16H13.5C14.8807 16 16 14.8807 16 13.5V2.5C16 1.11929 14.8807 0 13.5 0H2.5ZM1 2.5C1 1.67157 1.67157 1 2.5 1H13.5C14.3284 1 15 1.67157 15 2.5V13.5C15 14.3284 14.3284 15 13.5 15H2.5C1.67157 15 1 14.3284 1 13.5V2.5Z" fill="black"/>
</svg>
