<svg width="16" height="16" viewBox="0 0 16 16" fill="none" xmlns="http://www.w3.org/2000/svg">
<path d="M10.7904 12.9116L9.17617 11.2974C8.80858 11.4286 8.41263 11.5 8 11.5C6.067 11.5 4.5 9.93297 4.5 7.99998C4.5 7.58735 4.5714 7.1914 4.70253 6.82381L2.64112 4.7624C0.938717 6.279 0 7.99998 0 7.99998C0 7.99998 3 13.5 8 13.5C9.01539 13.5 9.9483 13.2732 10.7904 12.9116Z" fill="black"/>
<path d="M5.20967 3.08831C6.05172 2.7268 6.98462 2.49998 8 2.49998C13 2.49998 16 7.99998 16 7.99998C16 7.99998 15.0613 9.72095 13.3589 11.2375L11.2975 9.17612C11.4286 8.80854 11.5 8.41259 11.5 7.99998C11.5 6.06698 9.933 4.49998 8 4.49998C7.58738 4.49998 7.19144 4.57138 6.82386 4.7025L5.20967 3.08831Z" fill="black"/>
<path d="M5.52485 7.64613C5.50847 7.76172 5.5 7.87986 5.5 7.99998C5.5 9.38069 6.61929 10.5 8 10.5C8.12012 10.5 8.23825 10.4915 8.35385 10.4751L5.52485 7.64613Z" fill="black"/>
<path d="M10.4752 8.3538L7.64618 5.52482C7.76176 5.50845 7.87989 5.49998 8 5.49998C9.38071 5.49998 10.5 6.61926 10.5 7.99998C10.5 8.12008 10.4915 8.23821 10.4752 8.3538Z" fill="black"/>
<path d="M13.6464 14.3535L1.64645 2.35353L2.35355 1.64642L14.3536 13.6464L13.6464 14.3535Z" fill="black"/>
</svg>
