<svg width="16" height="16" viewBox="0 0 16 16" fill="none" xmlns="http://www.w3.org/2000/svg">
<path d="M13.3536 0.6464C12.8821 0.174996 12.1179 0.174995 11.6464 0.6464L8.5 3.79285L7.85355 3.1464C7.65829 2.95114 7.34171 2.95114 7.14645 3.1464C6.95118 3.34166 6.95118 3.65824 7.14645 3.85351L8.29289 4.99995L1.14645 12.1464C1.05268 12.2402 1 12.3673 1 12.5V14.2928L0.146447 15.1464C-0.0488155 15.3417 -0.0488155 15.6582 0.146447 15.8535C0.341709 16.0488 0.658291 16.0488 0.853553 15.8535L1.70711 15H3.5C3.63261 15 3.75979 14.9473 3.85355 14.8535L11 7.70706L12.1464 8.85351C12.3417 9.04877 12.6583 9.04877 12.8536 8.85351C13.0488 8.65825 13.0488 8.34166 12.8536 8.1464L12.2071 7.49995L15.3536 4.35351C15.825 3.8821 15.825 3.1178 15.3536 2.6464L13.3536 0.6464ZM2 12.7071L9 5.70706L10.2929 6.99995L3.29289 14H2V12.7071Z" fill="black"/>
</svg>
