<svg width="16" height="16" viewBox="0 0 16 16" fill="none" xmlns="http://www.w3.org/2000/svg">
<path d="M4 6C5.10457 6 6 6.89543 6 8C6 9.10457 5.10457 10 4 10C2.89543 10 2 9.10457 2 8C2 6.89543 2.89543 6 4 6ZM6.62541 6.54724C6.11375 5.62455 5.12981 5 4 5C2.5135 5 1.27952 6.08114 1.04148 7.5H0.5C0.223858 7.5 0 7.72386 0 8C0 8.27614 0.223858 8.5 0.5 8.5H1.04148C1.27952 9.91886 2.5135 11 4 11C5.65685 11 7 9.65685 7 8C7 7.44772 7.44772 7 8 7C8.55228 7 9 7.44772 9 8C9 9.65685 10.3431 11 12 11C13.4865 11 14.7205 9.91886 14.9585 8.5H15.5C15.7761 8.5 16 8.27614 16 8C16 7.72386 15.7761 7.5 15.5 7.5H14.9585C14.7205 6.08114 13.4865 5 12 5C10.8702 5 9.88625 5.62455 9.37459 6.54724C9.01621 6.20803 8.5324 6 8 6C7.4676 6 6.98379 6.20803 6.62541 6.54724ZM14 8C14 9.10457 13.1046 10 12 10C10.8954 10 10 9.10457 10 8C10 6.89543 10.8954 6 12 6C13.1046 6 14 6.89543 14 8Z" fill="black"/>
</svg>
