<svg width="16" height="16" viewBox="0 0 16 16" fill="none" xmlns="http://www.w3.org/2000/svg">
<path d="M10 3C10 4.3129 9.69642 5.50761 9.19983 6.39974C8.86559 6.14873 8.45016 6 7.99999 6C7.90349 6 7.80859 6.00684 7.71575 6.02005C7.43595 5.03828 6.80593 3.9791 5.8778 3.05097C5.71767 2.89084 5.55363 2.73957 5.38676 2.59745C6.1767 2.21465 7.06328 2 7.99999 2C8.69137 2 9.35544 2.11694 9.9735 2.33212C9.99099 2.5506 10 2.77354 10 3Z" fill="black"/>
<path d="M9.99999 8C9.99999 8.07339 9.99604 8.14585 9.98833 8.21719C11.0062 8.19845 12.1872 7.8641 13.3192 7.21054C13.5173 7.09615 13.7077 6.97557 13.8899 6.8498C13.5819 5.26389 12.6494 3.90098 11.3587 3.02744C11.3195 3.23864 11.2713 3.45185 11.2139 3.66608C10.8736 4.93602 10.2699 6.01268 9.55807 6.74595C9.83451 7.08897 9.99999 7.52516 9.99999 8Z" fill="black"/>
<path d="M9.86328 8.7282C9.66888 9.22527 9.28132 9.62552 8.79291 9.83666C9.31831 10.7075 10.1975 11.5617 11.3279 12.2143C11.5284 12.33 11.7304 12.4358 11.9327 12.5315C13.1005 11.5172 13.8723 10.059 13.9855 8.41954C13.7783 8.49332 13.5645 8.56004 13.3449 8.61887C12.0807 8.95761 10.8519 8.97452 9.86328 8.7282Z" fill="black"/>
<path d="M7.99999 10C7.54948 10 7.13376 9.85104 6.79939 9.5997C6.30558 10.4909 6.00388 11.6822 6.00388 12.991C6.00388 13.2211 6.01321 13.4477 6.03127 13.6695C6.64797 13.8837 7.31039 14 7.99999 14C8.94036 14 9.8302 13.7837 10.6225 13.3981C10.4538 13.2546 10.2879 13.1019 10.1261 12.94C9.20053 12.0144 8.57143 10.9585 8.29048 9.97906C8.19564 9.99286 8.09865 10 7.99999 10Z" fill="black"/>
<path d="M5.99999 8C5.99999 7.91923 6.00478 7.83957 6.01408 7.7613C4.99401 7.77805 3.80903 8.11245 2.67338 8.76812C2.47632 8.88189 2.28689 9.00179 2.10563 9.12684C2.40809 10.7186 3.33935 12.0876 4.6312 12.9657C4.67088 12.7498 4.71992 12.5317 4.77864 12.3126C5.11808 11.0458 5.71964 9.9713 6.42922 9.23814C6.16041 8.89759 5.99999 8.46753 5.99999 8Z" fill="black"/>
<path d="M2.65266 7.36838C3.91971 7.02888 5.15124 7.01266 6.14105 7.26075C6.33742 6.7674 6.72449 6.37065 7.21123 6.16155C6.68661 5.2869 5.80479 4.42833 4.66963 3.77295C4.47282 3.65932 4.27454 3.55534 4.07588 3.461C2.90662 4.47275 2.13234 5.92872 2.01541 7.56651C2.2216 7.49321 2.43427 7.4269 2.65266 7.36838Z" fill="black"/>
<path d="M7.99999 9C8.55227 9 8.99999 8.55228 8.99999 8C8.99999 7.44772 8.55227 7 7.99999 7C7.4477 7 6.99999 7.44772 6.99999 8C6.99999 8.55228 7.4477 9 7.99999 9Z" fill="black"/>
<path d="M8 15C4.13401 15 1 11.866 1 8C1 4.13401 4.13401 1 8 1C11.866 1 15 4.13401 15 8C15 11.866 11.866 15 8 15ZM8 16C12.4183 16 16 12.4183 16 8C16 3.58172 12.4183 0 8 0C3.58172 0 0 3.58172 0 8C0 12.4183 3.58172 16 8 16Z" fill="black"/>
</svg>
