<svg width="16" height="16" viewBox="0 0 16 16" fill="none" xmlns="http://www.w3.org/2000/svg">
<path d="M6.80387 8.00003L1 4.63291V11.3671L6.80387 8.00003ZM7.59643 7.30373C8.13452 7.6159 8.13452 8.38415 7.59643 8.69633L1.23279 12.3882C0.712564 12.69 0 12.3452 0 11.6919V4.30816C0 3.6549 0.712564 3.31005 1.23279 3.61186L7.59643 7.30373Z" fill="black"/>
<path d="M14.8039 8.00003L9 4.63291V11.3671L14.8039 8.00003ZM15.5964 7.30373C16.1345 7.6159 16.1345 8.38415 15.5964 8.69633L9.23279 12.3882C8.71256 12.69 8 12.3452 8 11.6919V4.30816C8 3.6549 8.71256 3.31005 9.23279 3.61186L15.5964 7.30373Z" fill="black"/>
</svg>
