<svg width="16" height="16" viewBox="0 0 16 16" fill="none" xmlns="http://www.w3.org/2000/svg">
<path d="M8 15C4.13401 15 1 11.866 1 8C1 4.13401 4.13401 1 8 1C11.866 1 15 4.13401 15 8C15 11.866 11.866 15 8 15ZM8 16C12.4183 16 16 12.4183 16 8C16 3.58172 12.4183 0 8 0C3.58172 0 0 3.58172 0 8C0 12.4183 3.58172 16 8 16Z" fill="black"/>
<path d="M4.27121 5.05542C4.43775 4.96972 4.63821 4.98427 4.79062 5.09314L8 7.38555V5.5C8 5.31271 8.10467 5.14112 8.27121 5.05542C8.43775 4.96972 8.63821 4.98427 8.79062 5.09314L12.2906 7.59313C12.422 7.68699 12.5 7.83853 12.5 8C12.5 8.16148 12.422 8.31301 12.2906 8.40687L8.79062 10.9069C8.63821 11.0157 8.43775 11.0303 8.27121 10.9446C8.10467 10.8589 8 10.6873 8 10.5V8.61445L4.79062 10.9069C4.63821 11.0157 4.43775 11.0303 4.27121 10.9446C4.10467 10.8589 4 10.6873 4 10.5V5.5C4 5.31271 4.10467 5.14112 4.27121 5.05542Z" fill="black"/>
</svg>
