<svg width="16" height="16" viewBox="0 0 16 16" fill="none" xmlns="http://www.w3.org/2000/svg">
<path d="M8.79062 5.09314C8.63821 4.98427 8.43775 4.96972 8.27121 5.05542C8.10467 5.14112 8 5.31271 8 5.5V7.38555L4.79062 5.09314C4.63821 4.98427 4.43775 4.96972 4.27121 5.05542C4.10467 5.14112 4 5.31271 4 5.5V10.5C4 10.6873 4.10467 10.8589 4.27121 10.9446C4.43775 11.0303 4.63821 11.0157 4.79062 10.9069L8 8.61445V10.5C8 10.6873 8.10467 10.8589 8.27121 10.9446C8.43775 11.0303 8.63821 11.0157 8.79062 10.9069L12.2906 8.40687C12.422 8.31301 12.5 8.16148 12.5 8C12.5 7.83853 12.422 7.68699 12.2906 7.59313L8.79062 5.09314Z" fill="black"/>
<path d="M0 4C0 2.89543 0.895431 2 2 2H14C15.1046 2 16 2.89543 16 4V12C16 13.1046 15.1046 14 14 14H2C0.895431 14 0 13.1046 0 12V4ZM15 4C15 3.44772 14.5523 3 14 3H2C1.44772 3 1 3.44772 1 4V12C1 12.5523 1.44772 13 2 13H14C14.5523 13 15 12.5523 15 12V4Z" fill="black"/>
</svg>
