<svg width="16" height="16" viewBox="0 0 16 16" fill="none" xmlns="http://www.w3.org/2000/svg">
<path d="M7.5 1.06301V10.619L6 8.81898V3C6 2.06808 6.63739 1.28503 7.5 1.06301ZM8 0C6.34315 0 5 1.34315 5 3V9C5 9.11697 5.04101 9.23024 5.11589 9.32009L7.5 12.181V15.5C7.5 15.7761 7.72386 16 8 16C8.27614 16 8.5 15.7761 8.5 15.5V12.181L10.8841 9.32009C10.959 9.23024 11 9.11697 11 9V3C11 1.34315 9.65685 0 8 0ZM8.5 1.06301C9.36261 1.28503 10 2.06808 10 3V3.29289L8.5 4.79289V1.06301ZM10 4.70711V8.81898L8.5 10.619V6.20711L10 4.70711Z" fill="black"/>
</svg>
