<svg width="16" height="16" viewBox="0 0 16 16" fill="none" xmlns="http://www.w3.org/2000/svg">
<path d="M15.8071 0.531064C15.6335 0.353712 15.3977 0.241987 15.1661 0.16843C14.9255 0.0920422 14.6432 0.0424132 14.3335 0.0179672C13.7133 -0.0309909 12.9402 0.017734 12.0825 0.193372C10.3649 0.545068 8.26419 1.41462 6.3147 3.09969C4.3643 4.78555 3.14678 6.82355 2.55716 8.52328C2.26338 9.37017 2.11706 10.1574 2.12798 10.7913C2.13343 11.1074 2.17833 11.4107 2.28243 11.6707C2.29893 11.7119 2.31728 11.7528 2.33764 11.7931C1.53074 12.9306 0.778609 14.0765 0.0799084 15.1981C-0.0715219 15.4412 -0.00137421 15.7637 0.236588 15.9184C0.474551 16.0731 0.790217 16.0014 0.941649 15.7583C1.61531 14.6769 2.33439 13.5809 3.09979 12.4975C3.38533 12.6394 3.71622 12.693 4.05758 12.6802C4.57119 12.6609 5.15629 12.4923 5.78139 12.1896C7.03046 11.5847 8.52507 10.4025 10.0838 8.54813L11.6022 6.9971C11.698 6.89922 11.7518 6.76646 11.7518 6.62804C11.7517 6.48962 11.6978 6.35689 11.602 6.25907L10.873 5.51531L12.184 5.72351C12.3466 5.74933 12.5113 5.69358 12.6267 5.57375C12.8486 5.34313 13.0713 5.11474 13.2904 4.89014C13.9532 4.21045 14.5824 3.56533 15.0533 2.99837C15.3673 2.62028 15.638 2.24588 15.8066 1.89077C15.9704 1.54576 16.0849 1.11838 15.9188 0.702731C15.8931 0.638491 15.8551 0.58013 15.8071 0.531064ZM3.73291 11.6192C5.38521 9.37357 7.24096 7.21549 9.3086 5.39391L10.5186 6.62842L9.34777 7.82441C9.33853 7.83386 9.32965 7.84366 9.32114 7.85379C7.82023 9.64254 6.42993 10.7208 5.34382 11.2468C4.79961 11.5103 4.35318 11.6249 4.02009 11.6374C3.9067 11.6417 3.81191 11.6342 3.73291 11.6192ZM10.5017 4.40039C11.8123 3.37182 13.2023 2.48602 14.6737 1.79953C14.5674 1.95645 14.4342 2.1309 14.2744 2.32333C13.8323 2.85566 13.2461 3.45678 12.5929 4.12664C12.4267 4.29711 12.2561 4.47204 12.0825 4.65144L10.5017 4.40039ZM13.8478 1.04342C9.59354 3.14733 6.04548 6.80016 3.1492 10.6778C3.15642 10.2143 3.27023 9.59161 3.51993 8.87179C4.05231 7.33708 5.16915 5.4567 6.97449 3.89622C8.78075 2.33494 10.7196 1.5366 12.2832 1.21644C12.8732 1.09563 13.4036 1.04418 13.8478 1.04342Z" fill="black"/>
</svg>
