<svg width="16" height="16" viewBox="0 0 16 16" fill="none" xmlns="http://www.w3.org/2000/svg">
<path fill-rule="evenodd" clip-rule="evenodd" d="M14 4.5V14C14 15.1046 13.1046 16 12 16V15C12.5523 15 13 14.5523 13 14V4.5H11C10.1716 4.5 9.5 3.82843 9.5 3V1H4C3.44772 1 3 1.44772 3 2V11H2V2C2 0.89543 2.89543 0 4 0H9.5L14 4.5ZM6.16148 13.6664V14.1879C6.16148 14.4438 6.12242 14.6576 6.0443 14.8295C5.96617 15.0014 5.85875 15.1303 5.72203 15.2162C5.58531 15.3002 5.42906 15.3422 5.25328 15.3422C5.07555 15.3422 4.91832 15.3002 4.7816 15.2162C4.64684 15.1303 4.54039 15.0014 4.46227 14.8295C4.38414 14.6576 4.34508 14.4438 4.34508 14.1879V13.6664C4.34508 13.4086 4.38414 13.1947 4.46227 13.0248C4.54039 12.8529 4.64684 12.724 4.7816 12.6381C4.91832 12.5522 5.07555 12.5092 5.25328 12.5092C5.42906 12.5092 5.58531 12.5522 5.72203 12.6381C5.85875 12.724 5.96617 12.8529 6.0443 13.0248C6.12242 13.1947 6.16148 13.4086 6.16148 13.6664ZM6.96422 14.185V13.6723C6.96422 13.2953 6.89586 12.9711 6.75914 12.6996C6.62242 12.4262 6.42613 12.2162 6.17027 12.0697C5.91637 11.9232 5.6107 11.85 5.25328 11.85C4.89781 11.85 4.59117 11.9232 4.33336 12.0697C4.0775 12.2143 3.88121 12.4232 3.74449 12.6967C3.60777 12.9682 3.53941 13.2934 3.53941 13.6723V14.185C3.53941 14.56 3.60777 14.8842 3.74449 15.1576C3.88121 15.4291 4.0775 15.6381 4.33336 15.7846C4.59117 15.9291 4.89781 16.0014 5.25328 16.0014C5.6107 16.0014 5.91637 15.9291 6.17027 15.7846C6.42613 15.6381 6.62242 15.4291 6.75914 15.1576C6.89586 14.8842 6.96422 14.56 6.96422 14.185ZM0 11.9262V15.9252H1.45898C1.86133 15.9252 2.19434 15.8461 2.45801 15.6879C2.72363 15.5297 2.92188 15.3002 3.05273 14.9994C3.18359 14.6986 3.24902 14.3373 3.24902 13.9154C3.24902 13.4955 3.18359 13.1371 3.05273 12.8402C2.92383 12.5434 2.72754 12.3168 2.46387 12.1606C2.2002 12.0043 1.86523 11.9262 1.45898 11.9262H0ZM0.791016 12.5707H1.35352C1.60156 12.5707 1.80469 12.6215 1.96289 12.7231C2.12305 12.8246 2.24121 12.976 2.31738 13.1772C2.39551 13.3783 2.43457 13.6293 2.43457 13.9301C2.43457 14.1566 2.41211 14.3539 2.36719 14.5219C2.32422 14.6898 2.25879 14.8305 2.1709 14.9438C2.08496 15.0551 1.97363 15.1391 1.83691 15.1957C1.7002 15.2504 1.53906 15.2777 1.35352 15.2777H0.791016V12.5707ZM8.21262 13.0541C8.14426 13.2279 8.11008 13.4389 8.11008 13.6869V14.182C8.11008 14.4281 8.14426 14.6371 8.21262 14.809C8.28098 14.9809 8.38059 15.1117 8.51145 15.2016C8.64426 15.2895 8.80344 15.3334 8.98898 15.3334C9.14133 15.3334 9.27512 15.3041 9.39035 15.2455C9.50559 15.185 9.59641 15.102 9.66281 14.9965C9.72922 14.891 9.76828 14.7699 9.78 14.6332H10.5446V14.6713V14.7094C10.531 14.9633 10.4558 15.1879 10.3191 15.3832C10.1823 15.5766 9.99875 15.7279 9.76828 15.8373C9.53781 15.9467 9.27609 16.0014 8.98312 16.0014C8.62375 16.0014 8.31906 15.9291 8.06906 15.7846C7.81906 15.6381 7.62863 15.4291 7.49777 15.1576C7.36887 14.8861 7.30441 14.5609 7.30441 14.182V13.684C7.30441 13.3051 7.36984 12.9789 7.5007 12.7055C7.63156 12.432 7.82199 12.2211 8.07199 12.0727C8.32395 11.9242 8.62766 11.85 8.98312 11.85C9.20187 11.85 9.40402 11.8822 9.58957 11.9467C9.77707 12.0092 9.94016 12.1 10.0788 12.2191C10.2175 12.3383 10.3269 12.4789 10.407 12.641C10.489 12.8031 10.5349 12.9838 10.5446 13.183V13.2211V13.2563H9.78C9.76828 13.1137 9.72824 12.9867 9.65988 12.8754C9.59348 12.7641 9.50266 12.6772 9.38742 12.6147C9.27219 12.5502 9.13937 12.518 8.98898 12.518C8.80539 12.518 8.64719 12.5639 8.51437 12.6557C8.38352 12.7475 8.28293 12.8803 8.21262 13.0541Z" fill="black"/>
</svg>
