<svg width="16" height="16" viewBox="0 0 16 16" fill="none" xmlns="http://www.w3.org/2000/svg">
<path d="M7.0498 11.8848C7.0498 13.2998 6.50195 14.0908 5.52637 14.0908C4.54785 14.0908 4 13.2998 4 11.8848C4 10.4727 4.54785 9.68164 5.52637 9.68164C6.50195 9.68164 7.0498 10.4727 7.0498 11.8848ZM5.52637 10.2734C4.98438 10.2734 4.69434 10.8359 4.69434 11.8848C4.69434 11.9727 4.69727 12.0576 4.7002 12.1367L6.25879 10.9941C6.13281 10.5195 5.88379 10.2734 5.52637 10.2734ZM4.79395 12.7812C4.91992 13.2529 5.16602 13.499 5.52637 13.499C6.06543 13.499 6.35547 12.9365 6.35547 11.8848C6.35547 11.7998 6.35254 11.7148 6.34961 11.6357L4.79395 12.7812Z" fill="black"/>
<path d="M10.8555 13.4053V14H7.85547V13.4053H9.03613V10.499H8.98633L7.84961 11.2461V10.5576L9.03906 9.77246H9.73047V13.4053H10.8555Z" fill="black"/>
<path d="M14 14V4.5L9.5 0H4C2.89543 0 2 0.89543 2 2V14C2 15.1046 2.89543 16 4 16H12C13.1046 16 14 15.1046 14 14ZM9.5 3C9.5 3.82843 10.1716 4.5 11 4.5H13V14C13 14.5523 12.5523 15 12 15H4C3.44772 15 3 14.5523 3 14V2C3 1.44772 3.44772 1 4 1H9.5V3Z" fill="black"/>
</svg>
