<svg width="16" height="16" viewBox="0 0 16 16" fill="none" xmlns="http://www.w3.org/2000/svg">
<path fill-rule="evenodd" clip-rule="evenodd" d="M14 4.5V14C14 15.1046 13.1046 16 12 16H11V15H12C12.5523 15 13 14.5523 13 14V4.5H11C10.1716 4.5 9.5 3.82843 9.5 3V1H4C3.44772 1 3 1.44772 3 2V11H2V2C2 0.89543 2.89543 0 4 0H9.5L14 4.5ZM9.65977 12.6322C9.73594 12.7846 9.78281 12.9486 9.80039 13.1244H9.02402C9.00449 13.0326 8.97227 12.9496 8.92734 12.8754C8.88242 12.8012 8.82578 12.7377 8.75742 12.685C8.69102 12.6303 8.61191 12.5883 8.52012 12.559C8.43027 12.5297 8.33066 12.515 8.22129 12.515C7.93613 12.515 7.71445 12.6156 7.55625 12.8168C7.4 13.018 7.32188 13.3012 7.32188 13.6664V14.1645C7.32188 14.3988 7.3541 14.6039 7.41855 14.7797C7.48496 14.9555 7.58652 15.0932 7.72324 15.1928C7.85996 15.2904 8.03281 15.3393 8.2418 15.3393C8.42539 15.3393 8.57773 15.307 8.69883 15.2426C8.81992 15.1762 8.91074 15.0883 8.97129 14.9789C9.03184 14.8695 9.06211 14.7484 9.06211 14.6156V14.3607H8.23887V13.7719H9.81504V14.5688C9.81504 14.7621 9.78281 14.9457 9.71836 15.1195C9.65391 15.2914 9.55625 15.4438 9.42539 15.5766C9.29453 15.7094 9.12949 15.8139 8.93027 15.89C8.73301 15.9643 8.50059 16.0014 8.23301 16.0014C7.9459 16.0014 7.69492 15.9574 7.48008 15.8695C7.26719 15.7797 7.08945 15.6537 6.94688 15.4916C6.8043 15.3295 6.69785 15.1361 6.62754 14.9115C6.55723 14.6869 6.52207 14.4389 6.52207 14.1674V13.6606C6.52207 13.2992 6.58848 12.9828 6.72129 12.7113C6.85605 12.4398 7.05039 12.2289 7.3043 12.0785C7.56016 11.9262 7.86875 11.85 8.23008 11.85C8.46836 11.85 8.68027 11.8832 8.86582 11.9496C9.05332 12.016 9.21348 12.1078 9.34629 12.225C9.4791 12.3422 9.58359 12.4779 9.65977 12.6322ZM0 14.7856C0 14.9496 0.0273438 15.1049 0.0820312 15.2514C0.136719 15.3979 0.217773 15.5277 0.325195 15.641C0.43457 15.7543 0.570312 15.8432 0.732422 15.9076C0.896484 15.9701 1.08594 16.0014 1.30078 16.0014C1.7207 16.0014 2.04883 15.8861 2.28516 15.6557C2.52344 15.4252 2.64258 15.0902 2.64258 14.6508V11.9262H1.85156V14.6713C1.85156 14.8725 1.80566 15.0277 1.71387 15.1371C1.62207 15.2465 1.48145 15.3012 1.29199 15.3012C1.19043 15.3012 1.10059 15.2797 1.02246 15.2367C0.944336 15.1918 0.882812 15.1313 0.837891 15.0551C0.792969 14.977 0.768555 14.8871 0.764648 14.7856H0ZM4.9207 11.9262H3.32109V15.9252H4.11211V14.5834H4.91484C5.20195 14.5834 5.44609 14.5258 5.64727 14.4106C5.85039 14.2934 6.00469 14.1352 6.11016 13.9359C6.21758 13.7348 6.27129 13.5092 6.27129 13.2592C6.27129 13.0092 6.21855 12.7836 6.11309 12.5824C6.00762 12.3813 5.8543 12.2221 5.65312 12.1049C5.45391 11.9857 5.20977 11.9262 4.9207 11.9262ZM5.46562 13.2592C5.46562 13.4076 5.4373 13.5346 5.38066 13.64C5.32598 13.7436 5.24687 13.8236 5.14336 13.8803C5.03984 13.935 4.91484 13.9623 4.76836 13.9623H4.10918V12.5561H4.76836C4.98711 12.5561 5.15801 12.6166 5.28105 12.7377C5.4041 12.8588 5.46562 13.0326 5.46562 13.2592Z" fill="black"/>
</svg>
