<svg width="16" height="16" viewBox="0 0 16 16" fill="none" xmlns="http://www.w3.org/2000/svg">
<path d="M6.85355 7.14645C6.65829 6.95118 6.34171 6.95118 6.14645 7.14645C5.95118 7.34171 5.95118 7.65829 6.14645 7.85355L7.29289 9L6.14645 10.1464C5.95118 10.3417 5.95118 10.6583 6.14645 10.8536C6.34171 11.0488 6.65829 11.0488 6.85355 10.8536L8 9.70711L9.14645 10.8536C9.34171 11.0488 9.65829 11.0488 9.85355 10.8536C10.0488 10.6583 10.0488 10.3417 9.85355 10.1464L8.70711 9L9.85355 7.85355C10.0488 7.65829 10.0488 7.34171 9.85355 7.14645C9.65829 6.95118 9.34171 6.95118 9.14645 7.14645L8 8.29289L6.85355 7.14645Z" fill="black"/>
<path d="M14 14V4.5L9.5 0H4C2.89543 0 2 0.89543 2 2V14C2 15.1046 2.89543 16 4 16H12C13.1046 16 14 15.1046 14 14ZM9.5 3C9.5 3.82843 10.1716 4.5 11 4.5H13V14C13 14.5523 12.5523 15 12 15H4C3.44772 15 3 14.5523 3 14V2C3 1.44772 3.44772 1 4 1H9.5V3Z" fill="black"/>
</svg>
