<svg width="16" height="16" viewBox="0 0 16 16" fill="none" xmlns="http://www.w3.org/2000/svg">
<path d="M4.99953 7.5C4.99953 6.94772 5.44725 6.5 5.99953 6.5H6.99953C7.55182 6.5 7.99953 6.94772 7.99953 7.5V8.43845L8.39914 10.0369C8.50164 10.4469 8.33534 10.8771 7.9837 11.1115L7.05423 11.7311C6.71833 11.9551 6.28073 11.9551 5.94483 11.7311L5.01536 11.1115C4.66373 10.8771 4.49742 10.4469 4.59992 10.0369L4.99953 8.43845V7.5ZM6.99953 7.5H5.99953V8.43845C5.99953 8.52021 5.9895 8.60166 5.96967 8.68098L5.57006 10.2794L6.49953 10.8991L7.429 10.2794L7.02939 8.68098C7.00956 8.60166 6.99953 8.52021 6.99953 8.43845V7.5Z" fill="black"/>
<path d="M14 4.5V14C14 15.1046 13.1046 16 12 16H4C2.89543 16 2 15.1046 2 14V2C2 0.89543 2.89543 0 4 0H9.5L14 4.5ZM11 4.5C10.1716 4.5 9.5 3.82843 9.5 3V1H7.5V2H6.5V3H7.5V4H6.5V5H7.5V6H6V5H5V4H6V3H5V2H6V1H4C3.44772 1 3 1.44772 3 2V14C3 14.5523 3.44772 15 4 15H12C12.5523 15 13 14.5523 13 14V4.5H11Z" fill="black"/>
</svg>
