<svg width="16" height="16" viewBox="0 0 16 16" fill="none" xmlns="http://www.w3.org/2000/svg">
<path d="M6 6.8831V11.1169C6 11.5056 6.42399 11.7456 6.75725 11.5457L10.2854 9.42875C10.6091 9.23455 10.6091 8.76546 10.2854 8.57125L6.75725 6.45435C6.42399 6.25439 6 6.49445 6 6.8831Z" fill="black"/>
<path d="M14 14V4.5L9.5 0H4C2.89543 0 2 0.89543 2 2V14C2 15.1046 2.89543 16 4 16H12C13.1046 16 14 15.1046 14 14ZM9.5 3C9.5 3.82843 10.1716 4.5 11 4.5H13V14C13 14.5523 12.5523 15 12 15H4C3.44772 15 3 14.5523 3 14V2C3 1.44772 3.44772 1 4 1H9.5V3Z" fill="black"/>
</svg>
