<svg width="16" height="16" viewBox="0 0 16 16" fill="none" xmlns="http://www.w3.org/2000/svg">
<path d="M10 7V8.0763C10.5392 8.24248 11 8.67317 11 9.3V11.7C11 12.5163 10.2185 13 9.5 13H6.5C5.78146 13 5 12.5163 5 11.7V9.3C5 8.67317 5.46076 8.24248 6 8.0763V7C6 5.89543 6.89543 5 8 5C9.10457 5 10 5.89543 10 7ZM7 7V8H9V7C9 6.44772 8.55228 6 8 6C7.44772 6 7 6.44772 7 7Z" fill="black"/>
<path d="M14 14V4.5L9.5 0H4C2.89543 0 2 0.89543 2 2V14C2 15.1046 2.89543 16 4 16H12C13.1046 16 14 15.1046 14 14ZM9.5 3C9.5 3.82843 10.1716 4.5 11 4.5H13V14C13 14.5523 12.5523 15 12 15H4C3.44772 15 3 14.5523 3 14V2C3 1.44772 3.44772 1 4 1H9.5V3Z" fill="black"/>
</svg>
