<svg width="16" height="16" viewBox="0 0 16 16" fill="none" xmlns="http://www.w3.org/2000/svg">
<path d="M7 7C7 6.44772 7.44772 6 8 6C8.55228 6 9 6.44772 9 7V8H7V7Z" fill="black"/>
<path d="M6 9.3C6 9.25819 6.01987 9.19304 6.10524 9.12475C6.19153 9.05572 6.32943 9 6.5 9H9.5C9.67057 9 9.80847 9.05572 9.89476 9.12475C9.98013 9.19304 10 9.25819 10 9.3V11.7C10 11.7418 9.98013 11.807 9.89476 11.8753C9.80847 11.9443 9.67057 12 9.5 12H6.5C6.32943 12 6.19153 11.9443 6.10524 11.8753C6.01987 11.807 6 11.7418 6 11.7V9.3Z" fill="black"/>
<path d="M9.29289 0H4C2.89543 0 2 0.895431 2 2V14C2 15.1046 2.89543 16 4 16H12C13.1046 16 14 15.1046 14 14V4.70711C14 4.44189 13.8946 4.18754 13.7071 4L10 0.292893C9.81246 0.105357 9.55811 0 9.29289 0ZM9.5 3.5V1.5L12.5 4.5H10.5C9.94772 4.5 9.5 4.05228 9.5 3.5ZM10 7V8.0763C10.5392 8.24248 11 8.67317 11 9.3V11.7C11 12.5163 10.2185 13 9.5 13H6.5C5.78146 13 5 12.5163 5 11.7V9.3C5 8.67317 5.46076 8.24248 6 8.0763V7C6 5.89543 6.89543 5 8 5C9.10457 5 10 5.89543 10 7Z" fill="black"/>
</svg>
