<svg width="16" height="16" viewBox="0 0 16 16" fill="none" xmlns="http://www.w3.org/2000/svg">
<path fill-rule="evenodd" clip-rule="evenodd" d="M14 4.5V14C14 15.1046 13.1046 16 12 16H11V15H12C12.5523 15 13 14.5523 13 14V4.5H11C10.1716 4.5 9.5 3.82843 9.5 3V1H4C3.44772 1 3 1.44772 3 2V11H2V2C2 0.89543 2.89543 0 4 0H9.5L14 4.5ZM2.5752 15.2016H0.785156V14.1293H2.46973V13.5229H0.785156V12.4975H2.5752V11.85H0V15.849H2.5752V15.2016ZM6.30937 11.85H5.41582L4.59258 13.2885H4.55742L3.72539 11.85H2.79375L4.02129 13.8334L2.78203 15.849H3.64336L4.4959 14.434H4.53105L5.38066 15.849H6.28887L5.03496 13.8568L6.30937 11.85ZM7.33359 15.2016H9.12363V15.849H6.54844V11.85H9.12363V12.4975H7.33359V13.5229H9.01816V14.1293H7.33359V15.2016Z" fill="black"/>
</svg>
