<svg width="16" height="16" viewBox="0 0 16 16" fill="none" xmlns="http://www.w3.org/2000/svg">
<path d="M9.29289 0H4C2.89543 0 2 0.895431 2 2V14C2 15.1046 2.89543 16 4 16H12C13.1046 16 14 15.1046 14 14V4.70711C14 4.44189 13.8946 4.18754 13.7071 4L10 0.292893C9.81246 0.105357 9.55811 0 9.29289 0ZM9.5 3.5V1.5L12.5 4.5H10.5C9.94772 4.5 9.5 4.05228 9.5 3.5ZM6 6.8831C6 6.49445 6.42399 6.25439 6.75725 6.45435L10.2854 8.57125C10.6091 8.76546 10.6091 9.23455 10.2854 9.42875L6.75725 11.5457C6.42399 11.7456 6 11.5056 6 11.1169V6.8831Z" fill="black"/>
</svg>
