<svg width="16" height="16" viewBox="0 0 16 16" fill="none" xmlns="http://www.w3.org/2000/svg">
<path fill-rule="evenodd" clip-rule="evenodd" d="M14 4.5V11H13V4.5H11C10.1716 4.5 9.5 3.82843 9.5 3V1H4C3.44772 1 3 1.44772 3 2V11H2V2C2 0.89543 2.89543 0 4 0H9.5L14 4.5ZM1.40997 15.2895C1.34357 15.1488 1.30646 14.9994 1.29865 14.8412H2.06329C2.07697 14.9174 2.10529 14.9887 2.14825 15.0551C2.19122 15.1195 2.24786 15.1762 2.31818 15.225C2.38849 15.2738 2.4715 15.3119 2.5672 15.3393C2.6629 15.3666 2.76935 15.3803 2.88654 15.3803C3.0506 15.3803 3.18829 15.3568 3.29962 15.31C3.4129 15.2631 3.49786 15.1986 3.5545 15.1166C3.61115 15.0326 3.63947 14.9359 3.63947 14.8266C3.63947 14.6879 3.58868 14.5795 3.48712 14.5014C3.38556 14.4213 3.23126 14.3568 3.02423 14.308L2.40607 14.1645C2.19904 14.1176 2.01935 14.0463 1.867 13.9506C1.71466 13.8549 1.59747 13.7328 1.51544 13.5844C1.43341 13.4359 1.3924 13.2611 1.3924 13.06C1.3924 12.8158 1.45587 12.6029 1.58282 12.4213C1.70978 12.2396 1.88556 12.099 2.11017 11.9994C2.33478 11.8998 2.59357 11.85 2.88654 11.85C3.19122 11.85 3.45099 11.9008 3.66583 12.0023C3.88263 12.1039 4.04962 12.2406 4.16681 12.4125C4.28595 12.5824 4.35236 12.7709 4.36603 12.9779H3.61603C3.59845 12.8822 3.55841 12.7963 3.49591 12.7201C3.43536 12.6439 3.35333 12.5834 3.24982 12.5385C3.1463 12.4936 3.02325 12.4711 2.88068 12.4711C2.66388 12.4711 2.49298 12.5219 2.36798 12.6234C2.24493 12.723 2.18341 12.851 2.18341 13.0072C2.18341 13.1283 2.23126 13.2279 2.32697 13.3061C2.42267 13.3842 2.55743 13.4428 2.73126 13.4818L3.35236 13.6254C3.56915 13.6742 3.75763 13.7445 3.91779 13.8363C4.07794 13.9262 4.20294 14.0453 4.29279 14.1937C4.38263 14.3422 4.42755 14.5287 4.42755 14.7533C4.42755 15.0014 4.36505 15.2201 4.24005 15.4096C4.117 15.5971 3.93732 15.7436 3.70099 15.849C3.46661 15.9545 3.18048 16.0072 2.84259 16.0072C2.58868 16.0072 2.367 15.977 2.17755 15.9164C1.9881 15.8559 1.82892 15.7719 1.70001 15.6645C1.57306 15.5551 1.47638 15.4301 1.40997 15.2895ZM5.59825 14.9027L5.28478 15.9311H4.48497L5.82677 11.932H6.75255L8.08849 15.9311H7.24767L6.93419 14.9027H5.59825ZM6.77599 14.3139L6.28673 12.6967H6.25157L5.76232 14.3139H6.77599ZM8.12833 14.8412C8.13615 14.9994 8.17325 15.1488 8.23966 15.2895C8.30607 15.4301 8.40275 15.5551 8.5297 15.6645C8.65861 15.7719 8.81779 15.8559 9.00724 15.9164C9.19669 15.977 9.41837 16.0072 9.67228 16.0072C10.0102 16.0072 10.2963 15.9545 10.5307 15.849C10.767 15.7436 10.9467 15.5971 11.0697 15.4096C11.1947 15.2201 11.2572 15.0014 11.2572 14.7533C11.2572 14.5287 11.2123 14.3422 11.1225 14.1937C11.0326 14.0453 10.9076 13.9262 10.7475 13.8363C10.5873 13.7445 10.3988 13.6742 10.182 13.6254L9.56095 13.4818C9.38712 13.4428 9.25236 13.3842 9.15665 13.3061C9.06095 13.2279 9.0131 13.1283 9.0131 13.0072C9.0131 12.851 9.07462 12.723 9.19767 12.6234C9.32267 12.5219 9.49357 12.4711 9.71036 12.4711C9.85294 12.4711 9.97599 12.4936 10.0795 12.5385C10.183 12.5834 10.2651 12.6439 10.3256 12.7201C10.3881 12.7963 10.4281 12.8822 10.4457 12.9779H11.1957C11.182 12.7709 11.1156 12.5824 10.9965 12.4125C10.8793 12.2406 10.7123 12.1039 10.4955 12.0023C10.2807 11.9008 10.0209 11.85 9.71622 11.85C9.42325 11.85 9.16447 11.8998 8.93986 11.9994C8.71525 12.099 8.53947 12.2396 8.41251 12.4213C8.28556 12.6029 8.22208 12.8158 8.22208 13.06C8.22208 13.2611 8.2631 13.4359 8.34513 13.5844C8.42716 13.7328 8.54435 13.8549 8.69669 13.9506C8.84904 14.0463 9.02872 14.1176 9.23575 14.1645L9.85392 14.308C10.061 14.3568 10.2152 14.4213 10.3168 14.5014C10.4184 14.5795 10.4692 14.6879 10.4692 14.8266C10.4692 14.9359 10.4408 15.0326 10.3842 15.1166C10.3276 15.1986 10.2426 15.2631 10.1293 15.31C10.018 15.3568 9.88029 15.3803 9.71622 15.3803C9.59904 15.3803 9.49259 15.3666 9.39689 15.3393C9.30118 15.3119 9.21818 15.2738 9.14786 15.225C9.07755 15.1762 9.02091 15.1195 8.97794 15.0551C8.93497 14.9887 8.90665 14.9174 8.89298 14.8412H8.12833ZM11.6311 15.2895C11.5647 15.1488 11.5276 14.9994 11.5197 14.8412H12.2844C12.2981 14.9174 12.3264 14.9887 12.3693 15.0551C12.4123 15.1195 12.469 15.1762 12.5393 15.225C12.6096 15.2738 12.6926 15.3119 12.7883 15.3393C12.884 15.3666 12.9904 15.3803 13.1076 15.3803C13.2717 15.3803 13.4094 15.3568 13.5207 15.31C13.634 15.2631 13.719 15.1986 13.7756 15.1166C13.8322 15.0326 13.8606 14.9359 13.8606 14.8266C13.8606 14.6879 13.8098 14.5795 13.7082 14.5014C13.6067 14.4213 13.4524 14.3568 13.2453 14.308L12.6272 14.1645C12.4201 14.1176 12.2404 14.0463 12.0881 13.9506C11.9358 13.8549 11.8186 13.7328 11.7365 13.5844C11.6545 13.4359 11.6135 13.2611 11.6135 13.06C11.6135 12.8158 11.677 12.6029 11.8039 12.4213C11.9309 12.2396 12.1067 12.099 12.3313 11.9994C12.5559 11.8998 12.8147 11.85 13.1076 11.85C13.4123 11.85 13.6721 11.9008 13.8869 12.0023C14.1037 12.1039 14.2707 12.2406 14.3879 12.4125C14.507 12.5824 14.5735 12.7709 14.5871 12.9779H13.8371C13.8195 12.8822 13.7795 12.7963 13.717 12.7201C13.6565 12.6439 13.5744 12.5834 13.4709 12.5385C13.3674 12.4936 13.2443 12.4711 13.1018 12.4711C12.885 12.4711 12.7141 12.5219 12.5891 12.6234C12.466 12.723 12.4045 12.851 12.4045 13.0072C12.4045 13.1283 12.4524 13.2279 12.5481 13.3061C12.6438 13.3842 12.7785 13.4428 12.9524 13.4818L13.5735 13.6254C13.7902 13.6742 13.9787 13.7445 14.1389 13.8363C14.299 13.9262 14.424 14.0453 14.5139 14.1937C14.6037 14.3422 14.6486 14.5287 14.6486 14.7533C14.6486 15.0014 14.5861 15.2201 14.4611 15.4096C14.3381 15.5971 14.1584 15.7436 13.9221 15.849C13.6877 15.9545 13.4016 16.0072 13.0637 16.0072C12.8098 16.0072 12.5881 15.977 12.3986 15.9164C12.2092 15.8559 12.05 15.7719 11.9211 15.6645C11.7942 15.5551 11.6975 15.4301 11.6311 15.2895Z" fill="black"/>
</svg>
