<svg width="16" height="16" viewBox="0 0 16 16" fill="none" xmlns="http://www.w3.org/2000/svg">
<path fill-rule="evenodd" clip-rule="evenodd" d="M14 4.5V14C14 15.1046 13.1046 16 12 16V15C12.5523 15 13 14.5523 13 14V4.5H11C10.1716 4.5 9.5 3.82843 9.5 3V1H4C3.44772 1 3 1.44772 3 2V11H2V2C2 0.89543 2.89543 0 4 0H9.5L14 4.5ZM0 15.849H1.66406C1.93555 15.849 2.17578 15.8051 2.38477 15.7172C2.59375 15.6273 2.75781 15.4984 2.87695 15.3305C2.99609 15.1625 3.05566 14.9594 3.05566 14.7211C3.05566 14.5199 3.01465 14.35 2.93262 14.2113C2.85254 14.0707 2.74512 13.9623 2.61035 13.8861C2.47559 13.808 2.32715 13.7611 2.16504 13.7455V13.7104C2.29785 13.6772 2.41504 13.6234 2.5166 13.5492C2.62012 13.4731 2.70117 13.3754 2.75977 13.2563C2.82031 13.1352 2.85059 12.9945 2.85059 12.8344C2.85059 12.5258 2.74316 12.2846 2.52832 12.1107C2.31348 11.9369 2.02734 11.85 1.66992 11.85H0V15.849ZM0.785156 12.4447H1.48535C1.6709 12.4447 1.81445 12.4916 1.91602 12.5854C2.01953 12.6772 2.07129 12.8051 2.07129 12.9691C2.07129 13.0844 2.04395 13.183 1.98926 13.265C1.93652 13.3451 1.85352 13.4066 1.74023 13.4496C1.62891 13.4926 1.48438 13.5141 1.30664 13.5141H0.785156V12.4447ZM0.785156 14.0648H1.53516C1.68945 14.0648 1.82031 14.0893 1.92773 14.1381C2.03516 14.1869 2.11523 14.2572 2.16797 14.349C2.22266 14.4389 2.25 14.5473 2.25 14.6742C2.25 14.8637 2.18164 15.0082 2.04492 15.1078C1.9082 15.2055 1.68457 15.2543 1.37402 15.2543H0.785156V14.0648ZM4.25859 15.849V13.1889H4.29668L5.24883 15.3481H5.76445L6.71074 13.1889H6.74883V15.849H7.46367V11.85H6.66387L5.52422 14.4457H5.49785L4.3582 11.85H3.55254V15.849H4.25859ZM8.17734 11.85H9.77695C10.066 11.85 10.3102 11.9096 10.5094 12.0287C10.7105 12.1459 10.8639 12.3051 10.9693 12.5063C11.0748 12.7074 11.1275 12.933 11.1275 13.183C11.1275 13.433 11.0738 13.6586 10.9664 13.8598C10.8609 14.059 10.7066 14.2172 10.5035 14.3344C10.3023 14.4496 10.0582 14.5072 9.77109 14.5072H8.96836V15.849H8.17734V11.85ZM10.2369 13.5639C10.2936 13.4584 10.3219 13.3315 10.3219 13.183C10.3219 12.9565 10.2604 12.7826 10.1373 12.6615C10.0143 12.5404 9.84336 12.4799 9.62461 12.4799H8.96543V13.8861H9.62461C9.77109 13.8861 9.89609 13.8588 9.99961 13.8041C10.1031 13.7475 10.1822 13.6674 10.2369 13.5639Z" fill="black"/>
</svg>
