<svg width="16" height="16" viewBox="0 0 16 16" fill="none" xmlns="http://www.w3.org/2000/svg">
<path d="M8.5 11.5C8.5 11.7761 8.27614 12 8 12C7.72386 12 7.5 11.7761 7.5 11.5V7.70711L6.35355 8.85355C6.15829 9.04882 5.84171 9.04882 5.64645 8.85355C5.45118 8.65829 5.45118 8.34171 5.64645 8.14645L7.64645 6.14645C7.84171 5.95118 8.15829 5.95118 8.35355 6.14645L10.3536 8.14645C10.5488 8.34171 10.5488 8.65829 10.3536 8.85355C10.1583 9.04882 9.84171 9.04882 9.64645 8.85355L8.5 7.70711V11.5Z" fill="black"/>
<path d="M14 14V4.5L9.5 0H4C2.89543 0 2 0.89543 2 2V14C2 15.1046 2.89543 16 4 16H12C13.1046 16 14 15.1046 14 14ZM9.5 3C9.5 3.82843 10.1716 4.5 11 4.5H13V14C13 14.5523 12.5523 15 12 15H4C3.44772 15 3 14.5523 3 14V2C3 1.44772 3.44772 1 4 1H9.5V3Z" fill="black"/>
</svg>
