<svg width="16" height="16" viewBox="0 0 16 16" fill="none" xmlns="http://www.w3.org/2000/svg">
<path d="M2 2C2 0.89543 2.89543 0 4 0H12C13.1046 0 14 0.89543 14 2V14C14 15.1046 13.1046 16 12 16H4C2.89543 16 2 15.1046 2 14V2ZM12 1H4C3.44772 1 3 1.44772 3 2V14C3 14.5523 3.44772 15 4 15H12C12.5523 15 13 14.5523 13 14V2C13 1.44772 12.5523 1 12 1Z" fill="black"/>
<path d="M6 5C6 4.44772 6.44772 4 7 4H8.1875C9.70628 4 10.9375 5.23122 10.9375 6.75C10.9375 8.26878 9.70628 9.5 8.1875 9.5H7V11.5C7 11.7761 6.77614 12 6.5 12C6.22386 12 6 11.7761 6 11.5V5ZM7 8.5H8.1875C9.154 8.5 9.9375 7.7165 9.9375 6.75C9.9375 5.7835 9.154 5 8.1875 5H7V8.5Z" fill="black"/>
</svg>
