<svg width="16" height="16" viewBox="0 0 16 16" fill="none" xmlns="http://www.w3.org/2000/svg">
<path fill-rule="evenodd" clip-rule="evenodd" d="M14 4.5V11H13V4.5H11C10.1716 4.5 9.5 3.82843 9.5 3V1H4C3.44772 1 3 1.44772 3 2V11H2V2C2 0.89543 2.89543 0 4 0H9.5L14 4.5ZM7.16148 14.1879V13.6664C7.16148 13.4086 7.12242 13.1947 7.0443 13.0248C6.96617 12.8529 6.85875 12.724 6.72203 12.6381C6.58531 12.5522 6.42906 12.5092 6.25328 12.5092C6.07555 12.5092 5.91832 12.5522 5.7816 12.6381C5.64684 12.724 5.54039 12.8529 5.46227 13.0248C5.38414 13.1947 5.34508 13.4086 5.34508 13.6664V14.1879C5.34508 14.4438 5.38414 14.6576 5.46227 14.8295C5.54039 15.0014 5.64684 15.1303 5.7816 15.2162C5.91832 15.3002 6.07555 15.3422 6.25328 15.3422C6.42906 15.3422 6.58531 15.3002 6.72203 15.2162C6.85875 15.1303 6.96617 15.0014 7.0443 14.8295C7.12242 14.6576 7.16148 14.4438 7.16148 14.1879ZM7.96422 13.6723V14.185C7.96422 14.56 7.89586 14.8842 7.75914 15.1576C7.62242 15.4291 7.42613 15.6381 7.17027 15.7846C6.91637 15.9291 6.6107 16.0014 6.25328 16.0014C5.89781 16.0014 5.59117 15.9291 5.33336 15.7846C5.0775 15.6381 4.88121 15.4291 4.74449 15.1576C4.60777 14.8842 4.53941 14.56 4.53941 14.185V13.6723C4.53941 13.2934 4.60777 12.9682 4.74449 12.6967C4.88121 12.4232 5.0775 12.2143 5.33336 12.0697C5.59117 11.9232 5.89781 11.85 6.25328 11.85C6.6107 11.85 6.91637 11.9232 7.17027 12.0697C7.42613 12.2162 7.62242 12.4262 7.75914 12.6996C7.89586 12.9711 7.96422 13.2953 7.96422 13.6723ZM1 15.9252V11.9262H2.45898C2.86523 11.9262 3.2002 12.0043 3.46387 12.1606C3.72754 12.3168 3.92383 12.5434 4.05273 12.8402C4.18359 13.1371 4.24902 13.4955 4.24902 13.9154C4.24902 14.3373 4.18359 14.6986 4.05273 14.9994C3.92188 15.3002 3.72363 15.5297 3.45801 15.6879C3.19434 15.8461 2.86133 15.9252 2.45898 15.9252H1ZM2.35352 12.5707H1.79102V15.2777H2.35352C2.53906 15.2777 2.7002 15.2504 2.83691 15.1957C2.97363 15.1391 3.08496 15.0551 3.1709 14.9438C3.25879 14.8305 3.32422 14.6898 3.36719 14.5219C3.41211 14.3539 3.43457 14.1566 3.43457 13.9301C3.43457 13.6293 3.39551 13.3783 3.31738 13.1772C3.24121 12.976 3.12305 12.8246 2.96289 12.7231C2.80469 12.6215 2.60156 12.5707 2.35352 12.5707ZM9.11008 13.6869C9.11008 13.4389 9.14426 13.2279 9.21262 13.0541C9.28293 12.8803 9.38352 12.7475 9.51437 12.6557C9.64719 12.5639 9.80539 12.518 9.98898 12.518C10.1394 12.518 10.2722 12.5502 10.3874 12.6147C10.5027 12.6772 10.5935 12.7641 10.6599 12.8754C10.7282 12.9867 10.7683 13.1137 10.78 13.2563H11.5446V13.2211V13.183C11.5349 12.9838 11.489 12.8031 11.407 12.641C11.3269 12.4789 11.2175 12.3383 11.0788 12.2191C10.9402 12.1 10.7771 12.0092 10.5896 11.9467C10.404 11.8822 10.2019 11.85 9.98312 11.85C9.62766 11.85 9.32395 11.9242 9.07199 12.0727C8.82199 12.2211 8.63156 12.432 8.5007 12.7055C8.36984 12.9789 8.30441 13.3051 8.30441 13.684V14.182C8.30441 14.5609 8.36887 14.8861 8.49777 15.1576C8.62863 15.4291 8.81906 15.6381 9.06906 15.7846C9.31906 15.9291 9.62375 16.0014 9.98312 16.0014C10.2761 16.0014 10.5378 15.9467 10.7683 15.8373C10.9987 15.7279 11.1823 15.5766 11.3191 15.3832C11.4558 15.1879 11.531 14.9633 11.5446 14.7094V14.6713V14.6332H10.78C10.7683 14.7699 10.7292 14.891 10.6628 14.9965C10.5964 15.102 10.5056 15.185 10.3904 15.2455C10.2751 15.3041 10.1413 15.3334 9.98898 15.3334C9.80344 15.3334 9.64426 15.2895 9.51145 15.2016C9.38059 15.1117 9.28098 14.9809 9.21262 14.809C9.14426 14.6371 9.11008 14.4281 9.11008 14.182V13.6869ZM14.2022 11.9262H15.0958L13.8214 13.933L15.0753 15.9252H14.1671L13.3175 14.5102H13.2823L12.4298 15.9252H11.5684L12.8077 13.9096L11.5802 11.9262H12.5118L13.3438 13.3647H13.379L14.2022 11.9262Z" fill="black"/>
</svg>
