<svg width="16" height="16" viewBox="0 0 16 16" fill="none" xmlns="http://www.w3.org/2000/svg">
<path d="M5.52637 13.0908C6.50195 13.0908 7.0498 12.2998 7.0498 10.8848C7.0498 9.47266 6.50195 8.68164 5.52637 8.68164C4.54785 8.68164 4 9.47266 4 10.8848C4 12.2998 4.54785 13.0908 5.52637 13.0908ZM4.69434 10.8848C4.69434 9.83594 4.98438 9.27344 5.52637 9.27344C5.88379 9.27344 6.13281 9.51953 6.25879 9.99414L4.7002 11.1367C4.69727 11.0576 4.69434 10.9727 4.69434 10.8848ZM5.52637 12.499C5.16602 12.499 4.91992 12.2529 4.79395 11.7812L6.34961 10.6357C6.35254 10.7148 6.35547 10.7998 6.35547 10.8848C6.35547 11.9365 6.06543 12.499 5.52637 12.499Z" fill="black"/>
<path d="M10.8555 13V12.4053H9.73047V8.77246H9.03906L7.84961 9.55762V10.2461L8.98633 9.49902H9.03613V12.4053H7.85547V13H10.8555Z" fill="black"/>
<path d="M4 0C2.89543 0 2 0.89543 2 2V14C2 15.1046 2.89543 16 4 16H12C13.1046 16 14 15.1046 14 14V2C14 0.89543 13.1046 0 12 0H4ZM4 1H12C12.5523 1 13 1.44772 13 2V14C13 14.5523 12.5523 15 12 15H4C3.44772 15 3 14.5523 3 14V2C3 1.44772 3.44772 1 4 1Z" fill="black"/>
</svg>
