<svg width="16" height="16" viewBox="0 0 16 16" fill="none" xmlns="http://www.w3.org/2000/svg">
<path d="M14 14V4.5L9.5 0H4C2.89543 0 2 0.89543 2 2V14C2 15.1046 2.89543 16 4 16H12C13.1046 16 14 15.1046 14 14ZM9.5 3C9.5 3.82843 10.1716 4.5 11 4.5H13V14C13 14.5523 12.5523 15 12 15H4C3.44772 15 3 14.5523 3 14V2C3 1.44772 3.44772 1 4 1H9.5V3Z" fill="black"/>
<path d="M4.60308 14.0867C4.39492 14.0107 4.25502 13.8484 4.16469 13.6678C3.97023 13.2789 4.03479 12.8911 4.24538 12.5646C4.4432 12.2579 4.77107 11.9972 5.14157 11.7784C5.55866 11.532 6.0723 11.3142 6.62412 11.1333C6.83122 10.7616 7.03391 10.3665 7.22354 9.96491C7.39178 9.60862 7.54761 9.25179 7.68581 8.90631C7.49421 8.45887 7.34401 8.01665 7.25638 7.61141C7.16979 7.21094 7.13709 6.81475 7.20953 6.47496C7.28496 6.12116 7.48355 5.80276 7.86079 5.65187C8.05235 5.57525 8.25998 5.53151 8.46215 5.57474C8.68338 5.62205 8.84316 5.76145 8.93893 5.93994C9.02715 6.10438 9.05908 6.29557 9.06587 6.47828C9.07284 6.66551 9.05431 6.87351 9.01863 7.09178C8.93529 7.60167 8.74812 8.22639 8.49839 8.88638C8.64647 9.20416 8.81663 9.5258 9.00129 9.83738C9.15468 10.0962 9.31534 10.3435 9.47821 10.5722C9.97315 10.5409 10.4329 10.5537 10.8131 10.6221C11.177 10.6875 11.5471 10.8173 11.773 11.0868C11.8939 11.2311 11.9659 11.4071 11.9731 11.6054C11.9801 11.7972 11.9259 11.9868 11.8355 12.1677C11.751 12.3366 11.6356 12.4829 11.4809 12.5842C11.3229 12.6875 11.1471 12.7286 10.9713 12.7216C10.64 12.7083 10.3173 12.5258 10.0377 12.305C9.73718 12.0677 9.42668 11.7377 9.12697 11.3553C8.8067 11.3901 8.46939 11.4429 8.12731 11.5124C7.78883 11.5812 7.45236 11.665 7.13014 11.7609C6.79218 12.3441 6.44175 12.8697 6.10906 13.2707C5.81838 13.6211 5.50132 13.9266 5.18301 14.0577C5.01465 14.1271 4.8099 14.1622 4.60308 14.0867ZM5.98158 12.1859C5.81603 12.2623 5.66217 12.3419 5.52298 12.4241C5.19504 12.6178 4.98181 12.8065 4.87564 12.9711C4.78226 13.1159 4.77995 13.2212 4.83551 13.3323C4.84627 13.3539 4.85527 13.3678 4.86178 13.3764C4.87007 13.3743 4.88173 13.3707 4.89731 13.3643C5.03409 13.3079 5.25219 13.129 5.53183 12.7919C5.67695 12.6169 5.82805 12.4126 5.98158 12.1859ZM7.62199 10.8551C7.74064 10.8274 7.85945 10.8015 7.97793 10.7774C8.19565 10.7332 8.41477 10.6946 8.63205 10.6627C8.53723 10.5179 8.44498 10.3697 8.35609 10.2198C8.27548 10.0837 8.19695 9.94507 8.12119 9.80476C8.05032 9.96531 7.97698 10.1258 7.90172 10.2852C7.81154 10.4761 7.71802 10.6667 7.62199 10.8551ZM10.0682 11.3068C10.2177 11.4685 10.3639 11.6069 10.5026 11.7164C10.7431 11.9064 10.9103 11.9685 11.0014 11.9722C11.0369 11.9736 11.0554 11.9663 11.0702 11.9566C11.0882 11.9448 11.1241 11.9134 11.1646 11.8323C11.2167 11.7282 11.2247 11.6644 11.2236 11.6327C11.2227 11.6076 11.2162 11.59 11.1982 11.5686C11.1464 11.5069 10.9973 11.4172 10.6803 11.3602C10.5023 11.3282 10.2959 11.3106 10.0682 11.3068ZM8.07842 7.79874C8.17027 7.49408 8.23868 7.21415 8.27845 6.9708C8.30918 6.78282 8.32091 6.62754 8.31639 6.50617C8.31244 6.3999 8.29664 6.33865 8.28437 6.30827C8.26023 6.3102 8.21402 6.31835 8.13933 6.34823C8.05234 6.38302 7.98088 6.4539 7.94305 6.63134C7.90224 6.82278 7.91309 7.0998 7.98944 7.45289C8.01349 7.56409 8.04332 7.67969 8.07842 7.79874Z" fill="black"/>
</svg>
