<svg width="16" height="16" viewBox="0 0 16 16" fill="none" xmlns="http://www.w3.org/2000/svg">
<path fill-rule="evenodd" clip-rule="evenodd" d="M14 4.5V14C14 15.1046 13.1046 16 12 16V15C12.5523 15 13 14.5523 13 14V4.5H11C10.1716 4.5 9.5 3.82843 9.5 3V1H4C3.44772 1 3 1.44772 3 2V11H2V2C2 0.89543 2.89543 0 4 0H9.5L14 4.5ZM0 14.8412C0.0078125 14.9994 0.0449219 15.1488 0.111328 15.2895C0.177734 15.4301 0.274414 15.5551 0.401367 15.6645C0.530273 15.7719 0.689453 15.8559 0.878906 15.9164C1.06836 15.977 1.29004 16.0072 1.54395 16.0072C1.88184 16.0072 2.16797 15.9545 2.40234 15.849C2.63867 15.7436 2.81836 15.5971 2.94141 15.4096C3.06641 15.2201 3.12891 15.0014 3.12891 14.7533C3.12891 14.5287 3.08398 14.3422 2.99414 14.1938C2.9043 14.0453 2.7793 13.9262 2.61914 13.8363C2.45898 13.7445 2.27051 13.6742 2.05371 13.6254L1.43262 13.4818C1.25879 13.4428 1.12402 13.3842 1.02832 13.3061C0.932617 13.2279 0.884766 13.1283 0.884766 13.0072C0.884766 12.851 0.946289 12.7231 1.06934 12.6234C1.19434 12.5219 1.36523 12.4711 1.58203 12.4711C1.72461 12.4711 1.84766 12.4936 1.95117 12.5385C2.05469 12.5834 2.13672 12.644 2.19727 12.7201C2.25977 12.7963 2.2998 12.8822 2.31738 12.9779H3.06738C3.05371 12.7709 2.9873 12.5824 2.86816 12.4125C2.75098 12.2406 2.58398 12.1039 2.36719 12.0023C2.15234 11.9008 1.89258 11.85 1.58789 11.85C1.29492 11.85 1.03613 11.8998 0.811523 11.9994C0.586914 12.099 0.411133 12.2397 0.28418 12.4213C0.157227 12.6029 0.09375 12.8158 0.09375 13.06C0.09375 13.2611 0.134766 13.4359 0.216797 13.5844C0.298828 13.7328 0.416016 13.8549 0.568359 13.9506C0.720703 14.0463 0.900391 14.1176 1.10742 14.1645L1.72559 14.308C1.93262 14.3568 2.08691 14.4213 2.18848 14.5014C2.29004 14.5795 2.34082 14.6879 2.34082 14.8266C2.34082 14.9359 2.3125 15.0326 2.25586 15.1166C2.19922 15.1986 2.11426 15.2631 2.00098 15.31C1.88965 15.3568 1.75195 15.3803 1.58789 15.3803C1.4707 15.3803 1.36426 15.3666 1.26855 15.3393C1.17285 15.3119 1.08984 15.2738 1.01953 15.225C0.949219 15.1762 0.892578 15.1195 0.849609 15.0551C0.806641 14.9887 0.77832 14.9174 0.764648 14.8412H0ZM4.575 15.9311H5.52715L6.8543 11.932H5.97539L5.0877 15.0697H5.04961L4.15312 11.932H3.23613L4.575 15.9311ZM10.0582 12.6381C10.1344 12.7904 10.1812 12.9545 10.1988 13.1303H9.42246C9.40293 13.0385 9.3707 12.9555 9.32578 12.8813C9.28086 12.807 9.22422 12.7436 9.15586 12.6908C9.08945 12.6361 9.01035 12.5941 8.91855 12.5648C8.82871 12.5356 8.7291 12.5209 8.61973 12.5209C8.33457 12.5209 8.11289 12.6215 7.95469 12.8227C7.79844 13.0238 7.72031 13.307 7.72031 13.6723V14.1703C7.72031 14.4047 7.75254 14.6098 7.81699 14.7856C7.8834 14.9613 7.98496 15.099 8.12168 15.1986C8.2584 15.2963 8.43125 15.3451 8.64023 15.3451C8.82383 15.3451 8.97617 15.3129 9.09727 15.2484C9.21836 15.182 9.30918 15.0941 9.36973 14.9848C9.43027 14.8754 9.46055 14.7543 9.46055 14.6215V14.3666H8.6373V13.7777H10.2135V14.5746C10.2135 14.768 10.1812 14.9516 10.1168 15.1254C10.0523 15.2973 9.95469 15.4496 9.82383 15.5824C9.69297 15.7152 9.52793 15.8197 9.32871 15.8959C9.13144 15.9701 8.89902 16.0072 8.63144 16.0072C8.34434 16.0072 8.09336 15.9633 7.87852 15.8754C7.66562 15.7856 7.48789 15.6596 7.34531 15.4975C7.20273 15.3354 7.09629 15.142 7.02598 14.9174C6.95566 14.6928 6.92051 14.4447 6.92051 14.1732V13.6664C6.92051 13.3051 6.98691 12.9887 7.11973 12.7172C7.25449 12.4457 7.44883 12.2348 7.70273 12.0844C7.95859 11.932 8.26719 11.8559 8.62852 11.8559C8.8668 11.8559 9.07871 11.8891 9.26426 11.9555C9.45176 12.0219 9.61191 12.1137 9.74473 12.2309C9.87754 12.3481 9.98203 12.4838 10.0582 12.6381Z" fill="black"/>
</svg>
