<svg width="16" height="16" viewBox="0 0 16 16" fill="none" xmlns="http://www.w3.org/2000/svg">
<path fill-rule="evenodd" clip-rule="evenodd" d="M14 4.5V14C14 15.1046 13.1046 16 12 16H11V15H12C12.5523 15 13 14.5523 13 14V4.5H11C10.1716 4.5 9.5 3.82843 9.5 3V1H4C3.44772 1 3 1.44772 3 2V11H2V2C2 0.89543 2.89543 0 4 0H9.5L14 4.5ZM3.51738 14.8412C3.5252 14.9994 3.5623 15.1488 3.62871 15.2895C3.69512 15.4301 3.7918 15.5551 3.91875 15.6645C4.04766 15.7719 4.20684 15.8559 4.39629 15.9164C4.58574 15.977 4.80742 16.0072 5.06133 16.0072C5.39922 16.0072 5.68535 15.9545 5.91973 15.849C6.15605 15.7436 6.33574 15.5971 6.45879 15.4096C6.58379 15.2201 6.64629 15.0014 6.64629 14.7533C6.64629 14.5287 6.60137 14.3422 6.51152 14.1937C6.42168 14.0453 6.29668 13.9262 6.13652 13.8363C5.97637 13.7445 5.78789 13.6742 5.57109 13.6254L4.95 13.4818C4.77617 13.4428 4.64141 13.3842 4.5457 13.3061C4.45 13.2279 4.40215 13.1283 4.40215 13.0072C4.40215 12.851 4.46367 12.723 4.58672 12.6234C4.71172 12.5219 4.88262 12.4711 5.09941 12.4711C5.24199 12.4711 5.36504 12.4936 5.46855 12.5385C5.57207 12.5834 5.6541 12.6439 5.71465 12.7201C5.77715 12.7963 5.81719 12.8822 5.83477 12.9779H6.58477C6.57109 12.7709 6.50469 12.5824 6.38555 12.4125C6.26836 12.2406 6.10137 12.1039 5.88457 12.0023C5.66973 11.9008 5.40996 11.85 5.10527 11.85C4.8123 11.85 4.55352 11.8998 4.32891 11.9994C4.1043 12.099 3.92852 12.2396 3.80156 12.4213C3.67461 12.6029 3.61113 12.8158 3.61113 13.06C3.61113 13.2611 3.65215 13.4359 3.73418 13.5844C3.81621 13.7328 3.9334 13.8549 4.08574 13.9506C4.23809 14.0463 4.41777 14.1176 4.6248 14.1645L5.24297 14.308C5.45 14.3568 5.6043 14.4213 5.70586 14.5014C5.80742 14.5795 5.8582 14.6879 5.8582 14.8266C5.8582 14.9359 5.82988 15.0326 5.77324 15.1166C5.7166 15.1986 5.63164 15.2631 5.51836 15.31C5.40703 15.3568 5.26934 15.3803 5.10527 15.3803C4.98809 15.3803 4.88164 15.3666 4.78594 15.3393C4.69023 15.3119 4.60723 15.2738 4.53691 15.225C4.4666 15.1762 4.40996 15.1195 4.36699 15.0551C4.32402 14.9887 4.2957 14.9174 4.28203 14.8412H3.51738ZM0.805664 13.6928C0.805664 13.4447 0.839844 13.2338 0.908203 13.06C0.978516 12.8861 1.0791 12.7533 1.20996 12.6615C1.34277 12.5697 1.50098 12.5238 1.68457 12.5238C1.83496 12.5238 1.96777 12.5561 2.08301 12.6205C2.19824 12.683 2.28906 12.7699 2.35547 12.8812C2.42383 12.9926 2.46387 13.1195 2.47559 13.2621H3.24023V13.227V13.1889C3.23047 12.9896 3.18457 12.809 3.10254 12.6469C3.02246 12.4848 2.91309 12.3441 2.77441 12.225C2.63574 12.1059 2.47266 12.015 2.28516 11.9525C2.09961 11.8881 1.89746 11.8559 1.67871 11.8559C1.32324 11.8559 1.01953 11.9301 0.767578 12.0785C0.517578 12.227 0.327148 12.4379 0.196289 12.7113C0.0654297 12.9848 0 13.3109 0 13.6898V14.1879C0 14.5668 0.0644531 14.892 0.193359 15.1635C0.324219 15.435 0.514648 15.6439 0.764648 15.7904C1.01465 15.935 1.31934 16.0072 1.67871 16.0072C1.97168 16.0072 2.2334 15.9525 2.46387 15.8432C2.69434 15.7338 2.87793 15.5824 3.01465 15.3891C3.15137 15.1937 3.22656 14.9691 3.24023 14.7152V14.6771V14.6391H2.47559C2.46387 14.7758 2.4248 14.8969 2.3584 15.0023C2.29199 15.1078 2.20117 15.1908 2.08594 15.2514C1.9707 15.31 1.83691 15.3393 1.68457 15.3393C1.49902 15.3393 1.33984 15.2953 1.20703 15.2074C1.07617 15.1176 0.976562 14.9867 0.908203 14.8148C0.839844 14.643 0.805664 14.434 0.805664 14.1879V13.6928ZM9.04453 15.9311H8.09238L6.75352 11.932H7.67051L8.56699 15.0697H8.60508L9.49277 11.932H10.3717L9.04453 15.9311Z" fill="black"/>
</svg>
