<svg width="16" height="16" viewBox="0 0 16 16" fill="none" xmlns="http://www.w3.org/2000/svg">
<path d="M11 6.64039C11 5.98981 10.3886 5.51246 9.75746 5.67024L8.75746 5.92024C8.3123 6.03153 8 6.43152 8 6.89039V11.1956C7.69995 11.0682 7.35625 11 7 11C6.50084 11 6.02632 11.134 5.66199 11.3769C5.30115 11.6174 5 12.0047 5 12.5C5 12.9953 5.30115 13.3826 5.66199 13.6231C6.02632 13.866 6.50084 14 7 14C7.49916 14 7.97368 13.866 8.33801 13.6231C8.69885 13.3826 9 12.9953 9 12.5V8.89038L11 8.39039V6.64039Z" fill="black"/>
<path d="M14 14V4.5L9.5 0H4C2.89543 0 2 0.89543 2 2V14C2 15.1046 2.89543 16 4 16H12C13.1046 16 14 15.1046 14 14ZM9.5 3C9.5 3.82843 10.1716 4.5 11 4.5H13V14C13 14.5523 12.5523 15 12 15H4C3.44772 15 3 14.5523 3 14V2C3 1.44772 3.44772 1 4 1H9.5V3Z" fill="black"/>
</svg>
