<svg width="16" height="16" viewBox="0 0 16 16" fill="none" xmlns="http://www.w3.org/2000/svg">
<path d="M5 6.5C5 6.22386 5.22386 6 5.5 6H10.5C10.7761 6 11 6.22386 11 6.5V8.5C11 8.77614 10.7761 9 10.5 9H5.5C5.22386 9 5 8.77614 5 8.5V6.5Z" fill="black"/>
<path d="M12 0H4C2.89543 0 2 0.89543 2 2V14C2 15.1046 2.89543 16 4 16H12C13.1046 16 14 15.1046 14 14V2C14 0.89543 13.1046 0 12 0ZM8.50001 5H10.5C11.3284 5 12 5.67157 12 6.5V8.5C12 9.32843 11.3284 10 10.5 10H10.0271L10.4744 11.3419C10.5617 11.6039 10.4201 11.887 10.1581 11.9743C9.89616 12.0617 9.613 11.9201 9.52567 11.6581L8.97297 10H8.50001V11C8.50001 11.2761 8.27616 11.5 8.00001 11.5C7.72387 11.5 7.50001 11.2761 7.50001 11V10H7.02706L6.47436 11.6581C6.38703 11.9201 6.10387 12.0617 5.8419 11.9743C5.57993 11.887 5.43835 11.6039 5.52567 11.3419L5.97297 10H5.5C4.67157 10 4 9.32843 4 8.5V6.5C4 5.67157 4.67157 5 5.5 5H7.50001C7.50001 4.72386 7.72387 4.5 8.00001 4.5C8.27616 4.5 8.50001 4.72386 8.50001 5Z" fill="black"/>
</svg>
