<svg width="16" height="16" viewBox="0 0 16 16" fill="none" xmlns="http://www.w3.org/2000/svg">
<path d="M12 0H4C2.89543 0 2 0.89543 2 2V14C2 15.1046 2.89543 16 4 16H12C13.1046 16 14 15.1046 14 14V2C14 0.89543 13.1046 0 12 0ZM11 7C11 8.65685 9.65685 10 8 10C6.34315 10 5 8.65685 5 7C5 5.34315 6.34315 4 8 4C9.65685 4 11 5.34315 11 7ZM8.00005 11C10.6234 11 12.1456 11.8258 13 12.7553V14C13 14.5523 12.5523 15 12 15H4C3.44772 15 3 14.5523 3 14V12.7554C3.8544 11.8259 5.37665 11 8.00005 11Z" fill="black"/>
</svg>
