<svg width="16" height="16" viewBox="0 0 16 16" fill="none" xmlns="http://www.w3.org/2000/svg">
<path d="M8.1875 8.5H7V5H8.1875C9.154 5 9.9375 5.7835 9.9375 6.75C9.9375 7.7165 9.154 8.5 8.1875 8.5Z" fill="black"/>
<path d="M4 0H12C13.1046 0 14 0.89543 14 2V14C14 15.1046 13.1046 16 12 16H4C2.89543 16 2 15.1046 2 14V2C2 0.89543 2.89543 0 4 0ZM7 4C6.44772 4 6 4.44772 6 5V11.5C6 11.7761 6.22386 12 6.5 12C6.77614 12 7 11.7761 7 11.5V9.5H8.1875C9.70628 9.5 10.9375 8.26878 10.9375 6.75C10.9375 5.23122 9.70628 4 8.1875 4H7Z" fill="black"/>
</svg>
