<svg width="16" height="16" viewBox="0 0 16 16" fill="none" xmlns="http://www.w3.org/2000/svg">
<path fill-rule="evenodd" clip-rule="evenodd" d="M14 4.5V11H13V4.5H11C10.1716 4.5 9.5 3.82843 9.5 3V1H4C3.44772 1 3 1.44772 3 2V11H2V2C2 0.89543 2.89543 0 4 0H9.5L14 4.5ZM8.53594 14.1879V13.6664C8.53594 13.4086 8.49687 13.1947 8.41875 13.0248C8.34062 12.8529 8.2332 12.724 8.09648 12.6381C7.95977 12.5522 7.80352 12.5092 7.62773 12.5092C7.45 12.5092 7.29277 12.5522 7.15605 12.6381C7.02129 12.724 6.91484 12.8529 6.83672 13.0248C6.75859 13.1947 6.71953 13.4086 6.71953 13.6664V14.1879C6.71953 14.4438 6.75859 14.6576 6.83672 14.8295C6.91484 15.0014 7.02129 15.1303 7.15605 15.2162C7.29277 15.3002 7.45 15.3422 7.62773 15.3422C7.80352 15.3422 7.95977 15.3002 8.09648 15.2162C8.2332 15.1303 8.34062 15.0014 8.41875 14.8295C8.49687 14.6576 8.53594 14.4438 8.53594 14.1879ZM9.33867 13.6723V14.185C9.33867 14.56 9.27031 14.8842 9.13359 15.1576C8.99687 15.4291 8.80059 15.6381 8.54473 15.7846C8.29082 15.9291 7.98516 16.0014 7.62773 16.0014C7.27227 16.0014 6.96562 15.9291 6.70781 15.7846C6.45195 15.6381 6.25566 15.4291 6.11895 15.1576C5.98223 14.8842 5.91387 14.56 5.91387 14.185V13.6723C5.91387 13.2934 5.98223 12.9682 6.11895 12.6967C6.25566 12.4232 6.45195 12.2143 6.70781 12.0697C6.96562 11.9232 7.27227 11.85 7.62773 11.85C7.98516 11.85 8.29082 11.9232 8.54473 12.0697C8.80059 12.2162 8.99687 12.4262 9.13359 12.6996C9.27031 12.9711 9.33867 13.2953 9.33867 13.6723ZM3.27539 13.1361L2.53418 15.9252H1.80469L0.75 11.9262H1.60547L2.20605 14.8295H2.24414L2.9502 11.9262H3.63281L4.33887 14.8295H4.37988L4.97461 11.9262H5.83301L4.77832 15.9252H4.04883L3.30762 13.1361H3.27539ZM10.6734 15.9252V14.3344H12.2789V13.6957H10.6734V12.5795H12.4312V11.9262H9.88242V15.9252H10.6734ZM13.6605 14.3344V15.9252H12.8695V11.9262H15.4184V12.5795H13.6605V13.6957H15.266V14.3344H13.6605Z" fill="black"/>
</svg>
