<svg width="16" height="16" viewBox="0 0 16 16" fill="none" xmlns="http://www.w3.org/2000/svg">
<path fill-rule="evenodd" clip-rule="evenodd" d="M14 4.5V11H13V4.5H11C10.1716 4.5 9.5 3.82843 9.5 3V1H4C3.44772 1 3 1.44772 3 2V11H2V2C2 0.89543 2.89543 0 4 0H9.5L14 4.5ZM4.15099 15.2895C4.08458 15.1488 4.04747 14.9994 4.03966 14.8412H4.80431C4.81798 14.9174 4.8463 14.9887 4.88927 15.0551C4.93224 15.1195 4.98888 15.1762 5.05919 15.225C5.1295 15.2738 5.21251 15.3119 5.30822 15.3393C5.40392 15.3666 5.51036 15.3803 5.62755 15.3803C5.79161 15.3803 5.92931 15.3568 6.04064 15.31C6.15392 15.2631 6.23888 15.1986 6.29552 15.1166C6.35216 15.0326 6.38048 14.9359 6.38048 14.8266C6.38048 14.6879 6.3297 14.5795 6.22814 14.5014C6.12657 14.4213 5.97228 14.3568 5.76525 14.308L5.14708 14.1645C4.94005 14.1176 4.76036 14.0463 4.60802 13.9506C4.45568 13.8549 4.33849 13.7328 4.25646 13.5844C4.17443 13.4359 4.13341 13.2611 4.13341 13.06C4.13341 12.8158 4.19689 12.6029 4.32384 12.4213C4.45079 12.2396 4.62657 12.099 4.85118 11.9994C5.07579 11.8998 5.33458 11.85 5.62755 11.85C5.93224 11.85 6.192 11.9008 6.40685 12.0023C6.62364 12.1039 6.79064 12.2406 6.90782 12.4125C7.02697 12.5824 7.09337 12.7709 7.10704 12.9779H6.35704C6.33947 12.8822 6.29943 12.7963 6.23693 12.7201C6.17638 12.6439 6.09435 12.5834 5.99083 12.5385C5.88732 12.4936 5.76427 12.4711 5.62169 12.4711C5.40489 12.4711 5.234 12.5219 5.109 12.6234C4.98595 12.723 4.92443 12.851 4.92443 13.0072C4.92443 13.1283 4.97228 13.2279 5.06798 13.3061C5.16368 13.3842 5.29845 13.4428 5.47228 13.4818L6.09337 13.6254C6.31017 13.6742 6.49864 13.7445 6.6588 13.8363C6.81896 13.9262 6.94396 14.0453 7.0338 14.1938C7.12364 14.3422 7.16857 14.5287 7.16857 14.7533C7.16857 15.0014 7.10607 15.2201 6.98107 15.4096C6.85802 15.5971 6.67833 15.7436 6.442 15.849C6.20763 15.9545 5.9215 16.0072 5.58361 16.0072C5.3297 16.0072 5.10802 15.977 4.91857 15.9164C4.72911 15.8559 4.56993 15.7719 4.44103 15.6645C4.31407 15.5551 4.21739 15.4301 4.15099 15.2895ZM1.04669 15.2572C0.992004 15.1107 0.964661 14.9555 0.964661 14.7914H1.72931C1.73322 14.893 1.75763 14.9828 1.80255 15.0609C1.84747 15.1371 1.909 15.1977 1.98712 15.2426C2.06525 15.2855 2.15509 15.307 2.25665 15.307C2.44611 15.307 2.58673 15.2523 2.67853 15.143C2.77032 15.0336 2.81622 14.8783 2.81622 14.6771V11.932H3.60724V14.6566C3.60724 15.0961 3.4881 15.4311 3.24982 15.6615C3.01349 15.892 2.68536 16.0072 2.26544 16.0072C2.0506 16.0072 1.86115 15.976 1.69708 15.9135C1.53497 15.849 1.39923 15.7602 1.28986 15.6469C1.18243 15.5336 1.10138 15.4037 1.04669 15.2572ZM10.1381 13.6723V14.1938C10.1381 14.4496 10.099 14.6635 10.0209 14.8354C9.94279 15.0072 9.83536 15.1361 9.69865 15.2221C9.56193 15.3061 9.40568 15.348 9.2299 15.348C9.05216 15.348 8.89493 15.3061 8.75822 15.2221C8.62345 15.1361 8.517 15.0072 8.43888 14.8354C8.36075 14.6635 8.32169 14.4496 8.32169 14.1938V13.6723C8.32169 13.4145 8.36075 13.2006 8.43888 13.0307C8.517 12.8588 8.62345 12.7299 8.75822 12.6439C8.89493 12.558 9.05216 12.515 9.2299 12.515C9.40568 12.515 9.56193 12.558 9.69865 12.6439C9.83536 12.7299 9.94279 12.8588 10.0209 13.0307C10.099 13.2006 10.1381 13.4145 10.1381 13.6723ZM10.9408 14.1908V13.6781C10.9408 13.3012 10.8725 12.977 10.7358 12.7055C10.599 12.432 10.4027 12.2221 10.1469 12.0756C9.89298 11.9291 9.58732 11.8559 9.2299 11.8559C8.87443 11.8559 8.56779 11.9291 8.30997 12.0756C8.05411 12.2201 7.85782 12.4291 7.72111 12.7025C7.58439 12.974 7.51603 13.2992 7.51603 13.6781V14.1908C7.51603 14.5658 7.58439 14.89 7.72111 15.1635C7.85782 15.435 8.05411 15.6439 8.30997 15.7904C8.56779 15.935 8.87443 16.0072 9.2299 16.0072C9.58732 16.0072 9.89298 15.935 10.1469 15.7904C10.4027 15.6439 10.599 15.435 10.7358 15.1635C10.8725 14.89 10.9408 14.5658 10.9408 14.1908ZM12.2317 13.2563V15.9311H11.4846V11.932H12.1467L13.8986 14.5922H13.9309V11.932H14.6809V15.9311H14.0246L12.2639 13.2563H12.2317Z" fill="black"/>
</svg>
