<svg width="16" height="16" viewBox="0 0 16 16" fill="none" xmlns="http://www.w3.org/2000/svg">
<path fill-rule="evenodd" clip-rule="evenodd" d="M14 4.5V11H13V4.5H11C10.1716 4.5 9.5 3.82843 9.5 3V1H4C3.44772 1 3 1.44772 3 2V11H2V2C2 0.89543 2.89543 0 4 0H9.5L14 4.5ZM1.35632 15.2895C1.28992 15.1488 1.25281 14.9994 1.245 14.8412H2.00964C2.02332 14.9174 2.05164 14.9887 2.0946 15.0551C2.13757 15.1195 2.19421 15.1762 2.26453 15.225C2.33484 15.2738 2.41785 15.3119 2.51355 15.3393C2.60925 15.3666 2.7157 15.3803 2.83289 15.3803C2.99695 15.3803 3.13464 15.3568 3.24597 15.31C3.35925 15.2631 3.44421 15.1986 3.50085 15.1166C3.5575 15.0326 3.58582 14.9359 3.58582 14.8266C3.58582 14.6879 3.53503 14.5795 3.43347 14.5014C3.33191 14.4213 3.17761 14.3568 2.97058 14.308L2.35242 14.1645C2.14539 14.1176 1.9657 14.0463 1.81335 13.9506C1.66101 13.8549 1.54382 13.7328 1.46179 13.5844C1.37976 13.4359 1.33875 13.2611 1.33875 13.06C1.33875 12.8158 1.40222 12.6029 1.52917 12.4213C1.65613 12.2396 1.83191 12.099 2.05652 11.9994C2.28113 11.8998 2.53992 11.85 2.83289 11.85C3.13757 11.85 3.39734 11.9008 3.61218 12.0023C3.82898 12.1039 3.99597 12.2406 4.11316 12.4125C4.2323 12.5824 4.29871 12.7709 4.31238 12.9779H3.56238C3.5448 12.8822 3.50476 12.7963 3.44226 12.7201C3.38171 12.6439 3.29968 12.5834 3.19617 12.5385C3.09265 12.4936 2.9696 12.4711 2.82703 12.4711C2.61023 12.4711 2.43933 12.5219 2.31433 12.6234C2.19128 12.723 2.12976 12.851 2.12976 13.0072C2.12976 13.1283 2.17761 13.2279 2.27332 13.3061C2.36902 13.3842 2.50378 13.4428 2.67761 13.4818L3.29871 13.6254C3.5155 13.6742 3.70398 13.7445 3.86414 13.8363C4.02429 13.9262 4.14929 14.0453 4.23914 14.1937C4.32898 14.3422 4.3739 14.5287 4.3739 14.7533C4.3739 15.0014 4.3114 15.2201 4.1864 15.4096C4.06335 15.5971 3.88367 15.7436 3.64734 15.849C3.41296 15.9545 3.12683 16.0072 2.78894 16.0072C2.53503 16.0072 2.31335 15.977 2.1239 15.9164C1.93445 15.8559 1.77527 15.7719 1.64636 15.6645C1.51941 15.5551 1.42273 15.4301 1.35632 15.2895ZM5.62957 13.06C5.56121 13.2338 5.52703 13.4447 5.52703 13.6928V14.1879C5.52703 14.434 5.56121 14.643 5.62957 14.8148C5.69792 14.9867 5.79753 15.1176 5.92839 15.2074C6.06121 15.2953 6.22039 15.3393 6.40593 15.3393C6.55828 15.3393 6.69207 15.31 6.8073 15.2514C6.92253 15.1908 7.01335 15.1078 7.07976 15.0023C7.14617 14.8969 7.18523 14.7758 7.19695 14.6391H7.9616V14.6771V14.7152C7.94792 14.9691 7.87273 15.1937 7.73601 15.3891C7.59929 15.5824 7.4157 15.7338 7.18523 15.8432C6.95476 15.9525 6.69304 16.0072 6.40007 16.0072C6.0407 16.0072 5.73601 15.935 5.48601 15.7904C5.23601 15.6439 5.04558 15.435 4.91472 15.1635C4.78582 14.892 4.72136 14.5668 4.72136 14.1879V13.6898C4.72136 13.3109 4.78679 12.9848 4.91765 12.7113C5.04851 12.4379 5.23894 12.227 5.48894 12.0785C5.74089 11.9301 6.0446 11.8559 6.40007 11.8559C6.61882 11.8559 6.82097 11.8881 7.00652 11.9525C7.19402 12.015 7.3571 12.1059 7.49578 12.225C7.63445 12.3441 7.74382 12.4848 7.8239 12.6469C7.90593 12.809 7.95183 12.9896 7.9616 13.1889V13.227V13.2621H7.19695C7.18523 13.1195 7.14519 12.9926 7.07683 12.8812C7.01042 12.7699 6.9196 12.683 6.80437 12.6205C6.68914 12.5561 6.55632 12.5238 6.40593 12.5238C6.22234 12.5238 6.06414 12.5697 5.93132 12.6615C5.80046 12.7533 5.69988 12.8861 5.62957 13.06ZM8.23875 14.8412C8.24656 14.9994 8.28367 15.1488 8.35007 15.2895C8.41648 15.4301 8.51316 15.5551 8.64011 15.6645C8.76902 15.7719 8.9282 15.8559 9.11765 15.9164C9.30711 15.977 9.52878 16.0072 9.78269 16.0072C10.1206 16.0072 10.4067 15.9545 10.6411 15.849C10.8774 15.7436 11.0571 15.5971 11.1802 15.4096C11.3052 15.2201 11.3677 15.0014 11.3677 14.7533C11.3677 14.5287 11.3227 14.3422 11.2329 14.1937C11.143 14.0453 11.018 13.9262 10.8579 13.8363C10.6977 13.7445 10.5093 13.6742 10.2925 13.6254L9.67136 13.4818C9.49753 13.4428 9.36277 13.3842 9.26707 13.3061C9.17136 13.2279 9.12351 13.1283 9.12351 13.0072C9.12351 12.851 9.18503 12.723 9.30808 12.6234C9.43308 12.5219 9.60398 12.4711 9.82078 12.4711C9.96336 12.4711 10.0864 12.4936 10.1899 12.5385C10.2934 12.5834 10.3755 12.6439 10.436 12.7201C10.4985 12.7963 10.5386 12.8822 10.5561 12.9779H11.3061C11.2925 12.7709 11.2261 12.5824 11.1069 12.4125C10.9897 12.2406 10.8227 12.1039 10.6059 12.0023C10.3911 11.9008 10.1313 11.85 9.82664 11.85C9.53367 11.85 9.27488 11.8998 9.05027 11.9994C8.82566 12.099 8.64988 12.2396 8.52293 12.4213C8.39597 12.6029 8.3325 12.8158 8.3325 13.06C8.3325 13.2611 8.37351 13.4359 8.45554 13.5844C8.53757 13.7328 8.65476 13.8549 8.80711 13.9506C8.95945 14.0463 9.13914 14.1176 9.34617 14.1645L9.96433 14.308C10.1714 14.3568 10.3257 14.4213 10.4272 14.5014C10.5288 14.5795 10.5796 14.6879 10.5796 14.8266C10.5796 14.9359 10.5512 15.0326 10.4946 15.1166C10.438 15.1986 10.353 15.2631 10.2397 15.31C10.1284 15.3568 9.9907 15.3803 9.82664 15.3803C9.70945 15.3803 9.603 15.3666 9.5073 15.3393C9.4116 15.3119 9.32859 15.2738 9.25828 15.225C9.18796 15.1762 9.13132 15.1195 9.08836 15.0551C9.04539 14.9887 9.01707 14.9174 9.00339 14.8412H8.23875ZM11.7415 15.2895C11.6751 15.1488 11.638 14.9994 11.6302 14.8412H12.3948C12.4085 14.9174 12.4368 14.9887 12.4798 15.0551C12.5227 15.1195 12.5794 15.1762 12.6497 15.225C12.72 15.2738 12.803 15.3119 12.8987 15.3393C12.9944 15.3666 13.1009 15.3803 13.218 15.3803C13.3821 15.3803 13.5198 15.3568 13.6311 15.31C13.7444 15.2631 13.8294 15.1986 13.886 15.1166C13.9427 15.0326 13.971 14.9359 13.971 14.8266C13.971 14.6879 13.9202 14.5795 13.8186 14.5014C13.7171 14.4213 13.5628 14.3568 13.3557 14.308L12.7376 14.1645C12.5305 14.1176 12.3509 14.0463 12.1985 13.9506C12.0462 13.8549 11.929 13.7328 11.8469 13.5844C11.7649 13.4359 11.7239 13.2611 11.7239 13.06C11.7239 12.8158 11.7874 12.6029 11.9143 12.4213C12.0413 12.2396 12.2171 12.099 12.4417 11.9994C12.6663 11.8998 12.9251 11.85 13.218 11.85C13.5227 11.85 13.7825 11.9008 13.9973 12.0023C14.2141 12.1039 14.3811 12.2406 14.4983 12.4125C14.6175 12.5824 14.6839 12.7709 14.6975 12.9779H13.9475C13.93 12.8822 13.8899 12.7963 13.8274 12.7201C13.7669 12.6439 13.6848 12.5834 13.5813 12.5385C13.4778 12.4936 13.3548 12.4711 13.2122 12.4711C12.9954 12.4711 12.8245 12.5219 12.6995 12.6234C12.5764 12.723 12.5149 12.851 12.5149 13.0072C12.5149 13.1283 12.5628 13.2279 12.6585 13.3061C12.7542 13.3842 12.8889 13.4428 13.0628 13.4818L13.6839 13.6254C13.9007 13.6742 14.0891 13.7445 14.2493 13.8363C14.4094 13.9262 14.5344 14.0453 14.6243 14.1937C14.7141 14.3422 14.7591 14.5287 14.7591 14.7533C14.7591 15.0014 14.6966 15.2201 14.5716 15.4096C14.4485 15.5971 14.2688 15.7436 14.0325 15.849C13.7981 15.9545 13.512 16.0072 13.1741 16.0072C12.9202 16.0072 12.6985 15.977 12.5091 15.9164C12.3196 15.8559 12.1604 15.7719 12.0315 15.6645C11.9046 15.5551 11.8079 15.4301 11.7415 15.2895Z" fill="black"/>
</svg>
