<svg width="16" height="16" viewBox="0 0 16 16" fill="none" xmlns="http://www.w3.org/2000/svg">
<path d="M6.50153 7C7.32995 7 8.00153 6.32843 8.00153 5.5C8.00153 4.67157 7.32995 4 6.50153 4C5.6731 4 5.00153 4.67157 5.00153 5.5C5.00153 6.32843 5.6731 7 6.50153 7Z" fill="black"/>
<path d="M14 14C14 15.1046 13.1046 16 12 16H4C2.89543 16 2 15.1046 2 14V2C2 0.89543 2.89543 0 4 0H9.5L14 4.5V14ZM4 1C3.44772 1 3 1.44772 3 2V12L5.22395 9.77605C5.38619 9.61381 5.63802 9.58281 5.83476 9.70085L8 11L10.1569 7.98029C10.3365 7.72887 10.6989 7.69888 10.9174 7.91736L13 10V4.5H11C10.1716 4.5 9.5 3.82843 9.5 3V1H4Z" fill="black"/>
</svg>
