<svg width="16" height="16" viewBox="0 0 16 16" fill="none" xmlns="http://www.w3.org/2000/svg">
<path fill-rule="evenodd" clip-rule="evenodd" d="M14 4.5V11H13V4.5H11C10.1716 4.5 9.5 3.82843 9.5 3V1H4C3.44772 1 3 1.44772 3 2V11H2V2C2 0.89543 2.89543 0 4 0H9.5L14 4.5ZM7.86094 14.8412C7.86875 14.9994 7.90586 15.1488 7.97227 15.2895C8.03867 15.4301 8.13535 15.5551 8.26231 15.6645C8.39121 15.7719 8.55039 15.8559 8.73984 15.9164C8.9293 15.977 9.15098 16.0072 9.40488 16.0072C9.74277 16.0072 10.0289 15.9545 10.2633 15.849C10.4996 15.7436 10.6793 15.5971 10.8023 15.4096C10.9273 15.2201 10.9898 15.0014 10.9898 14.7533C10.9898 14.5287 10.9449 14.3422 10.8551 14.1938C10.7652 14.0453 10.6402 13.9262 10.4801 13.8363C10.3199 13.7445 10.1314 13.6742 9.91465 13.6254L9.29356 13.4818C9.11973 13.4428 8.98496 13.3842 8.88926 13.3061C8.79356 13.2279 8.7457 13.1283 8.7457 13.0072C8.7457 12.851 8.80723 12.7231 8.93027 12.6234C9.05527 12.5219 9.22617 12.4711 9.44297 12.4711C9.58555 12.4711 9.70859 12.4936 9.81211 12.5385C9.91563 12.5834 9.99766 12.644 10.0582 12.7201C10.1207 12.7963 10.1607 12.8822 10.1783 12.9779H10.9283C10.9146 12.7709 10.8482 12.5824 10.7291 12.4125C10.6119 12.2406 10.4449 12.1039 10.2281 12.0023C10.0133 11.9008 9.75352 11.85 9.44883 11.85C9.15586 11.85 8.89707 11.8998 8.67246 11.9994C8.44785 12.099 8.27207 12.2397 8.14512 12.4213C8.01816 12.6029 7.95469 12.8158 7.95469 13.06C7.95469 13.2611 7.9957 13.4359 8.07773 13.5844C8.15977 13.7328 8.27695 13.8549 8.4293 13.9506C8.58164 14.0463 8.76133 14.1176 8.96836 14.1645L9.58652 14.308C9.79356 14.3568 9.94785 14.4213 10.0494 14.5014C10.151 14.5795 10.2018 14.6879 10.2018 14.8266C10.2018 14.9359 10.1734 15.0326 10.1168 15.1166C10.0602 15.1986 9.9752 15.2631 9.86191 15.31C9.75059 15.3568 9.61289 15.3803 9.44883 15.3803C9.33164 15.3803 9.2252 15.3666 9.12949 15.3393C9.03379 15.3119 8.95078 15.2738 8.88047 15.225C8.81016 15.1762 8.75352 15.1195 8.71055 15.0551C8.66758 14.9887 8.63926 14.9174 8.62559 14.8412H7.86094ZM4.13379 11.932H5.02734L3.75293 13.9389L5.00684 15.9311H4.09863L3.24902 14.516H3.21387L2.36133 15.9311H1.5L2.73926 13.9154L1.51172 11.932H2.44336L3.27539 13.3705H3.31055L4.13379 11.932ZM6.05742 15.2572H7.75371V15.9311H5.26641V11.932H6.05742V15.2572ZM13.6928 11.932H14.5863L13.3119 13.9389L14.5658 15.9311H13.6576L12.808 14.516H12.7729L11.9203 15.9311H11.059L12.2982 13.9154L11.0707 11.932H12.0023L12.8344 13.3705H12.8695L13.6928 11.932Z" fill="black"/>
</svg>
