<svg width="16" height="16" viewBox="0 0 16 16" fill="none" xmlns="http://www.w3.org/2000/svg">
<path d="M7 6C7 5.44772 7.44772 5 8 5C8.55228 5 9 5.44772 9 6V7H7V6Z" fill="black"/>
<path d="M12 0H4C2.89543 0 2 0.89543 2 2V14C2 15.1046 2.89543 16 4 16H12C13.1046 16 14 15.1046 14 14V2C14 0.89543 13.1046 0 12 0ZM10 6V7.0763C10.5392 7.24248 11 7.67317 11 8.3V10.7C11 11.5163 10.2185 12 9.5 12H6.5C5.78146 12 5 11.5163 5 10.7V8.3C5 7.67317 5.46076 7.24248 6 7.0763V6C6 4.89543 6.89543 4 8 4C9.10457 4 10 4.89543 10 6Z" fill="black"/>
</svg>
