<svg width="16" height="16" viewBox="0 0 16 16" fill="none" xmlns="http://www.w3.org/2000/svg">
<path d="M7 7.77923V5.22077C7 5.12361 7.106 5.0636 7.18931 5.11359L9.32136 6.39281C9.40227 6.44136 9.40227 6.55864 9.32136 6.60719L7.18931 7.88641C7.106 7.9364 7 7.87639 7 7.77923Z" fill="black"/>
<path d="M12 0H4C2.89543 0 2 0.89543 2 2V14C2 15.1046 2.89543 16 4 16H12C13.1046 16 14 15.1046 14 14V2C14 0.89543 13.1046 0 12 0ZM5 4H11C11.2522 4 11.4649 4.18777 11.4961 4.43798L11.9961 8.43798C12.0139 8.58029 11.9698 8.72339 11.8748 8.8309C11.7799 8.93842 11.6434 9 11.5 9H8.5V11.0158C9.36262 11.0713 10 11.267 10 11.5C10 11.7761 9.10457 12 8 12C6.89543 12 6 11.7761 6 11.5C6 11.267 6.63739 11.0713 7.5 11.0158V9H4.5C4.35659 9 4.22008 8.93842 4.12516 8.8309C4.03025 8.72339 3.98608 8.58029 4.00386 8.43798L4.50386 4.43798C4.53514 4.18777 4.74784 4 5 4Z" fill="black"/>
</svg>
