<svg width="16" height="16" viewBox="0 0 16 16" fill="none" xmlns="http://www.w3.org/2000/svg">
<path d="M5.52637 9.27344C4.98438 9.27344 4.69434 9.83594 4.69434 10.8848C4.69434 10.9727 4.69727 11.0576 4.7002 11.1367L6.25879 9.99414C6.13281 9.51953 5.88379 9.27344 5.52637 9.27344Z" fill="black"/>
<path d="M4.79395 11.7812C4.91992 12.2529 5.16602 12.499 5.52637 12.499C6.06543 12.499 6.35547 11.9365 6.35547 10.8848C6.35547 10.7998 6.35254 10.7148 6.34961 10.6357L4.79395 11.7812Z" fill="black"/>
<path d="M12 0H4C2.89543 0 2 0.89543 2 2V14C2 15.1046 2.89543 16 4 16H12C13.1046 16 14 15.1046 14 14V2C14 0.89543 13.1046 0 12 0ZM7.0498 10.8848C7.0498 12.2998 6.50195 13.0908 5.52637 13.0908C4.54785 13.0908 4 12.2998 4 10.8848C4 9.47266 4.54785 8.68164 5.52637 8.68164C6.50195 8.68164 7.0498 9.47266 7.0498 10.8848ZM10.8555 12.4053V13H7.85547V12.4053H9.03613V9.49902H8.98633L7.84961 10.2461V9.55762L9.03906 8.77246H9.73047V12.4053H10.8555Z" fill="black"/>
</svg>
