<svg width="16" height="16" viewBox="0 0 16 16" fill="none" xmlns="http://www.w3.org/2000/svg">
<path fill-rule="evenodd" clip-rule="evenodd" d="M14 4.5V14C14 15.1046 13.1046 16 12 16H11V15H12C12.5523 15 13 14.5523 13 14V4.5H11C10.1716 4.5 9.5 3.82843 9.5 3V1H4C3.44772 1 3 1.44772 3 2V11H2V2C2 0.89543 2.89543 0 4 0H9.5L14 4.5ZM3.21094 11.85H2.34082L0.829102 13.64H0.791016V11.85H0V15.849H0.791016V14.5658L1.20117 14.1L2.32031 15.849H3.27246L1.78418 13.5727L3.21094 11.85ZM6.11309 15.2016H4.32305V14.1293H6.00762V13.5229H4.32305V12.4975H6.11309V11.85H3.53789V15.849H6.11309V15.2016ZM8.35605 14.3139V15.849H7.56211V14.3285L6.22324 11.85H7.09922L7.95176 13.5463H7.98398L8.83945 11.85H9.69492L8.35605 14.3139Z" fill="black"/>
</svg>
