<svg width="16" height="16" viewBox="0 0 16 16" fill="none" xmlns="http://www.w3.org/2000/svg">
<path d="M9.29289 0H4C2.89543 0 2 0.895431 2 2V14C2 15.1046 2.89543 16 4 16H12C13.1046 16 14 15.1046 14 14V4.70711C14 4.44189 13.8946 4.18754 13.7071 4L10 0.292893C9.81246 0.105357 9.55811 0 9.29289 0ZM9.5 3.5V1.5L12.5 4.5H10.5C9.94772 4.5 9.5 4.05228 9.5 3.5ZM5.88412 6.67992L8.00001 9.21899L10.1159 6.67992C10.2927 6.46778 10.608 6.43912 10.8201 6.6159C11.0322 6.79268 11.0609 7.10797 10.8841 7.3201L8.65087 10L10.8841 12.6799C11.0609 12.8921 11.0322 13.2073 10.8201 13.3841C10.608 13.5609 10.2927 13.5322 10.1159 13.3201L8.00001 10.781L5.88412 13.3201C5.70734 13.5322 5.39206 13.5609 5.17992 13.3841C4.96778 13.2073 4.93912 12.8921 5.1159 12.6799L7.34916 10L5.1159 7.3201C4.93912 7.10797 4.96778 6.79268 5.17992 6.6159C5.39206 6.43912 5.70734 6.46778 5.88412 6.67992Z" fill="black"/>
</svg>
