<svg width="16" height="16" viewBox="0 0 16 16" fill="none" xmlns="http://www.w3.org/2000/svg">
<path d="M8 5C8.27614 5 8.5 5.22386 8.5 5.5V7H10C10.2761 7 10.5 7.22386 10.5 7.5C10.5 7.77614 10.2761 8 10 8H8.5V9.5C8.5 9.77614 8.27614 10 8 10C7.72386 10 7.5 9.77614 7.5 9.5V8H6C5.72386 8 5.5 7.77614 5.5 7.5C5.5 7.22386 5.72386 7 6 7H7.5V5.5C7.5 5.22386 7.72386 5 8 5Z" fill="black"/>
<path d="M5.5 11.5C5.5 11.2239 5.72386 11 6 11H10C10.2761 11 10.5 11.2239 10.5 11.5C10.5 11.7761 10.2761 12 10 12H6C5.72386 12 5.5 11.7761 5.5 11.5Z" fill="black"/>
<path d="M14 14V4.5L9.5 0H4C2.89543 0 2 0.89543 2 2V14C2 15.1046 2.89543 16 4 16H12C13.1046 16 14 15.1046 14 14ZM9.5 3C9.5 3.82843 10.1716 4.5 11 4.5H13V14C13 14.5523 12.5523 15 12 15H4C3.44772 15 3 14.5523 3 14V2C3 1.44772 3.44772 1 4 1H9.5V3Z" fill="black"/>
</svg>
