<svg width="16" height="16" viewBox="0 0 16 16" fill="none" xmlns="http://www.w3.org/2000/svg">
<path d="M8.50001 6C8.50001 5.72386 8.27616 5.5 8.00001 5.5C7.72387 5.5 7.50001 5.72386 7.50001 6H5.5C4.67157 6 4 6.67157 4 7.5V9.5C4 10.3284 4.67157 11 5.5 11H5.97297L5.52567 12.3419C5.43835 12.6039 5.57993 12.887 5.8419 12.9743C6.10387 13.0617 6.38703 12.9201 6.47436 12.6581L7.02706 11H7.50001V12C7.50001 12.2761 7.72387 12.5 8.00001 12.5C8.27616 12.5 8.50001 12.2761 8.50001 12V11H8.97297L9.52567 12.6581C9.613 12.9201 9.89616 13.0617 10.1581 12.9743C10.4201 12.887 10.5617 12.6039 10.4744 12.3419L10.0271 11H10.5C11.3284 11 12 10.3284 12 9.5V7.5C12 6.67157 11.3284 6 10.5 6H8.50001ZM5 7.5C5 7.22386 5.22386 7 5.5 7H10.5C10.7761 7 11 7.22386 11 7.5V9.5C11 9.77614 10.7761 10 10.5 10H5.5C5.22386 10 5 9.77614 5 9.5V7.5Z" fill="black"/>
<path d="M14 14V4.5L9.5 0H4C2.89543 0 2 0.89543 2 2V14C2 15.1046 2.89543 16 4 16H12C13.1046 16 14 15.1046 14 14ZM9.5 3C9.5 3.82843 10.1716 4.5 11 4.5H13V14C13 14.5523 12.5523 15 12 15H4C3.44772 15 3 14.5523 3 14V2C3 1.44772 3.44772 1 4 1H9.5V3Z" fill="black"/>
</svg>
