<svg width="16" height="16" viewBox="0 0 16 16" fill="none" xmlns="http://www.w3.org/2000/svg">
<path fill-rule="evenodd" clip-rule="evenodd" d="M14 4.5V14C14 15.1046 13.1046 16 12 16H11V15H12C12.5523 15 13 14.5523 13 14V4.5H11C10.1716 4.5 9.5 3.82843 9.5 3V1H4C3.44772 1 3 1.44772 3 2V11H2V2C2 0.89543 2.89543 0 4 0H9.5L14 4.5ZM6.47227 15.2895C6.40586 15.1488 6.36875 14.9994 6.36094 14.8412H7.12559C7.13926 14.9174 7.16758 14.9887 7.21055 15.0551C7.25352 15.1195 7.31016 15.1762 7.38047 15.225C7.45078 15.2738 7.53379 15.3119 7.62949 15.3393C7.7252 15.3666 7.83164 15.3803 7.94883 15.3803C8.11289 15.3803 8.25059 15.3568 8.36191 15.31C8.47519 15.2631 8.56016 15.1986 8.6168 15.1166C8.67344 15.0326 8.70176 14.9359 8.70176 14.8266C8.70176 14.6879 8.65098 14.5795 8.54941 14.5014C8.44785 14.4213 8.29355 14.3568 8.08652 14.308L7.46836 14.1645C7.26133 14.1176 7.08164 14.0463 6.9293 13.9506C6.77695 13.8549 6.65977 13.7328 6.57773 13.5844C6.4957 13.4359 6.45469 13.2611 6.45469 13.06C6.45469 12.8158 6.51816 12.6029 6.64512 12.4213C6.77207 12.2397 6.94785 12.099 7.17246 11.9994C7.39707 11.8998 7.65586 11.85 7.94883 11.85C8.25352 11.85 8.51328 11.9008 8.72812 12.0023C8.94492 12.1039 9.11191 12.2406 9.2291 12.4125C9.34824 12.5824 9.41465 12.7709 9.42832 12.9779H8.67832C8.66074 12.8822 8.6207 12.7963 8.5582 12.7201C8.49766 12.644 8.41562 12.5834 8.31211 12.5385C8.20859 12.4936 8.08555 12.4711 7.94297 12.4711C7.72617 12.4711 7.55527 12.5219 7.43027 12.6234C7.30723 12.7231 7.2457 12.851 7.2457 13.0072C7.2457 13.1283 7.29355 13.2279 7.38926 13.3061C7.48496 13.3842 7.61973 13.4428 7.79355 13.4818L8.41465 13.6254C8.63144 13.6742 8.81992 13.7445 8.98008 13.8363C9.14023 13.9262 9.26523 14.0453 9.35508 14.1938C9.44492 14.3422 9.48984 14.5287 9.48984 14.7533C9.48984 15.0014 9.42734 15.2201 9.30234 15.4096C9.1793 15.5971 8.99961 15.7436 8.76328 15.849C8.52891 15.9545 8.24277 16.0072 7.90488 16.0072C7.65098 16.0072 7.4293 15.977 7.23984 15.9164C7.05039 15.8559 6.89121 15.7719 6.7623 15.6645C6.63535 15.5551 6.53867 15.4301 6.47227 15.2895ZM3.52734 11.932H2.63379L1.81055 13.3705H1.77539L0.943359 11.932H0.0117188L1.23926 13.9154L0 15.9311H0.861328L1.71387 14.516H1.74902L2.59863 15.9311H3.50684L2.25293 13.9389L3.52734 11.932ZM6.25371 15.2572H4.55742V11.932H3.76641V15.9311H6.25371V15.2572Z" fill="black"/>
</svg>
