<svg width="16" height="16" viewBox="0 0 16 16" fill="none" xmlns="http://www.w3.org/2000/svg">
<path fill-rule="evenodd" clip-rule="evenodd" d="M14 4.5V14C14 15.1046 13.1046 16 12 16H7V15H12C12.5523 15 13 14.5523 13 14V4.5H11C10.1716 4.5 9.5 3.82843 9.5 3V1H4C3.44772 1 3 1.44772 3 2V11H2V2C2 0.89543 2.89543 0 4 0H9.5L14 4.5ZM0 11.85H1.59961C1.88867 11.85 2.13281 11.9096 2.33203 12.0287C2.5332 12.1459 2.68652 12.3051 2.79199 12.5062C2.89746 12.7074 2.9502 12.933 2.9502 13.183C2.9502 13.433 2.89648 13.6586 2.78906 13.8598C2.68359 14.059 2.5293 14.2172 2.32617 14.3344C2.125 14.4496 1.88086 14.5072 1.59375 14.5072H0.791016V15.849H0V11.85ZM2.05957 13.5639C2.11621 13.4584 2.14453 13.3314 2.14453 13.183C2.14453 12.9564 2.08301 12.7826 1.95996 12.6615C1.83691 12.5404 1.66602 12.4799 1.44727 12.4799H0.788086V13.8861H1.44727C1.59375 13.8861 1.71875 13.8588 1.82227 13.8041C1.92578 13.7475 2.00488 13.6674 2.05957 13.5639ZM5.02324 14.3139V15.849H4.2293V14.3285L2.89043 11.85H3.76641L4.61895 13.5463H4.65117L5.50664 11.85H6.36211L5.02324 14.3139Z" fill="black"/>
</svg>
