<svg width="16" height="16" viewBox="0 0 16 16" fill="none" xmlns="http://www.w3.org/2000/svg">
<path d="M10.9433 4H5.05674L5 6H5.5C5.67967 4.90443 5.85579 4.80817 7.19385 4.76454L7.487 4.75485V10.8456C7.487 11.3158 7.38771 11.4273 6.58865 11.5V12H9.41135V11.5C8.60756 11.4273 8.50827 11.3158 8.50827 10.8456V4.75485L8.80615 4.76454C10.1442 4.80817 10.3203 4.90443 10.5 6H11L10.9433 4Z" fill="black"/>
<path d="M4 0C2.89543 0 2 0.89543 2 2V14C2 15.1046 2.89543 16 4 16H12C13.1046 16 14 15.1046 14 14V2C14 0.89543 13.1046 0 12 0H4ZM4 1H12C12.5523 1 13 1.44772 13 2V14C13 14.5523 12.5523 15 12 15H4C3.44772 15 3 14.5523 3 14V2C3 1.44772 3.44772 1 4 1Z" fill="black"/>
</svg>
