<svg width="16" height="16" viewBox="0 0 16 16" fill="none" xmlns="http://www.w3.org/2000/svg">
<path d="M0 10.5C0 10.2239 0.223858 10 0.5 10H15.5C15.7761 10 16 10.2239 16 10.5C16 10.7761 15.7761 11 15.5 11H0.5C0.223858 11 0 10.7761 0 10.5Z" fill="black"/>
<path d="M12 0H4C2.89543 0 2 0.89543 2 2V9H3V2C3 1.44772 3.44772 1 4 1H12C12.5523 1 13 1.44772 13 2V9H14V2C14 0.89543 13.1046 0 12 0Z" fill="black"/>
<path d="M14 12H13V14C13 14.5523 12.5523 15 12 15H4C3.44772 15 3 14.5523 3 14V12H2V14C2 15.1046 2.89543 16 4 16H12C13.1046 16 14 15.1046 14 14V12Z" fill="black"/>
</svg>
