<svg width="16" height="16" viewBox="0 0 16 16" fill="none" xmlns="http://www.w3.org/2000/svg">
<path d="M14 4.5V9H13V4.5H11C10.1716 4.5 9.5 3.82843 9.5 3V1H4C3.44772 1 3 1.44772 3 2V9H2V2C2 0.89543 2.89543 0 4 0H9.5L14 4.5Z" fill="black"/>
<path d="M13 12H14V14C14 15.1046 13.1046 16 12 16H4C2.89543 16 2 15.1046 2 14V12H3V14C3 14.5523 3.44772 15 4 15H12C12.5523 15 13 14.5523 13 14V12Z" fill="black"/>
<path d="M0.5 10C0.223858 10 0 10.2239 0 10.5C0 10.7761 0.223858 11 0.5 11H15.5C15.7761 11 16 10.7761 16 10.5C16 10.2239 15.7761 10 15.5 10H0.5Z" fill="black"/>
</svg>
