<svg width="16" height="16" viewBox="0 0 16 16" fill="none" xmlns="http://www.w3.org/2000/svg">
<path fill-rule="evenodd" clip-rule="evenodd" d="M14 4.5V14C14 15.1046 13.1046 16 12 16V15C12.5523 15 13 14.5523 13 14V4.5H11C10.1716 4.5 9.5 3.82843 9.5 3V1H4C3.44772 1 3 1.44772 3 2V11H2V2C2 0.89543 2.89543 0 4 0H9.5L14 4.5ZM1.59668 11.85H0V15.849H0.782227V14.3578H1.49121L2.19141 15.849H3.04289H3.07617H3.8427L4.15617 14.8207H5.49211L5.80559 15.849H6.64641L5.31047 11.85H4.38469L3.05628 15.8091L2.27344 14.2377C2.39453 14.1889 2.51074 14.1147 2.62207 14.015C2.7334 13.9135 2.82422 13.7875 2.89453 13.6371C2.96484 13.4848 3 13.3109 3 13.1156C3 12.8598 2.94434 12.6371 2.83301 12.4477C2.72363 12.2582 2.56445 12.1117 2.35547 12.0082C2.14648 11.9027 1.89355 11.85 1.59668 11.85ZM0.782227 13.7631V12.4711H1.48242C1.69141 12.4711 1.86035 12.5277 1.98926 12.641C2.11816 12.7543 2.18262 12.9174 2.18262 13.1303C2.18262 13.3412 2.11816 13.4994 1.98926 13.6049C1.8623 13.7104 1.68945 13.7631 1.4707 13.7631H0.782227ZM4.84465 12.6147L5.33391 14.2318H4.32023L4.80949 12.6147H4.84465ZM8.85141 13.06L8.1102 15.849H7.3807L6.32602 11.85H7.18148L7.78207 14.7533H7.82016L8.52621 11.85H9.20883L9.91488 14.7533H9.9559L10.5506 11.85H11.409L10.3543 15.849H9.62484L8.88363 13.06H8.85141Z" fill="black"/>
</svg>
