<svg width="16" height="16" viewBox="0 0 16 16" fill="none" xmlns="http://www.w3.org/2000/svg">
<path d="M4 0H12C13.1046 0 14 0.89543 14 2V10.2929L11.2709 7.5638C10.834 7.12685 10.1092 7.18683 9.75007 7.68967L7.86143 10.3338L6.092 9.27211C5.69853 9.03602 5.19487 9.09802 4.8704 9.42249L2 12.2929V2C2 0.89543 2.89543 0 4 0ZM8.00153 5.5C8.00153 4.67157 7.32995 4 6.50153 4C5.6731 4 5.00153 4.67157 5.00153 5.5C5.00153 6.32843 5.6731 7 6.50153 7C7.32995 7 8.00153 6.32843 8.00153 5.5Z" fill="black"/>
<path d="M10.5638 8.27091L14 11.7071V14C14 15.1046 13.1046 16 12 16H4C2.89543 16 2 15.1046 2 14V13.7071L5.57751 10.1296L8.13857 11.6662L10.5638 8.27091Z" fill="black"/>
</svg>
