<svg width="16" height="16" viewBox="0 0 16 16" fill="none" xmlns="http://www.w3.org/2000/svg">
<path d="M8 6.5C8.27614 6.5 8.5 6.72386 8.5 7V8.5H10C10.2761 8.5 10.5 8.72386 10.5 9C10.5 9.27614 10.2761 9.5 10 9.5H8.5V11C8.5 11.2761 8.27614 11.5 8 11.5C7.72386 11.5 7.5 11.2761 7.5 11V9.5H6C5.72386 9.5 5.5 9.27614 5.5 9C5.5 8.72386 5.72386 8.5 6 8.5H7.5V7C7.5 6.72386 7.72386 6.5 8 6.5Z" fill="black"/>
<path d="M14 4.5V14C14 15.1046 13.1046 16 12 16H4C2.89543 16 2 15.1046 2 14V2C2 0.89543 2.89543 0 4 0H9.5L14 4.5ZM11 4.5C10.1716 4.5 9.5 3.82843 9.5 3V1H4C3.44772 1 3 1.44772 3 2V14C3 14.5523 3.44772 15 4 15H12C12.5523 15 13 14.5523 13 14V4.5H11Z" fill="black"/>
</svg>
