<svg width="16" height="16" viewBox="0 0 16 16" fill="none" xmlns="http://www.w3.org/2000/svg">
<path d="M10.9433 6H5.05674L5 8H5.5C5.67967 6.90443 5.85579 6.80817 7.19385 6.76454L7.487 6.75485V11.8456C7.487 12.3158 7.38771 12.4273 6.58865 12.5V13H9.41135V12.5C8.60756 12.4273 8.50827 12.3158 8.50827 11.8456V6.75485L8.80615 6.76454C10.1442 6.80817 10.3203 6.90443 10.5 8H11L10.9433 6Z" fill="black"/>
<path d="M14 4.5V14C14 15.1046 13.1046 16 12 16H4C2.89543 16 2 15.1046 2 14V2C2 0.89543 2.89543 0 4 0H9.5L14 4.5ZM11 4.5C10.1716 4.5 9.5 3.82843 9.5 3V1H4C3.44772 1 3 1.44772 3 2V14C3 14.5523 3.44772 15 4 15H12C12.5523 15 13 14.5523 13 14V4.5H11Z" fill="black"/>
</svg>
