<svg width="16" height="16" viewBox="0 0 16 16" fill="none" xmlns="http://www.w3.org/2000/svg">
<path d="M8.5 4.5C8.5 4.22386 8.27614 4 8 4C7.72385 4 7.5 4.22386 7.5 4.5V5.13397L6.95096 4.81699C6.71182 4.67892 6.40602 4.76085 6.26795 5C6.12988 5.23915 6.21182 5.54494 6.45096 5.68301L7 6L6.45096 6.31699C6.21181 6.45506 6.12987 6.76085 6.26795 7C6.40602 7.23915 6.71181 7.32108 6.95096 7.18301L7.5 6.86602V7.5C7.5 7.77614 7.72385 8 8 8C8.27614 8 8.5 7.77614 8.5 7.5V6.86602L9.04904 7.18301C9.28819 7.32108 9.59398 7.23915 9.73205 7C9.87012 6.76085 9.78819 6.45506 9.54904 6.31699L9 6L9.54903 5.68301C9.78818 5.54494 9.87012 5.23915 9.73205 5C9.59398 4.76085 9.28818 4.67892 9.04904 4.81699L8.5 5.13397V4.5Z" fill="black"/>
<path d="M5.5 9C5.22386 9 5 9.22386 5 9.5C5 9.77614 5.22386 10 5.5 10H10.5C10.7761 10 11 9.77614 11 9.5C11 9.22386 10.7761 9 10.5 9H5.5Z" fill="black"/>
<path d="M5.5 11C5.22386 11 5 11.2239 5 11.5C5 11.7761 5.22386 12 5.5 12H10.5C10.7761 12 11 11.7761 11 11.5C11 11.2239 10.7761 11 10.5 11H5.5Z" fill="black"/>
<path d="M2 2C2 0.89543 2.89543 0 4 0H12C13.1046 0 14 0.89543 14 2V14C14 15.1046 13.1046 16 12 16H4C2.89543 16 2 15.1046 2 14V2ZM12 1H4C3.44772 1 3 1.44772 3 2V14C3 14.5523 3.44772 15 4 15H12C12.5523 15 13 14.5523 13 14V2C13 1.44772 12.5523 1 12 1Z" fill="black"/>
</svg>
