<svg width="16" height="16" viewBox="0 0 16 16" fill="none" xmlns="http://www.w3.org/2000/svg">
<path d="M2 2C2 0.895431 2.89543 0 4 0H12C13.1046 0 14 0.895431 14 2V14C14 15.1046 13.1046 16 12 16H4C2.89543 16 2 15.1046 2 14V2ZM4 1C3.44772 1 3 1.44772 3 2V6H13V2C13 1.44772 12.5523 1 12 1H4ZM13 7H10V9H13V7ZM13 10H10V12H13V10ZM13 13H10V15H12C12.5523 15 13 14.5523 13 14V13ZM9 15V13H6V15H9ZM5 15V13H3V14C3 14.5523 3.44772 15 4 15H5ZM3 12H5V10H3V12ZM3 9H5V7H3V9ZM6 7V9H9V7H6ZM9 10H6V12H9V10Z" fill="black"/>
</svg>
