<svg width="16" height="16" viewBox="0 0 16 16" fill="none" xmlns="http://www.w3.org/2000/svg">
<path fill-rule="evenodd" clip-rule="evenodd" d="M14 4.5V14C14 15.1046 13.1046 16 12 16V15C12.5523 15 13 14.5523 13 14V4.5H11C10.1716 4.5 9.5 3.82843 9.5 3V1H4C3.44772 1 3 1.44772 3 2V11H2V2C2 0.89543 2.89543 0 4 0H9.5L14 4.5ZM0.706055 15.849V13.1889H0.744141L1.69629 15.348H2.21191L3.1582 13.1889H3.19629V15.849H3.91113V11.85H3.11133L1.97168 14.4457H1.94531L0.805664 11.85H0V15.849H0.706055ZM4.2648 11.85V15.849H5.72379C6.12613 15.849 6.45914 15.7699 6.72281 15.6117C6.98844 15.4535 7.18668 15.224 7.31754 14.9232C7.4484 14.6225 7.51383 14.2611 7.51383 13.8393C7.51383 13.4193 7.4484 13.0609 7.31754 12.7641C7.18863 12.4672 6.99234 12.2406 6.72867 12.0844C6.465 11.9281 6.13004 11.85 5.72379 11.85H4.2648ZM5.05582 12.4945H5.61832C5.86637 12.4945 6.06949 12.5453 6.2277 12.6469C6.38785 12.7484 6.50602 12.8998 6.58219 13.101C6.66031 13.3021 6.69938 13.5531 6.69938 13.8539C6.69938 14.0805 6.67691 14.2777 6.63199 14.4457C6.58902 14.6137 6.52359 14.7543 6.4357 14.8676C6.34977 14.9789 6.23844 15.0629 6.10172 15.1195C5.965 15.1742 5.80387 15.2016 5.61832 15.2016H5.05582V12.4945ZM9.84211 11.85H10.7357L9.46125 13.8568L10.7152 15.849H9.80695L8.95734 14.434H8.92219L8.06965 15.849H7.20832L8.44758 13.8334L7.22004 11.85H8.15168L8.98371 13.2885H9.01887L9.84211 11.85Z" fill="black"/>
</svg>
