<svg width="16" height="16" viewBox="0 0 16 16" fill="none" xmlns="http://www.w3.org/2000/svg">
<path d="M12 0H4C2.89543 0 2 0.89543 2 2V14C2 15.1046 2.89543 16 4 16H12C13.1046 16 14 15.1046 14 14V2C14 0.89543 13.1046 0 12 0ZM5.48507 4.87873L6.52103 9.02258L7.51761 5.36844C7.57694 5.15091 7.77452 5 8 5C8.22547 5 8.42305 5.15091 8.48238 5.36844L9.47896 9.02258L10.5149 4.87873C10.5819 4.61083 10.8534 4.44795 11.1213 4.51493C11.3892 4.5819 11.552 4.85337 11.4851 5.12126L9.98507 11.1213C9.9299 11.3419 9.73275 11.4975 9.50531 11.5C9.27787 11.5024 9.07746 11.351 9.01761 11.1316L8 7.40029L6.98238 11.1316C6.92253 11.351 6.72212 11.5024 6.49468 11.5C6.26724 11.4975 6.07009 11.3419 6.01493 11.1213L4.51493 5.12126C4.44795 4.85337 4.61083 4.5819 4.87873 4.51493C5.14663 4.44795 5.41809 4.61083 5.48507 4.87873Z" fill="black"/>
</svg>
