<svg width="16" height="16" viewBox="0 0 16 16" fill="none" xmlns="http://www.w3.org/2000/svg">
<path d="M12 0H4C2.89543 0 2 0.89543 2 2V6H14V2C14 0.89543 13.1046 0 12 0Z" fill="black"/>
<path d="M14 7H10V9H14V7Z" fill="black"/>
<path d="M14 10H10V12H14V10Z" fill="black"/>
<path d="M14 13H10V16H12C13.1046 16 14 15.1046 14 14V13Z" fill="black"/>
<path d="M9 16V13H6V16H9Z" fill="black"/>
<path d="M5 16V13H2V14C2 15.1046 2.89543 16 4 16H5Z" fill="black"/>
<path d="M2 12H5V10H2V12Z" fill="black"/>
<path d="M2 9H5V7H2V9Z" fill="black"/>
<path d="M6 9V7H9V9H6Z" fill="black"/>
<path d="M6 10H9V12H6V10Z" fill="black"/>
</svg>
