<svg width="16" height="16" viewBox="0 0 16 16" fill="none" xmlns="http://www.w3.org/2000/svg">
<path d="M12 0H4C2.89543 0 2 0.89543 2 2V14C2 15.1046 2.89543 16 4 16H12C13.1046 16 14 15.1046 14 14V2C14 0.89543 13.1046 0 12 0ZM4.5 3H9.5C9.77614 3 10 3.22386 10 3.5C10 3.77614 9.77614 4 9.5 4H4.5C4.22386 4 4 3.77614 4 3.5C4 3.22386 4.22386 3 4.5 3ZM4.5 5H11.5C11.7761 5 12 5.22386 12 5.5V13.5C12 13.7761 11.7761 14 11.5 14H4.5C4.22386 14 4 13.7761 4 13.5V5.5C4 5.22386 4.22386 5 4.5 5Z" fill="black"/>
</svg>
