<svg width="16" height="16" viewBox="0 0 16 16" fill="none" xmlns="http://www.w3.org/2000/svg">
<path fill-rule="evenodd" clip-rule="evenodd" d="M14 4.5V14C14 15.1046 13.1046 16 12 16H11.5V15H12C12.5523 15 13 14.5523 13 14V4.5H11C10.1716 4.5 9.5 3.82843 9.5 3V1H4C3.44772 1 3 1.44772 3 2V11H2V2C2 0.89543 2.89543 0 4 0H9.5L14 4.5ZM3.11602 14.8412C3.12383 14.9994 3.16094 15.1488 3.22734 15.2895C3.29375 15.4301 3.39043 15.5551 3.51738 15.6645C3.64629 15.7719 3.80547 15.8559 3.99492 15.9164C4.18437 15.977 4.40605 16.0072 4.65996 16.0072C4.99785 16.0072 5.28398 15.9545 5.51836 15.849C5.75469 15.7436 5.93437 15.5971 6.05742 15.4096C6.18242 15.2201 6.24492 15.0014 6.24492 14.7533C6.24492 14.5287 6.2 14.3422 6.11016 14.1938C6.02031 14.0453 5.89531 13.9262 5.73516 13.8363C5.575 13.7445 5.38652 13.6742 5.16973 13.6254L4.54863 13.4818C4.3748 13.4428 4.24004 13.3842 4.14434 13.3061C4.04863 13.2279 4.00078 13.1283 4.00078 13.0072C4.00078 12.851 4.0623 12.7231 4.18535 12.6234C4.31035 12.5219 4.48125 12.4711 4.69805 12.4711C4.84062 12.4711 4.96367 12.4936 5.06719 12.5385C5.1707 12.5834 5.25273 12.644 5.31328 12.7201C5.37578 12.7963 5.41582 12.8822 5.4334 12.9779H6.1834C6.16973 12.7709 6.10332 12.5824 5.98418 12.4125C5.86699 12.2406 5.7 12.1039 5.4832 12.0023C5.26836 11.9008 5.00859 11.85 4.70391 11.85C4.41094 11.85 4.15215 11.8998 3.92754 11.9994C3.70293 12.099 3.52715 12.2397 3.4002 12.4213C3.27324 12.6029 3.20977 12.8158 3.20977 13.06C3.20977 13.2611 3.25078 13.4359 3.33281 13.5844C3.41484 13.7328 3.53203 13.8549 3.68437 13.9506C3.83672 14.0463 4.01641 14.1176 4.22344 14.1645L4.8416 14.308C5.04863 14.3568 5.20293 14.4213 5.30449 14.5014C5.40605 14.5795 5.45684 14.6879 5.45684 14.8266C5.45684 14.9359 5.42852 15.0326 5.37187 15.1166C5.31523 15.1986 5.23027 15.2631 5.11699 15.31C5.00566 15.3568 4.86797 15.3803 4.70391 15.3803C4.58672 15.3803 4.48027 15.3666 4.38457 15.3393C4.28887 15.3119 4.20586 15.2738 4.13555 15.225C4.06523 15.1762 4.00859 15.1195 3.96562 15.0551C3.92266 14.9887 3.89434 14.9174 3.88066 14.8412H3.11602ZM1.59961 11.932H0V15.9311H0.791016V14.5893H1.59375C1.88086 14.5893 2.125 14.5316 2.32617 14.4164C2.5293 14.2992 2.68359 14.141 2.78906 13.9418C2.89648 13.7406 2.9502 13.515 2.9502 13.265C2.9502 13.015 2.89746 12.7895 2.79199 12.5883C2.68652 12.3871 2.5332 12.2279 2.33203 12.1107C2.13281 11.9916 1.88867 11.932 1.59961 11.932ZM2.14453 13.265C2.14453 13.4135 2.11621 13.5404 2.05957 13.6459C2.00488 13.7494 1.92578 13.8295 1.82227 13.8861C1.71875 13.9408 1.59375 13.9682 1.44727 13.9682H0.788086V12.5619H1.44727C1.66602 12.5619 1.83691 12.6225 1.95996 12.7436C2.08301 12.8647 2.14453 13.0385 2.14453 13.265ZM6.75352 15.9311V11.932H8.2125C8.61875 11.932 8.95371 12.0102 9.21738 12.1664C9.48105 12.3227 9.67734 12.5492 9.80625 12.8461C9.93711 13.143 10.0025 13.5014 10.0025 13.9213C10.0025 14.3432 9.93711 14.7045 9.80625 15.0053C9.67539 15.3061 9.47715 15.5356 9.21152 15.6938C8.94785 15.852 8.61484 15.9311 8.2125 15.9311H6.75352ZM8.10703 12.5766H7.54453V15.2836H8.10703C8.29258 15.2836 8.45371 15.2563 8.59043 15.2016C8.72715 15.1449 8.83848 15.0609 8.92441 14.9496C9.0123 14.8363 9.07773 14.6957 9.1207 14.5277C9.16562 14.3598 9.18809 14.1625 9.18809 13.9359C9.18809 13.6352 9.14902 13.3842 9.0709 13.183C8.99473 12.9818 8.87656 12.8305 8.71641 12.7289C8.5582 12.6273 8.35508 12.5766 8.10703 12.5766Z" fill="black"/>
</svg>
