<svg width="16" height="16" viewBox="0 0 16 16" fill="none" xmlns="http://www.w3.org/2000/svg">
<path d="M12 0H4C2.89543 0 2 0.89543 2 2V14C2 15.1046 2.89543 16 4 16H12C13.1046 16 14 15.1046 14 14V2C14 0.89543 13.1046 0 12 0ZM5.05674 4H10.9433L11 6H10.5C10.3203 4.90443 10.1442 4.80817 8.80615 4.76454L8.50827 4.75485V10.8456C8.50827 11.3158 8.60756 11.4273 9.41135 11.5V12H6.58865V11.5C7.38771 11.4273 7.487 11.3158 7.487 10.8456V4.75485L7.19385 4.76454C5.85579 4.80817 5.67967 4.90443 5.5 6H5L5.05674 4Z" fill="black"/>
</svg>
