<svg width="16" height="16" viewBox="0 0 16 16" fill="none" xmlns="http://www.w3.org/2000/svg">
<path d="M7 9.77923V7.22077C7 7.12361 7.106 7.0636 7.18931 7.11359L9.32136 8.39281C9.40227 8.44136 9.40227 8.55864 9.32136 8.60719L7.18931 9.88641C7.106 9.9364 7 9.87639 7 9.77923Z" fill="black"/>
<path d="M9.29289 0H4C2.89543 0 2 0.895431 2 2V14C2 15.1046 2.89543 16 4 16H12C13.1046 16 14 15.1046 14 14V4.70711C14 4.44189 13.8946 4.18754 13.7071 4L10 0.292893C9.81246 0.105357 9.55811 0 9.29289 0ZM9.5 3.5V1.5L12.5 4.5H10.5C9.94772 4.5 9.5 4.05228 9.5 3.5ZM5 6H11C11.2522 6 11.4649 6.18777 11.4961 6.43798L11.9961 10.438C12.0139 10.5803 11.9698 10.7234 11.8748 10.8309C11.7799 10.9384 11.6434 11 11.5 11H8.5V13.0158C9.36262 13.0713 10 13.267 10 13.5C10 13.7761 9.10457 14 8 14C6.89543 14 6 13.7761 6 13.5C6 13.267 6.63739 13.0713 7.5 13.0158V11H4.5C4.35659 11 4.22008 10.9384 4.12516 10.8309C4.03025 10.7234 3.98608 10.5803 4.00386 10.438L4.50386 6.43798C4.53514 6.18777 4.74784 6 5 6Z" fill="black"/>
</svg>
