<svg width="16" height="16" viewBox="0 0 16 16" fill="none" xmlns="http://www.w3.org/2000/svg">
<path d="M9.29289 0H4C2.89543 0 2 0.895431 2 2V14C2 15.1046 2.89543 16 4 16H12C13.1046 16 14 15.1046 14 14V4.70711C14 4.44189 13.8946 4.18754 13.7071 4L10 0.292893C9.81246 0.105357 9.55811 0 9.29289 0ZM9.5 3.5V1.5L12.5 4.5H10.5C9.94772 4.5 9.5 4.05228 9.5 3.5ZM10 13.5V7.5C10 7.22386 10.2239 7 10.5 7H11.5C11.7761 7 12 7.22386 12 7.5V13.5C12 13.7761 11.7761 14 11.5 14H10.5C10.2239 14 10 13.7761 10 13.5ZM7.5 14C7.22386 14 7 13.7761 7 13.5V9.5C7 9.22386 7.22386 9 7.5 9H8.5C8.77614 9 9 9.22386 9 9.5V13.5C9 13.7761 8.77614 14 8.5 14H7.5ZM4.5 14C4.22386 14 4 13.7761 4 13.5V11.5C4 11.2239 4.22386 11 4.5 11H5.5C5.77614 11 6 11.2239 6 11.5V13.5C6 13.7761 5.77614 14 5.5 14H4.5Z" fill="black"/>
</svg>
