<svg width="16" height="16" viewBox="0 0 16 16" fill="none" xmlns="http://www.w3.org/2000/svg">
<path fill-rule="evenodd" clip-rule="evenodd" d="M14 4.5V14C14 15.1046 13.1046 16 12 16V15C12.5523 15 13 14.5523 13 14V4.5H11C10.1716 4.5 9.5 3.82843 9.5 3V1H4C3.44772 1 3 1.44772 3 2V11H2V2C2 0.89543 2.89543 0 4 0H9.5L14 4.5ZM1.78418 15.849L2.52539 13.06H2.55762L3.29883 15.849H4.02832L5.08301 11.85H4.22461L3.62988 14.7533H3.58887L2.88281 11.85H2.2002L1.49414 14.7533H1.45605L0.855469 11.85H0L1.05469 15.849H1.78418ZM5.49949 15.849L5.81297 14.8207H7.14891L7.46238 15.849H8.3032L6.96727 11.85H6.04148L4.69969 15.849H5.49949ZM6.50145 12.6146L6.9907 14.2318H5.97703L6.46629 12.6146H6.50145ZM10.1054 15.849H9.15328L7.81441 11.85H8.73141L9.62789 14.9877H9.66598L10.5537 11.85H11.4326L10.1054 15.849Z" fill="black"/>
</svg>
