<svg width="16" height="16" viewBox="0 0 16 16" fill="none" xmlns="http://www.w3.org/2000/svg">
<path d="M5 7.5C5 7.22386 5.22386 7 5.5 7H10.5C10.7761 7 11 7.22386 11 7.5V9.5C11 9.77614 10.7761 10 10.5 10H5.5C5.22386 10 5 9.77614 5 9.5V7.5Z" fill="black"/>
<path d="M9.29289 0H4C2.89543 0 2 0.895431 2 2V14C2 15.1046 2.89543 16 4 16H12C13.1046 16 14 15.1046 14 14V4.70711C14 4.44189 13.8946 4.18754 13.7071 4L10 0.292893C9.81246 0.105357 9.55811 0 9.29289 0ZM9.5 3.5V1.5L12.5 4.5H10.5C9.94772 4.5 9.5 4.05228 9.5 3.5ZM8.50001 6H10.5C11.3284 6 12 6.67157 12 7.5V9.5C12 10.3284 11.3284 11 10.5 11H10.0271L10.4744 12.3419C10.5617 12.6039 10.4201 12.887 10.1581 12.9743C9.89616 13.0617 9.613 12.9201 9.52567 12.6581L8.97297 11H8.50001V12C8.50001 12.2761 8.27616 12.5 8.00001 12.5C7.72387 12.5 7.50001 12.2761 7.50001 12V11H7.02706L6.47436 12.6581C6.38703 12.9201 6.10387 13.0617 5.8419 12.9743C5.57993 12.887 5.43835 12.6039 5.52567 12.3419L5.97297 11H5.5C4.67157 11 4 10.3284 4 9.5V7.5C4 6.67157 4.67157 6 5.5 6H7.50001C7.50001 5.72386 7.72387 5.5 8.00001 5.5C8.27616 5.5 8.50001 5.72386 8.50001 6Z" fill="black"/>
</svg>
