<svg width="16" height="16" viewBox="0 0 16 16" fill="none" xmlns="http://www.w3.org/2000/svg">
<path d="M9.29289 0H4C2.89543 0 2 0.895431 2 2V14C2 15.1046 2.89543 16 4 16H12C13.1046 16 14 15.1046 14 14V4.70711C14 4.44189 13.8946 4.18754 13.7071 4L10 0.292893C9.81246 0.105357 9.55811 0 9.29289 0ZM9.5 3.5V1.5L12.5 4.5H10.5C9.94772 4.5 9.5 4.05228 9.5 3.5ZM11 6.64039V8.39039L9 8.89038V12.5C9 12.9953 8.69885 13.3826 8.33801 13.6231C7.97368 13.866 7.49916 14 7 14C6.50084 14 6.02632 13.866 5.66199 13.6231C5.30115 13.3826 5 12.9953 5 12.5C5 12.0047 5.30115 11.6174 5.66199 11.3769C6.02632 11.134 6.50084 11 7 11C7.35625 11 7.69995 11.0682 8 11.1956V6.89039C8 6.43152 8.3123 6.03153 8.75746 5.92024L9.75746 5.67024C10.3886 5.51246 11 5.98981 11 6.64039Z" fill="black"/>
</svg>
