<svg width="16" height="16" viewBox="0 0 16 16" fill="none" xmlns="http://www.w3.org/2000/svg">
<path fill-rule="evenodd" clip-rule="evenodd" d="M14 4.5V14C14 15.1046 13.1046 16 12 16V15C12.5523 15 13 14.5523 13 14V4.5H11C10.1716 4.5 9.5 3.82843 9.5 3V1H4C3.44772 1 3 1.44772 3 2V11H2V2C2 0.89543 2.89543 0 4 0H9.5L14 4.5ZM0.706055 15.849V13.1889H0.744141L1.69629 15.3481H2.21191L3.1582 13.1889H3.19629V15.849H3.91113V11.85H3.11133L1.97168 14.4457H1.94531L0.805664 11.85H0V15.849H0.706055ZM5.94316 11.85C5.68145 12.2836 5.41777 12.7172 5.15215 13.1508C4.88848 13.5844 4.63945 14.0209 4.40508 14.4604V15.1078H6.3416V15.849H7.08281V15.1078H7.57207V14.4691H7.08281V11.85H5.94316ZM5.12285 14.4691V14.4486C5.30254 14.1088 5.49297 13.7699 5.69414 13.432C5.89727 13.0941 6.09941 12.766 6.30059 12.4477H6.3416V14.4691H5.12285ZM8.01621 11.85H9.61582C9.90488 11.85 10.149 11.9096 10.3482 12.0287C10.5494 12.1459 10.7027 12.3051 10.8082 12.5063C10.9137 12.7074 10.9664 12.933 10.9664 13.183C10.9664 13.433 10.9127 13.6586 10.8053 13.8598C10.6998 14.059 10.5455 14.2172 10.3424 14.3344C10.1412 14.4496 9.89707 14.5072 9.60996 14.5072H8.80723V15.849H8.01621V11.85ZM10.0758 13.5639C10.1324 13.4584 10.1607 13.3315 10.1607 13.183C10.1607 12.9565 10.0992 12.7826 9.97617 12.6615C9.85312 12.5404 9.68223 12.4799 9.46348 12.4799H8.8043V13.8861H9.46348C9.60996 13.8861 9.73496 13.8588 9.83848 13.8041C9.94199 13.7475 10.0211 13.6674 10.0758 13.5639Z" fill="black"/>
</svg>
