<svg width="16" height="16" viewBox="0 0 16 16" fill="none" xmlns="http://www.w3.org/2000/svg">
<path d="M8 4C8.27614 4 8.5 4.22386 8.5 4.5V6H10C10.2761 6 10.5 6.22386 10.5 6.5C10.5 6.77614 10.2761 7 10 7H8.5V8.5C8.5 8.77614 8.27614 9 8 9C7.72386 9 7.5 8.77614 7.5 8.5V7H6C5.72386 7 5.5 6.77614 5.5 6.5C5.5 6.22386 5.72386 6 6 6H7.5V4.5C7.5 4.22386 7.72386 4 8 4Z" fill="black"/>
<path d="M5.5 10.5C5.5 10.2239 5.72386 10 6 10H10C10.2761 10 10.5 10.2239 10.5 10.5C10.5 10.7761 10.2761 11 10 11H6C5.72386 11 5.5 10.7761 5.5 10.5Z" fill="black"/>
<path d="M2 2C2 0.89543 2.89543 0 4 0H12C13.1046 0 14 0.89543 14 2V14C14 15.1046 13.1046 16 12 16H4C2.89543 16 2 15.1046 2 14V2ZM12 1H4C3.44772 1 3 1.44772 3 2V14C3 14.5523 3.44772 15 4 15H12C12.5523 15 13 14.5523 13 14V2C13 1.44772 12.5523 1 12 1Z" fill="black"/>
</svg>
