<svg width="16" height="16" viewBox="0 0 16 16" fill="none" xmlns="http://www.w3.org/2000/svg">
<path d="M6.5 7.5C6.5 6.94772 6.94772 6.5 7.5 6.5H8.5C9.05229 6.5 9.5 6.94772 9.5 7.5V8.43845L9.89961 10.0369C10.0021 10.4469 9.83581 10.8771 9.48417 11.1115L8.5547 11.7311C8.2188 11.9551 7.7812 11.9551 7.4453 11.7311L6.51583 11.1115C6.1642 10.8771 5.99789 10.4469 6.10039 10.0369L6.5 8.43845V7.5ZM8.5 7.5H7.5V8.43845C7.5 8.52021 7.48998 8.60166 7.47015 8.68098L7.07053 10.2794L8 10.8991L8.92947 10.2794L8.52986 8.68098C8.51003 8.60166 8.5 8.52021 8.5 8.43845V7.5Z" fill="black"/>
<path d="M2 2C2 0.89543 2.89543 0 4 0H12C13.1046 0 14 0.89543 14 2V14C14 15.1046 13.1046 16 12 16H4C2.89543 16 2 15.1046 2 14V2ZM7.5 1H4C3.44772 1 3 1.44772 3 2V14C3 14.5523 3.44772 15 4 15H12C12.5523 15 13 14.5523 13 14V2C13 1.44772 12.5523 1 12 1H9V2H8V3H9V4H8V5H9V6H7.5V5H6.5V4H7.5V3H6.5V2H7.5V1Z" fill="black"/>
</svg>
