<svg width="16" height="16" viewBox="0 0 16 16" fill="none" xmlns="http://www.w3.org/2000/svg">
<path d="M7 5.5C6.44772 5.5 6 5.94772 6 6.5V13C6 13.2761 6.22386 13.5 6.5 13.5C6.77614 13.5 7 13.2761 7 13V11H8.1875C9.70628 11 10.9375 9.76878 10.9375 8.25C10.9375 6.73122 9.70628 5.5 8.1875 5.5H7ZM8.1875 10H7V6.5H8.1875C9.154 6.5 9.9375 7.2835 9.9375 8.25C9.9375 9.2165 9.154 10 8.1875 10Z" fill="black"/>
<path d="M14 4.5V14C14 15.1046 13.1046 16 12 16H4C2.89543 16 2 15.1046 2 14V2C2 0.89543 2.89543 0 4 0H9.5L14 4.5ZM11 4.5C10.1716 4.5 9.5 3.82843 9.5 3V1H4C3.44772 1 3 1.44772 3 2V14C3 14.5523 3.44772 15 4 15H12C12.5523 15 13 14.5523 13 14V4.5H11Z" fill="black"/>
</svg>
