<svg width="16" height="16" viewBox="0 0 16 16" fill="none" xmlns="http://www.w3.org/2000/svg">
<path d="M9.29289 0H4C2.89543 0 2 0.895431 2 2V14C2 15.1046 2.89543 16 4 16H12C13.1046 16 14 15.1046 14 14V4.70711C14 4.44189 13.8946 4.18754 13.7071 4L10 0.292893C9.81246 0.105357 9.55811 0 9.29289 0ZM9.5 3.5V1.5L12.5 4.5H10.5C9.94772 4.5 9.5 4.05228 9.5 3.5ZM10.8536 7.85355L7.85355 10.8536C7.75979 10.9473 7.63261 11 7.5 11C7.36739 11 7.24021 10.9473 7.14645 10.8536L5.64645 9.35355C5.45118 9.15829 5.45118 8.84171 5.64645 8.64645C5.84171 8.45118 6.15829 8.45118 6.35355 8.64645L7.5 9.79289L10.1464 7.14645C10.3417 6.95118 10.6583 6.95118 10.8536 7.14645C11.0488 7.34171 11.0488 7.65829 10.8536 7.85355Z" fill="black"/>
</svg>
