<svg width="16" height="16" viewBox="0 0 16 16" fill="none" xmlns="http://www.w3.org/2000/svg">
<path d="M12 0H4C2.89543 0 2 0.89543 2 2V14C2 15.1046 2.89543 16 4 16H12C13.1046 16 14 15.1046 14 14V2C14 0.89543 13.1046 0 12 0ZM7.5 6.70711L6.35355 7.85355C6.15829 8.04882 5.84171 8.04882 5.64645 7.85355C5.45118 7.65829 5.45118 7.34171 5.64645 7.14645L7.64645 5.14645C7.84171 4.95118 8.15829 4.95118 8.35355 5.14645L10.3536 7.14645C10.5488 7.34171 10.5488 7.65829 10.3536 7.85355C10.1583 8.04882 9.84171 8.04882 9.64645 7.85355L8.5 6.70711V10.5C8.5 10.7761 8.27614 11 8 11C7.72386 11 7.5 10.7761 7.5 10.5V6.70711Z" fill="black"/>
</svg>
