<svg width="16" height="16" viewBox="0 0 16 16" fill="none" xmlns="http://www.w3.org/2000/svg">
<path fill-rule="evenodd" clip-rule="evenodd" d="M14 4.5V11H13V4.5H11C10.1716 4.5 9.5 3.82843 9.5 3V1H4C3.44772 1 3 1.44772 3 2V11H2V2C2 0.89543 2.89543 0 4 0H9.5L14 4.5ZM9.3627 13.0541C9.29434 13.2279 9.26016 13.4389 9.26016 13.6869V14.182C9.26016 14.4281 9.29434 14.6371 9.3627 14.809C9.43106 14.9809 9.53066 15.1117 9.66152 15.2016C9.79434 15.2895 9.95352 15.3334 10.1391 15.3334C10.2914 15.3334 10.4252 15.3041 10.5404 15.2455C10.6557 15.185 10.7465 15.102 10.8129 14.9965C10.8793 14.891 10.9184 14.7699 10.9301 14.6332H11.6947V14.6713V14.7094C11.6811 14.9633 11.6059 15.1879 11.4691 15.3832C11.3324 15.5766 11.1488 15.7279 10.9184 15.8373C10.6879 15.9467 10.4262 16.0014 10.1332 16.0014C9.77383 16.0014 9.46914 15.9291 9.21914 15.7846C8.96914 15.6381 8.77871 15.4291 8.64785 15.1576C8.51895 14.8861 8.45449 14.5609 8.45449 14.182V13.684C8.45449 13.3051 8.51992 12.9789 8.65078 12.7055C8.78164 12.432 8.97207 12.2211 9.22207 12.0727C9.47402 11.9242 9.77773 11.85 10.1332 11.85C10.352 11.85 10.5541 11.8822 10.7396 11.9467C10.9271 12.0092 11.0902 12.1 11.2289 12.2191C11.3676 12.3383 11.477 12.4789 11.557 12.641C11.6391 12.8031 11.685 12.9838 11.6947 13.183V13.2211V13.2563H10.9301C10.9184 13.1137 10.8783 12.9867 10.81 12.8754C10.7436 12.7641 10.6527 12.6772 10.5375 12.6147C10.4223 12.5502 10.2895 12.518 10.1391 12.518C9.95547 12.518 9.79727 12.5639 9.66445 12.6557C9.53359 12.7475 9.43301 12.8803 9.3627 13.0541ZM3.26367 11.9262V15.9252H2.47266V14.2113H0.791016V15.9252H0V11.9262H0.791016V13.5522H2.47266V11.9262H3.26367ZM4.75078 15.2777H6.54082V15.9252H3.96562V11.9262H6.54082V12.5736H4.75078V13.599H6.43535V14.2055H4.75078V15.2777ZM7.91367 15.9252V11.9262H7.12266V15.9252H7.91367Z" fill="black"/>
</svg>
