<svg width="16" height="16" viewBox="0 0 16 16" fill="none" xmlns="http://www.w3.org/2000/svg">
<path d="M7.5 5.5C7.5 5.22386 7.27614 5 7 5C6.72385 5 6.5 5.22386 6.5 5.5V6.13397L5.95096 5.81699C5.71182 5.67892 5.40602 5.76085 5.26795 6C5.12988 6.23915 5.21182 6.54494 5.45096 6.68301L6 7L5.45096 7.31699C5.21181 7.45506 5.12987 7.76085 5.26795 8C5.40602 8.23915 5.71181 8.32108 5.95096 8.18301L6.5 7.86602V8.5C6.5 8.77614 6.72385 9 7 9C7.27614 9 7.5 8.77614 7.5 8.5V7.86602L8.04904 8.18301C8.28819 8.32108 8.59398 8.23915 8.73205 8C8.87012 7.76085 8.78819 7.45506 8.54904 7.31699L8 7L8.54903 6.68301C8.78818 6.54494 8.87012 6.23915 8.73205 6C8.59398 5.76085 8.28818 5.67892 8.04904 5.81699L7.5 6.13397V5.5Z" fill="black"/>
<path d="M5.5 10C5.22386 10 5 10.2239 5 10.5C5 10.7761 5.22386 11 5.5 11H10.5C10.7761 11 11 10.7761 11 10.5C11 10.2239 10.7761 10 10.5 10H5.5Z" fill="black"/>
<path d="M5.5 12C5.22386 12 5 12.2239 5 12.5C5 12.7761 5.22386 13 5.5 13H10.5C10.7761 13 11 12.7761 11 12.5C11 12.2239 10.7761 12 10.5 12H5.5Z" fill="black"/>
<path d="M14 14V4.5L9.5 0H4C2.89543 0 2 0.89543 2 2V14C2 15.1046 2.89543 16 4 16H12C13.1046 16 14 15.1046 14 14ZM9.5 3C9.5 3.82843 10.1716 4.5 11 4.5H13V14C13 14.5523 12.5523 15 12 15H4C3.44772 15 3 14.5523 3 14V2C3 1.44772 3.44772 1 4 1H9.5V3Z" fill="black"/>
</svg>
