<svg width="16" height="16" viewBox="0 0 16 16" fill="none" xmlns="http://www.w3.org/2000/svg">
<path fill-rule="evenodd" clip-rule="evenodd" d="M14 4.5V14C14 15.1046 13.1046 16 12 16H11V15H12C12.5523 15 13 14.5523 13 14V4.5H11C10.1716 4.5 9.5 3.82843 9.5 3V1H4C3.44772 1 3 1.44772 3 2V11H2V2C2 0.89543 2.89543 0 4 0H9.5L14 4.5ZM1.59961 11.85H0V15.849H0.791016V14.5072H1.59375C1.88086 14.5072 2.125 14.4496 2.32617 14.3344C2.5293 14.2172 2.68359 14.059 2.78906 13.8598C2.89648 13.6586 2.9502 13.433 2.9502 13.183C2.9502 12.933 2.89746 12.7074 2.79199 12.5062C2.68652 12.3051 2.5332 12.1459 2.33203 12.0287C2.13281 11.9096 1.88867 11.85 1.59961 11.85ZM2.14453 13.183C2.14453 13.3314 2.11621 13.4584 2.05957 13.5639C2.00488 13.6674 1.92578 13.7475 1.82227 13.8041C1.71875 13.8588 1.59375 13.8861 1.44727 13.8861H0.788086V12.4799H1.44727C1.66602 12.4799 1.83691 12.5404 1.95996 12.6615C2.08301 12.7826 2.14453 12.9564 2.14453 13.183ZM6.62578 15.849V11.85H5.83477V13.476H4.15312V11.85H3.36211V15.849H4.15312V14.1352H5.83477V15.849H6.62578ZM7.32773 11.85H8.92734C9.21641 11.85 9.46055 11.9096 9.65977 12.0287C9.86094 12.1459 10.0143 12.3051 10.1197 12.5062C10.2252 12.7074 10.2779 12.933 10.2779 13.183C10.2779 13.433 10.2242 13.6586 10.1168 13.8598C10.0113 14.059 9.85703 14.2172 9.65391 14.3344C9.45273 14.4496 9.20859 14.5072 8.92148 14.5072H8.11875V15.849H7.32773V11.85ZM9.3873 13.5639C9.44394 13.4584 9.47227 13.3314 9.47227 13.183C9.47227 12.9564 9.41074 12.7826 9.28769 12.6615C9.16465 12.5404 8.99375 12.4799 8.775 12.4799H8.11582V13.8861H8.775C8.92148 13.8861 9.04648 13.8588 9.15 13.8041C9.25352 13.7475 9.33262 13.6674 9.3873 13.5639Z" fill="black"/>
</svg>
