<svg width="16" height="16" viewBox="0 0 16 16" fill="none" xmlns="http://www.w3.org/2000/svg">
<path d="M9.29289 0H4C2.89543 0 2 0.895431 2 2V14C2 15.1046 2.89543 16 4 16H12C13.1046 16 14 15.1046 14 14V4.70711C14 4.44189 13.8946 4.18754 13.7071 4L10 0.292893C9.81246 0.105357 9.55811 0 9.29289 0ZM9.5 3.5V1.5L12.5 4.5H10.5C9.94772 4.5 9.5 4.05228 9.5 3.5ZM6.85355 7.14645L8 8.29289L9.14645 7.14645C9.34171 6.95118 9.65829 6.95118 9.85355 7.14645C10.0488 7.34171 10.0488 7.65829 9.85355 7.85355L8.70711 9L9.85355 10.1464C10.0488 10.3417 10.0488 10.6583 9.85355 10.8536C9.65829 11.0488 9.34171 11.0488 9.14645 10.8536L8 9.70711L6.85355 10.8536C6.65829 11.0488 6.34171 11.0488 6.14645 10.8536C5.95118 10.6583 5.95118 10.3417 6.14645 10.1464L7.29289 9L6.14645 7.85355C5.95118 7.65829 5.95118 7.34171 6.14645 7.14645C6.34171 6.95118 6.65829 6.95118 6.85355 7.14645Z" fill="black"/>
</svg>
