<svg width="16" height="16" viewBox="0 0 16 16" fill="none" xmlns="http://www.w3.org/2000/svg">
<path d="M9.29289 0H4C2.89543 0 2 0.895431 2 2V14C2 15.1046 2.89543 16 4 16H12C13.1046 16 14 15.1046 14 14V4.70711C14 4.44189 13.8946 4.18754 13.7071 4L10 0.292893C9.81246 0.105357 9.55811 0 9.29289 0ZM9.5 3.5V1.5L12.5 4.5H10.5C9.94772 4.5 9.5 4.05228 9.5 3.5ZM6.5 5.5V6.13397L7.04904 5.81699C7.28818 5.67892 7.59398 5.76085 7.73205 6C7.87012 6.23915 7.78818 6.54494 7.54903 6.68301L7 7L7.54904 7.31699C7.78819 7.45506 7.87012 7.76085 7.73205 8C7.59398 8.23915 7.28819 8.32108 7.04904 8.18301L6.5 7.86602V8.5C6.5 8.77614 6.27614 9 6 9C5.72385 9 5.5 8.77614 5.5 8.5V7.86602L4.95096 8.18301C4.71181 8.32108 4.40602 8.23915 4.26795 8C4.12987 7.76085 4.21181 7.45506 4.45096 7.31699L5 7L4.45096 6.68301C4.21182 6.54494 4.12988 6.23915 4.26795 6C4.40602 5.76085 4.71182 5.67892 4.95096 5.81699L5.5 6.13397V5.5C5.5 5.22386 5.72385 5 6 5C6.27614 5 6.5 5.22386 6.5 5.5ZM4.5 10H9.5C9.77614 10 10 10.2239 10 10.5C10 10.7761 9.77614 11 9.5 11H4.5C4.22386 11 4 10.7761 4 10.5C4 10.2239 4.22386 10 4.5 10ZM4.5 12H9.5C9.77614 12 10 12.2239 10 12.5C10 12.7761 9.77614 13 9.5 13H4.5C4.22386 13 4 12.7761 4 12.5C4 12.2239 4.22386 12 4.5 12Z" fill="black"/>
</svg>
