<svg width="16" height="16" viewBox="0 0 16 16" fill="none" xmlns="http://www.w3.org/2000/svg">
<path fill-rule="evenodd" clip-rule="evenodd" d="M14 4.5V14C14 15.1046 13.1046 16 12 16H6V15H12C12.5523 15 13 14.5523 13 14V4.5H11C10.1716 4.5 9.5 3.82843 9.5 3V1H4C3.44772 1 3 1.44772 3 2V11H2V2C2 0.89543 2.89543 0 4 0H9.5L14 4.5ZM1.11328 14.8207L0.799805 15.849H0L1.3418 11.85H2.26758L3.60352 15.849H2.7627L2.44922 14.8207H1.11328ZM2.29102 14.2318L1.80176 12.6147H1.7666L1.27734 14.2318H2.29102ZM4.71562 11.85V15.849H3.92461V11.85H4.71562Z" fill="black"/>
</svg>
