<svg width="16" height="16" viewBox="0 0 16 16" fill="none" xmlns="http://www.w3.org/2000/svg">
<path d="M5.5 9.43845V8.5H6.5V9.43845C6.5 9.52021 6.51003 9.60166 6.52986 9.68098L6.92947 11.2794L6 11.8991L5.07053 11.2794L5.47015 9.68098C5.48998 9.60166 5.5 9.52021 5.5 9.43845Z" fill="black"/>
<path d="M9.29289 0H4C2.89543 0 2 0.895431 2 2V14C2 15.1046 2.89543 16 4 16H12C13.1046 16 14 15.1046 14 14V4.70711C14 4.44189 13.8946 4.18754 13.7071 4L10 0.292893C9.81246 0.105357 9.55811 0 9.29289 0ZM9.5 3.5V1.5L12.5 4.5H10.5C9.94772 4.5 9.5 4.05228 9.5 3.5ZM5.5 3V2H4.5L4.5 1H6L6 2H7V3H6V4H7V5H6V6H7V7H5.5V6H4.5V5H5.5V4H4.5V3H5.5ZM5.5 7.5H6.5C7.05229 7.5 7.5 7.94772 7.5 8.5V9.43845L7.89961 11.0369C8.00211 11.4469 7.83581 11.8771 7.48417 12.1115L6.5547 12.7311C6.2188 12.9551 5.7812 12.9551 5.4453 12.7311L4.51583 12.1115C4.1642 11.8771 3.99789 11.4469 4.10039 11.0369L4.5 9.43845V8.5C4.5 7.94772 4.94772 7.5 5.5 7.5Z" fill="black"/>
</svg>
