<svg width="16" height="16" viewBox="0 0 16 16" fill="none" xmlns="http://www.w3.org/2000/svg">
<path fill-rule="evenodd" clip-rule="evenodd" d="M14 4.5V14C14 15.1046 13.1046 16 12 16V15C12.5523 15 13 14.5523 13 14V4.5H11C10.1716 4.5 9.5 3.82843 9.5 3V1H4C3.44772 1 3 1.44772 3 2V11H2V2C2 0.89543 2.89543 0 4 0H9.5L14 4.5ZM0.706055 15.849V13.1889H0.744141L1.69629 15.3481H2.21191L3.1582 13.1889H3.19629V15.849H3.91113V11.85H3.11133L1.97168 14.4457H1.94531L0.805664 11.85H0V15.849H0.706055ZM5.98441 11.85H4.3848V15.849H5.17582V14.5072H5.97855C6.26566 14.5072 6.5098 14.4496 6.71098 14.3344C6.9141 14.2172 7.0684 14.059 7.17387 13.8598C7.28129 13.6586 7.335 13.433 7.335 13.183C7.335 12.933 7.28227 12.7074 7.1768 12.5063C7.07133 12.3051 6.91801 12.1459 6.71684 12.0287C6.51762 11.9096 6.27348 11.85 5.98441 11.85ZM6.52934 13.183C6.52934 13.3315 6.50102 13.4584 6.44438 13.5639C6.38969 13.6674 6.31059 13.7475 6.20707 13.8041C6.10355 13.8588 5.97855 13.8861 5.83207 13.8861H5.17289V12.4799H5.83207C6.05082 12.4799 6.22172 12.5404 6.34477 12.6615C6.46781 12.7826 6.52934 12.9565 6.52934 13.183ZM8.03426 13.1508C8.29988 12.7172 8.56355 12.2836 8.82527 11.85H9.96492V14.4691H10.4542V15.1078H9.96492V15.849H9.22371V15.1078H7.28719V14.4604C7.52156 14.0209 7.77059 13.5844 8.03426 13.1508ZM8.00496 14.4486V14.4691H9.22371V12.4477H9.1827C8.98152 12.766 8.77938 13.0941 8.57625 13.432C8.37508 13.7699 8.18465 14.1088 8.00496 14.4486Z" fill="black"/>
</svg>
