<svg width="16" height="16" viewBox="0 0 16 16" fill="none" xmlns="http://www.w3.org/2000/svg">
<path fill-rule="evenodd" clip-rule="evenodd" d="M14 4.5V14C14 15.1046 13.1046 16 12 16H11V15H12C12.5523 15 13 14.5523 13 14V4.5H11C10.1716 4.5 9.5 3.82843 9.5 3V1H4C3.44772 1 3 1.44772 3 2V11H2V2C2 0.89543 2.89543 0 4 0H9.5L14 4.5ZM3.075 14.8412C3.08281 14.9994 3.11992 15.1488 3.18633 15.2895C3.25273 15.4301 3.34941 15.5551 3.47637 15.6645C3.60527 15.7719 3.76445 15.8559 3.95391 15.9164C4.14336 15.977 4.36504 16.0072 4.61895 16.0072C4.95684 16.0072 5.24297 15.9545 5.47734 15.849C5.71367 15.7436 5.89336 15.5971 6.01641 15.4096C6.14141 15.2201 6.20391 15.0014 6.20391 14.7533C6.20391 14.5287 6.15898 14.3422 6.06914 14.1937C5.9793 14.0453 5.8543 13.9262 5.69414 13.8363C5.53398 13.7445 5.34551 13.6742 5.12871 13.6254L4.50762 13.4818C4.33379 13.4428 4.19902 13.3842 4.10332 13.3061C4.00762 13.2279 3.95977 13.1283 3.95977 13.0072C3.95977 12.851 4.02129 12.723 4.14434 12.6234C4.26934 12.5219 4.44023 12.4711 4.65703 12.4711C4.79961 12.4711 4.92266 12.4936 5.02617 12.5385C5.12969 12.5834 5.21172 12.6439 5.27227 12.7201C5.33477 12.7963 5.3748 12.8822 5.39238 12.9779H6.14238C6.12871 12.7709 6.0623 12.5824 5.94316 12.4125C5.82598 12.2406 5.65898 12.1039 5.44219 12.0023C5.22734 11.9008 4.96758 11.85 4.66289 11.85C4.36992 11.85 4.11113 11.8998 3.88652 11.9994C3.66191 12.099 3.48613 12.2396 3.35918 12.4213C3.23223 12.6029 3.16875 12.8158 3.16875 13.06C3.16875 13.2611 3.20977 13.4359 3.2918 13.5844C3.37383 13.7328 3.49102 13.8549 3.64336 13.9506C3.7957 14.0463 3.97539 14.1176 4.18242 14.1645L4.80059 14.308C5.00762 14.3568 5.16191 14.4213 5.26348 14.5014C5.36504 14.5795 5.41582 14.6879 5.41582 14.8266C5.41582 14.9359 5.3875 15.0326 5.33086 15.1166C5.27422 15.1986 5.18926 15.2631 5.07598 15.31C4.96465 15.3568 4.82695 15.3803 4.66289 15.3803C4.5457 15.3803 4.43926 15.3666 4.34355 15.3393C4.24785 15.3119 4.16484 15.2738 4.09453 15.225C4.02422 15.1762 3.96758 15.1195 3.92461 15.0551C3.88164 14.9887 3.85332 14.9174 3.83965 14.8412H3.075ZM0 14.7914C0 14.9555 0.0273438 15.1107 0.0820312 15.2572C0.136719 15.4037 0.217773 15.5336 0.325195 15.6469C0.43457 15.7602 0.570312 15.849 0.732422 15.9135C0.896484 15.976 1.08594 16.0072 1.30078 16.0072C1.7207 16.0072 2.04883 15.892 2.28516 15.6615C2.52344 15.4311 2.64258 15.0961 2.64258 14.6566V11.932H1.85156V14.6771C1.85156 14.8783 1.80566 15.0336 1.71387 15.143C1.62207 15.2523 1.48145 15.307 1.29199 15.307C1.19043 15.307 1.10059 15.2855 1.02246 15.2426C0.944336 15.1977 0.882812 15.1371 0.837891 15.0609C0.792969 14.9828 0.768555 14.893 0.764648 14.7914H0ZM8.90684 11.932H9.80039L8.52598 13.9389L9.77988 15.9311H8.87168L8.02207 14.516H7.98691L7.13438 15.9311H6.27305L7.5123 13.9154L6.28477 11.932H7.21641L8.04844 13.3705H8.08359L8.90684 11.932Z" fill="black"/>
</svg>
