<svg width="16" height="16" viewBox="0 0 16 16" fill="none" xmlns="http://www.w3.org/2000/svg">
<path d="M5.17991 4.61589C5.39205 4.43911 5.70733 4.46777 5.88411 4.67991L8 7.21898L10.1159 4.67991C10.2927 4.46777 10.608 4.43911 10.8201 4.61589C11.0322 4.79267 11.0609 5.10795 10.8841 5.32009L8.65085 8L10.8841 10.6799C11.0609 10.892 11.0322 11.2073 10.8201 11.3841C10.608 11.5609 10.2927 11.5322 10.1159 11.3201L8 8.78102L5.88411 11.3201C5.70733 11.5322 5.39205 11.5609 5.17991 11.3841C4.96777 11.2073 4.93911 10.892 5.11589 10.6799L7.34915 8L5.11589 5.32009C4.93911 5.10795 4.96777 4.79267 5.17991 4.61589Z" fill="black"/>
<path d="M4 0C2.89543 0 2 0.89543 2 2V14C2 15.1046 2.89543 16 4 16H12C13.1046 16 14 15.1046 14 14V2C14 0.89543 13.1046 0 12 0H4ZM4 1H12C12.5523 1 13 1.44772 13 2V14C13 14.5523 12.5523 15 12 15H4C3.44772 15 3 14.5523 3 14V2C3 1.44772 3.44772 1 4 1Z" fill="black"/>
</svg>
