<svg width="16" height="16" viewBox="0 0 16 16" fill="none" xmlns="http://www.w3.org/2000/svg">
<path d="M9.29289 0H4C2.89543 0 2 0.895431 2 2V14C2 15.1046 2.89543 16 4 16H12C13.1046 16 14 15.1046 14 14V4.70711C14 4.44189 13.8946 4.18754 13.7071 4L10 0.292893C9.81246 0.105357 9.55811 0 9.29289 0ZM9.5 3.5V1.5L12.5 4.5H10.5C9.94772 4.5 9.5 4.05228 9.5 3.5ZM5.05674 6H10.9433L11 8H10.5C10.3203 6.90443 10.1442 6.80817 8.80615 6.76454L8.50827 6.75485V11.8456C8.50827 12.3158 8.60756 12.4273 9.41135 12.5V13H6.58865V12.5C7.38771 12.4273 7.487 12.3158 7.487 11.8456V6.75485L7.19385 6.76454C5.85579 6.80817 5.67967 6.90443 5.5 8H5L5.05674 6Z" fill="black"/>
</svg>
