<svg width="16" height="16" viewBox="0 0 16 16" fill="none" xmlns="http://www.w3.org/2000/svg">
<path fill-rule="evenodd" clip-rule="evenodd" d="M14 4.5V14C14 15.1046 13.1046 16 12 16H11V15H12C12.5523 15 13 14.5523 13 14V4.5H11C10.1716 4.5 9.5 3.82843 9.5 3V1H4C3.44772 1 3 1.44772 3 2V11H2V2C2 0.89543 2.89543 0 4 0H9.5L14 4.5ZM3.39738 14.8412C3.4052 14.9994 3.4423 15.1488 3.50871 15.2895C3.57512 15.4301 3.6718 15.5551 3.79875 15.6645C3.92766 15.7719 4.08684 15.8559 4.27629 15.9164C4.46574 15.977 4.68742 16.0072 4.94133 16.0072C5.27922 16.0072 5.56535 15.9545 5.79973 15.849C6.03605 15.7436 6.21574 15.5971 6.33879 15.4096C6.46379 15.2201 6.52629 15.0014 6.52629 14.7533C6.52629 14.5287 6.48137 14.3422 6.39152 14.1937C6.30168 14.0453 6.17668 13.9262 6.01652 13.8363C5.85637 13.7445 5.66789 13.6742 5.45109 13.6254L4.83 13.4818C4.65617 13.4428 4.52141 13.3842 4.4257 13.3061C4.33 13.2279 4.28215 13.1283 4.28215 13.0072C4.28215 12.851 4.34367 12.723 4.46672 12.6234C4.59172 12.5219 4.76262 12.4711 4.97941 12.4711C5.12199 12.4711 5.24504 12.4936 5.34855 12.5385C5.45207 12.5834 5.5341 12.6439 5.59465 12.7201C5.65715 12.7963 5.69719 12.8822 5.71477 12.9779H6.46477C6.45109 12.7709 6.38469 12.5824 6.26555 12.4125C6.14836 12.2406 5.98137 12.1039 5.76457 12.0023C5.54973 11.9008 5.28996 11.85 4.98527 11.85C4.6923 11.85 4.43352 11.8998 4.20891 11.9994C3.9843 12.099 3.80852 12.2396 3.68156 12.4213C3.55461 12.6029 3.49113 12.8158 3.49113 13.06C3.49113 13.2611 3.53215 13.4359 3.61418 13.5844C3.69621 13.7328 3.8134 13.8549 3.96574 13.9506C4.11809 14.0463 4.29777 14.1176 4.5048 14.1645L5.12297 14.308C5.33 14.3568 5.4843 14.4213 5.58586 14.5014C5.68742 14.5795 5.7382 14.6879 5.7382 14.8266C5.7382 14.9359 5.70988 15.0326 5.65324 15.1166C5.5966 15.1986 5.51164 15.2631 5.39836 15.31C5.28703 15.3568 5.14934 15.3803 4.98527 15.3803C4.86809 15.3803 4.76164 15.3666 4.66594 15.3393C4.57023 15.3119 4.48723 15.2738 4.41691 15.225C4.3466 15.1762 4.28996 15.1195 4.24699 15.0551C4.20402 14.9887 4.1757 14.9174 4.16203 14.8412H3.39738ZM0.805664 13.6928C0.805664 13.4447 0.839844 13.2338 0.908203 13.06C0.978516 12.8861 1.0791 12.7533 1.20996 12.6615C1.34277 12.5697 1.50098 12.5238 1.68457 12.5238C1.83496 12.5238 1.96777 12.5561 2.08301 12.6205C2.19824 12.683 2.28906 12.7699 2.35547 12.8812C2.42383 12.9926 2.46387 13.1195 2.47559 13.2621H3.24023V13.227V13.1889C3.23047 12.9896 3.18457 12.809 3.10254 12.6469C3.02246 12.4848 2.91309 12.3441 2.77441 12.225C2.63574 12.1059 2.47266 12.015 2.28516 11.9525C2.09961 11.8881 1.89746 11.8559 1.67871 11.8559C1.32324 11.8559 1.01953 11.9301 0.767578 12.0785C0.517578 12.227 0.327148 12.4379 0.196289 12.7113C0.0654297 12.9848 0 13.3109 0 13.6898V14.1879C0 14.5668 0.0644531 14.892 0.193359 15.1635C0.324219 15.435 0.514648 15.6439 0.764648 15.7904C1.01465 15.935 1.31934 16.0072 1.67871 16.0072C1.97168 16.0072 2.2334 15.9525 2.46387 15.8432C2.69434 15.7338 2.87793 15.5824 3.01465 15.3891C3.15137 15.1937 3.22656 14.9691 3.24023 14.7152V14.6771V14.6391H2.47559C2.46387 14.7758 2.4248 14.8969 2.3584 15.0023C2.29199 15.1078 2.20117 15.1908 2.08594 15.2514C1.9707 15.31 1.83691 15.3393 1.68457 15.3393C1.49902 15.3393 1.33984 15.2953 1.20703 15.2074C1.07617 15.1176 0.976562 14.9867 0.908203 14.8148C0.839844 14.643 0.805664 14.434 0.805664 14.1879V13.6928ZM6.78012 15.2895C6.71371 15.1488 6.6766 14.9994 6.66879 14.8412H7.43344C7.44711 14.9174 7.47543 14.9887 7.5184 15.0551C7.56137 15.1195 7.61801 15.1762 7.68832 15.225C7.75863 15.2738 7.84164 15.3119 7.93734 15.3393C8.03305 15.3666 8.13949 15.3803 8.25668 15.3803C8.42074 15.3803 8.55844 15.3568 8.66977 15.31C8.78305 15.2631 8.86801 15.1986 8.92465 15.1166C8.98129 15.0326 9.00961 14.9359 9.00961 14.8266C9.00961 14.6879 8.95883 14.5795 8.85727 14.5014C8.7557 14.4213 8.60141 14.3568 8.39437 14.308L7.77621 14.1645C7.56918 14.1176 7.38949 14.0463 7.23715 13.9506C7.0848 13.8549 6.96762 13.7328 6.88559 13.5844C6.80355 13.4359 6.76254 13.2611 6.76254 13.06C6.76254 12.8158 6.82602 12.6029 6.95297 12.4213C7.07992 12.2396 7.2557 12.099 7.48031 11.9994C7.70492 11.8998 7.96371 11.85 8.25668 11.85C8.56137 11.85 8.82113 11.9008 9.03598 12.0023C9.25277 12.1039 9.41977 12.2406 9.53695 12.4125C9.65609 12.5824 9.7225 12.7709 9.73617 12.9779H8.98617C8.96859 12.8822 8.92855 12.7963 8.86605 12.7201C8.80551 12.6439 8.72348 12.5834 8.61996 12.5385C8.51645 12.4936 8.3934 12.4711 8.25082 12.4711C8.03402 12.4711 7.86312 12.5219 7.73812 12.6234C7.61508 12.723 7.55355 12.851 7.55355 13.0072C7.55355 13.1283 7.60141 13.2279 7.69711 13.3061C7.79281 13.3842 7.92758 13.4428 8.10141 13.4818L8.7225 13.6254C8.9393 13.6742 9.12777 13.7445 9.28793 13.8363C9.44809 13.9262 9.57309 14.0453 9.66293 14.1937C9.75277 14.3422 9.7977 14.5287 9.7977 14.7533C9.7977 15.0014 9.7352 15.2201 9.6102 15.4096C9.48715 15.5971 9.30746 15.7436 9.07113 15.849C8.83676 15.9545 8.55062 16.0072 8.21273 16.0072C7.95883 16.0072 7.73715 15.977 7.5477 15.9164C7.35824 15.8559 7.19906 15.7719 7.07016 15.6645C6.9432 15.5551 6.84652 15.4301 6.78012 15.2895Z" fill="black"/>
</svg>
