<svg width="16" height="16" viewBox="0 0 16 16" fill="none" xmlns="http://www.w3.org/2000/svg">
<path fill-rule="evenodd" clip-rule="evenodd" d="M14 4.5V14C14 15.1046 13.1046 16 12 16H11V15H12C12.5523 15 13 14.5523 13 14V4.5H11C10.1716 4.5 9.5 3.82843 9.5 3V1H4C3.44772 1 3 1.44772 3 2V11H2V2C2 0.89543 2.89543 0 4 0H9.5L14 4.5ZM2.62207 13.6664V14.1879C2.62207 14.4438 2.58301 14.6576 2.50488 14.8295C2.42676 15.0014 2.31934 15.1303 2.18262 15.2162C2.0459 15.3002 1.88965 15.3422 1.71387 15.3422C1.53613 15.3422 1.37891 15.3002 1.24219 15.2162C1.10742 15.1303 1.00098 15.0014 0.922852 14.8295C0.844727 14.6576 0.805664 14.4438 0.805664 14.1879V13.6664C0.805664 13.4086 0.844727 13.1947 0.922852 13.0248C1.00098 12.8529 1.10742 12.724 1.24219 12.6381C1.37891 12.5522 1.53613 12.5092 1.71387 12.5092C1.88965 12.5092 2.0459 12.5522 2.18262 12.6381C2.31934 12.724 2.42676 12.8529 2.50488 13.0248C2.58301 13.1947 2.62207 13.4086 2.62207 13.6664ZM3.4248 14.185V13.6723C3.4248 13.2953 3.35645 12.9711 3.21973 12.6996C3.08301 12.4262 2.88672 12.2162 2.63086 12.0697C2.37695 11.9232 2.07129 11.85 1.71387 11.85C1.3584 11.85 1.05176 11.9232 0.793945 12.0697C0.538086 12.2143 0.341797 12.4232 0.205078 12.6967C0.0683594 12.9682 0 13.2934 0 13.6723V14.185C0 14.56 0.0683594 14.8842 0.205078 15.1576C0.341797 15.4291 0.538086 15.6381 0.793945 15.7846C1.05176 15.9291 1.3584 16.0014 1.71387 16.0014C2.07129 16.0014 2.37695 15.9291 2.63086 15.7846C2.88672 15.6381 3.08301 15.4291 3.21973 15.1576C3.35645 14.8842 3.4248 14.56 3.4248 14.185ZM5.42461 15.9252V12.5883H6.56133V11.9262H3.49688V12.5883H4.63066V15.9252H5.42461ZM7.67637 14.3344V15.9252H6.88535V11.9262H9.43418V12.5795H7.67637V13.6957H9.28184V14.3344H7.67637Z" fill="black"/>
</svg>
