<svg width="16" height="16" viewBox="0 0 16 16" fill="none" xmlns="http://www.w3.org/2000/svg">
<path d="M5.88412 6.67992C5.70734 6.46778 5.39206 6.43912 5.17992 6.6159C4.96778 6.79268 4.93912 7.10797 5.1159 7.3201L7.34916 10L5.1159 12.6799C4.93912 12.8921 4.96778 13.2073 5.17992 13.3841C5.39206 13.5609 5.70734 13.5322 5.88412 13.3201L8.00001 10.781L10.1159 13.3201C10.2927 13.5322 10.608 13.5609 10.8201 13.3841C11.0322 13.2073 11.0609 12.8921 10.8841 12.6799L8.65087 10L10.8841 7.3201C11.0609 7.10797 11.0322 6.79268 10.8201 6.6159C10.608 6.43912 10.2927 6.46778 10.1159 6.67992L8.00001 9.21899L5.88412 6.67992Z" fill="black"/>
<path d="M14 14V4.5L9.5 0H4C2.89543 0 2 0.89543 2 2V14C2 15.1046 2.89543 16 4 16H12C13.1046 16 14 15.1046 14 14ZM9.5 3C9.5 3.82843 10.1716 4.5 11 4.5H13V14C13 14.5523 12.5523 15 12 15H4C3.44772 15 3 14.5523 3 14V2C3 1.44772 3.44772 1 4 1H9.5V3Z" fill="black"/>
</svg>
