<svg width="16" height="16" viewBox="0 0 16 16" fill="none" xmlns="http://www.w3.org/2000/svg">
<path d="M9.29289 0H4C2.89543 0 2 0.895431 2 2V14C2 15.1046 2.89543 16 4 16H12C13.1046 16 14 15.1046 14 14V4.70711C14 4.44189 13.8946 4.18754 13.7071 4L10 0.292893C9.81246 0.105357 9.55811 0 9.29289 0ZM9.5 3.5V1.5L12.5 4.5H10.5C9.94772 4.5 9.5 4.05228 9.5 3.5ZM5.48507 6.87873L6.52103 11.0226L7.51761 7.36844C7.57694 7.15091 7.77452 7 8 7C8.22547 7 8.42305 7.15091 8.48238 7.36844L9.47896 11.0226L10.5149 6.87873C10.5819 6.61083 10.8534 6.44795 11.1213 6.51493C11.3892 6.5819 11.552 6.85337 11.4851 7.12126L9.98507 13.1213C9.9299 13.3419 9.73275 13.4975 9.50531 13.5C9.27787 13.5024 9.07746 13.351 9.01761 13.1316L8 9.40029L6.98238 13.1316C6.92253 13.351 6.72212 13.5024 6.49468 13.5C6.26724 13.4975 6.07009 13.3419 6.01493 13.1213L4.51493 7.12126C4.44795 6.85337 4.61083 6.5819 4.87873 6.51493C5.14663 6.44795 5.41809 6.61083 5.48507 6.87873Z" fill="black"/>
</svg>
