<svg width="16" height="16" viewBox="0 0 16 16" fill="none" xmlns="http://www.w3.org/2000/svg">
<path fill-rule="evenodd" clip-rule="evenodd" d="M14 4.5V14C14 15.1046 13.1046 16 12 16H11V15H12C12.5523 15 13 14.5523 13 14V4.5H11C10.1716 4.5 9.5 3.82843 9.5 3V1H4C3.44772 1 3 1.44772 3 2V11H2V2C2 0.89543 2.89543 0 4 0H9.5L14 4.5ZM1.59961 11.85H0V15.849H0.791016V14.5072H1.59375C1.88086 14.5072 2.125 14.4496 2.32617 14.3344C2.5293 14.2172 2.68359 14.059 2.78906 13.8598C2.89648 13.6586 2.9502 13.433 2.9502 13.183C2.9502 12.933 2.89746 12.7074 2.79199 12.5063C2.68652 12.3051 2.5332 12.1459 2.33203 12.0287C2.13281 11.9096 1.88867 11.85 1.59961 11.85ZM2.14453 13.183C2.14453 13.3315 2.11621 13.4584 2.05957 13.5639C2.00488 13.6674 1.92578 13.7475 1.82227 13.8041C1.71875 13.8588 1.59375 13.8861 1.44727 13.8861H0.788086V12.4799H1.44727C1.66602 12.4799 1.83691 12.5404 1.95996 12.6615C2.08301 12.7826 2.14453 12.9565 2.14453 13.183ZM4.96172 11.85H3.36211V15.849H4.15312V14.5072H4.95586C5.24297 14.5072 5.48711 14.4496 5.68828 14.3344C5.89141 14.2172 6.0457 14.059 6.15117 13.8598C6.25859 13.6586 6.3123 13.433 6.3123 13.183C6.3123 12.933 6.25957 12.7074 6.1541 12.5063C6.04863 12.3051 5.89531 12.1459 5.69414 12.0287C5.49492 11.9096 5.25078 11.85 4.96172 11.85ZM5.50664 13.183C5.50664 13.3315 5.47832 13.4584 5.42168 13.5639C5.36699 13.6674 5.28789 13.7475 5.18437 13.8041C5.08086 13.8588 4.95586 13.8861 4.80937 13.8861H4.1502V12.4799H4.80937C5.02812 12.4799 5.19902 12.5404 5.32207 12.6615C5.44512 12.7826 5.50664 12.9565 5.50664 13.183ZM8.27402 12.5121V15.849H7.48008V12.5121H6.34629V11.85H9.41074V12.5121H8.27402Z" fill="black"/>
</svg>
