<svg width="16" height="16" viewBox="0 0 16 16" fill="none" xmlns="http://www.w3.org/2000/svg">
<path d="M8.5 6.5C8.5 6.22386 8.27614 6 8 6C7.72386 6 7.5 6.22386 7.5 6.5V10.2929L6.35355 9.14645C6.15829 8.95118 5.84171 8.95118 5.64645 9.14645C5.45118 9.34171 5.45118 9.65829 5.64645 9.85355L7.64645 11.8536C7.84171 12.0488 8.15829 12.0488 8.35355 11.8536L10.3536 9.85355C10.5488 9.65829 10.5488 9.34171 10.3536 9.14645C10.1583 8.95118 9.84171 8.95118 9.64645 9.14645L8.5 10.2929V6.5Z" fill="black"/>
<path d="M14 14V4.5L9.5 0H4C2.89543 0 2 0.89543 2 2V14C2 15.1046 2.89543 16 4 16H12C13.1046 16 14 15.1046 14 14ZM9.5 3C9.5 3.82843 10.1716 4.5 11 4.5H13V14C13 14.5523 12.5523 15 12 15H4C3.44772 15 3 14.5523 3 14V2C3 1.44772 3.44772 1 4 1H9.5V3Z" fill="black"/>
</svg>
