<svg width="16" height="16" viewBox="0 0 16 16" fill="none" xmlns="http://www.w3.org/2000/svg">
<path d="M8.5 9.43845V8.5H7.5V9.43845C7.5 9.52021 7.48998 9.60166 7.47015 9.68098L7.07053 11.2794L8 11.8991L8.92947 11.2794L8.52986 9.68098C8.51003 9.60166 8.5 9.52021 8.5 9.43845Z" fill="black"/>
<path d="M4 0H12C13.1046 0 14 0.89543 14 2V14C14 15.1046 13.1046 16 12 16H4C2.89543 16 2 15.1046 2 14V2C2 0.89543 2.89543 0 4 0ZM6.5 8.5V9.43845L6.10039 11.0369C5.99789 11.4469 6.1642 11.8771 6.51583 12.1115L7.4453 12.7311C7.7812 12.9551 8.2188 12.9551 8.5547 12.7311L9.48417 12.1115C9.83581 11.8771 10.0021 11.4469 9.89961 11.0369L9.5 9.43845V8.5C9.5 7.94772 9.05229 7.5 8.5 7.5H7.5C6.94772 7.5 6.5 7.94772 6.5 8.5ZM7.5 3H6.5V4H7.5V5H6.5V6H7.5V7H9V6H8V5H9V4H8V3H9V2H8L8 1H6.5L6.5 2H7.5V3Z" fill="black"/>
</svg>
