<svg width="16" height="16" viewBox="0 0 16 16" fill="none" xmlns="http://www.w3.org/2000/svg">
<path fill-rule="evenodd" clip-rule="evenodd" d="M14 4.5V14C14 15.1046 13.1046 16 12 16H8V15H12C12.5523 15 13 14.5523 13 14V4.5H11C10.1716 4.5 9.5 3.82843 9.5 3V1H4C3.44772 1 3 1.44772 3 2V11H2V2C2 0.89543 2.89543 0 4 0H9.5L14 4.5ZM3.18633 15.2895C3.11992 15.1488 3.08281 14.9994 3.075 14.8412H3.83965C3.85332 14.9174 3.88164 14.9887 3.92461 15.0551C3.96758 15.1195 4.02422 15.1762 4.09453 15.225C4.16484 15.2738 4.24785 15.3119 4.34355 15.3393C4.43926 15.3666 4.5457 15.3803 4.66289 15.3803C4.82695 15.3803 4.96465 15.3568 5.07598 15.31C5.18926 15.2631 5.27422 15.1986 5.33086 15.1166C5.3875 15.0326 5.41582 14.9359 5.41582 14.8266C5.41582 14.6879 5.36504 14.5795 5.26348 14.5014C5.16191 14.4213 5.00762 14.3568 4.80059 14.308L4.18242 14.1645C3.97539 14.1176 3.7957 14.0463 3.64336 13.9506C3.49102 13.8549 3.37383 13.7328 3.2918 13.5844C3.20977 13.4359 3.16875 13.2611 3.16875 13.06C3.16875 12.8158 3.23223 12.6029 3.35918 12.4213C3.48613 12.2396 3.66191 12.099 3.88652 11.9994C4.11113 11.8998 4.36992 11.85 4.66289 11.85C4.96758 11.85 5.22734 11.9008 5.44219 12.0023C5.65898 12.1039 5.82598 12.2406 5.94316 12.4125C6.0623 12.5824 6.12871 12.7709 6.14238 12.9779H5.39238C5.3748 12.8822 5.33477 12.7963 5.27227 12.7201C5.21172 12.6439 5.12969 12.5834 5.02617 12.5385C4.92266 12.4936 4.79961 12.4711 4.65703 12.4711C4.44023 12.4711 4.26934 12.5219 4.14434 12.6234C4.02129 12.723 3.95977 12.851 3.95977 13.0072C3.95977 13.1283 4.00762 13.2279 4.10332 13.3061C4.19902 13.3842 4.33379 13.4428 4.50762 13.4818L5.12871 13.6254C5.34551 13.6742 5.53398 13.7445 5.69414 13.8363C5.8543 13.9262 5.9793 14.0453 6.06914 14.1937C6.15898 14.3422 6.20391 14.5287 6.20391 14.7533C6.20391 15.0014 6.14141 15.2201 6.01641 15.4096C5.89336 15.5971 5.71367 15.7436 5.47734 15.849C5.24297 15.9545 4.95684 16.0072 4.61895 16.0072C4.36504 16.0072 4.14336 15.977 3.95391 15.9164C3.76445 15.8559 3.60527 15.7719 3.47637 15.6645C3.34941 15.5551 3.25273 15.4301 3.18633 15.2895ZM0.0820312 15.2572C0.0273438 15.1107 0 14.9555 0 14.7914H0.764648C0.768555 14.893 0.792969 14.9828 0.837891 15.0609C0.882812 15.1371 0.944336 15.1977 1.02246 15.2426C1.10059 15.2855 1.19043 15.307 1.29199 15.307C1.48145 15.307 1.62207 15.2523 1.71387 15.143C1.80566 15.0336 1.85156 14.8783 1.85156 14.6771V11.932H2.64258V14.6566C2.64258 15.0961 2.52344 15.4311 2.28516 15.6615C2.04883 15.892 1.7207 16.0072 1.30078 16.0072C1.08594 16.0072 0.896484 15.976 0.732422 15.9135C0.570312 15.849 0.43457 15.7602 0.325195 15.6469C0.217773 15.5336 0.136719 15.4037 0.0820312 15.2572Z" fill="black"/>
</svg>
