<svg width="16" height="16" viewBox="0 0 16 16" fill="none" xmlns="http://www.w3.org/2000/svg">
<path fill-rule="evenodd" clip-rule="evenodd" d="M14 4.5V14C14 15.1046 13.1046 16 12 16H10V15H12C12.5523 15 13 14.5523 13 14V4.5H11C10.1716 4.5 9.5 3.82843 9.5 3V1H4C3.44772 1 3 1.44772 3 2V11H2V2C2 0.89543 2.89543 0 4 0H9.5L14 4.5ZM1.92773 15.849V12.5121H3.06445V11.85H0V12.5121H1.13379V15.849H1.92773ZM6.61699 11.85H5.72344L4.9002 13.2885H4.86504L4.03301 11.85H3.10137L4.32891 13.8334L3.08965 15.849H3.95098L4.80352 14.434H4.83867L5.68828 15.849H6.59648L5.34258 13.8568L6.61699 11.85ZM8.54648 12.5121V15.849H7.75254V12.5121H6.61875V11.85H9.6832V12.5121H8.54648Z" fill="black"/>
</svg>
