<svg width="16" height="16" viewBox="0 0 16 16" fill="none" xmlns="http://www.w3.org/2000/svg">
<path d="M9.29289 0H4C2.89543 0 2 0.895431 2 2V14C2 15.1046 2.89543 16 4 16H12C13.1046 16 14 15.1046 14 14V4.70711C14 4.44189 13.8946 4.18754 13.7071 4L10 0.292893C9.81246 0.105357 9.55811 0 9.29289 0ZM9.5 3.5V1.5L12.5 4.5H10.5C9.94772 4.5 9.5 4.05228 9.5 3.5ZM8.5 7.5L8.5 11.2929L9.64645 10.1464C9.84171 9.95118 10.1583 9.95118 10.3536 10.1464C10.5488 10.3417 10.5488 10.6583 10.3536 10.8536L8.35355 12.8536C8.15829 13.0488 7.84171 13.0488 7.64645 12.8536L5.64645 10.8536C5.45118 10.6583 5.45118 10.3417 5.64645 10.1464C5.84171 9.95118 6.15829 9.95118 6.35355 10.1464L7.5 11.2929V7.5C7.5 7.22386 7.72386 7 8 7C8.27614 7 8.5 7.22386 8.5 7.5Z" fill="black"/>
</svg>
