<svg width="16" height="16" viewBox="0 0 16 16" fill="none" xmlns="http://www.w3.org/2000/svg">
<path d="M14 4.5V14C14 15.1046 13.1046 16 12 16H4C2.89543 16 2 15.1046 2 14V2C2 0.89543 2.89543 0 4 0H9.5L14 4.5ZM11 4.5C10.1716 4.5 9.5 3.82843 9.5 3V1H4C3.44772 1 3 1.44772 3 2V14C3 14.5523 3.44772 15 4 15H12C12.5523 15 13 14.5523 13 14V4.5H11Z" fill="black"/>
<path d="M4 6.5C4 6.22386 4.22386 6 4.5 6H11.5C11.7761 6 12 6.22386 12 6.5V13.5C12 13.7761 11.7761 14 11.5 14H4.5C4.22386 14 4 13.7761 4 13.5V6.5Z" fill="black"/>
<path d="M4 3.5C4 3.22386 4.22386 3 4.5 3H7C7.27614 3 7.5 3.22386 7.5 3.5C7.5 3.77614 7.27614 4 7 4H4.5C4.22386 4 4 3.77614 4 3.5Z" fill="black"/>
</svg>
