<svg width="16" height="16" viewBox="0 0 16 16" fill="none" xmlns="http://www.w3.org/2000/svg">
<path fill-rule="evenodd" clip-rule="evenodd" d="M14 4.5V14C14 15.1046 13.1046 16 12 16H11V15H12C12.5523 15 13 14.5523 13 14V4.5H11C10.1716 4.5 9.5 3.82843 9.5 3V1H4C3.44772 1 3 1.44772 3 2V11H2V2C2 0.89543 2.89543 0 4 0H9.5L14 4.5ZM1.92773 12.5121V15.849H1.13379V12.5121H0V11.85H3.06445V12.5121H1.92773ZM4.05949 11.85V15.849H3.26848V11.85H4.05949ZM5.43246 15.849V14.2582H7.03793V13.6195H5.43246V12.5033H7.19027V11.85H4.64145V15.849H5.43246ZM8.29957 14.2582V15.849H7.50855V11.85H10.0574V12.5033H8.29957V13.6195H9.90504V14.2582H8.29957Z" fill="black"/>
</svg>
