<svg width="16" height="16" viewBox="0 0 16 16" fill="none" xmlns="http://www.w3.org/2000/svg">
<path fill-rule="evenodd" clip-rule="evenodd" d="M14 4.5V14C14 15.1046 13.1046 16 12 16V15C12.5523 15 13 14.5523 13 14V4.5H11C10.1716 4.5 9.5 3.82843 9.5 3V1H4C3.44772 1 3 1.44772 3 2V11H2V2C2 0.89543 2.89543 0 4 0H9.5L14 4.5ZM9.08859 14.1704H8.64621V13.561H9.06809C9.18918 13.561 9.2966 13.5366 9.39035 13.4878C9.4841 13.4389 9.55734 13.3725 9.61008 13.2885C9.66281 13.2046 9.6882 13.1098 9.68625 13.0044C9.68625 12.8423 9.62766 12.7114 9.51047 12.6118C9.39523 12.5122 9.24777 12.4624 9.06809 12.4624C8.97629 12.4624 8.8923 12.476 8.81613 12.5034C8.74191 12.5307 8.67746 12.5678 8.62277 12.6147C8.56809 12.6616 8.52512 12.7153 8.49387 12.7758C8.46457 12.8364 8.44797 12.8989 8.44406 12.9633H7.70871C7.71457 12.8071 7.74875 12.6616 7.81125 12.5268C7.87375 12.3921 7.96359 12.2749 8.08078 12.1753C8.19797 12.0737 8.34055 11.9946 8.50852 11.938C8.67844 11.8813 8.87277 11.852 9.09152 11.8501C9.37082 11.8481 9.61203 11.8921 9.81516 11.9819C10.0183 12.0717 10.1755 12.1958 10.2868 12.354C10.4001 12.5102 10.4577 12.6899 10.4597 12.893C10.4636 13.0805 10.4236 13.2397 10.3396 13.3706C10.2575 13.5014 10.1579 13.604 10.0407 13.6782C9.92551 13.7505 9.81906 13.7944 9.72141 13.81V13.851C9.8425 13.8628 9.96848 13.9038 10.0993 13.9741C10.2321 14.0444 10.3454 14.1479 10.4392 14.2846C10.5329 14.4194 10.5808 14.5932 10.5827 14.8061C10.5847 14.9956 10.5456 15.1645 10.4655 15.313C10.3874 15.4614 10.278 15.5874 10.1374 15.6909C9.9968 15.7925 9.83469 15.8706 9.65109 15.9253C9.46945 15.978 9.27512 16.0044 9.06809 16.0044C8.7673 16.0044 8.51047 15.9536 8.29758 15.852C8.08664 15.7485 7.92453 15.6118 7.81125 15.4419C7.69992 15.27 7.64035 15.0825 7.63254 14.8794H8.3591C8.36691 14.9751 8.40207 15.061 8.46457 15.1372C8.52707 15.2114 8.61008 15.271 8.71359 15.3159C8.81906 15.3589 8.9382 15.3813 9.07102 15.3833C9.2175 15.3833 9.34543 15.3579 9.4548 15.3071C9.56418 15.2544 9.64816 15.1821 9.70676 15.0903C9.7673 14.9966 9.7966 14.8901 9.79465 14.771C9.79465 14.6538 9.76535 14.5503 9.70676 14.4604C9.64816 14.3706 9.56613 14.3003 9.46066 14.2495C9.35715 14.1967 9.23312 14.1704 9.08859 14.1704ZM0.706055 15.9253V13.2651H0.744141L1.69629 15.4243H2.21191L3.1582 13.2651H3.19629V15.9253H3.91113V11.9262H3.11133L1.97168 14.5219H1.94531L0.805664 11.9262H0V15.9253H0.706055ZM6.16441 11.9262H4.5648V15.9253H5.35582V14.5835H6.15855C6.44566 14.5835 6.6898 14.5258 6.89098 14.4106C7.0941 14.2934 7.2484 14.1352 7.35387 13.936C7.46129 13.7348 7.515 13.5092 7.515 13.2592C7.515 13.0092 7.46227 12.7837 7.3568 12.5825C7.25133 12.3813 7.09801 12.2221 6.89684 12.105C6.69762 11.9858 6.45348 11.9262 6.16441 11.9262ZM6.70934 13.2592C6.70934 13.4077 6.68102 13.5346 6.62437 13.6401C6.56969 13.7436 6.49059 13.8237 6.38707 13.8803C6.28355 13.935 6.15855 13.9624 6.01207 13.9624H5.35289V12.5561H6.01207C6.23082 12.5561 6.40172 12.6167 6.52477 12.7378C6.64781 12.8589 6.70934 13.0327 6.70934 13.2592Z" fill="black"/>
</svg>
