<svg width="16" height="16" viewBox="0 0 16 16" fill="none" xmlns="http://www.w3.org/2000/svg">
<path d="M8 5C8.55228 5 9 5.44772 9 6V7H7V6C7 5.44772 7.44772 5 8 5ZM10 7.0763V6C10 4.89543 9.10457 4 8 4C6.89543 4 6 4.89543 6 6V7.0763C5.46076 7.24248 5 7.67317 5 8.3V10.7C5 11.5163 5.78146 12 6.5 12H9.5C10.2185 12 11 11.5163 11 10.7V8.3C11 7.67317 10.5392 7.24248 10 7.0763Z" fill="black"/>
<path d="M4 0C2.89543 0 2 0.89543 2 2V14C2 15.1046 2.89543 16 4 16H12C13.1046 16 14 15.1046 14 14V2C14 0.89543 13.1046 0 12 0H4ZM4 1H12C12.5523 1 13 1.44772 13 2V14C13 14.5523 12.5523 15 12 15H4C3.44772 15 3 14.5523 3 14V2C3 1.44772 3.44772 1 4 1Z" fill="black"/>
</svg>
