<svg width="16" height="16" viewBox="0 0 16 16" fill="none" xmlns="http://www.w3.org/2000/svg">
<path fill-rule="evenodd" clip-rule="evenodd" d="M14 4.5V14C14 15.1046 13.1046 16 12 16H8V15H12C12.5523 15 13 14.5523 13 14V4.5H11C10.1716 4.5 9.5 3.82843 9.5 3V1H4C3.44772 1 3 1.44772 3 2V11H2V2C2 0.89543 2.89543 0 4 0H9.5L14 4.5ZM0.111328 15.2895C0.0449219 15.1488 0.0078125 14.9994 0 14.8412H0.764648C0.77832 14.9174 0.806641 14.9887 0.849609 15.0551C0.892578 15.1195 0.949219 15.1762 1.01953 15.225C1.08984 15.2738 1.17285 15.3119 1.26855 15.3393C1.36426 15.3666 1.4707 15.3803 1.58789 15.3803C1.75195 15.3803 1.88965 15.3568 2.00098 15.31C2.11426 15.2631 2.19922 15.1986 2.25586 15.1166C2.3125 15.0326 2.34082 14.9359 2.34082 14.8266C2.34082 14.6879 2.29004 14.5795 2.18848 14.5014C2.08691 14.4213 1.93262 14.3568 1.72559 14.308L1.10742 14.1645C0.900391 14.1176 0.720703 14.0463 0.568359 13.9506C0.416016 13.8549 0.298828 13.7328 0.216797 13.5844C0.134766 13.4359 0.09375 13.2611 0.09375 13.06C0.09375 12.8158 0.157227 12.6029 0.28418 12.4213C0.411133 12.2396 0.586914 12.099 0.811523 11.9994C1.03613 11.8998 1.29492 11.85 1.58789 11.85C1.89258 11.85 2.15234 11.9008 2.36719 12.0023C2.58398 12.1039 2.75098 12.2406 2.86816 12.4125C2.9873 12.5824 3.05371 12.7709 3.06738 12.9779H2.31738C2.2998 12.8822 2.25977 12.7963 2.19727 12.7201C2.13672 12.6439 2.05469 12.5834 1.95117 12.5385C1.84766 12.4936 1.72461 12.4711 1.58203 12.4711C1.36523 12.4711 1.19434 12.5219 1.06934 12.6234C0.946289 12.723 0.884766 12.851 0.884766 13.0072C0.884766 13.1283 0.932617 13.2279 1.02832 13.3061C1.12402 13.3842 1.25879 13.4428 1.43262 13.4818L2.05371 13.6254C2.27051 13.6742 2.45898 13.7445 2.61914 13.8363C2.7793 13.9262 2.9043 14.0453 2.99414 14.1937C3.08398 14.3422 3.12891 14.5287 3.12891 14.7533C3.12891 15.0014 3.06641 15.2201 2.94141 15.4096C2.81836 15.5971 2.63867 15.7436 2.40234 15.849C2.16797 15.9545 1.88184 16.0072 1.54395 16.0072C1.29004 16.0072 1.06836 15.977 0.878906 15.9164C0.689453 15.8559 0.530273 15.7719 0.401367 15.6645C0.274414 15.5551 0.177734 15.4301 0.111328 15.2895ZM6.78117 11.932V15.9311H5.99016V14.2172H4.30852V15.9311H3.5175V11.932H4.30852V13.558H5.99016V11.932H6.78117Z" fill="black"/>
</svg>
