<svg width="16" height="16" viewBox="0 0 16 16" fill="none" xmlns="http://www.w3.org/2000/svg">
<path d="M8.50001 5C8.50001 4.72386 8.27616 4.5 8.00001 4.5C7.72387 4.5 7.50001 4.72386 7.50001 5H5.5C4.67157 5 4 5.67157 4 6.5V8.5C4 9.32843 4.67157 10 5.5 10H5.97297L5.52567 11.3419C5.43835 11.6039 5.57993 11.887 5.8419 11.9743C6.10387 12.0617 6.38703 11.9201 6.47436 11.6581L7.02706 10H7.50001V11C7.50001 11.2761 7.72387 11.5 8.00001 11.5C8.27616 11.5 8.50001 11.2761 8.50001 11V10H8.97297L9.52567 11.6581C9.613 11.9201 9.89616 12.0617 10.1581 11.9743C10.4201 11.887 10.5617 11.6039 10.4744 11.3419L10.0271 10H10.5C11.3284 10 12 9.32843 12 8.5V6.5C12 5.67157 11.3284 5 10.5 5H8.50001ZM5 6.5C5 6.22386 5.22386 6 5.5 6H10.5C10.7761 6 11 6.22386 11 6.5V8.5C11 8.77614 10.7761 9 10.5 9H5.5C5.22386 9 5 8.77614 5 8.5V6.5Z" fill="black"/>
<path d="M2 2C2 0.89543 2.89543 0 4 0H12C13.1046 0 14 0.89543 14 2V14C14 15.1046 13.1046 16 12 16H4C2.89543 16 2 15.1046 2 14V2ZM12 1H4C3.44772 1 3 1.44772 3 2V14C3 14.5523 3.44772 15 4 15H12C12.5523 15 13 14.5523 13 14V2C13 1.44772 12.5523 1 12 1Z" fill="black"/>
</svg>
