<svg width="16" height="16" viewBox="0 0 16 16" fill="none" xmlns="http://www.w3.org/2000/svg">
<path d="M8.1875 10H7V6.5H8.1875C9.154 6.5 9.9375 7.2835 9.9375 8.25C9.9375 9.2165 9.154 10 8.1875 10Z" fill="black"/>
<path d="M4 0H9.29289C9.55811 0 9.81246 0.105357 10 0.292893L13.7071 4C13.8946 4.18754 14 4.44189 14 4.70711V14C14 15.1046 13.1046 16 12 16H4C2.89543 16 2 15.1046 2 14V2C2 0.895431 2.89543 0 4 0ZM9.5 1.5V3.5C9.5 4.05228 9.94772 4.5 10.5 4.5H12.5L9.5 1.5ZM7 5.5C6.44772 5.5 6 5.94772 6 6.5V13C6 13.2761 6.22386 13.5 6.5 13.5C6.77614 13.5 7 13.2761 7 13V11H8.1875C9.70628 11 10.9375 9.76878 10.9375 8.25C10.9375 6.73122 9.70628 5.5 8.1875 5.5H7Z" fill="black"/>
</svg>
