<svg width="16" height="16" viewBox="0 0 16 16" fill="none" xmlns="http://www.w3.org/2000/svg">
<path d="M4.87873 4.51493C5.14663 4.44795 5.4181 4.61083 5.48507 4.87873L6.52103 9.02258L7.51762 5.36844C7.57694 5.15091 7.77452 5 8 5C8.22548 5 8.42306 5.15091 8.48238 5.36844L9.47897 9.02258L10.5149 4.87873C10.5819 4.61083 10.8534 4.44795 11.1213 4.51493C11.3892 4.5819 11.552 4.85337 11.4851 5.12127L9.98507 11.1213C9.92991 11.3419 9.73276 11.4976 9.50532 11.5C9.27788 11.5024 9.07747 11.351 9.01762 11.1316L8 7.40029L6.98238 11.1316C6.92253 11.351 6.72212 11.5024 6.49468 11.5C6.26724 11.4976 6.07009 11.3419 6.01493 11.1213L4.51493 5.12127C4.44795 4.85337 4.61083 4.5819 4.87873 4.51493Z" fill="black"/>
<path d="M4 0C2.89543 0 2 0.89543 2 2V14C2 15.1046 2.89543 16 4 16H12C13.1046 16 14 15.1046 14 14V2C14 0.89543 13.1046 0 12 0H4ZM4 1H12C12.5523 1 13 1.44772 13 2V14C13 14.5523 12.5523 15 12 15H4C3.44772 15 3 14.5523 3 14V2C3 1.44772 3.44772 1 4 1Z" fill="black"/>
</svg>
