<svg width="16" height="16" viewBox="0 0 16 16" fill="none" xmlns="http://www.w3.org/2000/svg">
<path d="M4.5 12C4.22386 12 4 11.7761 4 11.5V9.5C4 9.22386 4.22386 9 4.5 9H5.5C5.77614 9 6 9.22386 6 9.5V11.5C6 11.7761 5.77614 12 5.5 12H4.5Z" fill="black"/>
<path d="M7.5 12C7.22386 12 7 11.7761 7 11.5V7.5C7 7.22386 7.22386 7 7.5 7H8.5C8.77614 7 9 7.22386 9 7.5V11.5C9 11.7761 8.77614 12 8.5 12H7.5Z" fill="black"/>
<path d="M10.5 12C10.2239 12 10 11.7761 10 11.5V5.5C10 5.22386 10.2239 5 10.5 5H11.5C11.7761 5 12 5.22386 12 5.5V11.5C12 11.7761 11.7761 12 11.5 12H10.5Z" fill="black"/>
<path d="M4 0C2.89543 0 2 0.89543 2 2V14C2 15.1046 2.89543 16 4 16H12C13.1046 16 14 15.1046 14 14V2C14 0.89543 13.1046 0 12 0H4ZM4 1H12C12.5523 1 13 1.44772 13 2V14C13 14.5523 12.5523 15 12 15H4C3.44772 15 3 14.5523 3 14V2C3 1.44772 3.44772 1 4 1Z" fill="black"/>
</svg>
