<svg width="16" height="16" viewBox="0 0 16 16" fill="none" xmlns="http://www.w3.org/2000/svg">
<path d="M5 4C4.74784 4 4.53514 4.18777 4.50386 4.43798L4.00386 8.43798C3.98608 8.58029 4.03025 8.72339 4.12516 8.8309C4.22008 8.93842 4.35659 9 4.5 9H7.5V11.0158C6.63739 11.0713 6 11.267 6 11.5C6 11.7761 6.89543 12 8 12C9.10457 12 10 11.7761 10 11.5C10 11.267 9.36262 11.0713 8.5 11.0158V9H11.5C11.6434 9 11.7799 8.93842 11.8748 8.8309C11.9698 8.72339 12.0139 8.58029 11.9961 8.43798L11.4961 4.43798C11.4649 4.18777 11.2522 4 11 4H5ZM7 7.77923V5.22077C7 5.12361 7.106 5.0636 7.18931 5.11359L9.32136 6.39281C9.40227 6.44136 9.40227 6.55864 9.32136 6.60719L7.18931 7.88641C7.106 7.9364 7 7.87639 7 7.77923Z" fill="black"/>
<path d="M2 2C2 0.89543 2.89543 0 4 0H12C13.1046 0 14 0.89543 14 2V14C14 15.1046 13.1046 16 12 16H4C2.89543 16 2 15.1046 2 14V2ZM12 1H4C3.44772 1 3 1.44772 3 2V14C3 14.5523 3.44772 15 4 15H12C12.5523 15 13 14.5523 13 14V2C13 1.44772 12.5523 1 12 1Z" fill="black"/>
</svg>
