<svg width="16" height="16" viewBox="0 0 16 16" fill="none" xmlns="http://www.w3.org/2000/svg">
<path fill-rule="evenodd" clip-rule="evenodd" d="M14 4.5V11H13V4.5H11C10.1716 4.5 9.5 3.82843 9.5 3V1H4C3.44772 1 3 1.44772 3 2V11H2V2C2 0.89543 2.89543 0 4 0H9.5L14 4.5ZM1.5 11.85H3.09961C3.38867 11.85 3.63281 11.9096 3.83203 12.0287C4.0332 12.1459 4.18652 12.3051 4.29199 12.5063C4.39746 12.7074 4.4502 12.933 4.4502 13.183C4.4502 13.433 4.39648 13.6586 4.28906 13.8598C4.18359 14.059 4.0293 14.2172 3.82617 14.3344C3.625 14.4496 3.38086 14.5072 3.09375 14.5072H2.29102V15.849H1.5V11.85ZM3.55957 13.5639C3.61621 13.4584 3.64453 13.3315 3.64453 13.183C3.64453 12.9565 3.58301 12.7826 3.45996 12.6615C3.33691 12.5404 3.16602 12.4799 2.94727 12.4799H2.28809V13.8861H2.94727C3.09375 13.8861 3.21875 13.8588 3.32227 13.8041C3.42578 13.7475 3.50488 13.6674 3.55957 13.5639ZM4.86211 11.85H6.46172C6.75078 11.85 6.99492 11.9096 7.19414 12.0287C7.39531 12.1459 7.54863 12.3051 7.6541 12.5063C7.75957 12.7074 7.8123 12.933 7.8123 13.183C7.8123 13.433 7.75859 13.6586 7.65117 13.8598C7.5457 14.059 7.39141 14.2172 7.18828 14.3344C6.98711 14.4496 6.74297 14.5072 6.45586 14.5072H5.65312V15.849H4.86211V11.85ZM6.92168 13.5639C6.97832 13.4584 7.00664 13.3315 7.00664 13.183C7.00664 12.9565 6.94512 12.7826 6.82207 12.6615C6.69902 12.5404 6.52812 12.4799 6.30937 12.4799H5.6502V13.8861H6.30937C6.45586 13.8861 6.58086 13.8588 6.68437 13.8041C6.78789 13.7475 6.86699 13.6674 6.92168 13.5639ZM9.77402 15.849V12.5121H10.9107V11.85H7.84629V12.5121H8.98008V15.849H9.77402ZM13.5697 11.85H14.4633L13.1889 13.8568L14.4428 15.849H13.5346L12.685 14.434H12.6498L11.7973 15.849H10.9359L12.1752 13.8334L10.9477 11.85H11.8793L12.7113 13.2885H12.7465L13.5697 11.85Z" fill="black"/>
</svg>
