<svg width="16" height="16" viewBox="0 0 16 16" fill="none" xmlns="http://www.w3.org/2000/svg">
<path fill-rule="evenodd" clip-rule="evenodd" d="M14 4.5V14C14 15.1046 13.1046 16 12 16V15C12.5523 15 13 14.5523 13 14V4.5H11C10.1716 4.5 9.5 3.82843 9.5 3V1H4C3.44772 1 3 1.44772 3 2V11H2V2C2 0.89543 2.89543 0 4 0H9.5L14 4.5ZM10.2398 12.6322C10.316 12.7846 10.3629 12.9486 10.3805 13.1244H9.6041C9.58457 13.0326 9.55234 12.9496 9.50742 12.8754C9.4625 12.8012 9.40586 12.7377 9.3375 12.685C9.27109 12.6303 9.19199 12.5883 9.10019 12.559C9.01035 12.5297 8.91074 12.515 8.80137 12.515C8.51621 12.515 8.29453 12.6156 8.13633 12.8168C7.98008 13.018 7.90195 13.3012 7.90195 13.6664V14.1645C7.90195 14.3988 7.93418 14.6039 7.99863 14.7797C8.06504 14.9555 8.1666 15.0932 8.30332 15.1928C8.44004 15.2904 8.61289 15.3393 8.82187 15.3393C9.00547 15.3393 9.15781 15.307 9.27891 15.2426C9.4 15.1762 9.49082 15.0883 9.55137 14.9789C9.61191 14.8695 9.64219 14.7484 9.64219 14.6156V14.3607H8.81894V13.7719H10.3951V14.5688C10.3951 14.7621 10.3629 14.9457 10.2984 15.1195C10.234 15.2914 10.1363 15.4438 10.0055 15.5766C9.87461 15.7094 9.70957 15.8139 9.51035 15.89C9.31309 15.9643 9.08066 16.0014 8.81309 16.0014C8.52598 16.0014 8.275 15.9574 8.06016 15.8695C7.84727 15.7797 7.66953 15.6537 7.52695 15.4916C7.38437 15.3295 7.27793 15.1361 7.20762 14.9115C7.1373 14.6869 7.10215 14.4389 7.10215 14.1674V13.6606C7.10215 13.2992 7.16855 12.9828 7.30137 12.7113C7.43613 12.4398 7.63047 12.2289 7.88437 12.0785C8.14023 11.9262 8.44883 11.85 8.81016 11.85C9.04844 11.85 9.26035 11.8832 9.4459 11.9496C9.6334 12.016 9.79355 12.1078 9.92637 12.225C10.0592 12.3422 10.1637 12.4779 10.2398 12.6322ZM1.59961 11.9262H0V15.9252H0.791016V14.5834H1.59375C1.88086 14.5834 2.125 14.5258 2.32617 14.4106C2.5293 14.2934 2.68359 14.1352 2.78906 13.9359C2.89648 13.7348 2.9502 13.5092 2.9502 13.2592C2.9502 13.0092 2.89746 12.7836 2.79199 12.5824C2.68652 12.3813 2.5332 12.2221 2.33203 12.1049C2.13281 11.9857 1.88867 11.9262 1.59961 11.9262ZM2.14453 13.2592C2.14453 13.4076 2.11621 13.5346 2.05957 13.64C2.00488 13.7436 1.92578 13.8236 1.82227 13.8803C1.71875 13.935 1.59375 13.9623 1.44727 13.9623H0.788086V12.5561H1.44727C1.66602 12.5561 1.83691 12.6166 1.95996 12.7377C2.08301 12.8588 2.14453 13.0326 2.14453 13.2592ZM4.10918 15.9252V13.2504H4.14141L5.90215 15.9252H6.5584V11.9262H5.8084V14.5863H5.77617L4.02422 11.9262H3.36211V15.9252H4.10918Z" fill="black"/>
</svg>
