<svg width="16" height="17" viewBox="0 0 16 17" fill="none" xmlns="http://www.w3.org/2000/svg">
<path fill-rule="evenodd" clip-rule="evenodd" d="M14 4.5V14C14 15.1046 13.1046 16 12 16V15C12.5523 15 13 14.5523 13 14V4.5H11C10.1716 4.5 9.5 3.82843 9.5 3V1H4C3.44772 1 3 1.44772 3 2V11H2V2C2 0.89543 2.89543 0 4 0H9.5L14 4.5ZM0 14.8412C0.0078125 14.9994 0.0449219 15.1488 0.111328 15.2894C0.177734 15.4301 0.274414 15.5551 0.401367 15.6644C0.530273 15.7719 0.689453 15.8558 0.878906 15.9164C1.06836 15.9769 1.29004 16.0072 1.54395 16.0072C1.88184 16.0072 2.16797 15.9545 2.40234 15.849C2.63867 15.7435 2.81836 15.597 2.94141 15.4095C3.06641 15.2201 3.12891 15.0013 3.12891 14.7533C3.12891 14.5287 3.08398 14.3422 2.99414 14.1937C2.9043 14.0453 2.7793 13.9261 2.61914 13.8363C2.45898 13.7445 2.27051 13.6742 2.05371 13.6254L1.43262 13.4818C1.25879 13.4427 1.12402 13.3842 1.02832 13.306C0.932617 13.2279 0.884766 13.1283 0.884766 13.0072C0.884766 12.851 0.946289 12.723 1.06934 12.6234C1.19434 12.5219 1.36523 12.4711 1.58203 12.4711C1.72461 12.4711 1.84766 12.4935 1.95117 12.5385C2.05469 12.5834 2.13672 12.6439 2.19727 12.7201C2.25977 12.7963 2.2998 12.8822 2.31738 12.9779H3.06738C3.05371 12.7709 2.9873 12.5824 2.86816 12.4125C2.75098 12.2406 2.58398 12.1039 2.36719 12.0023C2.15234 11.9008 1.89258 11.85 1.58789 11.85C1.29492 11.85 1.03613 11.8998 0.811523 11.9994C0.586914 12.099 0.411133 12.2396 0.28418 12.4213C0.157227 12.6029 0.09375 12.8158 0.09375 13.0599C0.09375 13.2611 0.134766 13.4359 0.216797 13.5844C0.298828 13.7328 0.416016 13.8549 0.568359 13.9506C0.720703 14.0463 0.900391 14.1176 1.10742 14.1644L1.72559 14.308C1.93262 14.3568 2.08691 14.4213 2.18848 14.5013C2.29004 14.5795 2.34082 14.6879 2.34082 14.8265C2.34082 14.9359 2.3125 15.0326 2.25586 15.1166C2.19922 15.1986 2.11426 15.2631 2.00098 15.3099C1.88965 15.3568 1.75195 15.3802 1.58789 15.3802C1.4707 15.3802 1.36426 15.3666 1.26855 15.3392C1.17285 15.3119 1.08984 15.2738 1.01953 15.225C0.949219 15.1761 0.892578 15.1195 0.849609 15.0551C0.806641 14.9886 0.77832 14.9174 0.764648 14.8412H0ZM6.87773 16.3295L6.3709 15.5912C6.54668 15.4291 6.68047 15.2289 6.77227 14.9906C6.86406 14.7523 6.90996 14.4838 6.90996 14.1849V13.684C6.90996 13.3129 6.84062 12.9906 6.70195 12.7172C6.56523 12.4437 6.36895 12.2318 6.11309 12.0814C5.85723 11.931 5.55156 11.8558 5.19609 11.8558C4.84453 11.8558 4.53984 11.931 4.28203 12.0814C4.02617 12.2299 3.82891 12.4418 3.69023 12.7172C3.55352 12.9906 3.48516 13.3129 3.48516 13.684V14.1849C3.48516 14.5541 3.55352 14.8754 3.69023 15.1488C3.82891 15.4222 4.02617 15.6342 4.28203 15.7845C4.53984 15.933 4.84453 16.0072 5.19609 16.0072C5.30547 16.0072 5.40996 15.9984 5.50957 15.9808C5.61113 15.9652 5.70684 15.9408 5.79668 15.9076L6.08965 16.3295H6.87773ZM4.26152 14.1996V13.6781C4.26152 13.432 4.29961 13.222 4.37578 13.0482C4.45391 12.8744 4.5623 12.7416 4.70098 12.6498C4.8416 12.558 5.00664 12.5121 5.19609 12.5121C5.3875 12.5121 5.55254 12.558 5.69121 12.6498C5.83184 12.7416 5.94023 12.8744 6.01641 13.0482C6.09258 13.222 6.13066 13.432 6.13066 13.6781V14.1996C6.13066 14.3636 6.11309 14.5121 6.07793 14.6449C6.04277 14.7758 5.99102 14.889 5.92266 14.9847L5.81719 14.8441L5.71172 14.6976H4.9793L5.43047 15.348C5.39141 15.3636 5.35039 15.3754 5.30742 15.3832C5.26641 15.391 5.22344 15.3949 5.17852 15.3949C4.99102 15.391 4.82891 15.3422 4.69219 15.2484C4.55547 15.1547 4.44902 15.0199 4.37285 14.8441C4.29863 14.6664 4.26152 14.4515 4.26152 14.1996ZM8.24766 15.2572H9.94394V15.931H7.45664V11.932H8.24766V15.2572Z" fill="black"/>
</svg>
