<svg width="16" height="16" viewBox="0 0 16 16" fill="none" xmlns="http://www.w3.org/2000/svg">
<path fill-rule="evenodd" clip-rule="evenodd" d="M14 4.5V11H13V4.5H11C10.1716 4.5 9.5 3.82843 9.5 3V1H4C3.44772 1 3 1.44772 3 2V11H2V2C2 0.89543 2.89543 0 4 0H9.5L14 4.5ZM1.5213 15.1752C1.46661 15.0287 1.43927 14.8734 1.43927 14.7094H2.20392C2.20782 14.8109 2.23224 14.9008 2.27716 14.9789C2.32208 15.0551 2.38361 15.1156 2.46173 15.1605C2.53986 15.2035 2.6297 15.225 2.73126 15.225C2.92072 15.225 3.06134 15.1703 3.15314 15.0609C3.24493 14.9516 3.29083 14.7963 3.29083 14.5951V11.85H4.08185V14.5746C4.08185 15.0141 3.96271 15.349 3.72443 15.5795C3.4881 15.81 3.15997 15.9252 2.74005 15.9252C2.52521 15.9252 2.33575 15.8939 2.17169 15.8314C2.00958 15.767 1.87384 15.6781 1.76447 15.5648C1.65704 15.4516 1.57599 15.3217 1.5213 15.1752ZM5.49279 14.8207L5.17931 15.849H4.3795L5.7213 11.85H6.64708L7.98302 15.849H7.1422L6.82872 14.8207H5.49279ZM6.67052 14.2318L6.18126 12.6146H6.14611L5.65685 14.2318H6.67052ZM9.0131 15.849H9.96525L11.2924 11.85H10.4135L9.52579 14.9877H9.48771L8.59122 11.85H7.67423L9.0131 15.849ZM12.0998 14.8207L11.7863 15.849H10.9865L12.3283 11.85H13.2541L14.5901 15.849H13.7492L13.4358 14.8207H12.0998ZM13.2776 14.2318L12.7883 12.6146H12.7531L12.2639 14.2318H13.2776Z" fill="black"/>
</svg>
