<svg width="16" height="16" viewBox="0 0 16 16" fill="none" xmlns="http://www.w3.org/2000/svg">
<path fill-rule="evenodd" clip-rule="evenodd" d="M14 4.5V14C14 15.1046 13.1046 16 12 16V15C12.5523 15 13 14.5523 13 14V4.5H11C10.1716 4.5 9.5 3.82843 9.5 3V1H4C3.44772 1 3 1.44772 3 2V11H2V2C2 0.89543 2.89543 0 4 0H9.5L14 4.5ZM2.13281 15.849V14.3139L3.47168 11.85H2.61621L1.76074 13.5463H1.72852L0.875977 11.85H0L1.33887 14.3285V15.849H2.13281ZM4.41973 15.849V13.1889H4.45781L5.40996 15.348H5.92559L6.87187 13.1889H6.90996V15.849H7.6248V11.85H6.825L5.68535 14.4457H5.65898L4.51934 11.85H3.71367V15.849H4.41973ZM9.12949 15.1752H10.8258V15.849H8.33848V11.85H9.12949V15.1752Z" fill="black"/>
</svg>
