<svg width="16" height="16" viewBox="0 0 16 16" fill="none" xmlns="http://www.w3.org/2000/svg">
<path d="M4 0C2.89543 0 2 0.89543 2 2V14C2 15.1046 2.89543 16 4 16H12C13.1046 16 14 15.1046 14 14V2C14 0.89543 13.1046 0 12 0H4ZM4 1H12C12.5523 1 13 1.44772 13 2V14C13 14.5523 12.5523 15 12 15H4C3.44772 15 3 14.5523 3 14V2C3 1.44772 3.44772 1 4 1Z" fill="black"/>
<path d="M4.60306 12.0867C4.39491 12.0107 4.25501 11.8484 4.16468 11.6677C3.97022 11.2788 4.03478 10.891 4.24537 10.5645C4.44319 10.2579 4.77105 9.99717 5.14155 9.77833C5.55865 9.53198 6.07228 9.31416 6.6241 9.1333C6.83121 8.76159 7.03389 8.36646 7.22352 7.96488C7.39177 7.60859 7.54759 7.25176 7.68579 6.90628C7.49419 6.45884 7.344 6.01662 7.25637 5.61138C7.16977 5.21091 7.13708 4.81472 7.20952 4.47493C7.28495 4.12113 7.48354 3.80274 7.86078 3.65184C8.05233 3.57522 8.25996 3.53148 8.46214 3.57471C8.68337 3.62202 8.84315 3.76142 8.93892 3.93992C9.02714 4.10435 9.05906 4.29554 9.06586 4.47826C9.07283 4.66548 9.05429 4.87348 9.01862 5.09175C8.93528 5.60164 8.7481 6.22636 8.49838 6.88635C8.64646 7.20413 8.81662 7.52577 9.00128 7.83735C9.15466 8.09616 9.31532 8.34344 9.4782 8.5722C9.97314 8.54088 10.4329 8.55363 10.8131 8.62202C11.1769 8.68749 11.5471 8.81729 11.773 9.08679C11.8939 9.23103 11.9659 9.4071 11.9731 9.60542C11.9801 9.79719 11.9259 9.98674 11.8354 10.1677C11.751 10.3366 11.6356 10.4829 11.4809 10.5841C11.3229 10.6875 11.1471 10.7286 10.9713 10.7216C10.64 10.7082 10.3173 10.5258 10.0377 10.305C9.73716 10.0676 9.42667 9.73763 9.12696 9.35524C8.80669 9.39003 8.46937 9.44284 8.12729 9.51237C7.78882 9.58116 7.45235 9.66496 7.13012 9.76088C6.79217 10.3441 6.44174 10.8696 6.10905 11.2707C5.81837 11.6211 5.5013 11.9265 5.183 12.0577C5.01464 12.127 4.80988 12.1622 4.60306 12.0867ZM5.98157 10.1859C5.81602 10.2622 5.66216 10.3419 5.52297 10.4241C5.19503 10.6178 4.9818 10.8065 4.87563 10.9711C4.78224 11.1159 4.77993 11.2212 4.83549 11.3323C4.84626 11.3538 4.85526 11.3677 4.86177 11.3764C4.87005 11.3743 4.88172 11.3706 4.89729 11.3642C5.03408 11.3079 5.25218 11.1289 5.53181 10.7918C5.67694 10.6169 5.82803 10.4126 5.98157 10.1859ZM7.62198 8.8551C7.74063 8.8274 7.85944 8.80147 7.97791 8.77739C8.19564 8.73314 8.41476 8.69462 8.63204 8.66266C8.53722 8.51787 8.44497 8.36972 8.35608 8.21973C8.27547 8.08372 8.19694 7.94504 8.12118 7.80473C8.05031 7.96528 7.97697 8.12577 7.90171 8.28514C7.81153 8.47611 7.71801 8.66671 7.62198 8.8551ZM10.0682 9.30674C10.2177 9.46843 10.3638 9.60685 10.5026 9.7164C10.7431 9.90635 10.9103 9.9685 11.0014 9.97216C11.0368 9.97358 11.0554 9.96624 11.0702 9.95655C11.0882 9.94476 11.1241 9.91336 11.1646 9.83226C11.2167 9.72816 11.2247 9.6644 11.2236 9.63271C11.2227 9.60756 11.2162 9.59001 11.1982 9.5686C11.1464 9.50682 10.9973 9.41722 10.6803 9.36017C10.5023 9.32815 10.2958 9.3106 10.0682 9.30674ZM8.0784 5.79871C8.17026 5.49405 8.23866 5.21412 8.27844 4.97077C8.30916 4.78279 8.3209 4.62751 8.31638 4.50614C8.31243 4.39987 8.29663 4.33862 8.28436 4.30824C8.26022 4.31017 8.214 4.31832 8.13932 4.3482C8.05233 4.38299 7.98087 4.45387 7.94304 4.63131C7.90222 4.82275 7.91307 5.09977 7.98943 5.45286C8.01347 5.56406 8.04331 5.67967 8.0784 5.79871Z" fill="black"/>
</svg>
