<svg width="16" height="16" viewBox="0 0 16 16" fill="none" xmlns="http://www.w3.org/2000/svg">
<path fill-rule="evenodd" clip-rule="evenodd" d="M14 4.5V14C14 15.1046 13.1046 16 12 16V15C12.5523 15 13 14.5523 13 14V4.5H11C10.1716 4.5 9.5 3.82843 9.5 3V1H4C3.44772 1 3 1.44772 3 2V11H2V2C2 0.89543 2.89543 0 4 0H9.5L14 4.5ZM8.19199 13.0541C8.12363 13.2279 8.08945 13.4389 8.08945 13.6869V14.182C8.08945 14.4281 8.12363 14.6371 8.19199 14.809C8.26035 14.9809 8.35996 15.1117 8.49082 15.2016C8.62363 15.2895 8.78281 15.3334 8.96836 15.3334C9.1207 15.3334 9.25449 15.3041 9.36973 15.2455C9.48496 15.185 9.57578 15.102 9.64219 14.9965C9.70859 14.891 9.74766 14.7699 9.75937 14.6332H10.524V14.6713V14.7094C10.5104 14.9633 10.4352 15.1879 10.2984 15.3832C10.1617 15.5766 9.97812 15.7279 9.74766 15.8373C9.51719 15.9467 9.25547 16.0014 8.9625 16.0014C8.60312 16.0014 8.29844 15.9291 8.04844 15.7846C7.79844 15.6381 7.60801 15.4291 7.47715 15.1576C7.34824 14.8861 7.28379 14.5609 7.28379 14.182V13.684C7.28379 13.3051 7.34922 12.9789 7.48008 12.7055C7.61094 12.432 7.80137 12.2211 8.05137 12.0727C8.30332 11.9242 8.60703 11.85 8.9625 11.85C9.18125 11.85 9.3834 11.8822 9.56894 11.9467C9.75644 12.0092 9.91953 12.1 10.0582 12.2191C10.1969 12.3383 10.3062 12.4789 10.3863 12.641C10.4684 12.8031 10.5143 12.9838 10.524 13.183V13.2211V13.2563H9.75937C9.74766 13.1137 9.70762 12.9867 9.63926 12.8754C9.57285 12.7641 9.48203 12.6772 9.3668 12.6147C9.25156 12.5502 9.11875 12.518 8.96836 12.518C8.78477 12.518 8.62656 12.5639 8.49375 12.6557C8.36289 12.7475 8.2623 12.8803 8.19199 13.0541ZM0.799805 15.9252L1.11328 14.8969H2.44922L2.7627 15.9252H3.60352L2.26758 11.9262H1.3418L0 15.9252H0.799805ZM1.80176 12.6908L2.29102 14.308H1.27734L1.7666 12.6908H1.80176ZM4.43145 15.9252L4.74492 14.8969H6.08086L6.39434 15.9252H7.23516L5.89922 11.9262H4.97344L3.63164 15.9252H4.43145ZM5.4334 12.6908L5.92266 14.308H4.90898L5.39824 12.6908H5.4334Z" fill="black"/>
</svg>
