<svg width="16" height="16" viewBox="0 0 16 16" fill="none" xmlns="http://www.w3.org/2000/svg">
<path d="M10.8536 7.85355C11.0488 7.65829 11.0488 7.34171 10.8536 7.14645C10.6583 6.95118 10.3417 6.95118 10.1464 7.14645L7.5 9.79289L6.35355 8.64645C6.15829 8.45118 5.84171 8.45118 5.64645 8.64645C5.45118 8.84171 5.45118 9.15829 5.64645 9.35355L7.14645 10.8536C7.24021 10.9473 7.36739 11 7.5 11C7.63261 11 7.75979 10.9473 7.85355 10.8536L10.8536 7.85355Z" fill="black"/>
<path d="M14 14V4.5L9.5 0H4C2.89543 0 2 0.89543 2 2V14C2 15.1046 2.89543 16 4 16H12C13.1046 16 14 15.1046 14 14ZM9.5 3C9.5 3.82843 10.1716 4.5 11 4.5H13V14C13 14.5523 12.5523 15 12 15H4C3.44772 15 3 14.5523 3 14V2C3 1.44772 3.44772 1 4 1H9.5V3Z" fill="black"/>
</svg>
