<svg width="16" height="16" viewBox="0 0 16 16" fill="none" xmlns="http://www.w3.org/2000/svg">
<path d="M5.48507 6.87873C5.41809 6.61083 5.14663 6.44795 4.87873 6.51493C4.61083 6.5819 4.44795 6.85337 4.51493 7.12126L6.01493 13.1213C6.07009 13.3419 6.26724 13.4975 6.49468 13.5C6.72212 13.5024 6.92253 13.351 6.98238 13.1316L8 9.40029L9.01761 13.1316C9.07746 13.351 9.27787 13.5024 9.50531 13.5C9.73275 13.4975 9.9299 13.3419 9.98507 13.1213L11.4851 7.12126C11.552 6.85337 11.3892 6.5819 11.1213 6.51493C10.8534 6.44795 10.5819 6.61083 10.5149 6.87873L9.47896 11.0226L8.48238 7.36844C8.42305 7.15091 8.22547 7 8 7C7.77452 7 7.57694 7.15091 7.51761 7.36844L6.52103 11.0226L5.48507 6.87873Z" fill="black"/>
<path d="M14 14V4.5L9.5 0H4C2.89543 0 2 0.89543 2 2V14C2 15.1046 2.89543 16 4 16H12C13.1046 16 14 15.1046 14 14ZM9.5 3C9.5 3.82843 10.1716 4.5 11 4.5H13V14C13 14.5523 12.5523 15 12 15H4C3.44772 15 3 14.5523 3 14V2C3 1.44772 3.44772 1 4 1H9.5V3Z" fill="black"/>
</svg>
