<svg width="16" height="16" viewBox="0 0 16 16" fill="none" xmlns="http://www.w3.org/2000/svg">
<path d="M6.64645 5.64645C6.84171 5.45118 7.15829 5.45118 7.35355 5.64645C7.54882 5.84171 7.54882 6.15829 7.35355 6.35355L5.70711 8L7.35355 9.64645C7.54882 9.84171 7.54882 10.1583 7.35355 10.3536C7.15829 10.5488 6.84171 10.5488 6.64645 10.3536L4.64645 8.35355C4.45118 8.15829 4.45118 7.84171 4.64645 7.64645L6.64645 5.64645Z" fill="black"/>
<path d="M9.35355 5.64645C9.15829 5.45118 8.84171 5.45118 8.64645 5.64645C8.45118 5.84171 8.45118 6.15829 8.64645 6.35355L10.2929 8L8.64645 9.64645C8.45118 9.84171 8.45118 10.1583 8.64645 10.3536C8.84171 10.5488 9.15829 10.5488 9.35355 10.3536L11.3536 8.35355C11.5488 8.15829 11.5488 7.84171 11.3536 7.64645L9.35355 5.64645Z" fill="black"/>
<path d="M2 2C2 0.89543 2.89543 0 4 0H12C13.1046 0 14 0.89543 14 2V14C14 15.1046 13.1046 16 12 16H4C2.89543 16 2 15.1046 2 14V2ZM12 1H4C3.44772 1 3 1.44772 3 2V14C3 14.5523 3.44772 15 4 15H12C12.5523 15 13 14.5523 13 14V2C13 1.44772 12.5523 1 12 1Z" fill="black"/>
</svg>
