<svg width="16" height="16" viewBox="0 0 16 16" fill="none" xmlns="http://www.w3.org/2000/svg">
<path fill-rule="evenodd" clip-rule="evenodd" d="M14 4.5V14C14 15.1046 13.1046 16 12 16V15C12.5523 15 13 14.5523 13 14V4.5H11C10.1716 4.5 9.5 3.82843 9.5 3V1H4C3.44772 1 3 1.44772 3 2V11H2V2C2 0.89543 2.89543 0 4 0H9.5L14 4.5ZM7.08574 13.6664V14.1879C7.08574 14.4438 7.04668 14.6576 6.96855 14.8295C6.89043 15.0014 6.78301 15.1303 6.64629 15.2162C6.50957 15.3002 6.35332 15.3422 6.17754 15.3422C5.9998 15.3422 5.84258 15.3002 5.70586 15.2162C5.57109 15.1303 5.46465 15.0014 5.38652 14.8295C5.3084 14.6576 5.26934 14.4438 5.26934 14.1879V13.6664C5.26934 13.4086 5.3084 13.1947 5.38652 13.0248C5.46465 12.8529 5.57109 12.724 5.70586 12.6381C5.84258 12.5522 5.9998 12.5092 6.17754 12.5092C6.35332 12.5092 6.50957 12.5522 6.64629 12.6381C6.78301 12.724 6.89043 12.8529 6.96855 13.0248C7.04668 13.1947 7.08574 13.4086 7.08574 13.6664ZM7.88848 14.185V13.6723C7.88848 13.2953 7.82012 12.9711 7.6834 12.6996C7.54668 12.4262 7.35039 12.2162 7.09453 12.0697C6.84062 11.9232 6.53496 11.85 6.17754 11.85C5.82207 11.85 5.51543 11.9232 5.25762 12.0697C5.00176 12.2143 4.80547 12.4232 4.66875 12.6967C4.53203 12.9682 4.46367 13.2934 4.46367 13.6723V14.185C4.46367 14.56 4.53203 14.8842 4.66875 15.1576C4.80547 15.4291 5.00176 15.6381 5.25762 15.7846C5.51543 15.9291 5.82207 16.0014 6.17754 16.0014C6.53496 16.0014 6.84062 15.9291 7.09453 15.7846C7.35039 15.6381 7.54668 15.4291 7.6834 15.1576C7.82012 14.8842 7.88848 14.56 7.88848 14.185ZM0.706055 15.9252V13.265H0.744141L1.69629 15.4242H2.21191L3.1582 13.265H3.19629V15.9252H3.91113V11.9262H3.11133L1.97168 14.5219H1.94531L0.805664 11.9262H0V15.9252H0.706055ZM10.2457 15.9252H9.29355L7.95469 11.9262H8.87168L9.76816 15.0639H9.80625L10.6939 11.9262H11.5729L10.2457 15.9252Z" fill="black"/>
</svg>
