<svg width="16" height="16" viewBox="0 0 16 16" fill="none" xmlns="http://www.w3.org/2000/svg">
<path d="M12 0H4C2.89543 0 2 0.89543 2 2V14C2 15.1046 2.89543 16 4 16H12C13.1046 16 14 15.1046 14 14V2C14 0.89543 13.1046 0 12 0ZM8.5 4.5V5.13397L9.04904 4.81699C9.28818 4.67892 9.59398 4.76085 9.73205 5C9.87012 5.23915 9.78818 5.54494 9.54903 5.68301L9 6L9.54904 6.31699C9.78819 6.45506 9.87012 6.76085 9.73205 7C9.59398 7.23915 9.28819 7.32108 9.04904 7.18301L8.5 6.86602V7.5C8.5 7.77614 8.27614 8 8 8C7.72385 8 7.5 7.77614 7.5 7.5V6.86602L6.95096 7.18301C6.71181 7.32108 6.40602 7.23915 6.26795 7C6.12987 6.76085 6.21181 6.45506 6.45096 6.31699L7 6L6.45096 5.68301C6.21182 5.54494 6.12988 5.23915 6.26795 5C6.40602 4.76085 6.71182 4.67892 6.95096 4.81699L7.5 5.13397V4.5C7.5 4.22386 7.72385 4 8 4C8.27614 4 8.5 4.22386 8.5 4.5ZM5.5 9H10.5C10.7761 9 11 9.22386 11 9.5C11 9.77614 10.7761 10 10.5 10H5.5C5.22386 10 5 9.77614 5 9.5C5 9.22386 5.22386 9 5.5 9ZM5.5 11H10.5C10.7761 11 11 11.2239 11 11.5C11 11.7761 10.7761 12 10.5 12H5.5C5.22386 12 5 11.7761 5 11.5C5 11.2239 5.22386 11 5.5 11Z" fill="black"/>
</svg>
