<svg width="16" height="16" viewBox="0 0 16 16" fill="none" xmlns="http://www.w3.org/2000/svg">
<path d="M9.29289 0H4C2.89543 0 2 0.895431 2 2V14C2 15.1046 2.89543 16 4 16H12C13.1046 16 14 15.1046 14 14V4.70711C14 4.44189 13.8946 4.18754 13.7071 4L10 0.292893C9.81246 0.105357 9.55811 0 9.29289 0ZM9.5 3.5V1.5L12.5 4.5H10.5C9.94772 4.5 9.5 4.05228 9.5 3.5ZM6.64645 7.64645C6.84171 7.45118 7.15829 7.45118 7.35355 7.64645C7.54882 7.84171 7.54882 8.15829 7.35355 8.35355L5.70711 10L7.35355 11.6464C7.54882 11.8417 7.54882 12.1583 7.35355 12.3536C7.15829 12.5488 6.84171 12.5488 6.64645 12.3536L4.64645 10.3536C4.45118 10.1583 4.45118 9.84171 4.64645 9.64645L6.64645 7.64645ZM9.35355 7.64645L11.3536 9.64645C11.5488 9.84171 11.5488 10.1583 11.3536 10.3536L9.35355 12.3536C9.15829 12.5488 8.84171 12.5488 8.64645 12.3536C8.45118 12.1583 8.45118 11.8417 8.64645 11.6464L10.2929 10L8.64645 8.35355C8.45118 8.15829 8.45118 7.84171 8.64645 7.64645C8.84171 7.45118 9.15829 7.45118 9.35355 7.64645Z" fill="black"/>
</svg>
