<svg width="16" height="16" viewBox="0 0 16 16" fill="none" xmlns="http://www.w3.org/2000/svg">
<path fill-rule="evenodd" clip-rule="evenodd" d="M14 4.5V14C14 15.1046 13.1046 16 12 16H10V15H12C12.5523 15 13 14.5523 13 14V4.5H11C10.1716 4.5 9.5 3.82843 9.5 3V1H4C3.44772 1 3 1.44772 3 2V11H2V2C2 0.89543 2.89543 0 4 0H9.5L14 4.5ZM1.92773 15.849V12.5121H3.06328H3.06445H4.19707V15.849H4.99102V12.5121H6.12773V11.85H3.06445H3.06328H0V12.5121H1.13379V15.849H1.92773ZM7.24277 14.2582V15.849H6.45176V11.85H9.00059V12.5033H7.24277V13.6195H8.84824V14.2582H7.24277Z" fill="black"/>
</svg>
