<svg width="16" height="16" viewBox="0 0 16 16" fill="none" xmlns="http://www.w3.org/2000/svg">
<path fill-rule="evenodd" clip-rule="evenodd" d="M14 4.5V11H13V4.5H11C10.1716 4.5 9.5 3.82843 9.5 3V1H4C3.44772 1 3 1.44772 3 2V11H2V2C2 0.89543 2.89543 0 4 0H9.5L14 4.5ZM4.26367 11.85V15.849H3.47266V14.1352H1.79102V15.849H1V11.85H1.79102V13.476H3.47266V11.85H4.26367ZM6.51543 12.5121V15.849H5.72148V12.5121H4.5877V11.85H7.65215V12.5121H6.51543ZM8.69102 15.849V13.1889H8.7291L9.68125 15.348H10.1969L11.1432 13.1889H11.1813V15.849H11.8961V11.85H11.0963L9.95664 14.4457H9.93027L8.79063 11.85H7.98496V15.849H8.69102ZM13.4008 15.1752H15.0971V15.849H12.6098V11.85H13.4008V15.1752Z" fill="black"/>
</svg>
