<svg width="16" height="16" viewBox="0 0 16 16" fill="none" xmlns="http://www.w3.org/2000/svg">
<path d="M8 5C8.27614 5 8.5 5.22386 8.5 5.5V9.29289L9.64645 8.14645C9.84171 7.95118 10.1583 7.95118 10.3536 8.14645C10.5488 8.34171 10.5488 8.65829 10.3536 8.85355L8.35355 10.8536C8.15829 11.0488 7.84171 11.0488 7.64645 10.8536L5.64645 8.85355C5.45118 8.65829 5.45118 8.34171 5.64645 8.14645C5.84171 7.95118 6.15829 7.95118 6.35355 8.14645L7.5 9.29289V5.5C7.5 5.22386 7.72386 5 8 5Z" fill="black"/>
<path d="M4 0C2.89543 0 2 0.89543 2 2V14C2 15.1046 2.89543 16 4 16H12C13.1046 16 14 15.1046 14 14V2C14 0.89543 13.1046 0 12 0H4ZM4 1H12C12.5523 1 13 1.44772 13 2V14C13 14.5523 12.5523 15 12 15H4C3.44772 15 3 14.5523 3 14V2C3 1.44772 3.44772 1 4 1Z" fill="black"/>
</svg>
