<svg width="16" height="16" viewBox="0 0 16 16" fill="none" xmlns="http://www.w3.org/2000/svg">
<path fill-rule="evenodd" clip-rule="evenodd" d="M14 4.5V14C14 15.1046 13.1046 16 12 16H8V15H12C12.5523 15 13 14.5523 13 14V4.5H11C10.1716 4.5 9.5 3.82843 9.5 3V1H4C3.44772 1 3 1.44772 3 2V11H2V2C2 0.89543 2.89543 0 4 0H9.5L14 4.5ZM0 11.85H1.59668C1.89355 11.85 2.14648 11.9027 2.35547 12.0082C2.56445 12.1117 2.72363 12.2582 2.83301 12.4477C2.94434 12.6371 3 12.8598 3 13.1156C3 13.3109 2.96484 13.4848 2.89453 13.6371C2.82422 13.7875 2.7334 13.9135 2.62207 14.015C2.51074 14.1146 2.39453 14.1889 2.27344 14.2377L3.07617 15.849H2.19141L1.49121 14.3578H0.782227V15.849H0V11.85ZM0.782227 12.4711V13.7631H1.4707C1.68945 13.7631 1.8623 13.7104 1.98926 13.6049C2.11816 13.4994 2.18262 13.3412 2.18262 13.1303C2.18262 12.9174 2.11816 12.7543 1.98926 12.641C1.86035 12.5277 1.69141 12.4711 1.48242 12.4711H0.782227ZM5.20781 15.849H3.54375V11.85H5.21367C5.57109 11.85 5.85723 11.9369 6.07207 12.1107C6.28691 12.2846 6.39434 12.5258 6.39434 12.8344C6.39434 12.9945 6.36406 13.1352 6.30352 13.2562C6.24492 13.3754 6.16387 13.473 6.06035 13.5492C5.95879 13.6234 5.8416 13.6771 5.70879 13.7104V13.7455C5.8709 13.7611 6.01934 13.808 6.1541 13.8861C6.28887 13.9623 6.39629 14.0707 6.47637 14.2113C6.5584 14.35 6.59941 14.5199 6.59941 14.7211C6.59941 14.9594 6.53984 15.1625 6.4207 15.3305C6.30156 15.4984 6.1375 15.6273 5.92852 15.7172C5.71953 15.8051 5.4793 15.849 5.20781 15.849ZM5.0291 12.4447H4.32891V13.5141H4.85039C5.02812 13.5141 5.17266 13.4926 5.28398 13.4496C5.39727 13.4066 5.48027 13.3451 5.53301 13.265C5.5877 13.183 5.61504 13.0844 5.61504 12.9691C5.61504 12.8051 5.56328 12.6771 5.45977 12.5854C5.3582 12.4916 5.21465 12.4447 5.0291 12.4447ZM5.07891 14.0648H4.32891V15.2543H4.91777C5.22832 15.2543 5.45195 15.2055 5.58867 15.1078C5.72539 15.0082 5.79375 14.8637 5.79375 14.6742C5.79375 14.5473 5.76641 14.4389 5.71172 14.349C5.65898 14.2572 5.57891 14.1869 5.47148 14.1381C5.36406 14.0893 5.2332 14.0648 5.07891 14.0648Z" fill="black"/>
</svg>
