<svg width="16" height="16" viewBox="0 0 16 16" fill="none" xmlns="http://www.w3.org/2000/svg">
<path fill-rule="evenodd" clip-rule="evenodd" d="M14 4.5V14C14 15.1046 13.1046 16 12 16H11V15H12C12.5523 15 13 14.5523 13 14V4.5H11C10.1716 4.5 9.5 3.82843 9.5 3V1H4C3.44772 1 3 1.44772 3 2V11H2V2C2 0.89543 2.89543 0 4 0H9.5L14 4.5ZM3.17168 14.8412C3.17949 14.9994 3.2166 15.1488 3.28301 15.2895C3.34941 15.4301 3.44609 15.5551 3.57305 15.6645C3.70195 15.7719 3.86113 15.8559 4.05059 15.9164C4.24004 15.977 4.46172 16.0072 4.71562 16.0072C5.05352 16.0072 5.33965 15.9545 5.57402 15.849C5.81035 15.7436 5.99004 15.5971 6.11309 15.4096C6.23809 15.2201 6.30059 15.0014 6.30059 14.7533C6.30059 14.5287 6.25566 14.3422 6.16582 14.1937C6.07598 14.0453 5.95098 13.9262 5.79082 13.8363C5.63066 13.7445 5.44219 13.6742 5.22539 13.6254L4.6043 13.4818C4.43047 13.4428 4.2957 13.3842 4.2 13.3061C4.1043 13.2279 4.05645 13.1283 4.05645 13.0072C4.05645 12.851 4.11797 12.723 4.24102 12.6234C4.36602 12.5219 4.53691 12.4711 4.75371 12.4711C4.89629 12.4711 5.01934 12.4936 5.12285 12.5385C5.22637 12.5834 5.3084 12.6439 5.36895 12.7201C5.43145 12.7963 5.47148 12.8822 5.48906 12.9779H6.23906C6.22539 12.7709 6.15898 12.5824 6.03984 12.4125C5.92266 12.2406 5.75566 12.1039 5.53887 12.0023C5.32402 11.9008 5.06426 11.85 4.75957 11.85C4.4666 11.85 4.20781 11.8998 3.9832 11.9994C3.75859 12.099 3.58281 12.2396 3.45586 12.4213C3.32891 12.6029 3.26543 12.8158 3.26543 13.06C3.26543 13.2611 3.30645 13.4359 3.38848 13.5844C3.47051 13.7328 3.5877 13.8549 3.74004 13.9506C3.89238 14.0463 4.07207 14.1176 4.2791 14.1645L4.89727 14.308C5.1043 14.3568 5.25859 14.4213 5.36016 14.5014C5.46172 14.5795 5.5125 14.6879 5.5125 14.8266C5.5125 14.9359 5.48418 15.0326 5.42754 15.1166C5.3709 15.1986 5.28594 15.2631 5.17266 15.31C5.06133 15.3568 4.92363 15.3803 4.75957 15.3803C4.64238 15.3803 4.53594 15.3666 4.44023 15.3393C4.34453 15.3119 4.26152 15.2738 4.19121 15.225C4.1209 15.1762 4.06426 15.1195 4.02129 15.0551C3.97832 14.9887 3.95 14.9174 3.93633 14.8412H3.17168ZM1.92773 15.9311V12.5941H3.06445V11.932H0V12.5941H1.13379V15.9311H1.92773ZM9.00352 11.932H9.89707L8.62266 13.9389L9.87656 15.9311H8.96836L8.11875 14.516H8.08359L7.23105 15.9311H6.36973L7.60898 13.9154L6.38145 11.932H7.31309L8.14512 13.3705H8.18027L9.00352 11.932Z" fill="black"/>
</svg>
