<svg width="16" height="16" viewBox="0 0 16 16" fill="none" xmlns="http://www.w3.org/2000/svg">
<path d="M5 6C4.74784 6 4.53514 6.18777 4.50386 6.43798L4.00386 10.438C3.98608 10.5803 4.03025 10.7234 4.12516 10.8309C4.22008 10.9384 4.35659 11 4.5 11H7.5V13.0158C6.63739 13.0713 6 13.267 6 13.5C6 13.7761 6.89543 14 8 14C9.10457 14 10 13.7761 10 13.5C10 13.267 9.36262 13.0713 8.5 13.0158V11H11.5C11.6434 11 11.7799 10.9384 11.8748 10.8309C11.9698 10.7234 12.0139 10.5803 11.9961 10.438L11.4961 6.43798C11.4649 6.18777 11.2522 6 11 6H5ZM7 9.77923V7.22077C7 7.12361 7.106 7.0636 7.18931 7.11359L9.32136 8.39281C9.40227 8.44136 9.40227 8.55864 9.32136 8.60719L7.18931 9.88641C7.106 9.9364 7 9.87639 7 9.77923Z" fill="black"/>
<path d="M14 14V4.5L9.5 0H4C2.89543 0 2 0.89543 2 2V14C2 15.1046 2.89543 16 4 16H12C13.1046 16 14 15.1046 14 14ZM9.5 3C9.5 3.82843 10.1716 4.5 11 4.5H13V14C13 14.5523 12.5523 15 12 15H4C3.44772 15 3 14.5523 3 14V2C3 1.44772 3.44772 1 4 1H9.5V3Z" fill="black"/>
</svg>
