<svg width="16" height="16" viewBox="0 0 16 16" fill="none" xmlns="http://www.w3.org/2000/svg">
<path d="M14 4.5V14C14 15.1046 13.1046 16 12 16H4C2.89543 16 2 15.1046 2 14V2C2 0.89543 2.89543 0 4 0H9.5L14 4.5ZM11 4.5C10.1716 4.5 9.5 3.82843 9.5 3V1H4C3.44772 1 3 1.44772 3 2V14C3 14.5523 3.44772 15 4 15H12C12.5523 15 13 14.5523 13 14V4.5H11Z" fill="black"/>
<path d="M8.64645 6.64645C8.84171 6.45118 9.15829 6.45118 9.35355 6.64645L11.3536 8.64645C11.5488 8.84171 11.5488 9.15829 11.3536 9.35355L9.35355 11.3536C9.15829 11.5488 8.84171 11.5488 8.64645 11.3536C8.45118 11.1583 8.45118 10.8417 8.64645 10.6464L10.2929 9L8.64645 7.35355C8.45118 7.15829 8.45118 6.84171 8.64645 6.64645Z" fill="black"/>
<path d="M7.35355 6.64645C7.15829 6.45118 6.84171 6.45118 6.64645 6.64645L4.64645 8.64645C4.45118 8.84171 4.45118 9.15829 4.64645 9.35355L6.64645 11.3536C6.84171 11.5488 7.15829 11.5488 7.35355 11.3536C7.54882 11.1583 7.54882 10.8417 7.35355 10.6464L5.70711 9L7.35355 7.35355C7.54882 7.15829 7.54882 6.84171 7.35355 6.64645Z" fill="black"/>
</svg>
