<svg width="16" height="16" viewBox="0 0 16 16" fill="none" xmlns="http://www.w3.org/2000/svg">
<path d="M9.29289 0H4C2.89543 0 2 0.895431 2 2V14C2 15.1046 2.89543 16 4 16H12C13.1046 16 14 15.1046 14 14V4.70711C14 4.44189 13.8946 4.18754 13.7071 4L10 0.292893C9.81246 0.105357 9.55811 0 9.29289 0ZM9.5 3.5V1.5L12.5 4.5H10.5C9.94772 4.5 9.5 4.05228 9.5 3.5ZM7 6.25C7 6.66421 6.66421 7 6.25 7C5.83579 7 5.5 6.66421 5.5 6.25C5.5 5.83579 5.83579 5.5 6.25 5.5C6.66421 5.5 7 5.83579 7 6.25ZM6.13868 7.79199L7.46815 8.67831L9.32322 6.82323C9.39931 6.74714 9.51556 6.72828 9.6118 6.7764L11.5 7.75001V9.50001C11.5 9.77615 11.2761 10 11 10H5C4.72386 10 4.5 9.77615 4.5 9.50001V9.00001C4.5 9.00001 6.03952 7.72589 6.13868 7.79199ZM5 11H11C11.2761 11 11.5 11.2239 11.5 11.5C11.5 11.7761 11.2761 12 11 12H5C4.72386 12 4.5 11.7761 4.5 11.5C4.5 11.2239 4.72386 11 5 11ZM5 13H8C8.27614 13 8.5 13.2239 8.5 13.5C8.5 13.7761 8.27614 14 8 14H5C4.72386 14 4.5 13.7761 4.5 13.5C4.5 13.2239 4.72386 13 5 13Z" fill="black"/>
</svg>
