<svg width="16" height="16" viewBox="0 0 16 16" fill="none" xmlns="http://www.w3.org/2000/svg">
<path d="M4 3.5C4 3.22386 4.22386 3 4.5 3H9.5C9.77614 3 10 3.22386 10 3.5C10 3.77614 9.77614 4 9.5 4H4.5C4.22386 4 4 3.77614 4 3.5Z" fill="black"/>
<path d="M4 5.5C4 5.22386 4.22386 5 4.5 5H11.5C11.7761 5 12 5.22386 12 5.5V13.5C12 13.7761 11.7761 14 11.5 14H4.5C4.22386 14 4 13.7761 4 13.5V5.5Z" fill="black"/>
<path d="M2 2C2 0.89543 2.89543 0 4 0H12C13.1046 0 14 0.89543 14 2V14C14 15.1046 13.1046 16 12 16H4C2.89543 16 2 15.1046 2 14V2ZM12 1H4C3.44772 1 3 1.44772 3 2V14C3 14.5523 3.44772 15 4 15H12C12.5523 15 13 14.5523 13 14V2C13 1.44772 12.5523 1 12 1Z" fill="black"/>
</svg>
