<svg width="16" height="16" viewBox="0 0 16 16" fill="none" xmlns="http://www.w3.org/2000/svg">
<path fill-rule="evenodd" clip-rule="evenodd" d="M14 4.5V14C14 15.1046 13.1046 16 12 16H8V15H12C12.5523 15 13 14.5523 13 14V4.5H11C10.1716 4.5 9.5 3.82843 9.5 3V1H4C3.44772 1 3 1.44772 3 2V11H2V2C2 0.89543 2.89543 0 4 0H9.5L14 4.5ZM3.62871 15.2895C3.5623 15.1488 3.5252 14.9994 3.51738 14.8412H4.28203C4.2957 14.9174 4.32402 14.9887 4.36699 15.0551C4.40996 15.1195 4.4666 15.1762 4.53691 15.225C4.60723 15.2738 4.69023 15.3119 4.78594 15.3393C4.88164 15.3666 4.98809 15.3803 5.10527 15.3803C5.26934 15.3803 5.40703 15.3568 5.51836 15.31C5.63164 15.2631 5.7166 15.1986 5.77324 15.1166C5.82988 15.0326 5.8582 14.9359 5.8582 14.8266C5.8582 14.6879 5.80742 14.5795 5.70586 14.5014C5.6043 14.4213 5.45 14.3568 5.24297 14.308L4.6248 14.1645C4.41777 14.1176 4.23809 14.0463 4.08574 13.9506C3.9334 13.8549 3.81621 13.7328 3.73418 13.5844C3.65215 13.4359 3.61113 13.2611 3.61113 13.06C3.61113 12.8158 3.67461 12.6029 3.80156 12.4213C3.92852 12.2396 4.1043 12.099 4.32891 11.9994C4.55352 11.8998 4.8123 11.85 5.10527 11.85C5.40996 11.85 5.66973 11.9008 5.88457 12.0023C6.10137 12.1039 6.26836 12.2406 6.38555 12.4125C6.50469 12.5824 6.57109 12.7709 6.58477 12.9779H5.83477C5.81719 12.8822 5.77715 12.7963 5.71465 12.7201C5.6541 12.6439 5.57207 12.5834 5.46855 12.5385C5.36504 12.4936 5.24199 12.4711 5.09941 12.4711C4.88262 12.4711 4.71172 12.5219 4.58672 12.6234C4.46367 12.723 4.40215 12.851 4.40215 13.0072C4.40215 13.1283 4.45 13.2279 4.5457 13.3061C4.64141 13.3842 4.77617 13.4428 4.95 13.4818L5.57109 13.6254C5.78789 13.6742 5.97637 13.7445 6.13652 13.8363C6.29668 13.9262 6.42168 14.0453 6.51152 14.1937C6.60137 14.3422 6.64629 14.5287 6.64629 14.7533C6.64629 15.0014 6.58379 15.2201 6.45879 15.4096C6.33574 15.5971 6.15605 15.7436 5.91973 15.849C5.68535 15.9545 5.39922 16.0072 5.06133 16.0072C4.80742 16.0072 4.58574 15.977 4.39629 15.9164C4.20684 15.8559 4.04766 15.7719 3.91875 15.6645C3.7918 15.5551 3.69512 15.4301 3.62871 15.2895ZM0.908203 13.06C0.839844 13.2338 0.805664 13.4447 0.805664 13.6928V14.1879C0.805664 14.434 0.839844 14.643 0.908203 14.8148C0.976562 14.9867 1.07617 15.1176 1.20703 15.2074C1.33984 15.2953 1.49902 15.3393 1.68457 15.3393C1.83691 15.3393 1.9707 15.31 2.08594 15.2514C2.20117 15.1908 2.29199 15.1078 2.3584 15.0023C2.4248 14.8969 2.46387 14.7758 2.47559 14.6391H3.24023V14.6771V14.7152C3.22656 14.9691 3.15137 15.1937 3.01465 15.3891C2.87793 15.5824 2.69434 15.7338 2.46387 15.8432C2.2334 15.9525 1.97168 16.0072 1.67871 16.0072C1.31934 16.0072 1.01465 15.935 0.764648 15.7904C0.514648 15.6439 0.324219 15.435 0.193359 15.1635C0.0644531 14.892 0 14.5668 0 14.1879V13.6898C0 13.3109 0.0654297 12.9848 0.196289 12.7113C0.327148 12.4379 0.517578 12.227 0.767578 12.0785C1.01953 11.9301 1.32324 11.8559 1.67871 11.8559C1.89746 11.8559 2.09961 11.8881 2.28516 11.9525C2.47266 12.015 2.63574 12.1059 2.77441 12.225C2.91309 12.3441 3.02246 12.4848 3.10254 12.6469C3.18457 12.809 3.23047 12.9896 3.24023 13.1889V13.227V13.2621H2.47559C2.46387 13.1195 2.42383 12.9926 2.35547 12.8812C2.28906 12.7699 2.19824 12.683 2.08301 12.6205C1.96777 12.5561 1.83496 12.5238 1.68457 12.5238C1.50098 12.5238 1.34277 12.5697 1.20996 12.6615C1.0791 12.7533 0.978516 12.8861 0.908203 13.06Z" fill="black"/>
</svg>
