<svg width="16" height="16" viewBox="0 0 16 16" fill="none" xmlns="http://www.w3.org/2000/svg">
<path d="M5.52298 10.4241C5.66217 10.3419 5.81603 10.2623 5.98158 10.1859C5.82805 10.4126 5.67695 10.6169 5.53183 10.7919C5.25219 11.129 5.03409 11.3079 4.89731 11.3643C4.88173 11.3707 4.87007 11.3743 4.86178 11.3764C4.85527 11.3678 4.84627 11.3539 4.83551 11.3323C4.77995 11.2212 4.78226 11.1159 4.87564 10.9711C4.98181 10.8065 5.19504 10.6178 5.52298 10.4241Z" fill="black"/>
<path d="M7.97793 8.77742C7.85945 8.8015 7.74064 8.82743 7.62199 8.85513C7.71802 8.66674 7.81154 8.47614 7.90172 8.28517C7.97698 8.1258 8.05032 7.96531 8.12119 7.80476C8.19695 7.94507 8.27548 8.08375 8.35609 8.21976C8.44498 8.36975 8.53723 8.5179 8.63205 8.66269C8.41477 8.69464 8.19565 8.73317 7.97793 8.77742Z" fill="black"/>
<path d="M10.5026 9.71643C10.3639 9.60688 10.2177 9.46846 10.0682 9.30677C10.2959 9.31063 10.5023 9.32818 10.6803 9.3602C10.9973 9.41725 11.1464 9.50685 11.1982 9.56863C11.2162 9.59004 11.2227 9.60759 11.2236 9.63274C11.2247 9.66443 11.2167 9.7282 11.1646 9.83229C11.1241 9.91339 11.0882 9.94479 11.0702 9.95658C11.0554 9.96627 11.0369 9.97361 11.0014 9.97219C10.9103 9.96853 10.7431 9.90638 10.5026 9.71643Z" fill="black"/>
<path d="M8.27845 4.9708C8.23868 5.21415 8.17027 5.49408 8.07842 5.79874C8.04332 5.67969 8.01349 5.56409 7.98944 5.45289C7.91309 5.0998 7.90224 4.82278 7.94305 4.63134C7.98088 4.4539 8.05234 4.38302 8.13933 4.34823C8.21402 4.31835 8.26023 4.3102 8.28437 4.30827C8.29664 4.33865 8.31244 4.3999 8.31639 4.50617C8.32091 4.62754 8.30918 4.78282 8.27845 4.9708Z" fill="black"/>
<path fill-rule="evenodd" clip-rule="evenodd" d="M4 0H12C13.1046 0 14 0.89543 14 2V14C14 15.1046 13.1046 16 12 16H4C2.89543 16 2 15.1046 2 14V2C2 0.89543 2.89543 0 4 0ZM4.16469 11.6678C4.25502 11.8484 4.39492 12.0107 4.60308 12.0867C4.8099 12.1622 5.01465 12.1271 5.18301 12.0577C5.50132 11.9266 5.81838 11.6211 6.10906 11.2707C6.44175 10.8697 6.79218 10.3441 7.13014 9.76091C7.45236 9.66499 7.78883 9.58119 8.12731 9.5124C8.46939 9.44287 8.8067 9.39006 9.12697 9.35527C9.42668 9.73765 9.73718 10.0677 10.0377 10.305C10.3173 10.5258 10.64 10.7083 10.9713 10.7216C11.1471 10.7286 11.3229 10.6875 11.4809 10.5842C11.6356 10.4829 11.751 10.3366 11.8355 10.1677C11.9259 9.98677 11.9801 9.79722 11.9731 9.60545C11.9659 9.40713 11.8939 9.23106 11.773 9.08682C11.5471 8.81731 11.177 8.68752 10.8131 8.62205C10.4329 8.55366 9.97315 8.54091 9.47821 8.57223C9.31534 8.34347 9.15468 8.09619 9.00129 7.83738C8.81663 7.5258 8.64647 7.20416 8.49839 6.88638C8.74812 6.22639 8.93529 5.60167 9.01863 5.09178C9.05431 4.87351 9.07284 4.66551 9.06587 4.47828C9.05908 4.29557 9.02715 4.10438 8.93893 3.93994C8.84316 3.76145 8.68338 3.62205 8.46215 3.57474C8.25998 3.53151 8.05235 3.57525 7.86079 3.65187C7.48355 3.80277 7.28496 4.12116 7.20953 4.47496C7.13709 4.81475 7.16979 5.21094 7.25638 5.61141C7.34401 6.01665 7.49421 6.45887 7.68581 6.90631C7.54761 7.25179 7.39178 7.60862 7.22354 7.96491C7.03391 8.36649 6.83122 8.76161 6.62412 9.13333C6.0723 9.31419 5.55866 9.53201 5.14157 9.77836C4.77107 9.99719 4.4432 10.2579 4.24538 10.5646C4.03479 10.8911 3.97023 11.2789 4.16469 11.6678Z" fill="black"/>
</svg>
