<svg width="16" height="16" viewBox="0 0 16 16" fill="none" xmlns="http://www.w3.org/2000/svg">
<path d="M12 0H4C2.89543 0 2 0.89543 2 2V14C2 15.1046 2.89543 16 4 16H12C13.1046 16 14 15.1046 14 14V2C14 0.89543 13.1046 0 12 0ZM7 4.25C7 4.66421 6.66421 5 6.25 5C5.83579 5 5.5 4.66421 5.5 4.25C5.5 3.83579 5.83579 3.5 6.25 3.5C6.66421 3.5 7 3.83579 7 4.25ZM6.13868 5.79199L7.46815 6.67831L9.32322 4.82323C9.39931 4.74714 9.51556 4.72828 9.6118 4.7764L11.5 5.75001V7.50001C11.5 7.77615 11.2761 8.00001 11 8.00001H5C4.72386 8.00001 4.5 7.77615 4.5 7.50001V7.00001C4.5 7.00001 6.03952 5.72589 6.13868 5.79199ZM5 9H11C11.2761 9 11.5 9.22386 11.5 9.5C11.5 9.77614 11.2761 10 11 10H5C4.72386 10 4.5 9.77614 4.5 9.5C4.5 9.22386 4.72386 9 5 9ZM5 11H8C8.27614 11 8.5 11.2239 8.5 11.5C8.5 11.7761 8.27614 12 8 12H5C4.72386 12 4.5 11.7761 4.5 11.5C4.5 11.2239 4.72386 11 5 11Z" fill="black"/>
</svg>
