<svg width="16" height="16" viewBox="0 0 16 16" fill="none" xmlns="http://www.w3.org/2000/svg">
<path fill-rule="evenodd" clip-rule="evenodd" d="M14 4.5V14C14 15.1046 13.1046 16 12 16H9V15H12C12.5523 15 13 14.5523 13 14V4.5H11C10.1716 4.5 9.5 3.82843 9.5 3V1H4C3.44772 1 3 1.44772 3 2V11H2V2C2 0.89543 2.89543 0 4 0H9.5L14 4.5ZM3.27832 13.1244C3.26074 12.9486 3.21387 12.7846 3.1377 12.6322C3.06152 12.4779 2.95703 12.3422 2.82422 12.225C2.69141 12.1078 2.53125 12.016 2.34375 11.9496C2.1582 11.8832 1.94629 11.85 1.70801 11.85C1.34668 11.85 1.03809 11.9262 0.782227 12.0785C0.52832 12.2289 0.333984 12.4398 0.199219 12.7113C0.0664062 12.9828 0 13.2992 0 13.6606V14.1674C0 14.4389 0.0351562 14.6869 0.105469 14.9115C0.175781 15.1361 0.282227 15.3295 0.424805 15.4916C0.567383 15.6537 0.745117 15.7797 0.958008 15.8695C1.17285 15.9574 1.42383 16.0014 1.71094 16.0014C1.97852 16.0014 2.21094 15.9643 2.4082 15.89C2.60742 15.8139 2.77246 15.7094 2.90332 15.5766C3.03418 15.4438 3.13184 15.2914 3.19629 15.1195C3.26074 14.9457 3.29297 14.7621 3.29297 14.5688V13.7719H1.7168V14.3607H2.54004V14.6156C2.54004 14.7484 2.50977 14.8695 2.44922 14.9789C2.38867 15.0883 2.29785 15.1762 2.17676 15.2426C2.05566 15.307 1.90332 15.3393 1.71973 15.3393C1.51074 15.3393 1.33789 15.2904 1.20117 15.1928C1.06445 15.0932 0.962891 14.9555 0.896484 14.7797C0.832031 14.6039 0.799805 14.3988 0.799805 14.1645V13.6664C0.799805 13.3012 0.87793 13.018 1.03418 12.8168C1.19238 12.6156 1.41406 12.515 1.69922 12.515C1.80859 12.515 1.9082 12.5297 1.99805 12.559C2.08984 12.5883 2.16895 12.6303 2.23535 12.685C2.30371 12.7377 2.36035 12.8012 2.40527 12.8754C2.4502 12.9496 2.48242 13.0326 2.50195 13.1244H3.27832ZM4.63066 15.9252V11.9262H3.83965V15.9252H4.63066ZM6.12363 14.3344V15.9252H5.33262V11.9262H7.88144V12.5795H6.12363V13.6957H7.7291V14.3344H6.12363Z" fill="black"/>
</svg>
