<svg width="16" height="16" viewBox="0 0 16 16" fill="none" xmlns="http://www.w3.org/2000/svg">
<path d="M14 10.5C14 10.2239 13.7761 10 13.5 10H10.5C10.2239 10 10 10.2239 10 10.5C10 10.7761 10.2239 11 10.5 11H13.5C13.7761 11 14 10.7761 14 10.5Z" fill="black"/>
<path d="M14 7.5C14 7.22386 13.7761 7 13.5 7H6.5C6.22386 7 6 7.22386 6 7.5C6 7.77614 6.22386 8 6.5 8H13.5C13.7761 8 14 7.77614 14 7.5Z" fill="black"/>
<path d="M14 4.5C14 4.22386 13.7761 4 13.5 4H2.5C2.22386 4 2 4.22386 2 4.5C2 4.77614 2.22386 5 2.5 5H13.5C13.7761 5 14 4.77614 14 4.5Z" fill="black"/>
</svg>
