<svg width="16" height="16" viewBox="0 0 16 16" fill="none" xmlns="http://www.w3.org/2000/svg">
<path d="M8.05931 6.5C8.33545 6.5 8.55931 6.72386 8.55931 7V7.77559C8.55931 8.97016 8.37318 10.1574 8.00763 11.2947L6.67652 15.4359C6.59202 15.6988 6.3104 15.8434 6.0475 15.7589C5.78461 15.6744 5.63999 15.3928 5.72449 15.1299L7.05561 10.9887C7.38937 9.95031 7.55931 8.86628 7.55931 7.77559V7C7.55931 6.72386 7.78316 6.5 8.05931 6.5Z" fill="black"/>
<path d="M6.05932 7C6.05932 5.89543 6.95475 5 8.05932 5C9.16389 5 10.0593 5.89543 10.0593 7C10.0593 7.27614 9.83546 7.5 9.55932 7.5C9.28318 7.5 9.05932 7.27614 9.05932 7C9.05932 6.44772 8.6116 6 8.05932 6C7.50704 6 7.05932 6.44772 7.05932 7V7.33234C7.05932 7.74064 7.03758 8.14812 6.99434 8.55308C6.96503 8.82766 6.71868 9.02649 6.44409 8.99718C6.16951 8.96786 5.97068 8.72151 5.99999 8.44692C6.03947 8.07719 6.05932 7.70514 6.05932 7.33234V7ZM9.56858 8.00017C9.84463 8.00732 10.0626 8.23691 10.0555 8.51296C10.026 9.64813 9.82862 10.7732 9.46918 11.8516L8.20257 15.6514C8.11525 15.9134 7.83209 16.0549 7.57012 15.9676C7.30814 15.8803 7.16656 15.5971 7.25389 15.3352L8.52049 11.5353C8.84868 10.5508 9.02893 9.5235 9.05579 8.48704C9.06295 8.21099 9.29253 7.99301 9.56858 8.00017ZM6.21322 10.1152C6.47696 10.197 6.62441 10.4772 6.54256 10.7409L5.23962 14.9393C5.15777 15.203 4.87762 15.3505 4.61389 15.2686C4.35016 15.1868 4.20271 14.9066 4.28456 14.6429L5.58749 10.4445C5.66934 10.1808 5.94949 10.0333 6.21322 10.1152Z" fill="black"/>
<path d="M4.75864 5.83338C5.23888 4.47466 6.53465 3.5 8.05935 3.5C9.99235 3.5 11.5594 5.067 11.5594 7C11.5594 7.27614 11.3355 7.5 11.0594 7.5C10.7832 7.5 10.5594 7.27614 10.5594 7C10.5594 5.61929 9.44006 4.5 8.05935 4.5C6.97162 4.5 6.04491 5.19496 5.70148 6.16662C5.60945 6.42698 5.32379 6.56344 5.06344 6.47142C4.80308 6.3794 4.66661 6.09373 4.75864 5.83338ZM5.05923 7.5024C5.33405 7.52942 5.53493 7.77411 5.50791 8.04892C5.4403 8.73661 5.30627 9.41698 5.10724 10.0804L3.88566 14.1524C3.80631 14.4169 3.52757 14.567 3.26307 14.4876C2.99857 14.4083 2.84848 14.1295 2.92783 13.865L4.14942 9.79307C4.32988 9.19152 4.45141 8.57462 4.51271 7.95108C4.53973 7.67626 4.78442 7.47538 5.05923 7.5024ZM11.0594 8.15C11.3355 8.15 11.5594 8.37386 11.5594 8.65C11.5594 9.9304 11.3455 11.2018 10.9267 12.4118L9.83779 15.5575C9.74746 15.8184 9.46269 15.9568 9.20174 15.8664C8.94079 15.7761 8.80247 15.4913 8.8928 15.2304L9.98171 12.0847C10.3641 10.9799 10.5594 9.81907 10.5594 8.65C10.5594 8.37386 10.7832 8.15 11.0594 8.15Z" fill="black"/>
<path d="M3.90158 4.22187C4.79769 2.88315 6.32527 2 8.05931 2C8.41705 2 8.76656 2.03765 9.10388 2.10938C9.37399 2.16682 9.54639 2.43235 9.48895 2.70245C9.43151 2.97255 9.16599 3.14495 8.89588 3.08751C8.62652 3.03023 8.34672 3 8.05931 3C6.67293 3 5.45099 3.70488 4.73259 4.77813C4.57898 5.00761 4.26843 5.06911 4.03895 4.9155C3.80948 4.7619 3.74797 4.45135 3.90158 4.22187ZM10.6215 3.26669C10.8021 3.05774 11.1178 3.03471 11.3268 3.21524C12.3871 4.13135 13.0593 5.48745 13.0593 7V8.5C13.0593 8.77614 12.8354 9 12.5593 9C12.2832 9 12.0593 8.77614 12.0593 8.5V7C12.0593 5.79015 11.5228 4.70617 10.673 3.97192C10.464 3.79139 10.441 3.47564 10.6215 3.26669ZM3.68083 5.84243C3.95401 5.88276 4.14277 6.13692 4.10243 6.4101C4.07405 6.60234 4.05931 6.7993 4.05931 7C4.05931 7.7105 3.95876 8.41742 3.76067 9.09975L2.62172 13.0228C2.54473 13.288 2.26733 13.4406 2.00214 13.3636C1.73695 13.2866 1.58438 13.0092 1.66137 12.744L2.80032 8.82094C2.97212 8.22922 3.05931 7.61616 3.05931 7C3.05931 6.75025 3.07766 6.50448 3.11316 6.26403C3.15349 5.99085 3.40765 5.80209 3.68083 5.84243ZM12.5626 9.50175C12.8378 9.52484 13.0421 9.76663 13.019 10.0418C12.9351 11.0421 12.7205 12.0285 12.3795 12.9756L11.6347 15.0445C11.5412 15.3043 11.2547 15.4391 10.9949 15.3456C10.7351 15.252 10.6003 14.9656 10.6938 14.7058L11.4386 12.6369C11.7499 11.7721 11.9459 10.8715 12.0225 9.9582C12.0456 9.68302 12.2874 9.47866 12.5626 9.50175Z" fill="black"/>
<path d="M4.80897 1.36988C5.76554 0.816541 6.87622 0.5 8.05932 0.5C11.6492 0.5 14.5593 3.41015 14.5593 7C14.5593 7.27614 14.3355 7.5 14.0593 7.5C13.7832 7.5 13.5593 7.27614 13.5593 7C13.5593 3.96243 11.0969 1.5 8.05932 1.5C7.05671 1.5 6.11816 1.76782 5.30969 2.23549C5.07066 2.37376 4.7648 2.29208 4.62653 2.05305C4.48826 1.81402 4.56994 1.50816 4.80897 1.36988ZM3.92057 2.62743C4.12633 2.8116 4.14384 3.12769 3.95968 3.33346C3.08847 4.30684 2.55932 5.59103 2.55932 7C2.55932 7.27614 2.33547 7.5 2.05932 7.5C1.78318 7.5 1.55932 7.27614 1.55932 7C1.55932 5.33555 2.18559 3.81618 3.21454 2.66654C3.39871 2.46078 3.7148 2.44327 3.92057 2.62743ZM1.91345 8.01867C2.17927 8.09344 2.33416 8.36954 2.2594 8.63537L1.48121 11.4023C1.40644 11.6681 1.13034 11.823 0.864511 11.7482C0.598682 11.6735 0.443794 11.3974 0.518558 11.1315L1.29675 8.36463C1.37151 8.0988 1.64762 7.94391 1.91345 8.01867ZM14.0634 8.5001C14.3394 8.5055 14.5589 8.7337 14.5535 9.00979C14.5241 10.5089 14.3928 12.0347 13.8271 13.5432L13.7572 13.7297C13.6602 13.9882 13.372 14.1192 13.1135 14.0223C12.8549 13.9253 12.7239 13.6371 12.8209 13.3785L12.8908 13.1921C13.3969 11.8425 13.5251 10.4511 13.5537 8.99021C13.5591 8.71412 13.7873 8.49469 14.0634 8.5001Z" fill="black"/>
</svg>
