<svg width="16" height="16" viewBox="0 0 16 16" fill="none" xmlns="http://www.w3.org/2000/svg">
<path d="M14.7785 0.0847436C14.9169 0.177588 15 0.333313 15 0.5V8C15 8.20445 14.8755 8.38831 14.6857 8.46424L14.5 8C14.6857 8.46424 14.6858 8.46421 14.6857 8.46424L14.6831 8.46527L14.6769 8.46772L14.6541 8.47672C14.6343 8.48447 14.6056 8.49567 14.5687 8.50981C14.495 8.53808 14.3887 8.57817 14.2568 8.62615C13.9932 8.72199 13.6257 8.84984 13.2095 8.97789C12.3942 9.22877 11.3315 9.5 10.5 9.5C9.65328 9.5 8.95165 9.21926 8.34216 8.97538L8.3143 8.96424C7.68026 8.71062 7.14035 8.5 6.5 8.5C5.79985 8.5 4.86158 8.72926 4.06255 8.97749C3.67071 9.09922 3.32585 9.22114 3.07909 9.31259C3.05145 9.32283 3.02506 9.33268 3 9.3421V15.5C3 15.7761 2.77614 16 2.5 16C2.22386 16 2 15.7761 2 15.5V0.5C2 0.223858 2.22386 0 2.5 0C2.77614 0 3 0.223858 3 0.5V0.782252C3.22611 0.703141 3.49612 0.612675 3.79046 0.522111C4.60582 0.27123 5.66852 0 6.5 0C7.34075 0 8.0239 0.276927 8.62097 0.518963C8.6355 0.524854 8.64999 0.530725 8.66442 0.53657C9.28584 0.788264 9.82781 1 10.5 1C11.2002 1 12.1384 0.770738 12.9374 0.522511C13.3293 0.40078 13.6742 0.278864 13.9209 0.187412C14.0441 0.141742 14.1425 0.103813 14.2096 0.0774948C14.2432 0.0643394 14.2689 0.0540962 14.2859 0.0472503L14.3049 0.0395938L14.3093 0.0377929L14.3102 0.0374047M14 1.22243C13.7804 1.30036 13.5193 1.38888 13.2341 1.47749C12.4237 1.72926 11.3619 2 10.5 2C9.61374 2 8.90788 1.7141 8.29657 1.46649L8.28901 1.46343C7.66189 1.20943 7.13878 1 6.5 1C5.83148 1 4.89418 1.22877 4.08454 1.47789C3.68821 1.59984 3.337 1.72199 3.08493 1.81365C3.05519 1.82446 3.02685 1.83485 3 1.84475V8.27757C3.2196 8.19964 3.48065 8.11112 3.76588 8.02251C4.57632 7.77074 5.63806 7.5 6.5 7.5C7.34672 7.5 8.04835 7.78074 8.65784 8.02462L8.6857 8.03576C9.31974 8.28938 9.85965 8.5 10.5 8.5C11.1685 8.5 12.1058 8.27123 12.9155 8.02211C13.3118 7.90016 13.663 7.77801 13.9151 7.68635C13.9448 7.67554 13.9732 7.66515 14 7.65525V1.22243Z" fill="black"/>
</svg>
