<svg width="16" height="16" viewBox="0 0 16 16" fill="none" xmlns="http://www.w3.org/2000/svg">
<path d="M0 1.5C0 0.671573 0.671573 0 1.5 0H3V5.5C3 6.32843 3.67157 7 4.5 7H11.5C12.3284 7 13 6.32843 13 5.5V0H13.0858C13.4836 0 13.8651 0.158035 14.1464 0.43934L15.5607 1.85355C15.842 2.13486 16 2.51639 16 2.91421V14.5C16 15.3284 15.3284 16 14.5 16H14V10.5C14 9.67157 13.3284 9 12.5 9H3.5C2.67157 9 2 9.67157 2 10.5V16H1.5C0.671573 16 0 15.3284 0 14.5V1.5Z" fill="black"/>
<path d="M3 16H13V10.5C13 10.2239 12.7761 10 12.5 10H3.5C3.22386 10 3 10.2239 3 10.5V16Z" fill="black"/>
<path d="M12 0H4V5.5C4 5.77614 4.22386 6 4.5 6H11.5C11.7761 6 12 5.77614 12 5.5V0ZM9 1H11V5H9V1Z" fill="black"/>
</svg>
