<svg width="16" height="16" viewBox="0 0 16 16" fill="none" xmlns="http://www.w3.org/2000/svg">
<path d="M11 2H9V5H11V2Z" fill="black"/>
<path d="M1.5 0H13.0858C13.4836 0 13.8651 0.158035 14.1464 0.43934L15.5607 1.85355C15.842 2.13486 16 2.51639 16 2.91421V14.5C16 15.3284 15.3284 16 14.5 16H1.5C0.671573 16 0 15.3284 0 14.5V1.5C0 0.671573 0.671573 0 1.5 0ZM1 1.5V14.5C1 14.7761 1.22386 15 1.5 15H2V10.5C2 9.67157 2.67157 9 3.5 9H12.5C13.3284 9 14 9.67157 14 10.5V15H14.5C14.7761 15 15 14.7761 15 14.5V2.91421C15 2.78161 14.9473 2.65443 14.8536 2.56066L13.4393 1.14645C13.3456 1.05268 13.2184 1 13.0858 1H13V5.5C13 6.32843 12.3284 7 11.5 7H4.5C3.67157 7 3 6.32843 3 5.5V1H1.5C1.22386 1 1 1.22386 1 1.5ZM4 5.5C4 5.77614 4.22386 6 4.5 6H11.5C11.7761 6 12 5.77614 12 5.5V1H4V5.5ZM3 15H13V10.5C13 10.2239 12.7761 10 12.5 10H3.5C3.22386 10 3 10.2239 3 10.5V15Z" fill="black"/>
</svg>
