<svg width="16" height="16" viewBox="0 0 16 16" fill="none" xmlns="http://www.w3.org/2000/svg">
<path d="M12 2H10V5H12V2Z" fill="black"/>
<path d="M1.5 0C0.671573 0 0 0.671573 0 1.5V14.5C0 15.3284 0.671573 16 1.5 16H14.5C15.3284 16 16 15.3284 16 14.5V2.91421C16 2.51639 15.842 2.13486 15.5607 1.85355L14.1464 0.43934C13.8651 0.158035 13.4836 0 13.0858 0H1.5ZM4 6C3.44772 6 3 5.55228 3 5V1H13V5C13 5.55229 12.5523 6 12 6H4ZM3 9H13C13.5523 9 14 9.44771 14 10V15H2V10C2 9.44772 2.44772 9 3 9Z" fill="black"/>
</svg>
