<svg width="16" height="16" viewBox="0 0 16 16" fill="none" xmlns="http://www.w3.org/2000/svg">
<path d="M8 16C10.2091 16 12 14.2091 12 12C14.2091 12 16 10.2091 16 8C16 5.79086 14.2091 4 12 4C12 1.79086 10.2091 0 8 0C5.79086 0 4 1.79086 4 4C1.79086 4 0 5.79086 0 8C0 10.2091 1.79086 12 4 12C4 14.2091 5.79086 16 8 16ZM11 4C11 4.07314 10.9903 4.15547 10.9695 4.24678C10.4262 4.48849 9.87902 4.88477 9.37182 5.33132C8.96069 5.11955 8.49431 5 8 5C7.50569 5 7.0393 5.11955 6.62818 5.33132C6.12097 4.88477 5.57376 4.48849 5.03052 4.24678C5.0097 4.15547 5 4.07314 5 4C5 2.34315 6.34315 1 8 1C9.65685 1 11 2.34315 11 4ZM10.1883 10.0522C10.6917 9.5156 11 8.7938 11 8C11 7.2062 10.6917 6.4844 10.1883 5.94783C10.403 5.76709 10.62 5.60223 10.8348 5.46143C11.3399 5.13051 11.7317 5 12 5C13.6569 5 15 6.34315 15 8C15 9.65685 13.6569 11 12 11C11.7317 11 11.3399 10.8695 10.8348 10.5386C10.62 10.3978 10.403 10.2329 10.1883 10.0522ZM6.62818 10.6687C7.03931 10.8804 7.50569 11 8 11C8.49431 11 8.96069 10.8804 9.37182 10.6687C9.87902 11.1152 10.4262 11.5115 10.9695 11.7532C10.9903 11.8445 11 11.9269 11 12C11 13.6569 9.65685 15 8 15C6.34315 15 5 13.6569 5 12C5 11.9269 5.0097 11.8445 5.03052 11.7532C5.57376 11.5115 6.12097 11.1152 6.62818 10.6687ZM5.81171 5.94782C5.30831 6.4844 5 7.2062 5 8C5 8.7938 5.30831 9.5156 5.81171 10.0522C5.59696 10.2329 5.38003 10.3978 5.16516 10.5386C4.66012 10.8695 4.26826 11 4 11C2.34315 11 1 9.65685 1 8C1 6.34315 2.34315 5 4 5C4.26826 5 4.66012 5.13051 5.16516 5.46143C5.38003 5.60222 5.59696 5.76709 5.81171 5.94782ZM8 9C7.44772 9 7 8.55229 7 8C7 7.44772 7.44772 7 8 7C8.55229 7 9 7.44772 9 8C9 8.55229 8.55229 9 8 9Z" fill="black"/>
</svg>
