<svg width="16" height="16" viewBox="0 0 16 16" fill="none" xmlns="http://www.w3.org/2000/svg">
<path d="M6.1736 1.18377C6.48587 0.486087 7.18617 0 8 0C8.81383 0 9.51413 0.486087 9.8264 1.18377C10.4457 0.735698 11.2952 0.664885 12 1.0718C12.7048 1.47871 13.0682 2.24983 12.9898 3.01017C13.7502 2.93174 14.5213 3.29518 14.9283 4C15.3352 4.7048 15.2644 5.55434 14.8163 6.17362C15.5139 6.4859 16 7.18618 16 8C16 8.81383 15.5139 9.51412 14.8162 9.8264C15.2644 10.4457 15.3352 11.2952 14.9283 12.0001C14.5213 12.7049 13.7502 13.0683 12.9898 12.9899C13.0682 13.7502 12.7048 14.5213 12 14.9282C11.2952 15.3351 10.4457 15.2643 9.82641 14.8162C9.51413 15.5139 8.81383 16 8 16C7.18617 16 6.48587 15.5139 6.17359 14.8162C5.55432 15.2643 4.70479 15.3351 4 14.9282C3.29519 14.5213 2.93176 13.7502 3.01017 12.9898C2.2498 13.0682 1.47866 12.7048 1.07174 12C0.664819 11.2952 0.735639 10.4457 1.18372 9.82638C0.486066 9.5141 0 8.81381 0 8C0 7.18617 0.486084 6.48587 1.18376 6.1736C0.735643 5.55432 0.664807 4.70476 1.07174 3.99993C1.47866 3.29512 2.24981 2.93168 3.01017 3.01011C2.93179 2.24978 3.29523 1.4787 4.00001 1.0718C4.7048 0.664884 5.55432 0.735698 6.1736 1.18377ZM8 1C7.44772 1 7 1.4477 7 1.99998C7 1.99998 7.00027 2.01092 7.00198 2.03069C7.00391 2.0529 7.00726 2.08271 7.01266 2.12098C7.02355 2.19822 7.04092 2.2968 7.06559 2.41719C7.11498 2.65826 7.18789 2.95903 7.27918 3.30374C7.46145 3.99202 7.70674 4.81725 7.95511 5.61795L8 5.76231L8.04489 5.61795C8.29326 4.81725 8.53855 3.99202 8.72082 3.30374C8.81211 2.95903 8.88502 2.65826 8.93441 2.41719C8.95908 2.2968 8.97644 2.19822 8.98734 2.12098C8.99274 2.08271 8.99609 2.0529 8.99802 2.03069C8.99974 2.01088 9 2 9 2C9 1.44772 8.55228 1 8 1ZM2 9C2 9 2.01088 8.99974 2.03069 8.99802C2.0529 8.99609 2.08271 8.99274 2.12098 8.98734C2.19822 8.97645 2.2968 8.95908 2.41719 8.93441C2.65826 8.88502 2.95903 8.81211 3.30374 8.72082C3.99202 8.53855 4.81725 8.29326 5.61795 8.04489L5.76231 8L5.61795 7.95511C4.81725 7.70674 3.99202 7.46145 3.30374 7.27918C2.95903 7.18789 2.65826 7.11498 2.41719 7.06559C2.2968 7.04092 2.19822 7.02355 2.12098 7.01266C2.08271 7.00726 2.0529 7.00391 2.03069 7.00198C2.01092 7.00026 1.99983 7 1.99983 7C1.44755 7 1 7.44771 1 8C1 8.55228 1.44772 9 2 9ZM9 14C9 14 8.99974 13.9891 8.99802 13.9693C8.99609 13.9471 8.99274 13.9173 8.98734 13.879C8.97644 13.8018 8.95908 13.7032 8.93441 13.5828C8.88502 13.3417 8.81211 13.041 8.72082 12.6963C8.53855 12.008 8.29326 11.1827 8.04489 10.382L8 10.2377L7.95511 10.382C7.70674 11.1827 7.46145 12.008 7.27918 12.6963C7.18789 13.041 7.11498 13.3417 7.06559 13.5828C7.04092 13.7032 7.02355 13.8018 7.01266 13.879C7.00726 13.9173 7.00391 13.9471 7.00198 13.9693C7.00027 13.9891 7 14.0002 7 14.0002C7 14.5525 7.44772 15 8 15C8.55228 15 9 14.5523 9 14ZM3.30379 11.866C3.30379 11.866 3.3131 11.8603 3.32938 11.849C3.34764 11.8362 3.37179 11.8184 3.40223 11.7946C3.46368 11.7465 3.54037 11.6822 3.6323 11.6006C3.81637 11.4373 4.04039 11.2238 4.29328 10.9724C4.79821 10.4704 5.39023 9.84534 5.95947 9.2299L6.06205 9.11884L5.91458 9.15214C5.09697 9.3374 4.25965 9.53758 3.57245 9.72387C3.22828 9.81717 2.93135 9.90441 2.69788 9.98217C2.58128 10.021 2.48723 10.0553 2.41489 10.0844C2.37905 10.0989 2.35155 10.1109 2.33136 10.1203C2.31352 10.1287 2.30364 10.1341 2.30364 10.1341C1.82535 10.4102 1.66162 11.0217 1.93776 11.5C2.21391 11.9783 2.8255 12.1422 3.30379 11.866ZM4.5 14.0622C4.97829 14.3383 5.58988 14.1744 5.86602 13.6961C5.86602 13.6961 5.87129 13.6865 5.87965 13.6686C5.88908 13.6484 5.90109 13.6209 5.91554 13.5851C5.94473 13.5127 5.97898 13.4187 6.01782 13.3021C6.09558 13.0686 6.18282 12.7717 6.27612 12.4275C6.46241 11.7403 6.66259 10.903 6.84785 10.0854L6.88115 9.93789L6.77009 10.0405C6.15465 10.6097 5.52961 11.2017 5.02762 11.7067C4.7762 11.9595 4.56267 12.1836 4.39937 12.3676C4.31781 12.4596 4.25348 12.5363 4.20542 12.5977C4.18161 12.6282 4.16381 12.6523 4.15103 12.6706C4.13878 12.6881 4.13389 12.6963 4.13389 12.6963C3.85774 13.1746 4.0217 13.786 4.5 14.0622ZM13.6962 5.86602C14.1745 5.58988 14.3384 4.97829 14.0622 4.5C13.7861 4.0217 13.1747 3.85774 12.6964 4.13389C12.6964 4.13389 12.6869 4.13966 12.6706 4.15103C12.6524 4.16381 12.6282 4.18161 12.5978 4.20542C12.5363 4.25348 12.4596 4.31781 12.3677 4.39937C12.1836 4.56267 11.9596 4.7762 11.7067 5.02762C11.2018 5.52961 10.6098 6.15465 10.0405 6.77009L9.93795 6.88115L10.0854 6.84785C10.903 6.66259 11.7403 6.46241 12.4275 6.27612C12.7717 6.18282 13.0687 6.09558 13.3021 6.01782C13.4187 5.97898 13.5128 5.94473 13.5851 5.91555C13.621 5.90109 13.6484 5.88908 13.6686 5.87965C13.6866 5.87127 13.6962 5.86602 13.6962 5.86602ZM11.5 1.93782C11.0217 1.66168 10.4102 1.82541 10.1341 2.3037C10.1341 2.3037 10.1294 2.31205 10.1203 2.33142C10.1109 2.35162 10.0989 2.37911 10.0844 2.41495C10.0553 2.48729 10.021 2.58135 9.98217 2.69794C9.90441 2.93141 9.81717 3.22834 9.72387 3.57251C9.53759 4.25972 9.3374 5.09703 9.15214 5.91464L9.11884 6.06211L9.2299 5.95953C9.84534 5.39029 10.4704 4.79827 10.9724 4.29334C11.2238 4.04045 11.4373 3.81643 11.6006 3.63236C11.6822 3.54043 11.7465 3.46374 11.7946 3.40229C11.8184 3.37185 11.8362 3.3477 11.849 3.32944C11.8612 3.31191 11.866 3.30385 11.866 3.30385C12.1422 2.82556 11.9783 2.21397 11.5 1.93782ZM14 9C14.5523 9 15 8.55228 15 8C15 7.44772 14.5525 7 14.0002 7C14.0002 7 13.9906 7.00013 13.9693 7.00198C13.9471 7.00391 13.9173 7.00726 13.879 7.01266C13.8018 7.02355 13.7032 7.04092 13.5828 7.06559C13.3417 7.11498 13.041 7.18789 12.6963 7.27918C12.008 7.46145 11.1827 7.70674 10.382 7.95511L10.2377 8L10.382 8.04489C11.1827 8.29326 12.008 8.53855 12.6963 8.72082C13.041 8.81211 13.3417 8.88502 13.5828 8.93441C13.7032 8.95908 13.8018 8.97645 13.879 8.98734C13.9173 8.99274 13.9471 8.99609 13.9693 8.99802C13.9891 8.99974 14 9 14 9ZM1.93776 4.49993C1.66162 4.97823 1.8255 5.58982 2.30379 5.86596C2.30379 5.86596 2.31339 5.8712 2.33136 5.87959C2.35155 5.88902 2.37905 5.90102 2.41489 5.91548C2.48723 5.94467 2.58128 5.97892 2.69788 6.01776C2.93135 6.09552 3.22828 6.18276 3.57245 6.27606C4.25965 6.46234 5.09697 6.66253 5.91458 6.84779L6.06205 6.88109L5.95947 6.77003C5.39023 6.15459 4.79821 5.52954 4.29328 5.02756C4.04039 4.77614 3.81637 4.56261 3.6323 4.39931C3.54037 4.31775 3.46368 4.25342 3.40223 4.20536C3.37179 4.18155 3.34764 4.16374 3.32938 4.15097C3.31312 4.1396 3.30377 4.1339 3.30377 4.1339C2.82548 3.85776 2.21391 4.02164 1.93776 4.49993ZM4.13398 3.30385C4.13398 3.30385 4.13968 3.31319 4.15104 3.32944C4.16382 3.3477 4.18162 3.37185 4.20543 3.40229C4.25349 3.46374 4.31782 3.54043 4.39938 3.63236C4.56269 3.81643 4.77621 4.04045 5.02763 4.29334C5.52962 4.79827 6.15466 5.39029 6.7701 5.95953L6.88116 6.06211L6.84786 5.91464C6.6626 5.09703 6.46242 4.25972 6.27613 3.57251C6.18283 3.22834 6.09559 2.93141 6.01783 2.69794C5.97899 2.58135 5.94474 2.48729 5.91556 2.41495C5.9011 2.37911 5.88909 2.35162 5.87966 2.33142C5.87128 2.31348 5.86595 2.3037 5.86595 2.3037C5.5898 1.82541 4.9783 1.66168 4.50001 1.93782C4.02171 2.21397 3.85784 2.82556 4.13398 3.30385ZM14.0622 11.5001C14.3384 11.0218 14.1745 10.4102 13.6962 10.134C13.6962 10.134 13.6866 10.1288 13.6686 10.1204C13.6484 10.111 13.621 10.099 13.5851 10.0845C13.5128 10.0553 13.4187 10.0211 13.3021 9.98223C13.0687 9.90447 12.7717 9.81723 12.4275 9.72393C11.7403 9.53765 10.903 9.33746 10.0854 9.1522L9.93795 9.1189L10.0405 9.22996C10.6098 9.8454 11.2018 10.4704 11.7067 10.9724C11.9596 11.2238 12.1836 11.4374 12.3677 11.6007C12.4596 11.6822 12.5363 11.7466 12.5978 11.7946C12.6282 11.8184 12.6524 11.8362 12.6706 11.849C12.6868 11.8603 12.6962 11.8661 12.6962 11.8661C13.1745 12.1422 13.7861 11.9783 14.0622 11.5001ZM10.134 13.6961C10.4101 14.1744 11.0217 14.3383 11.5 14.0622C11.9783 13.786 12.1423 13.1746 11.8661 12.6963C11.8661 12.6963 11.8604 12.6869 11.849 12.6706C11.8362 12.6523 11.8184 12.6282 11.7946 12.5977C11.7465 12.5363 11.6822 12.4596 11.6006 12.3676C11.4373 12.1836 11.2238 11.9595 10.9724 11.7067C10.4704 11.2017 9.84535 10.6097 9.22991 10.0405L9.11885 9.93789L9.15215 10.0854C9.33741 10.903 9.53759 11.7403 9.72388 12.4275C9.81718 12.7717 9.90442 13.0686 9.98218 13.3021C10.021 13.4187 10.0553 13.5127 10.0845 13.5851C10.0989 13.6209 10.1109 13.6484 10.1203 13.6686C10.1288 13.6866 10.134 13.6961 10.134 13.6961ZM8 9.5C8.82843 9.5 9.5 8.82843 9.5 8C9.5 7.17157 8.82843 6.5 8 6.5C7.17157 6.5 6.5 7.17157 6.5 8C6.5 8.82843 7.17157 9.5 8 9.5Z" fill="black"/>
</svg>
