<svg width="16" height="16" viewBox="0 0 16 16" fill="none" xmlns="http://www.w3.org/2000/svg">
<path d="M11.4237 8C11.8611 7.94828 12.2355 7.86406 12.4642 7.73205C13.4208 7.17976 13.7485 5.95658 13.1962 5C12.6439 4.04341 11.4208 3.71566 10.4642 4.26794C10.2355 4.39996 9.97539 4.68211 9.71188 5.03507C9.8858 4.63039 10.0001 4.26403 10.0001 4C10.0001 2.89543 9.10465 2 8.00008 2C6.89551 2 6.00008 2.89543 6.00008 4C6.00008 4.26403 6.11436 4.63039 6.28828 5.03507C6.02477 4.68211 5.76464 4.39996 5.53598 4.26794C4.57939 3.71566 3.35621 4.04341 2.80393 4.99999C2.25164 5.95658 2.57939 7.17976 3.53598 7.73205C3.76464 7.86406 4.13906 7.94828 4.57649 8C4.13906 8.05172 3.76464 8.13593 3.53598 8.26794C2.57939 8.82023 2.25164 10.0434 2.80393 11C3.35621 11.9566 4.57939 12.2843 5.53598 11.732C5.76464 11.6 6.02478 11.3179 6.28829 10.9649C6.11436 11.3696 6.00008 11.736 6.00008 12C6.00008 13.1046 6.89551 14 8.00008 14C9.10465 14 10.0001 13.1046 10.0001 12C10.0001 11.736 9.8858 11.3696 9.71187 10.9649C9.97538 11.3179 10.2355 11.6 10.4642 11.732C11.4208 12.2843 12.6439 11.9566 13.1962 11C13.7485 10.0434 13.4208 8.82023 12.4642 8.26794C12.2355 8.13593 11.8611 8.05172 11.4237 8ZM9.00008 4C8.99996 4.00226 8.99908 4.01826 8.99325 4.05085C8.98642 4.08902 8.97448 4.14022 8.95521 4.20536C8.91621 4.33722 8.85513 4.49965 8.77204 4.68876C8.60567 5.06743 8.37608 5.49699 8.13508 5.91243C8.09 5.99016 8.04486 6.06679 8.00008 6.14185C7.9553 6.06679 7.91016 5.99016 7.86508 5.91243C7.62408 5.49699 7.39449 5.06743 7.22812 4.68876C7.14504 4.49965 7.08395 4.33722 7.04495 4.20536C7.02568 4.14022 7.01374 4.08902 7.00691 4.05085C7.00108 4.01826 7.00021 4.00175 7.00008 3.99941C7.00008 3.44713 7.4478 3 8.00008 3C8.55237 3 9.00008 3.44772 9.00008 4ZM3.66995 5.49999C3.9461 5.0217 4.55743 4.8577 5.03572 5.13384C5.03555 5.13373 5.03572 5.13384 5.03572 5.13384C5.03768 5.13512 5.0513 5.14397 5.0766 5.16531C5.10624 5.19031 5.14461 5.22625 5.19139 5.27551C5.28608 5.37521 5.39621 5.50933 5.51844 5.67584C5.7632 6.00925 6.02041 6.42286 6.2597 6.83929C6.30446 6.9172 6.34826 6.99461 6.39088 7.07092C6.30348 7.07217 6.21454 7.07294 6.12469 7.07313C5.64441 7.07412 5.15761 7.05817 4.74648 7.01291C4.54117 6.99031 4.36995 6.962 4.23626 6.92984C4.17021 6.91396 4.1199 6.8987 4.08343 6.88553C4.05232 6.87429 4.03802 6.86705 4.03598 6.86602C4.0358 6.86593 4.03598 6.86602 4.03598 6.86602C3.55769 6.58988 3.39381 5.97829 3.66995 5.49999ZM5.03598 10.866C4.55769 11.1422 3.9461 10.9783 3.66995 10.5C3.39381 10.0217 3.55718 9.41041 4.03547 9.13426C4.03759 9.13319 4.05234 9.12569 4.08343 9.11446C4.1199 9.10129 4.17021 9.08603 4.23626 9.07014C4.36995 9.03799 4.54117 9.00968 4.74648 8.98708C5.15761 8.94182 5.64441 8.92587 6.12469 8.92686C6.21454 8.92705 6.30348 8.92782 6.39088 8.92907C6.34826 9.00538 6.30446 9.08279 6.2597 9.1607C6.02041 9.57713 5.7632 9.99074 5.51844 10.3242C5.39621 10.4907 5.28608 10.6248 5.19139 10.7245C5.14461 10.7737 5.10624 10.8097 5.0766 10.8347C5.0513 10.856 5.03788 10.8648 5.03598 10.866C5.03598 10.866 5.03582 10.8661 5.03598 10.866ZM9.00008 12C9.00008 12.5523 8.55237 13 8.00008 13C7.4478 13 7.00008 12.5529 7.00008 12.0006C7.00021 11.9983 7.00108 11.9817 7.00691 11.9492C7.01374 11.911 7.02568 11.8598 7.04495 11.7946C7.08395 11.6628 7.14504 11.5004 7.22812 11.3112C7.39449 10.9326 7.62408 10.503 7.86508 10.0876C7.91016 10.0098 7.9553 9.93321 8.00008 9.85815C8.04486 9.93321 8.09 10.0098 8.13508 10.0876C8.37608 10.503 8.60567 10.9326 8.77204 11.3112C8.85513 11.5004 8.91621 11.6628 8.95521 11.7946C8.97448 11.8598 8.98642 11.911 8.99325 11.9492C8.99908 11.9817 8.99996 11.9977 9.00008 12ZM12.3302 5.5C12.6063 5.97829 12.4425 6.58988 11.9642 6.86602C11.9642 6.86602 11.9644 6.86593 11.9642 6.86602C11.9622 6.86705 11.9478 6.87429 11.9167 6.88553C11.8803 6.8987 11.8299 6.91396 11.7639 6.92985C11.6302 6.962 11.459 6.99031 11.2537 7.01291C10.8426 7.05817 10.3558 7.07412 9.87547 7.07313C9.78562 7.07295 9.69668 7.07217 9.60928 7.07092C9.6519 6.99461 9.6957 6.9172 9.74046 6.8393C9.97975 6.42286 10.237 6.00925 10.4817 5.67584C10.604 5.50933 10.7141 5.37521 10.8088 5.27551C10.8555 5.22625 10.8939 5.19031 10.9236 5.16531C10.9489 5.14396 10.9625 5.13511 10.9644 5.13384C11.4427 4.8577 12.0541 5.0217 12.3302 5.5ZM10.9642 10.866C10.9623 10.8648 10.9489 10.856 10.9236 10.8347C10.8939 10.8097 10.8555 10.7737 10.8088 10.7245C10.7141 10.6248 10.6039 10.4907 10.4817 10.3242C10.237 9.99074 9.97975 9.57713 9.74046 9.1607C9.6957 9.08279 9.6519 9.00538 9.60928 8.92907C9.69668 8.92782 9.78562 8.92705 9.87547 8.92686C10.3558 8.92587 10.8426 8.94182 11.2537 8.98708C11.459 9.00968 11.6302 9.03799 11.7639 9.07014C11.8299 9.08603 11.8803 9.10129 11.9167 9.11446C11.9479 9.12571 11.9626 9.1332 11.9647 9.13426C12.443 9.41041 12.6063 10.0217 12.3302 10.5C12.0541 10.9783 11.4425 11.1422 10.9642 10.866ZM8.00012 9C7.44784 9 7.00012 8.55229 7.00012 8C7.00012 7.44772 7.44784 7 8.00012 7C8.55241 7 9.00012 7.44772 9.00012 8C9.00012 8.55229 8.55241 9 8.00012 9Z" fill="black"/>
</svg>
