<svg width="16" height="16" viewBox="0 0 16 16" fill="none" xmlns="http://www.w3.org/2000/svg">
<path d="M0.539587 3.87024L0.500031 3C0.500031 1.89543 1.39546 1 2.50003 1H6.1716C6.70204 1 7.21074 1.21071 7.58582 1.58579L8.41424 2.41421C8.78932 2.78929 9.29803 3 9.82846 3H13.81C14.986 3 15.9082 4.00984 15.8018 5.18107L15.5455 8H14.5414L14.8059 5.09054C14.8591 4.50492 14.398 4 13.81 4H2.1901C1.60207 4 1.14097 4.50492 1.19421 5.09054L1.83057 12.0905C1.8774 12.6056 2.30926 13 2.82647 13H9.00003V14H2.82647C1.79206 14 0.928332 13.2112 0.834681 12.1811L0.198318 5.18107C0.154263 4.69647 0.286313 4.23949 0.539587 3.87024ZM6.87871 2.29289C6.69117 2.10536 6.43682 2 6.1716 2H2.50003C1.95405 2 1.51027 2.43755 1.50021 2.98112L1.5065 3.11964C1.7193 3.04231 1.94939 3 2.1901 3H7.58582L6.87871 2.29289Z" fill="black"/>
<path d="M11.8536 10.1464C11.6583 9.95118 11.3417 9.95118 11.1465 10.1464C10.9512 10.3417 10.9512 10.6583 11.1465 10.8536L12.2929 12L11.1465 13.1464C10.9512 13.3417 10.9512 13.6583 11.1465 13.8536C11.3417 14.0488 11.6583 14.0488 11.8536 13.8536L13 12.7071L14.1465 13.8536C14.3417 14.0488 14.6583 14.0488 14.8536 13.8536C15.0488 13.6583 15.0488 13.3417 14.8536 13.1464L13.7071 12L14.8536 10.8536C15.0488 10.6583 15.0488 10.3417 14.8536 10.1464C14.6583 9.95118 14.3417 9.95118 14.1465 10.1464L13 11.2929L11.8536 10.1464Z" fill="black"/>
</svg>
