<svg width="16" height="16" viewBox="0 0 16 16" fill="none" xmlns="http://www.w3.org/2000/svg">
<path d="M11.7982 8.27133L8.61643 10.2402C8.34628 10.4073 8.00003 10.2052 8.00003 9.86885V9.1C8.00003 9.1 5.4286 8.8 4.00003 11.5C4.57146 6.7 7.14289 6.7 8.00003 6.7V5.93115C8.00003 5.59483 8.34628 5.39265 8.61643 5.55981L11.7982 7.52867C12.0673 7.69515 12.0673 8.10485 11.7982 8.27133Z" fill="black"/>
<path d="M0.500031 3L0.539587 3.87024C0.286313 4.23949 0.154263 4.69647 0.198318 5.18107L0.834681 12.1811C0.928332 13.2112 1.79206 14 2.82647 14H13.1736C14.208 14 15.0717 13.2112 15.1654 12.1811L15.8018 5.18107C15.9082 4.00984 14.986 3 13.81 3H9.82846C9.29803 3 8.78932 2.78929 8.41424 2.41421L7.58582 1.58579C7.21074 1.21071 6.70204 1 6.1716 1H2.50003C1.39546 1 0.500031 1.89543 0.500031 3ZM1.19421 5.09054C1.14097 4.50492 1.60207 4 2.1901 4H13.81C14.398 4 14.8591 4.50492 14.8059 5.09054L14.1695 12.0905C14.1227 12.6056 13.6908 13 13.1736 13H2.82647C2.30926 13 1.8774 12.6056 1.83057 12.0905L1.19421 5.09054ZM6.1716 2C6.43682 2 6.69117 2.10536 6.87871 2.29289L7.58582 3H2.1901C1.94939 3 1.7193 3.04231 1.5065 3.11964L1.50021 2.98112C1.51027 2.43755 1.95405 2 2.50003 2H6.1716Z" fill="black"/>
</svg>
