<svg width="16" height="16" viewBox="0 0 16 16" fill="none" xmlns="http://www.w3.org/2000/svg">
<path d="M13.81 3H9.82847C9.29803 3 8.78932 2.78929 8.41425 2.41421L7.58583 1.58579C7.21075 1.21071 6.70204 1 6.17161 1H2.50004C1.39547 1 0.500038 1.89543 0.500038 3L0.539594 3.87023C0.286316 4.23948 0.154262 4.69646 0.198318 5.18107L0.834681 12.1811C0.928332 13.2112 1.79206 14 2.82647 14H13.1736C14.208 14 15.0717 13.2112 15.1654 12.1811L15.8018 5.18107C15.9082 4.00984 14.986 3 13.81 3ZM2.1901 3C1.94939 3 1.71931 3.04231 1.50651 3.11964L1.50021 2.98112C1.51028 2.43755 1.95406 2 2.50004 2H6.17161C6.43683 2 6.69118 2.10536 6.87872 2.29289L7.58583 3H2.1901ZM11.7982 8.27133L8.61643 10.2402C8.34628 10.4073 8.00003 10.2052 8.00003 9.86885V9.1C8.00003 9.1 5.4286 8.8 4.00003 11.5C4.57146 6.7 7.14289 6.7 8.00003 6.7V5.93115C8.00003 5.59483 8.34628 5.39265 8.61643 5.55981L11.7982 7.52867C12.0673 7.69515 12.0673 8.10485 11.7982 8.27133Z" fill="black"/>
</svg>
