<svg width="16" height="16" viewBox="0 0 16 16" fill="none" xmlns="http://www.w3.org/2000/svg">
<path d="M9.8284 3H13.8099C14.986 3 15.9082 4.00984 15.8017 5.18107L15.1653 12.1811C15.0717 13.2112 14.208 14 13.1735 14H2.82641C1.792 14 0.928271 13.2112 0.83462 12.1811L0.198257 5.18107C0.154201 4.69646 0.286255 4.23948 0.539533 3.87023L0.499977 3C0.499977 1.89543 1.39541 1 2.49998 1H6.17155C6.70198 1 7.21069 1.21071 7.58576 1.58579L8.41419 2.41421C8.78926 2.78929 9.29797 3 9.8284 3ZM1.50645 3.11964C1.71925 3.04231 1.94933 3 2.19004 3H7.58576L6.87866 2.29289C6.69112 2.10536 6.43677 2 6.17155 2H2.49998C1.954 2 1.51021 2.43755 1.50015 2.98112L1.50645 3.11964Z" fill="black"/>
</svg>
