<svg width="16" height="16" viewBox="0 0 16 16" fill="none" xmlns="http://www.w3.org/2000/svg">
<path d="M0.500031 3L0.539587 3.87024C0.286313 4.23949 0.154263 4.69647 0.198318 5.18107L0.834681 12.1811C0.928332 13.2112 1.79206 14 2.82647 14H9.00003V13H2.82647C2.30926 13 1.8774 12.6056 1.83057 12.0905L1.19421 5.09054C1.14097 4.50492 1.60207 4 2.1901 4H13.81C14.398 4 14.8591 4.50492 14.8059 5.09054L14.5414 8H15.5455L15.8018 5.18107C15.9082 4.00984 14.986 3 13.81 3H9.82846C9.29803 3 8.78932 2.78929 8.41424 2.41421L7.58582 1.58579C7.21074 1.21071 6.70204 1 6.1716 1H2.50003C1.39546 1 0.500031 1.89543 0.500031 3ZM6.1716 2C6.43682 2 6.69117 2.10536 6.87871 2.29289L7.58582 3H2.1901C1.94939 3 1.7193 3.04231 1.5065 3.11964L1.50021 2.98112C1.51027 2.43755 1.95405 2 2.50003 2H6.1716Z" fill="black"/>
<path d="M15.8536 10.1464C16.0488 10.3417 16.0488 10.6583 15.8536 10.8536L12.8536 13.8536C12.7598 13.9473 12.6326 14 12.5 14C12.3674 14 12.2402 13.9473 12.1465 13.8536L10.6465 12.3536C10.4512 12.1583 10.4512 11.8417 10.6465 11.6464C10.8417 11.4512 11.1583 11.4512 11.3536 11.6464L12.5 12.7929L15.1465 10.1464C15.3417 9.95118 15.6583 9.95118 15.8536 10.1464Z" fill="black"/>
</svg>
