<svg width="16" height="16" viewBox="0 0 16 16" fill="none" xmlns="http://www.w3.org/2000/svg">
<path d="M1 3.5C1 2.67157 1.67157 2 2.5 2H5.26393C6.2217 2 7.02473 2.55996 7.57541 3.18398C7.98525 3.64839 8.47871 4 9 4H13.5007C14.3296 4 15 4.67203 15 5.5V12.5C15 13.3284 14.3284 14 13.5 14H2.5C1.67157 14 1 13.3284 1 12.5V3.5ZM2.5 3C2.22386 3 2 3.22386 2 3.5V6H14V5.5C14 5.22341 13.7764 5 13.5007 5H9C8.03611 5 7.28947 4.37127 6.82562 3.84565C6.37381 3.33367 5.82125 3 5.26393 3H2.5ZM14 7H2V12.5C2 12.7761 2.22386 13 2.5 13H13.5C13.7761 13 14 12.7761 14 12.5V7Z" fill="black"/>
</svg>
