<svg width="16" height="16" viewBox="0 0 16 16" fill="none" xmlns="http://www.w3.org/2000/svg">
<path d="M9.50221 5.51285C9.40928 5.47123 9.3 5.53897 9.3 5.64672V6.65C9.3 6.92614 9.07614 7.15 8.8 7.15H2.5V10.05H8.8C9.07614 10.05 9.3 10.2739 9.3 10.55V11.5533C9.3 11.661 9.40928 11.7288 9.5022 11.6871L13.4857 8.75435C13.4994 8.74426 13.5137 8.73487 13.5283 8.72623C13.6239 8.66992 13.6239 8.53007 13.5283 8.47376C13.5137 8.46512 13.4994 8.45573 13.4857 8.44564L9.50221 5.51285ZM8.3 5.64672C8.3 4.75129 9.2694 4.21386 10.0247 4.65895C10.0393 4.6676 10.0536 4.67698 10.0673 4.68707L14.0608 7.62721C14.7797 8.07436 14.7797 9.12562 14.0608 9.57278L10.0673 12.5129C10.0536 12.523 10.0393 12.5324 10.0247 12.541C9.2694 12.9861 8.3 12.4487 8.3 11.5533V11.05H2C1.72386 11.05 1.5 10.8261 1.5 10.55V6.65C1.5 6.37385 1.72386 6.15 2 6.15H8.3V5.64672Z" fill="black"/>
</svg>
