<svg width="16" height="16" viewBox="0 0 16 16" fill="none" xmlns="http://www.w3.org/2000/svg">
<path d="M3.5 2C3.22386 2 3 2.22386 3 2.5V7.5C3 7.77614 3.22386 8 3.5 8H8.5C8.77614 8 9 7.77614 9 7.5V2.5C9 2.22386 8.77614 2 8.5 2H3.5Z" fill="black"/>
<path d="M4 14V9H5.79621C6.29636 9 6.70875 9.09768 7.03336 9.29304C7.35798 9.4884 7.59964 9.77167 7.75834 10.1429C7.91945 10.514 8 10.9621 8 11.4872C8 12.0147 7.91945 12.4664 7.75834 12.8425C7.59723 13.2186 7.35317 13.5055 7.02615 13.7033C6.70153 13.9011 6.29155 14 5.79621 14H4ZM5.66637 9.80586H4.97385V13.1905H5.66637C5.8948 13.1905 6.09318 13.1563 6.2615 13.0879C6.42982 13.0171 6.56688 12.9121 6.67268 12.7729C6.78088 12.6313 6.86144 12.4554 6.91434 12.2454C6.96964 12.0354 6.99729 11.7888 6.99729 11.5055C6.99729 11.1294 6.9492 10.8156 6.85302 10.5641C6.75924 10.3126 6.61377 10.1233 6.41659 9.99634C6.22182 9.86935 5.97175 9.80586 5.66637 9.80586Z" fill="black"/>
<path d="M3 0C1.89543 0 1 0.89543 1 2V15H0.5C0.223858 15 0 15.2239 0 15.5C0 15.7761 0.223858 16 0.5 16H11.5C11.7761 16 12 15.7761 12 15.5C12 15.2239 11.7761 15 11.5 15H11V11C11.5523 11 12 11.4477 12 12V12.5C12 13.3284 12.6716 14 13.5 14C14.3284 14 15 13.3284 15 12.5V8H15.5C15.7761 8 16 7.77615 16 7.49999L16 4.32397C16.0002 3.70805 16.0006 2.89773 15.706 2.24301C15.546 1.88741 15.2953 1.56448 14.9122 1.33619C14.5339 1.11076 14.0641 1 13.5 1C13.2239 1 13 1.22386 13 1.5C13 1.77614 13.2239 2 13.5 2C13.9359 2 14.2161 2.0855 14.4003 2.19525C14.5797 2.30213 14.704 2.45329 14.794 2.65332C14.9415 2.98105 14.9836 3.39925 14.9954 3.875H13.5C13.2239 3.875 13 4.09886 13 4.375V7.5C13 7.77615 13.2239 8 13.5 8H14V12.5C14 12.7761 13.7761 13 13.5 13C13.2239 13 13 12.7761 13 12.5V12C13 10.8954 12.1046 10 11 10V2C11 0.895431 10.1046 0 9 0H3ZM10 2V15H2V2C2 1.44772 2.44772 1 3 1H9C9.55228 1 10 1.44772 10 2Z" fill="black"/>
</svg>
