<svg width="16" height="16" viewBox="0 0 16 16" fill="none" xmlns="http://www.w3.org/2000/svg">
<path d="M5.5 0C5.77614 0 6 0.223858 6 0.5V4.5C6 5.32843 5.32843 6 4.5 6H0.5C0.223858 6 0 5.77614 0 5.5C0 5.22386 0.223858 5 0.5 5H4.5C4.77614 5 5 4.77614 5 4.5V0.5C5 0.223858 5.22386 0 5.5 0ZM10.5 0C10.7761 0 11 0.223858 11 0.5V4.5C11 4.77614 11.2239 5 11.5 5H15.5C15.7761 5 16 5.22386 16 5.5C16 5.77614 15.7761 6 15.5 6H11.5C10.6716 6 10 5.32843 10 4.5V0.5C10 0.223858 10.2239 0 10.5 0ZM0 10.5C0 10.2239 0.223858 10 0.5 10H4.5C5.32843 10 6 10.6716 6 11.5V15.5C6 15.7761 5.77614 16 5.5 16C5.22386 16 5 15.7761 5 15.5V11.5C5 11.2239 4.77614 11 4.5 11H0.5C0.223858 11 0 10.7761 0 10.5ZM10 11.5C10 10.6716 10.6716 10 11.5 10H15.5C15.7761 10 16 10.2239 16 10.5C16 10.7761 15.7761 11 15.5 11H11.5C11.2239 11 11 11.2239 11 11.5V15.5C11 15.7761 10.7761 16 10.5 16C10.2239 16 10 15.7761 10 15.5V11.5Z" fill="black"/>
</svg>
