<svg width="16" height="16" viewBox="0 0 16 16" fill="none" xmlns="http://www.w3.org/2000/svg">
<path d="M7.06842 0.727147C7.31109 -0.242384 8.68891 -0.242382 8.93158 0.72715L9.00309 1.01288C9.18603 1.74378 10.101 1.98894 10.6249 1.44743L10.8297 1.23574C11.5246 0.51743 12.7178 1.20634 12.4432 2.16732L12.3623 2.45053C12.1552 3.17497 12.825 3.84476 13.5495 3.63774L13.8327 3.55681C14.7937 3.28219 15.4826 4.47543 14.7643 5.17035L14.5526 5.37515C14.0111 5.89902 14.2562 6.81397 14.9871 6.99691L15.2729 7.06842C16.2424 7.31109 16.2424 8.68891 15.2729 8.93158L14.9871 9.00309C14.2562 9.18603 14.0111 10.101 14.5526 10.6249L14.7643 10.8297C15.4826 11.5246 14.7937 12.7178 13.8327 12.4432L13.5495 12.3623C12.825 12.1552 12.1552 12.825 12.3623 13.5495L12.4432 13.8327C12.7178 14.7937 11.5246 15.4826 10.8297 14.7643L10.6249 14.5526C10.101 14.0111 9.18603 14.2562 9.00309 14.9871L8.93158 15.2729C8.68891 16.2424 7.31109 16.2424 7.06842 15.2729L6.99691 14.9871C6.81397 14.2562 5.89902 14.0111 5.37514 14.5526L5.17034 14.7643C4.47542 15.4826 3.28219 14.7937 3.55681 13.8327L3.63774 13.5495C3.84476 12.825 3.17497 12.1552 2.45052 12.3623L2.16731 12.4432C1.20634 12.7178 0.517432 11.5246 1.23574 10.8297L1.44743 10.6249C1.98894 10.101 1.74378 9.18603 1.01288 9.00309L0.727147 8.93158C-0.242384 8.68891 -0.242382 7.31109 0.72715 7.06842L1.01288 6.99691C1.74378 6.81397 1.98894 5.89902 1.44743 5.37514L1.23574 5.17034C0.51743 4.47542 1.20634 3.28219 2.16732 3.55681L2.45053 3.63774C3.17497 3.84476 3.84476 3.17497 3.63774 2.45052L3.55681 2.16731C3.28219 1.20634 4.47543 0.517432 5.17035 1.23574L5.37515 1.44743C5.89902 1.98894 6.81397 1.74378 6.99691 1.01288L7.06842 0.727147ZM12.973 8.49979H8.24988L5.41581 12.2786C6.16985 12.735 7.05425 12.9977 8 12.9977C10.5915 12.9977 12.7222 11.0253 12.973 8.49979ZM12.973 7.50026C12.7222 4.97479 10.5915 3.00237 8 3.00237C7.05425 3.00237 6.16985 3.26508 5.41581 3.72149L8.24988 7.50026H12.973ZM5.04794 3.967C5.01872 3.98843 4.98975 4.01016 4.96102 4.0322L5.04794 3.967ZM4.61661 4.32178C3.62419 5.23512 3.00235 6.54496 3.00235 8.00002C3.00235 9.45509 3.62419 10.7649 4.61661 11.6783L7.37529 8.00002L4.61661 4.32178ZM4.96101 11.9678C4.98975 11.9899 5.01873 12.0116 5.04796 12.0331L4.96101 11.9678Z" fill="black"/>
</svg>
