<svg width="16" height="16" viewBox="0 0 16 16" fill="none" xmlns="http://www.w3.org/2000/svg">
<path d="M3.1 0.7C3.19443 0.574097 3.34262 0.5 3.5 0.5H12.5C12.6575 0.5 12.8058 0.574201 12.9002 0.700251L15.8763 4.6736C16.0249 4.85863 16.032 5.12397 15.8867 5.31768L8.4 15.3C8.30557 15.4259 8.15738 15.5 8 15.5C7.84262 15.5 7.69443 15.4259 7.6 15.3L0.1 5.3C-0.0333333 5.12222 -0.0333333 4.87778 0.1 4.7L3.1 0.7ZM14.4859 4.48542L12.6799 2.07422L11.904 4.48811L14.4859 4.48542ZM10.8533 4.4892L11.8141 1.5H4.18591L5.14864 4.49515L10.8533 4.4892ZM5.46996 5.49482L8 13.3661L10.5317 5.48954L5.46996 5.49482ZM4.0986 4.49625L3.31986 2.07351L1.50078 4.49896L4.0986 4.49625ZM1.49922 5.49896L6.61216 12.3162L4.41992 5.49591L1.49922 5.49896ZM9.38784 12.3162L14.511 5.48539L11.5825 5.48844L9.38784 12.3162Z" fill="black"/>
</svg>
