<svg width="16" height="16" viewBox="0 0 16 16" fill="none" xmlns="http://www.w3.org/2000/svg">
<path fill-rule="evenodd" clip-rule="evenodd" d="M9.5 2C9.22386 2 9 1.77614 9 1.5C9 1.22386 9.22386 1 9.5 1H14.5C14.7761 1 15 1.22386 15 1.5V6.5C15 6.77614 14.7761 7 14.5 7C14.2239 7 14 6.77614 14 6.5V2.70711L9.87145 6.83565C10.5765 7.69734 11 8.79957 11 10C11 12.7614 8.76142 15 6 15C3.23858 15 1 12.7614 1 10C1 7.23858 3.23858 5 6 5C7.20043 5 8.30266 5.42354 9.16435 6.12855L13.2929 2H9.5ZM6 6C3.79086 6 2 7.79086 2 10C2 12.2091 3.79086 14 6 14C8.20914 14 10 12.2091 10 10C10 8.89529 9.55283 7.89598 8.82843 7.17157C8.10402 6.44717 7.10471 6 6 6Z" fill="black"/>
</svg>
