<svg width="16" height="16" viewBox="0 0 16 16" fill="none" xmlns="http://www.w3.org/2000/svg">
<path fill-rule="evenodd" clip-rule="evenodd" d="M0 0.5C0 0.223858 0.223858 0 0.5 0H3.5C3.77614 0 4 0.223858 4 0.5C4 0.776142 3.77614 1 3.5 1H1.70711L3.5 2.79289L4.14645 2.14645C4.34171 1.95118 4.65829 1.95118 4.85355 2.14645C5.04882 2.34171 5.04882 2.65829 4.85355 2.85355L4.20711 3.5L5.0289 4.32179C5.76098 3.51016 6.82091 3 8 3C9.17909 3 10.239 3.51016 10.9711 4.32179L14.2929 1H11.5C11.2239 1 11 0.776142 11 0.5C11 0.223858 11.2239 0 11.5 0H15.5C15.7761 0 16 0.223858 16 0.5V4.5C16 4.77614 15.7761 5 15.5 5C15.2239 5 15 4.77614 15 4.5V1.70711L11.5507 5.15638C11.8378 5.70808 12 6.33509 12 7C12 9.03981 10.4732 10.723 8.5 10.9691V13H10C10.2761 13 10.5 13.2239 10.5 13.5C10.5 13.7761 10.2761 14 10 14H8.5V15.5C8.5 15.7761 8.27614 16 8 16C7.72386 16 7.5 15.7761 7.5 15.5V14H6C5.72386 14 5.5 13.7761 5.5 13.5C5.5 13.2239 5.72386 13 6 13H7.5V10.9691C5.52684 10.723 4 9.03981 4 7C4 6.33509 4.16223 5.70808 4.44927 5.15638L3.5 4.20711L2.85355 4.85355C2.65829 5.04882 2.34171 5.04882 2.14645 4.85355C1.95118 4.65829 1.95118 4.34171 2.14645 4.14645L2.79289 3.5L1 1.70711V3.5C1 3.77614 0.776142 4 0.5 4C0.223858 4 0 3.77614 0 3.5V0.5ZM5.49028 5.35581C5.18031 5.82801 5 6.39295 5 7C5 8.65685 6.34315 10 8 10C9.65685 10 11 8.65685 11 7C11 6.39295 10.8197 5.82801 10.5097 5.35581C10.5074 5.35246 10.5052 5.34907 10.503 5.34567C9.966 4.53476 9.04545 4 8 4C6.95455 4 6.034 4.53476 5.49697 5.34567C5.49479 5.34907 5.49256 5.35245 5.49028 5.35581Z" fill="black"/>
</svg>
