<svg width="16" height="16" viewBox="0 0 16 16" fill="none" xmlns="http://www.w3.org/2000/svg">
<path fill-rule="evenodd" clip-rule="evenodd" d="M8 1C6.34315 1 5 2.34315 5 4C5 5.65685 6.34315 7 8 7C9.65685 7 11 5.65685 11 4C11 2.34315 9.65685 1 8 1ZM4 4C4 1.79086 5.79086 0 8 0C10.2091 0 12 1.79086 12 4C12 6.03981 10.4732 7.723 8.5 7.96905V13.5C8.5 13.7761 8.27614 14 8 14C7.72386 14 7.5 13.7761 7.5 13.5V7.96905C5.52684 7.723 4 6.03981 4 4ZM6.49328 12.5742C6.53841 12.8467 6.35414 13.1041 6.08171 13.1492C5.37026 13.2671 4.80258 13.4439 4.42743 13.6415C4.23962 13.7405 4.1222 13.8332 4.05719 13.9069C4.02598 13.9422 4.01158 13.9679 4.00527 13.9824C4.00219 13.9895 4.00098 13.9941 4.00049 13.9963C4.00003 13.9984 4 14 4 14C4 14 3.99995 14.0025 4.00153 14.0077C4.00322 14.0132 4.00741 14.0243 4.01754 14.0407C4.03876 14.0753 4.08204 14.1273 4.16312 14.1912C4.32821 14.3213 4.59808 14.4603 4.97613 14.5863C5.72701 14.8366 6.79615 15 8 15C9.20386 15 10.273 14.8366 11.0239 14.5863C11.4019 14.4603 11.6718 14.3213 11.8369 14.1912C11.918 14.1273 11.9612 14.0753 11.9825 14.0407C11.9926 14.0243 11.9968 14.0132 11.9985 14.0077C12 14.0026 12 14.0001 12 14.0001C12 14.0001 12 13.9984 11.9995 13.9963C11.999 13.9941 11.9978 13.9895 11.9947 13.9824C11.9884 13.9679 11.974 13.9422 11.9428 13.9069C11.8778 13.8332 11.7604 13.7405 11.5726 13.6415C11.1974 13.4439 10.6297 13.2671 9.91829 13.1492C9.64586 13.1041 9.46159 12.8467 9.50672 12.5742C9.55185 12.3018 9.80928 12.1175 10.0817 12.1627C10.852 12.2903 11.5343 12.491 12.0387 12.7568C12.5009 13.0003 13 13.4014 13 14C13 14.426 12.7406 14.7522 12.4559 14.9766C12.1655 15.2054 11.7764 15.3896 11.3401 15.535C10.4623 15.8276 9.28143 16 8 16C6.71857 16 5.53771 15.8276 4.65991 15.535C4.22362 15.3896 3.83448 15.2054 3.54415 14.9766C3.25945 14.7522 3 14.426 3 14C3 13.4014 3.49912 13.0003 3.96128 12.7568C4.4657 12.491 5.14802 12.2903 5.91829 12.1627C6.19072 12.1175 6.44815 12.3018 6.49328 12.5742Z" fill="black"/>
</svg>
