<svg width="16" height="16" viewBox="0 0 16 16" fill="none" xmlns="http://www.w3.org/2000/svg">
<path d="M15.6985 7.28707L8.71228 0.301749C8.31032 -0.100583 7.65783 -0.100583 7.25536 0.301749L5.80476 1.75249L7.6448 3.59253C8.07257 3.4481 8.56287 3.54494 8.90369 3.88583C9.24628 4.22884 9.34242 4.72333 9.19437 5.15252L10.9678 6.926C11.3969 6.77814 11.8919 6.87367 12.2345 7.21687C12.7135 7.69572 12.7135 8.47163 12.2345 8.9506C11.7555 9.42973 10.9796 9.42973 10.5002 8.9506C10.1401 8.59017 10.051 8.06099 10.2334 7.61724L8.57947 5.96328L8.57933 10.3156C8.6961 10.3735 8.80631 10.4506 8.90362 10.5475C9.38246 11.0263 9.38246 11.8021 8.90362 12.2817C8.42463 12.7604 7.64837 12.7604 7.16989 12.2817C6.69098 11.8021 6.69098 11.0263 7.16989 10.5475C7.28824 10.4294 7.42519 10.3399 7.57132 10.28V5.88718C7.42512 5.82749 7.28834 5.73873 7.1698 5.61964C6.80705 5.25716 6.71968 4.72476 6.90572 4.2793L5.0918 2.4651L0.301966 7.25479C-0.100492 7.65743 -0.100492 8.30992 0.301966 8.71228L7.28772 15.6976C7.68991 16.0999 8.34217 16.0999 8.74492 15.6976L15.6984 8.74528C16.1007 8.34275 16.1007 7.69007 15.6984 7.28766" fill="black"/>
</svg>
