<svg width="16" height="16" viewBox="0 0 16 16" fill="none" xmlns="http://www.w3.org/2000/svg">
<path d="M0 8C0 3.58172 3.58172 0 8 0C12.4183 0 16 3.58172 16 8C16 12.4183 12.4183 16 8 16C3.58172 16 0 12.4183 0 8ZM7.5 1.07655C6.83057 1.28128 6.16462 1.89722 5.61275 2.93199C5.46962 3.20034 5.33735 3.49184 5.21771 3.80361C5.92288 3.9609 6.69049 4.06112 7.5 4.09055V1.07655ZM4.24852 3.53944C4.39143 3.15535 4.55268 2.79462 4.73039 2.4614C4.90911 2.1263 5.10862 1.81241 5.32726 1.52835C4.46954 1.88297 3.69766 2.40315 3.05145 3.04904C3.41294 3.23288 3.8141 3.39777 4.24852 3.53944ZM3.50845 7.49999C3.54474 6.42999 3.69684 5.41263 3.94483 4.49229C3.37532 4.30701 2.84978 4.08302 2.38046 3.82544C1.6064 4.86573 1.11439 6.1283 1.01758 7.49999H3.50845ZM4.90869 4.75884C4.68622 5.58644 4.54496 6.51299 4.50906 7.49999H7.5V5.09114C6.5902 5.06026 5.71707 4.94558 4.90869 4.75884ZM8.5 5.09114V7.49999H11.4909C11.455 6.51299 11.3138 5.58644 11.0913 4.75884C10.2829 4.94558 9.40979 5.06026 8.5 5.09114ZM4.50906 8.49999C4.54496 9.487 4.68622 10.4135 4.90869 11.2411C5.71707 11.0544 6.5902 10.9397 7.5 10.9088V8.49999H4.50906ZM8.5 8.49999V10.9088C9.40979 10.9397 10.2829 11.0544 11.0913 11.2411C11.3138 10.4135 11.455 9.487 11.4909 8.49999H8.5ZM5.21771 12.1964C5.33735 12.5081 5.46962 12.7996 5.61275 13.068C6.16462 14.1028 6.83057 14.7187 7.5 14.9234V11.9094C6.69049 11.9389 5.92288 12.0391 5.21771 12.1964ZM5.32726 14.4716C5.10863 14.1876 4.90911 13.8737 4.73039 13.5386C4.55268 13.2054 4.39143 12.8446 4.24852 12.4605C3.8141 12.6022 3.41294 12.7671 3.05145 12.9509C3.69766 13.5968 4.46954 14.117 5.32726 14.4716ZM3.94483 11.5077C3.69684 10.5874 3.54474 9.57 3.50845 8.49999H1.01758C1.11439 9.87169 1.6064 11.1343 2.38046 12.1745C2.84978 11.917 3.37532 11.693 3.94483 11.5077ZM10.6727 14.4716C11.5305 14.117 12.3023 13.5968 12.9485 12.9509C12.5871 12.7671 12.1859 12.6022 11.7515 12.4605C11.6086 12.8446 11.4473 13.2054 11.2696 13.5386C11.0909 13.8737 10.8914 14.1876 10.6727 14.4716ZM8.5 11.9094V14.9234C9.16942 14.7187 9.83537 14.1028 10.3872 13.068C10.5304 12.7996 10.6626 12.5081 10.7823 12.1964C10.0771 12.0391 9.3095 11.9389 8.5 11.9094ZM12.0552 11.5077C12.6247 11.693 13.1502 11.917 13.6195 12.1745C14.3936 11.1343 14.8856 9.87169 14.9824 8.49999H12.4915C12.4552 9.57 12.3032 10.5874 12.0552 11.5077ZM14.9824 7.49999C14.8856 6.1283 14.3936 4.86572 13.6195 3.82544C13.1502 4.08302 12.6247 4.30701 12.0552 4.49229C12.3032 5.41263 12.4552 6.42999 12.4915 7.49999H14.9824ZM11.2696 2.4614C11.4473 2.79462 11.6086 3.15535 11.7515 3.53944C12.1859 3.39777 12.5871 3.23288 12.9485 3.04904C12.3023 2.40315 11.5305 1.88297 10.6727 1.52835C10.8914 1.81241 11.0909 2.1263 11.2696 2.4614ZM10.7823 3.80361C10.6626 3.49184 10.5304 3.20034 10.3872 2.93199C9.83537 1.89722 9.16942 1.28128 8.5 1.07655V4.09055C9.3095 4.06112 10.0771 3.9609 10.7823 3.80361Z" fill="black"/>
</svg>
