<svg width="16" height="16" viewBox="0 0 16 16" fill="none" xmlns="http://www.w3.org/2000/svg">
<path d="M8 0C3.58172 0 0 3.58172 0 8C0 12.4183 3.58172 16 8 16C12.4183 16 16 12.4183 16 8C16 3.58172 12.4183 0 8 0ZM3.66788 2.5012L3.38019 3.14682C3.17648 3.60396 3.41133 4.13711 3.88612 4.29537C4.24856 4.41619 4.64702 4.27947 4.85894 3.96159L5.10407 3.59389C5.33026 3.25461 5.77369 3.13685 6.13841 3.31921C6.36604 3.43302 6.63396 3.43302 6.86159 3.31921L7.12304 3.18848C7.36408 3.06796 7.64356 3.04983 7.89815 3.13819L8.88191 3.47965C8.96033 3.50687 9.04224 3.5235 9.12467 3.53326C9.90929 3.62613 9.98005 3.90976 9.81945 4.33411C9.66406 4.7447 9.20344 4.95115 8.78412 4.82117L8.77392 4.81801C8.2739 4.66299 7.74816 4.5 6 4.5C4.8 4.5 3.5 5.61929 3.5 7C3.5 8.96009 4.32585 9.16578 5.19554 9.38239C5.65694 9.49731 6.13069 9.61531 6.5 10C6.9485 10.4672 6.89298 11.1811 6.83884 11.8772C6.75461 12.9602 6.67374 14 8.5 14C10.25 14 11.5 10.5 11.5 9.5C11.5 9.23757 11.7084 9.03184 11.944 8.79931C12.3404 8.40803 12.8136 7.94087 12.5 7C12.4029 6.7086 12.1044 6.432 11.8587 6.24389C11.6848 6.11078 11.6521 5.84788 11.807 5.69302C11.9192 5.58079 12.0951 5.56338 12.2271 5.65142L13.3118 6.37456C13.4212 6.4475 13.5669 6.43307 13.6599 6.34009C13.8106 6.18944 14.0745 6.25729 14.1487 6.45701C14.3082 6.88646 14.5942 7.50763 14.9976 7.81433C14.9992 7.87602 15 7.93792 15 8C15 11.866 11.866 15 8 15C4.13401 15 1 11.866 1 8C1 5.76973 2.04302 3.78307 3.66788 2.5012Z" fill="black"/>
</svg>
