<svg width="16" height="16" viewBox="0 0 16 16" fill="none" xmlns="http://www.w3.org/2000/svg">
<path d="M8 0C3.58172 0 0 3.58172 0 8C0 12.4183 3.58172 16 8 16C12.4183 16 16 12.4183 16 8C16 3.58172 12.4183 0 8 0ZM2.04042 4.32616C2.36549 5.65484 4.57185 6.86533 5.75651 7.51527C6.23715 7.77897 6.54961 7.9504 6.5 8.00001C6.4193 8.08071 6.33771 8.15837 6.25777 8.23447C5.84241 8.62986 5.47145 8.98298 5.5 9.50001C5.53503 10.1344 6.1178 10.3237 6.71421 10.5174C7.2915 10.7049 7.88157 10.8966 8 11.5C8.08193 11.9174 7.92547 12.4881 7.77972 13.0197C7.5652 13.8022 7.37388 14.5 8 14.5C9.5 14 11.7984 11.3144 12 9.50001C12.1381 8.25737 10 7.50001 8.5 7.00001C8.02202 6.84068 7.7445 7.08108 7.5097 7.28446C7.33756 7.43358 7.18838 7.5628 7 7.50001C6.55469 7.35157 4.5 5.50001 5.5 5.00001C6.28078 4.60962 6.45194 4.82884 6.72745 5.18171C6.80481 5.28079 6.89039 5.3904 7 5.50001C7.6085 5.80426 7.66159 5.36797 7.72255 4.86707C7.76177 4.54479 7.80425 4.19576 8 4.00001C8.43362 3.56639 9.26481 3.20875 10.0277 2.88051C10.7403 2.5739 11.3933 2.29294 11.607 1.99964C13.6402 3.22446 15 5.45343 15 8C15 11.866 11.866 15 8 15C4.13401 15 1 11.866 1 8C1 6.65257 1.38071 5.39406 2.04042 4.32616Z" fill="black"/>
</svg>
