<svg width="16" height="16" viewBox="0 0 16 16" fill="none" xmlns="http://www.w3.org/2000/svg">
<path d="M8 0C3.58172 0 0 3.58172 0 8C0 12.4183 3.58172 16 8 16C12.4183 16 16 12.4183 16 8C16 3.58172 12.4183 0 8 0ZM4.88219 1.73096C4.89336 1.83583 4.93883 1.93883 5.02223 2.02223C5.25727 2.25727 5.19297 2.65351 4.89566 2.80217L4.60472 2.94764C4.53536 2.98232 4.47205 3.02795 4.41722 3.08278L3.93702 3.56298C3.66918 3.83082 3.27302 3.92434 2.91368 3.80456L2.89452 3.79817C2.74055 3.74685 2.58249 3.73504 2.43166 3.7575C3.07973 2.9082 3.9177 2.21156 4.88219 1.73096ZM1.8822 11.4045L2.74254 11.1894C3.1877 11.0781 3.5 10.6781 3.5 10.2192V10.0352C3.5 9.70083 3.6671 9.3886 3.9453 9.20313L3.98506 9.17663C4.51012 8.82658 4.58369 8.08368 4.13747 7.63747L3.12132 6.62132C3.04364 6.54364 3 6.43828 3 6.32843C3 5.9871 3.38968 5.79226 3.66274 5.99706L4.75279 6.81459C4.90429 6.92822 5.107 6.9465 5.27639 6.8618C5.60884 6.69558 6 6.93733 6 7.30902V7.76356C6 7.91773 6.04564 8.06845 6.13116 8.19673L6.92572 9.38857C6.97502 9.46253 7.01424 9.54272 7.04235 9.62705L7.77208 11.8162C7.90819 12.2246 8.29033 12.5 8.72076 12.5H8.77924C9.20967 12.5 9.59181 12.2246 9.72792 11.8162L10.4577 9.62705C10.4858 9.54272 10.525 9.46253 10.5743 9.38857L11.3652 8.20216C11.4494 8.07586 11.5912 8 11.743 8C11.9024 8 12.0493 8.08352 12.135 8.21802C12.6921 9.09288 13.7649 10.5 14.5 10.5C14.5139 10.5 14.5275 10.4995 14.5409 10.4986C13.5349 13.1307 10.9857 15 8 15C5.36976 15 3.07835 13.5493 1.8822 11.4045Z" fill="black"/>
</svg>
