<svg width="16" height="16" viewBox="0 0 16 16" fill="none" xmlns="http://www.w3.org/2000/svg">
<path d="M4 8C4 7.17157 4.67157 6.5 5.5 6.5C6.32843 6.5 7 7.17157 7 8C7 8.82843 6.32843 9.5 5.5 9.5C4.67157 9.5 4 8.82843 4 8Z" fill="black"/>
<path d="M11.5 6.5C10.6716 6.5 10 7.17157 10 8C10 8.82843 10.6716 9.5 11.5 9.5C12.3284 9.5 13 8.82843 13 8C13 7.17157 12.3284 6.5 11.5 6.5Z" fill="black"/>
<path d="M0 1.5C0 1.22386 0.223858 1 0.5 1H1.5C1.77614 1 2 1.22386 2 1.5V4H15.5C15.7761 4 16 4.22386 16 4.5V11.5C16 11.7761 15.7761 12 15.5 12H2V14.5C2 14.7761 1.77614 15 1.5 15C1.22386 15 1 14.7761 1 14.5V2H0.5C0.223858 2 0 1.77614 0 1.5ZM5.5 5.5C4.11929 5.5 3 6.61929 3 8C3 9.38071 4.11929 10.5 5.5 10.5C6.88071 10.5 8 9.38071 8 8C8 6.61929 6.88071 5.5 5.5 5.5ZM9 8C9 9.38071 10.1193 10.5 11.5 10.5C12.8807 10.5 14 9.38071 14 8C14 6.61929 12.8807 5.5 11.5 5.5C10.1193 5.5 9 6.61929 9 8Z" fill="black"/>
<path d="M3 12.5H6.5V13.5C6.5 13.7761 6.27614 14 6 14H3.5C3.22386 14 3 13.7761 3 13.5V12.5Z" fill="black"/>
<path d="M7 13.5V12.5H11V13.5C11 13.7761 10.7761 14 10.5 14H7.5C7.22386 14 7 13.7761 7 13.5Z" fill="black"/>
</svg>
