<svg width="16" height="16" viewBox="0 0 16 16" fill="none" xmlns="http://www.w3.org/2000/svg">
<path fill-rule="evenodd" clip-rule="evenodd" d="M0 0H1V15H16V16H0V0ZM10 11.5C10 11.7762 10.2239 12 10.5 12H14.5C14.7761 12 15 11.7762 15 11.5V7.50004C15 7.22389 14.7761 7.00004 14.5 7.00004C14.2239 7.00004 14 7.22389 14 7.50004V10.0993L10.387 5.68342C10.2975 5.57408 10.166 5.50769 10.0249 5.50066C9.88382 5.49362 9.74634 5.54659 9.64645 5.64648L7.0602 8.23272L3.40437 3.20595C3.24195 2.98262 2.92924 2.93325 2.70591 3.09567C2.48259 3.25809 2.43321 3.57079 2.59563 3.79412L6.59563 9.29412C6.68164 9.41238 6.81511 9.48706 6.96089 9.4985C7.10667 9.50994 7.25015 9.45699 7.35355 9.35359L9.96288 6.74426L13.4449 11H10.5C10.2239 11 10 11.2239 10 11.5Z" fill="black"/>
</svg>
