<svg width="16" height="16" viewBox="0 0 16 16" fill="none" xmlns="http://www.w3.org/2000/svg">
<path fill-rule="evenodd" clip-rule="evenodd" d="M0 0H1V15H16V16H0V0ZM14.8166 11.887C15.0303 11.7121 15.0618 11.3971 14.887 11.1834L10.387 5.6834C10.2975 5.57407 10.166 5.50768 10.0249 5.50064C9.88382 5.4936 9.74634 5.54658 9.64645 5.64647L7.0602 8.23271L3.40437 3.20593C3.24195 2.98261 2.92924 2.93323 2.70591 3.09565C2.48259 3.25807 2.43321 3.57078 2.59563 3.79411L6.59563 9.29411C6.68164 9.41237 6.81511 9.48705 6.96089 9.49849C7.10667 9.50993 7.25015 9.45697 7.35355 9.35357L9.96288 6.74425L14.113 11.8166C14.2879 12.0304 14.6029 12.0619 14.8166 11.887Z" fill="black"/>
</svg>
