<svg width="16" height="16" viewBox="0 0 16 16" fill="none" xmlns="http://www.w3.org/2000/svg">
<path d="M0 1.5C0 0.671573 0.671573 0 1.5 0H14.5C15.3284 0 16 0.671573 16 1.5V14.5C16 15.3284 15.3284 16 14.5 16H1.5C0.671573 16 0 15.3284 0 14.5V1.5ZM1.5 1C1.22386 1 1 1.22386 1 1.5V5H5V1H1.5ZM5 6H1V10H5V6ZM6 10H10V6H6V10ZM5 11H1V14.5C1 14.7761 1.22386 15 1.5 15H5V11ZM6 11V15H10V11H6ZM11 11V15H14.5C14.7761 15 15 14.7761 15 14.5V11H11ZM11 10H15V6H11V10ZM11 5H15V1.5C15 1.22386 14.7761 1 14.5 1H11V5ZM10 5V1H6V5H10Z" fill="black"/>
</svg>
