<svg width="16" height="16" viewBox="0 0 16 16" fill="none" xmlns="http://www.w3.org/2000/svg">
<path d="M4 4V6H2V4H4ZM5 11V9C5 8.44772 4.55228 8 4 8H2C1.44772 8 1 8.44772 1 9V11C1 11.5523 1.44772 12 2 12H4C4.55228 12 5 11.5523 5 11ZM5 6V4C5 3.44772 4.55228 3 4 3H2C1.44772 3 1 3.44772 1 4V6C1 6.55228 1.44772 7 2 7H4C4.55228 7 5 6.55228 5 6ZM10 11V9C10 8.44772 9.55228 8 9 8H7C6.44772 8 6 8.44772 6 9V11C6 11.5523 6.44772 12 7 12H9C9.55228 12 10 11.5523 10 11ZM10 6V4C10 3.44772 9.55228 3 9 3H7C6.44772 3 6 3.44772 6 4V6C6 6.55228 6.44772 7 7 7H9C9.55228 7 10 6.55228 10 6ZM9 4V6H7V4H9ZM14 4H12V6H14V4ZM4 9V11H2V9H4ZM9 9V11H7V9H9ZM14 9V11H12V9H14ZM11 4C11 3.44772 11.4477 3 12 3H14C14.5523 3 15 3.44772 15 4V6C15 6.55228 14.5523 7 14 7H12C11.4477 7 11 6.55228 11 6V4ZM12 8C11.4477 8 11 8.44772 11 9V11C11 11.5523 11.4477 12 12 12H14C14.5523 12 15 11.5523 15 11V9C15 8.44772 14.5523 8 14 8H12Z" fill="black"/>
</svg>
