<svg width="16" height="16" viewBox="0 0 16 16" fill="none" xmlns="http://www.w3.org/2000/svg">
<path d="M1 4C1 3.44772 1.44772 3 2 3H4C4.55228 3 5 3.44772 5 4V6C5 6.55228 4.55228 7 4 7H2C1.44772 7 1 6.55228 1 6V4Z" fill="black"/>
<path d="M6 4C6 3.44772 6.44772 3 7 3H9C9.55228 3 10 3.44772 10 4V6C10 6.55228 9.55228 7 9 7H7C6.44772 7 6 6.55228 6 6V4Z" fill="black"/>
<path d="M11 4C11 3.44772 11.4477 3 12 3H14C14.5523 3 15 3.44772 15 4V6C15 6.55228 14.5523 7 14 7H12C11.4477 7 11 6.55228 11 6V4Z" fill="black"/>
<path d="M1 9C1 8.44772 1.44772 8 2 8H4C4.55228 8 5 8.44772 5 9V11C5 11.5523 4.55228 12 4 12H2C1.44772 12 1 11.5523 1 11V9Z" fill="black"/>
<path d="M6 9C6 8.44772 6.44772 8 7 8H9C9.55228 8 10 8.44772 10 9V11C10 11.5523 9.55228 12 9 12H7C6.44772 12 6 11.5523 6 11V9Z" fill="black"/>
<path d="M11 9C11 8.44772 11.4477 8 12 8H14C14.5523 8 15 8.44772 15 9V11C15 11.5523 14.5523 12 14 12H12C11.4477 12 11 11.5523 11 11V9Z" fill="black"/>
</svg>
