<svg width="16" height="16" viewBox="0 0 16 16" fill="none" xmlns="http://www.w3.org/2000/svg">
<path d="M2 8C2.55228 8 3 8.44772 3 9C3 9.55228 2.55228 10 2 10C1.44772 10 1 9.55228 1 9C1 8.44772 1.44772 8 2 8Z" fill="black"/>
<path d="M2 5C2.55228 5 3 5.44772 3 6C3 6.55228 2.55228 7 2 7C1.44772 7 1 6.55228 1 6C1 5.44772 1.44772 5 2 5Z" fill="black"/>
<path d="M5 8C5.55228 8 6 8.44772 6 9C6 9.55228 5.55228 10 5 10C4.44772 10 4 9.55228 4 9C4 8.44772 4.44772 8 5 8Z" fill="black"/>
<path d="M5 5C5.55228 5 6 5.44772 6 6C6 6.55228 5.55228 7 5 7C4.44772 7 4 6.55228 4 6C4 5.44772 4.44772 5 5 5Z" fill="black"/>
<path d="M8 8C8.55228 8 9 8.44772 9 9C9 9.55228 8.55228 10 8 10C7.44772 10 7 9.55228 7 9C7 8.44772 7.44772 8 8 8Z" fill="black"/>
<path d="M8 5C8.55228 5 9 5.44772 9 6C9 6.55228 8.55228 7 8 7C7.44772 7 7 6.55228 7 6C7 5.44772 7.44772 5 8 5Z" fill="black"/>
<path d="M11 8C11.5523 8 12 8.44772 12 9C12 9.55228 11.5523 10 11 10C10.4477 10 10 9.55228 10 9C10 8.44772 10.4477 8 11 8Z" fill="black"/>
<path d="M11 5C11.5523 5 12 5.44772 12 6C12 6.55228 11.5523 7 11 7C10.4477 7 10 6.55228 10 6C10 5.44772 10.4477 5 11 5Z" fill="black"/>
<path d="M14 8C14.5523 8 15 8.44772 15 9C15 9.55228 14.5523 10 14 10C13.4477 10 13 9.55228 13 9C13 8.44772 13.4477 8 14 8Z" fill="black"/>
<path d="M14 5C14.5523 5 15 5.44772 15 6C15 6.55228 14.5523 7 14 7C13.4477 7 13 6.55228 13 6C13 5.44772 13.4477 5 14 5Z" fill="black"/>
</svg>
