<svg width="16" height="16" viewBox="0 0 16 16" fill="none" xmlns="http://www.w3.org/2000/svg">
<path d="M6.95631 1.74539C7.02087 0.809643 7.90812 0.0866795 8.8638 0.3256L9.12522 0.390955C9.58765 0.506563 9.99923 0.847059 10.1366 1.35555C10.357 2.17156 10.6699 3.86726 10.1994 5.86509C10.3353 5.84649 10.484 5.82897 10.6422 5.81459C11.3547 5.74982 12.311 5.74332 13.1581 6.0257C13.6764 6.19845 14.1524 6.70596 14.3576 7.29801C14.5421 7.8304 14.5183 8.45989 14.1237 9.03131C14.1824 9.14966 14.2275 9.27318 14.262 9.39393C14.3392 9.66408 14.375 9.96115 14.375 10.25C14.375 10.5389 14.3392 10.836 14.262 11.1061C14.2235 11.241 14.1718 11.3792 14.1026 11.5099C14.2709 11.8967 14.2091 12.3289 14.0993 12.6582C13.9915 12.9816 13.8121 13.2967 13.6107 13.559C13.6647 13.7114 13.6875 13.8711 13.6875 14.0235C13.6875 14.3294 13.5982 14.6485 13.4341 14.9356C13.099 15.5222 12.4371 16 11.5 16H8C7.39536 16 6.93094 15.9187 6.53434 15.7822C6.14176 15.647 5.83632 15.464 5.56354 15.2977L5.51594 15.2687C5.0118 14.9609 4.51741 14.6591 3.44792 14.5457C2.68233 14.4645 2 13.8451 2 13.0007V8.99969C2 8.14947 2.68549 7.56766 3.35693 7.3845C4.20585 7.15293 4.93091 6.59766 5.48879 5.97423C6.04895 5.34825 6.4031 4.69544 6.52757 4.3363C6.72691 3.76115 6.88374 2.79699 6.95631 1.74539Z" fill="black"/>
</svg>
