<svg width="16" height="16" viewBox="0 0 16 16" fill="none" xmlns="http://www.w3.org/2000/svg">
<path d="M6.74994 1C7.16416 1 7.49994 1.33579 7.49994 1.75V8C7.49994 8.27614 7.7238 8.5 7.99994 8.5C8.27609 8.5 8.49994 8.27614 8.49994 8V5.46674C8.52807 5.46541 8.55692 5.46415 8.58631 5.46301C8.90272 5.45071 9.22292 5.4545 9.40189 5.49029C9.5362 5.51715 9.69571 5.58594 9.85041 5.67194C9.92669 5.71435 9.99994 5.8192 9.99994 5.98588V8C9.99994 8.27614 10.2238 8.5 10.4999 8.5C10.7761 8.5 10.9999 8.27614 10.9999 8V6.43467C11.0341 6.43126 11.0695 6.42808 11.1056 6.42527C11.4216 6.40071 11.6896 6.41437 11.8142 6.46424C11.9322 6.51141 12.1134 6.6719 12.2997 6.8943C12.381 6.99128 12.4502 7.08409 12.4999 7.15404V8.5C12.4999 8.77614 12.7238 9 12.9999 9C13.2761 9 13.4999 8.77614 13.4999 8.5V7.5H13.8425C14.4341 7.5 14.8964 8.01082 14.8375 8.5995L14.566 11.3148C14.5311 11.6639 14.4231 12.0018 14.249 12.3064L12.8537 14.7481C12.7647 14.9039 12.5991 15 12.4196 15H6.03513C5.86795 15 5.71184 14.9164 5.6191 14.7774L4.1859 12.6275C4.05287 12.428 3.96963 12.1995 3.94315 11.9611L3.59813 8.85599C3.56949 8.59823 3.7427 8.36135 3.99702 8.31049L4.99994 8.1099V9C4.99994 9.27614 5.2238 9.5 5.49994 9.5C5.77609 9.5 5.99994 9.27614 5.99994 9V1.75C5.99994 1.33579 6.33573 1 6.74994 1ZM8.49994 4.46572V1.75C8.49994 0.783502 7.71644 0 6.74994 0C5.78345 0 4.99994 0.783501 4.99994 1.75V7.0901L3.8009 7.32991C3.03795 7.4825 2.51833 8.19312 2.60425 8.96642L2.94926 12.0716C2.9934 12.4688 3.13214 12.8497 3.35385 13.1822L4.78705 15.3321C5.06525 15.7493 5.5336 16 6.03513 16H12.4196C12.9579 16 13.4549 15.7116 13.722 15.2442L15.1172 12.8025C15.3609 12.3761 15.5121 11.9031 15.561 11.4143L15.8325 8.69901C15.9503 7.52164 15.0257 6.5 13.8425 6.5H13.2609C13.2071 6.42702 13.1412 6.34155 13.0663 6.25214C12.8746 6.02336 12.5559 5.68385 12.1856 5.53576C11.8222 5.39037 11.3401 5.40403 11.0281 5.42828C10.9825 5.43183 10.9382 5.43584 10.8956 5.44012C10.7921 5.18252 10.6094 4.94975 10.3363 4.79793C10.1415 4.6896 9.87806 4.56572 9.598 4.50971C9.28882 4.44787 8.85901 4.45166 8.54747 4.46377C8.53146 4.46439 8.51561 4.46504 8.49994 4.46572ZM10.5943 6.49101C10.5943 6.49102 10.5943 6.49102 10.5943 6.49101V6.49101Z" fill="black"/>
</svg>
