<svg width="16" height="16" viewBox="0 0 16 16" fill="none" xmlns="http://www.w3.org/2000/svg">
<path d="M7.99992 1C9.10448 1 9.99992 1.89543 9.99992 3V5H5.99992V3C5.99992 1.89543 6.89535 1 7.99992 1ZM10.9999 5V3C10.9999 1.34315 9.65677 0 7.99992 0C6.34306 0 4.99992 1.34315 4.99992 3V5H3.3611C2.61861 5 1.98784 5.54321 1.8777 6.27749L0.849949 13.1291C0.623223 14.6407 1.79387 16 3.32229 16H12.6775C14.206 16 15.3766 14.6407 15.1499 13.1291L14.1221 6.27749C14.012 5.54321 13.3812 5 12.6387 5H10.9999ZM9.99992 6V7.5C9.99992 7.77614 10.2238 8 10.4999 8C10.7761 8 10.9999 7.77614 10.9999 7.5V6H12.6387C12.8862 6 13.0965 6.18107 13.1332 6.42583L14.1609 13.2775C14.297 14.1844 13.5946 15 12.6775 15H3.32229C2.40524 15 1.70285 14.1844 1.83889 13.2775L2.86663 6.42583C2.90335 6.18107 3.1136 6 3.3611 6H4.99992V7.5C4.99992 7.77614 5.22377 8 5.49992 8C5.77606 8 5.99992 7.77614 5.99992 7.5V6H9.99992Z" fill="black"/>
</svg>
