<svg width="16" height="16" viewBox="0 0 16 16" fill="none" xmlns="http://www.w3.org/2000/svg">
<path d="M7.99988 1C6.89531 1 5.99988 1.89543 5.99988 3V5H4.99988V3C4.99988 1.34315 6.34302 0 7.99988 0C9.65673 0 10.9999 1.34315 10.9999 3V5H9.99988V3C9.99988 1.89543 9.10445 1 7.99988 1Z" fill="black"/>
<path d="M4.99988 5H3.3611C2.61861 5 1.98784 5.54321 1.8777 6.27749L0.849949 13.1291C0.623223 14.6407 1.79387 16 3.32229 16H12.6775C14.206 16 15.3766 14.6407 15.1499 13.1291L14.1221 6.27749C14.012 5.54321 13.3812 5 12.6388 5H10.9999V6.5C10.9999 6.77614 10.776 7 10.4999 7C10.2237 7 9.99988 6.77614 9.99988 6.5V5H5.99988V6.5C5.99988 6.77614 5.77602 7 5.49988 7C5.22374 7 4.99988 6.77614 4.99988 6.5V5Z" fill="black"/>
</svg>
