<svg width="16" height="16" viewBox="0 0 16 16" fill="none" xmlns="http://www.w3.org/2000/svg">
<path d="M8.50008 1.75V4.46572L8.5476 4.46377C8.85914 4.45166 9.28895 4.44787 9.59813 4.50971C9.87819 4.56572 10.1416 4.6896 10.3364 4.79793C10.6095 4.94975 10.7923 5.18252 10.8957 5.44012C10.9383 5.43584 10.9827 5.43183 11.0283 5.42828C11.3402 5.40403 11.8223 5.39037 12.1858 5.53576C12.556 5.68385 12.8748 6.02336 13.0664 6.25214C13.1413 6.34155 13.2072 6.42702 13.2611 6.5H13.8426C15.0258 6.5 15.9504 7.52164 15.8327 8.69901L15.5611 11.4143C15.5123 11.9031 15.3611 12.3761 15.1174 12.8025L13.7221 15.2442C13.4551 15.7116 12.958 16 12.4198 16H6.11811C5.54995 16 5.03056 15.679 4.77647 15.1708L3.56145 12.7408L1.07006 8.58846C0.653544 7.89427 0.855685 6.99534 1.52928 6.54627C2.1308 6.14526 2.93175 6.22457 3.44295 6.73576L5.00008 8.29289V1.75C5.00008 0.783502 5.78358 0 6.75008 0C7.71657 0 8.50008 0.783502 8.50008 1.75Z" fill="black"/>
</svg>
