<svg width="16" height="16" viewBox="0 0 16 16" fill="none" xmlns="http://www.w3.org/2000/svg">
<path d="M6.75008 1C7.16429 1 7.50008 1.33579 7.50008 1.75V8C7.50008 8.27614 7.72393 8.5 8.00008 8.5C8.27622 8.5 8.50008 8.27614 8.50008 8V5.46674C8.52821 5.46541 8.55705 5.46415 8.58644 5.46301C8.90285 5.45071 9.22305 5.4545 9.40202 5.49029C9.53633 5.51715 9.69584 5.58594 9.85054 5.67194C9.92682 5.71435 10.0001 5.8192 10.0001 5.98588V8C10.0001 8.27614 10.2239 8.5 10.5001 8.5C10.7762 8.5 11.0001 8.27614 11.0001 8V6.43467C11.0342 6.43126 11.0696 6.42808 11.1058 6.42527C11.4218 6.40071 11.6897 6.41437 11.8144 6.46424C11.9323 6.51141 12.1135 6.6719 12.2998 6.8943C12.3811 6.99128 12.4503 7.08409 12.5001 7.15404V8.5C12.5001 8.77614 12.7239 9 13.0001 9C13.2762 9 13.5001 8.77614 13.5001 8.5V7.5H13.8426C14.4342 7.5 14.8965 8.01082 14.8376 8.5995L14.5661 11.3148C14.5312 11.6639 14.4232 12.0018 14.2491 12.3064L12.8539 14.7481C12.7649 14.9039 12.5992 15 12.4198 15H6.11811C5.92872 15 5.75559 14.893 5.6709 14.7236L4.4387 12.2592L1.92755 8.07397C1.78567 7.8375 1.85453 7.53129 2.08398 7.37832C2.28888 7.24172 2.56171 7.26874 2.73584 7.44287L5.14652 9.85355C5.28952 9.99655 5.50458 10.0393 5.69142 9.96194C5.87825 9.88455 6.00008 9.70223 6.00008 9.5V1.75C6.00008 1.33579 6.33586 1 6.75008 1ZM8.50008 4.46572V1.75C8.50008 0.783502 7.71657 0 6.75008 0C5.78358 0 5.00008 0.783502 5.00008 1.75V8.29289L3.44295 6.73576C2.93175 6.22457 2.1308 6.14526 1.52928 6.54627C0.855685 6.99534 0.653544 7.89427 1.07006 8.58846L3.56145 12.7408L4.77647 15.1708C5.03056 15.679 5.54995 16 6.11811 16H12.4198C12.958 16 13.4551 15.7116 13.7221 15.2442L15.1174 12.8025C15.3611 12.3761 15.5123 11.9031 15.5611 11.4143L15.8327 8.69901C15.9504 7.52164 15.0258 6.5 13.8426 6.5H13.2611C13.2072 6.42702 13.1413 6.34155 13.0664 6.25214C12.8748 6.02336 12.556 5.68385 12.1858 5.53576C11.8223 5.39037 11.3402 5.40403 11.0283 5.42828C10.9827 5.43183 10.9383 5.43584 10.8957 5.44012C10.7923 5.18252 10.6095 4.94975 10.3364 4.79793C10.1416 4.6896 9.87819 4.56572 9.59813 4.50971C9.28895 4.44787 8.85914 4.45166 8.5476 4.46377C8.53159 4.46439 8.51574 4.46504 8.50008 4.46572ZM10.5945 6.49101C10.5944 6.49102 10.5944 6.49102 10.5945 6.49101V6.49101Z" fill="black"/>
</svg>
