<svg width="16" height="16" viewBox="0 0 16 16" fill="none" xmlns="http://www.w3.org/2000/svg">
<path d="M8.39062 12.6484C8.38281 12.6875 8.375 12.7734 8.375 12.8281C8.375 13.1328 8.58594 13.3359 8.875 13.3359C9.14062 13.3359 9.36719 13.1641 9.42969 12.8594L9.98438 10.1562H11.1875C11.6094 10.1562 11.8047 9.92188 11.8047 9.60938C11.8047 9.29688 11.6172 9.07812 11.1875 9.07812H10.2031L10.7188 6.55469H11.9844C12.4141 6.55469 12.6016 6.32812 12.6016 6.00781C12.6016 5.69531 12.4141 5.48438 11.9844 5.48438H10.9375L11.4141 3.17969C11.4219 3.14062 11.4297 3.0625 11.4297 3.01562C11.4297 2.73438 11.2109 2.5 10.9141 2.5C10.6641 2.5 10.4375 2.65625 10.375 2.92969L9.85156 5.48438H7.61719L8.09375 3.17969C8.10156 3.14062 8.10938 3.0625 8.10938 3.01562C8.10938 2.73438 7.89062 2.5 7.58594 2.5C7.34375 2.5 7.11719 2.65625 7.05469 2.92969L6.53125 5.48438H5.41406C4.98438 5.48438 4.79688 5.70312 4.79688 6.01562C4.79688 6.32812 4.98438 6.55469 5.41406 6.55469H6.32031L5.80469 9.07812H4.60938C4.1875 9.07812 4 9.29688 4 9.60938C4 9.92188 4.1875 10.1562 4.60938 10.1562H5.58594L5.07031 12.6484C5.0625 12.6875 5.05469 12.7734 5.05469 12.8281C5.05469 13.1328 5.26562 13.3359 5.55469 13.3359C5.82031 13.3359 6.04688 13.1641 6.10938 12.8594L6.66406 10.1562H8.90625L8.39062 12.6484ZM7.39062 6.53906H9.65625L9.14062 9.10156H6.85938L7.39062 6.53906Z" fill="black"/>
</svg>
