<svg width="16" height="16" viewBox="0 0 16 16" fill="none" xmlns="http://www.w3.org/2000/svg">
<path d="M4.5 5C4.77614 5 5 4.77614 5 4.5C5 4.22386 4.77614 4 4.5 4C4.22386 4 4 4.22386 4 4.5C4 4.77614 4.22386 5 4.5 5Z" fill="black"/>
<path d="M3 4.5C3 4.77614 2.77614 5 2.5 5C2.22386 5 2 4.77614 2 4.5C2 4.22386 2.22386 4 2.5 4C2.77614 4 3 4.22386 3 4.5Z" fill="black"/>
<path d="M0 4C0 2.89543 0.895431 2 2 2H14C15.1046 2 16 2.89543 16 4V5C16 6.10457 15.1046 7 14 7H8.5V10C9.32843 10 10 10.6716 10 11.5H15.5C15.7761 11.5 16 11.7239 16 12C16 12.2761 15.7761 12.5 15.5 12.5H10C10 13.3284 9.32843 14 8.5 14H7.5C6.67157 14 6 13.3284 6 12.5H0.5C0.223858 12.5 0 12.2761 0 12C0 11.7239 0.223858 11.5 0.5 11.5H6C6 10.6716 6.67157 10 7.5 10V7H2C0.895431 7 0 6.10457 0 5V4ZM1 4V5C1 5.55228 1.44772 6 2 6H14C14.5523 6 15 5.55228 15 5V4C15 3.44772 14.5523 3 14 3H2C1.44772 3 1 3.44772 1 4ZM7 11.5V12.5C7 12.7761 7.22386 13 7.5 13H8.5C8.77614 13 9 12.7761 9 12.5V11.5C9 11.2239 8.77614 11 8.5 11H7.5C7.22386 11 7 11.2239 7 11.5Z" fill="black"/>
</svg>
