<svg width="16" height="16" viewBox="0 0 16 16" fill="none" xmlns="http://www.w3.org/2000/svg">
<path d="M0 10C0 8.89543 0.895431 8 2 8H14C15.1046 8 16 8.89543 16 10V11C16 12.1046 15.1046 13 14 13H2C0.895431 13 0 12.1046 0 11V10ZM2.5 11C2.77614 11 3 10.7761 3 10.5C3 10.2239 2.77614 10 2.5 10C2.22386 10 2 10.2239 2 10.5C2 10.7761 2.22386 11 2.5 11ZM4.5 11C4.77614 11 5 10.7761 5 10.5C5 10.2239 4.77614 10 4.5 10C4.22386 10 4 10.2239 4 10.5C4 10.7761 4.22386 11 4.5 11Z" fill="black"/>
<path d="M0.909975 7.20417C1.24784 7.07235 1.61547 7 2 7H14C14.3845 7 14.7521 7.07234 15.09 7.20414L13.2232 3.78172C12.9603 3.29983 12.4553 3 11.9063 3H4.09361C3.54469 3 3.03961 3.29983 2.77676 3.78172L0.909975 7.20417Z" fill="black"/>
</svg>
