<svg width="16" height="16" viewBox="0 0 16 16" fill="none" xmlns="http://www.w3.org/2000/svg">
<path d="M2 2C0.895431 2 0 2.89543 0 4V5C0 6.10457 0.895431 7 2 7H3V9H2C0.895431 9 0 9.89543 0 11V12C0 13.1046 0.895431 14 2 14H14C15.1046 14 16 13.1046 16 12V11C16 9.89543 15.1046 9 14 9H13V7H14C15.1046 7 16 6.10457 16 5V4C16 2.89543 15.1046 2 14 2H2ZM2.5 5C2.22386 5 2 4.77614 2 4.5C2 4.22386 2.22386 4 2.5 4C2.77614 4 3 4.22386 3 4.5C3 4.77614 2.77614 5 2.5 5ZM4.5 5C4.22386 5 4 4.77614 4 4.5C4 4.22386 4.22386 4 4.5 4C4.77614 4 5 4.22386 5 4.5C5 4.77614 4.77614 5 4.5 5ZM2.5 12C2.22386 12 2 11.7761 2 11.5C2 11.2239 2.22386 11 2.5 11C2.77614 11 3 11.2239 3 11.5C3 11.7761 2.77614 12 2.5 12ZM4.5 12C4.22386 12 4 11.7761 4 11.5C4 11.2239 4.22386 11 4.5 11C4.77614 11 5 11.2239 5 11.5C5 11.7761 4.77614 12 4.5 12ZM12 7V9H4V7H12Z" fill="black"/>
</svg>
