<svg width="16" height="16" viewBox="0 0 16 16" fill="none" xmlns="http://www.w3.org/2000/svg">
<path d="M2 2C0.895431 2 0 2.89543 0 4V5C0 6.10457 0.895431 7 2 7H7.5V10C6.67157 10 6 10.6716 6 11.5H0.5C0.223858 11.5 0 11.7239 0 12C0 12.2761 0.223858 12.5 0.5 12.5H6C6 13.3284 6.67157 14 7.5 14H8.5C9.32843 14 10 13.3284 10 12.5H15.5C15.7761 12.5 16 12.2761 16 12C16 11.7239 15.7761 11.5 15.5 11.5H10C10 10.6716 9.32843 10 8.5 10V7H14C15.1046 7 16 6.10457 16 5V4C16 2.89543 15.1046 2 14 2H2ZM2.5 5C2.22386 5 2 4.77614 2 4.5C2 4.22386 2.22386 4 2.5 4C2.77614 4 3 4.22386 3 4.5C3 4.77614 2.77614 5 2.5 5ZM4.5 5C4.22386 5 4 4.77614 4 4.5C4 4.22386 4.22386 4 4.5 4C4.77614 4 5 4.22386 5 4.5C5 4.77614 4.77614 5 4.5 5Z" fill="black"/>
</svg>
