<svg width="16" height="16" viewBox="0 0 16 16" fill="none" xmlns="http://www.w3.org/2000/svg">
<path d="M4.5 11C4.77614 11 5 10.7761 5 10.5C5 10.2239 4.77614 10 4.5 10C4.22386 10 4 10.2239 4 10.5C4 10.7761 4.22386 11 4.5 11Z" fill="black"/>
<path d="M3 10.5C3 10.7761 2.77614 11 2.5 11C2.22386 11 2 10.7761 2 10.5C2 10.2239 2.22386 10 2.5 10C2.77614 10 3 10.2239 3 10.5Z" fill="black"/>
<path d="M16 11C16 12.1046 15.1046 13 14 13H2C0.895431 13 0 12.1046 0 11V9.50999C0 9.09169 0.104958 8.68008 0.305261 8.31286L2.77679 3.78172C3.03964 3.29983 3.54472 3 4.09363 3H11.9064C12.4553 3 12.9604 3.29983 13.2232 3.78172L15.6947 8.31286C15.895 8.68008 16 9.09169 16 9.50999V11ZM3.65469 4.26057L1.59232 8.04158C1.72394 8.01432 1.8603 8 2 8H14C14.1397 8 14.2761 8.01432 14.4077 8.04158L12.3453 4.26057C12.2577 4.09994 12.0893 4 11.9064 4H4.09363C3.91066 4 3.7423 4.09994 3.65469 4.26057ZM1 10V11C1 11.5523 1.44772 12 2 12H14C14.5523 12 15 11.5523 15 11V10C15 9.44772 14.5523 9 14 9H2C1.44772 9 1 9.44772 1 10Z" fill="black"/>
</svg>
