<svg width="16" height="16" viewBox="0 0 16 16" fill="none" xmlns="http://www.w3.org/2000/svg">
<path d="M2.5 7C2.22386 7 2 7.22386 2 7.5C2 7.77614 2.22386 8 2.5 8H13.5C13.7761 8 14 7.77614 14 7.5C14 7.22386 13.7761 7 13.5 7H2.5Z" fill="black"/>
<path d="M1 5C0.447715 5 0 5.44772 0 6V9C0 9.55228 0.447715 10 1 10H1.29289L2 10.7071C2.18754 10.8946 2.44189 11 2.70711 11H13.2929C13.5581 11 13.8125 10.8946 14 10.7071L14.7071 10H15C15.5523 10 16 9.55228 16 9V6C16 5.44771 15.5523 5 15 5H1ZM1 6H15V9H14.7071C14.4419 9 14.1875 9.10536 14 9.29289L13.2929 10H2.70711L2 9.29289C1.81246 9.10536 1.55811 9 1.29289 9H1V6Z" fill="black"/>
</svg>
