<svg width="16" height="16" viewBox="0 0 16 16" fill="none" xmlns="http://www.w3.org/2000/svg">
<path d="M1 5C0.447715 5 0 5.44772 0 6V9.29289C0 9.68342 0.316583 10 0.707107 10C0.894643 10 1.0745 10.0745 1.20711 10.2071L1.70711 10.7071C1.89464 10.8946 2.149 11 2.41421 11H13.5858C13.851 11 14.1054 10.8946 14.2929 10.7071L14.7929 10.2071C14.9255 10.0745 15.1054 10 15.2929 10C15.6834 10 16 9.68342 16 9.29289V6C16 5.44772 15.5523 5 15 5H1ZM2.5 7H13.5C13.7761 7 14 7.22386 14 7.5C14 7.77614 13.7761 8 13.5 8H2.5C2.22386 8 2 7.77614 2 7.5C2 7.22386 2.22386 7 2.5 7Z" fill="black"/>
</svg>
