<svg width="16" height="16" viewBox="0 0 16 16" fill="none" xmlns="http://www.w3.org/2000/svg">
<path d="M8 1.24788C9.85688 1.24788 11.5259 1.88936 12.6497 3.04183C13.5983 3.16492 14.4635 3.55388 15.168 4.13151C13.907 1.48279 11.2946 0 8 0C4.74993 0 2.11972 1.47914 0.843994 4.12171C1.49201 3.59374 2.27487 3.22493 3.13295 3.07491C4.23609 1.87223 5.97425 1.24788 8 1.24788Z" fill="black"/>
<path d="M12 12C10.9168 12 9.93333 11.5688 9.21353 10.8698L9.21162 10.8682C9.20292 10.8612 9.18661 10.8486 9.16291 10.832C9.11541 10.7989 9.03901 10.7508 8.93537 10.7015C8.72895 10.6032 8.41444 10.5 8 10.5C7.58556 10.5 7.27105 10.6032 7.06463 10.7015C6.96099 10.7508 6.88459 10.7989 6.83709 10.832C6.81339 10.8486 6.79708 10.8612 6.78838 10.8682L6.78647 10.8698C6.06667 11.5688 5.0832 12 4 12C1.79086 12 0 10.2091 0 8C0 5.79086 1.79086 4 4 4H12C14.2091 4 16 5.79086 16 8C16 10.2091 14.2091 12 12 12Z" fill="black"/>
</svg>
