<svg width="16" height="16" viewBox="0 0 16 16" fill="none" xmlns="http://www.w3.org/2000/svg">
<path d="M8.86711 14.4103C22.175 5.08788 13.6574 -2.15318 8.93103 0.58621L7 3L8.5 7L6.5 10L8 15C8.09252 14.9389 8.1841 14.8778 8.27475 14.8168C8.47684 14.6809 8.67426 14.5454 8.86711 14.4103ZM8.56407 13.4001L7.59301 10.1633L9.33205 7.5547C9.51045 7.2871 9.54926 6.95002 9.43633 6.64888L8.13586 3.18096L9.58652 1.36763C11.4471 0.4203 14.0323 1.37044 14.7835 3.47853C15.4744 5.4175 14.7279 8.99911 8.56407 13.4001ZM7.31474 14.5368C7.09855 14.3873 6.88798 14.2383 6.68294 14.0899C6.37335 13.8658 6.07634 13.6429 5.79155 13.4214C-5.07671 4.96976 1.84284 -1.472 6.45423 0.292874C6.76845 0.413135 7.07196 0.5715 7.35839 0.769931L5.5 3L7 7L5.5 10L7.31474 14.5368ZM5.01377 11.477L4.57152 10.3714C4.46544 10.1062 4.47783 9.80827 4.60557 9.55279L5.91056 6.94282L4.56367 3.35112C4.43743 3.01449 4.50162 2.63601 4.73178 2.35982L5.76428 1.12082C4.07559 0.671243 2.06364 1.51849 1.30771 3.24832C0.596981 4.8747 0.895074 7.79747 5.01377 11.477Z" fill="black"/>
</svg>
