<svg width="16" height="16" viewBox="0 0 16 16" fill="none" xmlns="http://www.w3.org/2000/svg">
<path d="M1.47451 9C2.70236 10.8409 4.77857 12.8714 8 15C11.2214 12.8714 13.2976 10.8409 14.5255 9H12C11.7955 9 11.6117 8.87552 11.5358 8.6857L10.079 5.04368L8.48076 10.6374C8.42202 10.8429 8.23907 10.9884 8.02554 10.9993C7.81201 11.0103 7.61517 10.8842 7.53576 10.6857L5.88877 6.56823L4.41603 8.77735C4.32329 8.91645 4.16718 9 4 9H1.47451Z" fill="black"/>
<path d="M0.879138 8C-2.42637 1.68037 4.41014 -1.99949 7.82432 1.14308C7.88395 1.19797 7.94253 1.25493 8 1.314C8.05747 1.25494 8.11605 1.19797 8.17567 1.14309C11.5898 -1.99949 18.4264 1.68037 15.1209 8H12.3385L10.4642 3.3143C10.3848 3.11579 10.188 2.98973 9.97446 3.00065C9.76093 3.01157 9.57798 3.15706 9.51924 3.36264L7.92104 8.95632L6.46424 5.3143C6.39528 5.14191 6.23646 5.02192 6.05178 5.00269C5.8671 4.98346 5.68697 5.06816 5.58397 5.22265L3.73241 8H0.879138Z" fill="black"/>
</svg>
