<svg width="16" height="16" viewBox="0 0 16 16" fill="none" xmlns="http://www.w3.org/2000/svg">
<path d="M6.70711 9H11.0714C10.5354 10.5732 13.0991 12.8059 16 8.5C13.0991 4.19407 10.5354 6.4268 11.0714 8H6.70711L4.85355 6.14645C4.65829 5.95118 4.34171 5.95118 4.14645 6.14645C3.95118 6.34171 3.95118 6.65829 4.14645 6.85355L5.29289 8H4.70711L2.85355 6.14645C2.65829 5.95118 2.34171 5.95118 2.14645 6.14645C1.95118 6.34171 1.95118 6.65829 2.14645 6.85355L3.29289 8H2.70711L0.853553 6.14645C0.658291 5.95118 0.341709 5.95118 0.146447 6.14645C-0.0488155 6.34171 -0.0488155 6.65829 0.146447 6.85355L1.79289 8.5L0.146447 10.1464C-0.0488155 10.3417 -0.0488155 10.6583 0.146447 10.8536C0.341709 11.0488 0.658291 11.0488 0.853553 10.8536L2.70711 9H3.29289L2.14645 10.1464C1.95118 10.3417 1.95118 10.6583 2.14645 10.8536C2.34171 11.0488 2.65829 11.0488 2.85355 10.8536L4.70711 9H5.29289L4.14645 10.1464C3.95118 10.3417 3.95118 10.6583 4.14645 10.8536C4.34171 11.0488 4.65829 11.0488 4.85355 10.8536L6.70711 9Z" fill="black"/>
</svg>
