<svg width="16" height="16" viewBox="0 0 16 16" fill="none" xmlns="http://www.w3.org/2000/svg">
<path d="M8 2.74805L7.28325 2.01133C5.5989 0.280067 2.51415 0.877695 1.40036 3.05284C0.91777 3.9953 0.779811 5.32279 1.50826 7H0.430243C-1.69803 1.30285 4.5945 -1.82979 7.82432 1.14308C7.88395 1.19797 7.94253 1.25493 8 1.314C8.05747 1.25494 8.11605 1.19797 8.17567 1.14309C11.4055 -1.8298 17.698 1.30285 15.5698 7H14.4917C15.2202 5.32279 15.0822 3.9953 14.5996 3.05284C13.4859 0.877695 10.4011 0.280067 8.71675 2.01133L8 2.74805Z" fill="black"/>
<path d="M2.21206 10H3.52693C4.59306 11.1833 6.05133 12.4579 8 13.7946C9.94868 12.4579 11.4069 11.1833 12.4731 10H13.7879C12.5227 11.5665 10.6483 13.2501 8 15C5.35168 13.2501 3.47735 11.5665 2.21206 10Z" fill="black"/>
<path d="M10.4642 3.3143C10.3848 3.11579 10.188 2.98973 9.97446 3.00065C9.76093 3.01157 9.57798 3.15706 9.51924 3.36264L7.92104 8.95632L6.46424 5.3143C6.39528 5.14191 6.23646 5.02192 6.05178 5.00269C5.8671 4.98346 5.68697 5.06816 5.58397 5.22265L3.73241 8H0.5C0.223858 8 0 8.22386 0 8.5C0 8.77614 0.223858 9 0.5 9H4C4.16718 9 4.32329 8.91645 4.41603 8.77735L5.88877 6.56823L7.53576 10.6857C7.61517 10.8842 7.81201 11.0103 8.02554 10.9993C8.23907 10.9884 8.42202 10.8429 8.48076 10.6374L10.079 5.04368L11.5358 8.6857C11.6117 8.87552 11.7955 9 12 9H15.5C15.7761 9 16 8.77614 16 8.5C16 8.22386 15.7761 8 15.5 8H12.3385L10.4642 3.3143Z" fill="black"/>
</svg>
