<svg width="16" height="16" viewBox="0 0 16 16" fill="none" xmlns="http://www.w3.org/2000/svg">
<path d="M14 4.57734V11.4226L7.99998 15L2 11.4226V4.57734L7.99998 1L14 4.57734ZM8.49998 0.133975C8.19058 -0.0446582 7.80938 -0.0446582 7.49998 0.133975L1.5 3.71132C1.1906 3.88995 1 4.22008 1 4.57734V11.4226C1 11.7799 1.1906 12.11 1.5 12.2887L7.49998 15.866C7.80938 16.0447 8.19058 16.0447 8.49998 15.866L14.5 12.2887C14.8094 12.11 15 11.7799 15 11.4226V4.57734C15 4.22008 14.8094 3.88995 14.5 3.71132L8.49998 0.133975Z" fill="black"/>
</svg>
