<svg width="16" height="16" viewBox="0 0 16 16" fill="none" xmlns="http://www.w3.org/2000/svg">
<path fill-rule="evenodd" clip-rule="evenodd" d="M16 8C16 3.58172 12.4183 0 8 0C3.58172 0 0 3.58172 0 8C0 12.4183 3.58172 16 8 16C12.4183 16 16 12.4183 16 8ZM8 13V14H4.5C4.46816 14 4.43702 14.003 4.40683 14.0087C3.93216 13.7242 3.49398 13.3851 3.10102 13H8ZM8 12V11H1.67363C1.84006 11.3503 2.03472 11.6846 2.25469 12H8ZM1.28988 10H8V9H1.07089C1.1198 9.34193 1.19342 9.67588 1.28988 10ZM1 8H8V7H1.07089C1.02417 7.3266 1 7.66048 1 8ZM1.28988 6H8V5H1.67363C1.5213 5.32067 1.39263 5.65475 1.28988 6ZM2.25469 4H8V3H3.10102C2.78895 3.3058 2.50539 3.64059 2.25469 4ZM4.39241 2H8V1C6.68033 1 5.44596 1.36518 4.39241 2Z" fill="black"/>
</svg>
