<svg width="16" height="16" viewBox="0 0 16 16" fill="none" xmlns="http://www.w3.org/2000/svg">
<path fill-rule="evenodd" clip-rule="evenodd" d="M11.0957 0.644485C11.882 -0.102533 13.1205 -0.0866582 13.8874 0.68027L15.3198 2.11265C16.0867 2.87957 16.1026 4.11802 15.3555 4.90436L14.9424 5.33921L6.87217 14.3339C6.77734 14.4396 6.64203 14.5 6.50001 14.5H3.50001C3.4175 14.5 3.33709 14.4796 3.26552 14.4416L2.85357 14.8536C2.7598 14.9473 2.63262 15 2.50001 15H0.500015C0.297783 15 0.115465 14.8782 0.0380748 14.6914C-0.0393156 14.5045 0.00346223 14.2895 0.146461 14.1465L1.55841 12.7345C1.52041 12.6629 1.50001 12.5825 1.50001 12.5V9.50001C1.50001 9.358 1.5604 9.22269 1.6661 9.12785L10.6608 1.0576L11.0957 0.644485ZM10.9814 2.11348L2.72679 9.51968L6.48034 13.2732L13.8865 5.01865L10.9814 2.11348ZM14.5658 4.28372L14.6305 4.21561C15.0041 3.82244 14.9961 3.20322 14.6126 2.81975L13.1803 1.38738C12.7968 1.00391 12.1776 0.995975 11.7844 1.36948L11.7163 1.43419L14.5658 4.28372ZM5.29291 13.5L2.50001 10.7071V12.2929L3.70712 13.5H5.29291Z" fill="black"/>
</svg>
