<svg width="16" height="16" viewBox="0 0 16 16" fill="none" xmlns="http://www.w3.org/2000/svg">
<path d="M6 0C5.44772 0 5 0.447715 5 1V2C4.44771 2 4 2.44772 4 3V7H1C0.447715 7 0 7.44772 0 8V15C0 15.5523 0.447716 16 1 16H7V13.5C7 13.2239 7.22386 13 7.5 13H8.5C8.77614 13 9 13.2239 9 13.5V16H15C15.5523 16 16 15.5523 16 15V8C16 7.44772 15.5523 7 15 7H12V3C12 2.44772 11.5523 2 11 2V1C11 0.447715 10.5523 0 10 0H6ZM8.5 5.03437V6.13484L9.45302 5.58461L9.95302 6.45064L8.99998 7.00088L9.95303 7.55112L9.45303 8.41714L8.5 7.86691V8.96738H7.5V7.86689L6.54694 8.41714L6.04694 7.55112L6.99998 7.00088L6.04694 6.45064L6.54694 5.58461L7.5 6.13486V5.03437H8.5ZM2.25 9H2.75C2.88807 9 3 9.11193 3 9.25V9.75C3 9.88807 2.88807 10 2.75 10H2.25C2.11193 10 2 9.88807 2 9.75V9.25C2 9.11193 2.11193 9 2.25 9ZM2.25 11H2.75C2.88807 11 3 11.1119 3 11.25V11.75C3 11.8881 2.88807 12 2.75 12H2.25C2.11193 12 2 11.8881 2 11.75V11.25C2 11.1119 2.11193 11 2.25 11ZM2 13.25C2 13.1119 2.11193 13 2.25 13H2.75C2.88807 13 3 13.1119 3 13.25V13.75C3 13.8881 2.88807 14 2.75 14H2.25C2.11193 14 2 13.8881 2 13.75V13.25ZM13.25 9H13.75C13.8881 9 14 9.11193 14 9.25V9.75C14 9.88807 13.8881 10 13.75 10H13.25C13.1119 10 13 9.88807 13 9.75V9.25C13 9.11193 13.1119 9 13.25 9ZM13 11.25C13 11.1119 13.1119 11 13.25 11H13.75C13.8881 11 14 11.1119 14 11.25V11.75C14 11.8881 13.8881 12 13.75 12H13.25C13.1119 12 13 11.8881 13 11.75V11.25ZM13.25 13H13.75C13.8881 13 14 13.1119 14 13.25V13.75C14 13.8881 13.8881 14 13.75 14H13.25C13.1119 14 13 13.8881 13 13.75V13.25C13 13.1119 13.1119 13 13.25 13Z" fill="black"/>
</svg>
