<svg width="16" height="16" viewBox="0 0 16 16" fill="none" xmlns="http://www.w3.org/2000/svg">
<path d="M2 14.5C2 14.7762 2.22386 15 2.5 15H13.5C13.7761 15 14 14.7762 14 14.5C14 14.2239 13.7761 14 13.5 14H12.5V13C12.5 11.2099 11.4547 9.66493 9.94345 8.9403C9.65355 8.8013 9.5 8.56317 9.5 8.35083V7.64919C9.5 7.43685 9.65355 7.19872 9.94345 7.05972C11.4547 6.33509 12.5 4.7901 12.5 3V2.00001L13.5 2.00002C13.7761 2.00003 14 1.77617 14 1.50003C14 1.22389 13.7761 1.00003 13.5 1.00002L2.5 1C2.22386 1 2 1.22386 2 1.5C2 1.77614 2.22386 2 2.5 2H3.5V3C3.5 4.7901 4.54528 6.33509 6.05655 7.05972C6.34645 7.19872 6.5 7.43685 6.5 7.64919V8.35083C6.5 8.56317 6.34645 8.8013 6.05655 8.9403C4.54528 9.66493 3.5 11.2099 3.5 13V14H2.5C2.22386 14 2 14.2239 2 14.5ZM4.5 14V13C4.5 11.609 5.31139 10.4066 6.4889 9.842C7.02187 9.58646 7.5 9.05106 7.5 8.35083V7.64919C7.5 7.64919 7.68 7.75 8 7.75C8.32 7.75 8.5 7.64919 8.5 7.64919V8.35083C8.5 9.05106 8.97813 9.58646 9.5111 9.842C10.6886 10.4066 11.5 11.609 11.5 13V14H4.5Z" fill="black"/>
</svg>
