<svg width="16" height="16" viewBox="0 0 16 16" fill="none" xmlns="http://www.w3.org/2000/svg">
<path d="M2 1.5C2 1.22386 2.22386 1 2.5 1H13.5C13.7761 1 14 1.22386 14 1.5C14 1.77614 13.7761 2 13.5 2H12.5V3C12.5 4.7901 11.4547 6.33509 9.94345 7.05972C9.65355 7.19872 9.5 7.43685 9.5 7.64919V8.35083C9.5 8.56317 9.65355 8.8013 9.94345 8.9403C11.4547 9.66493 12.5 11.2099 12.5 13V14L13.5 14C13.7761 14 14 14.2239 14 14.5C14 14.7761 13.7761 15 13.5 15L2.5 15C2.22386 15 2 14.7762 2 14.5C2 14.2239 2.22386 14 2.5 14H3.5V13C3.5 11.2099 4.54528 9.66493 6.05655 8.9403C6.34645 8.8013 6.5 8.56317 6.5 8.35083V7.64919C6.5 7.43685 6.34645 7.19872 6.05655 7.05972C4.54528 6.33509 3.5 4.7901 3.5 3V2H2.5C2.22386 2 2 1.77614 2 1.5ZM4.5 2V3C4.5 4.39097 5.31139 5.59342 6.4889 6.15802C7.02187 6.41357 7.5 6.94896 7.5 7.64919V8.35083C7.5 8.35083 7.68 8.5 8 8.5C8.32 8.5 8.5 8.35083 8.5 8.35083V7.64919C8.5 6.94896 8.97813 6.41357 9.5111 6.15802C10.6886 5.59342 11.5 4.39097 11.5 3V2H4.5Z" fill="black"/>
</svg>
