<svg width="16" height="16" viewBox="0 0 16 16" fill="none" xmlns="http://www.w3.org/2000/svg">
<path d="M2.5 15C2.22386 15 2 14.7762 2 14.5C2 14.2239 2.22386 14 2.5 14H3.5V13C3.5 11.2099 4.54528 9.66493 6.05655 8.9403C6.34645 8.8013 6.5 8.56317 6.5 8.35083V7.64919C6.5 7.43685 6.34645 7.19872 6.05655 7.05972C4.54528 6.33509 3.5 4.7901 3.5 3V2H2.5C2.22386 2 2 1.77614 2 1.5C2 1.22386 2.22386 1 2.5 1L13.5 1.00002C13.7761 1.00003 14 1.22389 14 1.50003C14 1.77617 13.7761 2.00003 13.5 2.00002L12.5 2.00001V3C12.5 4.7901 11.4547 6.33509 9.94345 7.05972C9.65355 7.19872 9.5 7.43685 9.5 7.64919V8.35083C9.5 8.56317 9.65355 8.8013 9.94345 8.9403C11.4547 9.66493 12.5 11.2099 12.5 13V14H13.5C13.7761 14 14 14.2239 14 14.5C14 14.7762 13.7761 15 13.5 15H2.5ZM4.5 2.00002V3.00002C4.5 3.5367 4.62078 4.04531 4.83678 4.50004H11.1632C11.3792 4.04531 11.5 3.5367 11.5 3.00002V2.00002H4.5ZM7.5 8.35085C7.5 9.05108 7.02187 9.58648 6.4889 9.84203C5.31139 10.4066 4.5 11.6091 4.5 13C4.5 13 5.36574 11.7014 7.5 11.5208V8.35085ZM8.5 8.35085V11.5208C10.6343 11.7014 11.5 13 11.5 13C11.5 11.6091 10.6886 10.4066 9.5111 9.84203C8.97813 9.58648 8.5 9.05108 8.5 8.35085Z" fill="black"/>
</svg>
