<svg width="16" height="16" viewBox="0 0 16 16" fill="none" xmlns="http://www.w3.org/2000/svg">
<path d="M7.20711 1.00005C6.81658 0.609522 6.18342 0.609522 5.79289 1.00005L0.146447 6.64649C-0.0488155 6.84176 -0.0488155 7.15834 0.146447 7.3536C0.341709 7.54886 0.658291 7.54886 0.853553 7.3536L1 7.20715V12.5C1 13.3285 1.67157 14 2.5 14H3.05001C3.01722 13.8385 3 13.6713 3 13.5V9.41463C2.79527 9.34243 2.60309 9.22445 2.43934 9.06071C1.85355 8.47492 1.85355 7.52517 2.43934 6.93939L7.79289 1.58583L7.20711 1.00005Z" fill="black"/>
<path d="M8.79289 2.00005C9.18342 1.60952 9.81658 1.60952 10.2071 2.00005L12 3.79294V2.50005C12 2.2239 12.2239 2.00005 12.5 2.00005H13.5C13.7761 2.00005 14 2.2239 14 2.50005V5.79294L15.8536 7.64649C16.0488 7.84176 16.0488 8.15834 15.8536 8.3536C15.6583 8.54886 15.3417 8.54886 15.1464 8.3536L15 8.20715V13.5C15 14.3285 14.3284 15 13.5 15H5.5C4.67157 15 4 14.3285 4 13.5V8.20715L3.85355 8.3536C3.65829 8.54886 3.34171 8.54886 3.14645 8.3536C2.95118 8.15834 2.95118 7.84176 3.14645 7.64649L8.79289 2.00005Z" fill="black"/>
</svg>
