<svg width="16" height="16" viewBox="0 0 16 16" fill="none" xmlns="http://www.w3.org/2000/svg">
<path d="M8.70711 1.50005C8.31658 1.10952 7.68342 1.10952 7.29289 1.50005L0.646447 8.14649C0.451184 8.34176 0.451184 8.65834 0.646447 8.8536C0.841709 9.04886 1.15829 9.04886 1.35355 8.8536L2 8.20715V13.5C2 14.3285 2.67157 15 3.5 15H12.5C13.3284 15 14 14.3285 14 13.5V8.20715L14.6464 8.8536C14.8417 9.04886 15.1583 9.04886 15.3536 8.8536C15.5488 8.65834 15.5488 8.34176 15.3536 8.14649L13 5.79294V2.50005C13 2.2239 12.7761 2.00005 12.5 2.00005H11.5C11.2239 2.00005 11 2.2239 11 2.50005V3.79294L8.70711 1.50005ZM13 7.20715V13.5C13 13.7762 12.7761 14 12.5 14H3.5C3.22386 14 3 13.7762 3 13.5V7.20715L8 2.20715L13 7.20715Z" fill="black"/>
</svg>
