<svg width="16" height="16" viewBox="0 0 16 16" fill="none" xmlns="http://www.w3.org/2000/svg">
<path d="M7.29289 1.50005C7.68342 1.10952 8.31658 1.10952 8.70711 1.50005L11 3.79294V2.50005C11 2.2239 11.2239 2.00005 11.5 2.00005H12.5C12.7761 2.00005 13 2.2239 13 2.50005V5.79294L15.3536 8.14649C15.5488 8.34176 15.5488 8.65834 15.3536 8.8536C15.1583 9.04886 14.8417 9.04886 14.6464 8.8536L8 2.20715L3 7.20715V13.5C3 13.7762 3.22386 14 3.5 14L7.5 14C7.77614 14 8 14.2239 8 14.5C8 14.7762 7.77614 15 7.5 15L3.5 15C2.67157 15 2 14.3285 2 13.5V8.20715L1.35355 8.8536C1.15829 9.04886 0.841709 9.04886 0.646447 8.8536C0.451184 8.65834 0.451184 8.34176 0.646447 8.14649L7.29289 1.50005Z" fill="black"/>
<path d="M12.5 16C14.433 16 16 14.433 16 12.5C16 10.567 14.433 9.00005 12.5 9.00005C10.567 9.00005 9 10.567 9 12.5C9 14.433 10.567 16 12.5 16ZM14.1787 11.5073L12.8435 13.7327C12.5924 14.1511 12.0151 14.2222 11.67 13.8772L10.8964 13.1036C10.7012 12.9083 10.7012 12.5918 10.8964 12.3965C11.0917 12.2012 11.4083 12.2012 11.6036 12.3965L12.1507 12.9437L13.3213 10.9928C13.4633 10.756 13.7705 10.6792 14.0072 10.8213C14.244 10.9634 14.3208 11.2705 14.1787 11.5073Z" fill="black"/>
</svg>
