<svg width="16" height="16" viewBox="0 0 16 16" fill="none" xmlns="http://www.w3.org/2000/svg">
<path d="M12.5 16C14.433 16 16 14.433 16 12.5C16 10.567 14.433 9.00005 12.5 9.00005C10.567 9.00005 9 10.567 9 12.5C9 14.433 10.567 16 12.5 16ZM12.8536 10.1465L14.3536 11.6465C14.5488 11.8418 14.5488 12.1583 14.3536 12.3536C14.1583 12.5489 13.8417 12.5489 13.6464 12.3536L13 11.7072V14.5C13 14.7762 12.7761 15 12.5 15C12.2239 15 12 14.7762 12 14.5V11.7072L11.3536 12.3536C11.1583 12.5489 10.8417 12.5489 10.6464 12.3536C10.4512 12.1583 10.4512 11.8418 10.6464 11.6465L12.1464 10.1465C12.2402 10.0527 12.3674 10 12.5 10C12.6326 10 12.7598 10.0527 12.8536 10.1465Z" fill="black"/>
<path d="M8.70711 1.50005C8.31658 1.10952 7.68342 1.10952 7.29289 1.50005L0.646447 8.14649C0.451184 8.34176 0.451184 8.65834 0.646447 8.8536C0.841709 9.04886 1.15829 9.04886 1.35355 8.8536L8 2.20715L14.6464 8.8536C14.8417 9.04886 15.1583 9.04886 15.3536 8.8536C15.5488 8.65834 15.5488 8.34176 15.3536 8.14649L13 5.79294V2.50005C13 2.2239 12.7761 2.00005 12.5 2.00005H11.5C11.2239 2.00005 11 2.2239 11 2.50005V3.79294L8.70711 1.50005Z" fill="black"/>
<path d="M8 3.29294L12.712 8.00495C12.6418 8.00169 12.5711 8.00005 12.5 8.00005C10.0147 8.00005 8 10.0148 8 12.5C8 13.4251 8.27914 14.285 8.75777 15H3.5C2.67157 15 2 14.3285 2 13.5V9.29294L8 3.29294Z" fill="black"/>
</svg>
