<svg width="16" height="16" viewBox="0 0 16 16" fill="none" xmlns="http://www.w3.org/2000/svg">
<path d="M7.29289 1.49992C7.68342 1.1094 8.31658 1.1094 8.70711 1.49992L11 3.79282V2.49992C11 2.22378 11.2239 1.99992 11.5 1.99992H12.5C12.7761 1.99992 13 2.22378 13 2.49992V5.79282L15.3536 8.14637C15.5488 8.34163 15.5488 8.65822 15.3536 8.85348C15.1583 9.04874 14.8417 9.04874 14.6464 8.85348L8 2.20703L1.35355 8.85348C1.15829 9.04874 0.841709 9.04874 0.646447 8.85348C0.451184 8.65822 0.451184 8.34163 0.646447 8.14637L7.29289 1.49992Z" fill="black"/>
<path d="M14 9.29282L8 3.29282L2 9.29282V13.4999C2 14.3284 2.67157 14.9999 3.5 14.9999H12.5C13.3284 14.9999 14 14.3284 14 13.4999V9.29282ZM8 8.48168C9.66439 6.80895 13.8254 9.73623 8 13.4999C2.17465 9.73623 6.33561 6.80895 8 8.48168Z" fill="black"/>
</svg>
