<svg width="16" height="16" viewBox="0 0 16 16" fill="none" xmlns="http://www.w3.org/2000/svg">
<path d="M5.79289 1.00005C6.18342 0.609523 6.81658 0.609522 7.20711 1.00005L7.85355 1.64649C8.04882 1.84176 8.04882 2.15834 7.85355 2.3536C7.65829 2.54886 7.34171 2.54886 7.14645 2.3536L6.5 1.70715L2 6.20715V12.5C2 12.7762 2.22386 13 2.5 13C2.77614 13 3 13.2239 3 13.5C3 13.7762 2.77614 14 2.5 14C1.67157 14 1 13.3285 1 12.5V7.20715L0.853553 7.3536C0.658291 7.54886 0.341709 7.54886 0.146447 7.3536C-0.0488156 7.15834 -0.0488156 6.84176 0.146447 6.64649L5.79289 1.00005ZM8.79289 2.00005C9.18342 1.60952 9.81658 1.60952 10.2071 2.00005L12 3.79294V2.50005C12 2.2239 12.2239 2.00005 12.5 2.00005H13.5C13.7761 2.00005 14 2.2239 14 2.50005V5.79294L15.8536 7.64649C16.0488 7.84176 16.0488 8.15834 15.8536 8.3536C15.6583 8.54886 15.3417 8.54886 15.1464 8.3536L15 8.20715V13.5C15 14.3285 14.3284 15 13.5 15H5.5C4.67157 15 4 14.3285 4 13.5V8.20715L3.85355 8.3536C3.65829 8.54886 3.34171 8.54886 3.14645 8.3536C2.95118 8.15834 2.95118 7.84176 3.14645 7.64649L8.79289 2.00005ZM9.5 2.70715L5 7.20715V13.5C5 13.7762 5.22386 14 5.5 14H13.5C13.7761 14 14 13.7762 14 13.5V7.20715L9.5 2.70715Z" fill="black"/>
</svg>
