<svg width="16" height="16" viewBox="0 0 16 16" fill="none" xmlns="http://www.w3.org/2000/svg">
<path d="M8 6.98174C9.66439 5.30901 13.8254 8.23629 8 11.9999C2.17465 8.23629 6.33561 5.30901 8 6.98174Z" fill="black"/>
<path d="M8.70711 1.49992C8.31658 1.1094 7.68342 1.1094 7.29289 1.49992L0.646447 8.14637C0.451184 8.34163 0.451184 8.65822 0.646447 8.85348C0.841709 9.04874 1.15829 9.04874 1.35355 8.85348L2 8.20703V13.4999C2 14.3284 2.67157 14.9999 3.5 14.9999H12.5C13.3284 14.9999 14 14.3284 14 13.4999V8.20703L14.6464 8.85348C14.8417 9.04874 15.1583 9.04874 15.3536 8.85348C15.5488 8.65822 15.5488 8.34163 15.3536 8.14637L13 5.79282V2.49992C13 2.22378 12.7761 1.99992 12.5 1.99992H11.5C11.2239 1.99992 11 2.22378 11 2.49992V3.79282L8.70711 1.49992ZM13 7.20703V13.4999C13 13.7761 12.7761 13.9999 12.5 13.9999H3.5C3.22386 13.9999 3 13.7761 3 13.4999V7.20703L8 2.20703L13 7.20703Z" fill="black"/>
</svg>
