<svg width="16" height="16" viewBox="0 0 16 16" fill="none" xmlns="http://www.w3.org/2000/svg">
<path d="M7.29289 1.50005C7.68342 1.10952 8.31658 1.10952 8.70711 1.50005L11 3.79294V2.50005C11 2.2239 11.2239 2.00005 11.5 2.00005H12.5C12.7761 2.00005 13 2.2239 13 2.50005V5.79294L15.3536 8.14649C15.5488 8.34175 15.5488 8.65834 15.3536 8.8536C15.1583 9.04886 14.8417 9.04886 14.6464 8.8536L8 2.20715L1.35355 8.8536C1.15829 9.04886 0.841709 9.04886 0.646447 8.8536C0.451184 8.65834 0.451184 8.34175 0.646447 8.14649L7.29289 1.50005Z" fill="black"/>
<path d="M11.0696 9.04686C10.5087 8.75562 9.80226 8.84264 9.32817 9.30795L9.30795 9.32817C8.84263 9.80226 8.7556 10.5087 9.04685 11.0697C8.43991 11.2618 8 11.8296 8 12.5C8 13.1705 8.43991 13.7382 9.04685 13.9303C8.87461 14.2621 8.83467 14.6447 8.927 15L3.5 15C2.67157 15 2 14.3285 2 13.5V9.29294L8 3.29294L12.7237 8.01657C12.6507 8.00566 12.576 8.00005 12.5 8.00005C11.8295 8.00005 11.2617 8.43992 11.0696 9.04686Z" fill="black"/>
<path d="M13.1583 9.60818L13.1145 9.45959C12.9339 8.84686 12.0661 8.84686 11.8855 9.45959L11.8417 9.60818C11.7263 9.99969 11.2791 10.1849 10.9207 9.98968L10.7846 9.91558C10.2237 9.61002 9.60997 10.2237 9.91553 10.7847L9.98963 10.9207C10.1849 11.2791 9.99964 11.7263 9.60814 11.8417L9.45954 11.8855C8.84682 12.0661 8.84682 12.934 9.45954 13.1146L9.60814 13.1584C9.99964 13.2738 10.1849 13.721 9.98963 14.0794L9.91553 14.2154C9.60997 14.7764 10.2237 15.3901 10.7846 15.0845L10.9207 15.0104C11.2791 14.8152 11.7263 15.0004 11.8417 15.3919L11.8855 15.5405C12.0661 16.1532 12.9339 16.1532 13.1145 15.5405L13.1583 15.3919C13.2737 15.0004 13.7209 14.8152 14.0793 15.0104L14.2154 15.0845C14.7763 15.3901 15.39 14.7764 15.0845 14.2154L15.0104 14.0794C14.8151 13.721 15.0004 13.2738 15.3919 13.1584L15.5405 13.1146C16.1532 12.934 16.1532 12.0661 15.5405 11.8855L15.3919 11.8417C15.0004 11.7263 14.8151 11.2791 15.0104 10.9207L15.0845 10.7847C15.39 10.2237 14.7763 9.61002 14.2154 9.91558L14.0793 9.98968C13.7209 10.1849 13.2737 9.99969 13.1583 9.60818ZM12.5 14C11.6716 14 11 13.3285 11 12.5C11 11.6716 11.6716 11 12.5 11C13.3284 11 14 11.6716 14 12.5C14 13.3285 13.3284 14 12.5 14Z" fill="black"/>
</svg>
