<svg width="16" height="16" viewBox="0 0 16 16" fill="none" xmlns="http://www.w3.org/2000/svg">
<path d="M7.29289 1.50005C7.68342 1.10952 8.31658 1.10952 8.70711 1.50005L11 3.79294V2.50005C11 2.2239 11.2239 2.00005 11.5 2.00005H12.5C12.7761 2.00005 13 2.2239 13 2.50005V5.79294L15.3536 8.14649C15.5488 8.34176 15.5488 8.65834 15.3536 8.8536C15.1583 9.04886 14.8417 9.04886 14.6464 8.8536L8 2.20715L3 7.20715V13.5C3 13.7762 3.22386 14 3.5 14L7.5 14C7.77614 14 8 14.2239 8 14.5C8 14.7762 7.77614 15 7.5 15L3.5 15C2.67157 15 2 14.3285 2 13.5V8.20715L1.35355 8.8536C1.15829 9.04886 0.841709 9.04886 0.646447 8.8536C0.451184 8.65834 0.451184 8.34176 0.646447 8.14649L7.29289 1.50005Z" fill="black"/>
<path d="M12.5 16C14.433 16 16 14.433 16 12.5C16 10.567 14.433 9.00005 12.5 9.00005C10.567 9.00005 9 10.567 9 12.5C9 14.433 10.567 16 12.5 16ZM12.8536 10.1465L14.3536 11.6465C14.5488 11.8418 14.5488 12.1583 14.3536 12.3536C14.1583 12.5489 13.8417 12.5489 13.6464 12.3536L13 11.7072V14.5C13 14.7762 12.7761 15 12.5 15C12.2239 15 12 14.7762 12 14.5V11.7072L11.3536 12.3536C11.1583 12.5489 10.8417 12.5489 10.6464 12.3536C10.4512 12.1583 10.4512 11.8418 10.6464 11.6465L12.1464 10.1465C12.2402 10.0527 12.3674 10 12.5 10C12.6326 10 12.7598 10.0527 12.8536 10.1465Z" fill="black"/>
</svg>
