<svg width="16" height="16" viewBox="0 0 16 16" fill="none" xmlns="http://www.w3.org/2000/svg">
<path d="M7.29289 1.50005C7.68342 1.10952 8.31658 1.10952 8.70711 1.50005L11 3.79294V2.50005C11 2.2239 11.2239 2.00005 11.5 2.00005H12.5C12.7761 2.00005 13 2.2239 13 2.50005V5.79294L15.3536 8.14649C15.5488 8.34176 15.5488 8.65834 15.3536 8.8536C15.1583 9.04886 14.8417 9.04886 14.6464 8.8536L8 2.20715L3 7.20715V13.5C3 13.7762 3.22386 14 3.5 14L7.5 14C7.77614 14 8 14.2239 8 14.5C8 14.7762 7.77614 15 7.5 15L3.5 15C2.67157 15 2 14.3285 2 13.5V8.20715L1.35355 8.8536C1.15829 9.04886 0.841709 9.04886 0.646447 8.8536C0.451184 8.65834 0.451184 8.34176 0.646447 8.14649L7.29289 1.50005Z" fill="black"/>
<path d="M11.8855 9.45959C12.0661 8.84686 12.9339 8.84686 13.1145 9.45959L13.1583 9.60818C13.2737 9.99969 13.7209 10.1849 14.0793 9.98968L14.2154 9.91558C14.7763 9.61002 15.39 10.2237 15.0845 10.7847L15.0104 10.9207C14.8151 11.2791 15.0004 11.7263 15.3919 11.8417L15.5405 11.8855C16.1532 12.0661 16.1532 12.934 15.5405 13.1146L15.3919 13.1584C15.0004 13.2738 14.8151 13.721 15.0104 14.0794L15.0845 14.2154C15.39 14.7764 14.7763 15.3901 14.2154 15.0845L14.0793 15.0104C13.7209 14.8152 13.2737 15.0004 13.1583 15.3919L13.1145 15.5405C12.9339 16.1532 12.0661 16.1532 11.8855 15.5405L11.8417 15.3919C11.7263 15.0004 11.2791 14.8152 10.9207 15.0104L10.7846 15.0845C10.2237 15.3901 9.60997 14.7764 9.91553 14.2154L9.98963 14.0794C10.1849 13.721 9.99964 13.2738 9.60814 13.1584L9.45954 13.1146C8.84682 12.934 8.84682 12.0661 9.45954 11.8855L9.60814 11.8417C9.99964 11.7263 10.1849 11.2791 9.98963 10.9207L9.91553 10.7847C9.60997 10.2237 10.2237 9.61002 10.7846 9.91558L10.9207 9.98968C11.2791 10.1849 11.7263 9.99969 11.8417 9.60818L11.8855 9.45959ZM14 12.5C14 11.6716 13.3284 11 12.5 11C11.6716 11 11 11.6716 11 12.5C11 13.3285 11.6716 14 12.5 14C13.3284 14 14 13.3285 14 12.5Z" fill="black"/>
</svg>
