<svg width="16" height="16" viewBox="0 0 16 16" fill="none" xmlns="http://www.w3.org/2000/svg">
<path d="M8.70711 1.50005C8.31658 1.10952 7.68342 1.10952 7.29289 1.50005L0.646447 8.14649C0.451184 8.34176 0.451184 8.65834 0.646447 8.8536C0.841709 9.04886 1.15829 9.04886 1.35355 8.8536L8 2.20715L14.6464 8.8536C14.8417 9.04886 15.1583 9.04886 15.3536 8.8536C15.5488 8.65834 15.5488 8.34176 15.3536 8.14649L13 5.79294V2.50005C13 2.2239 12.7761 2.00005 12.5 2.00005H11.5C11.2239 2.00005 11 2.2239 11 2.50005V3.79294L8.70711 1.50005Z" fill="black"/>
<path d="M8 3.29294L12.712 8.00495C12.6418 8.00169 12.5711 8.00005 12.5 8.00005C10.0147 8.00005 8 10.0148 8 12.5C8 13.4251 8.27914 14.285 8.75777 15H3.5C2.67157 15 2 14.3285 2 13.5V9.29294L8 3.29294Z" fill="black"/>
<path d="M16 12.5C16 14.433 14.433 16 12.5 16C10.567 16 9 14.433 9 12.5C9 10.567 10.567 9.00005 12.5 9.00005C14.433 9.00005 16 10.567 16 12.5ZM12.5 10.5C12.2239 10.5 12 10.7239 12 11V12.5C12 12.7762 12.2239 13 12.5 13C12.7761 13 13 12.7762 13 12.5V11C13 10.7239 12.7761 10.5 12.5 10.5ZM12.5 14.5C12.7761 14.5 13 14.2762 13 14C13 13.7239 12.7761 13.5 12.5 13.5C12.2239 13.5 12 13.7239 12 14C12 14.2762 12.2239 14.5 12.5 14.5Z" fill="black"/>
</svg>
