<svg width="16" height="16" viewBox="0 0 16 16" fill="none" xmlns="http://www.w3.org/2000/svg">
<path d="M7.29289 1.50005C7.68342 1.10952 8.31658 1.10952 8.70711 1.50005L11 3.79294V2.50005C11 2.2239 11.2239 2.00005 11.5 2.00005H12.5C12.7761 2.00005 13 2.2239 13 2.50005V5.79294L15.3536 8.14649C15.5488 8.34176 15.5488 8.65834 15.3536 8.8536C15.1583 9.04886 14.8417 9.04886 14.6464 8.8536L8 2.20715L3 7.20715V13.5C3 13.7762 3.22386 14 3.5 14L7.5 14C7.77614 14 8 14.2239 8 14.5C8 14.7762 7.77614 15 7.5 15L3.5 15C2.67157 15 2 14.3285 2 13.5V8.20715L1.35355 8.8536C1.15829 9.04886 0.841709 9.04886 0.646447 8.8536C0.451184 8.65834 0.451184 8.34176 0.646447 8.14649L7.29289 1.50005Z" fill="black"/>
<path d="M10 13C10 12.4478 10.4477 12 11 12V11C11 9.89548 11.8954 9.00005 13 9.00005C14.1046 9.00005 15 9.89548 15 11V12C15.5523 12 16 12.4478 16 13V15C16 15.5523 15.5523 16 15 16H11C10.4477 16 10 15.5523 10 15V13ZM13 10C12.4477 10 12 10.4478 12 11V12H14V11C14 10.4478 13.5523 10 13 10Z" fill="black"/>
</svg>
