<svg width="16" height="16" viewBox="0 0 16 16" fill="none" xmlns="http://www.w3.org/2000/svg">
<path d="M8.70711 1.50005C8.31658 1.10952 7.68342 1.10952 7.29289 1.50005L0.646447 8.14649C0.451184 8.34176 0.451184 8.65834 0.646447 8.8536C0.841709 9.04886 1.15829 9.04886 1.35355 8.8536L8 2.20715L14.6464 8.8536C14.8417 9.04886 15.1583 9.04886 15.3536 8.8536C15.5488 8.65834 15.5488 8.34176 15.3536 8.14649L13 5.79294V2.50005C13 2.2239 12.7761 2.00005 12.5 2.00005H11.5C11.2239 2.00005 11 2.2239 11 2.50005V3.79294L8.70711 1.50005Z" fill="black"/>
<path d="M8 3.29285L12.72 8.01285C11.1944 8.15405 10 9.43752 10 11C10 11.0879 10.0038 11.175 10.0112 11.2611C9.40723 11.6053 9 12.2551 9 13V15L3.5 15C2.67157 15 2 14.3284 2 13.5V9.29285L8 3.29285Z" fill="black"/>
<path d="M13 9C11.8954 9 11 9.89543 11 11V12C10.4477 12 10 12.4477 10 13V15C10 15.5523 10.4477 16 11 16H15C15.5523 16 16 15.5523 16 15V13C16 12.4477 15.5523 12 15 12V11C15 9.89543 14.1046 9 13 9ZM13 10C13.5523 10 14 10.4477 14 11V12H12V11C12 10.4477 12.4477 10 13 10Z" fill="black"/>
</svg>
