<svg width="16" height="16" viewBox="0 0 16 16" fill="none" xmlns="http://www.w3.org/2000/svg">
<path d="M6.5 14.5V10.9947C6.5 10.75 6.75 10.5 7 10.5H9C9.25 10.5 9.5 10.75 9.5 11V14.5C9.5 14.7761 9.72386 15 10 15H14C14.2761 15 14.5 14.7761 14.5 14.5V7.5C14.5 7.36739 14.4473 7.24021 14.3536 7.14645L13 5.79289V2.5C13 2.22386 12.7761 2 12.5 2H11.5C11.2239 2 11 2.22386 11 2.5V3.79289L8.35355 1.14645C8.15829 0.951184 7.84171 0.951184 7.64645 1.14645L1.64645 7.14645C1.55268 7.24021 1.5 7.36739 1.5 7.5V14.5C1.5 14.7761 1.72386 15 2 15H6C6.27614 15 6.5 14.7761 6.5 14.5Z" fill="black"/>
</svg>
