<svg width="16" height="16" viewBox="0 0 16 16" fill="none" xmlns="http://www.w3.org/2000/svg">
<path d="M8.70711 1.50005C8.31658 1.10952 7.68342 1.10952 7.29289 1.50005L0.646447 8.14649C0.451184 8.34176 0.451184 8.65834 0.646447 8.8536C0.841709 9.04886 1.15829 9.04886 1.35355 8.8536L8 2.20715L14.6464 8.8536C14.8417 9.04886 15.1583 9.04886 15.3536 8.8536C15.5488 8.65834 15.5488 8.34176 15.3536 8.14649L13 5.79294V2.50005C13 2.2239 12.7761 2.00005 12.5 2.00005H11.5C11.2239 2.00005 11 2.2239 11 2.50005V3.79294L8.70711 1.50005Z" fill="black"/>
<path d="M8 3.29294L12.712 8.00495C12.6418 8.00169 12.5711 8.00005 12.5 8.00005C10.0147 8.00005 8 10.0148 8 12.5C8 13.4251 8.27914 14.285 8.75777 15H3.5C2.67157 15 2 14.3285 2 13.5V9.29294L8 3.29294Z" fill="black"/>
<path d="M13.8789 10.4141C12.9082 9.77098 11.5875 9.87705 10.7322 10.7323C9.877 11.5875 9.77094 12.9082 10.414 13.8789L13.8789 10.4141ZM14.586 11.1212L11.1211 14.586C12.0918 15.2291 13.4125 15.123 14.2678 14.2678C15.123 13.4126 15.2291 12.0919 14.586 11.1212ZM10.0251 10.0252C11.392 8.65834 13.608 8.65834 14.9749 10.0252C16.3417 11.392 16.3417 13.6081 14.9749 14.9749C13.608 16.3418 11.392 16.3418 10.0251 14.9749C8.65829 13.6081 8.65829 11.392 10.0251 10.0252Z" fill="black"/>
</svg>
