<svg width="16" height="16" viewBox="0 0 16 16" fill="none" xmlns="http://www.w3.org/2000/svg">
<path d="M12 3H4C3.44772 3 3 3.44772 3 4V6.5H2V4C2 2.89543 2.89543 2 4 2H12C13.1046 2 14 2.89543 14 4V6.5H13V4C13 3.44772 12.5523 3 12 3Z" fill="black"/>
<path d="M2 9.5H3V12C3 12.5523 3.44772 13 4 13H12C12.5523 13 13 12.5523 13 12V9.5H14V12C14 13.1046 13.1046 14 12 14H4C2.89543 14 2 13.1046 2 12V9.5Z" fill="black"/>
<path d="M0.5 7.5C0.223858 7.5 0 7.72386 0 8C0 8.27614 0.223858 8.5 0.5 8.5H15.5C15.7761 8.5 16 8.27614 16 8C16 7.72386 15.7761 7.5 15.5 7.5H0.5Z" fill="black"/>
</svg>
