<svg width="16" height="16" viewBox="0 0 16 16" fill="none" xmlns="http://www.w3.org/2000/svg">
<path d="M6.999 2.60022C7.74931 2.21647 8.59938 2 9.5 2C12.5376 2 15 4.46243 15 7.5C15 7.77614 15.2239 8 15.5 8C15.7761 8 16 7.77614 16 7.5C16 3.91015 13.0899 1 9.5 1C5.91015 1 3 3.91015 3 7.5C3 10.2614 5.23858 12.5 8 12.5C8.34282 12.5 8.67758 12.4655 9.001 12.3998C8.25069 12.7835 7.40062 13 6.5 13C3.46243 13 1 10.5376 1 7.5C1 7.22386 0.776142 7 0.5 7C0.223858 7 0 7.22386 0 7.5C0 11.0899 2.91015 14 6.5 14C10.0899 14 13 11.0899 13 7.5C13 4.73858 10.7614 2.5 8 2.5C7.65718 2.5 7.32242 2.5345 6.999 2.60022ZM10 7.5C10 8.60457 9.10457 9.5 8 9.5C6.89543 9.5 6 8.60457 6 7.5C6 6.39543 6.89543 5.5 8 5.5C9.10457 5.5 10 6.39543 10 7.5Z" fill="black"/>
</svg>
