<svg width="16" height="16" viewBox="0 0 16 16" fill="none" xmlns="http://www.w3.org/2000/svg">
<path d="M6.99998 2.5C6.99998 3.88071 5.8807 5 4.49998 5C3.11927 5 1.99998 3.88071 1.99998 2.5C1.99998 1.11929 3.11927 0 4.49998 0C5.8807 0 6.99998 1.11929 6.99998 2.5Z" fill="black"/>
<path d="M11.2251 6.5528C11.0326 6.45655 10.8002 6.49428 10.648 6.64646L6.93782 11.3566L4.27888 8.58399C4.08056 8.45178 3.8165 8.47793 3.64797 8.64646L0.00152588 13V15C0.00152588 15.5523 0.449241 16 1.00153 16H15.0015C15.5538 16 16.0015 15.5523 16.0015 15V10.5L11.2251 6.5528Z" fill="black"/>
</svg>
