<svg width="16" height="16" viewBox="0 0 16 16" fill="none" xmlns="http://www.w3.org/2000/svg">
<path d="M0.00152588 3C0.00152588 1.89543 0.896956 1 2.00153 1H14.0015C15.1061 1 16.0015 1.89543 16.0015 3V13C16.0015 14.1046 15.1061 15 14.0015 15H2.00153C0.896956 15 0.00152588 14.1046 0.00152588 13V3ZM1.00153 12V13C1.00153 13.5523 1.44924 14 2.00153 14H14.0015C14.5538 14 15.0015 13.5523 15.0015 13V9.5L11.2251 7.55279C11.0326 7.45654 10.8002 7.49427 10.648 7.64645L6.93782 11.3566L4.27888 9.58397C4.08056 9.45177 3.8165 9.47791 3.64797 9.64645L1.00153 12ZM6.00153 5.5C6.00153 4.67157 5.32995 4 4.50153 4C3.6731 4 3.00153 4.67157 3.00153 5.5C3.00153 6.32843 3.6731 7 4.50153 7C5.32995 7 6.00153 6.32843 6.00153 5.5Z" fill="black"/>
</svg>
