<svg width="16" height="16" viewBox="0 0 16 16" fill="none" xmlns="http://www.w3.org/2000/svg">
<path d="M4.98063 1C4.82874 1 4.68508 1.06904 4.5902 1.18765L1.54032 5H6C6.27615 5 6.5 5.22386 6.5 5.5C6.5 6.32843 7.17158 7 8 7C8.82843 7 9.5 6.32843 9.5 5.5C9.5 5.22386 9.72386 5 10 5H14.4597L11.4098 1.18765C11.3149 1.06904 11.1713 1 11.0194 1H4.98063ZM14.9336 6H10.45C10.2184 7.14112 9.20948 8 8 8C6.79053 8 5.78165 7.14112 5.55001 6H1.0664L1.38665 8.56202C1.41793 8.81223 1.63063 9 1.88279 9H14.1172C14.3694 9 14.5821 8.81223 14.6134 8.56202L14.9336 6ZM3.80933 0.562957C4.09399 0.207134 4.52495 0 4.98063 0H11.0194C11.4751 0 11.906 0.207135 12.1907 0.562957L15.8904 5.18765C15.9748 5.29306 16.0129 5.42808 15.9961 5.56202L15.6056 8.68605C15.5118 9.4367 14.8737 10 14.1172 10H1.88279C1.1263 10 0.488201 9.4367 0.39437 8.68605L0.00386594 5.56202C-0.0128766 5.42808 0.0252471 5.29306 0.10957 5.18765L3.80933 0.562957Z" fill="black"/>
<path d="M0.125164 11.1691C0.220076 11.0616 0.356587 11 0.500003 11H6C6.27615 11 6.5 11.2239 6.5 11.5C6.5 12.3284 7.17158 13 8 13C8.82843 13 9.5 12.3284 9.5 11.5C9.5 11.2239 9.72386 11 10 11H15.5C15.6434 11 15.7799 11.0616 15.8748 11.1691C15.9698 11.2766 16.0139 11.4197 15.9961 11.562L15.6056 14.6861C15.5118 15.4367 14.8737 16 14.1172 16H1.88279C1.1263 16 0.488199 15.4367 0.394368 14.6861L0.00386388 11.562C-0.0139246 11.4197 0.030251 11.2766 0.125164 11.1691ZM1.06639 12L1.38665 14.562C1.41792 14.8122 1.63062 15 1.88279 15H14.1172C14.3694 15 14.5821 14.8122 14.6134 14.562L14.9336 12H10.45C10.2184 13.1411 9.20948 14 8 14C6.79052 14 5.78165 13.1411 5.55001 12H1.06639Z" fill="black"/>
</svg>
