<svg width="16" height="16" viewBox="0 0 16 16" fill="none" xmlns="http://www.w3.org/2000/svg">
<path d="M4.98063 4C4.82873 4 4.68508 4.06904 4.59019 4.18765L1.54031 8H6C6.27614 8 6.5 8.22386 6.5 8.5C6.5 9.32843 7.17157 10 8 10C8.82843 10 9.5 9.32843 9.5 8.5C9.5 8.22386 9.72386 8 10 8H14.4597L11.4098 4.18765C11.3149 4.06904 11.1713 4 11.0194 4H4.98063ZM14.9336 9H10.45C10.2184 10.1411 9.20948 11 8 11C6.79052 11 5.78165 10.1411 5.55001 9H1.06639L1.38665 11.562C1.41792 11.8122 1.63062 12 1.88278 12H14.1172C14.3694 12 14.5821 11.8122 14.6134 11.562L14.9336 9ZM3.80932 3.56296C4.09398 3.20713 4.52495 3 4.98063 3H11.0194C11.4751 3 11.906 3.20713 12.1907 3.56296L15.8904 8.18765C15.9748 8.29306 16.0129 8.42808 15.9961 8.56202L15.6056 11.6861C15.5118 12.4367 14.8737 13 14.1172 13H1.88278C1.1263 13 0.488198 12.4367 0.394367 11.6861L0.00386313 8.56202C-0.0128795 8.42808 0.0252443 8.29306 0.109568 8.18765L3.80932 3.56296Z" fill="black"/>
</svg>
