<svg width="16" height="16" viewBox="0 0 16 16" fill="none" xmlns="http://www.w3.org/2000/svg">
<path fill-rule="evenodd" clip-rule="evenodd" d="M4.73611 1.96761L3.84449 5.23689C3.8392 5.25628 3.83451 5.27566 3.83042 5.29502C2.11291 5.56837 1 6.00634 1 6.5C1 7.32843 4.13401 8 8 8C11.866 8 15 7.32843 15 6.5C15 6.00633 13.8871 5.56837 12.1696 5.29502C12.1655 5.27566 12.1608 5.25628 12.1555 5.23688L11.2639 1.96761C11.1183 1.43368 10.5664 1.11835 10.0251 1.23327C9.41115 1.36359 8.62038 1.5 8 1.5C7.37962 1.5 6.58885 1.36359 5.97494 1.23327C5.43357 1.11835 4.88172 1.43368 4.73611 1.96761ZM4.75128 5.83468C4.76527 5.69732 4.88796 5.5973 5.02532 5.61129C5.92553 5.70293 6.9342 5.75435 8 5.75435C9.0658 5.75435 10.0745 5.70293 10.9747 5.61129C11.112 5.5973 11.2347 5.69732 11.2487 5.83468C11.2627 5.97205 11.1627 6.09473 11.0253 6.10872C10.107 6.2022 9.08139 6.25435 8 6.25435C6.9186 6.25435 5.89298 6.2022 4.97468 6.10872C4.83732 6.09473 4.7373 5.97205 4.75128 5.83468ZM3.5 10H5.5C5.77614 10 6 10.2239 6 10.5V11.5C6 12.3284 5.32843 13 4.5 13C3.67157 13 3 12.3284 3 11.5V10.5C3 10.2239 3.22386 10 3.5 10ZM2 10.5C2 10.3247 2.03008 10.1564 2.08535 10H2C1.72386 10 1.5 9.77614 1.5 9.5C1.5 9.22386 1.72386 9 2 9H3.5H5.5C6.26465 9 6.89567 9.57215 6.98829 10.3117C7.64803 10.1125 8.35197 10.1125 9.01171 10.3117C9.10433 9.57215 9.73535 9 10.5 9H12.5H14C14.2761 9 14.5 9.22386 14.5 9.5C14.5 9.77614 14.2761 10 14 10H13.9146C13.9699 10.1564 14 10.3247 14 10.5V11.5C14 12.8807 12.8807 14 11.5 14C10.1193 14 9 12.8807 9 11.5V11.3604L8.79057 11.2906C8.2774 11.1195 7.7226 11.1195 7.20943 11.2906L7 11.3604V11.5C7 12.8807 5.88071 14 4.5 14C3.11929 14 2 12.8807 2 11.5V10.5ZM10.5 10H12.5C12.7761 10 13 10.2239 13 10.5V11.5C13 12.3284 12.3284 13 11.5 13C10.6716 13 10 12.3284 10 11.5V10.5C10 10.2239 10.2239 10 10.5 10Z" fill="black"/>
</svg>
