<svg width="16" height="16" viewBox="0 0 16 16" fill="none" xmlns="http://www.w3.org/2000/svg">
<path fill-rule="evenodd" clip-rule="evenodd" d="M3 8C3 7.72386 3.22386 7.5 3.5 7.5H10.2929L8.14645 5.35355C7.95118 5.15829 7.95118 4.84171 8.14645 4.64645C8.34171 4.45118 8.65829 4.45118 8.85355 4.64645L11.8536 7.64645C12.0488 7.84171 12.0488 8.15829 11.8536 8.35355L8.85355 11.3536C8.65829 11.5488 8.34171 11.5488 8.14645 11.3536C7.95118 11.1583 7.95118 10.8417 8.14645 10.6464L10.2929 8.5H3.5C3.22386 8.5 3 8.27614 3 8Z" fill="black"/>
<path fill-rule="evenodd" clip-rule="evenodd" d="M12.5 4C12.7761 4 13 4.22386 13 4.5V11.5C13 11.7761 12.7761 12 12.5 12C12.2239 12 12 11.7761 12 11.5V4.5C12 4.22386 12.2239 4 12.5 4Z" fill="black"/>
</svg>
