<svg width="16" height="16" viewBox="0 0 16 16" fill="none" xmlns="http://www.w3.org/2000/svg">
<path d="M9.70753 6.07474L6.68433 6.45361L6.57608 6.95619L7.17144 7.06443C7.55804 7.15722 7.63536 7.29639 7.55031 7.68299L6.57608 12.2603C6.32093 13.4433 6.71526 14 7.64309 14C8.36216 14 9.19722 13.6675 9.57608 13.2113L9.69206 12.6624C9.42918 12.8943 9.04258 12.9871 8.78742 12.9871C8.42402 12.9871 8.29258 12.732 8.38536 12.2835L9.70753 6.07474Z" fill="black"/>
<path d="M9.79897 3.31959C9.79897 4.04838 9.20817 4.63918 8.47938 4.63918C7.75059 4.63918 7.15979 4.04838 7.15979 3.31959C7.15979 2.5908 7.75059 2 8.47938 2C9.20817 2 9.79897 2.5908 9.79897 3.31959Z" fill="black"/>
</svg>
