<svg width="16" height="16" viewBox="0 0 16 16" fill="none" xmlns="http://www.w3.org/2000/svg">
<path d="M7.5 3.75C7.5 4.16421 7.16421 4.5 6.75 4.5C6.33579 4.5 6 4.16421 6 3.75C6 3.33579 6.33579 3 6.75 3C7.16421 3 7.5 3.33579 7.5 3.75Z" fill="black"/>
<path d="M6.63868 5.29199L7.96815 6.17831L9.82322 4.32323C9.89931 4.24714 10.0156 4.22828 10.1118 4.2764L11 4.75V7.00001C11 7.27615 10.7761 7.50001 10.5 7.50001H5.5C5.22386 7.50001 5 7.27615 5 7.00001V6.50001C5 6.50001 6.53952 5.22589 6.63868 5.29199Z" fill="black"/>
<path d="M5 9.5C5 9.22386 5.22386 9 5.5 9H10.5C10.7761 9 11 9.22386 11 9.5C11 9.77614 10.7761 10 10.5 10H5.5C5.22386 10 5 9.77614 5 9.5Z" fill="black"/>
<path d="M5 11.5C5 11.2239 5.22386 11 5.5 11H7.5C7.77614 11 8 11.2239 8 11.5C8 11.7761 7.77614 12 7.5 12H5.5C5.22386 12 5 11.7761 5 11.5Z" fill="black"/>
<path d="M3 0H13C14.1046 0 15 0.89543 15 2V14C15 15.1046 14.1046 16 13 16H3C1.89543 16 1 15.1046 1 14V13H2V14C2 14.5523 2.44772 15 3 15H13C13.5523 15 14 14.5523 14 14V2C14 1.44772 13.5523 1 13 1H3C2.44772 1 2 1.44772 2 2V3H1V2C1 0.89543 1.89543 0 3 0Z" fill="black"/>
<path d="M1 5V4.5C1 4.22386 1.22386 4 1.5 4C1.77614 4 2 4.22386 2 4.5V5H2.5C2.77614 5 3 5.22386 3 5.5C3 5.77614 2.77614 6 2.5 6H0.5C0.223858 6 0 5.77614 0 5.5C0 5.22386 0.223858 5 0.5 5H1Z" fill="black"/>
<path d="M1 8V7.5C1 7.22386 1.22386 7 1.5 7C1.77614 7 2 7.22386 2 7.5V8H2.5C2.77614 8 3 8.22386 3 8.5C3 8.77614 2.77614 9 2.5 9H0.5C0.223858 9 0 8.77614 0 8.5C0 8.22386 0.223858 8 0.5 8H1Z" fill="black"/>
<path d="M1 11V10.5C1 10.2239 1.22386 10 1.5 10C1.77614 10 2 10.2239 2 10.5V11H2.5C2.77614 11 3 11.2239 3 11.5C3 11.7761 2.77614 12 2.5 12H0.5C0.223858 12 0 11.7761 0 11.5C0 11.2239 0.223858 11 0.5 11H1Z" fill="black"/>
</svg>
