<svg width="16" height="16" viewBox="0 0 16 16" fill="none" xmlns="http://www.w3.org/2000/svg">
<path fill-rule="evenodd" clip-rule="evenodd" d="M8 11C8.27614 11 8.5 10.7761 8.5 10.5V6.70711L9.64645 7.85355C9.84171 8.04882 10.1583 8.04882 10.3536 7.85355C10.5488 7.65829 10.5488 7.34171 10.3536 7.14645L8.35355 5.14645C8.15829 4.95118 7.84171 4.95118 7.64645 5.14645L5.64645 7.14645C5.45118 7.34171 5.45118 7.65829 5.64645 7.85355C5.84171 8.04882 6.15829 8.04882 6.35355 7.85355L7.5 6.70711V10.5C7.5 10.7761 7.72386 11 8 11Z" fill="black"/>
<path d="M3 0H13C14.1046 0 15 0.89543 15 2V14C15 15.1046 14.1046 16 13 16H3C1.89543 16 1 15.1046 1 14V13H2V14C2 14.5523 2.44772 15 3 15H13C13.5523 15 14 14.5523 14 14V2C14 1.44772 13.5523 1 13 1H3C2.44772 1 2 1.44772 2 2V3H1V2C1 0.89543 1.89543 0 3 0Z" fill="black"/>
<path d="M1 5V4.5C1 4.22386 1.22386 4 1.5 4C1.77614 4 2 4.22386 2 4.5V5H2.5C2.77614 5 3 5.22386 3 5.5C3 5.77614 2.77614 6 2.5 6H0.5C0.223858 6 0 5.77614 0 5.5C0 5.22386 0.223858 5 0.5 5H1Z" fill="black"/>
<path d="M1 8V7.5C1 7.22386 1.22386 7 1.5 7C1.77614 7 2 7.22386 2 7.5V8H2.5C2.77614 8 3 8.22386 3 8.5C3 8.77614 2.77614 9 2.5 9H0.5C0.223858 9 0 8.77614 0 8.5C0 8.22386 0.223858 8 0.5 8H1Z" fill="black"/>
<path d="M1 11V10.5C1 10.2239 1.22386 10 1.5 10C1.77614 10 2 10.2239 2 10.5V11H2.5C2.77614 11 3 11.2239 3 11.5C3 11.7761 2.77614 12 2.5 12H0.5C0.223858 12 0 11.7761 0 11.5C0 11.2239 0.223858 11 0.5 11H1Z" fill="black"/>
</svg>
