<svg width="16" height="16" viewBox="0 0 16 16" fill="none" xmlns="http://www.w3.org/2000/svg">
<path d="M5 0H13C14.1046 0 15 0.89543 15 2V12C15 13.1046 14.1046 14 13 14C13 15.1046 12.1046 16 11 16H3C1.89543 16 1 15.1046 1 14H2C2 14.5523 2.44772 15 3 15H11C11.5523 15 12 14.5523 12 14V4C12 3.44772 11.5523 3 11 3H3C2.44772 3 2 3.44772 2 4H1C1 2.89543 1.89543 2 3 2H11C12.1046 2 13 2.89543 13 4V13C13.5523 13 14 12.5523 14 12V2C14 1.44772 13.5523 1 13 1H5C4.44772 1 4 1.44772 4 2L3 2C3 0.89543 3.89543 0 5 0Z" fill="black"/>
<path d="M1 6V5.5C1 5.22386 1.22386 5 1.5 5C1.77614 5 2 5.22386 2 5.5V6H2.5C2.77614 6 3 6.22386 3 6.5C3 6.77614 2.77614 7 2.5 7H0.5C0.223858 7 0 6.77614 0 6.5C0 6.22386 0.223858 6 0.5 6H1Z" fill="black"/>
<path d="M1 9V8.5C1 8.22386 1.22386 8 1.5 8C1.77614 8 2 8.22386 2 8.5V9H2.5C2.77614 9 3 9.22386 3 9.5C3 9.77614 2.77614 10 2.5 10H0.5C0.223858 10 0 9.77614 0 9.5C0 9.22386 0.223858 9 0.5 9H1Z" fill="black"/>
<path d="M1 11.5V12H0.5C0.223858 12 0 12.2239 0 12.5C0 12.7761 0.223858 13 0.5 13H2.5C2.77614 13 3 12.7761 3 12.5C3 12.2239 2.77614 12 2.5 12H2V11.5C2 11.2239 1.77614 11 1.5 11C1.22386 11 1 11.2239 1 11.5Z" fill="black"/>
</svg>
