<svg width="16" height="16" viewBox="0 0 16 16" fill="none" xmlns="http://www.w3.org/2000/svg">
<path fill-rule="evenodd" clip-rule="evenodd" d="M8 4C8.27614 4 8.5 4.22386 8.5 4.5V5.13397L9.04904 4.81699C9.28818 4.67892 9.59398 4.76085 9.73205 5C9.87012 5.23915 9.78818 5.54494 9.54903 5.68301L9 6L9.54904 6.31699C9.78819 6.45506 9.87012 6.76085 9.73205 7C9.59398 7.23915 9.28819 7.32108 9.04904 7.18301L8.5 6.86602V7.5C8.5 7.77614 8.27614 8 8 8C7.72385 8 7.5 7.77614 7.5 7.5V6.86602L6.95096 7.18301C6.71181 7.32108 6.40602 7.23915 6.26795 7C6.12987 6.76085 6.21181 6.45506 6.45096 6.31699L7 6L6.45096 5.68301C6.21182 5.54494 6.12988 5.23915 6.26795 5C6.40602 4.76085 6.71182 4.67892 6.95096 4.81699L7.5 5.13397V4.5C7.5 4.22386 7.72385 4 8 4ZM5 9.5C5 9.22386 5.22386 9 5.5 9H10.5C10.7761 9 11 9.22386 11 9.5C11 9.77614 10.7761 10 10.5 10H5.5C5.22386 10 5 9.77614 5 9.5ZM5 11.5C5 11.2239 5.22386 11 5.5 11H10.5C10.7761 11 11 11.2239 11 11.5C11 11.7761 10.7761 12 10.5 12H5.5C5.22386 12 5 11.7761 5 11.5Z" fill="black"/>
<path d="M3 0H13C14.1046 0 15 0.89543 15 2V14C15 15.1046 14.1046 16 13 16H3C1.89543 16 1 15.1046 1 14V13H2V14C2 14.5523 2.44772 15 3 15H13C13.5523 15 14 14.5523 14 14V2C14 1.44772 13.5523 1 13 1H3C2.44772 1 2 1.44772 2 2V3H1V2C1 0.89543 1.89543 0 3 0Z" fill="black"/>
<path d="M1 5V4.5C1 4.22386 1.22386 4 1.5 4C1.77614 4 2 4.22386 2 4.5V5H2.5C2.77614 5 3 5.22386 3 5.5C3 5.77614 2.77614 6 2.5 6H0.5C0.223858 6 0 5.77614 0 5.5C0 5.22386 0.223858 5 0.5 5H1Z" fill="black"/>
<path d="M1 8V7.5C1 7.22386 1.22386 7 1.5 7C1.77614 7 2 7.22386 2 7.5V8H2.5C2.77614 8 3 8.22386 3 8.5C3 8.77614 2.77614 9 2.5 9H0.5C0.223858 9 0 8.77614 0 8.5C0 8.22386 0.223858 8 0.5 8H1Z" fill="black"/>
<path d="M1 11V10.5C1 10.2239 1.22386 10 1.5 10C1.77614 10 2 10.2239 2 10.5V11H2.5C2.77614 11 3 11.2239 3 11.5C3 11.7761 2.77614 12 2.5 12H0.5C0.223858 12 0 11.7761 0 11.5C0 11.2239 0.223858 11 0.5 11H1Z" fill="black"/>
</svg>
