<svg width="16" height="16" viewBox="0 0 16 16" fill="none" xmlns="http://www.w3.org/2000/svg">
<path d="M10 2C10 2.93192 9.36261 3.71497 8.5 3.93699V9.02363C9.36261 9.10689 10 9.40053 10 9.75C10 10.1642 9.10457 10.5 8 10.5C6.89543 10.5 6 10.1642 6 9.75C6 9.40053 6.63739 9.10689 7.5 9.02363V3.93699C6.63739 3.71497 6 2.93192 6 2C6 0.895431 6.89543 0 8 0C9.10457 0 10 0.895431 10 2Z" fill="black"/>
<path d="M0 9.66486V11.382C0 11.7607 0.214002 12.107 0.552786 12.2764L7.10557 15.5528C7.66863 15.8343 8.33137 15.8343 8.89443 15.5528L15.4472 12.2764C15.786 12.107 16 11.7607 16 11.382V9.66486C16 9.56485 15.9404 9.47447 15.8485 9.43507L9.5 6.71429V7.70834L14.727 9.88624C14.829 9.92874 14.8297 10.073 14.7281 10.1165L8.78784 12.6624C8.28474 12.878 7.71526 12.878 7.21216 12.6624L1.27187 10.1165C1.1703 10.073 1.17103 9.92874 1.27303 9.88624L6.5 7.70834L6.48718 6.71979L0.15152 9.43507C0.0595992 9.47447 0 9.56485 0 9.66486Z" fill="black"/>
</svg>
