<svg width="16" height="16" viewBox="0 0 16 16" fill="none" xmlns="http://www.w3.org/2000/svg">
<path fill-rule="evenodd" clip-rule="evenodd" d="M2 12.5C2 12.2239 2.22386 12 2.5 12H13.5C13.7761 12 14 12.2239 14 12.5C14 12.7761 13.7761 13 13.5 13H2.5C2.22386 13 2 12.7761 2 12.5Z" fill="black"/>
<path fill-rule="evenodd" clip-rule="evenodd" d="M2 9.5C2 9.22386 2.22386 9 2.5 9H13.5C13.7761 9 14 9.22386 14 9.5C14 9.77614 13.7761 10 13.5 10H2.5C2.22386 10 2 9.77614 2 9.5Z" fill="black"/>
<path fill-rule="evenodd" clip-rule="evenodd" d="M2 6.5C2 6.22386 2.22386 6 2.5 6H13.5C13.7761 6 14 6.22386 14 6.5C14 6.77614 13.7761 7 13.5 7H2.5C2.22386 7 2 6.77614 2 6.5Z" fill="black"/>
<path fill-rule="evenodd" clip-rule="evenodd" d="M2 3.5C2 3.22386 2.22386 3 2.5 3H13.5C13.7761 3 14 3.22386 14 3.5C14 3.77614 13.7761 4 13.5 4H2.5C2.22386 4 2 3.77614 2 3.5Z" fill="black"/>
</svg>
