<svg width="16" height="16" viewBox="0 0 16 16" fill="none" xmlns="http://www.w3.org/2000/svg">
<path d="M2.5 0C1.39543 0 0.5 0.895431 0.5 2V14C0.5 15.1046 1.39543 16 2.5 16H13.5C14.6046 16 15.5 15.1046 15.5 14V2C15.5 0.895431 14.6046 0 13.5 0H2.5ZM7.5 2H8.5C9.05229 2 9.5 2.44772 9.5 3V6C9.5 6.55228 9.05228 7 8.5 7H7.5C6.94772 7 6.5 6.55228 6.5 6V3C6.5 2.44772 6.94772 2 7.5 2ZM2.5 3C2.5 2.44772 2.94772 2 3.5 2H4.5C5.05228 2 5.5 2.44772 5.5 3V10C5.5 10.5523 5.05228 11 4.5 11H3.5C2.94772 11 2.5 10.5523 2.5 10V3ZM11.5 2H12.5C13.0523 2 13.5 2.44772 13.5 3V13C13.5 13.5523 13.0523 14 12.5 14H11.5C10.9477 14 10.5 13.5523 10.5 13V3C10.5 2.44772 10.9477 2 11.5 2Z" fill="black"/>
</svg>
