<svg width="16" height="16" viewBox="0 0 16 16" fill="none" xmlns="http://www.w3.org/2000/svg">
<path d="M0 6C0 4.89543 0.895431 4 2 4H14C15.1046 4 16 4.89543 16 6V11C16 12.1046 15.1046 13 14 13H2C0.895431 13 0 12.1046 0 11V6ZM13 6.25V6.75C13 6.88807 13.1119 7 13.25 7H13.75C13.8881 7 14 6.88807 14 6.75V6.25C14 6.11193 13.8881 6 13.75 6H13.25C13.1119 6 13 6.11193 13 6.25ZM2.25 8C2.11193 8 2 8.11193 2 8.25V8.75C2 8.88807 2.11193 9 2.25 9H2.75C2.88807 9 3 8.88807 3 8.75V8.25C3 8.11193 2.88807 8 2.75 8H2.25ZM4 8.25V8.75C4 8.88807 4.11193 9 4.25 9H4.75C4.88807 9 5 8.88807 5 8.75V8.25C5 8.11193 4.88807 8 4.75 8H4.25C4.11193 8 4 8.11193 4 8.25ZM6.25 8C6.11193 8 6 8.11193 6 8.25V8.75C6 8.88807 6.11193 9 6.25 9H6.75C6.88807 9 7 8.88807 7 8.75V8.25C7 8.11193 6.88807 8 6.75 8H6.25ZM8 8.25V8.75C8 8.88807 8.11193 9 8.25 9H8.75C8.88807 9 9 8.88807 9 8.75V8.25C9 8.11193 8.88807 8 8.75 8H8.25C8.11193 8 8 8.11193 8 8.25ZM13.25 8C13.1119 8 13 8.11193 13 8.25V8.75C13 8.88807 13.1119 9 13.25 9H13.75C13.8881 9 14 8.88807 14 8.75V8.25C14 8.11193 13.8881 8 13.75 8H13.25ZM13.25 10C13.1119 10 13 10.1119 13 10.25V10.75C13 10.8881 13.1119 11 13.25 11H13.75C13.8881 11 14 10.8881 14 10.75V10.25C14 10.1119 13.8881 10 13.75 10H13.25ZM10.25 8C10.1119 8 10 8.11193 10 8.25V8.75C10 8.88807 10.1119 9 10.25 9H11.75C11.8881 9 12 8.88807 12 8.75V8.25C12 8.11193 11.8881 8 11.75 8H10.25ZM11 10.25V10.75C11 10.8881 11.1119 11 11.25 11H11.75C11.8881 11 12 10.8881 12 10.75V10.25C12 10.1119 11.8881 10 11.75 10H11.25C11.1119 10 11 10.1119 11 10.25ZM11.25 6C11.1119 6 11 6.11193 11 6.25V6.75C11 6.88807 11.1119 7 11.25 7H11.75C11.8881 7 12 6.88807 12 6.75V6.25C12 6.11193 11.8881 6 11.75 6H11.25ZM9 6.25V6.75C9 6.88807 9.11193 7 9.25 7H9.75C9.88807 7 10 6.88807 10 6.75V6.25C10 6.11193 9.88807 6 9.75 6H9.25C9.11193 6 9 6.11193 9 6.25ZM7.25 6C7.11193 6 7 6.11193 7 6.25V6.75C7 6.88807 7.11193 7 7.25 7H7.75C7.88807 7 8 6.88807 8 6.75V6.25C8 6.11193 7.88807 6 7.75 6H7.25ZM5 6.25V6.75C5 6.88807 5.11193 7 5.25 7H5.75C5.88807 7 6 6.88807 6 6.75V6.25C6 6.11193 5.88807 6 5.75 6H5.25C5.11193 6 5 6.11193 5 6.25ZM2.25 6C2.11193 6 2 6.11193 2 6.25V6.75C2 6.88807 2.11193 7 2.25 7H3.75C3.88807 7 4 6.88807 4 6.75V6.25C4 6.11193 3.88807 6 3.75 6H2.25ZM2 10.25V10.75C2 10.8881 2.11193 11 2.25 11H2.75C2.88807 11 3 10.8881 3 10.75V10.25C3 10.1119 2.88807 10 2.75 10H2.25C2.11193 10 2 10.1119 2 10.25ZM4.25 10C4.11193 10 4 10.1119 4 10.25V10.75C4 10.8881 4.11193 11 4.25 11H9.75C9.88807 11 10 10.8881 10 10.75V10.25C10 10.1119 9.88807 10 9.75 10H4.25Z" fill="black"/>
</svg>
