<svg width="16" height="16" viewBox="0 0 16 16" fill="none" xmlns="http://www.w3.org/2000/svg">
<path d="M7.76471 1.55882C7.91176 1.48039 8.08824 1.48039 8.23529 1.55882L15.7353 5.55882C15.8982 5.64572 16 5.81534 16 6C16 6.18466 15.8982 6.35428 15.7353 6.44118L8.23529 10.4412C8.08824 10.5196 7.91176 10.5196 7.76471 10.4412L0.264706 6.44118C0.101774 6.35428 0 6.18466 0 6C0 5.81534 0.101774 5.64572 0.264706 5.55882L7.76471 1.55882Z" fill="black"/>
<path d="M2.125 8.56667L0.264706 9.55882C0.101774 9.64572 0 9.81534 0 10C0 10.1847 0.101774 10.3543 0.264706 10.4412L7.76471 14.4412C7.91176 14.5196 8.08824 14.5196 8.23529 14.4412L15.7353 10.4412C15.8982 10.3543 16 10.1847 16 10C16 9.81534 15.8982 9.64572 15.7353 9.55882L13.875 8.56667L8.70588 11.3235C8.26471 11.5588 7.73529 11.5588 7.29412 11.3235L2.125 8.56667Z" fill="black"/>
</svg>
