<svg width="16" height="16" viewBox="0 0 16 16" fill="none" xmlns="http://www.w3.org/2000/svg">
<path d="M8.35355 15.8536C8.15829 16.0488 7.84171 16.0488 7.64645 15.8536L4.64645 12.8536C4.45118 12.6583 4.45118 12.3417 4.64645 12.1464L5.64645 11.1464C5.84171 10.9512 6.15829 10.9512 6.35355 11.1464L7 11.7929V4H1C0.447716 4 0 3.55229 0 3V1C0 0.447715 0.447715 0 1 0H15C15.5523 0 16 0.447715 16 1V3C16 3.55229 15.5523 4 15 4H9V11.7929L9.64645 11.1464C9.84171 10.9512 10.1583 10.9512 10.3536 11.1464L11.3536 12.1464C11.5488 12.3417 11.5488 12.6583 11.3536 12.8536L8.35355 15.8536Z" fill="black"/>
<path d="M1 9C0.447715 9 0 8.55228 0 8V6C0 5.44772 0.447715 5 1 5H5.5C5.77614 5 6 5.22386 6 5.5C6 5.77614 5.77614 6 5.5 6H1V8H5.5C5.77614 8 6 8.22386 6 8.5C6 8.77614 5.77614 9 5.5 9H1Z" fill="black"/>
<path d="M10.5 9C10.2239 9 10 8.77614 10 8.5C10 8.22386 10.2239 8 10.5 8H15V6H10.5C10.2239 6 10 5.77614 10 5.5C10 5.22386 10.2239 5 10.5 5H15C15.5523 5 16 5.44772 16 6V8C16 8.55228 15.5523 9 15 9H10.5Z" fill="black"/>
</svg>
