<svg width="16" height="16" viewBox="0 0 16 16" fill="none" xmlns="http://www.w3.org/2000/svg">
<path d="M8.35355 0.146447C8.15829 -0.0488155 7.84171 -0.0488155 7.64645 0.146447L4.64645 3.14645C4.45118 3.34171 4.45118 3.65829 4.64645 3.85355L5.64645 4.85355C5.84171 5.04882 6.15829 5.04882 6.35355 4.85355L7 4.20711V12H1C0.447716 12 0 12.4477 0 13V15C0 15.5523 0.447715 16 1 16H15C15.5523 16 16 15.5523 16 15V13C16 12.4477 15.5523 12 15 12H9V4.20711L9.64645 4.85355C9.84171 5.04882 10.1583 5.04882 10.3536 4.85355L11.3536 3.85355C11.5488 3.65829 11.5488 3.34171 11.3536 3.14645L8.35355 0.146447Z" fill="black"/>
<path d="M1 7C0.447715 7 0 7.44772 0 8V10C0 10.5523 0.447715 11 1 11H5.5C5.77614 11 6 10.7761 6 10.5C6 10.2239 5.77614 10 5.5 10H1V8H5.5C5.77614 8 6 7.77614 6 7.5C6 7.22386 5.77614 7 5.5 7H1Z" fill="black"/>
<path d="M10.5 7C10.2239 7 10 7.22386 10 7.5C10 7.77614 10.2239 8 10.5 8H15V10H10.5C10.2239 10 10 10.2239 10 10.5C10 10.7761 10.2239 11 10.5 11H15C15.5523 11 16 10.5523 16 10V8C16 7.44772 15.5523 7 15 7H10.5Z" fill="black"/>
</svg>
