<svg width="16" height="16" viewBox="0 0 16 16" fill="none" xmlns="http://www.w3.org/2000/svg">
<path d="M2 2C1.44772 2 1 2.44772 1 3V13C1 13.5523 1.44772 14 2 14H14C14.5523 14 15 13.5523 15 13V3C15 2.44772 14.5523 2 14 2H2ZM14 1C15.1046 1 16 1.89543 16 3V13C16 14.1046 15.1046 15 14 15H2C0.895431 15 0 14.1046 0 13V3C0 1.89543 0.895431 1 2 1H14Z" fill="black"/>
<path d="M13 4C13 3.44772 12.5523 3 12 3H10C9.44772 3 9 3.44772 9 4V12C9 12.5523 9.44772 13 10 13H12C12.5523 13 13 12.5523 13 12V4Z" fill="black"/>
</svg>
