<svg width="16" height="16" viewBox="0 0 16 16" fill="none" xmlns="http://www.w3.org/2000/svg">
<path d="M13 6.5C13 6.22386 12.7761 6 12.5 6H7.5C7.22386 6 7 6.22386 7 6.5C7 6.77614 7.22386 7 7.5 7H12.5C12.7761 7 13 6.77614 13 6.5Z" fill="black"/>
<path d="M13 9.5C13 9.22386 12.7761 9 12.5 9H7.5C7.22386 9 7 9.22386 7 9.5C7 9.77614 7.22386 10 7.5 10H12.5C12.7761 10 13 9.77614 13 9.5Z" fill="black"/>
<path d="M12.5 12C12.7761 12 13 12.2239 13 12.5C13 12.7761 12.7761 13 12.5 13H7.5C7.22386 13 7 12.7761 7 12.5C7 12.2239 7.22386 12 7.5 12H12.5Z" fill="black"/>
<path d="M14 0C15.1046 0 16 0.895431 16 2V14C16 15.1046 15.1046 16 14 16H2C0.895431 16 0 15.1046 0 14V2C0 0.895431 0.895431 0 2 0H14ZM2 1C1.44772 1 1 1.44772 1 2V3H15V2C15 1.44772 14.5523 1 14 1H2ZM1 4V14C1 14.5523 1.44772 15 2 15H4V4H1ZM5 4V15H14C14.5523 15 15 14.5523 15 14V4H5Z" fill="black"/>
</svg>
