<svg width="16" height="16" viewBox="0 0 16 16" fill="none" xmlns="http://www.w3.org/2000/svg">
<path d="M3 6.5C3 6.22386 3.22386 6 3.5 6H8.5C8.77614 6 9 6.22386 9 6.5C9 6.77614 8.77614 7 8.5 7H3.5C3.22386 7 3 6.77614 3 6.5Z" fill="black"/>
<path d="M3 9.5C3 9.22386 3.22386 9 3.5 9H8.5C8.77614 9 9 9.22386 9 9.5C9 9.77614 8.77614 10 8.5 10H3.5C3.22386 10 3 9.77614 3 9.5Z" fill="black"/>
<path d="M3.5 12C3.22386 12 3 12.2239 3 12.5C3 12.7761 3.22386 13 3.5 13H8.5C8.77614 13 9 12.7761 9 12.5C9 12.2239 8.77614 12 8.5 12H3.5Z" fill="black"/>
<path d="M2 0C0.895431 0 0 0.895431 0 2V14C0 15.1046 0.895431 16 2 16H14C15.1046 16 16 15.1046 16 14V2C16 0.895431 15.1046 0 14 0H2ZM14 1C14.5523 1 15 1.44772 15 2V3H1V2C1 1.44772 1.44772 1 2 1H14ZM15 4V14C15 14.5523 14.5523 15 14 15H12V4H15ZM11 4V15H2C1.44772 15 1 14.5523 1 14V4H11Z" fill="black"/>
</svg>
