<svg width="16" height="16" viewBox="0 0 16 16" fill="none" xmlns="http://www.w3.org/2000/svg">
<path d="M3.5 3C3.22386 3 3 3.22386 3 3.5C3 3.77614 3.22386 4 3.5 4H8.5C8.77614 4 9 3.77614 9 3.5C9 3.22386 8.77614 3 8.5 3H3.5Z" fill="black"/>
<path d="M3.5 6C3.22386 6 3 6.22386 3 6.5C3 6.77614 3.22386 7 3.5 7H8.5C8.77614 7 9 6.77614 9 6.5C9 6.22386 8.77614 6 8.5 6H3.5Z" fill="black"/>
<path d="M3 9.5C3 9.22386 3.22386 9 3.5 9H8.5C8.77614 9 9 9.22386 9 9.5C9 9.77614 8.77614 10 8.5 10H3.5C3.22386 10 3 9.77614 3 9.5Z" fill="black"/>
<path d="M3.5 12C3.22386 12 3 12.2239 3 12.5C3 12.7761 3.22386 13 3.5 13H8.5C8.77614 13 9 12.7761 9 12.5C9 12.2239 8.77614 12 8.5 12H3.5Z" fill="black"/>
<path d="M0 2C0 0.895431 0.895431 0 2 0H14C15.1046 0 16 0.895431 16 2V14C16 15.1046 15.1046 16 14 16H2C0.895431 16 0 15.1046 0 14V2ZM12 1V15H14C14.5523 15 15 14.5523 15 14V2C15 1.44772 14.5523 1 14 1H12ZM11 1H2C1.44772 1 1 1.44772 1 2V14C1 14.5523 1.44772 15 2 15H11V1Z" fill="black"/>
</svg>
