<svg width="16" height="16" viewBox="0 0 16 16" fill="none" xmlns="http://www.w3.org/2000/svg">
<path fill-rule="evenodd" clip-rule="evenodd" d="M2.2295 4.35082C2.08003 4.87479 2 5.42805 2 6C2 7.69124 2.7004 9.21977 3.82563 10.3098C4.02858 10.5064 4.18481 10.7107 4.27873 10.9287L5.04079 12.6978C5.11979 12.8812 5.30032 13 5.5 13C5.22386 13 5 13.2239 5 13.5C5 13.7761 5.22386 14 5.5 14C5.22386 14 5 14.2239 5 14.5C5 14.7761 5.22386 15 5.5 15L5.72361 15.4472C5.893 15.786 6.23926 16 6.61803 16H9.38197C9.76074 16 10.107 15.786 10.2764 15.4472L10.5 15C10.7761 15 11 14.7761 11 14.5C11 14.2239 10.7761 14 10.5 14C10.7761 14 11 13.7761 11 13.5C11 13.2239 10.7761 13 10.5 13C10.6052 13 10.7051 12.967 10.7877 12.909L9.87868 12H5.82903L5.19714 10.5331C5.03464 10.1559 4.784 9.84596 4.52143 9.5916C3.58259 8.68211 3 7.40952 3 6C3 5.72319 3.02249 5.45164 3.06575 5.18707L2.2295 4.35082ZM3.81845 1.69713L4.52564 2.40432C5.42522 1.53491 6.65014 1 8 1C10.7614 1 13 3.23858 13 6C13 7.34996 12.4656 8.5743 11.5957 9.47436L12.3029 10.1815C13.3527 9.10142 14 7.6259 14 6C14 2.68629 11.3137 0 8 0C6.374 0 4.89907 0.646792 3.81845 1.69713Z" fill="black"/>
<path fill-rule="evenodd" clip-rule="evenodd" d="M1.64645 1.64645C1.84171 1.45118 2.15829 1.45118 2.35355 1.64645L14.3536 13.6464C14.5488 13.8417 14.5488 14.1583 14.3536 14.3536C14.1583 14.5488 13.8417 14.5488 13.6464 14.3536L1.64645 2.35355C1.45118 2.15829 1.45118 1.84171 1.64645 1.64645Z" fill="black"/>
</svg>
