<svg width="16" height="16" viewBox="0 0 16 16" fill="none" xmlns="http://www.w3.org/2000/svg">
<path d="M2 6C2 5.42805 2.08003 4.87479 2.2295 4.35082L10.7877 12.909C10.7051 12.967 10.6052 13 10.5 13H5.5C5.30032 13 5.11979 12.8812 5.04079 12.6978L4.27873 10.9287C4.18481 10.7107 4.02858 10.5064 3.82563 10.3098C2.7004 9.21977 2 7.69124 2 6Z" fill="black"/>
<path d="M12.3029 10.1815L3.81845 1.69713C4.89907 0.646792 6.374 0 8 0C11.3137 0 14 2.68629 14 6C14 7.6259 13.3527 9.10142 12.3029 10.1815Z" fill="black"/>
<path d="M5 14.5C5 14.2239 5.22386 14 5.5 14H10.5C10.7761 14 11 14.2239 11 14.5C11 14.7761 10.7761 15 10.5 15L10.2764 15.4472C10.107 15.786 9.76074 16 9.38197 16H6.61803C6.23926 16 5.893 15.786 5.72361 15.4472L5.5 15C5.22386 15 5 14.7761 5 14.5Z" fill="black"/>
<path d="M2.35355 1.64645C2.15829 1.45118 1.84171 1.45118 1.64645 1.64645C1.45118 1.84171 1.45118 2.15829 1.64645 2.35355L13.6464 14.3536C13.8417 14.5488 14.1583 14.5488 14.3536 14.3536C14.5488 14.1583 14.5488 13.8417 14.3536 13.6464L2.35355 1.64645Z" fill="black"/>
</svg>
