<svg width="16" height="16" viewBox="0 0 16 16" fill="none" xmlns="http://www.w3.org/2000/svg">
<path d="M11.2514 0.0678058C11.4524 0.184724 11.5463 0.424795 11.4779 0.647058L9.67699 6.50002H13C13.1995 6.50002 13.3799 6.61858 13.459 6.8017C13.5381 6.98482 13.5008 7.19744 13.3641 7.3427L5.36411 15.8427C5.20473 16.012 4.94964 16.0491 4.74863 15.9322C4.54761 15.8153 4.45373 15.5752 4.52212 15.353L6.32303 9.50002H3.00001C2.80053 9.50002 2.62014 9.38145 2.54102 9.19833C2.4619 9.01522 2.4992 8.80259 2.63591 8.65733L10.6359 0.157333C10.7953 -0.0120074 11.0504 -0.049112 11.2514 0.0678058ZM4.15722 8.50002H7.00001C7.15868 8.50002 7.30794 8.57533 7.40221 8.70296C7.49647 8.8306 7.52456 8.9954 7.4779 9.14706L6.11074 13.5903L11.8428 7.50002H9.00001C8.84134 7.50002 8.69208 7.4247 8.59782 7.29707C8.50355 7.16943 8.47546 7.00463 8.52212 6.85297L9.88928 2.40971L4.15722 8.50002Z" fill="black"/>
</svg>
