<svg width="16" height="16" viewBox="0 0 16 16" fill="none" xmlns="http://www.w3.org/2000/svg">
<path d="M6.35417 5.5H4C2.34315 5.5 1 6.84315 1 8.5C1 10.1569 2.34315 11.5 4 11.5H7C8.65685 11.5 10 10.1569 10 8.5C10 8.14936 9.93985 7.81278 9.82929 7.5H9C8.91376 7.5 8.83008 7.51092 8.75024 7.53144C8.90938 7.8184 9 8.14862 9 8.5C9 9.60457 8.10457 10.5 7 10.5H4C2.89543 10.5 2 9.60457 2 8.5C2 7.39543 2.89543 6.5 4 6.5H5.53513C5.75287 6.12359 6.03018 5.78596 6.35417 5.5Z" fill="black"/>
<path d="M9 5.5C7.34315 5.5 6 6.84315 6 8.5C6 8.85064 6.06015 9.18722 6.17071 9.5H7.26756C7.09739 9.20583 7 8.86429 7 8.5C7 7.39543 7.89543 6.5 9 6.5H12C13.1046 6.5 14 7.39543 14 8.5C14 9.60457 13.1046 10.5 12 10.5H10.4649C10.2471 10.8764 9.96982 11.214 9.64582 11.5H12C13.6569 11.5 15 10.1569 15 8.5C15 6.84315 13.6569 5.5 12 5.5H9Z" fill="black"/>
</svg>
