<svg width="16" height="16" viewBox="0 0 16 16" fill="none" xmlns="http://www.w3.org/2000/svg">
<path fill-rule="evenodd" clip-rule="evenodd" d="M5 11.5C5 11.2239 5.22386 11 5.5 11H14.5C14.7761 11 15 11.2239 15 11.5C15 11.7761 14.7761 12 14.5 12H5.5C5.22386 12 5 11.7761 5 11.5Z" fill="black"/>
<path fill-rule="evenodd" clip-rule="evenodd" d="M5 7.5C5 7.22386 5.22386 7 5.5 7H14.5C14.7761 7 15 7.22386 15 7.5C15 7.77614 14.7761 8 14.5 8H5.5C5.22386 8 5 7.77614 5 7.5Z" fill="black"/>
<path fill-rule="evenodd" clip-rule="evenodd" d="M5 3.5C5 3.22386 5.22386 3 5.5 3H14.5C14.7761 3 15 3.22386 15 3.5C15 3.77614 14.7761 4 14.5 4H5.5C5.22386 4 5 3.77614 5 3.5Z" fill="black"/>
<path d="M2.24158 2.19355C2.32012 1.93548 2.67988 1.93548 2.75842 2.19355L2.91999 2.7244C2.95501 2.83948 3.05979 2.91795 3.17841 2.91795H3.72899C3.98772 2.91795 4.09879 3.25135 3.89319 3.41083L3.42479 3.77415C3.33471 3.84402 3.2971 3.96351 3.33057 4.07347L3.50391 4.64303C3.58166 4.8985 3.29055 5.10468 3.08128 4.94235L2.6642 4.61884C2.56726 4.54364 2.43274 4.54364 2.3358 4.61884L1.91872 4.94235C1.70945 5.10468 1.41834 4.8985 1.49609 4.64303L1.66943 4.07347C1.7029 3.96351 1.66529 3.84402 1.57521 3.77415L1.10681 3.41083C0.901213 3.25135 1.01228 2.91795 1.27101 2.91795H1.82159C1.94021 2.91795 2.04499 2.83947 2.08002 2.7244L2.24158 2.19355Z" fill="black"/>
<path d="M2.24158 6.19355C2.32012 5.93548 2.67988 5.93548 2.75842 6.19355L2.91999 6.7244C2.95501 6.83948 3.05979 6.91795 3.17841 6.91795H3.72899C3.98772 6.91795 4.09879 7.25135 3.89319 7.41083L3.42479 7.77415C3.33471 7.84402 3.2971 7.96351 3.33057 8.07347L3.50391 8.64303C3.58166 8.8985 3.29055 9.10468 3.08128 8.94235L2.6642 8.61884C2.56726 8.54364 2.43274 8.54364 2.3358 8.61884L1.91872 8.94235C1.70945 9.10468 1.41834 8.8985 1.49609 8.64303L1.66943 8.07347C1.7029 7.96351 1.66529 7.84402 1.57521 7.77415L1.10681 7.41083C0.901213 7.25135 1.01228 6.91795 1.27101 6.91795H1.82159C1.94021 6.91795 2.04499 6.83948 2.08002 6.7244L2.24158 6.19355Z" fill="black"/>
<path d="M2.24158 10.1936C2.32012 9.93548 2.67988 9.93548 2.75842 10.1936L2.91999 10.7244C2.95501 10.8395 3.05979 10.918 3.17841 10.918H3.72899C3.98772 10.918 4.09879 11.2514 3.89319 11.4108L3.42479 11.7741C3.33471 11.844 3.2971 11.9635 3.33057 12.0735L3.50391 12.643C3.58166 12.8985 3.29055 13.1047 3.08128 12.9424L2.6642 12.6188C2.56726 12.5436 2.43274 12.5436 2.3358 12.6188L1.91872 12.9424C1.70945 13.1047 1.41834 12.8985 1.49609 12.643L1.66943 12.0735C1.7029 11.9635 1.66529 11.844 1.57521 11.7741L1.10681 11.4108C0.901213 11.2514 1.01228 10.918 1.27101 10.918H1.82159C1.94021 10.918 2.04499 10.8395 2.08002 10.7244L2.24158 10.1936Z" fill="black"/>
</svg>
