<svg width="16" height="16" viewBox="0 0 16 16" fill="none" xmlns="http://www.w3.org/2000/svg">
<path fill-rule="evenodd" clip-rule="evenodd" d="M5 11.5C5 11.2239 5.22386 11 5.5 11H14.5C14.7761 11 15 11.2239 15 11.5C15 11.7761 14.7761 12 14.5 12H5.5C5.22386 12 5 11.7761 5 11.5Z" fill="black"/>
<path fill-rule="evenodd" clip-rule="evenodd" d="M5 7.5C5 7.22386 5.22386 7 5.5 7H14.5C14.7761 7 15 7.22386 15 7.5C15 7.77614 14.7761 8 14.5 8H5.5C5.22386 8 5 7.77614 5 7.5Z" fill="black"/>
<path fill-rule="evenodd" clip-rule="evenodd" d="M5 3.5C5 3.22386 5.22386 3 5.5 3H14.5C14.7761 3 15 3.22386 15 3.5C15 3.77614 14.7761 4 14.5 4H5.5C5.22386 4 5 3.77614 5 3.5Z" fill="black"/>
<path fill-rule="evenodd" clip-rule="evenodd" d="M3.85355 2.14645C4.04882 2.34171 4.04882 2.65829 3.85355 2.85355L2.35355 4.35355C2.15829 4.54882 1.84171 4.54882 1.64645 4.35355L1.14645 3.85355C0.951184 3.65829 0.951184 3.34171 1.14645 3.14645C1.34171 2.95118 1.65829 2.95118 1.85355 3.14645L2 3.29289L3.14645 2.14645C3.34171 1.95118 3.65829 1.95118 3.85355 2.14645Z" fill="black"/>
<path fill-rule="evenodd" clip-rule="evenodd" d="M3.85355 6.14645C4.04882 6.34171 4.04882 6.65829 3.85355 6.85355L2.35355 8.35355C2.15829 8.54882 1.84171 8.54882 1.64645 8.35355L1.14645 7.85355C0.951184 7.65829 0.951184 7.34171 1.14645 7.14645C1.34171 6.95118 1.65829 6.95118 1.85355 7.14645L2 7.29289L3.14645 6.14645C3.34171 5.95118 3.65829 5.95118 3.85355 6.14645Z" fill="black"/>
<path fill-rule="evenodd" clip-rule="evenodd" d="M3.85355 10.1464C4.04882 10.3417 4.04882 10.6583 3.85355 10.8536L2.35355 12.3536C2.15829 12.5488 1.84171 12.5488 1.64645 12.3536L1.14645 11.8536C0.951184 11.6583 0.951184 11.3417 1.14645 11.1464C1.34171 10.9512 1.65829 10.9512 1.85355 11.1464L2 11.2929L3.14645 10.1464C3.34171 9.95118 3.65829 9.95118 3.85355 10.1464Z" fill="black"/>
</svg>
