<svg width="16" height="16" viewBox="0 0 16 16" fill="none" xmlns="http://www.w3.org/2000/svg">
<path fill-rule="evenodd" clip-rule="evenodd" d="M0 0.5C0 0.223858 0.223858 0 0.5 0H9.5C9.77614 0 10 0.223858 10 0.5C10 0.776142 9.77614 1 9.5 1H0.5C0.223858 1 0 0.776142 0 0.5ZM13 0.5C13 0.223858 13.2239 0 13.5 0H15.5C15.7761 0 16 0.223858 16 0.5C16 0.776142 15.7761 1 15.5 1H13.5C13.2239 1 13 0.776142 13 0.5ZM0 2.5C0 2.22386 0.223858 2 0.5 2H8.5C8.77614 2 9 2.22386 9 2.5C9 2.77614 8.77614 3 8.5 3H0.5C0.223858 3 0 2.77614 0 2.5ZM13 2.5C13 2.22386 13.2239 2 13.5 2H15.5C15.7761 2 16 2.22386 16 2.5C16 2.77614 15.7761 3 15.5 3H13.5C13.2239 3 13 2.77614 13 2.5ZM0 4.5C0 4.22386 0.223858 4 0.5 4H10.5C10.7761 4 11 4.22386 11 4.5C11 4.77614 10.7761 5 10.5 5H0.5C0.223858 5 0 4.77614 0 4.5ZM13 4.5C13 4.22386 13.2239 4 13.5 4H15.5C15.7761 4 16 4.22386 16 4.5C16 4.77614 15.7761 5 15.5 5H13.5C13.2239 5 13 4.77614 13 4.5ZM0 6.5C0 6.22386 0.223858 6 0.5 6H7.5C7.77614 6 8 6.22386 8 6.5C8 6.77614 7.77614 7 7.5 7H0.5C0.223858 7 0 6.77614 0 6.5ZM13 6.5C13 6.22386 13.2239 6 13.5 6H15.5C15.7761 6 16 6.22386 16 6.5C16 6.77614 15.7761 7 15.5 7H13.5C13.2239 7 13 6.77614 13 6.5ZM0 8.5C0 8.22386 0.223858 8 0.5 8H7.5C7.77614 8 8 8.22386 8 8.5C8 8.77614 7.77614 9 7.5 9H0.5C0.223858 9 0 8.77614 0 8.5ZM13 8.5C13 8.22386 13.2239 8 13.5 8H15.5C15.7761 8 16 8.22386 16 8.5C16 8.77614 15.7761 9 15.5 9H13.5C13.2239 9 13 8.77614 13 8.5ZM0 10.5C0 10.2239 0.223858 10 0.5 10H9.5C9.77614 10 10 10.2239 10 10.5C10 10.7761 9.77614 11 9.5 11H0.5C0.223858 11 0 10.7761 0 10.5ZM13 10.5C13 10.2239 13.2239 10 13.5 10H15.5C15.7761 10 16 10.2239 16 10.5C16 10.7761 15.7761 11 15.5 11H13.5C13.2239 11 13 10.7761 13 10.5ZM0 12.5C0 12.2239 0.223858 12 0.5 12H5.5C5.77614 12 6 12.2239 6 12.5C6 12.7761 5.77614 13 5.5 13H0.5C0.223858 13 0 12.7761 0 12.5ZM13 12.5C13 12.2239 13.2239 12 13.5 12H15.5C15.7761 12 16 12.2239 16 12.5C16 12.7761 15.7761 13 15.5 13H13.5C13.2239 13 13 12.7761 13 12.5ZM0 14.5C0 14.2239 0.223858 14 0.5 14H10.5C10.7761 14 11 14.2239 11 14.5C11 14.7761 10.7761 15 10.5 15H0.5C0.223858 15 0 14.7761 0 14.5ZM13 14.5C13 14.2239 13.2239 14 13.5 14H15.5C15.7761 14 16 14.2239 16 14.5C16 14.7761 15.7761 15 15.5 15H13.5C13.2239 15 13 14.7761 13 14.5Z" fill="black"/>
</svg>
