<svg width="16" height="16" viewBox="0 0 16 16" fill="none" xmlns="http://www.w3.org/2000/svg">
<path fill-rule="evenodd" clip-rule="evenodd" d="M4.5 11.5C4.5 11.2239 4.72386 11 5 11H15C15.2761 11 15.5 11.2239 15.5 11.5C15.5 11.7761 15.2761 12 15 12H5C4.72386 12 4.5 11.7761 4.5 11.5Z" fill="black"/>
<path fill-rule="evenodd" clip-rule="evenodd" d="M2.5 7.5C2.5 7.22386 2.72386 7 3 7H13C13.2761 7 13.5 7.22386 13.5 7.5C13.5 7.77614 13.2761 8 13 8H3C2.72386 8 2.5 7.77614 2.5 7.5Z" fill="black"/>
<path fill-rule="evenodd" clip-rule="evenodd" d="M0.5 3.5C0.5 3.22386 0.723858 3 1 3H11C11.2761 3 11.5 3.22386 11.5 3.5C11.5 3.77614 11.2761 4 11 4H1C0.723858 4 0.5 3.77614 0.5 3.5Z" fill="black"/>
</svg>
