<svg width="16" height="16" viewBox="0 0 16 16" fill="none" xmlns="http://www.w3.org/2000/svg">
<path d="M2 1.5C2 1.22386 2.22386 1 2.5 1H5.5C5.77614 1 6 1.22386 6 1.5V5H6.5C7.32843 5 8 5.67157 8 6.5V7H7V6.5C7 6.22386 6.77614 6 6.5 6H1.5C1.22386 6 1 6.22386 1 6.5V13.5C1 13.7761 1.22386 14 1.5 14H4V15H2.5V15.25C2.5 15.6642 2.16421 16 1.75 16C1.33579 16 1 15.6642 1 15.25V14.9146C0.417404 14.7087 0 14.1531 0 13.5V6.5C0 5.67157 0.671573 5 1.5 5H2V1.5ZM3 5H5V2H3V5Z" fill="black"/>
<path d="M2.5 7C2.77614 7 3 7.22386 3 7.5V12.5C3 12.7761 2.77614 13 2.5 13C2.22386 13 2 12.7761 2 12.5V7.5C2 7.22386 2.22386 7 2.5 7Z" fill="black"/>
<path d="M12.5 8V7.5C12.5 6.67157 11.8284 6 11 6H10C9.17157 6 8.5 6.67157 8.5 7.5V8H8V16H13V8H12.5ZM10 7H11C11.2761 7 11.5 7.22386 11.5 7.5V8H9.5V7.5C9.5 7.22386 9.72386 7 10 7Z" fill="black"/>
<path d="M5 9.5C5 8.67157 5.67157 8 6.5 8H7V16H6.5C5.67157 16 5 15.3284 5 14.5V9.5Z" fill="black"/>
<path d="M14 16V8H14.5C15.3284 8 16 8.67157 16 9.5V14.5C16 15.3284 15.3284 16 14.5 16H14Z" fill="black"/>
</svg>
