<svg width="16" height="16" viewBox="0 0 16 16" fill="none" xmlns="http://www.w3.org/2000/svg">
<path d="M2.5 1C2.22386 1 2 1.22386 2 1.5V5H1.5C0.671573 5 0 5.67157 0 6.5V13.5C0 14.1531 0.417404 14.7087 1 14.9146V15.25C1 15.6642 1.33579 16 1.75 16C2.16421 16 2.5 15.6642 2.5 15.25V15H4V14H1.5C1.22386 14 1 13.7761 1 13.5V6.5C1 6.22386 1.22386 6 1.5 6H6.5C6.77614 6 7 6.22386 7 6.5V7H8V6.5C8 5.67157 7.32843 5 6.5 5H6V1.5C6 1.22386 5.77614 1 5.5 1H2.5ZM5 5H3V2H5V5Z" fill="black"/>
<path d="M3 7.5C3 7.22386 2.77614 7 2.5 7C2.22386 7 2 7.22386 2 7.5V12.5C2 12.7761 2.22386 13 2.5 13C2.77614 13 3 12.7761 3 12.5V7.5Z" fill="black"/>
<path d="M11 6C11.8284 6 12.5 6.67157 12.5 7.5V8H14.5C15.3284 8 16 8.67157 16 9.5V14.5C16 15.3284 15.3284 16 14.5 16L6.5 16C5.67157 16 5 15.3284 5 14.5V9.5C5 8.67157 5.67157 8 6.5 8H8.5V7.5C8.5 6.67157 9.17157 6 10 6H11ZM9.5 7.5V8H11.5V7.5C11.5 7.22386 11.2761 7 11 7H10C9.72386 7 9.5 7.22386 9.5 7.5ZM6 9.5V14.5C6 14.7761 6.22386 15 6.5 15L7 15V9H6.5C6.22386 9 6 9.22386 6 9.5ZM13 15V9H8V15L13 15ZM14.5 15C14.7761 15 15 14.7761 15 14.5V9.5C15 9.22386 14.7761 9 14.5 9H14V15L14.5 15Z" fill="black"/>
</svg>
