<svg width="16" height="16" viewBox="0 0 16 16" fill="none" xmlns="http://www.w3.org/2000/svg">
<path d="M8.49999 1.5C8.49999 1.22386 8.27614 1 7.99999 1C7.72385 1 7.49999 1.22386 7.49999 1.5V6.74269L7 7.09983V4.71964C7 3.76991 6.23009 3 5.28036 3C4.75566 3 4.25694 3.26926 3.83724 3.59215C3.40591 3.92398 2.99019 4.36532 2.62075 4.82095C1.8847 5.72873 1.27373 6.767 1.04152 7.30043C0.864815 7.70637 0.647671 8.46007 0.484521 9.31201C0.320393 10.1691 0.202335 11.1694 0.244029 12.0709C0.284133 12.938 0.477413 13.8618 1.08156 14.4012C1.75247 15.0001 2.70389 14.9571 3.82324 14.3974L5.61803 13.5C6.46499 13.0765 7 12.2109 7 11.2639V10.5C7 10.2239 6.77614 10 6.5 10C6.22386 10 6 10.2239 6 10.5V11.2639C6 11.8321 5.679 12.3515 5.17082 12.6056L3.37602 13.503C2.39822 13.9919 1.96079 13.8456 1.74753 13.6552C1.46751 13.4052 1.2813 12.8535 1.24296 12.0247C1.20622 11.2302 1.31077 10.3142 1.46667 9.50009C1.62356 8.68087 1.82387 8.00865 1.95842 7.69957C2.14891 7.26196 2.70873 6.30023 3.3975 5.45076C3.74047 5.02777 4.10066 4.65119 4.447 4.38474C4.80496 4.10935 5.08566 4 5.28036 4C5.67781 4 6 4.32219 6 4.71964V7.81412L4.20937 9.09313C3.98467 9.25364 3.93262 9.56591 4.09313 9.79062C4.25363 10.0153 4.56591 10.0674 4.79061 9.90687L7.99999 7.61445L11.2094 9.90687C11.4341 10.0674 11.7464 10.0153 11.9069 9.79062C12.0674 9.56591 12.0153 9.25364 11.7906 9.09313L9.99997 7.8141V4.71964C9.99997 4.32219 10.3222 4 10.7196 4C10.9143 4 11.195 4.10935 11.553 4.38474C11.8993 4.65119 12.2595 5.02777 12.6025 5.45076C13.2912 6.30023 13.8511 7.26196 14.0416 7.69957C14.1761 8.00865 14.3764 8.68087 14.5333 9.50009C14.6892 10.3142 14.7938 11.2302 14.757 12.0247C14.7187 12.8535 14.5325 13.4052 14.2524 13.6552C14.0392 13.8456 13.6018 13.9919 12.6239 13.503L10.8292 12.6056C10.321 12.3515 9.99997 11.8321 9.99997 11.2639L9.99999 10.5C10 10.2239 9.77615 10 9.50001 10C9.22387 9.99999 9 10.2238 8.99999 10.5L8.99997 11.2639C8.99997 12.2109 9.53498 13.0765 10.3819 13.5L12.1767 14.3974C13.2961 14.9571 14.2475 15.0001 14.9184 14.4012C15.5226 13.8618 15.7158 12.938 15.7559 12.0709C15.7976 11.1694 15.6796 10.1691 15.5154 9.31201C15.3523 8.46007 15.1352 7.70637 14.9584 7.30043C14.7262 6.767 14.1153 5.72873 13.3792 4.82095C13.0098 4.36532 12.5941 3.92398 12.1627 3.59215C11.743 3.26926 11.2443 3 10.7196 3C9.76988 3 8.99997 3.76991 8.99997 4.71964V7.09982L8.49999 6.74269V1.5Z" fill="black"/>
</svg>
