<svg width="16" height="16" viewBox="0 0 16 16" fill="none" xmlns="http://www.w3.org/2000/svg">
<path d="M7.99999 1C8.27614 1 8.49999 1.22386 8.49999 1.5V6.74269L8.99997 7.09982V4.71964C8.99997 3.76991 9.76988 3 10.7196 3C11.2443 3 11.743 3.26926 12.1627 3.59215C12.5941 3.92398 13.0098 4.36532 13.3792 4.82095C14.1153 5.72873 14.7262 6.767 14.9584 7.30043C15.1352 7.70637 15.3523 8.46007 15.5154 9.31201C15.6796 10.1691 15.7976 11.1694 15.7559 12.0709C15.7158 12.938 15.5226 13.8618 14.9184 14.4012C14.2475 15.0001 13.2961 14.9571 12.1767 14.3974L10.3819 13.5C9.53498 13.0765 8.99997 12.2109 8.99997 11.2639V8.32872L7.99999 7.61445L7.00004 8.32871V7.21423C6.89932 7.21415 6.79763 7.2444 6.70942 7.30741L4.20942 9.09312C3.98471 9.25362 3.93267 9.5659 4.09317 9.79061C4.25368 10.0153 4.56595 10.0674 4.79066 9.90685L7.00004 8.32871L7 11.2639C7 12.2109 6.46499 13.0765 5.61803 13.5L3.82324 14.3974C2.70389 14.9571 1.75247 15.0001 1.08156 14.4012C0.477413 13.8618 0.284133 12.938 0.244029 12.0709C0.202335 11.1694 0.320393 10.1691 0.484521 9.31201C0.647671 8.46007 0.864815 7.70637 1.04152 7.30043C1.27373 6.767 1.8847 5.72873 2.62075 4.82095C2.99019 4.36532 3.40591 3.92398 3.83724 3.59215C4.25694 3.26926 4.75566 3 5.28036 3C6.23009 3 7 3.76991 7 4.71964V7.09983L7.49999 6.74269V1.5C7.49999 1.22386 7.72385 1 7.99999 1ZM11.2094 9.90685C11.4341 10.0674 11.7464 10.0153 11.9069 9.79061C12.0674 9.5659 12.0154 9.25362 11.7907 9.09312L9.29066 7.30741C9.20245 7.2444 9.10075 7.21415 9.00004 7.21423L8.99997 8.32872L11.2094 9.90685Z" fill="black"/>
</svg>
