<svg width="16" height="16" viewBox="0 0 16 16" fill="none" xmlns="http://www.w3.org/2000/svg">
<path d="M9.49998 2.67157C9.49998 2.94771 9.72384 3.17157 9.99998 3.17157C10.2761 3.17157 10.5 2.94771 10.5 2.67157V0.843139C10.5 0.566997 10.2761 0.34314 9.99998 0.34314C9.72384 0.34314 9.49998 0.566997 9.49998 0.84314V2.67157Z" fill="black"/>
<path d="M14 2.7071C14.1952 2.51184 14.1952 2.19526 14 1.99999C13.8047 1.80473 13.4881 1.80473 13.2929 1.99999L12 3.29289C11.8047 3.48815 11.8047 3.80473 12 3.99999C12.1952 4.19526 12.5118 4.19526 12.7071 3.99999L14 2.7071Z" fill="black"/>
<path d="M7.29287 4C7.48814 4.19526 7.80472 4.19526 7.99998 4C8.19524 3.80473 8.19524 3.48815 7.99998 3.29289L6.70709 1.99999C6.51182 1.80473 6.19524 1.80473 5.99998 2C5.80472 2.19526 5.80472 2.51184 5.99998 2.7071L7.29287 4Z" fill="black"/>
<path d="M6.67155 6.49999C6.9477 6.49999 7.17155 6.27614 7.17155 5.99999C7.17155 5.72385 6.94769 5.49999 6.67155 5.49999H4.84312C4.56698 5.49999 4.34313 5.72385 4.34313 5.99999C4.34313 6.27614 4.56698 6.49999 4.84313 6.49999H6.67155Z" fill="black"/>
<path d="M15.1568 6.49999C15.433 6.49999 15.6568 6.27614 15.6568 5.99999C15.6568 5.72385 15.433 5.49999 15.1568 5.49999H13.3284C13.0523 5.49999 12.8284 5.72385 12.8284 5.99999C12.8284 6.27614 13.0523 6.49999 13.3284 6.49999H15.1568Z" fill="black"/>
<path d="M13.2929 10C13.4881 10.1953 13.8047 10.1953 14 10C14.1952 9.80473 14.1952 9.48815 14 9.29289L12.7071 7.99999C12.5118 7.80473 12.1952 7.80473 12 8C11.8047 8.19526 11.8047 8.51184 12 8.7071L13.2929 10Z" fill="black"/>
<path d="M9.49998 11.1568C9.49998 11.433 9.72384 11.6568 9.99998 11.6568C10.2761 11.6568 10.5 11.433 10.5 11.1568V9.32842C10.5 9.05228 10.2761 8.82842 9.99998 8.82842C9.72384 8.82842 9.49998 9.05228 9.49998 9.32842V11.1568Z" fill="black"/>
<path d="M11.3536 6.06065C11.5488 5.86539 11.5488 5.54881 11.3536 5.35355L10.6464 4.64644C10.4512 4.45118 10.1346 4.45118 9.93934 4.64644L8.64645 5.93933C8.45118 6.13459 8.45118 6.45118 8.64645 6.64644L9.35355 7.35355C9.54882 7.54881 9.8654 7.54881 10.0607 7.35355L11.3536 6.06065Z" fill="black"/>
<path d="M8.35355 9.06065C8.54882 8.86539 8.54882 8.54881 8.35355 8.35355L7.64645 7.64644C7.45118 7.45118 7.1346 7.45118 6.93934 7.64644L0.646446 13.9393C0.451184 14.1346 0.451185 14.4512 0.646447 14.6464L1.35355 15.3535C1.54882 15.5488 1.8654 15.5488 2.06066 15.3535L8.35355 9.06065Z" fill="black"/>
</svg>
