<svg width="16" height="16" viewBox="0 0 16 16" fill="none" xmlns="http://www.w3.org/2000/svg">
<path d="M9 8.5H11.7929L12.6464 9.35355C12.7402 9.44732 12.8674 9.5 13 9.5H14C14.2761 9.5 14.5 9.27614 14.5 9V8C14.5 7.72386 14.2761 7.5 14 7.5H9V8.5Z" fill="black"/>
<path d="M12 3H4C1.79086 3 0 4.79086 0 7V13C0 13.5523 0.447715 14 1 14H15C15.5523 14 16 13.5523 16 13V7C16 4.79086 14.2091 3 12 3ZM8 7C8 5.80531 7.47625 4.73294 6.64582 4H12C13.6569 4 15 5.34315 15 7V13H8V7ZM4.58471 7.15655C4.42027 7.08629 4.2183 7 4 7C3.7817 7 3.57973 7.08629 3.41529 7.15655C3.16373 7.26403 3 7.33398 3 7C3 6.44772 3.44772 6 4 6C4.55228 6 5 6.44772 5 7C5 7.33398 4.83627 7.26403 4.58471 7.15655Z" fill="black"/>
</svg>
