<svg width="16" height="16" viewBox="0 0 16 16" fill="none" xmlns="http://www.w3.org/2000/svg">
<path d="M4 4C2.34315 4 1 5.34315 1 7V13H7V7C7 5.34315 5.65685 4 4 4ZM4 3H12C14.2091 3 16 4.79086 16 7V13C16 13.5523 15.5523 14 15 14H1C0.447715 14 0 13.5523 0 13V7C0 4.79086 1.79086 3 4 3ZM6.64582 4C7.47625 4.73294 8 5.80531 8 7V13H15V7C15 5.34315 13.6569 4 12 4H6.64582Z" fill="black"/>
<path d="M11.7929 8.5H9V7.5H14C14.2761 7.5 14.5 7.72386 14.5 8V9C14.5 9.27614 14.2761 9.5 14 9.5H13C12.8674 9.5 12.7402 9.44732 12.6464 9.35355L11.7929 8.5Z" fill="black"/>
<path d="M5 7C5 7.55228 4.55228 7 4 7C3.44772 7 3 7.55228 3 7C3 6.44772 3.44772 6 4 6C4.55228 6 5 6.44772 5 7Z" fill="black"/>
</svg>
