<svg width="16" height="16" viewBox="0 0 16 16" fill="none" xmlns="http://www.w3.org/2000/svg">
<path d="M10.5 8.5V3.70711L11.3536 2.85355C11.4473 2.75979 11.5 2.63261 11.5 2.5V0.5C11.5 0.223857 11.2761 0 11 0H9.5C9.22386 0 9 0.223857 9 0.5V8.5H10.5Z" fill="black"/>
<path d="M4 3H8V4H6.64582C7.47625 4.73294 8 5.80531 8 7V13H15V7C15 5.34315 13.6569 4 12 4V3C14.2091 3 16 4.79086 16 7V13C16 13.5523 15.5523 14 15 14H1C0.447715 14 0 13.5523 0 13V7C0 4.79086 1.79086 3 4 3ZM4.58471 7.15655C4.83627 7.26403 5 7.33398 5 7C5 6.44772 4.55228 6 4 6C3.44772 6 3 6.44772 3 7C3 7.33398 3.16373 7.26403 3.41529 7.15655C3.57973 7.08629 3.7817 7 4 7C4.2183 7 4.42027 7.08629 4.58471 7.15655Z" fill="black"/>
</svg>
