<svg width="16" height="16" viewBox="0 0 16 16" fill="none" xmlns="http://www.w3.org/2000/svg">
<path fill-rule="evenodd" clip-rule="evenodd" d="M16 0.500004C16 0.350208 15.9328 0.208303 15.817 0.113333C15.7012 0.0183639 15.5488 -0.0196636 15.4019 0.00971396L10.5 0.990102L5.59806 0.00971396C5.53333 -0.00323223 5.46667 -0.00323223 5.40194 0.00971396L0.401942 1.00971C0.16823 1.05646 0 1.26166 0 1.5V15.5C0 15.6498 0.0671615 15.7917 0.183006 15.8867C0.29885 15.9816 0.45117 16.0197 0.598058 15.9903L5.5 15.0099L10.4019 15.9903C10.4667 16.0032 10.5333 16.0032 10.5981 15.9903L15.5981 14.9903C15.8318 14.9436 16 14.7383 16 14.5V0.500004ZM5 14.0901V1.10989L5.5 1.00989L6 1.10989V14.0901L5.59806 14.0097C5.53333 13.9967 5.46667 13.9967 5.40194 14.0097L5 14.0901ZM10 14.8901V1.90989L10.4019 1.99028C10.4667 2.00322 10.5333 2.00322 10.5981 1.99028L11 1.90989V14.8901L10.5 14.9901L10 14.8901Z" fill="black"/>
</svg>
