<svg width="16" height="16" viewBox="0 0 16 16" fill="none" xmlns="http://www.w3.org/2000/svg">
<path d="M0 4C0 2.89543 0.895431 2 2 2H14C15.1046 2 16 2.89543 16 4V12C16 13.1046 15.1046 14 14 14H2C0.895431 14 0 13.1046 0 12V4ZM11.5 5C11.2239 5 11 5.22386 11 5.5V9.29289L9.85355 8.14645C9.65829 7.95118 9.34171 7.95118 9.14645 8.14645C8.95118 8.34171 8.95118 8.65829 9.14645 8.85355L11.1464 10.8536C11.3417 11.0488 11.6583 11.0488 11.8536 10.8536L13.8536 8.85355C14.0488 8.65829 14.0488 8.34171 13.8536 8.14645C13.6583 7.95118 13.3417 7.95118 13.1464 8.14645L12 9.29289L12 5.5C12 5.22386 11.7761 5 11.5 5ZM3.55908 7.00977H3.61621L5.04443 10.2485H5.81787L7.2373 7.00977H7.29443V11H8.3667V5.00146H7.16699L5.45752 8.89502H5.41797L3.7085 5.00146H2.5V11H3.55908V7.00977Z" fill="black"/>
</svg>
