<svg width="16" height="16" viewBox="0 0 16 16" fill="none" xmlns="http://www.w3.org/2000/svg">
<path d="M16 8C16 12.4183 12.4183 16 8 16C3.58172 16 0 12.4183 0 8C0 3.58172 3.58172 0 8 0C12.4183 0 16 3.58172 16 8ZM11.4992 14.064L10.2186 9.36844C10.1593 9.15091 9.96168 9 9.7362 9H6.2638C6.03832 9 5.84074 9.15091 5.78141 9.36844L4.50081 14.064C5.53023 14.6593 6.72533 15 8 15C9.27467 15 10.4698 14.6593 11.4992 14.064ZM12.3728 13.4665C13.9744 12.1837 15 10.2116 15 8C15 4.13401 11.866 1 8 1C4.13401 1 1 4.13401 1 8C1 10.2116 2.02565 12.1837 3.62724 13.4665L4.81665 9.10532C4.98244 8.49743 5.50812 8.06295 6.1261 8.00629L7.28163 4.15451C7.49543 3.44186 8.50457 3.44186 8.71837 4.15451L9.8739 8.00629C10.4919 8.06295 11.0176 8.49743 11.1833 9.10532L12.3728 13.4665Z" fill="black"/>
</svg>
