<svg width="16" height="16" viewBox="0 0 16 16" fill="none" xmlns="http://www.w3.org/2000/svg">
<path d="M14 3C14.5523 3 15 3.44772 15 4V12C15 12.5523 14.5523 13 14 13H2C1.44772 13 1 12.5523 1 12V4C1 3.44772 1.44772 3 2 3H14ZM2 2C0.895431 2 0 2.89543 0 4V12C0 13.1046 0.895431 14 2 14H14C15.1046 14 16 13.1046 16 12V4C16 2.89543 15.1046 2 14 2H2Z" fill="black"/>
<path fill-rule="evenodd" clip-rule="evenodd" d="M9.14645 8.14645C9.34171 7.95118 9.65829 7.95118 9.85355 8.14645L11.5 9.79289L13.1464 8.14645C13.3417 7.95118 13.6583 7.95118 13.8536 8.14645C14.0488 8.34171 14.0488 8.65829 13.8536 8.85355L11.8536 10.8536C11.6583 11.0488 11.3417 11.0488 11.1464 10.8536L9.14645 8.85355C8.95118 8.65829 8.95118 8.34171 9.14645 8.14645Z" fill="black"/>
<path fill-rule="evenodd" clip-rule="evenodd" d="M11.5 5C11.7761 5 12 5.22386 12 5.5L12 9.5C12 9.77614 11.7761 10 11.5 10C11.2239 10 11 9.77614 11 9.5L11 5.5C11 5.22386 11.2239 5 11.5 5Z" fill="black"/>
<path d="M3.55908 11V7.00977H3.61621L5.04443 10.2485H5.81787L7.2373 7.00977H7.29443V11H8.3667V5.00146H7.16699L5.45752 8.89502H5.41797L3.7085 5.00146H2.5V11H3.55908Z" fill="black"/>
</svg>
