<svg width="16" height="16" viewBox="0 0 16 16" fill="none" xmlns="http://www.w3.org/2000/svg">
<path d="M6.22523 1.22696C8.7532 2.4329 10.5 5.01245 10.5 8C10.5 10.9875 8.75319 13.5671 6.22522 14.773C6.79201 14.9212 7.3868 15 8 15C11.866 15 15 11.866 15 8C15 4.13401 11.866 1 8 1C7.3868 1 6.79201 1.07885 6.22523 1.22696ZM4.18673 0.965557C5.32027 0.349778 6.61929 0 8 0C12.4183 0 16 3.58172 16 8C16 12.4183 12.4183 16 8 16C6.83288 16 5.72414 15.7501 4.72437 15.3008C1.93938 14.0494 0 11.2512 0 8C0 4.96243 1.69292 2.32027 4.18673 0.965557Z" fill="black"/>
</svg>
