<svg width="16" height="16" viewBox="0 0 16 16" fill="none" xmlns="http://www.w3.org/2000/svg">
<path d="M11.1909 12.1951C13.2058 11.9557 14.9602 10.7205 15.1807 9.59184C15.5281 7.81389 15.4994 5.25305 15.4994 5.25305C15.4994 1.78217 13.2139 0.764795 13.2139 0.764795C12.0615 0.23818 10.0826 0.0167234 8.02678 0H7.97627C5.92041 0.0167234 3.94286 0.23818 2.79039 0.764795C2.79039 0.764795 0.504754 1.78217 0.504754 5.25305C0.504754 5.46347 0.503661 5.68479 0.502523 5.91519C0.499363 6.55506 0.495857 7.26496 0.514458 8.00596C0.597458 11.4003 1.13991 14.7456 4.2941 15.5762C5.74843 15.9592 6.99707 16.0394 8.0027 15.9844C9.82637 15.8838 10.8501 15.3369 10.8501 15.3369L10.79 14.0204C10.79 14.0204 9.48674 14.4292 8.02314 14.3794C6.57306 14.3299 5.04223 14.2238 4.8077 12.4524C4.78604 12.2968 4.77521 12.1304 4.77521 11.9557C4.77521 11.9557 6.19869 12.3019 8.0027 12.3841C9.10579 12.4345 10.1403 12.3198 11.1909 12.1951ZM12.8034 9.72502H11.13V5.64588C11.13 4.786 10.7664 4.34955 10.039 4.34955C9.23486 4.34955 8.83182 4.86729 8.83182 5.89104V8.12379H7.16825V5.89104C7.16825 4.86729 6.76512 4.34955 5.96093 4.34955C5.2336 4.34955 4.86997 4.786 4.86997 5.64588V9.72502H3.19653V5.52235C3.19653 4.66342 3.41634 3.98086 3.85785 3.47588C4.31314 2.9709 4.90939 2.71204 5.64955 2.71204C6.5059 2.71204 7.15439 3.03952 7.58317 3.69458L7.99999 4.38981L8.4169 3.69458C8.84559 3.03952 9.49409 2.71204 10.3505 2.71204C11.0906 2.71204 11.6868 2.9709 12.1422 3.47588C12.5836 3.98086 12.8034 4.66342 12.8034 5.52235V9.72502Z" fill="black"/>
</svg>
