<svg width="16" height="16" viewBox="0 0 16 16" fill="none" xmlns="http://www.w3.org/2000/svg">
<path d="M9.02494 7.99992C9.02494 10.4852 7.00464 12.5 4.51239 12.5C2.02015 12.5 0 10.4858 0 7.99992C0 5.51405 2.0203 3.5 4.51239 3.5C7.00448 3.5 9.02494 5.51465 9.02494 7.99992ZM13.9753 7.99992C13.9753 10.3395 12.965 12.2359 11.719 12.2359C10.4729 12.2359 9.46271 10.3389 9.46271 7.99992C9.46271 5.66095 10.4729 3.76392 11.719 3.76392C12.965 3.76392 13.9753 5.66095 13.9753 7.99992ZM16 7.99992C16 10.0961 15.6447 11.7952 15.2064 11.7952C14.7682 11.7952 14.4129 10.0955 14.4129 7.99992C14.4129 5.90438 14.7682 4.20464 15.2066 4.20464C15.645 4.20464 16 5.90393 16 7.99992Z" fill="black"/>
</svg>
