<svg width="16" height="16" viewBox="0 0 16 16" fill="none" xmlns="http://www.w3.org/2000/svg">
<path d="M13 2.5C13 1.67157 13.6716 1 14.5 1C15.3284 1 16 1.67157 16 2.5V13.5C16 14.3284 15.3284 15 14.5 15C13.6716 15 13 14.3284 13 13.5V13.2862C10.8381 12.045 8.51034 11.4425 6.088 11.2026L6.49282 13.9148C6.60959 14.5293 6.13842 15.101 5.5103 15.101H4.96173C4.56378 15.101 4.20477 14.8652 4.04585 14.5024L2.19627 11.0116C2.12888 11.0106 2.06149 11.0097 1.9941 11.0089C0.895613 10.996 0 10.106 0 9V7C0 5.89424 0.8949 5.00372 1.99207 4.98669C2.7454 4.975 3.66574 4.95309 4.47475 4.91218C7.51826 4.75829 10.623 4.06333 13 2.71298V2.5ZM14 2.5V13.5C14 13.7761 14.2239 14 14.5 14C14.7761 14 15 13.7761 15 13.5V2.5C15 2.22386 14.7761 2 14.5 2C14.2239 2 14 2.22386 14 2.5ZM13 3.84952C10.6557 5.05548 7.79147 5.69185 5 5.88269V10.1155C5.17999 10.1264 5.35894 10.1384 5.53676 10.1515C8.10519 10.3408 10.6302 10.8964 13 12.145V3.84952ZM4 10.0645V5.93444C3.31951 5.96141 2.60833 5.97725 2.00759 5.98657C1.44811 5.99526 1 6.44891 1 7V9C1 9.55085 1.44754 10.0024 2.0058 10.0089C2.17394 10.0109 2.34203 10.0136 2.51006 10.017C3.00713 10.027 3.50376 10.0431 4 10.0645ZM3.34295 11.0399L4.95194 14.0766L4.96173 14.101L5.5103 14.101L5.50751 14.0875L5.06481 11.1214C4.86968 11.109 4.67295 11.0978 4.47475 11.0878C4.09741 11.0687 3.72016 11.0527 3.34295 11.0399Z" fill="black"/>
</svg>
