<svg width="16" height="16" viewBox="0 0 16 16" fill="none" xmlns="http://www.w3.org/2000/svg">
<path d="M13 2.5C13 1.67157 13.6716 1 14.5 1C15.3284 1 16 1.67157 16 2.5V13.5C16 14.3284 15.3284 15 14.5 15C13.6716 15 13 14.3284 13 13.5V13.2862V2.71298V2.5ZM12 3.22407C9.93335 4.17346 7.46149 4.70545 5 4.88026V11.1174C5.15544 11.127 5.30987 11.1375 5.46324 11.1488C5.67216 11.1642 5.88043 11.1821 6.088 11.2026C8.14108 11.4059 10.1262 11.8697 12 12.7621V3.22407ZM4 11.0654V4.93364C3.3196 4.9611 2.60124 4.97724 1.99207 4.98669C0.8949 5.00372 0 5.89424 0 7V9C0 10.106 0.895613 10.996 1.9941 11.0089C2.06149 11.0097 2.12888 11.0106 2.19627 11.0116C2.29416 11.0131 2.39205 11.0148 2.48993 11.0168C2.99323 11.0269 3.49656 11.0434 4 11.0654ZM5.38972 12.1461C5.67532 12.1671 5.95892 12.1929 6.24045 12.224L6.49282 13.9148C6.60959 14.5293 6.13842 15.101 5.5103 15.101H4.96173C4.56378 15.101 4.20477 14.8652 4.04585 14.5024L2.73185 12.0224C3.29522 12.0363 3.85928 12.058 4.42425 12.0865C4.75132 12.1031 5.07331 12.1227 5.38972 12.1461Z" fill="black"/>
</svg>
