<svg width="16" height="16" viewBox="0 0 16 16" fill="none" xmlns="http://www.w3.org/2000/svg">
<path d="M1 3C0.447715 3 0 3.44772 0 4V12C0 12.5523 0.447715 13 1 13H5.58579C5.851 13 6.10536 12.8946 6.29289 12.7071L6.64645 12.3536C6.84171 12.1583 7.15829 12.1583 7.35355 12.3536L7.70711 12.7071C7.89464 12.8946 8.149 13 8.41421 13H15C15.5523 13 16 12.5523 16 12V4C16 3.44772 15.5523 3 15 3H1ZM1.5 4H4.5C4.77614 4 5 4.22386 5 4.5V8.5C5 8.77614 4.77614 9 4.5 9H1.5C1.22386 9 1 8.77614 1 8.5V4.5C1 4.22386 1.22386 4 1.5 4ZM6.5 4H9.5C9.77614 4 10 4.22386 10 4.5V8.5C10 8.77614 9.77614 9 9.5 9H6.5C6.22386 9 6 8.77614 6 8.5V4.5C6 4.22386 6.22386 4 6.5 4ZM11 4.5C11 4.22386 11.2239 4 11.5 4H14.5C14.7761 4 15 4.22386 15 4.5V8.5C15 8.77614 14.7761 9 14.5 9H11.5C11.2239 9 11 8.77614 11 8.5V4.5ZM2 10V12H1V10H2ZM4 10V12H3V10H4ZM6 10V12H5V10H6ZM9 10V12H8V10H9ZM11 10V12H10V10H11ZM13 10V12H12V10H13ZM15 10V12H14V10H15Z" fill="black"/>
</svg>
