<svg width="16" height="16" viewBox="0 0 16 16" fill="none" xmlns="http://www.w3.org/2000/svg">
<path d="M7.64645 0.146447C7.84171 -0.0488155 8.15829 -0.0488155 8.35355 0.146447L10.2071 2L14 2C15.1046 2 16 2.89543 16 4V13C16 14.1046 15.1046 15 14 15H2C0.895431 15 0 14.1046 0 13V4C0 2.89543 0.895431 2 2 2H5.79289L7.64645 0.146447ZM1 7V10H15V7H1ZM15 6V4C15 3.44772 14.5523 3 14 3H10.2071C9.94189 3 9.68754 2.89464 9.5 2.70711L8 1.20711L6.5 2.70711C6.31246 2.89464 6.05811 3 5.79289 3H2C1.44772 3 1 3.44772 1 4V6H15ZM15 11H1V13C1 13.5523 1.44772 14 2 14H14C14.5523 14 15 13.5523 15 13V11ZM2 4.5C2 4.22386 2.22386 4 2.5 4H10.5C10.7761 4 11 4.22386 11 4.5C11 4.77614 10.7761 5 10.5 5H2.5C2.22386 5 2 4.77614 2 4.5ZM2 8.5C2 8.22386 2.22386 8 2.5 8H13.5C13.7761 8 14 8.22386 14 8.5C14 8.77614 13.7761 9 13.5 9H2.5C2.22386 9 2 8.77614 2 8.5ZM2 12.5C2 12.2239 2.22386 12 2.5 12H8.5C8.77614 12 9 12.2239 9 12.5C9 12.7761 8.77614 13 8.5 13H2.5C2.22386 13 2 12.7761 2 12.5Z" fill="black"/>
</svg>
