<svg width="16" height="16" viewBox="0 0 16 16" fill="none" xmlns="http://www.w3.org/2000/svg">
<path d="M0 1.5C0 0.671573 0.671573 0 1.5 0H3.5C4.32843 0 5 0.671573 5 1.5V3.5C5 4.32843 4.32843 5 3.5 5H1.5C0.671573 5 0 4.32843 0 3.5V1.5ZM1.5 1C1.22386 1 1 1.22386 1 1.5V3.5C1 3.77614 1.22386 4 1.5 4H3.5C3.77614 4 4 3.77614 4 3.5V1.5C4 1.22386 3.77614 1 3.5 1H1.5Z" fill="black"/>
<path d="M0 8C0 6.89543 0.895431 6 2 6H14C15.1046 6 16 6.89543 16 8V13C16 14.1046 15.1046 15 14 15H2C0.895431 15 0 14.1046 0 13V8ZM1 11V13C1 13.5523 1.44772 14 2 14H14C14.5523 14 15 13.5523 15 13V11H1ZM15 10V8C15 7.44772 14.5523 7 14 7H2C1.44772 7 1 7.44772 1 8V10H15ZM2 8.5C2 8.22386 2.22386 8 2.5 8H11.5C11.7761 8 12 8.22386 12 8.5C12 8.77614 11.7761 9 11.5 9H2.5C2.22386 9 2 8.77614 2 8.5ZM2 12.5C2 12.2239 2.22386 12 2.5 12H8.5C8.77614 12 9 12.2239 9 12.5C9 12.7761 8.77614 13 8.5 13H2.5C2.22386 13 2 12.7761 2 12.5Z" fill="black"/>
</svg>
