<svg width="16" height="16" viewBox="0 0 16 16" fill="none" xmlns="http://www.w3.org/2000/svg">
<path d="M7.64645 15.8536C7.84171 16.0488 8.15829 16.0488 8.35355 15.8536L10.2071 14H14C15.1046 14 16 13.1046 16 12V3C16 1.89543 15.1046 1 14 1H2C0.895431 1 0 1.89543 0 3V12C0 13.1046 0.895431 14 2 14H5.79289L7.64645 15.8536ZM1 9V6H15V9H1ZM15 10V12C15 12.5523 14.5523 13 14 13H10.2071C9.94189 13 9.68754 13.1054 9.5 13.2929L8 14.7929L6.5 13.2929C6.31246 13.1054 6.05811 13 5.79289 13H2C1.44772 13 1 12.5523 1 12V10H15ZM15 5H1V3C1 2.44772 1.44772 2 2 2H14C14.5523 2 15 2.44772 15 3V5ZM2 11.5C2 11.7761 2.22386 12 2.5 12H10.5C10.7761 12 11 11.7761 11 11.5C11 11.2239 10.7761 11 10.5 11H2.5C2.22386 11 2 11.2239 2 11.5ZM2 7.5C2 7.77614 2.22386 8 2.5 8H13.5C13.7761 8 14 7.77614 14 7.5C14 7.22386 13.7761 7 13.5 7H2.5C2.22386 7 2 7.22386 2 7.5ZM2 3.5C2 3.77614 2.22386 4 2.5 4H8.5C8.77614 4 9 3.77614 9 3.5C9 3.22386 8.77614 3 8.5 3H2.5C2.22386 3 2 3.22386 2 3.5Z" fill="black"/>
</svg>
