<svg width="16" height="16" viewBox="0 0 16 16" fill="none" xmlns="http://www.w3.org/2000/svg">
<path d="M0 7.76C0 3.30112 3.49336 0 8 0C12.5066 0 16 3.30112 16 7.76C16 12.2189 12.5066 15.52 8 15.52C7.19053 15.52 6.41392 15.4131 5.68424 15.2125C5.5424 15.1734 5.39157 15.1845 5.25696 15.2438L3.66907 15.9448C3.25371 16.1282 2.78485 15.8328 2.77093 15.3789L2.72736 13.9558C2.722 13.7805 2.64312 13.6166 2.51245 13.4997C0.95584 12.1076 0 10.0923 0 7.76ZM5.54604 6.3011L3.19604 10.0294C2.97052 10.3872 3.41033 10.7904 3.74724 10.5348L6.27153 8.61899C6.44228 8.48939 6.67825 8.4887 6.84972 8.61731L8.71884 10.0192C9.27969 10.4398 10.0802 10.2921 10.454 9.69902L12.804 5.97067C13.0295 5.61286 12.5897 5.20966 12.2528 5.46534L9.72849 7.3811C9.55772 7.5107 9.32177 7.51139 9.15028 7.38275L7.28121 5.98094C6.72033 5.5603 5.91985 5.70798 5.54604 6.3011Z" fill="black"/>
</svg>
