<svg width="16" height="16" viewBox="0 0 16 16" fill="none" xmlns="http://www.w3.org/2000/svg">
<path fill-rule="evenodd" clip-rule="evenodd" d="M8.21717 5.24344C9.14548 3.98818 10.1711 3 11.483 3C13.9604 3 16 6.15305 16.001 9.90746C16.001 12.1979 15.0151 13.6324 13.2439 13.6324C11.7005 13.6324 10.8489 12.7657 9.32049 10.208L8.6532 9.08543L8.65289 9.0859L8.53529 8.88813C8.3489 8.57426 8.17224 8.28229 8.00414 8.01093C7.52441 8.85938 6.82708 10.0908 6.82708 10.0908C5.15354 13.0157 4.21236 13.6324 2.90372 13.6324C1.08557 13.6324 0 12.2173 0 9.97339C0 6.3877 1.99454 3 4.59757 3C4.91678 3 5.22288 3.03869 5.52239 3.1221C5.83122 3.20811 6.13306 3.34167 6.43508 3.52939C7.01181 3.88787 7.58919 4.44386 8.21717 5.24344ZM9.73261 7.46658C9.48062 7.05678 9.23907 6.67996 9.00591 6.33424C9.00416 6.33164 9.00242 6.32905 9.00067 6.32646C9.84616 5.02144 10.5435 4.37158 11.3731 4.37158C13.0962 4.37158 14.4748 6.90869 14.4748 10.0251C14.4748 11.2129 14.0857 11.9022 13.2796 11.9022C12.5068 11.9019 12.1378 11.3916 10.6707 9.03114L9.73261 7.46658ZM4.84623 4.75598C5.57106 4.85631 6.23076 5.38973 7.18604 6.75723C6.16772 8.31915 5.55087 9.29876 5.55087 9.29876C4.19428 11.4252 3.72497 11.9019 2.96974 11.9019C2.19251 11.9019 1.73053 11.2195 1.73053 10.0027C1.73053 7.39959 3.02844 4.73787 4.57556 4.73787C4.66721 4.73787 4.75721 4.74366 4.84623 4.75598Z" fill="black"/>
</svg>
