<svg width="16" height="16" viewBox="0 0 16 16" fill="none" xmlns="http://www.w3.org/2000/svg">
<path d="M13 8C13 8.56433 12.9065 9.10683 12.7342 9.61285L11.9202 8.79889C11.9725 8.54075 12 8.27358 12 8V7C12 6.72386 12.2239 6.5 12.5 6.5C12.7761 6.5 13 6.72386 13 7V8Z" fill="black"/>
<path d="M8 12C8.81786 12 9.5784 11.7545 10.212 11.3333L10.9304 12.0517C10.2339 12.5563 9.40224 12.8857 8.5 12.9753V15H11.5C11.7761 15 12 15.2239 12 15.5C12 15.7761 11.7761 16 11.5 16H4.5C4.22386 16 4 15.7761 4 15.5C4 15.2239 4.22386 15 4.5 15H7.5V12.9753C4.97334 12.7245 3 10.5927 3 8V7C3 6.72386 3.22386 6.5 3.5 6.5C3.77614 6.5 4 6.72386 4 7V8C4 10.2091 5.79086 12 8 12Z" fill="black"/>
<path d="M11 3V7.87868L10 6.87868V3C10 1.89543 9.10457 1 8 1C6.93501 1 6.06444 1.83241 6.00342 2.8821L5.15801 2.03669C5.55931 0.852371 6.68011 0 8 0C9.65685 0 11 1.34315 11 3Z" fill="black"/>
<path d="M9.48561 10.6069L8.73808 9.8594C8.50972 9.95013 8.26068 10 8 10C6.89543 10 6 9.10457 6 8V7.12132L5 6.12132V8C5 9.65685 6.34315 11 8 11C8.5405 11 9.04761 10.8571 9.48561 10.6069Z" fill="black"/>
<path d="M1.64648 1.35353L13.6465 13.3535L14.3536 12.6464L2.35359 0.646423L1.64648 1.35353Z" fill="black"/>
</svg>
