<svg width="16" height="16" viewBox="0 0 16 16" fill="none" xmlns="http://www.w3.org/2000/svg">
<path d="M5 3C5 1.34315 6.34315 0 8 0C9.65685 0 11 1.34315 11 3V8C11 9.65685 9.65685 11 8 11C6.34315 11 5 9.65685 5 8V3Z" fill="black"/>
<path d="M3.5 6.5C3.77614 6.5 4 6.72386 4 7V8C4 10.2091 5.79086 12 8 12C10.2091 12 12 10.2091 12 8V7C12 6.72386 12.2239 6.5 12.5 6.5C12.7761 6.5 13 6.72386 13 7V8C13 10.5927 11.0267 12.7245 8.5 12.9753V15H11.5C11.7761 15 12 15.2239 12 15.5C12 15.7761 11.7761 16 11.5 16H4.5C4.22386 16 4 15.7761 4 15.5C4 15.2239 4.22386 15 4.5 15H7.5V12.9753C4.97334 12.7245 3 10.5927 3 8V7C3 6.72386 3.22386 6.5 3.5 6.5Z" fill="black"/>
</svg>
