<svg width="16" height="16" viewBox="0 0 16 16" fill="none" xmlns="http://www.w3.org/2000/svg">
<path d="M9.18604 4.79694C10.3108 4.5893 11.1628 3.60345 11.1628 2.41861C11.1628 1.08285 10.0799 0 8.74417 0C7.43173 0 6.36345 1.04536 6.32655 2.34888H7.50399C8.43297 2.34888 9.18604 3.10196 9.18604 4.03092V4.79694Z" fill="black"/>
<path d="M4.89114 12.5349H7.50399C8.43295 12.5349 9.18604 11.7818 9.18604 10.8529V5.58142H11.9691C12.3549 5.59097 12.6601 5.91114 12.6511 6.29696V10.5905C12.705 12.9058 10.8733 14.8271 8.55811 14.8838C6.94015 14.8442 5.55831 13.8939 4.89114 12.5349Z" fill="black"/>
<path d="M15.6279 3.16282C15.6279 4.08758 14.8782 4.83724 13.9535 4.83724C13.0287 4.83724 12.2791 4.08758 12.2791 3.16282C12.2791 2.23807 13.0287 1.4884 13.9535 1.4884C14.8782 1.4884 15.6279 2.23807 15.6279 3.16282Z" fill="black"/>
<path d="M13.3894 12.6512C13.3493 12.6512 13.3094 12.6503 13.2698 12.6485C13.5297 12.011 13.6665 11.3112 13.6511 10.5795V6.30611C13.655 6.04803 13.6011 5.8023 13.5012 5.58142H15.293C15.6835 5.58142 16 5.89794 16 6.28839V10.0529C16 11.4879 14.8367 12.6512 13.4017 12.6512H13.3894Z" fill="black"/>
<path d="M0.682043 3.34888H7.50399C7.88068 3.34888 8.18604 3.65424 8.18604 4.03092V10.8529C8.18604 11.2296 7.88067 11.5349 7.50399 11.5349H0.682043C0.305358 11.5349 0 11.2295 0 10.8529V4.03092C0 3.65424 0.305365 3.34888 0.682043 3.34888ZM5.88799 5.94535V5.22498H2.29803V5.94535H3.65543V9.65884H4.52426V5.94535H5.88799Z" fill="black"/>
</svg>
