<svg width="16" height="16" viewBox="0 0 16 16" fill="none" xmlns="http://www.w3.org/2000/svg">
<path d="M4 15C3.44772 15 3 14.5523 3 14C3 13.4477 3.44772 13 4 13C4.55229 13 5 13.4477 5 14C5 14.5523 4.55229 15 4 15ZM4 16C5.10457 16 6 15.1046 6 14C6 12.8954 5.10457 12 4 12C2.89543 12 2 12.8954 2 14C2 15.1046 2.89543 16 4 16Z" fill="black"/>
<path d="M12 15C11.4477 15 11 14.5523 11 14C11 13.4477 11.4477 13 12 13C12.5523 13 13 13.4477 13 14C13 14.5523 12.5523 15 12 15ZM12 16C13.1046 16 14 15.1046 14 14C14 12.8954 13.1046 12 12 12C10.8954 12 10 12.8954 10 14C10 15.1046 10.8954 16 12 16Z" fill="black"/>
<path d="M0.11525 3.18068C0.210242 3.06622 0.351262 3 0.500004 3H15.5C15.6487 3 15.7898 3.06622 15.8848 3.18068C15.9798 3.29514 16.0189 3.44595 15.9914 3.59214L14.4914 11.5921C14.4471 11.8286 14.2406 12 14 12H2C1.7594 12 1.55291 11.8286 1.50857 11.5921L0.00856805 3.59214C-0.0188434 3.44595 0.0202574 3.29514 0.11525 3.18068ZM1.10247 4L2.41497 11H13.585L14.8975 4H1.10247Z" fill="black"/>
<path fill-rule="evenodd" clip-rule="evenodd" d="M6 0.999822C6.45525 0.393663 7.18173 0 8.00001 0C8.81829 0 9.54477 0.393665 10 0.999825C10.8183 0.999825 11.5448 1.39367 12 1.99983C12.6704 1.99983 13.5515 2.57067 14 3H12C11.6858 3 11.3886 2.85093 11.2004 2.60036C10.9259 2.23486 10.4905 2 10 2C9.68585 2 9.38861 1.85093 9.20042 1.60036C8.92592 1.23486 8.49046 1 8.00001 1C7.50956 1 7.0741 1.23486 6.7996 1.60036C6.61141 1.85092 6.31417 2 6.00001 2C5.49312 2 5.04479 2.25096 4.77247 2.63764C4.68114 2.76734 4.57781 2.88878 4.46445 3H3C3.12958 2.85318 3.4013 2.56794 3.56189 2.45485C3.71369 2.34795 3.84796 2.21368 3.95487 2.06186C4.40646 1.42061 5.15408 0.999822 6 0.999822Z" fill="black"/>
</svg>
