<svg width="16" height="16" viewBox="0 0 16 16" fill="none" xmlns="http://www.w3.org/2000/svg">
<path d="M5.50005 1.5C5.50005 0.671573 6.17162 0 7.00005 0H9.00005C9.82848 0 10.5 0.671573 10.5 1.5V12.5C10.5 13.2962 9.87968 13.9475 9.09593 13.997C9.44654 14.3021 9.96785 14.6749 10.7237 15.0528C10.9311 15.1565 11.04 15.3892 10.9867 15.6149C10.9334 15.8406 10.7319 16 10.5 16H5.50005C5.26816 16 5.0667 15.8406 5.01342 15.6149C4.96015 15.3892 5.06903 15.1565 5.27644 15.0528C6.03225 14.6749 6.55356 14.3021 6.90417 13.997C6.12042 13.9475 5.50005 13.2962 5.50005 12.5V1.5ZM7.00005 1C6.72391 1 6.50005 1.22386 6.50005 1.5V12.5C6.50005 12.7761 6.72391 13 7.00005 13H9.00005C9.27619 13 9.50005 12.7761 9.50005 12.5V1.5C9.50005 1.22386 9.27619 1 9.00005 1H7.00005Z" fill="black"/>
<path d="M8.50005 2.5C8.50005 2.77614 8.27619 3 8.00005 3C7.72391 3 7.50005 2.77614 7.50005 2.5C7.50005 2.22386 7.72391 2 8.00005 2C8.27619 2 8.50005 2.22386 8.50005 2.5Z" fill="black"/>
<path d="M8.50005 4.5C8.50005 4.77614 8.27619 5 8.00005 5C7.72391 5 7.50005 4.77614 7.50005 4.5C7.50005 4.22386 7.72391 4 8.00005 4C8.27619 4 8.50005 4.22386 8.50005 4.5Z" fill="black"/>
<path d="M8.50005 6.5C8.50005 6.77614 8.27619 7 8.00005 7C7.72391 7 7.50005 6.77614 7.50005 6.5C7.50005 6.22386 7.72391 6 8.00005 6C8.27619 6 8.50005 6.22386 8.50005 6.5Z" fill="black"/>
<path d="M8.50005 8.5C8.50005 8.77614 8.27619 9 8.00005 9C7.72391 9 7.50005 8.77614 7.50005 8.5C7.50005 8.22386 7.72391 8 8.00005 8C8.27619 8 8.50005 8.22386 8.50005 8.5Z" fill="black"/>
</svg>
