<svg width="16" height="16" viewBox="0 0 16 16" fill="none" xmlns="http://www.w3.org/2000/svg">
<path d="M7.00005 0C6.17162 0 5.50005 0.671573 5.50005 1.5V12.5C5.50005 13.2962 6.12042 13.9475 6.90417 13.997C6.55356 14.3021 6.03225 14.6749 5.27644 15.0528C5.06903 15.1565 4.96015 15.3892 5.01342 15.6149C5.0667 15.8406 5.26816 16 5.50005 16H10.5C10.7319 16 10.9334 15.8406 10.9867 15.6149C11.04 15.3892 10.9311 15.1565 10.7237 15.0528C9.96785 14.6749 9.44654 14.3021 9.09593 13.997C9.87968 13.9475 10.5 13.2962 10.5 12.5V1.5C10.5 0.671573 9.82848 0 9.00005 0H7.00005ZM8.00006 3C7.72392 3 7.50006 2.77614 7.50006 2.5C7.50006 2.22386 7.72392 2 8.00006 2C8.2762 2 8.50006 2.22386 8.50006 2.5C8.50006 2.77614 8.2762 3 8.00006 3ZM8.00006 5C7.72392 5 7.50006 4.77614 7.50006 4.5C7.50006 4.22386 7.72392 4 8.00006 4C8.2762 4 8.50006 4.22386 8.50006 4.5C8.50006 4.77614 8.2762 5 8.00006 5ZM8.50006 6.5C8.50006 6.77614 8.2762 7 8.00006 7C7.72392 7 7.50006 6.77614 7.50006 6.5C7.50006 6.22386 7.72392 6 8.00006 6C8.2762 6 8.50006 6.22386 8.50006 6.5ZM8.00006 9C7.72392 9 7.50006 8.77614 7.50006 8.5C7.50006 8.22386 7.72392 8 8.00006 8C8.2762 8 8.50006 8.22386 8.50006 8.5C8.50006 8.77614 8.2762 9 8.00006 9Z" fill="black"/>
</svg>
