<svg width="16" height="16" viewBox="0 0 16 16" fill="none" xmlns="http://www.w3.org/2000/svg">
<path d="M13.5 0C13.2239 0 13 0.223858 13 0.5C13 0.776142 13.2239 1 13.5 1H15V3.75H14.5C14.2239 3.75 14 3.97386 14 4.25C14 4.52614 14.2239 4.75 14.5 4.75H15V7.5H13.5C13.2239 7.5 13 7.72386 13 8C13 8.27614 13.2239 8.5 13.5 8.5H15V11.25H14.5C14.2239 11.25 14 11.4739 14 11.75C14 12.0261 14.2239 12.25 14.5 12.25H15V15H13.5C13.2239 15 13 15.2239 13 15.5C13 15.7761 13.2239 16 13.5 16H15.5C15.7761 16 16 15.7761 16 15.5V0.5C16 0.223858 15.7761 0 15.5 0H13.5Z" fill="black"/>
<path d="M7 1.5L7.36358 1.15676C7.26912 1.05671 7.1376 1 7 1C6.8624 1 6.73088 1.05671 6.63642 1.15676L6.63563 1.1576L6.63398 1.15936L6.6281 1.16562L6.6064 1.18892C6.58761 1.20916 6.56032 1.23875 6.52538 1.27711C6.4555 1.35383 6.35497 1.46568 6.23059 1.60808C5.98196 1.89275 5.63741 2.30025 5.25169 2.79385C4.48333 3.77709 3.53825 5.1188 2.86716 6.52118C2.36799 7.56431 2 8.68248 2 9.73333C2 12.6145 4.21185 15 7 15C9.78815 15 12 12.6145 12 9.73333C12 8.68248 11.632 7.56431 11.1328 6.52118C10.4617 5.1188 9.51667 3.77709 8.74831 2.79385C8.36259 2.30025 8.01804 1.89275 7.76941 1.60808C7.64503 1.46568 7.5445 1.35383 7.47462 1.27711C7.43968 1.23875 7.41239 1.20916 7.3936 1.18892L7.3719 1.16562L7.36602 1.15936L7.36437 1.1576C7.36437 1.1576 7.36358 1.15676 7 1.5ZM7 1.5C6.63642 1.15676 6.63642 1.15676 6.63642 1.15676L7 1.5ZM6.98377 2.2659L7 2.24733L7.01623 2.2659C7.25521 2.53952 7.58783 2.93287 7.96037 3.4096C8.57121 4.19127 9.28047 5.18583 9.86119 6.23701H4.13881C4.71953 5.18583 5.42879 4.19127 6.03963 3.4096C6.41217 2.93287 6.74479 2.53952 6.98377 2.2659ZM3 9.73333C3 8.97831 3.24353 8.12112 3.6378 7.23701H10.3622C10.7565 8.12112 11 8.97831 11 9.73333C11 12.1173 9.18241 14 7 14C4.81759 14 3 12.1173 3 9.73333Z" fill="black"/>
</svg>
