<svg width="16" height="16" viewBox="0 0 16 16" fill="none" xmlns="http://www.w3.org/2000/svg">
<path d="M8.21144 2.04691C8.07742 1.98436 7.92258 1.98436 7.78856 2.04691L0.288558 5.54691C0.107914 5.63121 -0.00539504 5.81476 0.000197994 6.01403C0.005791 6.2133 0.129217 6.3902 0.314306 6.46424L7.81431 9.46424C7.93351 9.51192 8.06649 9.51192 8.1857 9.46424L14 7.13852V13C13.4477 13 13 13.4477 13 14V16H16V14C16 13.4477 15.5523 13 15 13V6.73852L15.6857 6.46424C15.8708 6.3902 15.9942 6.2133 15.9998 6.01403C16.0054 5.81476 15.8921 5.63121 15.7114 5.54691L8.21144 2.04691Z" fill="black"/>
<path d="M4.17556 9.03184C4.04549 8.98306 3.90098 8.99059 3.77669 9.05264C3.6524 9.11468 3.55952 9.22564 3.52032 9.35892L3.02032 11.0589C2.94756 11.3063 3.07488 11.5685 3.31431 11.6642L7.81431 13.4642C7.93351 13.5119 8.06649 13.5119 8.1857 13.4642L12.6857 11.6642C12.9251 11.5685 13.0524 11.3063 12.9797 11.0589L12.4797 9.35892C12.4405 9.22564 12.3476 9.11468 12.2233 9.05264C12.099 8.99059 11.9545 8.98306 11.8244 9.03184L8 10.466L4.17556 9.03184Z" fill="black"/>
</svg>
