<svg width="16" height="16" viewBox="0 0 16 16" fill="none" xmlns="http://www.w3.org/2000/svg">
<path d="M11.5 2C11.7761 2 12 2.22386 12 2.5V9.5C12 9.77614 11.7761 10 11.5 10C11.2239 10 11 9.77614 11 9.5V2.5C11 2.22386 11.2239 2 11.5 2Z" fill="black"/>
<path d="M13.5 2C13.7761 2 14 2.22386 14 2.5V9.5C14 9.77614 13.7761 10 13.5 10C13.2239 10 13 9.77614 13 9.5V2.5C13 2.22386 13.2239 2 13.5 2Z" fill="black"/>
<path d="M3.5 10C3.22386 10 3 10.2239 3 10.5C3 10.7761 3.22386 11 3.5 11H9.5C9.77614 11 10 10.7761 10 10.5C10 10.2239 9.77614 10 9.5 10H3.5Z" fill="black"/>
<path d="M3.5 12C3.22386 12 3 12.2239 3 12.5C3 12.7761 3.22386 13 3.5 13H9.5C9.77614 13 10 12.7761 10 12.5C10 12.2239 9.77614 12 9.5 12H3.5Z" fill="black"/>
<path d="M5 3C4.44772 3 4 3.44772 4 4H3.5C3.22386 4 3 4.22386 3 4.5C3 4.77614 3.22386 5 3.5 5H4V6H3.5C3.22386 6 3 6.22386 3 6.5C3 6.77614 3.22386 7 3.5 7H4C4 7.55228 4.44772 8 5 8V8.5C5 8.77614 5.22386 9 5.5 9C5.77614 9 6 8.77614 6 8.5V8H7V8.5C7 8.77614 7.22386 9 7.5 9C7.77614 9 8 8.77614 8 8.5V8C8.55228 8 9 7.55228 9 7H9.5C9.77614 7 10 6.77614 10 6.5C10 6.22386 9.77614 6 9.5 6H9V5H9.5C9.77614 5 10 4.77614 10 4.5C10 4.22386 9.77614 4 9.5 4H9C9 3.44772 8.55228 3 8 3V2.5C8 2.22386 7.77614 2 7.5 2C7.22386 2 7 2.22386 7 2.5V3H6V2.5C6 2.22386 5.77614 2 5.5 2C5.22386 2 5 2.22386 5 2.5V3ZM5 4H8V7H5V4Z" fill="black"/>
<path d="M11.5 11C11.2239 11 11 11.2239 11 11.5V12.5C11 12.7761 11.2239 13 11.5 13H13.5C13.7761 13 14 12.7761 14 12.5V11.5C14 11.2239 13.7761 11 13.5 11H11.5Z" fill="black"/>
<path d="M1 2C1 0.895431 1.89543 0 3 0H14C15.1046 0 16 0.895431 16 2V13C16 14.1046 15.1046 15 14 15H3C1.89543 15 1 14.1046 1 13V11H0.5C0.223858 11 0 10.7761 0 10.5V9.5C0 9.22386 0.223858 9 0.5 9H1V8H0.5C0.223858 8 0 7.77614 0 7.5V6.5C0 6.22386 0.223858 6 0.5 6H1V5H0.5C0.223858 5 0 4.77614 0 4.5V2.5C0 2.22386 0.223858 2 0.5 2H1ZM2 13C2 13.5523 2.44772 14 3 14H14C14.5523 14 15 13.5523 15 13V2C15 1.44772 14.5523 1 14 1H3C2.44772 1 2 1.44772 2 2V13Z" fill="black"/>
</svg>
