<svg width="16" height="16" viewBox="0 0 16 16" fill="none" xmlns="http://www.w3.org/2000/svg">
<path d="M8.5 0.0687942C7.96388 0.0159176 7.45211 0 7 0C6.40734 0 5.89568 0.157384 5.4727 0.463157C5.05454 0.765446 4.75569 1.18897 4.54269 1.67077C4.15676 2.54378 4.02145 3.68092 4.00242 4.87723L8.5 5.87669V0.0687942ZM3.70909 5.83644L3.38197 6C2.53501 6.42348 2 7.28914 2 8.23607V10.8125C2 13.658 4.21954 16 7 16H9C11.7805 16 14 13.658 14 10.8125V8.12331L5.00091 6.12351L5.00094 6.12609C5.0019 6.20896 5.00381 6.32963 5.00765 6.47937C5.01533 6.77912 5.03071 7.19395 5.06139 7.65424C5.12387 8.59142 5.24665 9.65881 5.47434 10.3419C5.56167 10.6039 5.42009 10.887 5.15811 10.9743C4.89614 11.0617 4.61298 10.9201 4.52566 10.6581C4.25335 9.84119 4.12613 8.65858 4.06361 7.72076C4.03179 7.24355 4.01592 6.81463 4.00798 6.505C4.004 6.35005 4.00201 6.22464 4.00101 6.13758C4.00049 6.09267 4.00017 6.04776 4 6.00284C3.99997 5.96941 4.00293 5.93598 4.00937 5.90317L3.70909 5.83644ZM14 7.09891V5.1875C14 4.05747 13.728 3.14305 13.2525 2.41507C12.7784 1.68914 12.1226 1.17995 11.4032 0.825039C10.8031 0.52898 10.1496 0.335869 9.5 0.211541V6.09891L14 7.09891Z" fill="black"/>
</svg>
