<svg width="16" height="16" viewBox="0 0 16 16" fill="none" xmlns="http://www.w3.org/2000/svg">
<path d="M7 0C6.40734 0 5.89568 0.157384 5.4727 0.463157C5.05454 0.765446 4.75569 1.18897 4.54269 1.67077C4.12352 2.61896 4 3.87875 4 5.1875V5.49016C3.99986 5.49705 3.99986 5.50393 4 5.51078V5.69098L3.38197 6C2.53501 6.42348 2 7.28914 2 8.23607V10.8125C2 13.658 4.21954 16 7 16H9C11.7805 16 14 13.658 14 10.8125V7.50985C14.0001 7.50295 14.0001 7.49607 14 7.48922V5.1875C14 4.05747 13.728 3.14305 13.2525 2.41507C12.7784 1.68914 12.1226 1.17995 11.4032 0.825039C9.98118 0.123477 8.25922 0 7 0ZM9.5 6.09891V1.23171C10.0102 1.34116 10.5081 1.49851 10.9608 1.72184C11.5557 2.01536 12.0589 2.41633 12.4152 2.96189C12.7702 3.50538 13 4.22378 13 5.1875V6.87669L9.5 6.09891ZM8.5 1.0742V5.87669L5.0002 5.09896C5.00596 3.85743 5.13413 2.80614 5.45731 2.0751C5.61931 1.70863 5.82046 1.44569 6.05855 1.27358C6.29182 1.10495 6.59266 1 7 1C7.4676 1 7.97913 1.0184 8.5 1.0742ZM5.00091 6.12351L13 7.90109V10.8125C13 13.1446 11.1901 15 9 15H7C4.8099 15 3 13.1446 3 10.8125V8.23607C3 7.66791 3.321 7.14852 3.82918 6.89443L4.017 6.80052C4.02638 7.0657 4.04096 7.38099 4.06361 7.72076C4.12613 8.65858 4.25335 9.84119 4.52566 10.6581C4.61298 10.9201 4.89614 11.0617 5.15811 10.9743C5.42009 10.887 5.56167 10.6039 5.47434 10.3419C5.24665 9.65881 5.12387 8.59142 5.06139 7.65424C5.03071 7.19395 5.01533 6.77912 5.00765 6.47937C5.00381 6.32963 5.0019 6.20896 5.00094 6.12609L5.00091 6.12351Z" fill="black"/>
</svg>
