<svg width="16" height="16" viewBox="0 0 16 16" fill="none" xmlns="http://www.w3.org/2000/svg">
<path d="M4 3C4 2.44772 4.44772 2 5 2H11C11.5523 2 12 2.44772 12 3V6C12 6.55228 11.5523 7 11 7H5C4.44772 7 4 6.55228 4 6V3ZM5 3V6H11V3H5Z" fill="black"/>
<path d="M8 12C8.55229 12 9 11.5523 9 11C9 10.4477 8.55229 10 8 10C7.44772 10 7 10.4477 7 11C7 11.5523 7.44772 12 8 12Z" fill="black"/>
<path d="M11 11C11 12.6569 9.65685 14 8 14C6.34315 14 5 12.6569 5 11C5 9.34315 6.34315 8 8 8C9.65685 8 11 9.34315 11 11ZM8 13C9.10457 13 10 12.1046 10 11C10 9.89543 9.10457 9 8 9C6.89543 9 6 9.89543 6 11C6 12.1046 6.89543 13 8 13Z" fill="black"/>
<path d="M2 2C2 0.895431 2.89543 0 4 0H12C13.1046 0 14 0.895431 14 2V14C14 15.1046 13.1046 16 12 16H4C2.89543 16 2 15.1046 2 14V2ZM4 1C3.44772 1 3 1.44772 3 2V14C3 14.5523 3.44772 15 4 15H12C12.5523 15 13 14.5523 13 14V2C13 1.44772 12.5523 1 12 1H4Z" fill="black"/>
</svg>
