<svg width="16" height="16" viewBox="0 0 16 16" fill="none" xmlns="http://www.w3.org/2000/svg">
<path d="M12 13C12 14.1046 10.8807 15 9.5 15C8.11929 15 7 14.1046 7 13C7 11.8954 8.11929 11 9.5 11C10.8807 11 12 11.8954 12 13Z" fill="black"/>
<path fill-rule="evenodd" clip-rule="evenodd" d="M12 3.00002V13H11V3.00002H12Z" fill="black"/>
<path d="M11 2.81982C11 2.34314 11.3365 1.93273 11.8039 1.83924L14.8039 1.23924C15.4227 1.11548 16 1.58878 16 2.21982V4.00002L11 5.00002V2.81982Z" fill="black"/>
<path fill-rule="evenodd" clip-rule="evenodd" d="M0 11.5C0 11.2239 0.223858 11 0.5 11H4C4.27614 11 4.5 11.2239 4.5 11.5C4.5 11.7761 4.27614 12 4 12H0.5C0.223858 12 0 11.7761 0 11.5Z" fill="black"/>
<path fill-rule="evenodd" clip-rule="evenodd" d="M0 7.5C0 7.22386 0.223858 7 0.5 7H8C8.27614 7 8.5 7.22386 8.5 7.5C8.5 7.77614 8.27614 8 8 8H0.5C0.223858 8 0 7.77614 0 7.5Z" fill="black"/>
<path fill-rule="evenodd" clip-rule="evenodd" d="M0 3.5C0 3.22386 0.223858 3 0.5 3H8C8.27614 3 8.5 3.22386 8.5 3.5C8.5 3.77614 8.27614 4 8 4H0.5C0.223858 4 0 3.77614 0 3.5Z" fill="black"/>
</svg>
