<svg width="16" height="16" viewBox="0 0 16 16" fill="none" xmlns="http://www.w3.org/2000/svg">
<path d="M6 13C6 14.1046 4.88071 15 3.5 15C2.11929 15 1 14.1046 1 13C1 11.8955 2.11929 11 3.5 11C4.88071 11 6 11.8955 6 13Z" fill="black"/>
<path d="M15 11C15 12.1046 13.8807 13 12.5 13C11.1193 13 10 12.1046 10 11C10 9.89546 11.1193 9.00003 12.5 9.00003C13.8807 9.00003 15 9.89546 15 11Z" fill="black"/>
<path fill-rule="evenodd" clip-rule="evenodd" d="M14 11V2.00003H15V11H14ZM6 3.00003V13H5V3.00003H6Z" fill="black"/>
<path d="M5 2.90502C5 2.39127 5.38929 1.9611 5.9005 1.90998L13.9005 1.10998C14.4892 1.05111 15 1.51339 15 2.10502V3.00003L5 4.00003V2.90502Z" fill="black"/>
</svg>
