<svg width="16" height="16" viewBox="0 0 16 16" fill="none" xmlns="http://www.w3.org/2000/svg">
<path d="M8 12C8.55229 12 9 11.5523 9 11C9 10.4477 8.55229 10 8 10C7.44772 10 7 10.4477 7 11C7 11.5523 7.44772 12 8 12Z" fill="black"/>
<path d="M4 0C2.89543 0 2 0.895431 2 2V14C2 15.1046 2.89543 16 4 16H12C13.1046 16 14 15.1046 14 14V2C14 0.895431 13.1046 0 12 0H4ZM5 2H11C11.5523 2 12 2.44772 12 3V5.5C12 6.05228 11.5523 6.5 11 6.5H5C4.44772 6.5 4 6.05228 4 5.5V3C4 2.44772 4.44772 2 5 2ZM8 14C6.34315 14 5 12.6569 5 11C5 9.34315 6.34315 8 8 8C9.65685 8 11 9.34315 11 11C11 12.6569 9.65685 14 8 14Z" fill="black"/>
</svg>
