<svg width="16" height="16" viewBox="0 0 16 16" fill="none" xmlns="http://www.w3.org/2000/svg">
<path d="M9.33992 8.00531C9.33992 3.62492 9.34986 0.0331346 9.36311 0.0231942C9.37305 0.00994037 10.0357 0 10.831 0C11.9841 0 12.3419 0.00994037 12.5739 0.0497019C14.3035 0.347913 15.6189 1.6501 15.947 3.37641C15.9933 3.61829 16 4.1849 16 7.98543C16 12.0455 16.0048 12.5231 15.8768 12.9619C15.8547 13.0377 15.8286 13.1124 15.7979 13.2041C15.7415 13.3665 15.6322 13.6282 15.5493 13.784C14.9032 15 13.717 15.8184 12.3717 15.9709C12.0536 16.004 9.4824 16.0173 9.39294 15.9841C9.34323 15.9642 9.33992 15.232 9.33992 8.00531ZM14.0152 8.2737C13.8429 7.77006 13.4188 7.37576 12.9019 7.2399C12.0735 7.02453 11.212 7.50167 10.9635 8.31346C10.8807 8.57191 10.8774 8.99604 10.9503 9.24786C11.1921 10.0696 12.0735 10.5699 12.9019 10.3546C13.4122 10.2187 13.8098 9.85091 14.0119 9.32738C14.1212 9.04242 14.1246 8.58517 14.0152 8.2737Z" fill="black"/>
<path d="M3.71038 3.31677C3.50164 3.35653 3.18354 3.51558 3.01456 3.66468C2.66664 3.96621 2.49434 4.39364 2.52085 4.89729C2.53411 5.15905 2.55067 5.22864 2.6567 5.4407C2.81244 5.7621 3.04769 5.99736 3.3691 6.1564C3.5911 6.26575 3.64743 6.279 3.9357 6.28894C4.19746 6.29888 4.29024 6.28894 4.46585 6.2293C5.18487 5.98742 5.61894 5.28828 5.49634 4.57257C5.35386 3.72101 4.54538 3.1511 3.71038 3.31677Z" fill="black"/>
<path d="M3.42541 0.0530104C1.83164 0.337968 0.54933 1.51756 0.145089 3.06826C-0.000703469 3.62823 -0.0106438 3.95626 0.00592344 8.30021C0.0158638 12.2896 0.0191773 12.3824 0.0854464 12.6905C0.45324 14.3506 1.63283 15.5335 3.30944 15.9245C3.52813 15.9742 3.80646 15.9841 5.59904 15.9941C7.45457 16.0073 7.64675 16.004 7.69646 15.9543C7.74616 15.9046 7.74947 15.2651 7.74947 8.01525C7.74947 2.64082 7.73953 0.109339 7.71634 0.0629508C7.6832 0.0033086 7.62687 -4.86244e-06 5.68519 0.00330859C4.10798 0.00662205 3.63416 0.0165624 3.42541 0.0530104ZM6.42409 14.7184L5.07551 14.7018C3.83297 14.6886 3.70043 14.6819 3.45192 14.619C2.38499 14.344 1.59307 13.5222 1.37107 12.452C1.29817 12.1173 1.29817 3.87343 1.36775 3.5454C1.56656 2.61431 2.21269 1.84228 3.08413 1.49436C3.5215 1.31875 3.72362 1.29887 5.14178 1.29556L6.42409 1.29224V14.7184Z" fill="black"/>
</svg>
