<svg width="16" height="16" viewBox="0 0 16 16" fill="none" xmlns="http://www.w3.org/2000/svg">
<path fill-rule="evenodd" clip-rule="evenodd" d="M16 8C16 10.7614 13.7614 13 11 13C8.40733 13 6.27555 11.0267 6.02469 8.5H4C4 9.32843 3.32843 10 2.5 10H1.5C0.671573 10 0 9.32843 0 8.5V7.5C0 6.67157 0.671573 6 1.5 6H2.5C3.32843 6 4 6.67157 4 7.5H6.02469C6.27555 4.97334 8.40733 3 11 3C13.7614 3 16 5.23858 16 8ZM14 8C14 7.72386 13.7761 7.5 13.5 7.5H8.5C8.22386 7.5 8 7.72386 8 8C8 8.27614 8.22386 8.5 8.5 8.5H13.5C13.7761 8.5 14 8.27614 14 8Z" fill="black"/>
</svg>
