<svg width="16" height="16" viewBox="0 0 16 16" fill="none" xmlns="http://www.w3.org/2000/svg">
<path d="M11 13C13.7614 13 16 10.7614 16 8C16 5.23858 13.7614 3 11 3C8.40733 3 6.27555 4.97334 6.02469 7.5H4C4 6.67157 3.32843 6 2.5 6H1.5C0.671573 6 0 6.67157 0 7.5V8.5C0 9.32843 0.671573 10 1.5 10H2.5C3.32843 10 4 9.32843 4 8.5H6.02469C6.27555 11.0267 8.40733 13 11 13ZM11.5 5.5V7.5H13.5C13.7761 7.5 14 7.72386 14 8C14 8.27614 13.7761 8.5 13.5 8.5H11.5V10.5C11.5 10.7761 11.2761 11 11 11C10.7239 11 10.5 10.7761 10.5 10.5V8.5H8.5C8.22386 8.5 8 8.27614 8 8C8 7.72386 8.22386 7.5 8.5 7.5H10.5V5.5C10.5 5.22386 10.7239 5 11 5C11.2761 5 11.5 5.22386 11.5 5.5Z" fill="black"/>
</svg>
