<svg width="16" height="16" viewBox="0 0 16 16" fill="none" xmlns="http://www.w3.org/2000/svg">
<path fill-rule="evenodd" clip-rule="evenodd" d="M11 4C8.79086 4 7 5.79086 7 8C7 10.2091 8.79086 12 11 12C13.2091 12 15 10.2091 15 8C15 5.79086 13.2091 4 11 4ZM6.02469 7.5C6.27555 4.97334 8.40733 3 11 3C13.7614 3 16 5.23858 16 8C16 10.7614 13.7614 13 11 13C8.40733 13 6.27555 11.0267 6.02469 8.5H4C4 9.32843 3.32843 10 2.5 10H1.5C0.671573 10 0 9.32843 0 8.5V7.5C0 6.67157 0.671573 6 1.5 6H2.5C3.32843 6 4 6.67157 4 7.5H6.02469ZM1.5 7C1.22386 7 1 7.22386 1 7.5V8.5C1 8.77614 1.22386 9 1.5 9H2.5C2.77614 9 3 8.77614 3 8.5V7.5C3 7.22386 2.77614 7 2.5 7H1.5ZM8 8C8 7.72386 8.22386 7.5 8.5 7.5H13.5C13.7761 7.5 14 7.72386 14 8C14 8.27614 13.7761 8.5 13.5 8.5H8.5C8.22386 8.5 8 8.27614 8 8Z" fill="black"/>
</svg>
