<svg width="16" height="16" viewBox="0 0 16 16" fill="none" xmlns="http://www.w3.org/2000/svg">
<path d="M13 5.5C13 5.77614 12.7761 6 12.5 6C12.2239 6 12 5.77614 12 5.5C12 5.22386 12.2239 5 12.5 5C12.7761 5 13 5.22386 13 5.5Z" fill="black"/>
<path d="M12 6.5C12 6.77614 11.7761 7 11.5 7C11.2239 7 11 6.77614 11 6.5C11 6.22386 11.2239 6 11.5 6C11.7761 6 12 6.22386 12 6.5Z" fill="black"/>
<path d="M11 7.5C11 7.77614 10.7761 8 10.5 8C10.2239 8 10 7.77614 10 7.5C10 7.22386 10.2239 7 10.5 7C10.7761 7 11 7.22386 11 7.5Z" fill="black"/>
<path d="M10 8.5C10 8.77614 9.77614 9 9.5 9C9.22386 9 9 8.77614 9 8.5C9 8.22386 9.22386 8 9.5 8C9.77614 8 10 8.22386 10 8.5Z" fill="black"/>
<path d="M9 9.5C9 9.77614 8.77614 10 8.5 10C8.22386 10 8 9.77614 8 9.5C8 9.22386 8.22386 9 8.5 9C8.77614 9 9 9.22386 9 9.5Z" fill="black"/>
<path d="M8 10.5C8 10.7761 7.77614 11 7.5 11C7.22386 11 7 10.7761 7 10.5C7 10.2239 7.22386 10 7.5 10C7.77614 10 8 10.2239 8 10.5Z" fill="black"/>
<path d="M7 11.5C7 11.7761 6.77614 12 6.5 12C6.22386 12 6 11.7761 6 11.5C6 11.2239 6.22386 11 6.5 11C6.77614 11 7 11.2239 7 11.5Z" fill="black"/>
<path d="M6 12.5C6 12.7761 5.77614 13 5.5 13C5.22386 13 5 12.7761 5 12.5C5 12.2239 5.22386 12 5.5 12C5.77614 12 6 12.2239 6 12.5Z" fill="black"/>
<path d="M7 13.5C7 13.7761 6.77614 14 6.5 14C6.22386 14 6 13.7761 6 13.5C6 13.2239 6.22386 13 6.5 13C6.77614 13 7 13.2239 7 13.5Z" fill="black"/>
<path d="M7.5 13C7.77614 13 8 12.7761 8 12.5C8 12.2239 7.77614 12 7.5 12C7.22386 12 7 12.2239 7 12.5C7 12.7761 7.22386 13 7.5 13Z" fill="black"/>
<path d="M8.5 12C8.77614 12 9 11.7761 9 11.5C9 11.2239 8.77614 11 8.5 11C8.22386 11 8 11.2239 8 11.5C8 11.7761 8.22386 12 8.5 12Z" fill="black"/>
<path d="M9.5 11C9.77614 11 10 10.7761 10 10.5C10 10.2239 9.77614 10 9.5 10C9.22386 10 9 10.2239 9 10.5C9 10.7761 9.22386 11 9.5 11Z" fill="black"/>
<path d="M10.5 10C10.7761 10 11 9.77614 11 9.5C11 9.22386 10.7761 9 10.5 9C10.2239 9 10 9.22386 10 9.5C10 9.77614 10.2239 10 10.5 10Z" fill="black"/>
<path d="M11.5 9C11.7761 9 12 8.77614 12 8.5C12 8.22386 11.7761 8 11.5 8C11.2239 8 11 8.22386 11 8.5C11 8.77614 11.2239 9 11.5 9Z" fill="black"/>
<path d="M12.5 8C12.7761 8 13 7.77614 13 7.5C13 7.22386 12.7761 7 12.5 7C12.2239 7 12 7.22386 12 7.5C12 7.77614 12.2239 8 12.5 8Z" fill="black"/>
<path d="M13.5 7C13.7761 7 14 6.77614 14 6.5C14 6.22386 13.7761 6 13.5 6C13.2239 6 13 6.22386 13 6.5C13 6.77614 13.2239 7 13.5 7Z" fill="black"/>
<path d="M8.5 14C8.77614 14 9 13.7761 9 13.5C9 13.2239 8.77614 13 8.5 13C8.22386 13 8 13.2239 8 13.5C8 13.7761 8.22386 14 8.5 14Z" fill="black"/>
<path d="M10 12.5C10 12.7761 9.77614 13 9.5 13C9.22386 13 9 12.7761 9 12.5C9 12.2239 9.22386 12 9.5 12C9.77614 12 10 12.2239 10 12.5Z" fill="black"/>
<path d="M11 11.5C11 11.7761 10.7761 12 10.5 12C10.2239 12 10 11.7761 10 11.5C10 11.2239 10.2239 11 10.5 11C10.7761 11 11 11.2239 11 11.5Z" fill="black"/>
<path d="M12 10.5C12 10.7761 11.7761 11 11.5 11C11.2239 11 11 10.7761 11 10.5C11 10.2239 11.2239 10 11.5 10C11.7761 10 12 10.2239 12 10.5Z" fill="black"/>
<path d="M13 9.5C13 9.77614 12.7761 10 12.5 10C12.2239 10 12 9.77614 12 9.5C12 9.22386 12.2239 9 12.5 9C12.7761 9 13 9.22386 13 9.5Z" fill="black"/>
<path d="M14 8.5C14 8.77614 13.7761 9 13.5 9C13.2239 9 13 8.77614 13 8.5C13 8.22386 13.2239 8 13.5 8C13.7761 8 14 8.22386 14 8.5Z" fill="black"/>
<path d="M11 13.5C11 13.7761 10.7761 14 10.5 14C10.2239 14 10 13.7761 10 13.5C10 13.2239 10.2239 13 10.5 13C10.7761 13 11 13.2239 11 13.5Z" fill="black"/>
<path d="M11.5 13C11.7761 13 12 12.7761 12 12.5C12 12.2239 11.7761 12 11.5 12C11.2239 12 11 12.2239 11 12.5C11 12.7761 11.2239 13 11.5 13Z" fill="black"/>
<path d="M12.5 12C12.7761 12 13 11.7761 13 11.5C13 11.2239 12.7761 11 12.5 11C12.2239 11 12 11.2239 12 11.5C12 11.7761 12.2239 12 12.5 12Z" fill="black"/>
<path d="M13.5 11C13.7761 11 14 10.7761 14 10.5C14 10.2239 13.7761 10 13.5 10C13.2239 10 13 10.2239 13 10.5C13 10.7761 13.2239 11 13.5 11Z" fill="black"/>
<path fill-rule="evenodd" clip-rule="evenodd" d="M8 0C3.58172 0 0 3.58172 0 8C0 12.4183 3.58172 16 8 16C12.4183 16 16 12.4183 16 8C16 3.58172 12.4183 0 8 0ZM1 8C1 4.13401 4.13401 1 8 1C10.4328 1 12.5757 2.24103 13.8302 4.12454C13.7421 4.04702 13.6266 4 13.5 4C13.2239 4 13 4.22386 13 4.5C13 4.77614 13.2239 5 13.5 5C13.7761 5 14 4.77614 14 4.5C14 4.45116 13.993 4.40395 13.9799 4.35933C14.1111 4.57437 14.2311 4.79704 14.3389 5.02652C14.1418 5.09357 14 5.28022 14 5.5C14 5.77614 14.2239 6 14.5 6C14.5703 6 14.6372 5.9855 14.6979 5.95932C14.8311 6.39714 14.9226 6.85314 14.9677 7.3227C14.8961 7.13408 14.7137 7 14.5 7C14.2239 7 14 7.22386 14 7.5C14 7.77614 14.2239 8 14.5 8C14.7402 8 14.9409 7.83057 14.989 7.60468C14.9963 7.73553 15 7.86733 15 8C15 8.40821 14.9651 8.80825 14.898 9.19731C14.8067 9.0774 14.6624 9 14.5 9C14.2239 9 14 9.22386 14 9.5C14 9.77614 14.2239 10 14.5 10C14.5813 10 14.6581 9.9806 14.7259 9.94618C14.6167 10.3243 14.4764 10.6893 14.3081 11.0381C14.1272 11.1134 14 11.2918 14 11.5C14 11.5318 14.003 11.563 14.0087 11.5932C13.9156 11.7485 13.8166 11.8999 13.7122 12.0471C13.6478 12.0169 13.5758 12 13.5 12C13.2239 12 13 12.2239 13 12.5C13 12.6113 13.0364 12.7141 13.0978 12.7971C13.0006 12.9004 12.9004 13.0006 12.7971 13.0978C12.7141 13.0364 12.6113 13 12.5 13C12.2239 13 12 13.2239 12 13.5C12 13.5758 12.0169 13.6478 12.0471 13.7122C11.8999 13.8166 11.7485 13.9156 11.5932 14.0087C11.563 14.003 11.5318 14 11.5 14C11.2918 14 11.1134 14.1272 11.0381 14.3081C10.6893 14.4764 10.3243 14.6167 9.94618 14.7259C9.9806 14.6581 10 14.5813 10 14.5C10 14.2239 9.77614 14 9.5 14C9.22386 14 9 14.2239 9 14.5C9 14.6624 9.0774 14.8067 9.19731 14.898C8.80825 14.9651 8.40821 15 8 15C7.86733 15 7.73553 14.9963 7.60468 14.989C7.83057 14.9409 8 14.7402 8 14.5C8 14.2239 7.77614 14 7.5 14C7.22386 14 7 14.2239 7 14.5C7 14.7137 7.13408 14.8961 7.3227 14.9677C6.85314 14.9226 6.39714 14.8311 5.95932 14.6979C5.9855 14.6372 6 14.5703 6 14.5C6 14.2239 5.77614 14 5.5 14C5.28022 14 5.09357 14.1418 5.02652 14.3389C4.79704 14.2311 4.57437 14.1111 4.35933 13.9799C4.40395 13.993 4.45116 14 4.5 14C4.77614 14 5 13.7761 5 13.5C5 13.2239 4.77614 13 4.5 13C4.22386 13 4 13.2239 4 13.5C4 13.6266 4.04702 13.7421 4.12454 13.8302C2.24103 12.5757 1 10.4328 1 8Z" fill="black"/>
</svg>
