<svg width="16" height="16" viewBox="0 0 16 16" fill="none" xmlns="http://www.w3.org/2000/svg">
<path d="M4.58039 1C4.22153 1 3.89019 1.19229 3.71215 1.50387L0.283609 7.50389C0.107938 7.81132 0.107937 8.18872 0.283608 8.49615L3.71211 14.4961C3.89015 14.8077 4.22149 15 4.58035 15L11.4198 15C11.7786 15 12.11 14.8077 12.288 14.4962L15.7166 8.49615C15.8922 8.18872 15.8922 7.81132 15.7166 7.50389L12.288 1.50387C12.11 1.19229 11.7786 1 11.4198 1H4.58039ZM9.59819 10.6962C8.16331 11.5246 6.32854 11.033 5.50011 9.5981C4.67168 8.16322 5.16331 6.32845 6.59819 5.50002C8.03306 4.67159 9.86783 5.16322 10.6963 6.5981C11.5247 8.03297 11.0331 9.86775 9.59819 10.6962Z" fill="black"/>
</svg>
