<svg width="16" height="16" viewBox="0 0 16 16" fill="none" xmlns="http://www.w3.org/2000/svg">
<path d="M11.4198 2L14.8483 8.00002L11.4198 14L4.58035 14L1.15186 8.00002L4.58039 2L11.4198 2ZM4.58039 1C4.22153 1 3.89019 1.19229 3.71215 1.50387L0.28361 7.50389C0.107938 7.81132 0.107937 8.18872 0.283608 8.49615L3.71211 14.4961C3.89015 14.8077 4.22149 15 4.58035 15L11.4198 15C11.7786 15 12.11 14.8077 12.288 14.4962L15.7166 8.49615C15.8922 8.18872 15.8922 7.81132 15.7166 7.50389L12.288 1.50387C12.11 1.19229 11.7786 1 11.4198 1L4.58039 1Z" fill="black"/>
<path d="M6.84819 5.93303C5.65245 6.62339 5.24277 8.15236 5.93312 9.3481C6.62348 10.5438 8.15245 10.9535 9.34819 10.2632C10.5439 9.5728 10.9536 8.04383 10.2632 6.8481C9.57289 5.65236 8.04392 5.24268 6.84819 5.93303ZM5.0671 9.8481C4.1006 8.17407 4.67416 6.03351 6.34819 5.06701C8.02221 4.10051 10.1628 4.67407 11.1293 6.3481C12.0958 8.02212 11.5222 10.1627 9.84819 11.1292C8.17416 12.0957 6.0336 11.5221 5.0671 9.8481Z" fill="black"/>
</svg>
