<svg width="17" height="16" viewBox="0 0 17 16" fill="none" xmlns="http://www.w3.org/2000/svg">
<path d="M1.63472 7.14608C1.63472 7.14608 3.08135 5.01169 5.96978 4.79087V4.01652C2.77047 4.27346 0 6.98312 0 6.98312C0 6.98312 1.56915 11.5193 5.96978 11.9346V11.1115C2.74039 10.7052 1.63472 7.14608 1.63472 7.14608ZM5.96978 9.47461V10.2284C3.52908 9.79326 2.8516 7.25613 2.8516 7.25613C2.8516 7.25613 4.02348 5.95793 5.96978 5.74741V6.57454L5.96605 6.57409C4.94453 6.4515 4.14652 7.40578 4.14652 7.40578C4.14652 7.40578 4.5938 9.01228 5.96978 9.47461ZM6 2L5.96978 4.01652C6.0637 4.00932 6.15761 4.00321 6.25205 4C9.88931 3.87741 12.2592 6.98312 12.2592 6.98312C12.2592 6.98312 9.5373 10.2929 6.70151 10.2929C6.44162 10.2929 6.19831 10.2689 5.96978 10.2284V11.1115C6.1652 11.1363 6.36782 11.1509 6.57925 11.1509C9.21813 11.1509 11.1265 9.80322 12.9744 8.20816C13.2808 8.45353 14.5351 9.05047 14.7929 9.31178C13.0359 10.7828 8.94114 11.9685 6.61968 11.9685C6.39591 11.9685 6.18101 11.955 5.96978 11.9346V14H16L16.0302 2H6ZM5.96978 5.74741V4.79087C6.06273 4.78438 6.15639 4.77943 6.25205 4.77641C8.8676 4.69426 10.5836 7.02407 10.5836 7.02407C10.5836 7.02407 8.73016 9.59816 6.74291 9.59816C6.45692 9.59816 6.20055 9.5522 5.96978 9.47461V6.57454C6.98802 6.69758 7.19289 7.14736 7.80506 8.16786L9.16658 7.01983C9.16658 7.01983 8.1727 5.71636 6.49729 5.71636C6.31517 5.71629 6.1409 5.72909 5.96978 5.74741Z" fill="black"/>
</svg>
