<svg width="16" height="16" viewBox="0 0 16 16" fill="none" xmlns="http://www.w3.org/2000/svg">
<path d="M6 7H5V9H6V7Z" fill="black"/>
<path d="M12 7H9V9H12V7Z" fill="black"/>
<path d="M2 4C1.72386 4 1.5 4.22386 1.5 4.5H0.5C0.223858 4.5 0 4.72386 0 5V6C0 6.27614 0.223858 6.5 0.5 6.5H1.5C1.63807 6.5 1.75 6.61193 1.75 6.75C1.75 6.88807 1.63807 7 1.5 7H0.5C0.223858 7 0 7.22386 0 7.5V11C0 11.2761 0.223858 11.5 0.5 11.5H1.5C1.5 11.7761 1.72386 12 2 12H15.5C15.7761 12 16 11.7761 16 11.5V9C16 8.72386 15.7761 8.5 15.5 8.5C15.2239 8.5 15 8.27614 15 8C15 7.72386 15.2239 7.5 15.5 7.5C15.7761 7.5 16 7.27614 16 7V4.5C16 4.22386 15.7761 4 15.5 4H2ZM4 6.5C4 6.22386 4.22386 6 4.5 6H6.5C6.77614 6 7 6.22386 7 6.5V9.5C7 9.77614 6.77614 10 6.5 10H4.5C4.22386 10 4 9.77614 4 9.5V6.5ZM8 6.5C8 6.22386 8.22386 6 8.5 6H12.5C12.7761 6 13 6.22386 13 6.5V9.5C13 9.77614 12.7761 10 12.5 10H8.5C8.22386 10 8 9.77614 8 9.5V6.5Z" fill="black"/>
</svg>
