<svg width="16" height="16" viewBox="0 0 16 16" fill="none" xmlns="http://www.w3.org/2000/svg">
<path d="M1.5 4.5C1.5 4.22386 1.72386 4 2 4H15.5C15.7761 4 16 4.22386 16 4.5V7C16 7.27614 15.7761 7.5 15.5 7.5C15.2239 7.5 15 7.72386 15 8C15 8.27614 15.2239 8.5 15.5 8.5C15.7761 8.5 16 8.72386 16 9V11.5C16 11.7761 15.7761 12 15.5 12H2C1.72386 12 1.5 11.7761 1.5 11.5H0.5C0.223858 11.5 0 11.2761 0 11V7.5C0 7.22386 0.223858 7 0.5 7H1.5C1.63807 7 1.75 6.88807 1.75 6.75C1.75 6.61193 1.63807 6.5 1.5 6.5H0.5C0.223858 6.5 0 6.27614 0 6V5C0 4.72386 0.223858 4.5 0.5 4.5H1.5ZM2.5 5C2.5 5.27614 2.27614 5.5 2 5.5H1.5C2.19036 5.5 2.75 6.05964 2.75 6.75C2.75 7.44036 2.19036 8 1.5 8H1V10.5H2C2.27614 10.5 2.5 10.7239 2.5 11H15V9.41465C14.4174 9.20873 14 8.65311 14 8C14 7.34689 14.4174 6.79127 15 6.58535V5H2.5Z" fill="black"/>
<path d="M4 6.5C4 6.22386 4.22386 6 4.5 6H6.5C6.77614 6 7 6.22386 7 6.5V9.5C7 9.77614 6.77614 10 6.5 10H4.5C4.22386 10 4 9.77614 4 9.5V6.5ZM5 7V9H6V7H5ZM8 6.5C8 6.22386 8.22386 6 8.5 6H12.5C12.7761 6 13 6.22386 13 6.5V9.5C13 9.77614 12.7761 10 12.5 10H8.5C8.22386 10 8 9.77614 8 9.5V6.5ZM9 7V9H12V7H9Z" fill="black"/>
</svg>
