<svg width="16" height="16" viewBox="0 0 16 16" fill="none" xmlns="http://www.w3.org/2000/svg">
<path d="M4.53984 0.146447C4.63361 0.0526784 4.76079 0 4.8934 0H11.1066C11.2392 0 11.3664 0.0526784 11.4602 0.146447L15.8536 4.53984C15.9473 4.63361 16 4.76079 16 4.8934V11.1066C16 11.2392 15.9473 11.3664 15.8536 11.4602L11.4602 15.8536C11.3664 15.9473 11.2392 16 11.1066 16H4.8934C4.76079 16 4.63361 15.9473 4.53984 15.8536L0.146447 11.4602C0.0526784 11.3664 0 11.2392 0 11.1066V4.8934C0 4.76079 0.0526784 4.63361 0.146447 4.53984L4.53984 0.146447ZM5.1005 1L1 5.1005V10.8995L5.10051 15H10.8995L15 10.8995V5.10051L10.8995 1H5.1005Z" fill="black"/>
</svg>
