<svg width="16" height="16" viewBox="0 0 16 16" fill="none" xmlns="http://www.w3.org/2000/svg">
<path d="M12.9951 8.19518C12.9951 9.13176 12.6829 10.1074 12.2146 10.8879L14.2049 12.8781C15.1805 11.5513 15.8049 9.91225 15.8049 8.19518C15.8049 6.40006 15.1805 4.76103 14.2439 3.4342L12.1756 5.46347C12.6439 6.24396 12.9561 7.14152 12.9561 8.19518H12.9951Z" fill="black" fill-opacity="0.4"/>
<path d="M7.99999 13.1512C6.6752 13.1512 5.40467 12.625 4.4679 11.6882C3.53114 10.7514 3.00487 9.4809 3.00487 8.15611C3.00487 6.83132 3.53114 5.56079 4.4679 4.62402C5.40467 3.68725 6.6752 3.16098 7.99999 3.16098C9.01462 3.16098 9.95121 3.43416 10.7317 3.9805L12.6829 1.95123C11.522 1.07873 10.1407 0.547405 8.6944 0.417023C7.24805 0.28664 5.79402 0.562365 4.49581 1.21319C3.1976 1.86401 2.10672 2.86413 1.34584 4.10105C0.584962 5.33797 0.184268 6.76264 0.18882 8.21485C0.193372 9.66705 0.602991 11.0892 1.37161 12.3213C2.14023 13.5534 3.23736 14.5467 4.53962 15.1894C5.84189 15.832 7.29762 16.0986 8.74312 15.9592C10.1886 15.8197 11.5665 15.2798 12.7219 14.4L10.7707 12.3707C9.95307 12.8858 9.00533 13.1565 8.03901 13.1512H7.99999Z" fill="black"/>
</svg>
