<svg width="16" height="16" viewBox="0 0 16 16" fill="none" xmlns="http://www.w3.org/2000/svg">
<path d="M8 6C9.65685 6 11 7.34315 11 9C11 10.6569 9.65685 12 8 12C6.34315 12 5 10.6569 5 9C5 7.34315 6.34315 6 8 6ZM9 9C9 8.44772 8.55228 8 8 8C7.44772 8 7 8.44772 7 9C7 9.55228 7.44772 10 8 10C8.55228 10 9 9.55228 9 9Z" fill="black"/>
<path d="M2.5 15C2.22386 15 2 14.7761 2 14.5V11.45C0.85888 11.2184 0 10.2095 0 9C0 7.79052 0.85888 6.78164 2 6.55001V4.5C2 4.36739 2.05268 4.24021 2.14645 4.14645L4.14645 2.14645C4.24021 2.05268 4.36739 2 4.5 2H11.5C11.6326 2 11.7598 2.05268 11.8536 2.14645L13.8536 4.14645C13.9473 4.24021 14 4.36739 14 4.5V6.55001C15.1411 6.78164 16 7.79052 16 9C16 10.2095 15.1411 11.2184 14 11.45V14.5C14 14.7761 13.7761 15 13.5 15H2.5ZM8 5C5.79086 5 4 6.79086 4 9C4 11.2091 5.79086 13 8 13C10.2091 13 12 11.2091 12 9C12 6.79086 10.2091 5 8 5Z" fill="black"/>
</svg>
