<svg width="16" height="16" viewBox="0 0 16 16" fill="none" xmlns="http://www.w3.org/2000/svg">
<path d="M1 2.5C1 2.22386 1.22386 2 1.5 2H5.29682C5.47979 2 5.64815 2.09994 5.73576 2.26057L11 13H14.5C14.7761 13 15 13.2239 15 13.5C15 13.7761 14.7761 14 14.5 14H10.7032C10.5202 14 10.3519 13.9001 10.2642 13.7394L5 3H1.5C1.22386 3 1 2.77614 1 2.5Z" fill="black"/>
<path d="M11 2.5C11 2.22386 11.2239 2 11.5 2H14.5C14.7761 2 15 2.22386 15 2.5C15 2.77614 14.7761 3 14.5 3H11.5C11.2239 3 11 2.77614 11 2.5Z" fill="black"/>
</svg>
