<svg width="16" height="16" viewBox="0 0 16 16" fill="none" xmlns="http://www.w3.org/2000/svg">
<path d="M8 10C8.55229 10 9 9.55228 9 9C9 8.44772 8.55229 8 8 8C7.44772 8 7 8.44772 7 9C7 9.55228 7.44772 10 8 10Z" fill="black"/>
<path d="M4.5 9C4.5 7.067 6.067 5.5 8 5.5C9.933 5.5 11.5 7.067 11.5 9C11.5 10.933 9.933 12.5 8 12.5C6.067 12.5 4.5 10.933 4.5 9ZM8 6.5C6.61929 6.5 5.5 7.61929 5.5 9C5.5 10.3807 6.61929 11.5 8 11.5C9.38071 11.5 10.5 10.3807 10.5 9C10.5 7.61929 9.38071 6.5 8 6.5Z" fill="black"/>
<path d="M2 14.5C2 14.7761 2.22386 15 2.5 15H13.5C13.7761 15 14 14.7761 14 14.5V11.45C15.1411 11.2184 16 10.2095 16 9C16 7.79052 15.1411 6.78164 14 6.55001V4.5C14 4.36739 13.9473 4.24021 13.8536 4.14645L11.8536 2.14645C11.7598 2.05268 11.6326 2 11.5 2H4.5C4.36739 2 4.24021 2.05268 4.14645 2.14645L2.14645 4.14645C2.05268 4.24021 2 4.36739 2 4.5V6.55001C0.85888 6.78164 0 7.79052 0 9C0 10.2095 0.85888 11.2184 2 11.45V14.5ZM3 14V11C3 10.7239 2.77614 10.5 2.5 10.5C1.67157 10.5 1 9.82843 1 9C1 8.17157 1.67157 7.5 2.5 7.5C2.77614 7.5 3 7.27614 3 7V4.70711L4.70711 3H11.2929L13 4.70711V7C13 7.27614 13.2239 7.5 13.5 7.5C14.3284 7.5 15 8.17157 15 9C15 9.82843 14.3284 10.5 13.5 10.5C13.2239 10.5 13 10.7239 13 11V14H3Z" fill="black"/>
</svg>
