<svg width="16" height="16" viewBox="0 0 16 16" fill="none" xmlns="http://www.w3.org/2000/svg">
<path d="M3.34 2.99386C3.61549 2.65604 4.02046 2.5 4.41421 2.5H11.5858C11.9795 2.5 12.3845 2.65604 12.66 2.99386C13.2379 3.7025 14.5 5.52773 14.5 8C14.5 10.4723 13.2379 12.2975 12.66 13.0061C12.3845 13.344 11.9795 13.5 11.5858 13.5H4.41421C4.02046 13.5 3.61549 13.344 3.34 13.0061C2.76212 12.2975 1.5 10.4723 1.5 8C1.5 5.52773 2.76212 3.7025 3.34 2.99386ZM4.41421 3.5C4.27753 3.5 4.17472 3.55259 4.11499 3.62585C3.59859 4.25909 2.5 5.86289 2.5 8C2.5 10.1371 3.59859 11.7409 4.11499 12.3742C4.17472 12.4474 4.27753 12.5 4.41421 12.5H11.5858C11.7225 12.5 11.8253 12.4474 11.885 12.3742C12.4014 11.7409 13.5 10.1371 13.5 8C13.5 5.86289 12.4014 4.25909 11.885 3.62585C11.8253 3.55259 11.7225 3.5 11.5858 3.5H4.41421Z" fill="black"/>
<path d="M6 5.5C6.27614 5.5 6.5 5.72386 6.5 6V7.5C6.5 7.77614 6.27614 8 6 8C5.72386 8 5.5 7.77614 5.5 7.5V6C5.5 5.72386 5.72386 5.5 6 5.5Z" fill="black"/>
<path d="M10 5.5C10.2761 5.5 10.5 5.72386 10.5 6V7.5C10.5 7.77614 10.2761 8 10 8C9.72386 8 9.5 7.77614 9.5 7.5V6C9.5 5.72386 9.72386 5.5 10 5.5Z" fill="black"/>
<path d="M7 10V11H9V10C9 9.44772 8.55228 9 8 9C7.44772 9 7 9.44772 7 10Z" fill="black"/>
</svg>
