<svg width="16" height="16" viewBox="0 0 16 16" fill="none" xmlns="http://www.w3.org/2000/svg">
<path d="M8 0C8.27614 0 8.5 0.223858 8.5 0.5V1.01358C12.625 1.23809 16 4.22087 16 8C16 8 16 8.5 15.5 8.5C15.3512 8.5 15.1478 8.35491 15.1478 8.35491L15.1436 8.35084C15.1389 8.34643 15.1307 8.33869 15.119 8.32808C15.0955 8.30685 15.0581 8.27432 15.008 8.23418C14.9073 8.15368 14.7569 8.04409 14.5644 7.93412C14.1775 7.713 13.6381 7.5 13 7.5C12.3619 7.5 11.8225 7.713 11.4356 7.93412C11.2431 8.04409 11.0927 8.15368 10.992 8.23418C10.9419 8.27432 10.9045 8.30685 10.881 8.32808C10.8693 8.33869 10.8611 8.34643 10.8564 8.35084L10.8527 8.35441C10.8527 8.35441 10.649 8.5 10.5 8.5C10.3512 8.5 10.1478 8.35491 10.1478 8.35491L10.1436 8.35084C10.1389 8.34643 10.1307 8.33869 10.119 8.32808C10.0955 8.30685 10.0581 8.27432 10.008 8.23418C9.90733 8.15368 9.75688 8.04409 9.56443 7.93412C9.28323 7.77344 8.92156 7.61704 8.5 7.54355V13.5H8C8.5 13.5 8.5 13.5 8.5 13.5L8.5 13.5011L8.5 13.5023L8.49998 13.5054L8.49987 13.5138L8.49923 13.5391C8.49855 13.5597 8.49726 13.5875 8.49482 13.6216C8.48997 13.6895 8.4805 13.7834 8.46195 13.8947C8.42524 14.1149 8.35089 14.4162 8.19721 14.7236C8.04256 15.0329 7.80272 15.3574 7.4336 15.6035C7.06135 15.8517 6.58749 16 6 16C5.41251 16 4.93865 15.8517 4.5664 15.6035C4.19728 15.3574 3.95744 15.0329 3.80279 14.7236C3.64911 14.4162 3.57476 14.1149 3.53805 13.8947C3.5195 13.7834 3.51003 13.6895 3.50518 13.6216C3.50274 13.5875 3.50145 13.5597 3.50077 13.5391L3.50013 13.5138L3.50002 13.5054L3.5 13.5023L3.5 13.5011C3.5 13.5011 3.5 13.5 4 13.5H3.5V13C3.5 12.7239 3.72386 12.5 4 12.5C4.27614 12.5 4.5 12.7239 4.5 13V13.4978L4.50021 13.5058C4.5005 13.5146 4.50116 13.5297 4.50264 13.5503C4.50559 13.5917 4.51175 13.6541 4.52445 13.7303C4.55024 13.8851 4.60089 14.0838 4.69721 14.2764C4.79256 14.4671 4.92772 14.6426 5.1211 14.7715C5.31135 14.8983 5.58749 15 6 15C6.41251 15 6.68865 14.8983 6.8789 14.7715C7.07228 14.6426 7.20744 14.4671 7.30279 14.2764C7.39911 14.0838 7.44976 13.8851 7.47555 13.7303C7.48825 13.6541 7.49441 13.5917 7.49736 13.5503C7.49884 13.5297 7.4995 13.5146 7.49979 13.5058L7.5 13.4978V7.54355C7.07844 7.61704 6.71677 7.77344 6.43557 7.93412C6.24313 8.04409 6.09267 8.15368 5.99203 8.23418C5.94187 8.27432 5.90454 8.30685 5.88104 8.32808C5.8693 8.33869 5.86106 8.34643 5.85642 8.35084L5.85233 8.35478C5.85233 8.35478 5.64882 8.5 5.5 8.5C5.35125 8.5 5.14781 8.35491 5.14781 8.35491L5.14358 8.35084C5.13894 8.34643 5.1307 8.33869 5.11896 8.32808C5.09546 8.30685 5.05813 8.27432 5.00797 8.23418C4.90733 8.15368 4.75687 8.04409 4.56443 7.93412C4.17746 7.713 3.63811 7.5 3 7.5C2.36189 7.5 1.82254 7.713 1.43557 7.93412C1.24313 8.04409 1.09267 8.15368 0.992035 8.23418C0.94187 8.27432 0.904544 8.30685 0.881042 8.32808C0.869303 8.33869 0.861057 8.34643 0.856424 8.35084L0.852333 8.35477C0.852333 8.35477 0.648825 8.5 0.5 8.5C0 8.5 0 8 0 8C0 4.22087 3.37501 1.23809 7.5 1.01358V0.5C7.5 0.223858 7.72386 0 8 0ZM6.57706 2.12318C3.74427 2.62214 1.58734 4.58125 1.10256 6.97701C1.58029 6.72922 2.22975 6.5 3 6.5C3.80568 6.5 4.4792 6.75079 4.96226 7.01129C4.97764 6.3126 5.07314 5.486 5.30595 4.65293C5.5484 3.78538 5.94656 2.88829 6.57706 2.12318ZM5.96159 7.0533C6.44886 6.77844 7.15107 6.5 8 6.5C8.84893 6.5 9.55114 6.77844 10.0384 7.0533C10.0261 6.42888 9.94203 5.67738 9.73095 4.92207C9.43383 3.85887 8.89784 2.83043 8 2.11801C7.10216 2.83043 6.56617 3.85887 6.26905 4.92207C6.05797 5.67738 5.97388 6.42888 5.96159 7.0533ZM9.42294 2.12318C10.0534 2.88829 10.4516 3.78538 10.694 4.65293C10.9269 5.486 11.0224 6.31261 11.0377 7.0113C11.5208 6.75079 12.1943 6.5 13 6.5C13.7703 6.5 14.4197 6.72922 14.8974 6.97701C14.4127 4.58125 12.2557 2.62214 9.42294 2.12318Z" fill="black"/>
</svg>
