<svg width="16" height="16" viewBox="0 0 16 16" fill="none" xmlns="http://www.w3.org/2000/svg">
<path d="M1 8C1 11.866 4.13401 15 8 15C11.866 15 15 11.866 15 8C15 4.13401 11.866 1 8 1C4.13401 1 1 4.13401 1 8ZM16 8C16 12.4183 12.4183 16 8 16C3.58172 16 0 12.4183 0 8C0 3.58172 3.58172 0 8 0C12.4183 0 16 3.58172 16 8ZM5.5 4.00195H8.46197C10.0447 4.00195 11 5.10352 11 6.58594C11 8.08008 10.0334 9.16406 8.45067 9.16406H6.78314V12H5.5V4.00195ZM8.26978 8.07422C9.1629 8.07422 9.68859 7.5293 9.68859 6.58594C9.68859 5.64258 9.1629 5.10352 8.26978 5.10352H6.77749V8.07422H8.26978Z" fill="black"/>
</svg>
