<svg width="16" height="16" viewBox="0 0 16 16" fill="none" xmlns="http://www.w3.org/2000/svg">
<path d="M5.5 4.00195H8.46197C10.0447 4.00195 11 5.10352 11 6.58594C11 8.08008 10.0334 9.16406 8.45067 9.16406H6.78314V12H5.5V4.00195ZM8.26978 8.07422C9.1629 8.07422 9.68859 7.5293 9.68859 6.58594C9.68859 5.64258 9.1629 5.10352 8.26978 5.10352H6.77749V8.07422H8.26978Z" fill="black"/>
<path d="M0 2C0 0.895431 0.895431 0 2 0H14C15.1046 0 16 0.895431 16 2V14C16 15.1046 15.1046 16 14 16H2C0.895431 16 0 15.1046 0 14V2ZM15 2C15 1.44772 14.5523 1 14 1H2C1.44772 1 1 1.44772 1 2V14C1 14.5523 1.44772 15 2 15H14C14.5523 15 15 14.5523 15 14V2Z" fill="black"/>
</svg>
