<svg width="16" height="16" viewBox="0 0 16 16" fill="none" xmlns="http://www.w3.org/2000/svg">
<path d="M6.19242 2.77946C5.73421 2.10304 5.26517 1.53206 4.84204 1.13704C4.60891 0.919386 4.3678 0.734341 4.132 0.621742C3.91499 0.518118 3.5726 0.416753 3.25012 0.602938C2.88294 0.814931 2.82293 1.23251 2.82022 1.49769C2.81711 1.80175 2.88421 2.16196 2.99282 2.54163C3.1893 3.2285 3.54853 4.07031 4.02837 4.94351L0.752146 8.21974C0.475087 8.4968 0.483301 8.87595 0.534071 9.13809C0.588844 9.42091 0.721102 9.73068 0.893495 10.041C1.24172 10.6678 1.81324 11.4022 2.51991 12.1088C3.22659 12.8155 3.96095 13.387 4.58775 13.7352C4.89806 13.9076 5.20783 14.0399 5.49065 14.0947C5.7528 14.1454 6.13194 14.1537 6.409 13.8766L12.0236 8.26202C12.1417 8.51943 12.1161 8.77366 12.0731 9.20097C12.0437 9.49319 12.0061 9.86636 12.0008 10.3768C12 10.3965 11.9999 10.4161 12.0003 10.4358L12.0001 10.5001L12.0037 10.4994C12.0229 10.7262 12.1193 10.9478 12.2929 11.1214C12.6835 11.5119 13.3166 11.5119 13.7072 11.1214C13.8807 10.9478 13.9771 10.7264 13.9964 10.4996L14.0001 10.5C14.0001 10.481 13.9999 10.4619 13.9997 10.4428C14.0008 10.4038 13.9996 10.3649 13.9962 10.3261C13.9407 9.07614 13.2954 7.58815 12.1369 6.83232C12.0775 6.68965 12.0054 6.54413 11.9245 6.39849C11.5763 5.77169 11.0048 5.03733 10.2981 4.33065C9.59141 3.62398 8.85705 3.05246 8.23025 2.70424C7.91994 2.53184 7.61017 2.39959 7.32735 2.34481C7.0652 2.29404 6.68606 2.28583 6.409 2.56289L6.19242 2.77946ZM4.15963 1.86801C4.54141 2.22442 5.00432 2.7901 5.4714 3.50049L4.7668 4.20508C4.38507 3.47766 4.10756 2.80254 3.95425 2.2666C3.8731 1.98293 3.83247 1.75772 3.82256 1.59443C3.91418 1.65506 4.02723 1.7444 4.15963 1.86801ZM4.55354 5.83256C5.09397 6.68493 5.66147 7.40006 6.16114 7.86581C6.36313 8.0541 6.67952 8.04298 6.86781 7.84098C7.05609 7.63899 7.04498 7.3226 6.84298 7.13431C6.38958 6.71168 5.82597 5.99786 5.27937 5.10673L6.36735 4.01875C6.42057 4.13938 6.48234 4.26172 6.55035 4.38414C6.89857 5.01094 7.47009 5.7453 8.17677 6.45197C8.88344 7.15865 9.61781 7.73017 10.2446 8.07839C10.367 8.1464 10.4894 8.20817 10.61 8.26139L5.74888 13.1225C5.733 13.1214 5.71073 13.1187 5.68079 13.1129C5.54394 13.0864 5.33891 13.0086 5.07339 12.8611C4.54854 12.5695 3.88718 12.0619 3.22702 11.4017C2.56686 10.7416 2.05923 10.0802 1.76765 9.55535C1.62014 9.28983 1.54233 9.0848 1.51583 8.94795C1.51003 8.91802 1.50735 8.89574 1.50624 8.87986L4.55354 5.83256ZM7.42451 3.89849C7.29257 3.661 7.21639 3.4719 7.18281 3.3367C7.31801 3.37027 7.50711 3.44645 7.74461 3.57839C8.26946 3.86998 8.93082 4.3776 9.59098 5.03776C10.0415 5.48833 10.4211 5.93945 10.7093 6.34735C10.3771 6.32271 10.0214 6.34994 9.64313 6.43931C9.39519 6.23314 9.13944 6.00044 8.88387 5.74487C8.22371 5.08471 7.71609 4.42334 7.42451 3.89849Z" fill="black"/>
</svg>
