<svg width="16" height="16" viewBox="0 0 16 16" fill="none" xmlns="http://www.w3.org/2000/svg">
<path d="M8 5C8.82843 5 9.5 4.32843 9.5 3.5C9.5 2.67157 8.82843 2 8 2C7.17157 2 6.5 2.67157 6.5 3.5C6.5 4.32843 7.17157 5 8 5Z" fill="black"/>
<path d="M12 8C12.8284 8 13.5 7.32843 13.5 6.5C13.5 5.67157 12.8284 5 12 5C11.1716 5 10.5 5.67157 10.5 6.5C10.5 7.32843 11.1716 8 12 8Z" fill="black"/>
<path d="M5.5 7C5.5 7.82843 4.82843 8.5 4 8.5C3.17157 8.5 2.5 7.82843 2.5 7C2.5 6.17157 3.17157 5.5 4 5.5C4.82843 5.5 5.5 6.17157 5.5 7Z" fill="black"/>
<path d="M6 13C6.82843 13 7.5 12.3284 7.5 11.5C7.5 10.6716 6.82843 10 6 10C5.17157 10 4.5 10.6716 4.5 11.5C4.5 12.3284 5.17157 13 6 13Z" fill="black"/>
<path d="M16 8C16 11.1506 14.1336 10.585 12.4333 10.0697C11.4196 9.76255 10.4649 9.47326 10 10C9.39725 10.6829 9.52509 11.8186 9.64898 12.9194C9.8264 14.4956 9.99573 16 8 16C3.58172 16 0 12.4183 0 8C0 3.58172 3.58172 0 8 0C12.4183 0 16 3.58172 16 8ZM8 15C8.61107 15 8.6536 14.8286 8.6548 14.8238C8.73287 14.6781 8.77884 14.3595 8.72472 13.7053C8.7108 13.537 8.68822 13.3341 8.66371 13.1137C8.61211 12.6499 8.55193 12.1089 8.5458 11.6516C8.53634 10.9455 8.62926 10.0419 9.25026 9.33827C9.61852 8.92103 10.095 8.75989 10.5217 8.71981C10.9261 8.68181 11.3344 8.74612 11.6815 8.82398C12.0247 8.90097 12.3839 9.00984 12.7068 9.1077L12.7354 9.11639C13.0808 9.22105 13.3925 9.31474 13.6879 9.38175C14.341 9.52985 14.5919 9.46489 14.6793 9.40607C14.7174 9.38043 15 9.16116 15 8C15 4.13401 11.866 1 8 1C4.13401 1 1 4.13401 1 8C1 11.866 4.13401 15 8 15Z" fill="black"/>
</svg>
