<svg width="16" height="16" viewBox="0 0 16 16" fill="none" xmlns="http://www.w3.org/2000/svg">
<path d="M12.4333 10.0697C14.1336 10.585 16 11.1506 16 8C16 3.58172 12.4183 0 8 0C3.58172 0 0 3.58172 0 8C0 12.4183 3.58172 16 8 16C9.99573 16 9.8264 14.4956 9.64898 12.9194C9.52509 11.8186 9.39725 10.6829 10 10C10.4649 9.47326 11.4196 9.76255 12.4333 10.0697ZM8 5C7.17157 5 6.5 4.32843 6.5 3.5C6.5 2.67157 7.17157 2 8 2C8.82843 2 9.5 2.67157 9.5 3.5C9.5 4.32843 8.82843 5 8 5ZM12.5 8C11.6716 8 11 7.32843 11 6.5C11 5.67157 11.6716 5 12.5 5C13.3284 5 14 5.67157 14 6.5C14 7.32843 13.3284 8 12.5 8ZM5 6.5C5 7.32843 4.32843 8 3.5 8C2.67157 8 2 7.32843 2 6.5C2 5.67157 2.67157 5 3.5 5C4.32843 5 5 5.67157 5 6.5ZM5.5 13C4.67157 13 4 12.3284 4 11.5C4 10.6716 4.67157 10 5.5 10C6.32843 10 7 10.6716 7 11.5C7 12.3284 6.32843 13 5.5 13Z" fill="black"/>
</svg>
