<svg width="16" height="16" viewBox="0 0 16 16" fill="none" xmlns="http://www.w3.org/2000/svg">
<path d="M4.58472e-06 0.5C4.58472e-06 0.223858 0.223862 0 0.500005 0H5.5C5.77615 0 6 0.223858 6 0.5V5.77698L10.1471 1.64577C10.3425 1.45115 10.6585 1.45145 10.8535 1.64645L14.3891 5.18199C14.483 5.27588 14.5356 5.40325 14.5355 5.53603C14.5354 5.6688 14.4825 5.79607 14.3884 5.88978L10.2623 10H15.5C15.7761 10 16 10.2239 16 10.5V15.5C16 15.7761 15.7761 16 15.5 16H3C2.17158 16 1.42157 15.6642 0.87868 15.1213C0.589719 14.8324 0.372029 14.4991 0.225608 14.1434C0.210364 14.1065 0.195837 14.0692 0.182044 14.0315C0.0690727 13.723 0.00532869 13.3907 0.000323701 13.0442M6 12.8345L13.3277 5.53486L10.4993 2.70643L6 7.18849V12.8345ZM4.5 13C4.5 12.1716 3.82843 11.5 3 11.5C2.17158 11.5 1.5 12.1716 1.5 13C1.5 13.8284 2.17158 14.5 3 14.5C3.82843 14.5 4.5 13.8284 4.5 13ZM15 15V11H9.2585L5.24311 15H15Z" fill="black"/>
<path d="M4.58472e-06 0.5V12.9947V0.5Z" fill="black"/>
<path d="M4.58472e-06 12.9947V13C4.58472e-06 13.0147 0.000111616 13.0295 0.000323701 13.0442C8.25904e-05 13.0277 -2.41986e-05 13.0112 4.58472e-06 12.9947Z" fill="black"/>
</svg>
