<svg width="16" height="16" viewBox="0 0 16 16" fill="none" xmlns="http://www.w3.org/2000/svg">
<path d="M8 5C6.34315 5 5 6.34315 5 8C5 9.65685 6.34315 11 8 11C9.65685 11 11 9.65685 11 8C11 6.34315 9.65685 5 8 5ZM6 8C6 6.89543 6.89543 6 8 6C9.10457 6 10 6.89543 10 8C10 9.10457 9.10457 10 8 10C6.89543 10 6 9.10457 6 8Z" fill="black"/>
<path d="M5.5 12C5.22386 12 5 12.2239 5 12.5C5 12.7761 5.22386 13 5.5 13H10.5C10.7761 13 11 12.7761 11 12.5C11 12.2239 10.7761 12 10.5 12H5.5Z" fill="black"/>
<path d="M3.23167 1.77605C2.51844 1.90573 2 2.52692 2 3.25185V14.2027C2 14.6473 2.19128 15.0403 2.49083 15.3124C2.85749 15.7337 3.39765 16 4 16H12C13.1046 16 14 15.1046 14 14V4C14 3.25972 13.5978 2.61334 13 2.26752V1.79731C13 0.861451 12.1524 0.154092 11.2317 0.321503L3.23167 1.77605ZM4 3H12C12.5523 3 13 3.44772 13 4V14C13 14.5523 12.5523 15 12 15H4C3.44772 15 3 14.5523 3 14V4C3 3.44772 3.44772 3 4 3Z" fill="black"/>
</svg>
