<svg width="16" height="16" viewBox="0 0 16 16" fill="none" xmlns="http://www.w3.org/2000/svg">
<path d="M8 5.99999C6.89543 5.99999 6 6.89542 6 7.99999C6 9.10456 6.89543 9.99999 8 9.99999C9.10457 9.99999 10 9.10456 10 7.99999C10 6.89542 9.10457 5.99999 8 5.99999Z" fill="black"/>
<path d="M2 3.25185C2 2.52692 2.51844 1.90573 3.23167 1.77605L11.2317 0.321503C12.1524 0.154092 13 0.861451 13 1.79731V2.26755C13.5978 2.61336 14 3.25971 14 3.99999V14C14 15.1046 13.1046 16 12 16H4C3.39768 16 2.85755 15.7337 2.49088 15.3125C2.19131 15.0403 2 14.6473 2 14.2027V3.25185ZM5 7.99999C5 9.65684 6.34315 11 8 11C9.65685 11 11 9.65684 11 7.99999C11 6.34313 9.65685 4.99999 8 4.99999C6.34315 4.99999 5 6.34313 5 7.99999ZM5 12.5C5 12.7761 5.22386 13 5.5 13H10.5C10.7761 13 11 12.7761 11 12.5C11 12.2238 10.7761 12 10.5 12H5.5C5.22386 12 5 12.2238 5 12.5Z" fill="black"/>
</svg>
