<svg width="16" height="16" viewBox="0 0 16 16" fill="none" xmlns="http://www.w3.org/2000/svg">
<path d="M10.0674 0.870798C8.93365 -0.290266 7.06635 -0.290266 5.93262 0.870798L5.31077 1.50763L4.42075 1.49703C2.79809 1.47771 1.47771 2.79809 1.49703 4.42075L1.50763 5.31077L0.870798 5.93262C-0.290266 7.06635 -0.290266 8.93365 0.870798 10.0674L1.50763 10.6892L1.49703 11.5792C1.47771 13.2019 2.79809 14.5223 4.42075 14.503L5.31077 14.4924L5.93262 15.1292C7.06635 16.2903 8.93365 16.2903 10.0674 15.1292L10.6892 14.4924L11.5792 14.503C13.2019 14.5223 14.5223 13.2019 14.503 11.5792L14.4924 10.6892L15.1292 10.0674C16.2903 8.93365 16.2903 7.06635 15.1292 5.93262L14.4924 5.31077L14.503 4.42075C14.5223 2.79809 13.2019 1.47771 11.5792 1.49703L10.6892 1.50763L10.0674 0.870798ZM6 7.5H10C10.2761 7.5 10.5 7.72386 10.5 8C10.5 8.27614 10.2761 8.5 10 8.5H6C5.72386 8.5 5.5 8.27614 5.5 8C5.5 7.72386 5.72386 7.5 6 7.5Z" fill="black"/>
</svg>
