<svg width="16" height="16" viewBox="0 0 16 16" fill="none" xmlns="http://www.w3.org/2000/svg">
<path d="M8.0495 9.59961C8.38614 9.59961 8.55446 9.35938 8.60396 8.97266C8.64356 8.43945 8.80198 8.1582 9.4505 7.71289C10.1238 7.23828 10.5 6.62305 10.5 5.72656C10.5 4.40234 9.57921 3.5 8.23762 3.5C7.21782 3.5 6.44554 3.99219 6.13861 4.78906C6.04455 5.01172 6 5.22852 6 5.48047C6 5.87305 6.20297 6.11914 6.54455 6.11914C6.81683 6.11914 7 5.97266 7.10891 5.60938C7.26733 5.01758 7.63366 4.69531 8.18317 4.69531C8.79208 4.69531 9.21287 5.14062 9.21287 5.7793C9.21287 6.3418 9.00495 6.66406 8.39109 7.10352C7.77228 7.53711 7.46535 8.01758 7.46535 8.74414V8.85547C7.46535 9.2832 7.67327 9.59961 8.0495 9.59961Z" fill="black"/>
<path d="M10.2729 2.51266L9.3519 1.56943L10.0674 0.870798L10.6892 1.50763L11.5792 1.49703C13.2019 1.47771 14.5223 2.79809 14.503 4.42075L14.4924 5.31077L15.1292 5.93262C16.2903 7.06635 16.2903 8.93365 15.1292 10.0674L14.4924 10.6892L14.503 11.5792C14.5223 13.2019 13.2019 14.5223 11.5792 14.503L10.6892 14.4924L10.0674 15.1292C8.93365 16.2903 7.06635 16.2903 5.93262 15.1292L5.31077 14.4924L4.42075 14.503C2.79809 14.5223 1.47771 13.2019 1.49703 11.5792L1.50763 10.6892L0.870798 10.0674C-0.290266 8.93365 -0.290266 7.06635 0.870798 5.93262L1.50763 5.31077L1.49703 4.42075C1.47771 2.79809 2.79809 1.47771 4.42075 1.49703L5.31077 1.50763L5.93262 0.870798C7.06635 -0.290266 8.93365 -0.290266 10.0674 0.870798L9.3519 1.56943C8.61053 0.810189 7.38947 0.810189 6.6481 1.56943L5.72707 2.51266L4.40884 2.49696C3.34775 2.48432 2.48432 3.34775 2.49696 4.40884L2.51266 5.72707L1.56943 6.6481C0.810189 7.38947 0.810189 8.61053 1.56943 9.3519L2.51266 10.2729L2.49696 11.5912C2.48432 12.6523 3.34775 13.5157 4.40884 13.503L5.72707 13.4873L6.6481 14.4306C7.38947 15.1898 8.61053 15.1898 9.3519 14.4306L10.2729 13.4873L11.5912 13.503C12.6523 13.5157 13.5157 12.6523 13.503 11.5912L13.4873 10.2729L14.4306 9.3519C15.1898 8.61053 15.1898 7.38947 14.4306 6.6481L13.4873 5.72707L13.503 4.40884C13.5157 3.34775 12.6523 2.48432 11.5912 2.49696L10.2729 2.51266Z" fill="black"/>
<path d="M7.00146 11C7.00146 10.4477 7.44918 10 8.00146 10C8.55375 10 9.00146 10.4477 9.00146 11C9.00146 11.5523 8.55375 12 8.00146 12C7.44918 12 7.00146 11.5523 7.00146 11Z" fill="black"/>
</svg>
