<svg width="16" height="16" viewBox="0 0 16 16" fill="none" xmlns="http://www.w3.org/2000/svg">
<path d="M10.0674 0.870798C8.93365 -0.290266 7.06635 -0.290266 5.93262 0.870798L5.31077 1.50763L4.42075 1.49703C2.79809 1.47771 1.47771 2.79809 1.49703 4.42075L1.50763 5.31077L0.870798 5.93262C-0.290266 7.06635 -0.290266 8.93365 0.870798 10.0674L1.50763 10.6892L1.49703 11.5792C1.47771 13.2019 2.79809 14.5223 4.42075 14.503L5.31077 14.4924L5.93262 15.1292C7.06635 16.2903 8.93365 16.2903 10.0674 15.1292L10.6892 14.4924L11.5792 14.503C13.2019 14.5223 14.5223 13.2019 14.503 11.5792L14.4924 10.6892L15.1292 10.0674C16.2903 8.93365 16.2903 7.06635 15.1292 5.93262L14.4924 5.31077L14.503 4.42075C14.5223 2.79809 13.2019 1.47771 11.5792 1.49703L10.6892 1.50763L10.0674 0.870798ZM10.3536 6.85355L7.35355 9.85355C7.25979 9.94732 7.13261 10 7 10C6.86739 10 6.74021 9.94732 6.64645 9.85355L5.14645 8.35355C4.95118 8.15829 4.95118 7.84171 5.14645 7.64645C5.34171 7.45118 5.65829 7.45118 5.85355 7.64645L7 8.79289L9.64645 6.14645C9.84171 5.95118 10.1583 5.95118 10.3536 6.14645C10.5488 6.34171 10.5488 6.65829 10.3536 6.85355Z" fill="black"/>
</svg>
