<svg width="16" height="16" viewBox="0 0 16 16" fill="none" xmlns="http://www.w3.org/2000/svg">
<path d="M8 15C4.13401 15 1 11.866 1 8C1 4.13401 4.13401 1 8 1C11.866 1 15 4.13401 15 8C15 11.866 11.866 15 8 15ZM8 16C12.4183 16 16 12.4183 16 8C16 3.58172 12.4183 0 8 0C3.58172 0 0 3.58172 0 8C0 12.4183 3.58172 16 8 16Z" fill="black"/>
<path d="M5 6.25C5 5.55964 5.55964 5 6.25 5C6.94036 5 7.5 5.55964 7.5 6.25V9.75C7.5 10.4404 6.94036 11 6.25 11C5.55964 11 5 10.4404 5 9.75V6.25ZM8.5 6.25C8.5 5.55964 9.05964 5 9.75 5C10.4404 5 11 5.55964 11 6.25V9.75C11 10.4404 10.4404 11 9.75 11C9.05964 11 8.5 10.4404 8.5 9.75V6.25Z" fill="black"/>
</svg>
