<svg width="16" height="16" viewBox="0 0 16 16" fill="none" xmlns="http://www.w3.org/2000/svg">
<path d="M6.25 5C5.55964 5 5 5.55964 5 6.25V9.75C5 10.4404 5.55964 11 6.25 11C6.94036 11 7.5 10.4404 7.5 9.75V6.25C7.5 5.55964 6.94036 5 6.25 5Z" fill="black"/>
<path d="M9.75 5C9.05964 5 8.5 5.55964 8.5 6.25V9.75C8.5 10.4404 9.05964 11 9.75 11C10.4404 11 11 10.4404 11 9.75V6.25C11 5.55964 10.4404 5 9.75 5Z" fill="black"/>
<path d="M0 4C0 2.89543 0.895431 2 2 2H14C15.1046 2 16 2.89543 16 4V12C16 13.1046 15.1046 14 14 14H2C0.895431 14 0 13.1046 0 12V4ZM15 4C15 3.44772 14.5523 3 14 3H2C1.44772 3 1 3.44772 1 4V12C1 12.5523 1.44772 13 2 13H14C14.5523 13 15 12.5523 15 12V4Z" fill="black"/>
</svg>
