<svg width="16" height="16" viewBox="0 0 16 16" fill="none" xmlns="http://www.w3.org/2000/svg">
<path d="M14.0601 3.71276C14.1795 2.64205 13.9671 1.88096 13.3581 1.18656C12.6284 0.355706 11.3115 0 9.6263 0H4.73403C4.3898 0 4.09616 0.250351 4.04296 0.590931L2.00521 13.5075C1.96505 13.763 2.1622 13.9935 2.41985 13.9935H5.17625L4.9745 15.2743C4.91486 15.6553 5.20875 16 5.59463 16H8.14038C8.56871 16 8.93264 15.6898 9.00217 15.2686L9.02732 15.1386L9.50681 12.0957L9.53706 11.9322L9.53813 11.9254C9.56511 11.7539 9.71238 11.6283 9.88553 11.6283H10.2663C11.5317 11.6283 12.6908 11.3717 13.6115 10.7171C13.99 10.4479 14.323 10.1153 14.6045 9.71344C15.0485 9.09508 15.3724 8.33535 15.4839 7.51811C15.7265 6.27243 15.6145 5.16249 14.9135 4.36367C14.7036 4.12529 14.4469 3.9307 14.1539 3.77414L14.0601 3.71276ZM6.54298 8.82056C6.63938 8.77048 6.7487 8.74243 6.8641 8.74243H8.29945C11.1185 8.74243 13.3258 7.5976 13.9709 4.28567L13.9739 4.27049C14.1908 4.3943 14.3736 4.53982 14.5218 4.70803C15.0684 5.331 15.2008 6.243 14.9719 7.41842C14.6999 8.81504 14.1061 9.72545 13.3093 10.292C12.5069 10.8625 11.4673 11.1067 10.2663 11.1067H9.88553C9.45699 11.1067 9.09192 11.4173 9.02349 11.8406L8.9932 12.0045L8.51353 15.0484L8.48855 15.1775L8.48787 15.1818C8.46057 15.3528 8.31342 15.4784 8.14038 15.4784H5.59463C5.52989 15.4784 5.47957 15.4205 5.48978 15.355L5.69767 14.0353L5.69785 14.0341L6.54298 8.82056Z" fill="black"/>
</svg>
