<svg width="16" height="16" viewBox="0 0 16 16" fill="none" xmlns="http://www.w3.org/2000/svg">
<path d="M8 1C8 0.447715 8.44772 0 9 0H15C15.5523 0 16 0.447715 16 1V15C16 15.5523 15.5523 16 15 16H9C8.44772 16 8 15.5523 8 15V1ZM9 14.5C9 14.7761 9.22386 15 9.5 15C9.77614 15 10 14.7761 10 14.5C10 14.2239 9.77614 14 9.5 14C9.22386 14 9 14.2239 9 14.5ZM11 14.5C11 14.7761 11.2239 15 11.5 15C11.7761 15 12 14.7761 12 14.5C12 14.2239 11.7761 14 11.5 14C11.2239 14 11 14.2239 11 14.5ZM9.5 1C9.22386 1 9 1.22386 9 1.5C9 1.77614 9.22386 2 9.5 2H14.5C14.7761 2 15 1.77614 15 1.5C15 1.22386 14.7761 1 14.5 1H9.5ZM9 3.5C9 3.77614 9.22386 4 9.5 4H14.5C14.7761 4 15 3.77614 15 3.5C15 3.22386 14.7761 3 14.5 3H9.5C9.22386 3 9 3.22386 9 3.5Z" fill="black"/>
<path d="M1.5 2C0.671573 2 0 2.67157 0 3.5V10.5C0 11.3284 0.671573 12 1.5 12H6V14H5.5C5.22386 14 5 14.2239 5 14.5C5 14.7761 5.22386 15 5.5 15H7V11H1.5C1.22386 11 1 10.7761 1 10.5V3.5C1 3.22386 1.22386 3 1.5 3H7V2H1.5Z" fill="black"/>
</svg>
