<svg width="16" height="16" viewBox="0 0 16 16" fill="none" xmlns="http://www.w3.org/2000/svg">
<path d="M1.5 0C0.671573 0 0 0.671573 0 1.5V8.5C0 9.32843 0.671573 10 1.5 10H6V11H1C0.447715 11 0 11.4477 0 12V15C0 15.5523 0.447715 16 1 16H15C15.5523 16 16 15.5523 16 15V12C16 11.4477 15.5523 11 15 11H10V10H14.5C15.3284 10 16 9.32843 16 8.5V1.5C16 0.671573 15.3284 0 14.5 0H1.5ZM1.5 1H14.5C14.7761 1 15 1.22386 15 1.5V8.5C15 8.77614 14.7761 9 14.5 9H1.5C1.22386 9 1 8.77614 1 8.5V1.5C1 1.22386 1.22386 1 1.5 1ZM12 12.5C12 12.2239 12.2239 12 12.5 12C12.7761 12 13 12.2239 13 12.5C13 12.7761 12.7761 13 12.5 13C12.2239 13 12 12.7761 12 12.5ZM14 12.5C14 12.2239 14.2239 12 14.5 12C14.7761 12 15 12.2239 15 12.5C15 12.7761 14.7761 13 14.5 13C14.2239 13 14 12.7761 14 12.5ZM1.5 12H6.5C6.77614 12 7 12.2239 7 12.5C7 12.7761 6.77614 13 6.5 13H1.5C1.22386 13 1 12.7761 1 12.5C1 12.2239 1.22386 12 1.5 12ZM1 14.25C1 14.1119 1.11193 14 1.25 14H6.75C6.88807 14 7 14.1119 7 14.25C7 14.3881 6.88807 14.5 6.75 14.5H1.25C1.11193 14.5 1 14.3881 1 14.25Z" fill="black"/>
</svg>
