<svg width="16" height="16" viewBox="0 0 16 16" fill="none" xmlns="http://www.w3.org/2000/svg">
<path d="M1 6C0.447715 6 0 6.44772 0 7V10C0 10.5523 0.447715 11 1 11H15C15.5523 11 16 10.5523 16 10V7C16 6.44772 15.5523 6 15 6H1ZM12.5 7C12.7761 7 13 7.22386 13 7.5C13 7.77614 12.7761 8 12.5 8C12.2239 8 12 7.77614 12 7.5C12 7.22386 12.2239 7 12.5 7ZM14.5 7C14.7761 7 15 7.22386 15 7.5C15 7.77614 14.7761 8 14.5 8C14.2239 8 14 7.77614 14 7.5C14 7.22386 14.2239 7 14.5 7ZM1 7.5C1 7.22386 1.22386 7 1.5 7H6.5C6.77614 7 7 7.22386 7 7.5C7 7.77614 6.77614 8 6.5 8H1.5C1.22386 8 1 7.77614 1 7.5ZM1.25 9H6.75C6.88807 9 7 9.11193 7 9.25C7 9.38807 6.88807 9.5 6.75 9.5H1.25C1.11193 9.5 1 9.38807 1 9.25C1 9.11193 1.11193 9 1.25 9Z" fill="black"/>
</svg>
