<svg width="16" height="16" viewBox="0 0 16 16" fill="none" xmlns="http://www.w3.org/2000/svg">
<path d="M7.56235 7.39043L8 7.04031V8.95969L7.56235 8.60957C7.47369 8.53864 7.36354 8.5 7.25 8.5H6.5V7.5H7.25C7.36354 7.5 7.47369 7.46136 7.56235 7.39043Z" fill="black"/>
<path d="M0.5 1C0.223858 1 0 1.22386 0 1.5C0 1.77614 0.223858 2 0.5 2H1V14.5C1 14.7761 1.22386 15 1.5 15C1.77614 15 2 14.7761 2 14.5V12H15.5C15.7761 12 16 11.7761 16 11.5V4.5C16 4.22386 15.7761 4 15.5 4H2V1.5C2 1.22386 1.77614 1 1.5 1H0.5ZM12.1188 4.88123C12.2195 4.99585 12.3132 5.11865 12.3993 5.24775C12.8834 5.97402 13.1667 6.94853 13.1667 7.99998C13.1667 9.05142 12.8834 10.0259 12.3993 10.7522C12.3132 10.8813 12.2195 11.0041 12.1188 11.1187L11.4098 10.4098C11.4637 10.3446 11.5163 10.2739 11.5672 10.1975C11.9275 9.65701 12.1667 8.88153 12.1667 7.99998C12.1667 7.11842 11.9275 6.34294 11.5672 5.80245C11.5163 5.72608 11.4637 5.65534 11.4098 5.59014L12.1188 4.88123ZM10.7441 9.74406L10 8.99998C10.057 8.99998 10.1697 8.96534 10.2911 8.78329C10.4101 8.60473 10.5 8.32925 10.5 7.99998C10.5 7.67071 10.4101 7.39523 10.2911 7.21667C10.1697 7.03461 10.057 6.99998 10 6.99998L10.7441 6.2559C10.8945 6.36865 11.0218 6.51002 11.1231 6.66197C11.366 7.0263 11.5 7.50082 11.5 7.99998C11.5 8.49914 11.366 8.97365 11.1231 9.33799C11.0218 9.48994 10.8945 9.63131 10.7441 9.74406ZM9 6V10C9 10.1922 8.88983 10.3674 8.71659 10.4507C8.54336 10.5339 8.33774 10.5105 8.18765 10.3904L7.07461 9.5H6C5.72386 9.5 5.5 9.27614 5.5 9V7C5.5 6.72386 5.72386 6.5 6 6.5H7.07461L8.18765 5.60957C8.33774 5.4895 8.54336 5.46609 8.71659 5.54935C8.88983 5.63261 9 5.8078 9 6Z" fill="black"/>
<path d="M6.5 12.5H3V13.5C3 13.7761 3.22386 14 3.5 14H6C6.27614 14 6.5 13.7761 6.5 13.5V12.5Z" fill="black"/>
<path d="M7 13.5V12.5H11V13.5C11 13.7761 10.7761 14 10.5 14H7.5C7.22386 14 7 13.7761 7 13.5Z" fill="black"/>
</svg>
