<svg width="16" height="16" viewBox="0 0 16 16" fill="none" xmlns="http://www.w3.org/2000/svg">
<path d="M6.5 9.5V7.5H6.71429C6.99043 7.5 7.21429 7.27614 7.21429 7V6.5H9.78571V7C9.78571 7.27614 10.0096 7.5 10.2857 7.5H10.5V9.5H6.5Z" fill="black"/>
<path d="M0 1.5C0 1.22386 0.223858 1 0.5 1H1.5C1.77614 1 2 1.22386 2 1.5V4H15.5C15.7761 4 16 4.22386 16 4.5V11.5C16 11.7761 15.7761 12 15.5 12H2V14.5C2 14.7761 1.77614 15 1.5 15C1.22386 15 1 14.7761 1 14.5V2H0.5C0.223858 2 0 1.77614 0 1.5ZM6.71429 5.5C6.43814 5.5 6.21429 5.72386 6.21429 6V6.5H6C5.72386 6.5 5.5 6.72386 5.5 7V10C5.5 10.2761 5.72386 10.5 6 10.5H11C11.2761 10.5 11.5 10.2761 11.5 10V7C11.5 6.72386 11.2761 6.5 11 6.5H10.7857V6C10.7857 5.72386 10.5619 5.5 10.2857 5.5H6.71429Z" fill="black"/>
<path d="M3 12.5H6.5V13.5C6.5 13.7761 6.27614 14 6 14H3.5C3.22386 14 3 13.7761 3 13.5V12.5Z" fill="black"/>
<path d="M11 12.5H7V13.5C7 13.7761 7.22386 14 7.5 14H10.5C10.7761 14 11 13.7761 11 13.5V12.5Z" fill="black"/>
</svg>
