<svg width="16" height="16" viewBox="0 0 16 16" fill="none" xmlns="http://www.w3.org/2000/svg">
<path d="M0 1.5C0 1.22386 0.223858 1 0.5 1H1.5C1.77614 1 2 1.22386 2 1.5V4H15.5C15.7761 4 16 4.22386 16 4.5V11.5C16 11.7761 15.7761 12 15.5 12H2V14.5C2 14.7761 1.77614 15 1.5 15C1.22386 15 1 14.7761 1 14.5V2H0.5C0.223858 2 0 1.77614 0 1.5Z" fill="black"/>
<path d="M3 12.5H6.5V13.5C6.5 13.7761 6.27614 14 6 14H3.5C3.22386 14 3 13.7761 3 13.5V12.5Z" fill="black"/>
<path d="M7 12.5H11V13.5C11 13.7761 10.7761 14 10.5 14H7.5C7.22386 14 7 13.7761 7 13.5V12.5Z" fill="black"/>
</svg>
