<svg width="16" height="16" viewBox="0 0 16 16" fill="none" xmlns="http://www.w3.org/2000/svg">
<path d="M7.5 1.01758C3.86736 1.27396 1 4.30212 1 8C1 9.75304 1.64441 11.3556 2.70926 12.5836L7.5 7.79289V1.01758ZM8.5 1.01758V7.79289L13.2907 12.5836C14.3556 11.3556 15 9.75304 15 8C15 4.30212 12.1326 1.27396 8.5 1.01758ZM12.5836 13.2907L8.5 9.20711V14.9824C10.057 14.8725 11.4733 14.2535 12.5836 13.2907ZM7.5 14.9824V9.20711L3.41637 13.2907C4.52666 14.2535 5.94304 14.8725 7.5 14.9824ZM0 8C0 3.58172 3.58172 0 8 0C12.4183 0 16 3.58172 16 8C16 12.4183 12.4183 16 8 16C3.58172 16 0 12.4183 0 8Z" fill="black"/>
</svg>
