<svg width="16" height="16" viewBox="0 0 16 16" fill="none" xmlns="http://www.w3.org/2000/svg">
<path d="M13.4983 0.794613L13.6465 0.646461C14.1179 0.175057 14.8822 0.175056 15.3536 0.646461C15.825 1.11787 15.825 1.88216 15.3536 2.35357L15.2054 2.50172C15.7315 3.09072 15.7119 3.99525 15.1465 4.56067L4.85356 14.8536C4.78948 14.9176 4.70919 14.9631 4.62128 14.9851L0.621278 15.9851C0.450891 16.0277 0.270647 15.9778 0.146457 15.8536C0.022267 15.7294 -0.0276575 15.5491 0.0149394 15.3787L1.01494 11.3787C1.03692 11.2908 1.08238 11.2105 1.14646 11.1465L10.7877 1.5052C10.5926 1.3676 10.321 1.3861 10.1465 1.56067L6.85356 4.85357C6.6583 5.04883 6.34172 5.04883 6.14646 4.85357C5.95119 4.65831 5.95119 4.34172 6.14646 4.14646L9.43935 0.853568C10.0053 0.287595 10.9111 0.268451 11.5 0.796139C12.0678 0.287434 12.9299 0.286925 13.4983 0.794613ZM12.8536 1.56067C12.6583 1.36541 12.3417 1.36541 12.1465 1.56067L1.95149 11.7556L1.18719 14.8128L4.24439 14.0485L14.4394 3.85357C14.6346 3.65831 14.6346 3.34172 14.4394 3.14646L12.8536 1.56067Z" fill="black"/>
</svg>
