<svg width="16" height="16" viewBox="0 0 16 16" fill="none" xmlns="http://www.w3.org/2000/svg">
<path d="M7.6847 1.54465C7.86841 1.39539 8.1316 1.39539 8.3153 1.54465L14.5778 6.63291C14.737 6.7623 14.8011 6.97586 14.7393 7.17153L12.3775 14.6506C12.3118 14.8586 12.1188 15 11.9007 15H4.09933C3.88119 15 3.68823 14.8586 3.62254 14.6506L1.26074 7.17153C1.19895 6.97586 1.26298 6.7623 1.42223 6.63291L7.6847 1.54465ZM15.8976 6.82422C15.9594 6.62855 15.8954 6.41499 15.7361 6.2856L8.3153 0.256178C8.1316 0.106921 7.86841 0.106921 7.6847 0.256178L0.26388 6.2856C0.104626 6.41499 0.0405948 6.62855 0.102385 6.82422L2.88965 15.6506C2.95534 15.8586 3.1483 16 3.36644 16H12.6336C12.8517 16 13.0447 15.8586 13.1103 15.6506L15.8976 6.82422Z" fill="black"/>
</svg>
