<svg width="16" height="16" viewBox="0 0 16 16" fill="none" xmlns="http://www.w3.org/2000/svg">
<path d="M13.4419 2.55806C13.686 2.80214 13.686 3.19786 13.4419 3.44194L3.44194 13.4419C3.19786 13.686 2.80214 13.686 2.55806 13.4419C2.31398 13.1979 2.31398 12.8021 2.55806 12.5581L12.5581 2.55806C12.8021 2.31398 13.1979 2.31398 13.4419 2.55806Z" fill="black"/>
<path d="M4.5 6C3.67157 6 3 5.32843 3 4.5C3 3.67157 3.67157 3 4.5 3C5.32843 3 6 3.67157 6 4.5C6 5.32843 5.32843 6 4.5 6ZM4.5 7C5.88071 7 7 5.88071 7 4.5C7 3.11929 5.88071 2 4.5 2C3.11929 2 2 3.11929 2 4.5C2 5.88071 3.11929 7 4.5 7Z" fill="black"/>
<path d="M11.5 13C10.6716 13 10 12.3284 10 11.5C10 10.6716 10.6716 10 11.5 10C12.3284 10 13 10.6716 13 11.5C13 12.3284 12.3284 13 11.5 13ZM11.5 14C12.8807 14 14 12.8807 14 11.5C14 10.1193 12.8807 9 11.5 9C10.1193 9 9 10.1193 9 11.5C9 12.8807 10.1193 14 11.5 14Z" fill="black"/>
</svg>
