<svg width="16" height="16" viewBox="0 0 16 16" fill="none" xmlns="http://www.w3.org/2000/svg">
<path d="M1.5 1C1.22386 1 1 1.22386 1 1.5V4.5C1 4.77614 0.776142 5 0.5 5C0.223858 5 0 4.77614 0 4.5V1.5C0 0.671573 0.671573 0 1.5 0H4.5C4.77614 0 5 0.223858 5 0.5C5 0.776142 4.77614 1 4.5 1H1.5Z" fill="black"/>
<path d="M11 0.5C11 0.223858 11.2239 0 11.5 0H14.5C15.3284 0 16 0.671573 16 1.5V4.5C16 4.77614 15.7761 5 15.5 5C15.2239 5 15 4.77614 15 4.5V1.5C15 1.22386 14.7761 1 14.5 1H11.5C11.2239 1 11 0.776142 11 0.5Z" fill="black"/>
<path d="M0.5 11C0.776142 11 1 11.2239 1 11.5V14.5C1 14.7761 1.22386 15 1.5 15H4.5C4.77614 15 5 15.2239 5 15.5C5 15.7761 4.77614 16 4.5 16H1.5C0.671573 16 0 15.3284 0 14.5V11.5C0 11.2239 0.223858 11 0.5 11Z" fill="black"/>
<path d="M15.5 11C15.7761 11 16 11.2239 16 11.5V14.5C16 15.3284 15.3284 16 14.5 16H11.5C11.2239 16 11 15.7761 11 15.5C11 15.2239 11.2239 15 11.5 15H14.5C14.7761 15 15 14.7761 15 14.5V11.5C15 11.2239 15.2239 11 15.5 11Z" fill="black"/>
<path d="M3 14C3 14 2 14 2 13C2 12 3 9 8 9C13 9 14 12 14 13C14 14 13 14 13 14H3Z" fill="black"/>
<path d="M11 5C11 6.65685 9.65685 8 8 8C6.34315 8 5 6.65685 5 5C5 3.34315 6.34315 2 8 2C9.65685 2 11 3.34315 11 5Z" fill="black"/>
</svg>
