<svg width="16" height="16" viewBox="0 0 16 16" fill="none" xmlns="http://www.w3.org/2000/svg">
<path d="M5 8C6.10457 8 7 7.10457 7 6C7 4.89543 6.10457 4 5 4C3.89543 4 3 4.89543 3 6C3 7.10457 3.89543 8 5 8Z" fill="black"/>
<path d="M9 5.5C9 5.22386 9.22386 5 9.5 5H13.5C13.7761 5 14 5.22386 14 5.5C14 5.77614 13.7761 6 13.5 6H9.5C9.22386 6 9 5.77614 9 5.5Z" fill="black"/>
<path d="M9 8C9 7.72386 9.22386 7.5 9.5 7.5H13.5C13.7761 7.5 14 7.72386 14 8C14 8.27614 13.7761 8.5 13.5 8.5H9.5C9.22386 8.5 9 8.27614 9 8Z" fill="black"/>
<path d="M10 10.5C10 10.2239 10.2239 10 10.5 10H13.5C13.7761 10 14 10.2239 14 10.5C14 10.7761 13.7761 11 13.5 11H10.5C10.2239 11 10 10.7761 10 10.5Z" fill="black"/>
<path d="M2 2C0.895431 2 0 2.89543 0 4V12C0 13.1046 0.895431 14 2 14H14C15.1046 14 16 13.1046 16 12V4C16 2.89543 15.1046 2 14 2H2ZM1 4C1 3.44772 1.44772 3 2 3H14C14.5523 3 15 3.44772 15 4V12C15 12.5523 14.5523 13 14 13H8.95949C8.98619 12.8367 9 12.6698 9 12.5C9 10.567 7.20914 9 5 9C2.91369 9 1.20043 10.3976 1.01637 12.1812C1.00562 12.1224 1 12.0619 1 12V4Z" fill="black"/>
</svg>
