<svg width="16" height="16" viewBox="0 0 16 16" fill="none" xmlns="http://www.w3.org/2000/svg">
<path d="M13.8789 10.414C12.9082 9.77094 11.5875 9.877 10.7322 10.7322C9.877 11.5875 9.77094 12.9082 10.414 13.8789L13.8789 10.414ZM14.586 11.1211L11.1211 14.586C12.0918 15.2291 13.4125 15.123 14.2678 14.2678C15.123 13.4125 15.2291 12.0918 14.586 11.1211ZM10.0251 10.0251C11.392 8.65829 13.608 8.65829 14.9749 10.0251C16.3417 11.392 16.3417 13.608 14.9749 14.9749C13.608 16.3417 11.392 16.3417 10.0251 14.9749C8.65829 13.608 8.65829 11.392 10.0251 10.0251Z" fill="black"/>
<path d="M11 5C11 6.65685 9.65685 8 8 8C6.34315 8 5 6.65685 5 5C5 3.34315 6.34315 2 8 2C9.65685 2 11 3.34315 11 5ZM8 7C9.10457 7 10 6.10457 10 5C10 3.89543 9.10457 3 8 3C6.89543 3 6 3.89543 6 5C6 6.10457 6.89543 7 8 7Z" fill="black"/>
<path d="M8.25606 14C8.14314 13.6805 8.06527 13.3445 8.02708 12.9965H3C3.00142 12.7497 3.15375 12.0104 3.8321 11.3321C4.48435 10.6798 5.71088 10 7.99999 10C8.26049 10 8.50723 10.0088 8.74092 10.0254C8.96608 9.68403 9.23648 9.37517 9.54358 9.10733C9.07708 9.03817 8.56399 9 8 9C3 9 2 12 2 13C2 14 3 14 3 14H8.25606Z" fill="black"/>
</svg>
