<svg width="16" height="16" viewBox="0 0 16 16" fill="none" xmlns="http://www.w3.org/2000/svg">
<path d="M12.5 9C14.433 9 16 10.567 16 12.5C16 14.433 14.433 16 12.5 16C10.567 16 9 14.433 9 12.5C9 10.567 10.567 9 12.5 9ZM12.8536 14.8536L14.3536 13.3536C14.5488 13.1583 14.5488 12.8417 14.3536 12.6464C14.1583 12.4512 13.8417 12.4512 13.6464 12.6464L13 13.2929V10.5C13 10.2239 12.7761 10 12.5 10C12.2239 10 12 10.2239 12 10.5V13.2929L11.3536 12.6464C11.1583 12.4512 10.8417 12.4512 10.6464 12.6464C10.4512 12.8417 10.4512 13.1583 10.6464 13.3536L12.1464 14.8536C12.2402 14.9473 12.3674 15 12.5 15C12.6326 15 12.7598 14.9473 12.8536 14.8536Z" fill="black"/>
<path d="M11 5C11 6.65685 9.65685 8 8 8C6.34315 8 5 6.65685 5 5C5 3.34315 6.34315 2 8 2C9.65685 2 11 3.34315 11 5ZM8 7C9.10457 7 10 6.10457 10 5C10 3.89543 9.10457 3 8 3C6.89543 3 6 3.89543 6 5C6 6.10457 6.89543 7 8 7Z" fill="black"/>
<path d="M8.25606 14C8.14314 13.6805 8.06527 13.3445 8.02708 12.9965H3C3.00142 12.7497 3.15375 12.0104 3.8321 11.3321C4.48435 10.6798 5.71088 10 7.99999 10C8.26049 10 8.50723 10.0088 8.74092 10.0254C8.96608 9.68403 9.23648 9.37517 9.54358 9.10733C9.07708 9.03817 8.56399 9 8 9C3 9 2 12 2 13C2 14 3 14 3 14H8.25606Z" fill="black"/>
</svg>
