<svg width="16" height="16" viewBox="0 0 16 16" fill="none" xmlns="http://www.w3.org/2000/svg">
<path d="M12.5 16C14.433 16 16 14.433 16 12.5C16 10.567 14.433 9 12.5 9C10.567 9 9 10.567 9 12.5C9 14.433 10.567 16 12.5 16ZM14.1787 11.5072L12.8435 13.7327C12.5924 14.1511 12.0151 14.2222 11.67 13.8771L10.8964 13.1036C10.7012 12.9083 10.7012 12.5917 10.8964 12.3964C11.0917 12.2012 11.4083 12.2012 11.6036 12.3964L12.1507 12.9436L13.3213 10.9928C13.4633 10.756 13.7705 10.6792 14.0072 10.8213C14.244 10.9633 14.3208 11.2705 14.1787 11.5072Z" fill="black"/>
<path d="M11 5C11 6.65685 9.65685 8 8 8C6.34315 8 5 6.65685 5 5C5 3.34315 6.34315 2 8 2C9.65685 2 11 3.34315 11 5Z" fill="black"/>
<path d="M2 13C2 14 3 14 3 14H8.25606C8.09023 13.5308 8 13.026 8 12.5C8 11.1463 8.5977 9.93228 9.54358 9.10733C9.07708 9.03817 8.56399 9 8 9C3 9 2 12 2 13Z" fill="black"/>
</svg>
