<svg width="16" height="16" viewBox="0 0 16 16" fill="none" xmlns="http://www.w3.org/2000/svg">
<path d="M8 3C8.82843 3 9.5 2.32843 9.5 1.5C9.5 0.671573 8.82843 0 8 0C7.17157 0 6.5 0.671573 6.5 1.5C6.5 2.32843 7.17157 3 8 3Z" fill="black"/>
<path d="M6 6.75V15.25C6 15.6642 6.33579 16 6.75 16C7.16421 16 7.5 15.6642 7.5 15.25V10.5C7.5 10.2239 7.72386 10 8 10C8.27614 10 8.5 10.2239 8.5 10.5V15.25C8.5 15.6642 8.83579 16 9.25 16C9.66421 16 10 15.6642 10 15.25V6.75C10 6.61193 10.1119 6.5 10.25 6.5C10.3881 6.5 10.5 6.61193 10.5 6.75V9.25C10.5 9.66421 10.8358 10 11.25 10C11.6642 10 12 9.66421 12 9.25V6.5C12 4.84315 10.6569 3.5 9 3.5H7C5.34315 3.5 4 4.84315 4 6.5V9.25C4 9.66421 4.33579 10 4.75 10C5.16421 10 5.5 9.66421 5.5 9.25V6.75C5.5 6.61193 5.61193 6.5 5.75 6.5C5.88807 6.5 6 6.61193 6 6.75Z" fill="black"/>
</svg>
