<svg width="16" height="16" viewBox="0 0 16 16" fill="none" xmlns="http://www.w3.org/2000/svg">
<path d="M12 3C12.8284 3 13.5 2.32843 13.5 1.5C13.5 0.671573 12.8284 0 12 0C11.1716 0 10.5 0.671573 10.5 1.5C10.5 2.32843 11.1716 3 12 3Z" fill="black"/>
<path d="M11.3369 5.14609C11.8105 4.43568 11.5964 3.47378 10.8662 3.03124L8.36711 1.52324C7.84314 1.20707 7.17966 1.24091 6.69057 1.60873L4.36247 3.35958C3.97144 3.68544 3.94462 4.27673 4.30455 4.63665C4.60155 4.93366 5.06892 4.97458 5.41303 4.73371L7.36106 3.37009L8.28305 4.07932L6.24461 6.52544C6.08204 6.50862 5.91702 6.5 5.75 6.5C4.55465 6.5 3.46243 6.94154 2.62753 7.67043L3.69178 8.73467C4.25224 8.27552 4.96895 8 5.75 8C7.54493 8 9 9.45507 9 11.25C9 12.0311 8.72448 12.7478 8.26533 13.3082L9.32957 14.3725C10.0585 13.5376 10.5 12.4454 10.5 11.25C10.5 10.9506 10.4723 10.6577 10.4193 10.3737L11.4627 10.0818L11.2757 13.0735C11.2443 13.5756 11.643 14 12.1461 14C12.6108 14 12.9938 13.6356 13.0171 13.1715L13.2231 9.04994C13.2517 8.47876 12.7963 8 12.2244 8H9.43426L11.3369 5.14609Z" fill="black"/>
<path d="M3.02345 9.48056C2.69235 9.98971 2.5 10.5974 2.5 11.25C2.5 13.0449 3.95507 14.5 5.75 14.5C6.40261 14.5 7.01029 14.3076 7.51944 13.9765L8.59614 15.0532C7.80292 15.6478 6.81759 16 5.75 16C3.12665 16 1 13.8734 1 11.25C1 10.1824 1.3522 9.19708 1.94675 8.40386L3.02345 9.48056Z" fill="black"/>
</svg>
