<svg width="16" height="16" viewBox="0 0 16 16" fill="none" xmlns="http://www.w3.org/2000/svg">
<path d="M11 5C11 6.65685 9.65685 8 8 8C6.34315 8 5 6.65685 5 5C5 3.34315 6.34315 2 8 2C9.65685 2 11 3.34315 11 5ZM8 7C9.10457 7 10 6.10457 10 5C10 3.89543 9.10457 3 8 3C6.89543 3 6 3.89543 6 5C6 6.10457 6.89543 7 8 7Z" fill="black"/>
<path d="M8 12.9965L8 14H3C3 14 2 14 2 13C2 12 3 9 8 9C8.56399 9 9.07708 9.03817 9.54358 9.10733C9.23648 9.37517 8.96608 9.68403 8.74092 10.0254C8.50723 10.0088 8.26049 10 7.99999 10C5.71088 10 4.48435 10.6798 3.8321 11.3321C3.15375 12.0104 3.00142 12.7497 3 12.9965H8Z" fill="black"/>
<path d="M9 13C9 12.4477 9.44772 12 10 12V11C10 9.89543 10.8954 9 12 9C13.1046 9 14 9.89543 14 11V12C14.5523 12 15 12.4477 15 13V15C15 15.5523 14.5523 16 14 16H10C9.44772 16 9 15.5523 9 15V13ZM12 10C11.4477 10 11 10.4477 11 11V12H13V11C13 10.4477 12.5523 10 12 10Z" fill="black"/>
</svg>
