<svg width="16" height="16" viewBox="0 0 16 16" fill="none" xmlns="http://www.w3.org/2000/svg">
<path d="M8.00011 3C8.82854 3 9.50011 2.32843 9.50011 1.5C9.50011 0.671573 8.82854 0 8.00011 0C7.17168 0 6.50011 0.671573 6.50011 1.5C6.50011 2.32843 7.17168 3 8.00011 3Z" fill="black"/>
<path d="M7.50011 15.25V12H8.50011V15.25C8.50011 15.6642 8.8359 16 9.25011 16C9.66433 16 10.0001 15.6642 10.0001 15.25V12H11.0001L10.0001 7V6.78501C10.0001 6.6276 10.1277 6.5 10.2851 6.5C10.4124 6.5 10.5242 6.58436 10.5592 6.70671L11.3527 9.48397C11.4399 9.78942 11.7191 10 12.0368 10C12.5155 10 12.8576 9.5368 12.7168 9.07928L11.6517 5.61774C11.2644 4.35897 10.1014 3.5 8.78439 3.5H7.21584C5.89882 3.5 4.73581 4.35897 4.3485 5.61774L3.28341 9.07928C3.14264 9.5368 3.48474 10 3.96344 10C4.2811 10 4.56028 9.78942 4.64755 9.48397L5.44105 6.70671C5.47601 6.58436 5.58785 6.5 5.7151 6.5C5.87251 6.5 6.00011 6.6276 6.00011 6.78501V7L5.00011 12H6.00011V15.25C6.00011 15.6642 6.3359 16 6.75011 16C7.16433 16 7.50011 15.6642 7.50011 15.25Z" fill="black"/>
</svg>
