<svg width="16" height="16" viewBox="0 0 16 16" fill="none" xmlns="http://www.w3.org/2000/svg">
<path fill-rule="evenodd" clip-rule="evenodd" d="M11.5 1.24638C12.3322 0.391001 14.4127 1.88791 11.5 3.8125C8.58732 1.88791 10.6678 0.391001 11.5 1.24638ZM9 5C9 6.65685 7.65685 8 6 8C4.34315 8 3 6.65685 3 5C3 3.34315 4.34315 2 6 2C7.65685 2 9 3.34315 9 5ZM0 13C0 14 1 14 1 14H11C11 14 12 14 12 13C12 12 11 9 6 9C1 9 0 12 0 13ZM13.5 4.91063C14.887 3.485 18.3545 5.97984 13.5 9.1875C8.64554 5.97984 12.113 3.485 13.5 4.91063ZM15 2.16425C15.5548 1.594 16.9418 2.59194 15 3.875C13.0582 2.59194 14.4452 1.594 15 2.16425Z" fill="black"/>
</svg>
