<svg width="16" height="16" viewBox="0 0 16 16" fill="none" xmlns="http://www.w3.org/2000/svg">
<path d="M9.50012 1.5C9.50012 2.32843 8.82854 3 8.00012 3C7.17169 3 6.50012 2.32843 6.50012 1.5C6.50012 0.671573 7.17169 0 8.00012 0C8.82854 0 9.50012 0.671573 9.50012 1.5Z" fill="black"/>
<path d="M6.43956 3.75173C6.58189 3.59161 6.78589 3.5 7.00012 3.5H8.44472C9.18685 3.5 9.76554 4.14281 9.68785 4.88086L9.25818 8.96273C9.24401 9.09736 9.21427 9.22988 9.16955 9.35765L8.85243 10.2637L9.06455 10.5061C9.11055 10.5587 9.14898 10.6174 9.17873 10.6807L11.1787 14.9307C11.3551 15.3054 11.1943 15.7522 10.8195 15.9286C10.4447 16.105 9.99787 15.9441 9.8215 15.5693L7.86634 11.4146L6.18568 9.49388C6.05709 9.34692 5.99089 9.15559 6.00115 8.96058L6.13866 6.34804L5.70436 6.83663L5.23991 9.6233C5.17182 10.0319 4.7854 10.3079 4.37682 10.2398C3.96824 10.1717 3.69223 9.78528 3.76032 9.3767L4.26032 6.3767C4.28355 6.23732 4.34568 6.10734 4.43956 6.00173L6.43956 3.75173Z" fill="black"/>
<path d="M6.25016 11.7449V10.3268L7.4538 11.7024L7.71541 12.2256C7.68918 12.3087 7.64849 12.3872 7.59463 12.4572L5.09463 15.7072C4.84208 16.0355 4.37119 16.097 4.04288 15.8444C3.71456 15.5919 3.65314 15.121 3.90569 14.7927L6.25016 11.7449Z" fill="black"/>
<path d="M10.4698 7.53028L9.97598 7.03643L10.1808 5.1932C10.1833 5.17077 10.1853 5.1484 10.187 5.1261L11.3108 6.24995H12.7502C13.1644 6.24995 13.5002 6.58574 13.5002 6.99995C13.5002 7.41416 13.1644 7.74995 12.7502 7.74995H11.0002C10.8012 7.74995 10.6105 7.67093 10.4698 7.53028Z" fill="black"/>
</svg>
