<svg width="16" height="16" viewBox="0 0 16 16" fill="none" xmlns="http://www.w3.org/2000/svg">
<path d="M7.99992 3C8.82835 3 9.49992 2.32843 9.49992 1.5C9.49992 0.671573 8.82835 0 7.99992 0C7.1715 0 6.49992 0.671573 6.49992 1.5C6.49992 2.32843 7.1715 3 7.99992 3Z" fill="black"/>
<path d="M5.92957 6.70351L5.08441 15.1551C5.03918 15.6075 5.39439 16 5.84899 16C6.22462 16 6.54519 15.7284 6.60694 15.3579L7.41773 10.4932C7.46516 10.2086 7.7114 10 7.99992 10C8.28845 10 8.53469 10.2086 8.58212 10.4932L9.39291 15.3579C9.45466 15.7284 9.77523 16 10.1509 16C10.6055 16 10.9607 15.6075 10.9154 15.1551L10.0703 6.70351C10.0258 6.25821 10.1835 5.81643 10.4999 5.5L13.0009 2.28446C13.4075 1.7617 13.035 1 12.3727 1C12.1365 1 11.9125 1.10491 11.7613 1.28636L9.63384 3.8393C9.54552 3.94529 9.43625 4.03208 9.30484 4.07409C9.07427 4.1478 8.6393 4.25 7.99992 4.25C7.36055 4.25 6.92558 4.1478 6.695 4.07409C6.5636 4.03208 6.45433 3.94529 6.36601 3.8393L4.23856 1.28636C4.08735 1.10491 3.86336 1 3.62717 1C2.96489 1 2.59236 1.7617 2.99895 2.28446L5.49992 5.5C5.81639 5.81643 5.9741 6.25821 5.92957 6.70351Z" fill="black"/>
</svg>
