<svg width="16" height="16" viewBox="0 0 16 16" fill="none" xmlns="http://www.w3.org/2000/svg">
<path d="M12.5 16C14.433 16 16 14.433 16 12.5C16 10.567 14.433 9 12.5 9C10.567 9 9 10.567 9 12.5C9 14.433 10.567 16 12.5 16ZM11 12H14C14.2761 12 14.5 12.2239 14.5 12.5C14.5 12.7761 14.2761 13 14 13H11C10.7239 13 10.5 12.7761 10.5 12.5C10.5 12.2239 10.7239 12 11 12Z" fill="black"/>
<path d="M11 5C11 6.65685 9.65685 8 8 8C6.34315 8 5 6.65685 5 5C5 3.34315 6.34315 2 8 2C9.65685 2 11 3.34315 11 5Z" fill="black"/>
<path d="M2 13C2 14 3 14 3 14H8.25606C8.09023 13.5308 8 13.026 8 12.5C8 11.1463 8.5977 9.93228 9.54358 9.10733C9.07708 9.03817 8.56399 9 8 9C3 9 2 12 2 13Z" fill="black"/>
</svg>
