<svg width="16" height="16" viewBox="0 0 16 16" fill="none" xmlns="http://www.w3.org/2000/svg">
<path d="M14 9.5C14 10.6046 13.1046 11.5 12 11.5C10.8954 11.5 9.99999 10.6046 9.99999 9.5C9.99999 8.39543 10.8954 7.5 12 7.5C13.1046 7.5 14 8.39543 14 9.5ZM7.99998 15.2C7.99998 16 8.79998 16 8.79998 16H15.2C15.2 16 16 16 16 15.2C16 14.4 15.2 12 12 12C8.79998 12 7.99998 14.4 7.99998 15.2Z" fill="black"/>
<path d="M2 2C0.895431 2 0 2.89543 0 4V12C0 13.1046 0.895431 14 2 14H7.24291C7.36519 13.6736 7.53763 13.3315 7.76908 13H2C1.44772 13 1 12.5523 1 12V4C1 3.44772 1.44772 3 2 3H14C14.5523 3 15 3.44772 15 4V11.8106C15.3534 12.0398 15.6558 12.3059 15.9105 12.5933C15.9687 12.4058 16 12.2066 16 12V4C16 2.89543 15.1046 2 14 2H2Z" fill="black"/>
</svg>
