<svg width="16" height="16" viewBox="0 0 16 16" fill="none" xmlns="http://www.w3.org/2000/svg">
<path d="M13.8789 10.414C12.9082 9.77094 11.5875 9.877 10.7322 10.7322C9.877 11.5875 9.77094 12.9082 10.414 13.8789L13.8789 10.414ZM14.586 11.1211L11.1211 14.586C12.0918 15.2291 13.4125 15.123 14.2678 14.2678C15.123 13.4125 15.2291 12.0918 14.586 11.1211ZM10.0251 10.0251C11.392 8.65829 13.608 8.65829 14.9749 10.0251C16.3417 11.392 16.3417 13.608 14.9749 14.9749C13.608 16.3417 11.392 16.3417 10.0251 14.9749C8.65829 13.608 8.65829 11.392 10.0251 10.0251Z" fill="black"/>
<path d="M11 5C11 6.65685 9.65685 8 8 8C6.34315 8 5 6.65685 5 5C5 3.34315 6.34315 2 8 2C9.65685 2 11 3.34315 11 5Z" fill="black"/>
<path d="M2 13C2 14 3 14 3 14H8.25606C8.09023 13.5308 8 13.026 8 12.5C8 11.1463 8.5977 9.93228 9.54358 9.10733C9.07708 9.03817 8.56399 9 8 9C3 9 2 12 2 13Z" fill="black"/>
</svg>
