<svg width="16" height="16" viewBox="0 0 16 16" fill="none" xmlns="http://www.w3.org/2000/svg">
<path d="M0 4C0 2.89543 0.895431 2 2 2H14C15.1046 2 16 2.89543 16 4V12C16 13.1046 15.1046 14 14 14H2C0.895431 14 0 13.1046 0 12V4ZM9 5.5C9 5.77614 9.22386 6 9.5 6H13.5C13.7761 6 14 5.77614 14 5.5C14 5.22386 13.7761 5 13.5 5H9.5C9.22386 5 9 5.22386 9 5.5ZM9 8C9 8.27614 9.22386 8.5 9.5 8.5H13.5C13.7761 8.5 14 8.27614 14 8C14 7.72386 13.7761 7.5 13.5 7.5H9.5C9.22386 7.5 9 7.72386 9 8ZM10 10.5C10 10.7761 10.2239 11 10.5 11H13.5C13.7761 11 14 10.7761 14 10.5C14 10.2239 13.7761 10 13.5 10H10.5C10.2239 10 10 10.2239 10 10.5ZM8.99998 12.5C8.99998 10.567 7.20912 9 4.99999 9C2.91367 9 1.20042 10.3976 1.01636 12.1812C1.1016 12.647 1.50957 13 1.99999 13H8.95948C8.98617 12.8367 8.99998 12.6698 8.99998 12.5ZM6.99999 6C6.99999 4.89543 6.10456 4 4.99999 4C3.89542 4 2.99999 4.89543 2.99999 6C2.99999 7.10457 3.89542 8 4.99999 8C6.10456 8 6.99999 7.10457 6.99999 6Z" fill="black"/>
</svg>
