<svg width="16" height="16" viewBox="0 0 16 16" fill="none" xmlns="http://www.w3.org/2000/svg">
<path d="M4 4C4 2.89543 4.89543 2 6 2H10C11.1046 2 12 2.89543 12 4V12C12 13.1046 11.1046 14 10 14H6C4.89543 14 4 13.1046 4 12V4ZM9 11C9 10.4477 8.55229 10 8 10C7.44772 10 7 10.4477 7 11C7 11.5523 7.44772 12 8 12C8.55229 12 9 11.5523 9 11Z" fill="black"/>
<path d="M1.80709 4.73366C1.93614 4.48953 1.84284 4.18701 1.59871 4.05796C1.35458 3.92891 1.05205 4.0222 0.923005 4.26634C0.333548 5.38146 0 6.65251 0 8C0 9.34748 0.333548 10.6185 0.923005 11.7337C1.05205 11.9778 1.35458 12.0711 1.59871 11.942C1.84284 11.813 1.93614 11.5105 1.80709 11.2663C1.29191 10.2917 1 9.1807 1 8C1 6.8193 1.29191 5.70826 1.80709 4.73366Z" fill="black"/>
<path d="M15.077 4.26634C14.9479 4.0222 14.6454 3.92891 14.4013 4.05796C14.1572 4.18701 14.0639 4.48953 14.1929 4.73366C14.7081 5.70826 15 6.8193 15 8C15 9.1807 14.7081 10.2917 14.1929 11.2663C14.0639 11.5105 14.1572 11.813 14.4013 11.942C14.6454 12.0711 14.9479 11.9778 15.077 11.7337C15.6665 10.6185 16 9.34749 16 8C16 6.65252 15.6665 5.38146 15.077 4.26634Z" fill="black"/>
<path d="M3.34068 6.18189C3.44114 5.92466 3.31405 5.63471 3.05683 5.53426C2.7996 5.4338 2.50965 5.56089 2.4092 5.81811C2.14485 6.49501 2 7.23119 2 8C2 8.76881 2.14485 9.50499 2.4092 10.1819C2.50965 10.4391 2.7996 10.5662 3.05683 10.4657C3.31405 10.3653 3.44114 10.0753 3.34068 9.81811C3.12088 9.25528 3 8.64235 3 8C3 7.35765 3.12088 6.74472 3.34068 6.18189Z" fill="black"/>
<path d="M13.5908 5.81811C13.4903 5.56089 13.2004 5.4338 12.9432 5.53426C12.6859 5.63471 12.5589 5.92466 12.6593 6.18189C12.8791 6.74472 13 7.35765 13 8C13 8.64235 12.8791 9.25528 12.6593 9.81811C12.5589 10.0753 12.6859 10.3653 12.9432 10.4657C13.2004 10.5662 13.4903 10.4391 13.5908 10.1819C13.8552 9.50499 14 8.76881 14 8C14 7.23119 13.8552 6.49501 13.5908 5.81811Z" fill="black"/>
</svg>
