<svg width="16" height="16" viewBox="0 0 16 16" fill="none" xmlns="http://www.w3.org/2000/svg">
<path d="M1 4.5C1 3.94772 1.44772 3.5 2 3.5H14C14.5523 3.5 15 3.94771 15 4.5V10.5C15 11.0523 14.5523 11.5 14 11.5H2C1.44772 11.5 1 11.0523 1 10.5V4.5ZM0 10.5C0 11.6046 0.89543 12.5 2 12.5H14C15.1046 12.5 16 11.6046 16 10.5V4.5C16 3.39543 15.1046 2.5 14 2.5H2C0.895431 2.5 0 3.39543 0 4.5V10.5Z" fill="black"/>
<path d="M14 7.5C14 6.94772 13.5523 6.5 13 6.5C12.4477 6.5 12 6.94772 12 7.5C12 8.05228 12.4477 8.5 13 8.5C13.5523 8.5 14 8.05228 14 7.5Z" fill="black"/>
</svg>
