<svg width="16" height="16" viewBox="0 0 16 16" fill="none" xmlns="http://www.w3.org/2000/svg">
<path fill-rule="evenodd" clip-rule="evenodd" d="M11 1H5C4.44772 1 4 1.44772 4 2V8C4 8.27614 3.77614 8.5 3.5 8.5C3.22386 8.5 3 8.27614 3 8V2C3 0.89543 3.89543 0 5 0H11C12.1046 0 13 0.895431 13 2V8C13 8.27614 12.7761 8.5 12.5 8.5C12.2239 8.5 12 8.27614 12 8V2C12 1.44772 11.5523 1 11 1ZM12 14C12 14.5523 11.5523 15 11 15H5C4.44772 15 4 14.5523 4 14V12C4 11.7239 3.77614 11.5 3.5 11.5C3.22386 11.5 3 11.7239 3 12V14C3 15.1046 3.89543 16 5 16H11C12.1046 16 13 15.1046 13 14V12C13 11.7239 12.7761 11.5 12.5 11.5C12.2239 11.5 12 11.7239 12 12V14ZM1.71269 7.95407C1.96347 7.83847 2.07305 7.54146 1.95744 7.29068C1.84184 7.0399 1.54482 6.93032 1.29404 7.04593C0.947197 7.20582 0.639977 7.39354 0.412375 7.61664C0.183646 7.84085 0 8.13801 0 8.5C0 9.04633 0.407633 9.43974 0.822726 9.70145C1.26283 9.97892 1.86646 10.2103 2.56787 10.3973C3.97801 10.7734 5.89836 11 8 11C8.09856 11 8.1967 10.9995 8.29438 10.9985L7.14645 12.1464C6.95118 12.3417 6.95118 12.6583 7.14645 12.8536C7.34171 13.0488 7.65829 13.0488 7.85355 12.8536L9.85355 10.8536C10.0488 10.6583 10.0488 10.3417 9.85355 10.1464L7.85355 8.14645C7.65829 7.95118 7.34171 7.95118 7.14645 8.14645C6.95118 8.34171 6.95118 8.65829 7.14645 8.85355L8.29139 9.99849C8.19473 9.99949 8.09759 10 8 10C5.95951 10 4.12986 9.77892 2.82553 9.4311C2.16971 9.25621 1.67499 9.05662 1.35605 8.85553C1.0121 8.63869 1 8.50595 1 8.5L1 8.49994C0.999991 8.49685 0.999829 8.44111 1.11239 8.33077C1.22693 8.21849 1.4214 8.08836 1.71269 7.95407ZM14.706 7.04593C14.4552 6.93032 14.1582 7.0399 14.0426 7.29068C13.927 7.54146 14.0365 7.83847 14.2873 7.95407C14.5786 8.08836 14.7731 8.21849 14.8876 8.33077C15.0002 8.44111 15 8.49685 15 8.49994V8.5V8.50004C15 8.50284 15.0001 8.5652 14.8693 8.6867C14.7378 8.80877 14.5176 8.94742 14.1933 9.08794C13.548 9.36755 12.597 9.60974 11.4302 9.77422C11.1568 9.81276 10.9664 10.0657 11.0049 10.3391C11.0434 10.6126 11.2964 10.803 11.5698 10.7644C12.7819 10.5936 13.8309 10.3348 14.5909 10.0055C14.9693 9.84153 15.3029 9.64869 15.5498 9.41946C15.7965 9.19035 16 8.8816 16 8.5C16 8.13801 15.8164 7.84085 15.5876 7.61664C15.36 7.39354 15.0528 7.20582 14.706 7.04593ZM7.5 2C7.22386 2 7 2.22386 7 2.5C7 2.77614 7.22386 3 7.5 3H8.5C8.77614 3 9 2.77614 9 2.5C9 2.22386 8.77614 2 8.5 2H7.5Z" fill="black"/>
</svg>
