<svg width="16" height="16" viewBox="0 0 16 16" fill="none" xmlns="http://www.w3.org/2000/svg">
<path d="M7.9643 1.52734C4.98668 1.52734 2.39271 3.23104 1.64353 5.65234H1.09451C0.473712 5.65234 0.00292572 6.21207 0.109293 6.82368L0.363323 8.28436C0.488276 9.00284 1.11187 9.52734 1.84114 9.52734H2.10387C2.40323 10.0403 2.79178 10.5053 3.24942 10.9092L2.52039 13.3862C2.47589 13.5374 2.50527 13.7007 2.59968 13.8269C2.69408 13.953 2.84245 14.0273 3.00004 14.0273H5.00004C5.21145 14.0273 5.40001 13.8944 5.47101 13.6953L5.95286 12.3437C6.58751 12.5173 7.26366 12.6107 7.9643 12.6107C8.67078 12.6107 9.35235 12.5157 9.99159 12.3394L10.5352 13.7115C10.6107 13.9021 10.795 14.0273 11 14.0273H13C13.1584 14.0273 13.3074 13.9523 13.4017 13.8251C13.496 13.6979 13.5245 13.5335 13.4784 13.3819L12.7167 10.8757C13.8099 9.89461 14.5 8.55873 14.5 7.06901C14.5 6.92359 14.4935 6.77976 14.4809 6.63767C14.7414 6.52776 14.9878 6.37196 15.185 6.19376C15.5 6.5 16 6.5 16 5.77739C16 6 15.5 6 15.5388 5.75071C15.5804 5.66935 15.6117 5.58403 15.6284 5.49586C15.6718 5.267 15.6126 5.03653 15.4267 4.85061C15.21 4.63386 14.9287 4.63943 14.7201 4.75324C14.5236 4.86041 14.3693 5.07111 14.3449 5.31503C14.3207 5.55771 14.4273 5.79535 14.6651 5.96871C14.5841 6.02492 14.4968 6.07662 14.4064 6.1218C13.8723 3.45792 11.1223 1.52734 7.9643 1.52734ZM15.1371 5.40269C15.1259 5.462 15.0944 5.53377 15.0388 5.6132C15.023 5.60495 15.0083 5.59659 14.9947 5.58819C14.8494 5.49838 14.8376 5.41297 14.8425 5.36478C14.8493 5.29619 14.8982 5.22564 14.9595 5.19218C15.0087 5.16536 15.0399 5.17093 15.0732 5.20417C15.1373 5.26826 15.151 5.32947 15.1371 5.40269ZM6.13809 4.75355C5.87269 4.82982 5.59571 4.67649 5.51945 4.41109C5.44319 4.14568 5.59652 3.86871 5.86192 3.79245C6.52273 3.60257 7.23002 3.5 7.96425 3.5C8.72698 3.5 9.46065 3.61068 10.1433 3.81496C10.4079 3.89411 10.5582 4.17275 10.479 4.4373C10.3999 4.70186 10.1212 4.85215 9.85668 4.77299C9.26734 4.59665 8.63026 4.5 7.96425 4.5C7.32314 4.5 6.70882 4.58956 6.13809 4.75355ZM5 6.25C5 6.66421 4.66421 7 4.25 7C3.83579 7 3.5 6.66421 3.5 6.25C3.5 5.83579 3.83579 5.5 4.25 5.5C4.66421 5.5 5 5.83579 5 6.25Z" fill="black"/>
</svg>
