<svg width="16" height="16" viewBox="0 0 16 16" fill="none" xmlns="http://www.w3.org/2000/svg">
<path d="M9.82836 0.721802C9.96097 0.721802 10.0881 0.77448 10.1819 0.868248L15.1317 5.818C15.3269 6.01326 15.3269 6.32984 15.1317 6.5251C14.6513 7.0055 14.0597 7.11349 13.6291 7.11349C13.4517 7.11349 13.2936 7.09548 13.1683 7.07423L10.0348 10.2078C10.0417 10.2357 10.0488 10.2652 10.0559 10.2962C10.1098 10.5298 10.1703 10.8554 10.1947 11.2206C10.2415 11.9231 10.163 12.908 9.47481 13.5962C9.27955 13.7914 8.96296 13.7914 8.7677 13.5962L5.93928 10.7677L2.7573 13.9497C2.56203 14.145 1.53835 14.8521 1.34308 14.6568C1.14782 14.4616 1.85493 13.4379 2.05019 13.2426L5.23217 10.0606L2.40374 7.23221C2.20848 7.03695 2.20848 6.72036 2.40374 6.5251C3.09191 5.83693 4.07677 5.7584 4.77929 5.80524C5.14448 5.82959 5.47016 5.8901 5.70368 5.94399C5.73473 5.95116 5.76426 5.95823 5.79215 5.96512L8.92568 2.83159C8.90444 2.70635 8.88642 2.54824 8.88642 2.37085C8.88642 1.94022 8.99442 1.34864 9.47481 0.868248C9.56858 0.77448 9.69575 0.721802 9.82836 0.721802Z" fill="black"/>
</svg>
