<svg width="16" height="16" viewBox="0 0 16 16" fill="none" xmlns="http://www.w3.org/2000/svg">
<path d="M4.14645 0.146447C4.24021 0.0526784 4.36739 0 4.5 0H11.5C11.7761 0 12 0.223858 12 0.5C12 1.17938 11.6581 1.67405 11.3536 1.97855C11.2281 2.10398 11.1036 2.20305 11 2.27658V6.70807C11.0246 6.72292 11.0505 6.7388 11.0775 6.75569C11.2807 6.88271 11.5538 7.0702 11.8293 7.31121C12.3591 7.77485 13 8.52678 13 9.5C13 9.77614 12.7761 10 12.5 10H8.5V14.5C8.5 14.7761 8.27614 16 8 16C7.72386 16 7.5 14.7761 7.5 14.5V10H3.5C3.22386 10 3 9.77614 3 9.5C3 8.52678 3.64087 7.77485 4.17075 7.31121C4.44619 7.0702 4.71927 6.88271 4.9225 6.75569C4.94953 6.7388 4.97541 6.72292 5 6.70807V2.27658C4.89642 2.20305 4.77188 2.10398 4.64645 1.97855C4.34195 1.67405 4 1.17938 4 0.5C4 0.367392 4.05268 0.240215 4.14645 0.146447Z" fill="black"/>
</svg>
