<svg width="16" height="16" viewBox="0 0 16 16" fill="none" xmlns="http://www.w3.org/2000/svg">
<path d="M7.99997 0.00012207C3.58173 0.00012207 0 3.58185 0 8.00009C0 11.3893 2.10865 14.2866 5.08457 15.4522C5.01467 14.8193 4.95145 13.8458 5.11231 13.1548C5.2577 12.5305 6.05041 9.17833 6.05041 9.17833C6.05041 9.17833 5.81111 8.69908 5.81111 7.99058C5.81111 6.87818 6.45587 6.04771 7.25868 6.04771C7.94121 6.04771 8.27087 6.56013 8.27087 7.1746C8.27087 7.861 7.83386 8.88723 7.60834 9.83824C7.41987 10.6345 8.00764 11.2838 8.793 11.2838C10.2149 11.2838 11.3078 9.78459 11.3078 7.62046C11.3078 5.705 9.9315 4.36577 7.96619 4.36577C5.68992 4.36577 4.35384 6.07309 4.35384 7.83752C4.35384 8.52511 4.61871 9.2624 4.94922 9.66321C5.0146 9.74243 5.02418 9.81181 5.0047 9.89267C4.94398 10.1453 4.80902 10.6887 4.78252 10.7999C4.74764 10.9464 4.66658 10.9775 4.51497 10.9069C3.51582 10.4418 2.89113 8.981 2.89113 7.80768C2.89113 5.28412 4.72468 2.96653 8.17703 2.96653C10.9522 2.96653 13.1089 4.9441 13.1089 7.58695C13.1089 10.344 11.3705 12.5629 8.9576 12.5629C8.14693 12.5629 7.38485 12.1418 7.12398 11.6443C7.12398 11.6443 6.72284 13.1718 6.62559 13.5461C6.44499 14.2409 5.95742 15.1119 5.6313 15.6433C6.3798 15.8751 7.17526 16.0001 7.99997 16.0001C12.4183 16.0001 16 12.4183 16 8.00009C16 3.58185 12.4183 0.00012207 7.99997 0.00012207Z" fill="black"/>
</svg>
