<svg width="16" height="16" viewBox="0 0 16 16" fill="none" xmlns="http://www.w3.org/2000/svg">
<path d="M0 3.5C0 2.67157 0.671573 2 1.5 2H14.5C15.3284 2 16 2.67157 16 3.5V12.5C16 13.3284 15.3284 14 14.5 14H1.5C0.671572 14 0 13.3284 0 12.5V3.5ZM1.5 3C1.22386 3 1 3.22386 1 3.5V12.5C1 12.7761 1.22386 13 1.5 13H14.5C14.7761 13 15 12.7761 15 12.5V3.5C15 3.22386 14.7761 3 14.5 3H1.5Z" fill="black"/>
<path d="M8 8.5C8 8.22386 8.22386 8 8.5 8H13.5C13.7761 8 14 8.22386 14 8.5V11.5C14 11.7761 13.7761 12 13.5 12H8.5C8.22386 12 8 11.7761 8 11.5V8.5Z" fill="black"/>
</svg>
