<svg width="16" height="16" viewBox="0 0 16 16" fill="none" xmlns="http://www.w3.org/2000/svg">
<path d="M15.8577 11.4515C15.5452 11.8458 14.7794 12.1271 14.7794 12.1271L9.08319 14.1731V12.6642L13.2752 11.1705C13.751 11.0001 13.824 10.7592 13.4373 10.6327C13.0514 10.5059 12.3525 10.5422 11.8764 10.7134L9.08319 11.6971V10.1312L9.24419 10.0767C9.24419 10.0767 10.0513 9.791 11.1863 9.66526C12.3213 9.54024 13.711 9.68234 14.802 10.0959C16.0314 10.4844 16.1699 11.0572 15.8577 11.4515ZM9.62541 8.88209V5.02329C9.62541 4.57011 9.54183 4.1529 9.11663 4.03479C8.791 3.93049 8.58894 4.23285 8.58894 4.68568V14.349L5.98285 13.5219V2C7.09092 2.2057 8.70523 2.69195 9.57308 2.98451C11.7801 3.74224 12.5284 4.68531 12.5284 6.81023C12.5284 8.88136 11.2499 9.66635 9.62541 8.88209ZM1.20097 12.5065C-0.0611885 12.1511 -0.271245 11.4104 0.304049 10.9837C0.835733 10.5898 1.73992 10.2933 1.73992 10.2933L5.47661 8.96459V10.4793L2.78766 11.4417C2.31267 11.6121 2.23963 11.8534 2.62558 11.9799C3.01189 12.1064 3.71111 12.0704 4.18683 11.8996L5.47661 11.4315V12.7867C5.39484 12.8012 5.30362 12.8157 5.21931 12.8299C3.92917 13.0407 2.55507 12.9528 1.20097 12.5065Z" fill="black"/>
</svg>
