<svg width="16" height="16" viewBox="0 0 16 16" fill="none" xmlns="http://www.w3.org/2000/svg">
<path d="M6 0C6.27614 0 6.5 0.223858 6.5 0.5V3H9.5V0.5C9.5 0.223858 9.72386 0 10 0C10.2761 0 10.5 0.223858 10.5 0.5V3H11.5C11.7761 3 12 3.22386 12 3.5V6.5C12 8.433 10.433 10 8.5 10C8.49786 10.4339 8.48911 10.8445 8.45937 11.2192C8.41854 11.7337 8.33427 12.2229 8.14268 12.6444C7.9443 13.0808 7.63459 13.4358 7.17287 13.6718C6.72511 13.9006 6.16899 14 5.5 14C4.50245 14 3.89032 14.3301 3.52561 14.7176C3.14978 15.117 3 15.6161 3 16H2C2 15.3839 2.23218 14.633 2.79734 14.0324C3.37362 13.4199 4.26148 13 5.5 13C6.08101 13 6.46239 12.9119 6.71776 12.7813C6.95916 12.658 7.1182 12.4817 7.23232 12.2306C7.35323 11.9646 7.42521 11.61 7.4625 11.1401C7.48946 10.8004 7.49704 10.4226 7.49917 10C5.56655 9.99955 4 8.43272 4 6.5V3.5C4 3.22386 4.22386 3 4.5 3H5.5V0.5C5.5 0.223858 5.72386 0 6 0Z" fill="black"/>
</svg>
