<svg width="16" height="16" viewBox="0 0 16 16" fill="none" xmlns="http://www.w3.org/2000/svg">
<path fill-rule="evenodd" clip-rule="evenodd" d="M1 8C1 4.13401 4.13401 1 8 1C11.866 1 15 4.13401 15 8C15 11.866 11.866 15 8 15C6.46709 15 5.0506 14.5078 3.89797 13.6728C3.73067 13.5516 3.68245 13.2673 3.89632 13.0534L5.69664 11.2531C7.06755 12.2809 9.02097 12.1714 10.2678 10.9246L11.682 9.51041C11.7757 9.41664 11.8284 9.28946 11.8284 9.15685C11.8284 9.02425 11.7757 8.89707 11.682 8.8033L10.9745 8.09583L12.5339 6.53319C12.729 6.33772 12.7287 6.02114 12.5332 5.82608C12.3377 5.63102 12.0211 5.63135 11.8261 5.82681L10.2674 7.38872L8.85343 5.97475L10.4137 4.41343C10.6089 4.2181 10.6088 3.90152 10.4134 3.70632C10.2181 3.51113 9.90152 3.51124 9.70633 3.70657L8.14632 5.26764L7.43934 4.56066C7.24408 4.3654 6.9275 4.3654 6.73223 4.56066L5.31802 5.97487C4.07122 7.22167 3.96173 9.17509 4.98953 10.546L3.18921 12.3463C2.60945 12.9261 2.56967 13.9454 3.31129 14.4826C4.62884 15.4371 6.24943 16 8 16C12.4183 16 16 12.4183 16 8C16 3.58172 12.4183 0 8 0C3.58172 0 0 3.58172 0 8C0 8.27614 0.223858 8.5 0.5 8.5C0.776142 8.5 1 8.27614 1 8Z" fill="black"/>
</svg>
