<svg width="16" height="16" viewBox="0 0 16 16" fill="none" xmlns="http://www.w3.org/2000/svg">
<path fill-rule="evenodd" clip-rule="evenodd" d="M2 2C0.895431 2 0 2.89543 0 4V12C0 13.1046 0.895431 14 2 14H14C15.1046 14 16 13.1046 16 12V4C16 2.89543 15.1046 2 14 2H2ZM1 4C1 3.44772 1.44772 3 2 3H14C14.5523 3 15 3.44772 15 4V12C15 12.5523 14.5523 13 14 13H2C1.44772 13 1 12.5523 1 12V4ZM8.5 4.5C8.5 4.22386 8.27614 4 8 4C7.72386 4 7.5 4.22386 7.5 4.5V11.5C7.5 11.7761 7.72386 12 8 12C8.27614 12 8.5 11.7761 8.5 11.5V4.5ZM2 5.5C2 5.22386 2.22386 5 2.5 5H6C6.27614 5 6.5 5.22386 6.5 5.5C6.5 5.77614 6.27614 6 6 6H2.5C2.22386 6 2 5.77614 2 5.5ZM2 7.5C2 7.22386 2.22386 7 2.5 7H6C6.27614 7 6.5 7.22386 6.5 7.5C6.5 7.77614 6.27614 8 6 8H2.5C2.22386 8 2 7.77614 2 7.5ZM2 9.5C2 9.22386 2.22386 9 2.5 9H6C6.27614 9 6.5 9.22386 6.5 9.5C6.5 9.77614 6.27614 10 6 10H2.5C2.22386 10 2 9.77614 2 9.5ZM10.5 5C10.2239 5 10 5.22386 10 5.5V8.5C10 8.77614 10.2239 9 10.5 9H13.5C13.7761 9 14 8.77614 14 8.5V5.5C14 5.22386 13.7761 5 13.5 5H10.5ZM13 8H11V6H13V8Z" fill="black"/>
</svg>
