<svg width="16" height="16" viewBox="0 0 16 16" fill="none" xmlns="http://www.w3.org/2000/svg">
<path d="M4.5 3C4.22386 3 4 3.22386 4 3.5V12.5C4 12.7761 4.22386 13 4.5 13H11.5C11.7761 13 12 12.7761 12 12.5V3.5C12 3.22386 11.7761 3 11.5 3H4.5ZM8 11C2.17465 7.23635 6.33561 4.30907 8 5.9818C9.66439 4.30907 13.8254 7.23635 8 11Z" fill="black"/>
<path d="M4.5 0C4.5 0.552285 4.05228 1 3.5 1C2.94772 1 2.5 0.552285 2.5 0H1V1C1.55228 1 2 1.44772 2 2C2 2.55228 1.55228 3 1 3V4C1.55228 4 2 4.44772 2 5C2 5.55228 1.55228 6 1 6V7C1.55228 7 2 7.44772 2 8C2 8.55229 1.55228 9 1 9V10C1.55228 10 2 10.4477 2 11C2 11.5523 1.55228 12 1 12V13C1.55228 13 2 13.4477 2 14C2 14.5523 1.55228 15 1 15V16H2.5C2.5 15.4477 2.94772 15 3.5 15C4.05228 15 4.5 15.4477 4.5 16H5.5C5.5 15.4477 5.94772 15 6.5 15C7.05228 15 7.5 15.4477 7.5 16H8.5C8.5 15.4477 8.94772 15 9.5 15C10.0523 15 10.5 15.4477 10.5 16H11.5C11.5 15.4477 11.9477 15 12.5 15C13.0523 15 13.5 15.4477 13.5 16H15V15C14.4477 15 14 14.5523 14 14C14 13.4477 14.4477 13 15 13V12C14.4477 12 14 11.5523 14 11C14 10.4477 14.4477 10 15 10V9C14.4477 9 14 8.55229 14 8C14 7.44772 14.4477 7 15 7V6C14.4477 6 14 5.55228 14 5C14 4.44772 14.4477 4 15 4V3C14.4477 3 14 2.55228 14 2C14 1.44772 14.4477 1 15 1V0H13.5C13.5 0.552285 13.0523 1 12.5 1C11.9477 1 11.5 0.552285 11.5 0H10.5C10.5 0.552285 10.0523 1 9.5 1C8.94772 1 8.5 0.552285 8.5 0H7.5C7.5 0.552285 7.05228 1 6.5 1C5.94772 1 5.5 0.552285 5.5 0H4.5ZM4 14C3.44772 14 3 13.5523 3 13V3C3 2.44772 3.44772 2 4 2H12C12.5523 2 13 2.44772 13 3V13C13 13.5523 12.5523 14 12 14H4Z" fill="black"/>
</svg>
