<svg width="16" height="16" viewBox="0 0 16 16" fill="none" xmlns="http://www.w3.org/2000/svg">
<path d="M8 4.5C8 4.22386 7.77614 4 7.5 4C7.22386 4 7 4.22386 7 4.5V11.5C7 11.7761 7.22386 12 7.5 12C7.77614 12 8 11.7761 8 11.5V4.5Z" fill="black"/>
<path d="M11.5 5.37805C12.9816 3.95741 16.295 6.76959 11.5 10C6.70499 6.76959 10.0184 3.95741 11.5 5.37805Z" fill="black"/>
<path d="M2.5 5C2.22386 5 2 5.22386 2 5.5C2 5.77614 2.22386 6 2.5 6H5.5C5.77614 6 6 5.77614 6 5.5C6 5.22386 5.77614 5 5.5 5H2.5Z" fill="black"/>
<path d="M2.5 7C2.22386 7 2 7.22386 2 7.5C2 7.77614 2.22386 8 2.5 8H5.5C5.77614 8 6 7.77614 6 7.5C6 7.22386 5.77614 7 5.5 7H2.5Z" fill="black"/>
<path d="M2.5 9C2.22386 9 2 9.22386 2 9.5C2 9.77614 2.22386 10 2.5 10H5.5C5.77614 10 6 9.77614 6 9.5C6 9.22386 5.77614 9 5.5 9H2.5Z" fill="black"/>
<path fill-rule="evenodd" clip-rule="evenodd" d="M0 4C0 2.89543 0.895431 2 2 2H14C15.1046 2 16 2.89543 16 4V12C16 13.1046 15.1046 14 14 14H2C0.895431 14 0 13.1046 0 12V4ZM2 3C1.44772 3 1 3.44772 1 4V12C1 12.5523 1.44772 13 2 13H14C14.5523 13 15 12.5523 15 12V4C15 3.44772 14.5523 3 14 3H2Z" fill="black"/>
</svg>
