<svg width="16" height="16" viewBox="0 0 16 16" fill="none" xmlns="http://www.w3.org/2000/svg">
<path d="M2 2C0.895431 2 0 2.89543 0 4V12C0 13.1046 0.895431 14 2 14H14C15.1046 14 16 13.1046 16 12V4C16 2.89543 15.1046 2 14 2H2ZM8 4.5V11.5C8 11.7761 7.77614 12 7.5 12C7.22386 12 7 11.7761 7 11.5V4.5C7 4.22386 7.22386 4 7.5 4C7.77614 4 8 4.22386 8 4.5ZM11.5 5.37805C12.9816 3.95741 16.295 6.76959 11.5 10C6.70499 6.76959 10.0184 3.95741 11.5 5.37805ZM2 5.5C2 5.22386 2.22386 5 2.5 5H5.5C5.77614 5 6 5.22386 6 5.5C6 5.77614 5.77614 6 5.5 6H2.5C2.22386 6 2 5.77614 2 5.5ZM2 7.5C2 7.22386 2.22386 7 2.5 7H5.5C5.77614 7 6 7.22386 6 7.5C6 7.77614 5.77614 8 5.5 8H2.5C2.22386 8 2 7.77614 2 7.5ZM2 9.5C2 9.22386 2.22386 9 2.5 9H5.5C5.77614 9 6 9.22386 6 9.5C6 9.77614 5.77614 10 5.5 10H2.5C2.22386 10 2 9.77614 2 9.5Z" fill="black"/>
</svg>
