<svg width="16" height="16" viewBox="0 0 16 16" fill="none" xmlns="http://www.w3.org/2000/svg">
<path d="M11 8H13V6H11V8Z" fill="black"/>
<path d="M0 4C0 2.89543 0.895431 2 2 2H14C15.1046 2 16 2.89543 16 4V12C16 13.1046 15.1046 14 14 14H2C0.895431 14 0 13.1046 0 12V4ZM8.5 4.5C8.5 4.22386 8.27614 4 8 4C7.72386 4 7.5 4.22386 7.5 4.5V11.5C7.5 11.7761 7.72386 12 8 12C8.27614 12 8.5 11.7761 8.5 11.5V4.5ZM2 5.5C2 5.77614 2.22386 6 2.5 6H6C6.27614 6 6.5 5.77614 6.5 5.5C6.5 5.22386 6.27614 5 6 5H2.5C2.22386 5 2 5.22386 2 5.5ZM2.5 7C2.22386 7 2 7.22386 2 7.5C2 7.77614 2.22386 8 2.5 8H6C6.27614 8 6.5 7.77614 6.5 7.5C6.5 7.22386 6.27614 7 6 7H2.5ZM2 9.5C2 9.77614 2.22386 10 2.5 10H6C6.27614 10 6.5 9.77614 6.5 9.5C6.5 9.22386 6.27614 9 6 9H2.5C2.22386 9 2 9.22386 2 9.5ZM10 5.5V8.5C10 8.77614 10.2239 9 10.5 9H13.5C13.7761 9 14 8.77614 14 8.5V5.5C14 5.22386 13.7761 5 13.5 5H10.5C10.2239 5 10 5.22386 10 5.5Z" fill="black"/>
</svg>
