<svg width="16" height="16" viewBox="0 0 16 16" fill="none" xmlns="http://www.w3.org/2000/svg">
<path d="M3.5 1C4.05228 1 4.5 0.552285 4.5 0H5.5C5.5 0.552285 5.94772 1 6.5 1C7.05228 1 7.5 0.552285 7.5 0H8.5C8.5 0.552285 8.94772 1 9.5 1C10.0523 1 10.5 0.552285 10.5 0H11.5C11.5 0.552285 11.9477 1 12.5 1C13.0523 1 13.5 0.552285 13.5 0H15V1C14.4477 1 14 1.44772 14 2C14 2.55228 14.4477 3 15 3V4C14.4477 4 14 4.44772 14 5C14 5.55228 14.4477 6 15 6V7C14.4477 7 14 7.44772 14 8C14 8.55229 14.4477 9 15 9V10C14.4477 10 14 10.4477 14 11C14 11.5523 14.4477 12 15 12V13C14.4477 13 14 13.4477 14 14C14 14.5523 14.4477 15 15 15V16H13.5C13.5 15.4477 13.0523 15 12.5 15C11.9477 15 11.5 15.4477 11.5 16H10.5C10.5 15.4477 10.0523 15 9.5 15C8.94772 15 8.5 15.4477 8.5 16H7.5C7.5 15.4477 7.05228 15 6.5 15C5.94772 15 5.5 15.4477 5.5 16H4.5C4.5 15.4477 4.05228 15 3.5 15C2.94772 15 2.5 15.4477 2.5 16H1V15C1.55228 15 2 14.5523 2 14C2 13.4477 1.55228 13 1 13V12C1.55228 12 2 11.5523 2 11C2 10.4477 1.55228 10 1 10V9C1.55228 9 2 8.55229 2 8C2 7.44772 1.55228 7 1 7V6C1.55228 6 2 5.55228 2 5C2 4.44772 1.55228 4 1 4V3C1.55228 3 2 2.55228 2 2C2 1.44772 1.55228 1 1 1V0H2.5C2.5 0.552285 2.94772 1 3.5 1ZM3 3V13C3 13.5523 3.44772 14 4 14H12C12.5523 14 13 13.5523 13 13V3C13 2.44772 12.5523 2 12 2H4C3.44772 2 3 2.44772 3 3Z" fill="black"/>
<path d="M8 11C2.17465 7.23635 6.33561 4.30907 8 5.9818C9.66439 4.30907 13.8254 7.23635 8 11Z" fill="black"/>
</svg>
