<svg width="16" height="16" viewBox="0 0 16 16" fill="none" xmlns="http://www.w3.org/2000/svg">
<path d="M7.5 1V8H8.5V1H7.5Z" fill="black"/>
<path d="M3 8.81244C3 6.93059 4.03942 5.29082 5.57785 4.43714L5.09264 3.56274C3.24937 4.58557 2 6.55276 2 8.81244C2 12.1262 4.68629 14.8124 8 14.8124C11.3137 14.8124 14 12.1262 14 8.81244C14 6.59097 12.7925 4.65212 11.0004 3.61544L10.4996 4.48105C11.9954 5.34633 13 6.96237 13 8.81244C13 11.5739 10.7614 13.8124 8 13.8124C5.23858 13.8124 3 11.5739 3 8.81244Z" fill="black"/>
</svg>
