<svg width="16" height="16" viewBox="0 0 16 16" fill="none" xmlns="http://www.w3.org/2000/svg">
<path d="M5.5 6C5.22386 6 5 6.22386 5 6.5V10.5C5 10.7761 5.22386 11 5.5 11C5.77614 11 6 10.7761 6 10.5V9H6.29289L8.29289 11L7.14645 12.1464C6.95118 12.3417 6.95118 12.6583 7.14645 12.8536C7.34171 13.0488 7.65829 13.0488 7.85355 12.8536L9 11.7071L10.1464 12.8536C10.3417 13.0488 10.6583 13.0488 10.8536 12.8536C11.0488 12.6583 11.0488 12.3417 10.8536 12.1464L9.70711 11L10.8536 9.85355C11.0488 9.65829 11.0488 9.34171 10.8536 9.14645C10.6583 8.95118 10.3417 8.95118 10.1464 9.14645L9 10.2929L7.6946 8.98749C8.43109 8.89209 9 8.26248 9 7.5C9 6.67157 8.32843 6 7.5 6H5.5ZM6 7H7.5C7.77614 7 8 7.22386 8 7.5C8 7.77614 7.77614 8 7.5 8H6V7Z" fill="black"/>
<path d="M2 1C2 0.447715 2.44772 0 3 0H13C13.5523 0 14 0.447715 14 1V3C14 3.55228 13.5523 4 13 4V14.5C13 15.3284 12.3284 16 11.5 16H4.5C3.67157 16 3 15.3284 3 14.5L3 4C2.44772 4 2 3.55228 2 3V1ZM4 4V14.5C4 14.7761 4.22386 15 4.5 15H11.5C11.7761 15 12 14.7761 12 14.5V4H4ZM3 3H13V1H3V3Z" fill="black"/>
</svg>
