<svg width="16" height="16" viewBox="0 0 16 16" fill="none" xmlns="http://www.w3.org/2000/svg">
<path d="M5 1C3.89543 1 3 1.89543 3 3V4H13V3C13 1.89543 12.1046 1 11 1H5Z" fill="black"/>
<path d="M11 9H5C4.44772 9 4 9.44772 4 10V13C4 13.5523 4.44772 14 5 14H11C11.5523 14 12 13.5523 12 13V10C12 9.44772 11.5523 9 11 9Z" fill="black"/>
<path d="M0 7C0 5.89543 0.895431 5 2 5H14C15.1046 5 16 5.89543 16 7V10C16 11.1046 15.1046 12 14 12H13V10C13 8.89543 12.1046 8 11 8H5C3.89543 8 3 8.89543 3 10V12H2C0.895431 12 0 11.1046 0 10V7ZM2.5 8C2.77614 8 3 7.77614 3 7.5C3 7.22386 2.77614 7 2.5 7C2.22386 7 2 7.22386 2 7.5C2 7.77614 2.22386 8 2.5 8Z" fill="black"/>
</svg>
