<svg width="16" height="16" viewBox="0 0 16 16" fill="none" xmlns="http://www.w3.org/2000/svg">
<path d="M14 7.5C14 8.32843 13.3284 9 12.5 9C11.6716 9 11 8.32843 11 7.5C11 6.67157 11.6716 6 12.5 6C13.3284 6 14 6.67157 14 7.5Z" fill="black"/>
<path d="M2.5 6C2.22386 6 2 6.22386 2 6.5C2 6.77614 2.22386 7 2.5 7H6.5C6.77614 7 7 6.77614 7 6.5C7 6.22386 6.77614 6 6.5 6H2.5Z" fill="black"/>
<path d="M2.5 8C2.22386 8 2 8.22386 2 8.5C2 8.77614 2.22386 9 2.5 9H6.5C6.77614 9 7 8.77614 7 8.5C7 8.22386 6.77614 8 6.5 8H2.5Z" fill="black"/>
<path d="M0 6C0 4.89543 0.895431 4 2 4H14C15.1046 4 16 4.89543 16 6V9C16 10.1046 15.1046 11 14 11C14 11.5523 13.5523 12 13 12H12C11.4477 12 11 11.5523 11 11H5C5 11.5523 4.55228 12 4 12H3C2.44772 12 2 11.5523 2 11C0.895431 11 0 10.1046 0 9V6ZM2 5C1.44772 5 1 5.44772 1 6V9C1 9.55228 1.44772 10 2 10H14C14.5523 10 15 9.55228 15 9V6C15 5.44772 14.5523 5 14 5H2Z" fill="black"/>
</svg>
