<svg width="16" height="16" viewBox="0 0 16 16" fill="none" xmlns="http://www.w3.org/2000/svg">
<path d="M2 4C0.895431 4 0 4.89543 0 6V9C0 10.1046 0.895431 11 2 11C2 11.5523 2.44772 12 3 12H4C4.55228 12 5 11.5523 5 11H11C11 11.5523 11.4477 12 12 12H13C13.5523 12 14 11.5523 14 11C15.1046 11 16 10.1046 16 9V6C16 4.89543 15.1046 4 14 4H2ZM2.5 6H6.5C6.77614 6 7 6.22386 7 6.5C7 6.77614 6.77614 7 6.5 7H2.5C2.22386 7 2 6.77614 2 6.5C2 6.22386 2.22386 6 2.5 6ZM14 7.5C14 8.32843 13.3284 9 12.5 9C11.6716 9 11 8.32843 11 7.5C11 6.67157 11.6716 6 12.5 6C13.3284 6 14 6.67157 14 7.5ZM2 8.5C2 8.22386 2.22386 8 2.5 8H6.5C6.77614 8 7 8.22386 7 8.5C7 8.77614 6.77614 9 6.5 9H2.5C2.22386 9 2 8.77614 2 8.5Z" fill="black"/>
</svg>
