<svg width="16" height="16" viewBox="0 0 16 16" fill="none" xmlns="http://www.w3.org/2000/svg">
<path d="M3.11205 3.64528C3.02622 2.76393 3.71889 2 4.605 2L7.00005 2.00002C7.27619 2.00002 7.50005 2.22388 7.50005 2.50002V2.88205C7.50005 3.57783 7.00277 4.06423 6.62827 4.35094C6.56335 4.40064 6.52933 4.44224 6.51319 4.46894C6.50547 4.48171 6.50237 4.49014 6.50115 4.49423C6.50003 4.49801 6.50005 4.49957 6.50005 4.50002C6.50005 4.50056 6.50008 4.50133 6.50037 4.50275C6.50067 4.50422 6.50144 4.50731 6.50343 4.51218C6.50747 4.52205 6.51713 4.54055 6.53896 4.56635C6.58456 4.62026 6.67015 4.69027 6.80944 4.75992C7.08831 4.89935 7.50856 5.00002 8.00005 5.00002C8.49154 5.00002 8.91179 4.89935 9.19066 4.75992C9.32995 4.69027 9.41554 4.62026 9.46114 4.56635C9.48297 4.54055 9.49263 4.52205 9.49667 4.51218C9.49866 4.50731 9.49943 4.50422 9.49973 4.50275C9.50002 4.50133 9.50005 4.50056 9.50005 4.50002C9.50005 4.49957 9.50007 4.49801 9.49894 4.49423C9.49773 4.49015 9.49463 4.48171 9.48691 4.46894C9.47077 4.44224 9.43675 4.40064 9.37183 4.35094C8.99732 4.06423 8.50005 3.57783 8.50005 2.88205V2.50002C8.50005 2.22388 8.72391 2.00002 9.00005 2.00002H11.395C12.2811 2.00002 12.9738 2.76394 12.888 3.64529L12.6445 6.49999H12.882C13.0768 6.49999 13.3023 6.35293 13.5569 6.02032C13.7668 5.7461 14.0852 5.49999 14.5 5.49999C15.0676 5.49999 15.4468 5.94709 15.6543 6.36217C15.8768 6.80716 16 7.38692 16 7.99999C16 8.61307 15.8768 9.19282 15.6543 9.63781C15.4468 10.0529 15.0676 10.5 14.5 10.5C14.0852 10.5 13.7668 10.2539 13.5569 9.97966C13.3023 9.64705 13.0768 9.49999 12.882 9.49999H12.6445L12.888 12.3547C12.9738 13.2361 12.2811 14 11.395 14H9.00005C8.72391 14 8.50005 13.7761 8.50005 13.5V13.118C8.50005 12.4222 8.99732 11.9358 9.37183 11.6491C9.43675 11.5994 9.47077 11.5578 9.48691 11.5311C9.49463 11.5183 9.49773 11.5099 9.49894 11.5058C9.50007 11.502 9.50005 11.5004 9.50005 11.5C9.50005 11.4995 9.50002 11.4987 9.49973 11.4973C9.49943 11.4958 9.49866 11.4927 9.49667 11.4878C9.49263 11.478 9.48297 11.4595 9.46114 11.4337C9.41554 11.3798 9.32995 11.3097 9.19066 11.2401C8.91179 11.1007 8.49154 11 8.00005 11C7.50856 11 7.08831 11.1007 6.80944 11.2401C6.67015 11.3097 6.58456 11.3798 6.53896 11.4337C6.51713 11.4595 6.50747 11.478 6.50343 11.4878C6.50144 11.4927 6.50067 11.4958 6.50037 11.4973C6.50008 11.4987 6.50005 11.4995 6.50005 11.5C6.50005 11.5005 6.50005 11.5021 6.50115 11.5058C6.50237 11.5099 6.50547 11.5183 6.51319 11.5311C6.52933 11.5578 6.56335 11.5994 6.62827 11.6491C7.00277 11.9358 7.50005 12.4222 7.50005 13.118V13.5C7.50005 13.6326 7.44737 13.7598 7.3536 13.8536C7.25983 13.9473 7.13265 14 7.00005 14L4.60499 14C3.7189 14 3.02623 13.2361 3.11204 12.3547L3.35554 9.49998H3.11797C2.92319 9.49998 2.69774 9.64704 2.4431 9.97965C2.23317 10.2539 1.91483 10.5 1.5 10.5C0.932443 10.5 0.55322 10.0529 0.345679 9.6378C0.123185 9.19281 0 8.61305 0 7.99998C0 7.3869 0.123185 6.80714 0.345679 6.36215C0.55322 5.94707 0.932443 5.49997 1.5 5.49997C1.91483 5.49997 2.23317 5.74608 2.4431 6.0203C2.69774 6.35291 2.92319 6.49997 3.11797 6.49997H3.35554L3.11205 3.64528ZM4.60499 3C4.30918 3 4.07804 3.25541 4.10748 3.54975L4.1082 3.55701L4.3982 6.95748C4.4101 7.09697 4.36297 7.23506 4.26828 7.33817C4.17359 7.44128 4.04 7.49997 3.90001 7.49997H3.11797C2.4222 7.49997 1.9358 7.0027 1.64908 6.62819C1.59938 6.56327 1.55779 6.52925 1.53109 6.51311C1.51832 6.50539 1.50988 6.50229 1.5058 6.50108C1.50208 6.49997 1.5005 6.49997 1.50002 6.49997C1.49949 6.49997 1.49869 6.50001 1.49728 6.5003C1.4958 6.5006 1.49272 6.50136 1.48785 6.50335C1.47798 6.50739 1.45947 6.51706 1.43368 6.53888C1.37977 6.58448 1.30975 6.67007 1.24011 6.80937C1.10067 7.08824 1 7.50848 1 7.99998C1 8.49147 1.10067 8.91171 1.24011 9.19058C1.30975 9.32988 1.37977 9.41547 1.43368 9.46107C1.45947 9.48289 1.47798 9.49256 1.48785 9.4966C1.49272 9.49859 1.4958 9.49935 1.49728 9.49965C1.49869 9.49994 1.49947 9.49998 1.5 9.49998C1.50048 9.49998 1.50208 9.49998 1.5058 9.49887C1.50988 9.49766 1.51832 9.49456 1.53109 9.48684C1.55779 9.4707 1.59938 9.43668 1.64908 9.37176C1.9358 8.99725 2.4222 8.49998 3.11797 8.49998H3.90001C4.04 8.49998 4.17358 8.55867 4.26828 8.66178C4.36297 8.76489 4.4101 8.90298 4.3982 9.04247L4.10753 12.4502C4.07809 12.7446 4.30918 13 4.60499 13L6.48284 13C6.43532 12.8338 6.28784 12.6479 6.02038 12.4431C5.74616 12.2332 5.50005 11.9148 5.50005 11.5C5.50005 10.9324 5.94715 10.5532 6.36223 10.3457C6.80722 10.1232 7.38697 9.99999 8.00005 9.99999C8.61313 9.99999 9.19288 10.1232 9.63787 10.3457C10.053 10.5532 10.5 10.9324 10.5 11.5C10.5 11.9148 10.2539 12.2332 9.97972 12.4431C9.71225 12.6479 9.56477 12.8338 9.51726 13H11.395C11.6908 13 11.922 12.7446 11.8925 12.4502L11.8918 12.443L11.6018 9.04249C11.5899 8.903 11.637 8.76491 11.7317 8.6618C11.8264 8.55868 11.96 8.49999 12.1 8.49999H12.882C13.5778 8.49999 14.0642 8.99727 14.3509 9.37177C14.4006 9.43669 14.4422 9.47072 14.4689 9.48685C14.4817 9.49457 14.4901 9.49767 14.4942 9.49889C14.4979 9.49999 14.4995 9.49999 14.5 9.49999C14.5005 9.49999 14.5013 9.49996 14.5027 9.49967C14.5042 9.49937 14.5073 9.49861 14.5122 9.49661C14.522 9.49257 14.5405 9.48291 14.5663 9.46109C14.6202 9.41548 14.6902 9.32989 14.7599 9.1906C14.8993 8.91173 15 8.49149 15 7.99999C15 7.5085 14.8993 7.08826 14.7599 6.80939C14.6902 6.67009 14.6202 6.5845 14.5663 6.5389C14.5405 6.51708 14.522 6.50741 14.5122 6.50337C14.5073 6.50138 14.5042 6.50061 14.5027 6.50031C14.5013 6.50003 14.5005 6.49999 14.5 6.49999C14.4995 6.49999 14.498 6.49997 14.4942 6.5011C14.4901 6.50231 14.4817 6.50541 14.4689 6.51313C14.4422 6.52927 14.4006 6.56329 14.3509 6.62821C14.0642 7.00272 13.5778 7.49999 12.882 7.49999H12.1C11.96 7.49999 11.8264 7.4413 11.7317 7.33819C11.637 7.23508 11.5899 7.09699 11.6018 6.9575L11.8925 3.54976C11.9219 3.25542 11.6908 3.00002 11.395 3.00002H9.51726C9.56477 3.16626 9.71225 3.35215 9.97972 3.55692C10.2539 3.76686 10.5 4.0852 10.5 4.50002C10.5 5.06758 10.053 5.4468 9.63787 5.65435C9.19288 5.87684 8.61313 6.00002 8.00005 6.00002C7.38697 6.00002 6.80722 5.87684 6.36223 5.65435C5.94715 5.4468 5.50005 5.06758 5.50005 4.50002C5.50005 4.0852 5.74616 3.76686 6.02038 3.55692C6.28785 3.35215 6.43533 3.16626 6.48284 3.00001L4.60499 3Z" fill="black"/>
</svg>
