<svg width="16" height="16" viewBox="0 0 16 16" fill="none" xmlns="http://www.w3.org/2000/svg">
<path d="M3.11205 3.64528C3.02622 2.76393 3.71889 2 4.605 2L7.00005 2.00002C7.27619 2.00002 7.50005 2.22388 7.50005 2.50002V2.88205C7.50005 3.57783 7.00277 4.06423 6.62827 4.35094C6.56335 4.40064 6.52933 4.44224 6.51319 4.46894C6.50547 4.48171 6.50237 4.49014 6.50115 4.49423C6.50003 4.49801 6.50005 4.50002 6.50005 4.50002L6.50037 4.50275C6.50037 4.50275 6.50144 4.50731 6.50343 4.51218C6.50747 4.52205 6.51713 4.54055 6.53896 4.56635C6.58456 4.62026 6.67015 4.69027 6.80944 4.75992C7.08831 4.89935 7.50856 5.00002 8.00005 5.00002C8.49154 5.00002 8.91179 4.89935 9.19066 4.75992C9.32995 4.69027 9.41554 4.62026 9.46114 4.56635C9.48297 4.54055 9.49263 4.52205 9.49667 4.51218C9.49866 4.50731 9.49973 4.50275 9.49973 4.50275L9.50005 4.50002C9.50005 4.50002 9.50007 4.49801 9.49894 4.49423C9.49773 4.49015 9.49463 4.48171 9.48691 4.46894C9.47077 4.44224 9.43675 4.40064 9.37183 4.35094C8.99732 4.06423 8.50005 3.57783 8.50005 2.88205V2.50002C8.50005 2.22388 8.72391 2.00002 9.00005 2.00002H11.395C12.2811 2.00002 12.9738 2.76394 12.888 3.64529L12.6445 6.49999H12.882C13.0768 6.49999 13.3023 6.35293 13.5569 6.02032C13.7668 5.7461 14.0852 5.49999 14.5 5.49999C15.0676 5.49999 15.4468 5.94709 15.6543 6.36217C15.8768 6.80716 16 7.38692 16 7.99999C16 8.61307 15.8768 9.19282 15.6543 9.63781C15.4468 10.0529 15.0676 10.5 14.5 10.5C14.0852 10.5 13.7668 10.2539 13.5569 9.97966C13.3023 9.64705 13.0768 9.49999 12.882 9.49999H12.6445L12.888 12.3547C12.9738 13.2361 12.2811 14 11.395 14H9.00005C8.72391 14 8.50005 13.7761 8.50005 13.5V13.118C8.50005 12.4222 8.99732 11.9358 9.37183 11.6491C9.43675 11.5994 9.47077 11.5578 9.48691 11.5311C9.49463 11.5183 9.49773 11.5099 9.49894 11.5058C9.50007 11.502 9.50005 11.5 9.50005 11.5L9.49973 11.4973C9.49973 11.4973 9.49866 11.4927 9.49667 11.4878C9.49263 11.478 9.48297 11.4595 9.46114 11.4337C9.41554 11.3798 9.32995 11.3097 9.19066 11.2401C8.91179 11.1007 8.49154 11 8.00005 11C7.50856 11 7.08831 11.1007 6.80944 11.2401C6.67015 11.3097 6.58456 11.3798 6.53896 11.4337C6.51713 11.4595 6.50747 11.478 6.50343 11.4878C6.50144 11.4927 6.50037 11.4973 6.50037 11.4973L6.50005 11.5C6.50005 11.5 6.50005 11.5021 6.50115 11.5058C6.50237 11.5099 6.50547 11.5183 6.51319 11.5311C6.52933 11.5578 6.56335 11.5994 6.62827 11.6491C7.00277 11.9358 7.50005 12.4222 7.50005 13.118V13.5C7.50005 13.6326 7.44737 13.7598 7.3536 13.8536C7.25983 13.9473 7.13265 14 7.00005 14L4.60499 14C3.7189 14 3.02623 13.2361 3.11204 12.3547L3.35554 9.49998H3.11797C2.92319 9.49998 2.69774 9.64704 2.4431 9.97965C2.23317 10.2539 1.91483 10.5 1.5 10.5C0.932443 10.5 0.55322 10.0529 0.345679 9.6378C0.123185 9.19281 0 8.61305 0 7.99998C0 7.3869 0.123185 6.80714 0.345679 6.36215C0.55322 5.94707 0.932443 5.49997 1.5 5.49997C1.91483 5.49997 2.23317 5.74608 2.4431 6.0203C2.69774 6.35291 2.92319 6.49997 3.11797 6.49997H3.35554L3.11205 3.64528Z" fill="black"/>
</svg>
