<svg width="16" height="16" viewBox="0 0 16 16" fill="none" xmlns="http://www.w3.org/2000/svg">
<path d="M2 2H4V4H2V2Z" fill="black"/>
<path d="M6 0V6H0V0H6ZM5 1H1V5H5V1Z" fill="black"/>
<path d="M4 12H2V14H4V12Z" fill="black"/>
<path d="M6 10V16H0V10H6ZM1 11V15H5V11H1Z" fill="black"/>
<path d="M12 2H14V4H12V2Z" fill="black"/>
<path d="M10 0V6H16V0H10ZM15 1V5H11V1H15Z" fill="black"/>
<path d="M8 1V0H9V2H8V4H7V1H8Z" fill="black"/>
<path d="M8 6V4H9V6H8Z" fill="black"/>
<path d="M6 8V7H7V6H8V8H9V7H14V8H10V9H7V8H6Z" fill="black"/>
<path d="M6 8V9H2V8H1V9H0V7H3V8H6Z" fill="black"/>
<path d="M16 9H15V7H16V9Z" fill="black"/>
<path d="M15 9H14V11H16V10H15V9Z" fill="black"/>
<path d="M11 9H13V10H12V11H11V9Z" fill="black"/>
<path d="M13 12V11H12V12H11V13H9V14H12V12H13Z" fill="black"/>
<path d="M13 12H16V13H14V14H13V12Z" fill="black"/>
<path d="M9 11V12H10V10H7V11H9Z" fill="black"/>
<path d="M7 12H8V15H12V16H7V12Z" fill="black"/>
<path d="M16 14V16H13V15H15V14H16Z" fill="black"/>
</svg>
