<svg width="16" height="16" viewBox="0 0 16 16" fill="none" xmlns="http://www.w3.org/2000/svg">
<path d="M6.95059 0.434678C7.53017 -0.144894 8.46984 -0.144892 9.04941 0.434679L15.5653 6.95059C16.1449 7.53017 16.1449 8.46984 15.5653 9.04941L9.04941 15.5653C8.46983 16.1449 7.53016 16.1449 6.95059 15.5653L0.434678 9.04941C-0.144894 8.46983 -0.144892 7.53016 0.434679 6.95059L6.95059 0.434678ZM8.3498 1.13428C8.15661 0.941093 7.84339 0.941093 7.6502 1.13428L1.13428 7.6502C0.941093 7.84339 0.941093 8.15661 1.13428 8.3498L7.6502 14.8657C7.84339 15.0589 8.15661 15.0589 8.3498 14.8657L14.8657 8.3498C15.0589 8.15661 15.0589 7.84339 14.8657 7.6502L8.3498 1.13428Z" fill="black"/>
<path d="M5.25511 5.78615C5.24752 5.92237 5.3599 6.03271 5.49634 6.03271H6.32082C6.45889 6.03271 6.56868 5.92013 6.58723 5.78331C6.67618 5.12718 7.1265 4.64893 7.92922 4.64893C8.61477 4.64893 9.24318 4.9917 9.24318 5.81689C9.24318 6.45166 8.86867 6.74365 8.27834 7.18799C7.60549 7.67676 7.07229 8.24805 7.11037 9.1748L7.11334 9.39161C7.11521 9.52833 7.22658 9.63818 7.36332 9.63818H8.17434C8.31241 9.63818 8.42434 9.52625 8.42434 9.38818V9.28271C8.42434 8.56543 8.69729 8.35596 9.43361 7.79736C10.043 7.33398 10.6778 6.81982 10.6778 5.74072C10.6778 4.22998 9.40188 3.5 8.00539 3.5C6.73831 3.5 5.34964 4.09061 5.25511 5.78615ZM6.81203 11.5488C6.81203 12.082 7.23733 12.4756 7.82131 12.4756C8.43069 12.4756 8.84963 12.082 8.84963 11.5488C8.84963 10.9966 8.43069 10.6094 7.82131 10.6094C7.23733 10.6094 6.81203 10.9966 6.81203 11.5488Z" fill="black"/>
</svg>
