<svg width="16" height="16" viewBox="0 0 16 16" fill="none" xmlns="http://www.w3.org/2000/svg">
<path d="M11.4602 0.146447C11.3664 0.0526784 11.2392 0 11.1066 0H4.8934C4.76079 0 4.63361 0.0526784 4.53984 0.146447L0.146447 4.53984C0.0526784 4.63361 0 4.76079 0 4.8934V11.1066C0 11.2392 0.0526784 11.3664 0.146447 11.4602L4.53984 15.8536C4.63361 15.9473 4.76079 16 4.8934 16H11.1066C11.2392 16 11.3664 15.9473 11.4602 15.8536L15.8536 11.4602C15.9473 11.3664 16 11.2392 16 11.1066V4.8934C16 4.76079 15.9473 4.63361 15.8536 4.53984L11.4602 0.146447ZM5.49634 6.03271C5.3599 6.03271 5.24752 5.92237 5.25511 5.78615C5.34964 4.09061 6.73831 3.5 8.00539 3.5C9.40188 3.5 10.6778 4.22998 10.6778 5.74072C10.6778 6.81982 10.043 7.33398 9.43361 7.79736C8.69729 8.35596 8.42434 8.56543 8.42434 9.28271V9.38818C8.42434 9.52625 8.31241 9.63818 8.17434 9.63818H7.36332C7.22658 9.63818 7.11521 9.52833 7.11334 9.39161L7.11037 9.1748C7.07229 8.24805 7.60549 7.67676 8.27834 7.18799C8.86867 6.74365 9.24318 6.45166 9.24318 5.81689C9.24318 4.9917 8.61477 4.64893 7.92922 4.64893C7.1265 4.64893 6.67618 5.12718 6.58723 5.78331C6.56868 5.92013 6.45889 6.03271 6.32082 6.03271H5.49634ZM7.82131 12.4756C7.23732 12.4756 6.81203 12.082 6.81203 11.5488C6.81203 10.9966 7.23732 10.6094 7.82131 10.6094C8.43068 10.6094 8.84963 10.9966 8.84963 11.5488C8.84963 12.082 8.43068 12.4756 7.82131 12.4756Z" fill="black"/>
</svg>
