<svg width="16" height="16" viewBox="0 0 16 16" fill="none" xmlns="http://www.w3.org/2000/svg">
<path d="M8.73065 12.476C8.17628 11.3849 7.52594 10.2828 6.25735 10.2828C6.01485 10.2828 5.77264 10.323 5.55036 10.4245L5.11941 9.56196C5.64459 9.11135 6.49321 8.7541 7.58404 8.7541C9.28098 8.7541 10.1519 9.5715 10.8432 10.6149C11.2537 9.72411 11.4488 8.52114 11.4488 7.02999C11.4488 3.30631 10.2842 1.39432 7.56409 1.39432C4.88355 1.39432 3.72538 3.30631 3.72538 7.02999C3.72538 10.734 4.88355 12.6263 7.56409 12.6263C7.99014 12.6263 8.376 12.5795 8.73065 12.476ZM9.39515 13.7756C8.80754 13.9331 8.18321 14.0201 7.56409 14.0201C3.99476 14.0201 0.5 11.1719 0.5 7.02999C0.5 2.84876 3.99476 0 7.56409 0C11.1933 0 14.6545 2.82824 14.6545 7.02999C14.6545 9.36715 13.564 11.2664 11.9789 12.494C12.491 13.2614 13.0182 13.7709 13.7524 13.7709C14.5536 13.7709 14.8768 13.1518 14.9308 12.6662H15.9742C16.0352 13.3128 15.7118 16 12.7957 16C11.0294 16 10.0955 14.9762 9.39515 13.7756Z" fill="black"/>
</svg>
