<svg width="16" height="16" viewBox="0 0 16 16" fill="none" xmlns="http://www.w3.org/2000/svg">
<path d="M1 8C1 11.866 4.13401 15 8 15C11.866 15 15 11.866 15 8C15 4.13401 11.866 1 8 1C4.13401 1 1 4.13401 1 8ZM16 8C16 12.4183 12.4183 16 8 16C3.58172 16 0 12.4183 0 8C0 3.58172 3.58172 0 8 0C12.4183 0 16 3.58172 16 8ZM5.5 4.00195H8.61023C10.3203 4.00195 11.351 4.97461 11.351 6.46289C11.351 7.59961 10.6837 8.40234 9.85551 8.70117L11.5 12H9.98064L8.52085 8.92383H6.83466V12H5.5V4.00195ZM6.83466 5.0918V7.86914H8.38381C9.37885 7.86914 9.9568 7.40625 9.9568 6.50977C9.9568 5.5957 9.36097 5.0918 8.41956 5.0918H6.83466Z" fill="black"/>
</svg>
