<svg width="16" height="16" viewBox="0 0 16 16" fill="none" xmlns="http://www.w3.org/2000/svg">
<path d="M5.5 4.00195H8.61023C10.3203 4.00195 11.351 4.97461 11.351 6.46289C11.351 7.59961 10.6837 8.40234 9.85551 8.70117L11.5 12H9.98064L8.52085 8.92383H6.83466V12H5.5V4.00195ZM6.83466 5.0918V7.86914H8.38381C9.37885 7.86914 9.9568 7.40625 9.9568 6.50977C9.9568 5.5957 9.36097 5.0918 8.41956 5.0918H6.83466Z" fill="black"/>
<path d="M0 2C0 0.895431 0.895431 0 2 0H14C15.1046 0 16 0.895431 16 2V14C16 15.1046 15.1046 16 14 16H2C0.895431 16 0 15.1046 0 14V2ZM15 2C15 1.44772 14.5523 1 14 1H2C1.44772 1 1 1.44772 1 2V14C1 14.5523 1.44772 15 2 15H14C14.5523 15 15 14.5523 15 14V2Z" fill="black"/>
</svg>
