<svg width="16" height="16" viewBox="0 0 16 16" fill="none" xmlns="http://www.w3.org/2000/svg">
<path d="M6.63437 1.13451C7.99224 0.86441 9.3997 1.00303 10.6788 1.53285C11.9579 2.06266 13.0511 2.95987 13.8203 4.11101C14.5895 5.26216 15 6.61553 15 8C15 8.27615 14.7761 8.5 14.5 8.5C14.2239 8.5 14 8.27615 14 8C14 6.81332 13.6481 5.65328 12.9888 4.66658C12.3295 3.67989 11.3925 2.91085 10.2961 2.45673C9.19975 2.0026 7.99335 1.88378 6.82946 2.11529C5.66558 2.3468 4.59648 2.91825 3.75736 3.75736C2.91825 4.59648 2.3468 5.66558 2.11529 6.82946C1.88378 7.99335 2.0026 9.19975 2.45673 10.2961C2.91085 11.3925 3.67989 12.3295 4.66658 12.9888C5.51414 13.5551 6.48961 13.8946 7.5 13.9791V12.9749C6.68776 12.8933 5.90512 12.6137 5.22215 12.1573C4.39991 11.6079 3.75904 10.8271 3.3806 9.91342C3.00217 8.99979 2.90315 7.99446 3.09608 7.02455C3.289 6.05465 3.76521 5.16373 4.46447 4.46447C5.16373 3.76521 6.05465 3.289 7.02455 3.09608C7.99446 2.90315 8.99979 3.00217 9.91342 3.3806C10.8271 3.75904 11.6079 4.39991 12.1573 5.22215C12.7068 6.0444 13 7.0111 13 8C13 8.27614 12.7761 8.5 12.5 8.5C12.2239 8.5 12 8.27614 12 8C12 7.20888 11.7654 6.43552 11.3259 5.77772C10.8864 5.11992 10.2616 4.60723 9.53074 4.30448C8.79983 4.00173 7.99556 3.92252 7.21964 4.07686C6.44372 4.2312 5.73099 4.61216 5.17158 5.17158C4.61216 5.73099 4.2312 6.44372 4.07686 7.21964C3.92252 7.99556 4.00173 8.79983 4.30448 9.53074C4.60723 10.2616 5.11992 10.8864 5.77772 11.3259C6.29602 11.6722 6.88605 11.8913 7.5 11.9686V10.958C7.0846 10.8878 6.6867 10.7306 6.33329 10.4944C5.83994 10.1648 5.45543 9.69623 5.22836 9.14805C5.0013 8.59987 4.94189 7.99667 5.05765 7.41473C5.1734 6.83279 5.45912 6.29824 5.87868 5.87868C6.29824 5.45912 6.83279 5.1734 7.41473 5.05765C7.99667 4.94189 8.59987 5.0013 9.14805 5.22836C9.69623 5.45543 10.1648 5.83994 10.4944 6.33329C10.8241 6.82664 11 7.40666 11 8C11 8.27614 10.7761 8.5 10.5 8.5C10.2239 8.5 10 8.27614 10 8C10 7.60444 9.8827 7.21776 9.66294 6.88886C9.44318 6.55996 9.13082 6.30362 8.76537 6.15224C8.39992 6.00087 7.99778 5.96126 7.60982 6.03843C7.22186 6.1156 6.86549 6.30608 6.58579 6.58579C6.30608 6.86549 6.1156 7.22186 6.03843 7.60982C5.96126 7.99778 6.00087 8.39992 6.15224 8.76537C6.30362 9.13082 6.55996 9.44318 6.88886 9.66294C7.07676 9.78849 7.28351 9.88059 7.5 9.93649V8.86622C7.2011 8.69331 7 8.37014 7 8C7 7.44772 7.44772 7 8 7C8.55228 7 9 7.44772 9 8C9 8.37014 8.7989 8.69331 8.5 8.86622V10.4988L8.5 10.5L8.5 10.5012V12.4984L8.5 12.5L8.5 12.5016V14.4982L8.5 14.5L8.5 14.5018V15.5C8.5 15.7761 8.27614 16 8 16C7.72386 16 7.5 15.7761 7.5 15.5V14.9821C6.29155 14.8956 5.12312 14.4966 4.11101 13.8203C2.95987 13.0511 2.06266 11.9579 1.53285 10.6788C1.00303 9.3997 0.86441 7.99224 1.13451 6.63437C1.4046 5.2765 2.07129 4.02922 3.05026 3.05026C4.02922 2.07129 5.2765 1.4046 6.63437 1.13451Z" fill="black"/>
</svg>
