<svg width="16" height="16" viewBox="0 0 16 16" fill="none" xmlns="http://www.w3.org/2000/svg">
<path d="M8 1C4.13401 1 1 4.13401 1 8C1 11.866 4.13401 15 8 15C11.866 15 15 11.866 15 8C15 4.13401 11.866 1 8 1ZM0 8C0 3.58172 3.58172 0 8 0C12.4183 0 16 3.58172 16 8C16 12.4183 12.4183 16 8 16C3.58172 16 0 12.4183 0 8Z" fill="black"/>
<path d="M9.6532 5.49622C9.17919 5.18261 8.61092 5 8 5C7.38922 5 6.82107 5.18253 6.34713 5.49601L4.69398 2.99219C5.64192 2.36512 6.77832 2 8 2C9.22182 2 10.3583 2.36521 11.3064 2.99241L9.6532 5.49622ZM10.9947 7.81986C10.9982 7.87946 11 7.93952 11 8C11 8.83416 10.6615 9.58648 10.1107 10.1319C9.88596 10.3544 9.62703 10.5413 9.34241 10.684L10.684 13.3673C11.2547 13.0814 11.7733 12.7074 12.2215 12.2637C13.318 11.1779 14 9.66722 14 8C14 7.87917 13.9964 7.75917 13.9894 7.64011L10.9947 7.81986ZM5.31638 13.3679L6.65831 10.684C5.67503 10.1915 5 9.17458 5 8C5 7.93962 5.00178 7.87965 5.0053 7.82015L2.0106 7.6404C2.00357 7.75937 2 7.87927 2 8C2 10.3491 3.34994 12.3828 5.31638 13.3679Z" fill="black"/>
<path d="M10 8C10 9.10457 9.10457 10 8 10C6.89543 10 6 9.10457 6 8C6 6.89543 6.89543 6 8 6C9.10457 6 10 6.89543 10 8Z" fill="black"/>
</svg>
