<svg width="16" height="16" viewBox="0 0 16 16" fill="none" xmlns="http://www.w3.org/2000/svg">
<path d="M8 4.5C4.13401 4.5 1 7.63401 1 11.5C1 11.7761 0.776142 12 0.5 12C0.223858 12 0 11.7761 0 11.5C0 7.08172 3.58172 3.5 8 3.5C12.4183 3.5 16 7.08172 16 11.5C16 11.7761 15.7761 12 15.5 12C15.2239 12 15 11.7761 15 11.5C15 7.63401 11.866 4.5 8 4.5ZM8 6.5C5.23858 6.5 3 8.73858 3 11.5C3 11.7761 2.77614 12 2.5 12C2.22386 12 2 11.7761 2 11.5C2 8.18629 4.68629 5.5 8 5.5C11.3137 5.5 14 8.18629 14 11.5C14 11.7761 13.7761 12 13.5 12C13.2239 12 13 11.7761 13 11.5C13 8.73858 10.7614 6.5 8 6.5ZM8 8.5C6.34315 8.5 5 9.84315 5 11.5C5 11.7761 4.77614 12 4.5 12C4.22386 12 4 11.7761 4 11.5C4 9.29086 5.79086 7.5 8 7.5C10.2091 7.5 12 9.29086 12 11.5C12 11.7761 11.7761 12 11.5 12C11.2239 12 11 11.7761 11 11.5C11 9.84315 9.65685 8.5 8 8.5ZM8 10.5C7.44772 10.5 7 10.9477 7 11.5C7 11.7761 6.77614 12 6.5 12C6.22386 12 6 11.7761 6 11.5C6 10.3954 6.89543 9.5 8 9.5C9.10457 9.5 10 10.3954 10 11.5C10 11.7761 9.77614 12 9.5 12C9.22386 12 9 11.7761 9 11.5C9 10.9477 8.55229 10.5 8 10.5Z" fill="black"/>
</svg>
