<svg width="16" height="16" viewBox="0 0 16 16" fill="none" xmlns="http://www.w3.org/2000/svg">
<path d="M0 13.5C0 13.2239 0.223858 13 0.5 13H2.5C2.77614 13 3 13.2239 3 13.5C3 13.7761 2.77614 14 2.5 14H0.5C0.223858 14 0 13.7761 0 13.5Z" fill="black"/>
<path d="M4 13.5C4 13.2239 4.22386 13 4.5 13H6.5C6.77614 13 7 13.2239 7 13.5C7 13.7761 6.77614 14 6.5 14H4.5C4.22386 14 4 13.7761 4 13.5Z" fill="black"/>
<path d="M8 13.5C8 13.2239 8.22386 13 8.5 13H10.5C10.7761 13 11 13.2239 11 13.5C11 13.7761 10.7761 14 10.5 14H8.5C8.22386 14 8 13.7761 8 13.5Z" fill="black"/>
<path d="M12 13.5C12 13.2239 12.2239 13 12.5 13H14.5C14.7761 13 15 13.2239 15 13.5C15 13.7761 14.7761 14 14.5 14H12.5C12.2239 14 12 13.7761 12 13.5Z" fill="black"/>
</svg>
