<svg width="16" height="16" viewBox="0 0 16 16" fill="none" xmlns="http://www.w3.org/2000/svg">
<path d="M0 11.5C0 11.2239 0.223858 11 0.5 11H2.5C2.77614 11 3 11.2239 3 11.5V13.5C3 13.7761 2.77614 14 2.5 14H0.5C0.223858 14 0 13.7761 0 13.5V11.5Z" fill="black"/>
<path d="M4 8.5C4 8.22386 4.22386 8 4.5 8H6.5C6.77614 8 7 8.22386 7 8.5V13.5C7 13.7761 6.77614 14 6.5 14H4.5C4.22386 14 4 13.7761 4 13.5V8.5Z" fill="black"/>
<path d="M8 5.5C8 5.22386 8.22386 5 8.5 5H10.5C10.7761 5 11 5.22386 11 5.5V13.5C11 13.7761 10.7761 14 10.5 14H8.5C8.22386 14 8 13.7761 8 13.5V5.5Z" fill="black"/>
<path d="M12 13.5C12 13.2239 12.2239 13 12.5 13H14.5C14.7761 13 15 13.2239 15 13.5C15 13.7761 14.7761 14 14.5 14H12.5C12.2239 14 12 13.7761 12 13.5Z" fill="black"/>
</svg>
