<svg width="16" height="16" viewBox="0 0 16 16" fill="none" xmlns="http://www.w3.org/2000/svg">
<path d="M6.1671 7.99998C5.70887 7.99998 5.33656 8.3723 5.33656 8.83053C5.33656 9.28876 5.70887 9.67063 6.1671 9.66108C6.62534 9.66108 6.99765 9.28876 6.99765 8.83053C6.99765 8.3723 6.62534 7.99998 6.1671 7.99998Z" fill="black"/>
<path d="M8.00959 11.6468C8.32462 11.6468 9.41293 11.6086 9.98572 11.0358C10.0621 10.9499 10.0621 10.8162 9.98572 10.7303C9.8998 10.6444 9.76615 10.6444 9.68023 10.7303C9.32701 11.0931 8.55374 11.2172 8.00959 11.2172C7.46543 11.2172 6.70171 11.0931 6.33894 10.7303C6.25302 10.6444 6.11937 10.6444 6.03345 10.7303C5.94753 10.8162 5.94753 10.9499 6.03345 11.0358C6.5967 11.599 7.685 11.6468 8.00959 11.6468Z" fill="black"/>
<path d="M9.00243 8.84008C9.00243 9.29831 9.37474 9.67063 9.83298 9.67063C10.2912 9.67063 10.6635 9.28877 10.6635 8.84008C10.6635 8.38184 10.2912 8.00953 9.83298 8.00953C9.37474 8.00953 9.00243 8.38184 9.00243 8.84008Z" fill="black"/>
<path d="M16 8C16 12.4183 12.4183 16 8 16C3.58172 16 0 12.4183 0 8C0 3.58172 3.58172 0 8 0C12.4183 0 16 3.58172 16 8ZM12.1719 6.8353C11.8568 6.8353 11.5704 6.95941 11.3604 7.15989C10.5585 6.58709 9.46066 6.21478 8.2387 6.16705L8.77331 3.66585L10.5108 4.03817C10.5299 4.47731 10.8926 4.83053 11.3413 4.83053C11.7996 4.83053 12.1719 4.45822 12.1719 3.99998C12.1719 3.54175 11.7996 3.16943 11.3413 3.16943C11.0167 3.16943 10.7303 3.36036 10.5967 3.63721L8.65875 3.22671C8.60147 3.21717 8.54419 3.22671 8.50601 3.25535C8.45827 3.28399 8.42963 3.33173 8.42009 3.389L7.8282 6.17659C6.58715 6.21478 5.47021 6.5871 4.65875 7.16943C4.44873 6.96896 4.16233 6.84485 3.8473 6.84485C3.19813 6.84485 2.68262 7.36991 2.68262 8.00953C2.68262 8.48686 2.96901 8.88781 3.36997 9.06919C3.35088 9.18375 3.34133 9.29831 3.34133 9.42242C3.34133 11.2172 5.43202 12.6778 8.00959 12.6778C10.5872 12.6778 12.6778 11.2267 12.6778 9.42242C12.6778 9.30786 12.6683 9.18375 12.6492 9.06919C13.0502 8.88781 13.3366 8.47731 13.3366 7.99998C13.3366 7.35082 12.8115 6.8353 12.1719 6.8353Z" fill="black"/>
</svg>
