<svg width="16" height="16" viewBox="0 0 16 16" fill="none" xmlns="http://www.w3.org/2000/svg">
<path fill-rule="evenodd" clip-rule="evenodd" d="M3.05025 3.05027C0.316582 5.78394 0.316582 10.2161 3.05025 12.9498C3.24551 13.145 3.24551 13.4616 3.05025 13.6569C2.85499 13.8521 2.53841 13.8521 2.34315 13.6569C-0.781049 10.5327 -0.781049 5.46736 2.34315 2.34316C2.53841 2.1479 2.85499 2.1479 3.05025 2.34316C3.24551 2.53843 3.24551 2.85501 3.05025 3.05027ZM12.9497 2.34316C13.145 2.1479 13.4616 2.1479 13.6569 2.34316C16.781 5.46736 16.781 10.5327 13.6569 13.6569C13.4616 13.8521 13.145 13.8521 12.9497 13.6569C12.7545 13.4616 12.7545 13.145 12.9497 12.9498C15.6834 10.2161 15.6834 5.78394 12.9497 3.05027C12.7545 2.85501 12.7545 2.53842 12.9497 2.34316ZM6.00001 11C6.00001 11.5523 5.5523 12 5.00001 12C4.44773 12 4.00001 11.5523 4.00001 11C4.00001 10.4477 4.44773 10 5.00001 10C5.5523 10 6.00001 10.4477 6.00001 11ZM11 4.50002C11 4.22387 10.7761 4.00002 10.5 4.00002C10.2238 4.00002 9.99995 4.22387 9.99995 4.50002V6.61691L8.25721 5.57127C8.02042 5.4292 7.71329 5.50598 7.57122 5.74277C7.42914 5.97956 7.50593 6.28669 7.74272 6.42876L9.52813 7.50001L7.74272 8.57125C7.50593 8.71332 7.42914 9.02045 7.57122 9.25724C7.71329 9.49403 8.02042 9.57081 8.25721 9.42874L9.99995 8.38311V10.5C9.99995 10.7762 10.2238 11 10.5 11C10.7761 11 11 10.7762 11 10.5V8.38309L12.7427 9.42874C12.9795 9.57081 13.2866 9.49403 13.4287 9.25724C13.5708 9.02045 13.494 8.71332 13.2572 8.57125L11.4718 7.50001L13.2572 6.42876C13.494 6.28669 13.5708 5.97956 13.4287 5.74277C13.2866 5.50598 12.9795 5.4292 12.7427 5.57127L11 6.61692V4.50002Z" fill="black"/>
</svg>
