<svg width="16" height="16" viewBox="0 0 16 16" fill="none" xmlns="http://www.w3.org/2000/svg">
<path d="M11 5.46622V3.99998H5C2.79086 3.99998 1 5.79085 1 7.99998C1 8.63948 1.1497 9.24258 1.41552 9.77747C1.53841 10.0248 1.43757 10.3249 1.19028 10.4477C0.942987 10.5706 0.642895 10.4698 0.520003 10.2225C0.187005 9.55243 0 8.79733 0 7.99998C0 5.23856 2.23858 2.99998 5 2.99998H11V1.53374C11 1.32178 11.2472 1.20599 11.41 1.34169L13.7695 3.30793C13.8895 3.40788 13.8895 3.59209 13.7695 3.69204L11.41 5.65828C11.2472 5.79397 11 5.67818 11 5.46622Z" fill="black"/>
<path d="M14.8097 5.55223C15.057 5.42934 15.3571 5.53018 15.48 5.77747C15.813 6.44754 16 7.20264 16 7.99998C16 10.7614 13.7614 13 11 13H5V14.4662C5 14.6782 4.75279 14.794 4.58995 14.6583L2.23047 12.692C2.11053 12.5921 2.11053 12.4079 2.23047 12.3079L4.58995 10.3417C4.75279 10.206 5 10.3218 5 10.5337V12H11C13.2091 12 15 10.2091 15 7.99998C15 7.36049 14.8503 6.75739 14.5845 6.2225C14.4616 5.97521 14.5624 5.67512 14.8097 5.55223Z" fill="black"/>
</svg>
