<svg width="16" height="16" viewBox="0 0 16 16" fill="none" xmlns="http://www.w3.org/2000/svg">
<path d="M11 3.99998V5.46622C11 5.67818 11.2472 5.79397 11.41 5.65828L13.7695 3.69204C13.8895 3.59209 13.8895 3.40788 13.7695 3.30793L11.41 1.34169C11.2472 1.20599 11 1.32178 11 1.53374V2.99998H5C2.23858 2.99998 0 5.23856 0 7.99998C0 8.79733 0.187005 9.55243 0.520003 10.2225C0.642895 10.4698 0.942987 10.5706 1.19028 10.4477C1.43757 10.3249 1.53841 10.0248 1.41552 9.77747C1.1497 9.24258 1 8.63948 1 7.99998C1 5.79085 2.79086 3.99998 5 3.99998H11Z" fill="black"/>
<path d="M15.48 5.77747C15.3571 5.53018 15.057 5.42934 14.8097 5.55223C14.5624 5.67512 14.4616 5.97521 14.5845 6.2225C14.8503 6.75739 15 7.36049 15 7.99998C15 10.2091 13.2091 12 11 12H5V10.5337C5 10.3218 4.75279 10.206 4.58995 10.3417L2.23047 12.3079C2.11053 12.4079 2.11053 12.5921 2.23047 12.692L4.58995 14.6583C4.75279 14.794 5 14.6782 5 14.4662V13H11C13.7614 13 16 10.7614 16 7.99998C16 7.20264 15.813 6.44754 15.48 5.77747Z" fill="black"/>
<path d="M9 5.49998C9 5.29775 8.87818 5.11544 8.69134 5.03804C8.5045 4.96065 8.28945 5.00343 8.14645 5.14643L6.39645 6.89643C6.20118 7.09169 6.20118 7.40828 6.39645 7.60354C6.59171 7.7988 6.90829 7.7988 7.10355 7.60354L8 6.70709V10.5C8 10.7761 8.22386 11 8.5 11C8.77614 11 9 10.7761 9 10.5V5.49998Z" fill="black"/>
</svg>
