<svg width="17" height="16" viewBox="0 0 17 16" fill="none" xmlns="http://www.w3.org/2000/svg">
<path d="M8.09778 5.01285C8.19071 4.97123 8.29999 5.03897 8.29999 5.14672V6.3C8.29999 6.57614 8.52385 6.8 8.79999 6.8C9.46707 6.8 10.813 6.80519 12.1009 7.62221C13.084 8.24583 14.0907 9.38186 14.6948 11.4983C13.6743 10.5147 12.5096 9.98244 11.49 9.69945C10.7366 9.49037 10.0591 9.41588 9.5689 9.39348C9.32335 9.38226 9.12345 9.38406 8.98284 9.38886C8.9125 9.39126 8.85687 9.39441 8.81766 9.39708C8.79805 9.39842 8.78253 9.39963 8.77132 9.40057L8.75775 9.40176L8.75343 9.40216L8.75189 9.40231C8.75189 9.40231 8.75078 9.40242 8.79999 9.89999L8.75078 9.40242C8.49494 9.42772 8.29999 9.64291 8.29999 9.89999V11.0533C8.29999 11.161 8.19071 11.2288 8.09778 11.1871L4.11425 8.25435C4.10054 8.24426 4.08633 8.23487 4.07166 8.22623C3.9761 8.16992 3.9761 8.03007 4.07166 7.97376C4.08633 7.96512 4.10054 7.95573 4.11425 7.94564L8.09778 5.01285ZM9.29999 10.3857C9.36797 10.3867 9.44263 10.3888 9.52326 10.3924C9.95654 10.4122 10.5571 10.4784 11.2225 10.663C12.5491 11.0312 14.1194 11.8645 15.1629 13.7428C15.2792 13.9522 15.5276 14.0496 15.7552 13.9753C15.9829 13.9009 16.1258 13.6756 16.0961 13.438C15.6323 9.72756 14.2103 7.77609 12.6366 6.77778C11.3905 5.98734 10.1092 5.83587 9.29999 5.80686V5.14672C9.29999 4.25129 8.33059 3.71386 7.57531 4.15895C7.56065 4.1676 7.54643 4.17698 7.53273 4.18707L3.53922 7.12721C2.82025 7.57436 2.82025 8.62562 3.53921 9.07278L7.53273 12.0129C7.54643 12.023 7.56065 12.0324 7.57531 12.041C8.33059 12.4861 9.29999 11.9487 9.29999 11.0533V10.3857Z" fill="black"/>
<path d="M5.23182 4.29328C5.0681 4.0709 4.75511 4.02335 4.53273 4.18707L0.539227 7.12721C-0.17974 7.57436 -0.179742 8.62562 0.53922 9.07278L4.53273 12.0129C4.75511 12.1766 5.0681 12.1291 5.23182 11.9067C5.39554 11.6843 5.34799 11.3713 5.12561 11.2076L1.11425 8.25435C1.10054 8.24426 1.08633 8.23487 1.07167 8.22623C0.97611 8.16992 0.97611 8.03007 1.07167 7.97376C1.08633 7.96512 1.10054 7.95573 1.11425 7.94564L5.12561 4.99236C5.34799 4.82865 5.39554 4.51565 5.23182 4.29328Z" fill="black"/>
</svg>
