<svg width="16" height="16" viewBox="0 0 16 16" fill="none" xmlns="http://www.w3.org/2000/svg">
<path d="M6.59778 5.01285C6.69071 4.97123 6.79999 5.03897 6.79999 5.14672V6.3C6.79999 6.57614 7.02385 6.8 7.29999 6.8C7.96708 6.8 9.31297 6.80519 10.6009 7.62221C11.584 8.24583 12.5907 9.38186 13.1948 11.4983C12.1744 10.5147 11.0096 9.98244 9.98996 9.69945C9.23659 9.49037 8.55907 9.41588 8.06891 9.39348C7.82336 9.38226 7.62345 9.38406 7.48285 9.38886C7.41251 9.39126 7.35688 9.39441 7.31767 9.39708C7.29806 9.39842 7.28254 9.39963 7.27133 9.40057L7.25775 9.40176L7.25343 9.40216L7.2519 9.40231C7.25164 9.40234 7.25078 9.40242 7.29999 9.89999L7.25078 9.40242C6.99495 9.42772 6.79999 9.64291 6.79999 9.89999V11.0533C6.79999 11.161 6.69071 11.2288 6.59779 11.1871L2.61425 8.25435C2.60054 8.24426 2.58633 8.23487 2.57167 8.22623C2.47611 8.16992 2.47611 8.03007 2.57167 7.97376C2.58633 7.96512 2.60054 7.95573 2.61425 7.94564L6.59778 5.01285ZM7.79999 10.3857C7.86798 10.3867 7.94263 10.3888 8.02327 10.3924C8.45655 10.4122 9.05715 10.4784 9.72253 10.663C11.0491 11.0312 12.6194 11.8645 13.6629 13.7428C13.7792 13.9522 14.0276 14.0496 14.2552 13.9753C14.4829 13.9009 14.6258 13.6756 14.5961 13.438C14.1323 9.72756 12.7103 7.77609 11.1366 6.77778C9.89054 5.98734 8.60923 5.83587 7.79999 5.80686V5.14672C7.79999 4.25129 6.83059 3.71386 6.07532 4.15895C6.06065 4.1676 6.04644 4.17698 6.03273 4.18707L2.03922 7.12721C1.32026 7.57436 1.32026 8.62562 2.03922 9.07278L6.03273 12.0129C6.04644 12.023 6.06065 12.0324 6.07532 12.041C6.83059 12.4861 7.79999 11.9487 7.79999 11.0533V10.3857Z" fill="black"/>
</svg>
