<svg width="17" height="16" viewBox="0 0 17 16" fill="none" xmlns="http://www.w3.org/2000/svg">
<path d="M8.02129 11.9003L3.45311 8.61889C2.98228 8.34142 2.98228 7.65858 3.45311 7.38111L8.02129 4.09969C8.49405 3.82109 9.09998 4.15806 9.09998 4.71858V6C10.6 6 15.1 6 16.1 14C13.6 9.5 9.09998 10 9.09998 10V11.2814C9.09998 11.8419 8.49405 12.1789 8.02129 11.9003Z" fill="black"/>
<path d="M5.23182 4.29328C5.39554 4.51566 5.34799 4.82865 5.12561 4.99237L1.11425 7.94565C1.10054 7.95574 1.08633 7.96512 1.07167 7.97376C0.97611 8.03008 0.97611 8.16992 1.07167 8.22623C1.08633 8.23488 1.10054 8.24426 1.11425 8.25435L5.12561 11.2076C5.34799 11.3713 5.39554 11.6843 5.23182 11.9067C5.0681 12.1291 4.75511 12.1766 4.53273 12.0129L0.53922 9.07278C-0.179742 8.62562 -0.17974 7.57437 0.539226 7.12721L4.53273 4.18708C4.75511 4.02336 5.0681 4.07091 5.23182 4.29328Z" fill="black"/>
</svg>
