<svg width="16" height="16" viewBox="0 0 16 16" fill="none" xmlns="http://www.w3.org/2000/svg">
<path d="M8 16C12.4183 16 16 12.4183 16 8C16 3.58172 12.4183 0 8 0C3.58172 0 0 3.58172 0 8C0 12.4183 3.58172 16 8 16ZM7.72879 5.05542C7.89533 5.14112 8 5.31271 8 5.5V7.38555L11.2094 5.09314C11.3618 4.98427 11.5623 4.96972 11.7288 5.05542C11.8953 5.14112 12 5.31271 12 5.5V10.5C12 10.6873 11.8953 10.8589 11.7288 10.9446C11.5623 11.0303 11.3618 11.0157 11.2094 10.9069L8 8.61445V10.5C8 10.6873 7.89533 10.8589 7.72879 10.9446C7.56226 11.0303 7.36179 11.0157 7.20938 10.9069L3.70938 8.40687C3.57798 8.31301 3.5 8.16148 3.5 8C3.5 7.83853 3.57798 7.68699 3.70938 7.59313L7.20938 5.09314C7.36179 4.98427 7.56226 4.96972 7.72879 5.05542Z" fill="black"/>
</svg>
