<svg width="16" height="16" viewBox="0 0 16 16" fill="none" xmlns="http://www.w3.org/2000/svg">
<path d="M7.72879 5.05542C7.56226 4.96972 7.36179 4.98427 7.20938 5.09314L3.70938 7.59313C3.57798 7.68699 3.5 7.83853 3.5 8C3.5 8.16148 3.57798 8.31301 3.70938 8.40687L7.20938 10.9069C7.36179 11.0157 7.56226 11.0303 7.72879 10.9446C7.89533 10.8589 8 10.6873 8 10.5V8.61445L11.2094 10.9069C11.3618 11.0157 11.5623 11.0303 11.7288 10.9446C11.8953 10.8589 12 10.6873 12 10.5V5.5C12 5.31271 11.8953 5.14112 11.7288 5.05542C11.5623 4.96972 11.3618 4.98427 11.2094 5.09314L8 7.38555V5.5C8 5.31271 7.89533 5.14112 7.72879 5.05542Z" fill="black"/>
<path d="M16 8C16 12.4183 12.4183 16 8 16C3.58172 16 0 12.4183 0 8C0 3.58172 3.58172 0 8 0C12.4183 0 16 3.58172 16 8ZM1 8C1 11.866 4.13401 15 8 15C11.866 15 15 11.866 15 8C15 4.13401 11.866 1 8 1C4.13401 1 1 4.13401 1 8Z" fill="black"/>
</svg>
