<svg width="16" height="16" viewBox="0 0 16 16" fill="none" xmlns="http://www.w3.org/2000/svg">
<path d="M6 12.5C6 12.2239 6.22386 12 6.5 12H9.5C9.77614 12 10 12.2239 10 12.5C10 12.7761 9.77614 13 9.5 13H6.5C6.22386 13 6 12.7761 6 12.5Z" fill="black"/>
<path d="M3 8.06155C3 6.76041 4.23471 5.76462 5.53019 5.88584C6.23775 5.95205 7.07092 6 8 6C8.92908 6 9.76225 5.95205 10.4698 5.88584C11.7653 5.76462 13 6.76041 13 8.06155V9.21922C13 9.67809 12.6875 10.075 12.2354 10.1536C11.3904 10.3006 9.8946 10.5 8 10.5C6.1054 10.5 4.60964 10.3006 3.76458 10.1536C3.3125 10.075 3 9.67809 3 9.21922V8.06155ZM7.54195 7.23501C7.46308 7.22158 7.38255 7.24672 7.32532 7.30262L6.40429 8.20222C5.67721 8.15847 5.04611 8.09004 4.53396 8.01982C4.39717 8.00107 4.27107 8.09676 4.25232 8.23355C4.23356 8.37034 4.32925 8.49643 4.46604 8.51519C5.01572 8.59055 5.69797 8.6637 6.48603 8.7078C6.55606 8.71172 6.62451 8.68605 6.67468 8.63704L7.42865 7.90061L8.27598 9.61099C8.31213 9.68395 8.38155 9.73474 8.46203 9.74711C8.54251 9.75947 8.62397 9.73187 8.68036 9.67313L9.6124 8.70211C10.3589 8.65757 11.0073 8.58739 11.534 8.51519C11.6707 8.49643 11.7664 8.37034 11.7477 8.23355C11.7289 8.09676 11.6028 8.00107 11.466 8.01982C10.9283 8.09354 10.2594 8.16531 9.48603 8.20859C9.42289 8.21212 9.36343 8.23945 9.31964 8.28508L8.56605 9.07017L7.72402 7.37048C7.6885 7.29879 7.62082 7.24843 7.54195 7.23501Z" fill="black"/>
<path d="M8.5 1.86622C8.7989 1.69331 9 1.37014 9 1C9 0.447715 8.55229 0 8 0C7.44772 0 7 0.447715 7 1C7 1.37014 7.2011 1.69331 7.5 1.86622V3H5.5C3.01472 3 1 5.01472 1 7.5V8C0.447715 8 0 8.44771 0 9V11C0 11.5523 0.447715 12 1 12V13C1 14.1046 1.89543 15 3 15H13C14.1046 15 15 14.1046 15 13V12C15.5523 12 16 11.5523 16 11V9C16 8.44771 15.5523 8 15 8V7.5C15 5.01472 12.9853 3 10.5 3H8.5V1.86622ZM14 7.5V13C14 13.5523 13.5523 14 13 14H3C2.44772 14 2 13.5523 2 13V7.5C2 5.567 3.567 4 5.5 4H10.5C12.433 4 14 5.567 14 7.5Z" fill="black"/>
</svg>
