<svg width="16" height="16" viewBox="0 0 16 16" fill="none" xmlns="http://www.w3.org/2000/svg">
<path d="M12.1705 9.52996C14.4768 6.93819 15.4485 4.8461 15.8112 3.31208C16.021 2.42489 16.0251 1.73184 15.9702 1.24725C15.9428 1.0055 15.9009 0.817113 15.8634 0.683788C15.8447 0.61716 15.8271 0.564363 15.813 0.525597C15.8042 0.501424 15.7949 0.477324 15.7846 0.453753L15.7841 0.452645C15.7117 0.288877 15.6175 0.218514 15.4328 0.158432C15.3938 0.145724 15.3404 0.129842 15.273 0.113075C15.1382 0.0795288 14.9474 0.0425107 14.7031 0.0202655C14.2136 -0.0243084 13.5139 -0.00910254 12.6233 0.207845C11.087 0.582121 9.00472 1.55098 6.46179 3.8118L4.06165 4.04986L4.05558 4.05049C3.47928 4.11462 2.94194 4.37328 2.53193 4.78392L0.149594 7.16987C-0.00584799 7.32555 -0.0443756 7.56337 0.0539342 7.76029C0.152244 7.95721 0.365333 8.06904 0.58295 8.0379L2.47913 7.76661C2.75902 7.72656 3.07139 7.78038 3.43388 7.89875C3.66624 7.97463 3.87126 8.05842 4.08852 8.1472C4.15448 8.17415 4.22221 8.20183 4.29154 8.22962C4.48832 9.04629 4.95281 9.81031 5.56655 10.425C6.18017 11.0395 6.94285 11.5047 7.75808 11.7018C7.78581 11.7711 7.81316 11.8381 7.84006 11.9041C7.92902 12.1222 8.01297 12.328 8.08886 12.5609C8.20713 12.9239 8.26089 13.2367 8.22089 13.5171L7.95001 15.4162C7.91892 15.6341 8.03059 15.8475 8.2272 15.946C8.42382 16.0444 8.66128 16.0059 8.81673 15.8502L11.1991 13.4642C11.6091 13.0536 11.8673 12.5154 11.9314 11.9383L12.1705 9.52996ZM12.2803 5.83147C11.4825 6.63047 10.3507 6.7924 9.75235 6.19315C9.15401 5.5939 9.31569 4.46039 10.1135 3.66139C10.9113 2.86239 12.0431 2.70046 12.6414 3.29971C13.2397 3.89896 13.0781 5.03247 12.2803 5.83147Z" fill="black"/>
<path d="M5.20542 10.7867C5.74678 11.3289 6.36239 11.7966 7.00888 12.1388C5.89051 13.1455 2.08043 14.1672 1.95525 14.0418C1.82893 13.9153 2.69212 9.85303 3.79403 8.86118C4.14009 9.55215 4.6309 10.2113 5.20542 10.7867Z" fill="black"/>
</svg>
