<svg width="16" height="16" viewBox="0 0 16 16" fill="none" xmlns="http://www.w3.org/2000/svg">
<path d="M10.1755 1.99134C10.9848 3.30277 11.7582 5.42154 11.9531 8.8096L13.4522 10.6398C13.8068 11.0831 14 11.6339 14 12.2016V15.5C14 15.7152 13.8623 15.9063 13.6581 15.9743C13.4539 16.0424 13.2291 15.9722 13.1 15.8L11.9749 14.2998C11.8087 14.0783 11.5553 13.8993 11.2225 13.7303C11.009 13.6218 10.8086 13.5377 10.5963 13.4485C10.5321 13.4215 10.4668 13.3941 10.3997 13.3654C9.69907 13.7935 8.84958 14 8 14C7.15025 14 6.30059 13.7934 5.59987 13.3652C5.53245 13.3941 5.46685 13.4216 5.40235 13.4487C5.19059 13.5378 4.99074 13.6218 4.77743 13.7302C4.44467 13.8993 4.19123 14.0784 4.02515 14.2998L2.9 15.8C2.77087 15.9722 2.54606 16.0424 2.34189 15.9743C2.13772 15.9063 2 15.7152 2 15.5V12.2016C2 11.6339 2.1932 11.0831 2.54783 10.6398L2.55159 10.6352L4.04858 8.80909C4.24626 5.48597 5.01803 3.37481 5.8229 2.05253C6.28944 1.28607 6.76331 0.791182 7.13303 0.483078C7.31755 0.329315 7.47518 0.222854 7.59172 0.152695C7.64996 0.11763 7.69788 0.0916678 7.7337 0.0734181C7.81554 0.0317193 7.89212 7.34582e-05 8 1.30466e-07C8.10103 -6.82875e-05 8.1707 0.0267797 8.25064 0.0640618C8.28719 0.0811065 8.33587 0.105416 8.39489 0.138503C8.51299 0.204711 8.67223 0.305906 8.8583 0.454044C9.23127 0.750981 9.70748 1.23288 10.1755 1.99134ZM9.5 6C9.5 4.89543 8.82843 4 8 4C7.17157 4 6.5 4.89543 6.5 6C6.5 7.10457 7.17157 8 8 8C8.82843 8 9.5 7.10457 9.5 6Z" fill="black"/>
<path d="M8.00002 14.5C8.49947 14.5 8.9989 14.4543 9.47895 14.3614L8.40002 15.8C8.30559 15.9259 8.1574 16 8.00002 16C7.84264 16 7.69444 15.9259 7.60002 15.8L6.52108 14.3614C7.00114 14.4543 7.50057 14.5 8.00002 14.5Z" fill="black"/>
</svg>
