<svg width="16" height="16" viewBox="0 0 16 16" fill="none" xmlns="http://www.w3.org/2000/svg">
<path d="M5.52518 3.02513C6.89202 1.65829 9.1081 1.65829 10.4749 3.02513C10.6702 3.22039 10.9868 3.22039 11.182 3.02513C11.3773 2.82986 11.3773 2.51328 11.182 2.31802C9.42468 0.56066 6.57544 0.56066 4.81808 2.31802C4.62282 2.51328 4.62282 2.82986 4.81808 3.02513C5.01334 3.22039 5.32992 3.22039 5.52518 3.02513Z" fill="black"/>
<path d="M6.9394 4.43934C7.52518 3.85355 8.47493 3.85355 9.06072 4.43934C9.25598 4.6346 9.57256 4.6346 9.76783 4.43934C9.96309 4.24408 9.96309 3.9275 9.76783 3.73223C8.79151 2.75592 7.2086 2.75592 6.23229 3.73223C6.03703 3.9275 6.03703 4.24408 6.23229 4.43934C6.42755 4.6346 6.74414 4.6346 6.9394 4.43934Z" fill="black"/>
<path d="M2.97434 2.34188C2.88702 2.07991 2.60386 1.93833 2.34189 2.02566C2.07991 2.11298 1.93833 2.39614 2.02566 2.65811L3.80629 8H1.5C0.671573 8 0 8.67157 0 9.5V11.5C0 12.3284 0.671573 13 1.5 13H2C2 13.2761 2.22386 13.5 2.5 13.5H4.5C4.77614 13.5 5 13.2761 5 13H11C11 13.2761 11.2239 13.5 11.5 13.5H13.5C13.7761 13.5 14 13.2761 14 13H14.5C15.3284 13 16 12.3284 16 11.5V9.5C16 8.67157 15.3284 8 14.5 8H12.1937L13.9743 2.65811C14.0617 2.39614 13.9201 2.11298 13.6581 2.02566C13.3961 1.93833 13.113 2.07991 13.0257 2.34188L11.1396 8H4.86038L2.97434 2.34188ZM2.5 11C2.22386 11 2 10.7761 2 10.5C2 10.2239 2.22386 10 2.5 10C2.77614 10 3 10.2239 3 10.5C3 10.7761 2.77614 11 2.5 11ZM7 10.5C7 10.2239 7.22386 10 7.5 10C7.77614 10 8 10.2239 8 10.5C8 10.7761 7.77614 11 7.5 11C7.22386 11 7 10.7761 7 10.5ZM9.5 11C9.22386 11 9 10.7761 9 10.5C9 10.2239 9.22386 10 9.5 10C9.77614 10 10 10.2239 10 10.5C10 10.7761 9.77614 11 9.5 11ZM11 10.5C11 10.2239 11.2239 10 11.5 10C11.7761 10 12 10.2239 12 10.5C12 10.7761 11.7761 11 11.5 11C11.2239 11 11 10.7761 11 10.5ZM13 10.5C13 10.2239 13.2239 10 13.5 10C13.7761 10 14 10.2239 14 10.5C14 10.7761 13.7761 11 13.5 11C13.2239 11 13 10.7761 13 10.5Z" fill="black"/>
<path d="M8.50006 5.50001C8.50006 5.77615 8.2762 6.00001 8.00006 6.00001C7.72392 6.00001 7.50006 5.77615 7.50006 5.50001C7.50006 5.22386 7.72392 5.00001 8.00006 5.00001C8.2762 5.00001 8.50006 5.22386 8.50006 5.50001Z" fill="black"/>
</svg>
