<svg width="16" height="16" viewBox="0 0 16 16" fill="none" xmlns="http://www.w3.org/2000/svg">
<path d="M2 0C0.895431 0 0 0.895431 0 2V14C0 15.1046 0.895431 16 2 16H14C15.1046 16 16 15.1046 16 14V2C16 0.895431 15.1046 0 14 0H2ZM3.5 2.5C9.02285 2.5 13.5 6.97715 13.5 12.5C13.5 13.0523 13.0523 13.5 12.5 13.5C11.9477 13.5 11.5 13.0523 11.5 12.5C11.5 8.08172 7.91828 4.5 3.5 4.5C2.94772 4.5 2.5 4.05228 2.5 3.5C2.5 2.94772 2.94772 2.5 3.5 2.5ZM3.5 6.5C6.81371 6.5 9.5 9.18629 9.5 12.5C9.5 13.0523 9.05228 13.5 8.5 13.5C7.94772 13.5 7.5 13.0523 7.5 12.5C7.5 10.2909 5.70914 8.5 3.5 8.5C2.94772 8.5 2.5 8.05228 2.5 7.5C2.5 6.94772 2.94772 6.5 3.5 6.5ZM4 13.5C3.17157 13.5 2.5 12.8284 2.5 12C2.5 11.1716 3.17157 10.5 4 10.5C4.82843 10.5 5.5 11.1716 5.5 12C5.5 12.8284 4.82843 13.5 4 13.5Z" fill="black"/>
</svg>
