<svg width="16" height="16" viewBox="0 0 16 16" fill="none" xmlns="http://www.w3.org/2000/svg">
<path d="M6.56301 8L5.03544 8C5.12026 7.40705 5.35369 6.86204 5.69681 6.40392L6.77691 7.48402C6.68286 7.64317 6.61024 7.81649 6.56301 8Z" fill="black"/>
<path d="M7.48401 6.77691L6.40391 5.69681C6.86203 5.3537 7.40704 5.12026 8 5.03544L8 6.56301C7.81649 6.61024 7.64317 6.68286 7.48401 6.77691Z" fill="black"/>
<path d="M9 6.56301L9 5.03544C9.59295 5.12026 10.138 5.3537 10.5961 5.69681L9.51598 6.77691C9.35683 6.68286 9.18351 6.61024 9 6.56301Z" fill="black"/>
<path d="M10.2231 7.48401L11.3032 6.40391C11.6463 6.86204 11.8797 7.40705 11.9646 8L10.437 8C10.3898 7.81649 10.3171 7.64317 10.2231 7.48401Z" fill="black"/>
<path d="M10.437 9L11.9646 9C11.8797 9.59295 11.6463 10.138 11.3032 10.5961L10.2231 9.51599C10.3171 9.35683 10.3898 9.18351 10.437 9Z" fill="black"/>
<path d="M9.51598 10.2231L10.5961 11.3032C10.138 11.6463 9.59295 11.8797 9 11.9646L9 10.437C9.18351 10.3898 9.35683 10.3171 9.51598 10.2231Z" fill="black"/>
<path d="M8 10.437L8 11.9646C7.40704 11.8797 6.86203 11.6463 6.40391 11.3032L7.48401 10.2231C7.64317 10.3171 7.81649 10.3898 8 10.437Z" fill="black"/>
<path d="M6.77691 9.51598L5.69681 10.5961C5.3537 10.138 5.12026 9.59295 5.03544 9H6.56301C6.61024 9.18351 6.68286 9.35683 6.77691 9.51598Z" fill="black"/>
<path d="M7.5 8.5C7.5 7.94772 7.94772 7.5 8.5 7.5C9.05228 7.5 9.5 7.94772 9.5 8.5C9.5 9.05228 9.05228 9.5 8.5 9.5C7.94772 9.5 7.5 9.05228 7.5 8.5Z" fill="black"/>
<path d="M2.5 1C1.67157 1 1 1.67157 1 2.5V3H0.5C0.223858 3 0 3.22386 0 3.5C0 3.77614 0.223858 4 0.5 4H1V8H0.5C0.223858 8 0 8.22386 0 8.5C0 8.77614 0.223858 9 0.5 9H1V13H0.5C0.223858 13 0 13.2239 0 13.5C0 13.7761 0.223858 14 0.5 14H1V14.5C1 15.3284 1.67157 16 2.5 16H14.5C15.3284 16 16 15.3284 16 14.5V2.5C16 1.67157 15.3284 1 14.5 1H2.5ZM8.5 4C10.9853 4 13 6.01472 13 8.5C13 10.9853 10.9853 13 8.5 13C6.01472 13 4 10.9853 4 8.5C4 6.01472 6.01472 4 8.5 4Z" fill="black"/>
</svg>
