<svg width="16" height="16" viewBox="0 0 16 16" fill="none" xmlns="http://www.w3.org/2000/svg">
<path d="M1 2.5C1 1.67157 1.67157 1 2.5 1H14.5C15.3284 1 16 1.67157 16 2.5V14.5C16 15.3284 15.3284 16 14.5 16H2.5C1.67157 16 1 15.3284 1 14.5V14H0.5C0.223858 14 0 13.7761 0 13.5C0 13.2239 0.223858 13 0.5 13H1V9H0.5C0.223858 9 0 8.77614 0 8.5C0 8.22386 0.223858 8 0.5 8H1V4H0.5C0.223858 4 0 3.77614 0 3.5C0 3.22386 0.223858 3 0.5 3H1V2.5ZM2.5 2C2.22386 2 2 2.22386 2 2.5V14.5C2 14.7761 2.22386 15 2.5 15H14.5C14.7761 15 15 14.7761 15 14.5V2.5C15 2.22386 14.7761 2 14.5 2H2.5Z" fill="black"/>
<path d="M5.03544 8L6.56301 8C6.61024 7.81649 6.68286 7.64317 6.77691 7.48402L5.69681 6.40392C5.35369 6.86204 5.12026 7.40705 5.03544 8ZM6.40391 5.69681L7.48401 6.77691C7.64317 6.68286 7.81649 6.61024 8 6.56301L8 5.03544C7.40704 5.12026 6.86203 5.3537 6.40391 5.69681ZM9 5.03544L9 6.56301C9.18351 6.61024 9.35683 6.68286 9.51598 6.77691L10.5961 5.69681C10.138 5.3537 9.59295 5.12026 9 5.03544ZM11.3032 6.40391L10.2231 7.48401C10.3171 7.64317 10.3898 7.81649 10.437 8L11.9646 8C11.8797 7.40705 11.6463 6.86204 11.3032 6.40391ZM11.9646 9L10.437 9C10.3898 9.18351 10.3171 9.35683 10.2231 9.51599L11.3032 10.5961C11.6463 10.138 11.8797 9.59295 11.9646 9ZM10.5961 11.3032L9.51598 10.2231C9.35683 10.3171 9.18351 10.3898 9 10.437L9 11.9646C9.59295 11.8797 10.138 11.6463 10.5961 11.3032ZM8 11.9646L8 10.437C7.81649 10.3898 7.64317 10.3171 7.48401 10.2231L6.40391 11.3032C6.86203 11.6463 7.40704 11.8797 8 11.9646ZM5.69681 10.5961L6.77691 9.51598C6.68286 9.35683 6.61024 9.18351 6.56301 9H5.03544C5.12026 9.59295 5.3537 10.138 5.69681 10.5961ZM4 8.5C4 6.01472 6.01472 4 8.5 4C10.9853 4 13 6.01472 13 8.5C13 10.9853 10.9853 13 8.5 13C6.01472 13 4 10.9853 4 8.5ZM8.5 7.5C7.94772 7.5 7.5 7.94772 7.5 8.5C7.5 9.05228 7.94772 9.5 8.5 9.5C9.05228 9.5 9.5 9.05228 9.5 8.5C9.5 7.94772 9.05228 7.5 8.5 7.5Z" fill="black"/>
</svg>
