<svg width="16" height="16" viewBox="0 0 16 16" fill="none" xmlns="http://www.w3.org/2000/svg">
<path d="M1 1.5C1 0.671573 1.67157 0 2.5 0H14.5C15.3284 0 16 0.671573 16 1.5V14.5C16 15.3284 15.3284 16 14.5 16H2.5C1.67157 16 1 15.3284 1 14.5V13H0.5C0.223858 13 0 12.7761 0 12.5C0 12.2239 0.223858 12 0.5 12H1V8.5H0.5C0.223858 8.5 0 8.27614 0 8C0 7.72386 0.223858 7.5 0.5 7.5H1V4H0.5C0.223858 4 0 3.77614 0 3.5C0 3.22386 0.223858 3 0.5 3H1V1.5ZM2.5 1C2.22386 1 2 1.22386 2 1.5V14.5C2 14.7761 2.22386 15 2.5 15H14.5C14.7761 15 15 14.7761 15 14.5V1.5C15 1.22386 14.7761 1 14.5 1H2.5Z" fill="black"/>
<path d="M13.5 6C13.7761 6 14 6.22386 14 6.5V9.5C14 9.77614 13.7761 10 13.5 10C13.2239 10 13 9.77614 13 9.5V6.5C13 6.22386 13.2239 6 13.5 6Z" fill="black"/>
<path d="M4.82843 4.46447C5.02369 4.2692 5.34027 4.2692 5.53553 4.46447L6.62552 5.55446C7.66286 4.81518 9.06506 4.81518 10.1024 5.55446L11.1924 4.46447C11.3876 4.2692 11.7042 4.2692 11.8995 4.46447C12.0948 4.65973 12.0948 4.97631 11.8995 5.17157L10.8095 6.26156C11.5488 7.2989 11.5488 8.7011 10.8095 9.73844L11.8995 10.8284C12.0948 11.0237 12.0948 11.3403 11.8995 11.5355C11.7042 11.7308 11.3876 11.7308 11.1924 11.5355L10.1024 10.4455C9.06506 11.1848 7.66286 11.1848 6.62552 10.4455L5.53553 11.5355C5.34027 11.7308 5.02369 11.7308 4.82843 11.5355C4.63316 11.3403 4.63316 11.0237 4.82843 10.8284L5.91842 9.73844C5.17914 8.7011 5.17914 7.2989 5.91842 6.26156L4.82843 5.17157C4.63316 4.97631 4.63316 4.65973 4.82843 4.46447ZM6.94975 6.58579C6.1687 7.36683 6.1687 8.63316 6.94975 9.41421C7.7308 10.1953 8.99713 10.1953 9.77817 9.41421C10.5592 8.63316 10.5592 7.36683 9.77817 6.58579C8.99713 5.80474 7.7308 5.80474 6.94975 6.58579Z" fill="black"/>
</svg>
