<svg width="16" height="16" viewBox="0 0 16 16" fill="none" xmlns="http://www.w3.org/2000/svg">
<path d="M2 1C1.44772 1 1 1.44772 1 2V14C1 14.5523 1.44772 15 2 15H14C14.5523 15 15 14.5523 15 14V2C15 1.44772 14.5523 1 14 1H9.5C8.94771 1 8.5 1.44772 8.5 2V6.5H10.5C10.7022 6.5 10.8845 6.62182 10.9619 6.80866C11.0393 6.9955 10.9966 7.21055 10.8536 7.35355L8.35355 9.85355C8.15829 10.0488 7.84171 10.0488 7.64645 9.85355L5.14645 7.35355C5.00345 7.21055 4.96067 6.9955 5.03806 6.80866C5.11545 6.62182 5.29777 6.5 5.5 6.5H7.5V2C7.5 0.895431 8.39543 0 9.5 0H14C15.1046 0 16 0.895431 16 2V14C16 15.1046 15.1046 16 14 16H2C0.89543 16 0 15.1046 0 14V2C0 0.895431 0.895431 0 2 0H4.5C4.77614 0 5 0.223858 5 0.5C5 0.776142 4.77614 1 4.5 1H2Z" fill="black"/>
</svg>
