<svg width="16" height="16" viewBox="0 0 16 16" fill="none" xmlns="http://www.w3.org/2000/svg">
<path d="M8.5 1.5C8.5 0.671573 9.17157 0 10 0H14C15.1046 0 16 0.895431 16 2V14C16 15.1046 15.1046 16 14 16H2C0.895431 16 0 15.1046 0 14V2C0 0.895431 0.895431 0 2 0H7.99982C7.68597 0.41783 7.5 0.937197 7.5 1.5V7.5H5.5C5.29777 7.5 5.11545 7.62182 5.03806 7.80866C4.96067 7.9955 5.00345 8.21055 5.14645 8.35355L7.64645 10.8536C7.84171 11.0488 8.15829 11.0488 8.35355 10.8536L10.8536 8.35355C10.9966 8.21055 11.0393 7.9955 10.9619 7.80866C10.8845 7.62182 10.7022 7.5 10.5 7.5H8.5V1.5Z" fill="black"/>
</svg>
