<svg width="16" height="16" viewBox="0 0 16 16" fill="none" xmlns="http://www.w3.org/2000/svg">
<path d="M2 1C1.44772 1 1 1.44772 1 2V14C1 14.5523 1.44772 15 2 15H14C14.5523 15 15 14.5523 15 14V2C15 1.44772 14.5523 1 14 1H9.5C8.94771 1 8.5 1.44772 8.5 2V9.29289L11.1464 6.64645C11.3417 6.45118 11.6583 6.45118 11.8536 6.64645C12.0488 6.84171 12.0488 7.15829 11.8536 7.35355L8.35355 10.8536C8.15829 11.0488 7.84171 11.0488 7.64645 10.8536L4.14645 7.35355C3.95118 7.15829 3.95118 6.84171 4.14645 6.64645C4.34171 6.45118 4.65829 6.45118 4.85355 6.64645L7.5 9.29289V2C7.5 0.895431 8.39543 0 9.5 0H14C15.1046 0 16 0.895431 16 2V14C16 15.1046 15.1046 16 14 16H2C0.89543 16 0 15.1046 0 14V2C0 0.895431 0.895431 0 2 0H4.5C4.77614 0 5 0.223858 5 0.5C5 0.776142 4.77614 1 4.5 1H2Z" fill="black"/>
</svg>
