<svg width="16" height="16" viewBox="0 0 16 16" fill="none" xmlns="http://www.w3.org/2000/svg">
<path d="M8.5 1.5C8.5 0.671573 9.17157 0 10 0H14C15.1046 0 16 0.895431 16 2V14C16 15.1046 15.1046 16 14 16H2C0.895431 16 0 15.1046 0 14V2C0 0.895431 0.895431 0 2 0H7.99982C7.68597 0.41783 7.5 0.937197 7.5 1.5V9.29289L4.85355 6.64645C4.65829 6.45118 4.34171 6.45118 4.14645 6.64645C3.95118 6.84171 3.95118 7.15829 4.14645 7.35355L7.64645 10.8536C7.84171 11.0488 8.15829 11.0488 8.35355 10.8536L11.8536 7.35355C12.0488 7.15829 12.0488 6.84171 11.8536 6.64645C11.6583 6.45118 11.3417 6.45118 11.1464 6.64645L8.5 9.29289V1.5Z" fill="black"/>
</svg>
