<svg width="16" height="16" viewBox="0 0 16 16" fill="none" xmlns="http://www.w3.org/2000/svg">
<path d="M3.5 3.5C2.88611 2.61554 3.42557 1.53831 4.35796 1L8 7.2262L11.642 1C12.5744 1.53831 13.1139 2.61554 12.5001 3.5L8.80947 8.61002L10.3662 11.2713C10.7065 11.0978 11.0918 11 11.5 11C12.8807 11 14 12.1193 14 13.5C14 14.8807 12.8807 16 11.5 16C10.1193 16 9 14.8807 9 13.5C9 12.8951 9.21484 12.3404 9.57239 11.9079L8.00001 9.7308L6.42762 11.9079C6.78516 12.3404 7 12.8951 7 13.5C7 14.8807 5.88071 16 4.5 16C3.11929 16 2 14.8807 2 13.5C2 12.1193 3.11929 11 4.5 11C4.90817 11 5.29349 11.0978 5.63381 11.2713L7.19054 8.61L3.5 3.5ZM6 13.5C6 12.6716 5.32843 12 4.5 12C3.67157 12 3 12.6716 3 13.5C3 14.3284 3.67157 15 4.5 15C5.32843 15 6 14.3284 6 13.5ZM13 13.5C13 12.6716 12.3284 12 11.5 12C10.6716 12 10 12.6716 10 13.5C10 14.3284 10.6716 15 11.5 15C12.3284 15 13 14.3284 13 13.5Z" fill="black"/>
</svg>
