<svg width="16" height="16" viewBox="0 0 16 16" fill="none" xmlns="http://www.w3.org/2000/svg">
<path fill-rule="evenodd" clip-rule="evenodd" d="M9 2.5C9 2.22386 9.22386 2 9.5 2H12.5C12.7761 2 13 2.22386 13 2.5C13 2.77614 12.7761 3 12.5 3H12.1099L13.5099 10C14.8861 10.0054 16 11.1226 16 12.5C16 13.8807 14.8807 15 13.5 15C12.1193 15 11 13.8807 11 12.5C11 11.4636 11.6307 10.5745 12.5292 10.1955L12.3414 9.25669L9.91175 12.7837C9.81844 12.9191 9.66448 13 9.5 13H4.94999C4.71836 14.1411 3.70948 15 2.5 15C1.11929 15 0 13.8807 0 12.5C0 11.1193 1.11929 10 2.5 10C3.70948 10 4.71836 10.8589 4.94999 12H9.23729L12.0682 7.89059L11.0901 3H9.5C9.22386 3 9 2.77614 9 2.5ZM3.91465 12C3.70873 11.4174 3.15311 11 2.5 11C1.67157 11 1 11.6716 1 12.5C1 13.3284 1.67157 14 2.5 14C3.15311 14 3.70873 13.5826 3.91465 13H2.5C2.22386 13 2 12.7761 2 12.5C2 12.2239 2.22386 12 2.5 12H3.91465ZM12.7323 11.2111C12.2937 11.4728 12 11.9521 12 12.5C12 13.3284 12.6716 14 13.5 14C14.3284 14 15 13.3284 15 12.5C15 11.7438 14.4405 11.1184 13.7129 11.015L13.9903 12.4019C14.0444 12.6727 13.8688 12.9361 13.5981 12.9903C13.3273 13.0444 13.0639 12.8688 13.0097 12.5981L12.7323 11.2111Z" fill="black"/>
</svg>
