<svg width="16" height="16" viewBox="0 0 16 16" fill="none" xmlns="http://www.w3.org/2000/svg">
<path d="M0 0.994667L0.994667 0L4.05947 2.18915C4.32087 2.37586 4.476 2.67731 4.476 2.99854V3.06933C4.476 3.33313 4.5808 3.58613 4.76733 3.77267L10.444 9.44934L11.3528 9.1464C11.7102 9.02726 12.1043 9.12028 12.3707 9.38669L15.7087 12.7247C16.0971 13.1131 16.0971 13.7429 15.7087 14.1313L14.1313 15.7087C13.7429 16.0971 13.1131 16.0971 12.7247 15.7087L9.38669 12.3707C9.12028 12.1043 9.02726 11.7102 9.1464 11.3528L9.44934 10.444L3.77267 4.76733C3.58613 4.5808 3.33313 4.476 3.06933 4.476H2.99854C2.67731 4.476 2.37586 4.32087 2.18915 4.05947L0 0.994667ZM11.293 10.5897C11.0988 10.3954 10.7839 10.3954 10.5897 10.5897C10.3954 10.7839 10.3954 11.0988 10.5897 11.293L13.5737 14.277C13.7679 14.4712 14.0828 14.4712 14.277 14.277C14.4712 14.0828 14.4712 13.7679 14.277 13.5737L11.293 10.5897Z" fill="black"/>
</svg>
