<svg width="16" height="16" viewBox="0 0 16 16" fill="none" xmlns="http://www.w3.org/2000/svg">
<path d="M6.25 3.5C6.25 3.08579 5.91421 2.75 5.5 2.75C5.08579 2.75 4.75 3.08579 4.75 3.5V5.5C4.75 5.91421 5.08579 6.25 5.5 6.25C5.91421 6.25 6.25 5.91421 6.25 5.5V3.5Z" fill="black"/>
<path d="M8.25 3.5C8.25 3.08579 7.91421 2.75 7.5 2.75C7.08579 2.75 6.75 3.08579 6.75 3.5V5.5C6.75 5.91421 7.08579 6.25 7.5 6.25C7.91421 6.25 8.25 5.91421 8.25 5.5V3.5Z" fill="black"/>
<path d="M10.25 3.5C10.25 3.08579 9.91421 2.75 9.5 2.75C9.08579 2.75 8.75 3.08579 8.75 3.5V5.5C8.75 5.91421 9.08579 6.25 9.5 6.25C9.91421 6.25 10.25 5.91421 10.25 5.5V3.5Z" fill="black"/>
<path d="M12.25 3.5C12.25 3.08579 11.9142 2.75 11.5 2.75C11.0858 2.75 10.75 3.08579 10.75 3.5V5.5C10.75 5.91421 11.0858 6.25 11.5 6.25C11.9142 6.25 12.25 5.91421 12.25 5.5V3.5Z" fill="black"/>
<path d="M5.91421 0H12.5C13.3284 0 14 0.671573 14 1.5V14.5C14 15.3284 13.3284 16 12.5 16H3.5C2.67157 16 2 15.3284 2 14.5V3.91421C2 3.51639 2.15804 3.13486 2.43934 2.85355L4.85355 0.43934C5.13486 0.158035 5.51639 0 5.91421 0ZM13 1.5C13 1.22386 12.7761 1 12.5 1H5.91421C5.7816 1 5.65443 1.05268 5.56066 1.14645L3.14645 3.56066C3.05268 3.65443 3 3.78161 3 3.91421V14.5C3 14.7761 3.22386 15 3.5 15H12.5C12.7761 15 13 14.7761 13 14.5V1.5Z" fill="black"/>
</svg>
