<svg width="16" height="16" viewBox="0 0 16 16" fill="none" xmlns="http://www.w3.org/2000/svg">
<path d="M12.5 0H5.91421C5.51639 0 5.13486 0.158035 4.85355 0.43934L2.43934 2.85355C2.15804 3.13486 2 3.51639 2 3.91421V14.5C2 15.3284 2.67157 16 3.5 16H12.5C13.3284 16 14 15.3284 14 14.5V1.5C14 0.671573 13.3284 0 12.5 0ZM5.5 2.75C5.91421 2.75 6.25 3.08579 6.25 3.5V5.5C6.25 5.91421 5.91421 6.25 5.5 6.25C5.08579 6.25 4.75 5.91421 4.75 5.5V3.5C4.75 3.08579 5.08579 2.75 5.5 2.75ZM7.5 2.75C7.91421 2.75 8.25 3.08579 8.25 3.5V5.5C8.25 5.91421 7.91421 6.25 7.5 6.25C7.08579 6.25 6.75 5.91421 6.75 5.5V3.5C6.75 3.08579 7.08579 2.75 7.5 2.75ZM10.25 3.5V5.5C10.25 5.91421 9.91421 6.25 9.5 6.25C9.08579 6.25 8.75 5.91421 8.75 5.5V3.5C8.75 3.08579 9.08579 2.75 9.5 2.75C9.91421 2.75 10.25 3.08579 10.25 3.5ZM11.5 2.75C11.9142 2.75 12.25 3.08579 12.25 3.5V5.5C12.25 5.91421 11.9142 6.25 11.5 6.25C11.0858 6.25 10.75 5.91421 10.75 5.5V3.5C10.75 3.08579 11.0858 2.75 11.5 2.75Z" fill="black"/>
</svg>
