<svg width="16" height="16" viewBox="0 0 16 16" fill="none" xmlns="http://www.w3.org/2000/svg">
<path d="M6.5 4.4818C8.16439 2.80907 12.3254 5.73635 6.5 9.5C0.674648 5.73635 4.83561 2.80907 6.5 4.4818Z" fill="black"/>
<path d="M13 6.5C13 7.9382 12.5329 9.2673 11.7422 10.3439C11.7822 10.3734 11.8204 10.4062 11.8566 10.4424L15.7071 14.2929C16.0976 14.6834 16.0976 15.3166 15.7071 15.7071C15.3166 16.0976 14.6834 16.0976 14.2929 15.7071L10.4424 11.8566C10.4062 11.8204 10.3734 11.7822 10.3439 11.7422L10.3448 11.7415C9.26801 12.5327 7.93858 13 6.5 13C2.91015 13 0 10.0899 0 6.5C0 2.91015 2.91015 0 6.5 0C10.0899 0 13 2.91015 13 6.5ZM6.5 12C9.53757 12 12 9.53757 12 6.5C12 3.46243 9.53757 1 6.5 1C3.46243 1 1 3.46243 1 6.5C1 9.53757 3.46243 12 6.5 12Z" fill="black"/>
</svg>
