<svg width="16" height="16" viewBox="0 0 16 16" fill="none" xmlns="http://www.w3.org/2000/svg">
<path d="M6.50002 13C7.50966 13 8.46553 12.7698 9.31802 12.359C9.68019 12.1845 10.0237 11.9774 10.3448 11.7415L10.3439 11.7422C10.3734 11.7822 10.4062 11.8204 10.4424 11.8566L14.2929 15.7071C14.6834 16.0976 15.3166 16.0976 15.7071 15.7071C16.0976 15.3166 16.0976 14.6834 15.7071 14.2929L11.8567 10.4424C11.8205 10.4062 11.7822 10.3734 11.7422 10.3439C12.5329 9.2673 13 7.9382 13 6.5C13 5.06265 12.5335 3.73426 11.7435 2.65801C10.8072 1.38228 9.41656 0.46081 7.80998 0.132057C7.38684 0.0454711 6.94873 0 6.5 0C2.91015 0 0 2.91015 0 6.5C0 7.74577 0.350462 8.90969 0.958173 9.89855C2.10165 11.7592 4.15594 13 6.50002 13ZM6.5 4.4818C8.16439 2.80907 12.3254 5.73635 6.5 9.5C0.674648 5.73635 4.83561 2.80907 6.5 4.4818Z" fill="black"/>
</svg>
