<svg width="16" height="16" viewBox="0 0 16 16" fill="none" xmlns="http://www.w3.org/2000/svg">
<path d="M15.9642 0.68571C16.0385 0.500001 15.995 0.287892 15.8536 0.146461C15.7121 0.00502989 15.5 -0.0385071 15.3143 0.0357762L0.767199 5.85462L0.765743 5.8552L0.314312 6.03578C0.140137 6.10545 0.0196145 6.26675 0.00217278 6.45353C-0.0152689 6.64031 0.0733055 6.82113 0.231569 6.92185L0.641189 7.18251L0.643086 7.18372L5.63783 10.3622L8.81629 15.3569L8.81781 15.3593L9.07818 15.7685C9.17889 15.9267 9.35972 16.0153 9.5465 15.9978C9.73327 15.9804 9.89458 15.8599 9.96424 15.6857L15.9642 0.68571ZM14.1311 2.57603L6.63717 10.0699L6.42184 9.73158C6.38255 9.66984 6.33019 9.61747 6.26845 9.57818L5.93006 9.36284L13.4239 1.86896L14.6025 1.39754L14.1311 2.57603Z" fill="black"/>
</svg>
