<svg width="16" height="16" viewBox="0 0 16 16" fill="none" xmlns="http://www.w3.org/2000/svg">
<path d="M15.9642 0.68571C16.0385 0.500001 15.995 0.287892 15.8535 0.146461C15.7121 0.00502989 15.5 -0.0385071 15.3143 0.0357762L0.767192 5.85462C0.199737 6.0816 0.127464 6.8556 0.643079 7.18372L5.63782 10.3622L7.16907 12.7685C7.31733 13.0014 7.62637 13.0701 7.85934 12.9218C8.09231 12.7736 8.16099 12.4645 8.01273 12.2316L6.63716 10.07L14.1311 2.57605L12.2358 7.31432C12.1332 7.57071 12.2579 7.8617 12.5143 7.96425C12.7707 8.06681 13.0617 7.9421 13.1642 7.68571L15.9642 0.68571ZM13.424 1.86895L5.93005 9.36285L1.59148 6.60194L13.424 1.86895Z" fill="black"/>
<path d="M14.9749 10.0251C13.608 8.65829 11.392 8.65829 10.0251 10.0251C8.65829 11.392 8.65829 13.608 10.0251 14.9749C11.392 16.3417 13.608 16.3417 14.9749 14.9749C16.3417 13.608 16.3417 11.392 14.9749 10.0251ZM10.7322 10.7322C11.5875 9.877 12.9082 9.77094 13.8789 10.414L10.414 13.8789C9.77094 12.9082 9.877 11.5875 10.7322 10.7322ZM11.1211 14.586L14.586 11.1211C15.2291 12.0918 15.123 13.4125 14.2678 14.2678C13.4125 15.123 12.0918 15.2291 11.1211 14.586Z" fill="black"/>
</svg>
