<svg width="16" height="16" viewBox="0 0 16 16" fill="none" xmlns="http://www.w3.org/2000/svg">
<path d="M15.9642 0.68571C16.0385 0.500001 15.995 0.287892 15.8535 0.146461C15.7121 0.00502989 15.5 -0.0385071 15.3143 0.0357762L0.767192 5.85462C0.199737 6.0816 0.127464 6.8556 0.643079 7.18372L5.63782 10.3622L7.16907 12.7685C7.31733 13.0014 7.62637 13.0701 7.85934 12.9218C8.09231 12.7736 8.16099 12.4645 8.01273 12.2316L6.63716 10.07L14.1311 2.57605L12.2358 7.31432C12.1332 7.57071 12.2579 7.8617 12.5143 7.96425C12.7707 8.06681 13.0617 7.9421 13.1642 7.68571L15.9642 0.68571ZM13.424 1.86895L5.93005 9.36285L1.59148 6.60194L13.424 1.86895Z" fill="black"/>
<path d="M16 12.5C16 14.433 14.433 16 12.5 16C10.567 16 9 14.433 9 12.5C9 10.567 10.567 9 12.5 9C14.433 9 16 10.567 16 12.5ZM10.5 12.5C10.5 12.7761 10.7239 13 11 13H14C14.2761 13 14.5 12.7761 14.5 12.5C14.5 12.2239 14.2761 12 14 12H11C10.7239 12 10.5 12.2239 10.5 12.5Z" fill="black"/>
</svg>
