<svg width="16" height="16" viewBox="0 0 16 16" fill="none" xmlns="http://www.w3.org/2000/svg">
<path fill-rule="evenodd" clip-rule="evenodd" d="M15.8535 0.146461C15.995 0.287892 16.0385 0.500001 15.9642 0.68571L13.1642 7.68571C13.0617 7.9421 12.7707 8.06681 12.5143 7.96425C12.2579 7.8617 12.1332 7.57071 12.2358 7.31432L14.1311 2.57605L6.63716 10.07L8.01273 12.2316C8.16099 12.4645 8.09231 12.7736 7.85934 12.9218C7.62637 13.0701 7.31733 13.0014 7.16907 12.7685L5.63782 10.3622L0.643079 7.18372C0.127464 6.8556 0.199737 6.0816 0.767192 5.85462L15.3143 0.0357762C15.5 -0.0385071 15.7121 0.00502989 15.8535 0.146461ZM5.93005 9.36285L13.424 1.86895L1.59148 6.60194L5.93005 9.36285Z" fill="black"/>
<path fill-rule="evenodd" clip-rule="evenodd" d="M12.5 16C14.433 16 16 14.433 16 12.5C16 10.567 14.433 9 12.5 9C10.567 9 9 10.567 9 12.5C9 14.433 10.567 16 12.5 16ZM12.8536 10.6464C12.7572 10.5501 12.6257 10.4972 12.4894 10.5001C12.3532 10.503 12.224 10.5614 12.1318 10.6617L10.9834 11.9117C10.7965 12.1151 10.8099 12.4314 11.0133 12.6182C11.2166 12.805 11.5329 12.7916 11.7198 12.5883L12 12.2833V14C12 14.2761 12.2239 14.5 12.5 14.5C12.7761 14.5 13 14.2761 13 14V12.2071L13.3964 12.6036C13.5917 12.7988 13.9083 12.7988 14.1036 12.6036C14.2988 12.4083 14.2988 12.0917 14.1036 11.8964L12.8536 10.6464Z" fill="black"/>
</svg>
