<svg width="16" height="16" viewBox="0 0 16 16" fill="none" xmlns="http://www.w3.org/2000/svg">
<path fill-rule="evenodd" clip-rule="evenodd" d="M15.8535 0.146461C15.995 0.287892 16.0385 0.500001 15.9642 0.68571L13.1642 7.68571C13.0617 7.9421 12.7707 8.06681 12.5143 7.96425C12.2579 7.8617 12.1332 7.57071 12.2358 7.31432L14.1311 2.57605L6.63716 10.07L8.01273 12.2316C8.16099 12.4645 8.09231 12.7736 7.85934 12.9218C7.62637 13.0701 7.31733 13.0014 7.16907 12.7685L5.63782 10.3622L0.643079 7.18372C0.127464 6.8556 0.199737 6.0816 0.767192 5.85462L15.3143 0.0357762C15.5 -0.0385071 15.7121 0.00502989 15.8535 0.146461ZM5.93005 9.36285L13.424 1.86895L1.59148 6.60194L5.93005 9.36285Z" fill="black"/>
<path fill-rule="evenodd" clip-rule="evenodd" d="M12.5 16C14.433 16 16 14.433 16 12.5C16 10.567 14.433 9 12.5 9C10.567 9 9 10.567 9 12.5C9 14.433 10.567 16 12.5 16ZM12.8536 14.3536C12.7572 14.4499 12.6257 14.5028 12.4894 14.4999C12.3532 14.497 12.224 14.4386 12.1318 14.3383L10.9834 13.0883C10.7965 12.8849 10.8099 12.5686 11.0133 12.3818C11.2166 12.195 11.5329 12.2084 11.7198 12.4117L12 12.7167V11C12 10.7239 12.2239 10.5 12.5 10.5C12.7761 10.5 13 10.7239 13 11V12.7929L13.3964 12.3964C13.5917 12.2012 13.9083 12.2012 14.1036 12.3964C14.2988 12.5917 14.2988 12.9083 14.1036 13.1036L12.8536 14.3536Z" fill="black"/>
</svg>
