<svg width="16" height="16" viewBox="0 0 16 16" fill="none" xmlns="http://www.w3.org/2000/svg">
<path d="M15.9642 0.68571C16.0385 0.500001 15.995 0.287892 15.8536 0.146461C15.7121 0.00502989 15.5 -0.0385071 15.3143 0.0357762L0.767199 5.85462L0.765743 5.8552L0.314312 6.03578C0.140137 6.10545 0.0196145 6.26675 0.00217278 6.45353C-0.0152689 6.64031 0.0733055 6.82113 0.231569 6.92185L0.641189 7.18251L0.643086 7.18372L5.63783 10.3622L7.22706 12.8596C8 14 8 13 8 12.5C8 10.0147 10.0147 8 12.5 8C12.6781 8 12.8537 8.01034 13.0263 8.03046L15.9642 0.68571ZM14.1311 2.57603L6.63717 10.0699L6.42184 9.73158C6.38255 9.66984 6.33019 9.61747 6.26845 9.57818L5.93006 9.36284L13.4239 1.86896L14.6025 1.39754L14.1311 2.57603Z" fill="black"/>
<path d="M14.9749 10.0251C13.608 8.65829 11.392 8.65829 10.0251 10.0251C8.65829 11.392 8.65829 13.608 10.0251 14.9749C11.392 16.3417 13.608 16.3417 14.9749 14.9749C16.3417 13.608 16.3417 11.392 14.9749 10.0251ZM10.7322 10.7322C11.5875 9.877 12.9082 9.77094 13.8789 10.414L10.414 13.8789C9.77094 12.9082 9.877 11.5875 10.7322 10.7322ZM11.1211 14.586L14.586 11.1211C15.2291 12.0918 15.123 13.4125 14.2678 14.2678C13.4125 15.123 12.0918 15.2291 11.1211 14.586Z" fill="black"/>
</svg>
