<svg width="16" height="16" viewBox="0 0 16 16" fill="none" xmlns="http://www.w3.org/2000/svg">
<path d="M15.9642 0.68571C16.0385 0.500001 15.995 0.287892 15.8536 0.146461C15.7121 0.00502989 15.5 -0.0385071 15.3143 0.0357762L0.767199 5.85462L0.765743 5.8552L0.314312 6.03578C0.140137 6.10545 0.0196145 6.26675 0.00217278 6.45353C-0.0152689 6.64031 0.0733055 6.82113 0.231569 6.92185L0.641189 7.18251L0.643086 7.18372L5.63783 10.3622L7.22706 12.8596C8 14 8 13 8 12.5C8 10.0147 10.0147 8 12.5 8C12.6781 8 12.8537 8.01034 13.0263 8.03046L15.9642 0.68571ZM14.1311 2.57603L6.63717 10.0699L6.42184 9.73158C6.38255 9.66984 6.33019 9.61747 6.26845 9.57818L5.93006 9.36284L13.4239 1.86896L14.6025 1.39754L14.1311 2.57603Z" fill="black"/>
<path d="M16 12.5C16 14.433 14.433 16 12.5 16C10.567 16 9 14.433 9 12.5C9 10.567 10.567 9 12.5 9C14.433 9 16 10.567 16 12.5ZM14.0072 10.8213C13.7705 10.6792 13.4633 10.756 13.3213 10.9928L12.1507 12.9436L11.6036 12.3964C11.4083 12.2012 11.0917 12.2012 10.8964 12.3964C10.7012 12.5917 10.7012 12.9083 10.8964 13.1036L11.67 13.8771C12.0151 14.2222 12.5924 14.1511 12.8435 13.7327L14.1787 11.5072C14.3208 11.2705 14.244 10.9633 14.0072 10.8213Z" fill="black"/>
</svg>
