<svg width="16" height="16" viewBox="0 0 16 16" fill="none" xmlns="http://www.w3.org/2000/svg">
<path fill-rule="evenodd" clip-rule="evenodd" d="M15.8536 0.146461C15.995 0.287893 16.0385 0.500001 15.9642 0.68571L13.0263 8.03046C12.8537 8.01034 12.6781 8 12.5 8C10.0147 8 8 10.0147 8 12.5C8 13 8 14 7.22706 12.8596L5.63783 10.3622L0.643086 7.18372L0.641189 7.18251L0.231569 6.92185C0.0733055 6.82113 -0.0152689 6.64031 0.00217278 6.45353C0.0196145 6.26675 0.140137 6.10545 0.314312 6.03578L0.765743 5.8552L0.767199 5.85462L15.3143 0.0357762C15.5 -0.0385071 15.7121 0.00502989 15.8536 0.146461ZM6.63717 10.0699L14.1311 2.57603L14.6025 1.39754L13.4239 1.86896L5.93006 9.36284L6.26845 9.57818C6.33019 9.61747 6.38255 9.66984 6.42184 9.73158L6.63717 10.0699Z" fill="black"/>
<path fill-rule="evenodd" clip-rule="evenodd" d="M12.5 16C14.433 16 16 14.433 16 12.5C16 10.567 14.433 9 12.5 9C10.567 9 9 10.567 9 12.5C9 14.433 10.567 16 12.5 16ZM12.8536 14.3536C12.7572 14.4499 12.6257 14.5028 12.4894 14.4999C12.3532 14.497 12.224 14.4386 12.1318 14.3383L10.9834 13.0883C10.7965 12.8849 10.8099 12.5686 11.0133 12.3818C11.2166 12.195 11.5329 12.2084 11.7198 12.4117L12 12.7167V11C12 10.7239 12.2239 10.5 12.5 10.5C12.7761 10.5 13 10.7239 13 11V12.7929L13.3964 12.3964C13.5917 12.2012 13.9083 12.2012 14.1036 12.3964C14.2988 12.5917 14.2988 12.9083 14.1036 13.1036L12.8536 14.3536Z" fill="black"/>
</svg>
