<svg width="16" height="16" viewBox="0 0 16 16" fill="none" xmlns="http://www.w3.org/2000/svg">
<path d="M15.9642 0.68571C16.0385 0.500001 15.995 0.287892 15.8536 0.146461C15.7121 0.00502989 15.5 -0.0385071 15.3143 0.0357762L0.767199 5.85462L0.765743 5.8552L0.314312 6.03578C0.140137 6.10545 0.0196145 6.26675 0.00217278 6.45353C-0.0152689 6.64031 0.0733055 6.82113 0.231569 6.92185L0.641189 7.18251L0.643086 7.18372L5.63783 10.3622L7.22706 12.8596C8 14 8 13 8 12.5C8 10.0147 10.0147 8 12.5 8C12.6781 8 12.8537 8.01034 13.0263 8.03046L15.9642 0.68571ZM14.1311 2.57603L6.63717 10.0699L6.42184 9.73158C6.38255 9.66984 6.33019 9.61747 6.26845 9.57818L5.93006 9.36284L13.4239 1.86896L14.6025 1.39754L14.1311 2.57603Z" fill="black"/>
<path d="M16 12.5C16 14.433 14.433 16 12.5 16C10.567 16 9 14.433 9 12.5C9 10.567 10.567 9 12.5 9C14.433 9 16 10.567 16 12.5ZM11.1464 11.1464C10.9512 11.3417 10.9512 11.6583 11.1464 11.8536L11.7929 12.5L11.1464 13.1464C10.9512 13.3417 10.9512 13.6583 11.1464 13.8536C11.3417 14.0488 11.6583 14.0488 11.8536 13.8536L12.5 13.2071L13.1464 13.8536C13.3417 14.0488 13.6583 14.0488 13.8536 13.8536C14.0488 13.6583 14.0488 13.3417 13.8536 13.1464L13.2071 12.5L13.8536 11.8536C14.0488 11.6583 14.0488 11.3417 13.8536 11.1464C13.6583 10.9512 13.3417 10.9512 13.1464 11.1464L12.5 11.7929L11.8536 11.1464C11.6583 10.9512 11.3417 10.9512 11.1464 11.1464Z" fill="black"/>
</svg>
