<svg width="16" height="16" viewBox="0 0 16 16" fill="none" xmlns="http://www.w3.org/2000/svg">
<path d="M1.33325 2.66667C1.33325 1.19391 4.31802 0 7.99992 0C11.6818 0 14.6666 1.19391 14.6666 2.66667V4C14.6666 5.47276 11.6818 6.66667 7.99992 6.66667C4.31802 6.66667 1.33325 5.47276 1.33325 4V2.66667Z" fill="black"/>
<path d="M1.33325 6.33436V9.33333C1.33325 10.8061 4.31802 12 7.99992 12C11.6818 12 14.6666 10.8061 14.6666 9.33333V6.33436C14.2369 6.65319 13.7354 6.91309 13.2092 7.12359C11.8094 7.68349 9.96707 8 7.99992 8C6.03277 8 4.19045 7.68349 2.79069 7.12359C2.26444 6.91309 1.76295 6.65319 1.33325 6.33436Z" fill="black"/>
<path d="M14.6666 11.6677C14.2369 11.9865 13.7354 12.2464 13.2092 12.4569C11.8094 13.0168 9.96707 13.3333 7.99992 13.3333C6.03277 13.3333 4.19045 13.0168 2.79069 12.4569C2.26444 12.2464 1.76295 11.9865 1.33325 11.6677V13.3333C1.33325 14.8061 4.31802 16 7.99992 16C11.6818 16 14.6666 14.8061 14.6666 13.3333V11.6677Z" fill="black"/>
</svg>
