<svg width="16" height="16" viewBox="0 0 16 16" fill="none" xmlns="http://www.w3.org/2000/svg">
<path fill-rule="evenodd" clip-rule="evenodd" d="M16 8C16 12.4183 12.4183 16 8 16C3.58172 16 0 12.4183 0 8C0 3.58172 3.58172 0 8 0C12.4183 0 16 3.58172 16 8ZM8 15C4.13401 15 1 11.866 1 8C1 4.13401 4.13401 1 8 1C9.31967 1 10.554 1.36518 11.6076 2H8C7.72386 2 7.5 2.22386 7.5 2.5C7.5 2.77614 7.72386 3 8 3H12.899C13.2111 3.3058 13.4946 3.64059 13.7453 4H8C7.72386 4 7.5 4.22386 7.5 4.5C7.5 4.77614 7.72386 5 8 5H14.3264C14.4787 5.32067 14.6074 5.65475 14.7101 6H8C7.72386 6 7.5 6.22386 7.5 6.5C7.5 6.77614 7.72386 7 8 7H14.9291C14.9758 7.3266 15 7.66048 15 8H8C7.72386 8 7.5 8.22386 7.5 8.5C7.5 8.77614 7.72386 9 8 9H14.9291C14.8802 9.34193 14.8066 9.67588 14.7101 10H8C7.72386 10 7.5 10.2239 7.5 10.5C7.5 10.7761 7.72386 11 8 11H14.3264C14.1599 11.3503 13.9653 11.6846 13.7453 12H8C7.72386 12 7.5 12.2239 7.5 12.5C7.5 12.7761 7.72386 13 8 13H12.899C12.506 13.3851 12.0678 13.7242 11.5932 14.0087C11.563 14.003 11.5318 14 11.5 14H8C7.72386 14 7.5 14.2239 7.5 14.5C7.5 14.7761 7.72386 15 8 15Z" fill="black"/>
</svg>
