<svg width="16" height="16" viewBox="0 0 16 16" fill="none" xmlns="http://www.w3.org/2000/svg">
<path d="M5.07166 0.559653C6.15738 0.265343 7.31051 0 8 0C8.68949 0 9.84262 0.265343 10.9283 0.559652C12.0384 0.860567 13.1568 1.21461 13.8147 1.42928C14.3637 1.60844 14.779 2.09359 14.8588 2.6921C15.4554 7.16942 14.072 10.4869 12.394 12.682C11.5582 13.7754 10.6498 14.5904 9.87691 15.1354C9.49076 15.4077 9.13287 15.6165 8.82896 15.7596C8.54814 15.8918 8.24771 16 8 16C7.7523 16 7.45186 15.8918 7.17105 15.7596C6.86713 15.6165 6.50924 15.4077 6.12309 15.1354C5.35024 14.5904 4.44183 13.7754 3.606 12.682C1.92804 10.4869 0.544608 7.16942 1.14123 2.69209C1.22098 2.09359 1.63625 1.60844 2.18528 1.42928C2.84316 1.21461 3.96156 0.860567 5.07166 0.559653Z" fill="black"/>
</svg>
