<svg width="16" height="16" viewBox="0 0 16 16" fill="none" xmlns="http://www.w3.org/2000/svg">
<path d="M5.33794 1.59084C4.25194 1.88522 3.15214 2.23325 2.50122 2.44565C2.32213 2.50409 2.19637 2.65917 2.17276 2.83638C1.61888 6.99289 2.89864 10.0267 4.42564 12.0243C5.1923 13.0272 6.02182 13.7691 6.71336 14.2567C7.0594 14.5007 7.36532 14.6772 7.60571 14.7904C7.72606 14.847 7.82448 14.8852 7.89924 14.9084C7.96081 14.9274 7.99248 14.9319 8 14.933C8.00753 14.9319 8.03919 14.9274 8.10076 14.9084C8.17552 14.8852 8.27395 14.847 8.3943 14.7904C8.63468 14.6772 8.9406 14.5007 9.28664 14.2567C9.97818 13.7691 10.8077 13.0272 11.5744 12.0243C13.1014 10.0267 14.3811 6.99289 13.8272 2.83638C13.8036 2.65917 13.6779 2.50409 13.4988 2.44565C12.8479 2.23325 11.7481 1.88522 10.6621 1.59084C9.5517 1.28985 8.53085 1.06667 8 1.06667C7.46915 1.06667 6.4483 1.28985 5.33794 1.59084ZM5.07166 0.559653C6.15738 0.265343 7.31051 0 8 0C8.68949 0 9.84262 0.265343 10.9283 0.559652C12.0384 0.860567 13.1568 1.21461 13.8147 1.42928C14.3637 1.60844 14.779 2.09359 14.8588 2.6921C15.4554 7.16942 14.072 10.4869 12.394 12.682C11.5582 13.7754 10.6498 14.5904 9.87691 15.1354C9.49076 15.4077 9.13287 15.6165 8.82896 15.7596C8.54814 15.8918 8.24771 16 8 16C7.7523 16 7.45186 15.8918 7.17105 15.7596C6.86713 15.6165 6.50924 15.4077 6.12309 15.1354C5.35024 14.5904 4.44183 13.7754 3.606 12.682C1.92804 10.4869 0.544608 7.16942 1.14123 2.69209C1.22098 2.09359 1.63625 1.60844 2.18528 1.42928C2.84316 1.21461 3.96156 0.860567 5.07166 0.559653Z" fill="black"/>
<path d="M7.00146 11C7.00146 10.4477 7.44918 10 8.00146 10C8.55375 10 9.00146 10.4477 9.00146 11C9.00146 11.5523 8.55375 12 8.00146 12C7.44918 12 7.00146 11.5523 7.00146 11Z" fill="black"/>
<path d="M7.09943 4.99504C7.04615 4.46228 7.46451 4 7.99992 4C8.53533 4 8.9537 4.46228 8.90042 4.99504L8.54968 8.50248C8.52143 8.78492 8.28377 9 7.99992 9C7.71608 9 7.47842 8.78492 7.45017 8.50248L7.09943 4.99504Z" fill="black"/>
</svg>
