<svg width="16" height="16" viewBox="0 0 16 16" fill="none" xmlns="http://www.w3.org/2000/svg">
<path fill-rule="evenodd" clip-rule="evenodd" d="M8 0C7.31051 0 6.15738 0.265343 5.07166 0.559653C3.96156 0.860567 2.84316 1.21461 2.18528 1.42928C1.63625 1.60844 1.22098 2.09359 1.14123 2.69209C0.544608 7.16942 1.92804 10.4869 3.606 12.682C4.44183 13.7754 5.35024 14.5904 6.12309 15.1354C6.50924 15.4077 6.86713 15.6165 7.17105 15.7596C7.45186 15.8918 7.7523 16 8 16C8.24771 16 8.54814 15.8918 8.82896 15.7596C9.13287 15.6165 9.49076 15.4077 9.87691 15.1354C10.6498 14.5904 11.5582 13.7754 12.394 12.682C14.072 10.4869 15.4554 7.16942 14.8588 2.6921C14.779 2.09359 14.3637 1.60844 13.8147 1.42928C13.1568 1.21461 12.0384 0.860567 10.9283 0.559652C9.84262 0.265343 8.68949 0 8 0ZM7.5 5C7.5 4.72386 7.72386 4.5 8 4.5C8.27614 4.5 8.5 4.72386 8.5 5V6.5H10C10.2761 6.5 10.5 6.72386 10.5 7C10.5 7.27614 10.2761 7.5 10 7.5H8.5V9C8.5 9.27614 8.27614 9.5 8 9.5C7.72386 9.5 7.5 9.27614 7.5 9V7.5H6C5.72386 7.5 5.5 7.27614 5.5 7C5.5 6.72386 5.72386 6.5 6 6.5H7.5V5Z" fill="black"/>
</svg>
