<svg width="16" height="16" viewBox="0 0 16 16" fill="none" xmlns="http://www.w3.org/2000/svg">
<path fill-rule="evenodd" clip-rule="evenodd" d="M1.09275 3.09275C0.628052 7.36786 1.97848 10.5529 3.606 12.682C4.44183 13.7754 5.35024 14.5904 6.12309 15.1354C6.50924 15.4077 6.86713 15.6165 7.17105 15.7596C7.45186 15.8918 7.7523 16 8 16C8.24771 16 8.54814 15.8918 8.82896 15.7596C9.13287 15.6165 9.49076 15.4077 9.87691 15.1354C10.4126 14.7576 11.0135 14.2501 11.6101 13.6101L10.865 12.865C10.3172 13.4539 9.76843 13.917 9.28664 14.2567C8.9406 14.5007 8.63468 14.6772 8.3943 14.7904C8.27395 14.847 8.17552 14.8852 8.10076 14.9084C8.03919 14.9274 8.00753 14.9319 8 14.933C7.99248 14.9319 7.96081 14.9274 7.89924 14.9084C7.82448 14.8852 7.72606 14.847 7.60571 14.7904C7.36532 14.6772 7.0594 14.5007 6.71336 14.2567C6.02182 13.7691 5.1923 13.0272 4.42564 12.0243C3.0526 10.2281 1.87947 7.59414 2.05952 4.05952L1.09275 3.09275ZM3.98086 1.98086L3.12864 1.12864C3.70742 0.94858 4.3911 0.744133 5.07166 0.559653C6.15738 0.265343 7.31051 0 8 0C8.68949 0 9.84262 0.265343 10.9283 0.559652C12.0384 0.860567 13.1568 1.21461 13.8147 1.42928C14.3637 1.60844 14.779 2.09359 14.8588 2.6921C15.3419 6.31801 14.5265 9.18323 13.3077 11.3077L12.5382 10.5382C13.5796 8.62301 14.258 6.06931 13.8272 2.83638C13.8036 2.65917 13.6779 2.50409 13.4988 2.44565C12.8479 2.23325 11.7481 1.88522 10.6621 1.59084C9.5517 1.28985 8.53085 1.06667 8 1.06667C7.46915 1.06667 6.4483 1.28985 5.33794 1.59084C4.87622 1.716 4.41201 1.85085 3.98086 1.98086Z" fill="black"/>
<path fill-rule="evenodd" clip-rule="evenodd" d="M13.6465 14.3535L0.646484 1.35353L1.35359 0.646423L14.3536 13.6464L13.6465 14.3535Z" fill="black"/>
</svg>
