<svg width="16" height="16" viewBox="0 0 16 16" fill="none" xmlns="http://www.w3.org/2000/svg">
<path fill-rule="evenodd" clip-rule="evenodd" d="M8 0C7.31051 0 6.15738 0.265343 5.07166 0.559653C3.96156 0.860567 2.84316 1.21461 2.18528 1.42928C1.63625 1.60844 1.22098 2.09359 1.14123 2.69209C0.544608 7.16942 1.92804 10.4869 3.606 12.682C4.44183 13.7754 5.35024 14.5904 6.12309 15.1354C6.50924 15.4077 6.86713 15.6165 7.17105 15.7596C7.45186 15.8918 7.7523 16 8 16C8.24771 16 8.54814 15.8918 8.82896 15.7596C9.13287 15.6165 9.49076 15.4077 9.87691 15.1354C10.6498 14.5904 11.5582 13.7754 12.394 12.682C14.072 10.4869 15.4554 7.16942 14.8588 2.6921C14.779 2.09359 14.3637 1.60844 13.8147 1.42928C13.1568 1.21461 12.0384 0.860567 10.9283 0.559652C9.84262 0.265343 8.68949 0 8 0ZM7.45029 8.50248L7.09955 4.99504C7.04627 4.46229 7.46464 4 8.00005 4C8.53546 4 8.95382 4.46228 8.90054 4.99504L8.5498 8.50248C8.52155 8.78492 8.28389 9 8.00005 9C7.7162 9 7.47854 8.78492 7.45029 8.50248ZM8.00159 12C7.4493 12 7.00159 11.5523 7.00159 11C7.00159 10.4477 7.4493 10 8.00159 10C8.55387 10 9.00159 10.4477 9.00159 11C9.00159 11.5523 8.55387 12 8.00159 12Z" fill="black"/>
</svg>
