<svg width="16" height="16" viewBox="0 0 16 16" fill="none" xmlns="http://www.w3.org/2000/svg">
<path fill-rule="evenodd" clip-rule="evenodd" d="M1.09275 3.09275C0.628052 7.36786 1.97848 10.5529 3.606 12.682C4.44183 13.7754 5.35024 14.5904 6.12309 15.1354C6.50924 15.4077 6.86713 15.6165 7.17105 15.7596C7.45186 15.8918 7.7523 16 8 16C8.24771 16 8.54814 15.8918 8.82896 15.7596C9.13287 15.6165 9.49076 15.4077 9.87691 15.1354C10.4126 14.7576 11.0135 14.2501 11.6101 13.6101L1.09275 3.09275ZM13.3077 11.3077L3.12864 1.12864C3.70742 0.94858 4.3911 0.744133 5.07166 0.559653C6.15738 0.265343 7.31051 0 8 0C8.68949 0 9.84262 0.265343 10.9283 0.559652C12.0384 0.860567 13.1568 1.21461 13.8147 1.42928C14.3637 1.60844 14.779 2.09359 14.8588 2.6921C15.3419 6.31801 14.5265 9.18323 13.3077 11.3077Z" fill="black"/>
<path fill-rule="evenodd" clip-rule="evenodd" d="M13.6465 14.3535L0.646484 1.35353L1.35359 0.646423L14.3536 13.6464L13.6465 14.3535Z" fill="black"/>
</svg>
