<svg width="16" height="16" viewBox="0 0 16 16" fill="none" xmlns="http://www.w3.org/2000/svg">
<path d="M7.27049 2.04714C7.66556 1.62573 8.33449 1.62572 8.72956 2.04714L15.0754 8.81608C15.6742 9.45475 15.2214 10.5 14.3459 10.5H11.5V13.5C11.5 14.0523 11.0523 14.5 10.5 14.5H5.50003C4.94774 14.5 4.50003 14.0523 4.50003 13.5V10.5H1.65414C0.778704 10.5 0.325857 9.45475 0.924607 8.81608L7.27049 2.04714ZM14.3459 9.50002L8.00003 2.73108L1.65414 9.50002H4.50003C5.05231 9.50002 5.50003 9.94774 5.50003 10.5V13.5H10.5V10.5C10.5 9.94774 10.9477 9.50002 11.5 9.50002L14.3459 9.50002Z" fill="black"/>
</svg>
