<svg width="16" height="16" viewBox="0 0 16 16" fill="none" xmlns="http://www.w3.org/2000/svg">
<path d="M2.97071 1.34921C3.16069 1.12756 3.43804 1 3.72997 1H12.27C12.562 1 12.8393 1.12756 13.0293 1.34921L15.6389 4.39374C15.8719 4.6656 16 5.01186 16 5.36992V5.625C16 6.93668 14.9367 8 13.625 8C12.8629 8 12.1846 7.64102 11.75 7.08291C11.3154 7.64102 10.6371 8 9.875 8C9.11287 8 8.43458 7.64102 8 7.08291C7.56542 7.64102 6.88714 8 6.125 8C5.36286 8 4.68458 7.64102 4.25 7.08291C3.81542 7.64102 3.13713 8 2.375 8C1.06332 8 0 6.93668 0 5.625V5.36992C0 5.01186 0.128088 4.6656 0.361115 4.39374L2.97071 1.34921ZM4.75 5.625C4.75 6.38439 5.36561 7 6.125 7C6.88439 7 7.5 6.38439 7.5 5.625C7.5 5.34886 7.72386 5.125 8 5.125C8.27614 5.125 8.5 5.34886 8.5 5.625C8.5 6.38439 9.11561 7 9.875 7C10.6344 7 11.25 6.38439 11.25 5.625C11.25 5.34886 11.4739 5.125 11.75 5.125C12.0261 5.125 12.25 5.34886 12.25 5.625C12.25 6.38439 12.8656 7 13.625 7C14.3844 7 15 6.38439 15 5.625V5.36992C15 5.25057 14.9573 5.13515 14.8796 5.04453L12.27 2H3.72997L1.12037 5.04453C1.0427 5.13515 1 5.25057 1 5.36992V5.625C1 6.38439 1.61561 7 2.375 7C3.13439 7 3.75 6.38439 3.75 5.625C3.75 5.34886 3.97386 5.125 4.25 5.125C4.52614 5.125 4.75 5.34886 4.75 5.625ZM1.5 8.5C1.77614 8.5 2 8.72386 2 9V15H3V10C3 9.44772 3.44772 9 4 9H7C7.55228 9 8 9.44772 8 10V15H14V9C14 8.72386 14.2239 8.5 14.5 8.5C14.7761 8.5 15 8.72386 15 9V15H15.5C15.7761 15 16 15.2239 16 15.5C16 15.7761 15.7761 16 15.5 16H0.5C0.223858 16 0 15.7761 0 15.5C0 15.2239 0.223858 15 0.5 15H1V9C1 8.72386 1.22386 8.5 1.5 8.5ZM4 15H7V10H4V15ZM9 10C9 9.44772 9.44771 9 10 9H12C12.5523 9 13 9.44772 13 10V13C13 13.5523 12.5523 14 12 14H10C9.44771 14 9 13.5523 9 13V10ZM12 10H10V13H12V10Z" fill="black"/>
</svg>
