<svg width="16" height="16" viewBox="0 0 16 16" fill="none" xmlns="http://www.w3.org/2000/svg">
<path fill-rule="evenodd" clip-rule="evenodd" d="M0 3.5C0 3.22385 0.223858 3 0.5 3H1C3.2021 3 4.82702 4.24029 5.8737 5.41782C6.36445 5.9699 6.73942 6.52017 7 6.94998C7.26058 6.52017 7.63555 5.9699 8.1263 5.41782C9.17298 4.24029 10.7979 3 13 3V4C11.2021 4 9.82702 5.0097 8.8737 6.08218C8.40021 6.61487 8.04345 7.14963 7.80515 7.55177C7.69729 7.73379 7.61436 7.88749 7.55645 8C7.61436 8.1125 7.69729 8.26621 7.80515 8.44822C8.04345 8.85036 8.40021 9.38513 8.8737 9.91782C9.82702 10.9903 11.2021 12 13 12V13C10.7979 13 9.17298 11.7597 8.1263 10.5822C7.63555 10.0301 7.26058 9.47982 7 9.05002C6.73942 9.47982 6.36445 10.0301 5.8737 10.5822C4.82702 11.7597 3.2021 13 1 13H0.5C0.223858 13 0 12.7761 0 12.5C0 12.2239 0.223858 12 0.5 12H1C2.7979 12 4.17298 10.9903 5.1263 9.91782C5.59979 9.38513 5.95655 8.85036 6.19485 8.44822C6.30271 8.26621 6.38564 8.1125 6.44355 8C6.38564 7.88749 6.30271 7.73379 6.19485 7.55177C5.95655 7.14963 5.59979 6.61487 5.1263 6.08218C4.17298 5.0097 2.7979 4 1 4H0.5C0.223858 4 0 3.77614 0 3.5Z" fill="black"/>
<path d="M13 5.46624V1.53376C13 1.3218 13.2472 1.20601 13.41 1.3417L15.7695 3.30794C15.8895 3.40789 15.8895 3.5921 15.7695 3.69205L13.41 5.65829C13.2472 5.79399 13 5.6782 13 5.46624Z" fill="black"/>
<path d="M13 14.4662V10.5338C13 10.3218 13.2472 10.206 13.41 10.3417L15.7695 12.3079C15.8895 12.4079 15.8895 12.5921 15.7695 12.6921L13.41 14.6583C13.2472 14.794 13 14.6782 13 14.4662Z" fill="black"/>
</svg>
