<svg width="16" height="16" viewBox="0 0 16 16" fill="none" xmlns="http://www.w3.org/2000/svg">
<path d="M4.78326 6.00049V8H5.47321C6.06647 8 6.35944 7.64111 6.35944 6.99805C6.35944 6.35498 6.0694 6.00049 5.47321 6.00049H4.78326ZM5.11578 6.28027H5.43658C5.83063 6.28027 6.01813 6.52051 6.01813 7.00244C6.01813 7.48145 5.83209 7.72021 5.43658 7.72021H5.11578V6.28027Z" fill="black"/>
<path d="M7.81936 7.72021H6.90237V7.11816H7.76516V6.8501H6.90237V6.28027H7.81936V6.00049H6.57131V8H7.81936V7.72021Z" fill="black"/>
<path d="M8.39305 7.44629L8.2158 8H7.87596L8.56444 6.00049H8.93504L9.62352 8H9.27196L9.09471 7.44629H8.39305ZM9.02 7.19141L8.75194 6.34619H8.73729L8.46776 7.19141H9.02Z" fill="black"/>
<path d="M9.74604 6.00049V8H10.436C11.0292 8 11.3222 7.64111 11.3222 6.99805C11.3222 6.35498 11.0322 6.00049 10.436 6.00049H9.74604ZM10.0786 6.28027H10.3994C10.7934 6.28027 10.9809 6.52051 10.9809 7.00244C10.9809 7.48145 10.7949 7.72021 10.3994 7.72021H10.0786V6.28027Z" fill="black"/>
<path d="M5.9058 10.7202H6.8228V11H5.57475V9.00049H6.8228V9.28027H5.9058V9.8501H6.7686V10.1182H5.9058V10.7202Z" fill="black"/>
<path d="M7.39502 11V9.56006H7.40821L8.34424 11H8.63574V9.00049H8.31641V10.436H8.30176L7.36865 9.00049H7.07569V11H7.39502Z" fill="black"/>
<path d="M8.95455 11V9.00049H9.6445C10.2407 9.00049 10.5307 9.35498 10.5307 9.99805C10.5307 10.6411 10.2378 11 9.6445 11H8.95455ZM9.60787 9.28027H9.28707V10.7202H9.60787C10.0034 10.7202 10.1894 10.4814 10.1894 10.0024C10.1894 9.52051 10.0019 9.28027 9.60787 9.28027Z" fill="black"/>
<path d="M9.04941 0.434679C8.46984 -0.144892 7.53017 -0.144894 6.95059 0.434678L0.434679 6.95059C-0.144892 7.53016 -0.144894 8.46983 0.434678 9.04941L6.95059 15.5653C7.53016 16.1449 8.46983 16.1449 9.04941 15.5653L15.5653 9.04941C16.1449 8.46984 16.1449 7.53017 15.5653 6.95059L9.04941 0.434679ZM7.6502 1.13428C7.84339 0.941093 8.15661 0.941093 8.3498 1.13428L14.8657 7.6502C15.0589 7.84339 15.0589 8.15661 14.8657 8.3498L8.3498 14.8657C8.15661 15.0589 7.84339 15.0589 7.6502 14.8657L1.13428 8.3498C0.941093 8.15661 0.941093 7.84339 1.13428 7.6502L7.6502 1.13428Z" fill="black"/>
</svg>
