<svg width="16" height="16" viewBox="0 0 16 16" fill="none" xmlns="http://www.w3.org/2000/svg">
<path d="M7 16H9V5.99997H14C14.3148 5.99997 14.6111 5.85178 14.8 5.59997L15.775 4.29997C15.9083 4.12219 15.9083 3.87775 15.775 3.69997L14.8 2.39997C14.6111 2.14817 14.3148 1.99997 14 1.99997H9V1.41418C9 1.14897 8.89464 0.894614 8.70711 0.707078C8.31658 0.316554 7.68342 0.316554 7.29289 0.707078C7.10536 0.894614 7 1.14897 7 1.41418V6.99997H2C1.68524 6.99997 1.38885 7.14817 1.2 7.39997L0.225001 8.69997C0.0916665 8.87775 0.0916665 9.12219 0.225001 9.29997L1.2 10.6C1.38885 10.8518 1.68524 11 2 11H7V16Z" fill="black"/>
</svg>
