<svg width="16" height="16" viewBox="0 0 16 16" fill="none" xmlns="http://www.w3.org/2000/svg">
<path d="M5.50643 6.23242V7H5.10945V6.23975L4.44002 5.00049H4.87947L5.30428 5.84863H5.32039L5.74813 5.00049H6.17586L5.50643 6.23242Z" fill="black"/>
<path d="M6.62797 5.00049V7H6.23246V5.00049H6.62797Z" fill="black"/>
<path d="M7.31152 6.67627H8.20654V7H6.91895V5.00049H8.20654V5.32422H7.31152V5.83691H8.15381V6.14014H7.31152V6.67627Z" fill="black"/>
<path d="M8.83297 6.66309H9.68111V7H8.43746V5.00049H8.83297V6.66309Z" fill="black"/>
<path fill-rule="evenodd" clip-rule="evenodd" d="M9.80363 7V5.00049H10.5331C11.141 5.00049 11.4281 5.36377 11.4281 5.99512C11.4281 6.63086 11.1366 7 10.5331 7H9.80363ZM10.4804 5.32275H10.1991V6.67627H10.4804C10.8525 6.67627 11.0209 6.45361 11.0209 6.00244C11.0209 5.55127 10.851 5.32275 10.4804 5.32275Z" fill="black"/>
<path fill-rule="evenodd" clip-rule="evenodd" d="M7.02158 14.4336C7.46546 15.1888 8.53763 15.1888 8.98151 14.4336L15.8385 2.76691C16.2955 1.9893 15.7468 1 14.8585 1H1.14459C0.256279 1 -0.292407 1.9893 0.164626 2.76691L7.02158 14.4336ZM8.00154 14C7.97748 14 7.95578 13.994 7.93842 13.9843C7.92343 13.976 7.9036 13.9607 7.8837 13.9269L1.02675 2.26021C0.991085 2.19953 0.991803 2.13602 1.02461 2.07687C1.04106 2.04721 1.06163 2.02764 1.07932 2.01667C1.09404 2.00754 1.11303 2 1.14459 2H14.8585C14.8901 2 14.909 2.00754 14.9238 2.01667C14.9415 2.02764 14.962 2.04721 14.9785 2.07687C15.0113 2.13602 15.012 2.19953 14.9763 2.26021L8.11939 13.9269C8.09948 13.9607 8.07966 13.976 8.06467 13.9843C8.04731 13.994 8.02561 14 8.00154 14Z" fill="black"/>
</svg>
