<svg width="16" height="16" viewBox="0 0 16 16" fill="none" xmlns="http://www.w3.org/2000/svg">
<path d="M9.04941 0.434679C8.46984 -0.144892 7.53017 -0.144894 6.95059 0.434678L0.434679 6.95059C-0.144892 7.53016 -0.144894 8.46983 0.434678 9.04941L6.95059 15.5653C7.53016 16.1449 8.46983 16.1449 9.04941 15.5653L15.5653 9.04941C16.1449 8.46984 16.1449 7.53017 15.5653 6.95059L9.04941 0.434679ZM7.25 6H6.03376C5.8218 6 5.70601 5.75279 5.8417 5.58995L7.80794 3.23047C7.90789 3.11053 8.09211 3.11053 8.19205 3.23047L10.1583 5.58995C10.294 5.75279 10.1782 6 9.96624 6H8.75V12H7.25V8.82319C6.69851 9.50862 6.02134 10.1858 5.36913 10.838L5.35355 10.8536L4.64645 10.1464C5.40298 9.38991 6.12549 8.66602 6.6625 7.95C6.91205 7.61726 7.10959 7.30142 7.25 7.00008V6Z" fill="black"/>
</svg>
