<svg width="16" height="16" viewBox="0 0 16 16" fill="none" xmlns="http://www.w3.org/2000/svg">
<path d="M5 5V6.5H7.25V12H8.75V6.5H11V5H5Z" fill="black"/>
<path d="M9.04941 0.434679C8.46984 -0.144892 7.53017 -0.144894 6.95059 0.434678L0.434679 6.95059C-0.144892 7.53016 -0.144894 8.46983 0.434678 9.04941L6.95059 15.5653C7.53016 16.1449 8.46983 16.1449 9.04941 15.5653L15.5653 9.04941C16.1449 8.46984 16.1449 7.53017 15.5653 6.95059L9.04941 0.434679ZM7.6502 1.13428C7.84339 0.941093 8.15661 0.941093 8.3498 1.13428L14.8657 7.6502C15.0589 7.84339 15.0589 8.15661 14.8657 8.3498L8.3498 14.8657C8.15661 15.0589 7.84339 15.0589 7.6502 14.8657L1.13428 8.3498C0.941093 8.15661 0.941093 7.84339 1.13428 7.6502L7.6502 1.13428Z" fill="black"/>
</svg>
