<svg width="16" height="16" viewBox="0 0 16 16" fill="none" xmlns="http://www.w3.org/2000/svg">
<path fill-rule="evenodd" clip-rule="evenodd" d="M6 4C6 3.44772 6.44772 3 7 3H9C9.55228 3 10 3.44772 10 4V12C10 12.5523 9.55228 13 9 13H7C6.44772 13 6 12.5523 6 12V4ZM8 6C8.55228 6 9 5.55228 9 5C9 4.44772 8.55228 4 8 4C7.44772 4 7 4.44772 7 5C7 5.55228 7.44772 6 8 6ZM8 9C8.55228 9 9 8.55228 9 8C9 7.44772 8.55228 7 8 7C7.44772 7 7 7.44772 7 8C7 8.55228 7.44772 9 8 9ZM9 11C9 11.5523 8.55228 12 8 12C7.44772 12 7 11.5523 7 11C7 10.4477 7.44772 10 8 10C8.55228 10 9 10.4477 9 11Z" fill="black"/>
<path fill-rule="evenodd" clip-rule="evenodd" d="M9.04941 0.434679C8.46984 -0.144892 7.53017 -0.144894 6.95059 0.434678L0.434679 6.95059C-0.144892 7.53016 -0.144894 8.46983 0.434678 9.04941L6.95059 15.5653C7.53016 16.1449 8.46983 16.1449 9.04941 15.5653L15.5653 9.04941C16.1449 8.46984 16.1449 7.53017 15.5653 6.95059L9.04941 0.434679ZM7.6502 1.13428C7.84339 0.941093 8.15661 0.941093 8.3498 1.13428L14.8657 7.6502C15.0589 7.84339 15.0589 8.15661 14.8657 8.3498L8.3498 14.8657C8.15661 15.0589 7.84339 15.0589 7.6502 14.8657L1.13428 8.3498C0.941093 8.15661 0.941093 7.84339 1.13428 7.6502L7.6502 1.13428Z" fill="black"/>
</svg>
