<svg width="16" height="16" viewBox="0 0 16 16" fill="none" xmlns="http://www.w3.org/2000/svg">
<path d="M9.04941 0.434679C8.46984 -0.144892 7.53017 -0.144894 6.95059 0.434678L4.22297 3.16231L8 6.93934L11.777 3.16231L9.04941 0.434679Z" fill="black"/>
<path d="M12.3242 7.85938V6.99805H12.791C13.0703 6.99805 13.2578 7.15234 13.2578 7.4375C13.2578 7.71875 13.0762 7.85938 12.7832 7.85938H12.3242Z" fill="black"/>
<path d="M12.8377 4.22297L9.06066 8L12.8377 11.777L15.5653 9.04941C16.1449 8.46984 16.1449 7.53017 15.5653 6.95059L12.8377 4.22297ZM12.8672 6.58398C13.459 6.58398 13.8027 6.91797 13.8027 7.42773C13.8027 7.81836 13.5605 8.08203 13.3184 8.17578L13.8535 9.25H13.2637L12.7969 8.25586H12.3242V9.25H11.8027V6.58398H12.8672Z" fill="black"/>
<path d="M11.777 12.8377L8 9.06066L4.22297 12.8377L6.95059 15.5653C7.53016 16.1449 8.46983 16.1449 9.04941 15.5653L11.777 12.8377Z" fill="black"/>
<path d="M2.82422 6.99805V7.85938H3.2832C3.57617 7.85938 3.75781 7.71875 3.75781 7.4375C3.75781 7.15234 3.57031 6.99805 3.29102 6.99805H2.82422Z" fill="black"/>
<path d="M3.16231 11.777L6.93934 8L3.16231 4.22297L0.434679 6.95059C-0.144892 7.53016 -0.144894 8.46983 0.434678 9.04941L3.16231 11.777ZM2.30273 6.58398H3.36719C3.95898 6.58398 4.30273 6.91797 4.30273 7.42773C4.30273 7.81836 4.06055 8.08203 3.81836 8.17578L4.35352 9.25H3.76367L3.29688 8.25586H2.82422V9.25H2.30273V6.58398Z" fill="black"/>
</svg>
