<svg width="16" height="16" viewBox="0 0 16 16" fill="none" xmlns="http://www.w3.org/2000/svg">
<path d="M5.11578 6.28027H5.43658C5.83063 6.28027 6.01813 6.52051 6.01813 7.00244C6.01813 7.48145 5.83209 7.72021 5.43658 7.72021H5.11578V6.28027Z" fill="black"/>
<path d="M8.75194 6.34619L9.02 7.19141H8.46776L8.73729 6.34619H8.75194Z" fill="black"/>
<path d="M10.0786 6.28027H10.3994C10.7934 6.28027 10.9809 6.52051 10.9809 7.00244C10.9809 7.48145 10.7949 7.72021 10.3994 7.72021H10.0786V6.28027Z" fill="black"/>
<path d="M9.28707 9.28027H9.60787C10.0019 9.28027 10.1894 9.52051 10.1894 10.0024C10.1894 10.4814 10.0034 10.7202 9.60787 10.7202H9.28707V9.28027Z" fill="black"/>
<path d="M9.04941 0.434679C8.46984 -0.144892 7.53017 -0.144894 6.95059 0.434678L0.434679 6.95059C-0.144892 7.53016 -0.144894 8.46983 0.434678 9.04941L6.95059 15.5653C7.53016 16.1449 8.46983 16.1449 9.04941 15.5653L15.5653 9.04941C16.1449 8.46984 16.1449 7.53017 15.5653 6.95059L9.04941 0.434679ZM4.78326 6.00049H5.47321C6.0694 6.00049 6.35944 6.35498 6.35944 6.99805C6.35944 7.64111 6.06647 8 5.47321 8H4.78326V6.00049ZM7.81936 7.72021V8H6.57131V6.00049H7.81936V6.28027H6.90237V6.8501H7.76516V7.11816H6.90237V7.72021H7.81936ZM8.2158 8H7.87596L8.56444 6.00049H8.93504L9.62352 8H9.27196L9.09471 7.44629H8.39305L8.2158 8ZM9.74604 6.00049H10.436C11.0322 6.00049 11.3222 6.35498 11.3222 6.99805C11.3222 7.64111 11.0292 8 10.436 8H9.74604V6.00049ZM6.8228 10.7202V11H5.57475V9.00049H6.8228V9.28027H5.9058V9.8501H6.7686V10.1182H5.9058V10.7202H6.8228ZM7.39502 11H7.07569V9.00049H7.36865L8.30176 10.436H8.31641V9.00049H8.63574V11H8.34424L7.40821 9.56006H7.39502V11ZM8.95455 9.00049H9.6445C10.2407 9.00049 10.5307 9.35498 10.5307 9.99805C10.5307 10.6411 10.2378 11 9.6445 11H8.95455V9.00049Z" fill="black"/>
</svg>
