<svg width="16" height="16" viewBox="0 0 16 16" fill="none" xmlns="http://www.w3.org/2000/svg">
<path d="M9.04941 0.434679C8.46984 -0.144892 7.53017 -0.144894 6.95059 0.434678L0.434679 6.95059C-0.144892 7.53016 -0.144894 8.46983 0.434678 9.04941L6.95059 15.5653C7.53016 16.1449 8.46983 16.1449 9.04941 15.5653L15.5653 9.04941C16.1449 8.46984 16.1449 7.53017 15.5653 6.95059L9.04941 0.434679ZM6.86503 8.36788C6.75905 8.55144 6.48706 8.52811 6.41389 8.32918L5.35363 5.44662C5.29974 5.30009 5.39184 5.14056 5.54569 5.11397L8.57218 4.5909C8.78104 4.5548 8.93724 4.77869 8.83126 4.96225L8.16515 6.11599L8.78624 6.48865C9.53925 6.94046 10 7.75422 10 8.63238V11H9V8.63238C9 8.10549 8.72355 7.61723 8.27174 7.34614L7.66508 6.98214L6.86503 8.36788Z" fill="black"/>
</svg>
