<svg width="16" height="16" viewBox="0 0 16 16" fill="none" xmlns="http://www.w3.org/2000/svg">
<path d="M9.04941 0.434679C8.46984 -0.144892 7.53017 -0.144894 6.95059 0.434678L0.434679 6.95059C-0.144892 7.53016 -0.144894 8.46983 0.434678 9.04941L6.95059 15.5653C7.53016 16.1449 8.46983 16.1449 9.04941 15.5653L15.5653 9.04941C16.1449 8.46984 16.1449 7.53017 15.5653 6.95059L9.04941 0.434679ZM9 8.46624V7H7.5C6.67157 7 6 7.67157 6 8.5V11H5V8.5C5 7.11929 6.11929 6 7.5 6H9V4.53376C9 4.3218 9.24721 4.20601 9.41005 4.3417L11.7695 6.30794C11.8895 6.40789 11.8895 6.59211 11.7695 6.69206L9.41005 8.6583C9.24721 8.79399 9 8.6782 9 8.46624Z" fill="black"/>
</svg>
