<svg width="16" height="16" viewBox="0 0 16 16" fill="none" xmlns="http://www.w3.org/2000/svg">
<path d="M10.3711 8.27734V7.72363C10.3711 6.89746 9.94918 6.49023 9.38375 6.49023C8.81246 6.49023 8.39352 6.89746 8.39352 7.72363V8.27734C8.39352 9.10645 8.81246 9.51367 9.38375 9.51367C9.94918 9.51367 10.3711 9.10645 10.3711 8.27734Z" fill="black"/>
<path d="M12.9569 8.03711C13.4198 8.03711 13.6923 7.76465 13.6923 7.29297C13.6923 6.82129 13.4198 6.55176 12.9569 6.55176H12.1835V8.03711H12.9569Z" fill="black"/>
<path d="M4.8934 0C4.76079 0 4.63361 0.0526784 4.53984 0.146447L0.146447 4.53984C0.0526784 4.63361 0 4.76079 0 4.8934V11.1066C0 11.2392 0.0526784 11.3664 0.146447 11.4602L4.53984 15.8536C4.63361 15.9473 4.76079 16 4.8934 16H11.1066C11.2392 16 11.3664 15.9473 11.4602 15.8536L15.8536 11.4602C15.9473 11.3664 16 11.2392 16 11.1066V4.8934C16 4.76079 15.9473 4.63361 15.8536 4.53984L11.4602 0.146447C11.3664 0.0526784 11.2392 0 11.1066 0H4.8934ZM3.16027 10.0791C2.22863 10.0791 1.71301 9.58691 1.66613 8.94824H2.31945C2.38391 9.29395 2.71496 9.53125 3.21008 9.53125C3.73449 9.53125 4.03918 9.28516 4.03918 8.91016C4.03918 8.6084 3.83703 8.44434 3.40344 8.33887L2.74719 8.1748C2.13781 8.02832 1.76867 7.66504 1.76867 7.09668C1.76867 6.39062 2.36633 5.91309 3.21301 5.91309C4.06555 5.91309 4.59875 6.3877 4.64855 7H4.00402C3.93957 6.68066 3.65246 6.45801 3.20715 6.45801C2.73547 6.45801 2.43664 6.7041 2.43664 7.05859C2.43664 7.31934 2.63293 7.49512 2.99035 7.58008L3.64367 7.74121C4.3175 7.90527 4.70422 8.22754 4.70422 8.85156C4.70422 9.58691 4.13 10.0791 3.16027 10.0791ZM6.58695 6.56934V10H5.92191V6.56934H4.75297V6.00098H7.75883V6.56934H6.58695ZM11.0449 7.72949V8.27441C11.0449 9.40527 10.4091 10.0791 9.38375 10.0791C8.35836 10.0791 7.71969 9.40527 7.71969 8.27441V7.72949C7.71969 6.59277 8.35836 5.92188 9.38375 5.92188C10.4091 5.92188 11.0449 6.5957 11.0449 7.72949ZM11.5214 6.00098H13.0565C13.8768 6.00098 14.372 6.55176 14.372 7.29297C14.372 8.04004 13.871 8.58203 13.0507 8.58203H12.1864V10H11.5214V6.00098Z" fill="black"/>
</svg>
