<svg width="16" height="16" viewBox="0 0 16 16" fill="none" xmlns="http://www.w3.org/2000/svg">
<path d="M10.4804 5.32275H10.1991V6.67627H10.4804C10.8525 6.67627 11.0209 6.45361 11.0209 6.00244C11.0209 5.55127 10.851 5.32275 10.4804 5.32275Z" fill="black"/>
<path d="M7.02158 14.4336C7.46546 15.1888 8.53763 15.1888 8.98151 14.4336L15.8385 2.76691C16.2955 1.9893 15.7468 1 14.8585 1H1.14459C0.256279 1 -0.292407 1.9893 0.164626 2.76691L7.02158 14.4336ZM5.50643 6.23242V7H5.10945V6.23975L4.44002 5.00049H4.87947L5.30428 5.84863H5.32039L5.74813 5.00049H6.17586L5.50643 6.23242ZM6.62797 5.00049V7H6.23246V5.00049H6.62797ZM7.31152 6.67627H8.20654V7H6.91895V5.00049H8.20654V5.32422H7.31152V5.83691H8.15381V6.14014H7.31152V6.67627ZM8.83297 6.66309H9.68111V7H8.43746V5.00049H8.83297V6.66309ZM9.80363 7V5.00049H10.5331C11.141 5.00049 11.4281 5.36377 11.4281 5.99512C11.4281 6.63086 11.1366 7 10.5331 7H9.80363Z" fill="black"/>
</svg>
