<svg width="16" height="16" viewBox="0 0 16 16" fill="none" xmlns="http://www.w3.org/2000/svg">
<path d="M7 1.41418V3.99997H2C1.44772 3.99997 1 4.44769 1 4.99997V8.99997C1 9.55226 1.44772 9.99997 2 9.99997H7V16H9V9.99997H12.5316C12.8284 9.99997 13.1099 9.86815 13.2998 9.64016L15.2333 7.32006C15.3878 7.13464 15.3878 6.8653 15.2333 6.67988L13.2998 4.35979C13.1099 4.13179 12.8284 3.99997 12.5316 3.99997H9V1.41418C9 1.14897 8.89464 0.894614 8.70711 0.707078C8.31658 0.316554 7.68342 0.316554 7.29289 0.707078C7.10536 0.894614 7 1.14897 7 1.41418ZM12.5316 4.99997L14.1983 6.99997L12.5316 8.99997H2L2 4.99997H12.5316Z" fill="black"/>
</svg>
