<svg width="16" height="16" viewBox="0 0 16 16" fill="none" xmlns="http://www.w3.org/2000/svg">
<path d="M11.3027 6.58398H12.3672C12.959 6.58398 13.3027 6.91797 13.3027 7.42773C13.3027 7.81836 13.0605 8.08203 12.8184 8.17578L13.3535 9.25H12.7637L12.2969 8.25586H11.8242V9.25H11.3027V6.58398ZM11.8242 6.99805V7.85938H12.2832C12.5762 7.85938 12.7578 7.71875 12.7578 7.4375C12.7578 7.15234 12.5703 6.99805 12.291 6.99805H11.8242Z" fill="black"/>
<path d="M3.05273 6.58398H4.11719C4.70898 6.58398 5.05273 6.91797 5.05273 7.42773C5.05273 7.81836 4.81055 8.08203 4.56836 8.17578L5.10352 9.25H4.51367L4.04688 8.25586H3.57422V9.25H3.05273V6.58398ZM3.57422 6.99805V7.85938H4.0332C4.32617 7.85938 4.50781 7.71875 4.50781 7.4375C4.50781 7.15234 4.32031 6.99805 4.04102 6.99805H3.57422Z" fill="black"/>
<path d="M6.95059 0.434678C7.53017 -0.144894 8.46984 -0.144892 9.04941 0.434679L15.5653 6.95059C16.1449 7.53017 16.1449 8.46984 15.5653 9.04941L9.04941 15.5653C8.46983 16.1449 7.53016 16.1449 6.95059 15.5653L0.434678 9.04941C-0.144894 8.46983 -0.144892 7.53016 0.434679 6.95059L6.95059 0.434678ZM8.3498 1.13428C8.15661 0.941093 7.84339 0.941093 7.6502 1.13428L4.92254 3.86194L8 6.9394L11.0775 3.86194L8.3498 1.13428ZM12.1381 4.9226L9.06066 8.00006L12.1381 11.0775L14.8657 8.3498C15.0589 8.15661 15.0589 7.84339 14.8657 7.6502L12.1381 4.9226ZM11.0774 12.1381L8 9.06072L4.9226 12.1381L7.6502 14.8657C7.84339 15.0589 8.15661 15.0589 8.3498 14.8657L11.0774 12.1381ZM3.86194 11.0775L6.93934 8.00006L3.86188 4.9226L1.13428 7.6502C0.941093 7.84339 0.941093 8.15661 1.13428 8.3498L3.86194 11.0775Z" fill="black"/>
</svg>
