<svg width="16" height="16" viewBox="0 0 16 16" fill="none" xmlns="http://www.w3.org/2000/svg">
<path d="M8.75 6V7.00008C8.89041 7.30142 9.08794 7.61726 9.3375 7.95C9.87451 8.66602 10.597 9.38991 11.3536 10.1464L10.6464 10.8536L10.6309 10.838C9.97866 10.1858 9.30149 9.50862 8.75 8.82319V12H7.25V6H6.03376C5.8218 6 5.70601 5.75279 5.8417 5.58995L7.80794 3.23047C7.90789 3.11053 8.09211 3.11053 8.19206 3.23047L10.1583 5.58995C10.294 5.75279 10.1782 6 9.96624 6H8.75Z" fill="black"/>
<path fill-rule="evenodd" clip-rule="evenodd" d="M9.04941 0.434679C8.46984 -0.144892 7.53017 -0.144894 6.95059 0.434678L0.434679 6.95059C-0.144892 7.53016 -0.144894 8.46983 0.434678 9.04941L6.95059 15.5653C7.53016 16.1449 8.46983 16.1449 9.04941 15.5653L15.5653 9.04941C16.1449 8.46984 16.1449 7.53017 15.5653 6.95059L9.04941 0.434679ZM7.6502 1.13428C7.84339 0.941093 8.15661 0.941093 8.3498 1.13428L14.8657 7.6502C15.0589 7.84339 15.0589 8.15661 14.8657 8.3498L8.3498 14.8657C8.15661 15.0589 7.84339 15.0589 7.6502 14.8657L1.13428 8.3498C0.941093 8.15661 0.941093 7.84339 1.13428 7.6502L7.6502 1.13428Z" fill="black"/>
</svg>
