<svg width="16" height="16" viewBox="0 0 16 16" fill="none" xmlns="http://www.w3.org/2000/svg">
<path d="M16 8C16 12.4183 12.4183 16 8 16C3.58172 16 0 12.4183 0 8C0 3.58172 3.58172 0 8 0C12.4183 0 16 3.58172 16 8ZM12.5836 13.2907L6.59588 7.30299C6.23389 7.57684 6 8.0111 6 8.5V11H5V8.5C5 7.73509 5.34353 7.05041 5.88472 6.59183L2.70926 3.41637C1.64441 4.64443 1 6.24696 1 8C1 11.866 4.13401 15 8 15C9.75304 15 11.3556 14.3556 12.5836 13.2907ZM13.2907 12.5836C14.3556 11.3556 15 9.75304 15 8C15 4.13401 11.866 1 8 1C6.24696 1 4.64443 1.64441 3.41637 2.70926L6.80498 6.09788C7.02563 6.03415 7.25883 6 7.5 6H9V4.53376C9 4.3218 9.24721 4.20601 9.41005 4.3417L11.7695 6.30794C11.8895 6.40789 11.8895 6.59211 11.7695 6.69206L9.41005 8.65829C9.40168 8.66526 9.3931 8.67157 9.38434 8.67723L13.2907 12.5836ZM7.70711 7L9 8.29289V7H7.70711Z" fill="black"/>
</svg>
