<svg width="16" height="16" viewBox="0 0 16 16" fill="none" xmlns="http://www.w3.org/2000/svg">
<path d="M13.2923 13.9994C11.882 15.2445 10.0292 16 8 16C3.58172 16 0 12.4183 0 8C0 5.97079 0.755509 4.11804 2.00058 2.70769L5.5 6.20711V12H6.78314V9.16406H8.45067C8.45276 9.16406 8.45486 9.16406 8.45695 9.16406L13.2923 13.9994Z" fill="black"/>
<path d="M13.9994 13.2923L9.62992 8.92282C10.4998 8.52331 11 7.66074 11 6.58594C11 5.10352 10.0447 4.00195 8.46197 4.00195H5.5V4.79289L2.70769 2.00058C4.11804 0.755509 5.97079 0 8 0C12.4183 0 16 3.58172 16 8C16 10.0292 15.2445 11.882 13.9994 13.2923Z" fill="black"/>
<path d="M6.7775 7.4846V8.07422H7.36711L6.7775 7.4846Z" fill="black"/>
<path d="M8.72639 8.01929L6.7775 6.07039V5.10352H8.26979C9.1629 5.10352 9.6886 5.64258 9.6886 6.58594C9.6886 7.35492 9.33929 7.85915 8.72639 8.01929Z" fill="black"/>
</svg>
