<svg width="16" height="16" viewBox="0 0 16 16" fill="none" xmlns="http://www.w3.org/2000/svg">
<path d="M2.00058 13.2923C0.755509 11.882 0 10.0292 0 8C0 3.58172 3.58172 0 8 0C10.0292 0 11.882 0.755509 13.2923 2.00058L9.19501 6.09788C8.97437 6.03415 8.74117 6 8.5 6H7V4.53376C7 4.3218 6.75279 4.20601 6.58995 4.3417L4.23047 6.30794C4.11053 6.40789 4.11053 6.59211 4.23047 6.69206L6.58995 8.65829C6.59832 8.66526 6.6069 8.67157 6.61566 8.67723L2.00058 13.2923Z" fill="black"/>
<path d="M2.70769 13.9994C4.11804 15.2445 5.97079 16 8 16C12.4183 16 16 12.4183 16 8C16 5.97079 15.2445 4.11804 13.9994 2.70769L10.1153 6.59183C10.6565 7.05041 11 7.73509 11 8.5V11H10V8.5C10 8.0111 9.76611 7.57684 9.40412 7.30299L2.70769 13.9994Z" fill="black"/>
<path d="M8.29289 7L7 8.29289V7H8.29289Z" fill="black"/>
</svg>
