<svg width="16" height="16" viewBox="0 0 16 16" fill="none" xmlns="http://www.w3.org/2000/svg">
<path d="M7 1.41418V1.99997H2C1.44772 1.99997 1 2.44769 1 2.99997V4.99997C1 5.55226 1.44772 5.99997 2 5.99997H7V6.99997H2.5C2.18524 6.99997 1.88885 7.14817 1.7 7.39997L0.725001 8.69997C0.591666 8.87775 0.591666 9.12219 0.725001 9.29997L1.7 10.6C1.88885 10.8518 2.18524 11 2.5 11H7V16H9V11H14C14.5523 11 15 10.5523 15 9.99997V7.99997C15 7.44769 14.5523 6.99997 14 6.99997H9V5.99997H13.5C13.8148 5.99997 14.1111 5.85178 14.3 5.59997L15.275 4.29997C15.4083 4.12219 15.4083 3.87775 15.275 3.69997L14.3 2.39997C14.1111 2.14817 13.8148 1.99997 13.5 1.99997H9V1.41418C9 1.14897 8.89464 0.894614 8.70711 0.707078C8.31658 0.316554 7.68342 0.316554 7.29289 0.707078C7.10536 0.894614 7 1.14897 7 1.41418ZM13.5 2.99997L14.25 3.99997L13.5 4.99997H2V2.99997H13.5ZM14 7.99997V9.99997H2.5L1.75 8.99997L2.5 7.99997H14Z" fill="black"/>
</svg>
