<svg width="16" height="16" viewBox="0 0 16 16" fill="none" xmlns="http://www.w3.org/2000/svg">
<path d="M8.33497 6.98212L9.13504 8.36788C9.24102 8.55144 9.51301 8.52811 9.58618 8.32918L10.6464 5.44662C10.7003 5.30009 10.6082 5.14056 10.4544 5.11397L7.42789 4.5909C7.21902 4.5548 7.06282 4.77869 7.1688 4.96225L7.8349 6.11597L7.21377 6.48865C6.46076 6.94046 6.00001 7.75422 6.00001 8.63238V11H7.00001V8.63238C7.00001 8.10549 7.27646 7.61723 7.72826 7.34614L8.33497 6.98212Z" fill="black"/>
<path fill-rule="evenodd" clip-rule="evenodd" d="M6.95059 0.434678C7.53017 -0.144894 8.46984 -0.144892 9.04941 0.434679L15.5653 6.95059C16.1449 7.53017 16.1449 8.46984 15.5653 9.04941L9.04941 15.5653C8.46983 16.1449 7.53016 16.1449 6.95059 15.5653L0.434678 9.04941C-0.144894 8.46983 -0.144892 7.53016 0.434679 6.95059L6.95059 0.434678ZM8.3498 1.13428C8.15661 0.941093 7.84339 0.941093 7.6502 1.13428L1.13428 7.6502C0.941093 7.84339 0.941093 8.15661 1.13428 8.3498L7.6502 14.8657C7.84339 15.0589 8.15661 15.0589 8.3498 14.8657L14.8657 8.3498C15.0589 8.15661 15.0589 7.84339 14.8657 7.6502L8.3498 1.13428Z" fill="black"/>
</svg>
