<svg width="16" height="16" viewBox="0 0 16 16" fill="none" xmlns="http://www.w3.org/2000/svg">
<path d="M9.04941 0.434679C8.46984 -0.144892 7.53017 -0.144894 6.95059 0.434678L0.434679 6.95059C-0.144892 7.53016 -0.144894 8.46983 0.434678 9.04941L6.95059 15.5653C7.53016 16.1449 8.46983 16.1449 9.04941 15.5653L15.5653 9.04941C16.1449 8.46984 16.1449 7.53017 15.5653 6.95059L9.04941 0.434679ZM7 8.46624C7 8.6782 6.75279 8.79399 6.58995 8.6583L4.23047 6.69206C4.11053 6.59211 4.11053 6.40789 4.23047 6.30794L6.58995 4.3417C6.75279 4.20601 7 4.3218 7 4.53376V6H8.5C9.88071 6 11 7.11929 11 8.5V11H10V8.5C10 7.67157 9.32843 7 8.5 7H7V8.46624Z" fill="black"/>
</svg>
