<svg width="16" height="16" viewBox="0 0 16 16" fill="none" xmlns="http://www.w3.org/2000/svg">
<path d="M6.07941 0.233548L6.25897 0.960872C5.55128 1.13578 4.87394 1.41621 4.24973 1.79275L3.86561 1.14952C4.55269 0.733435 5.2992 0.42456 6.07941 0.233548ZM9.92059 0.233548L9.74103 0.960872C10.4487 1.13578 11.1261 1.41621 11.7503 1.79275L12.1389 1.14952C11.45 0.733801 10.7021 0.424964 9.92059 0.233548ZM1.14951 3.86335C0.733814 4.55144 0.424971 5.29864 0.233538 6.07942L0.960863 6.25898C1.13577 5.55128 1.4162 4.87395 1.79274 4.24974L1.14951 3.86335ZM0.749484 8.00001C0.749429 7.63632 0.776781 7.27315 0.831308 6.91357L0.0903461 6.79992C-0.0301154 7.59469 -0.0301154 8.40306 0.0903461 9.19782L0.831308 9.08645C0.776867 8.72686 0.749515 8.36369 0.749484 8.00001ZM12.1344 14.8482L11.7503 14.2073C11.127 14.5842 10.4504 14.8646 9.74331 15.0391L9.92286 15.7665C10.7021 15.5736 11.4477 15.264 12.1344 14.8482ZM15.2505 8.00001C15.2505 8.36369 15.2231 8.72686 15.1687 9.08645L15.9097 9.19782C16.0301 8.40306 16.0301 7.59469 15.9097 6.79992L15.1687 6.91357C15.2232 7.27315 15.2506 7.63632 15.2505 8.00001ZM15.7665 9.91833L15.0391 9.73877C14.8646 10.4473 14.5842 11.1255 14.2073 11.7503L14.8505 12.1367C15.2666 11.448 15.5754 10.7 15.7665 9.91833ZM9.08644 15.1687C8.36626 15.2778 7.63374 15.2778 6.91356 15.1687L6.80219 15.9097C7.59618 16.0301 8.40382 16.0301 9.19781 15.9097L9.08644 15.1687ZM13.8368 12.3003C13.4048 12.8861 12.8868 13.4034 12.3003 13.8345L12.7458 14.4391C13.3918 13.9636 13.9632 13.3944 14.4414 12.7503L13.8368 12.3003ZM12.3003 2.16323C12.8868 2.5952 13.4048 3.11318 13.8368 3.6997L14.4414 3.24967C13.9649 2.60504 13.395 2.03509 12.7503 1.55864L12.3003 2.16323ZM2.16322 3.6997C2.59519 3.11318 3.11317 2.5952 3.69969 2.16323L3.24966 1.55864C2.60503 2.03509 2.03508 2.60504 1.55863 3.24967L2.16322 3.6997ZM14.8505 3.86335L14.2073 4.24974C14.5841 4.87296 14.8646 5.5496 15.0391 6.2567L15.7665 6.07715C15.575 5.29708 15.2662 4.55064 14.8505 3.86335ZM6.91356 0.831318C7.63374 0.722206 8.36626 0.722206 9.08644 0.831318L9.19781 0.0903557C8.40382 -0.0301186 7.59618 -0.0301186 6.80219 0.0903557L6.91356 0.831318ZM2.54734 14.6391L0.999502 14.9982L1.36089 13.4504L0.631294 13.2799L0.269904 14.8278C0.247293 14.9237 0.243823 15.0232 0.259693 15.1205C0.275563 15.2178 0.310461 15.3111 0.362392 15.3949C0.414323 15.4787 0.482268 15.5514 0.562339 15.6089C0.64241 15.6665 0.733037 15.7076 0.829035 15.7301C0.941304 15.7551 1.0577 15.7551 1.16997 15.7301L2.71781 15.3733L2.54734 14.6391ZM0.78585 12.6117L1.51772 12.7799L1.76774 11.7071C1.40263 11.0946 1.13069 10.4313 0.960863 9.73877L0.233538 9.91833C0.397137 10.5812 0.644605 11.2205 0.969954 11.8207L0.78585 12.6117ZM4.2861 14.2345L3.2133 14.4846L3.38376 15.2164L4.17245 15.0323C4.77225 15.3587 5.41167 15.6062 6.07486 15.7687L6.25442 15.0414C5.56408 14.8694 4.90306 14.5959 4.29292 14.23L4.2861 14.2345ZM8 1.49955C4.40884 1.50182 1.50181 4.41339 1.50181 8.00228C1.50379 9.22467 1.84955 10.4219 2.49961 11.4571L1.87456 14.1254L4.54066 13.5004C7.57951 15.4119 11.5934 14.5005 13.5049 11.4639C15.4164 8.42731 14.5073 4.41339 11.4707 2.49962C10.4311 1.84589 9.22802 1.49921 8 1.49955Z" fill="black"/>
</svg>
