<svg width="16" height="16" viewBox="0 0 16 16" fill="none" xmlns="http://www.w3.org/2000/svg">
<path d="M0 8C0 12.4183 3.58172 16 8 16C12.4183 16 16 12.4183 16 8C16 3.58172 12.4183 0 8 0C3.58172 0 0 3.58172 0 8ZM3.41637 13.2907L9.40412 7.30299C9.76611 7.57684 10 8.0111 10 8.5V11H11V8.5C11 7.73509 10.6565 7.05041 10.1153 6.59183L13.2907 3.41637C14.3556 4.64443 15 6.24696 15 8C15 11.866 11.866 15 8 15C6.24696 15 4.64443 14.3556 3.41637 13.2907ZM2.70926 12.5836C1.64441 11.3556 1 9.75304 1 8C1 4.13401 4.13401 1 8 1C9.75304 1 11.3556 1.64441 12.5836 2.70926L9.19501 6.09788C8.97437 6.03415 8.74117 6 8.5 6H7V4.53376C7 4.3218 6.75279 4.20601 6.58995 4.3417L4.23047 6.30794C4.11053 6.40789 4.11053 6.59211 4.23047 6.69206L6.58995 8.65829C6.59832 8.66526 6.6069 8.67157 6.61566 8.67723L2.70926 12.5836ZM8.29289 7L7 8.29289V7H8.29289Z" fill="black"/>
</svg>
