<svg width="16" height="16" viewBox="0 0 16 16" fill="none" xmlns="http://www.w3.org/2000/svg">
<path d="M7 6.99997V1.41418C7 1.14897 7.10536 0.894614 7.29289 0.707078C7.68342 0.316554 8.31658 0.316554 8.70711 0.707078C8.89464 0.894614 9 1.14897 9 1.41418V1.99997H14C14.3148 1.99997 14.6111 2.14817 14.8 2.39997L15.775 3.69997C15.9083 3.87775 15.9083 4.12219 15.775 4.29997L14.8 5.59997C14.6111 5.85178 14.3148 5.99997 14 5.99997H9V16H7V11H2C1.68524 11 1.38885 10.8518 1.2 10.6L0.225001 9.29997C0.0916665 9.12219 0.0916665 8.87775 0.225001 8.69997L1.2 7.39997C1.38885 7.14817 1.68524 6.99997 2 6.99997H7ZM8 9.99997V7.99997H2L1.25 8.99997L2 9.99997H8ZM8 4.99997H14L14.75 3.99997L14 2.99997H8V4.99997Z" fill="black"/>
</svg>
