<svg width="16" height="16" viewBox="0 0 16 16" fill="none" xmlns="http://www.w3.org/2000/svg">
<path d="M8 16C12.4183 16 16 12.4183 16 8C16 3.58172 12.4183 0 8 0C3.58172 0 0 3.58172 0 8C0 12.4183 3.58172 16 8 16ZM13.2907 12.5836L9.62992 8.92282C10.4998 8.52331 11 7.66074 11 6.58594C11 5.10352 10.0447 4.00195 8.46197 4.00195H5.5V4.79289L3.41637 2.70926C4.64443 1.64441 6.24696 1 8 1C11.866 1 15 4.13401 15 8C15 9.75304 14.3556 11.3556 13.2907 12.5836ZM12.5836 13.2907C11.3556 14.3556 9.75304 15 8 15C4.13401 15 1 11.866 1 8C1 6.24696 1.64441 4.64443 2.70926 3.41637L5.5 6.20711V12H6.78314V9.16406H8.45067C8.45276 9.16406 8.45486 9.16406 8.45695 9.16406L12.5836 13.2907ZM8.72639 8.01929L6.7775 6.07039V5.10352H8.26979C9.1629 5.10352 9.6886 5.64258 9.6886 6.58594C9.6886 7.35492 9.33929 7.85915 8.72639 8.01929ZM6.7775 7.4846L7.36711 8.07422H6.7775V7.4846Z" fill="black"/>
</svg>
