<svg width="16" height="16" viewBox="0 0 16 16" fill="none" xmlns="http://www.w3.org/2000/svg">
<path d="M11.6464 0.43934L12.5429 1.33579L10.84 3.03869C10.7307 3.01338 10.6169 3 10.5 3H5.5C4.67157 3 4 3.67157 4 4.5V9.87868L2 11.8787V1.5C2 0.671573 2.67157 0 3.5 0H10.5858C10.9836 0 11.3651 0.158035 11.6464 0.43934ZM8.5 5.37868L9.87868 4H8.5V5.37868ZM5 8.87868L6.87868 7H5V8.87868ZM11 7.12132L9.12132 9H11V7.12132ZM7.5 10.6213L6.12132 12H7.5V10.6213ZM5.5 13C5.38306 13 5.26925 12.9866 5.16001 12.9613L2.50172 15.6196C2.7669 15.8562 3.11665 16 3.5 16H12.5C13.3284 16 14 15.3284 14 14.5V4.12132L12 6.12132V11.5C12 12.3284 11.3284 13 10.5 13H5.5ZM5 4.5C5 4.22386 5.22386 4 5.5 4H7.5V6H5V4.5ZM8.5 10H11V11.5C11 11.7761 10.7761 12 10.5 12H8.5V10ZM14.8536 1.85355C15.0488 1.65829 15.0488 1.34171 14.8536 1.14645C14.6583 0.951184 14.3417 0.951184 14.1464 1.14645L1.14645 14.1464C0.951184 14.3417 0.951184 14.6583 1.14645 14.8536C1.34171 15.0488 1.65829 15.0488 1.85355 14.8536L14.8536 1.85355Z" fill="black"/>
</svg>
