<svg width="16" height="16" viewBox="0 0 16 16" fill="none" xmlns="http://www.w3.org/2000/svg">
<path d="M5 4.5C5 4.22386 5.22386 4 5.5 4H7.5V6H5V4.5Z" fill="black"/>
<path d="M8.5 6V4H10.5C10.7761 4 11 4.22386 11 4.5V6H8.5Z" fill="black"/>
<path d="M5 7H11V9H5V7Z" fill="black"/>
<path d="M8.5 10H11V11.5C11 11.7761 10.7761 12 10.5 12H8.5V10Z" fill="black"/>
<path d="M7.5 10V12H5.5C5.22386 12 5 11.7761 5 11.5V10H7.5Z" fill="black"/>
<path d="M3.5 0C2.67157 0 2 0.671573 2 1.5V14.5C2 15.3284 2.67157 16 3.5 16H12.5C13.3284 16 14 15.3284 14 14.5V3.41421C14 3.01639 13.842 2.63486 13.5607 2.35355L11.6464 0.43934C11.3651 0.158035 10.9836 0 10.5858 0H3.5ZM5.5 3H10.5C11.3284 3 12 3.67157 12 4.5V11.5C12 12.3284 11.3284 13 10.5 13H5.5C4.67157 13 4 12.3284 4 11.5V4.5C4 3.67157 4.67157 3 5.5 3Z" fill="black"/>
</svg>
