<svg width="16" height="16" viewBox="0 0 16 16" fill="none" xmlns="http://www.w3.org/2000/svg">
<path d="M11.6464 0.43934L12.5429 1.33579L11.8358 2.04289L10.9393 1.14645C10.8456 1.05268 10.7184 1 10.5858 1H3.5C3.22386 1 3 1.22386 3 1.5V10.8787L2 11.8787V1.5C2 0.671573 2.67157 0 3.5 0H10.5858C10.9836 0 11.3651 0.158035 11.6464 0.43934ZM10.5 3C10.6169 3 10.7307 3.01338 10.84 3.03869L9.87868 4H8.5V5.37868L6.87868 7H5V8.87868L4 9.87868V4.5C4 3.67157 4.67157 3 5.5 3H10.5ZM12 6.12132L11 7.12132V9H9.12132L7.5 10.6213V12H6.12132L5.16001 12.9613C5.26925 12.9866 5.38306 13 5.5 13H10.5C11.3284 13 12 12.3284 12 11.5V6.12132ZM3.5 15C3.39291 15 3.29368 14.9663 3.21232 14.909L2.50172 15.6196C2.7669 15.8562 3.11665 16 3.5 16H12.5C13.3284 16 14 15.3284 14 14.5V4.12132L13 5.12132V14.5C13 14.7761 12.7761 15 12.5 15H3.5ZM5.5 4C5.22386 4 5 4.22386 5 4.5V6H7.5V4H5.5ZM11 10V11.5C11 11.7761 10.7761 12 10.5 12H8.5V10H11ZM14.8536 1.85355C15.0488 1.65829 15.0488 1.34171 14.8536 1.14645C14.6583 0.951184 14.3417 0.951184 14.1464 1.14645L1.14645 14.1464C0.951184 14.3417 0.951184 14.6583 1.14645 14.8536C1.34171 15.0488 1.65829 15.0488 1.85355 14.8536L14.8536 1.85355Z" fill="black"/>
</svg>
