<svg width="16" height="16" viewBox="0 0 16 16" fill="none" xmlns="http://www.w3.org/2000/svg">
<path d="M2 1.5C2 0.671573 2.67157 0 3.5 0H10.5858C10.9836 0 11.3651 0.158035 11.6464 0.43934L13.5607 2.35355C13.842 2.63486 14 3.01639 14 3.41421V14.5C14 15.3284 13.3284 16 12.5 16H3.5C2.67157 16 2 15.3284 2 14.5V1.5ZM3.5 1C3.22386 1 3 1.22386 3 1.5V14.5C3 14.7761 3.22386 15 3.5 15H12.5C12.7761 15 13 14.7761 13 14.5V3.41421C13 3.28161 12.9473 3.15443 12.8536 3.06066L10.9393 1.14645C10.8456 1.05268 10.7184 1 10.5858 1H3.5Z" fill="black"/>
<path d="M5.5 4C5.22386 4 5 4.22386 5 4.5V6H7.5V4H5.5ZM8.5 4V6H11V4.5C11 4.22386 10.7761 4 10.5 4H8.5ZM11 7H5V9H11V7ZM11 10H8.5V12H10.5C10.7761 12 11 11.7761 11 11.5V10ZM7.5 12V10H5V11.5C5 11.7761 5.22386 12 5.5 12H7.5ZM4 4.5C4 3.67157 4.67157 3 5.5 3H10.5C11.3284 3 12 3.67157 12 4.5V11.5C12 12.3284 11.3284 13 10.5 13H5.5C4.67157 13 4 12.3284 4 11.5V4.5Z" fill="black"/>
</svg>
