<svg width="16" height="16" viewBox="0 0 16 16" fill="none" xmlns="http://www.w3.org/2000/svg">
<path d="M0.5 3.5C0.223858 3.5 0 3.72386 0 4V12C0 12.2761 0.223858 12.5 0.5 12.5C0.776142 12.5 1 12.2761 1 12V8.75257L7.26721 12.3885C7.8075 12.7019 8.5 12.3228 8.5 11.6922V8.75257L14.7672 12.3885C15.3075 12.7019 16 12.3228 16 11.6922V4.30846C16 3.67783 15.3075 3.29871 14.7672 3.61216L8.5 7.24808V4.30846C8.5 3.67783 7.8075 3.29871 7.26721 3.61216L1 7.24808V4C1 3.72386 0.776142 3.5 0.5 3.5Z" fill="black"/>
</svg>
