<svg width="16" height="16" viewBox="0 0 16 16" fill="none" xmlns="http://www.w3.org/2000/svg">
<path d="M4.79062 5.09314C4.63821 4.98427 4.43774 4.96972 4.27121 5.05542C4.10467 5.14112 4 5.31271 4 5.5V10.5C4 10.6873 4.10467 10.8589 4.27121 10.9446C4.43774 11.0303 4.63821 11.0157 4.79062 10.9069L7.5 8.9716V10.5C7.5 10.6873 7.60467 10.8589 7.77121 10.9446C7.93775 11.0303 8.13821 11.0157 8.29062 10.9069L11 8.9716V10.5C11 10.7761 11.2239 11 11.5 11C11.7761 11 12 10.7761 12 10.5V5.5C12 5.22386 11.7761 5 11.5 5C11.2239 5 11 5.22386 11 5.5V7.02841L8.29062 5.09314C8.13821 4.98427 7.93775 4.96972 7.77121 5.05542C7.60467 5.14112 7.5 5.31271 7.5 5.5V7.02841L4.79062 5.09314Z" fill="black"/>
<path d="M0 4C0 2.89543 0.895431 2 2 2H14C15.1046 2 16 2.89543 16 4V12C16 13.1046 15.1046 14 14 14H2C0.895431 14 0 13.1046 0 12V4ZM15 4C15 3.44772 14.5523 3 14 3H2C1.44772 3 1 3.44772 1 4V12C1 12.5523 1.44772 13 2 13H14C14.5523 13 15 12.5523 15 12V4Z" fill="black"/>
</svg>
