<svg width="16" height="16" viewBox="0 0 16 16" fill="none" xmlns="http://www.w3.org/2000/svg">
<path d="M8 15C4.13401 15 1 11.866 1 8C1 4.13401 4.13401 1 8 1C11.866 1 15 4.13401 15 8C15 11.866 11.866 15 8 15ZM8 16C12.4183 16 16 12.4183 16 8C16 3.58172 12.4183 0 8 0C3.58172 0 0 3.58172 0 8C0 12.4183 3.58172 16 8 16Z" fill="black"/>
<path d="M10.2288 5.05542C10.0623 4.96972 9.86179 4.98427 9.70938 5.09314L7 7.02841V5.5C7 5.22386 6.77614 5 6.5 5C6.22386 5 6 5.22386 6 5.5V10.5C6 10.7761 6.22386 11 6.5 11C6.77614 11 7 10.7761 7 10.5V8.9716L9.70938 10.9069C9.86179 11.0157 10.0623 11.0303 10.2288 10.9446C10.3953 10.8589 10.5 10.6873 10.5 10.5V5.5C10.5 5.31271 10.3953 5.14112 10.2288 5.05542Z" fill="black"/>
</svg>
