<svg width="16" height="16" viewBox="0 0 16 16" fill="none" xmlns="http://www.w3.org/2000/svg">
<path d="M15.5 3.5C15.7761 3.5 16 3.72386 16 4V12C16 12.2761 15.7761 12.5 15.5 12.5C15.2239 12.5 15 12.2761 15 12V8.75224L8.73279 12.3882C8.21256 12.69 7.5 12.3451 7.5 11.6919V8.75224L1.23279 12.3882C0.712564 12.69 0 12.3451 0 11.6919V4.30813C0 3.65488 0.712564 3.31002 1.23279 3.61183L7.5 7.24776V4.30813C7.5 3.65488 8.21256 3.31002 8.73279 3.61183L15 7.24776V4C15 3.72386 15.2239 3.5 15.5 3.5ZM1 4.63288V11.3671L6.80387 8L1 4.63288ZM8.5 4.63288V11.3671L14.3039 8L8.5 4.63288Z" fill="black"/>
</svg>
