<svg width="16" height="16" viewBox="0 0 16 16" fill="none" xmlns="http://www.w3.org/2000/svg">
<path d="M0 12V4C0 2.89543 0.895431 2 2 2H14C15.1046 2 16 2.89543 16 4V12C16 13.1046 15.1046 14 14 14H2C0.895431 14 0 13.1046 0 12ZM11.2094 5.09314L8.5 7.02841V5.5C8.5 5.31271 8.39533 5.14112 8.22879 5.05542C8.06225 4.96972 7.86179 4.98427 7.70938 5.09314L5 7.02841V5.5C5 5.22386 4.77614 5 4.5 5C4.22386 5 4 5.22386 4 5.5V10.5C4 10.7761 4.22386 11 4.5 11C4.77614 11 5 10.7761 5 10.5V8.9716L7.70938 10.9069C7.86179 11.0157 8.06225 11.0303 8.22879 10.9446C8.39533 10.8589 8.5 10.6873 8.5 10.5V8.9716L11.2094 10.9069C11.3618 11.0157 11.5623 11.0303 11.7288 10.9446C11.8953 10.8589 12 10.6873 12 10.5V5.5C12 5.31271 11.8953 5.14112 11.7288 5.05542C11.5623 4.96972 11.3618 4.98427 11.2094 5.09314Z" fill="black"/>
</svg>
