<svg width="16" height="16" viewBox="0 0 16 16" fill="none" xmlns="http://www.w3.org/2000/svg">
<path d="M0 12V4C0 2.89543 0.895431 2 2 2H14C15.1046 2 16 2.89543 16 4V12C16 13.1046 15.1046 14 14 14H2C0.895431 14 0 13.1046 0 12ZM6.79062 5.09314C6.63821 4.98427 6.43774 4.96972 6.27121 5.05542C6.10467 5.14112 6 5.31271 6 5.5V10.5C6 10.6873 6.10467 10.8589 6.27121 10.9446C6.43774 11.0303 6.63821 11.0157 6.79062 10.9069L9.5 8.9716V10.5C9.5 10.7761 9.72386 11 10 11C10.2761 11 10.5 10.7761 10.5 10.5V5.5C10.5 5.22386 10.2761 5 10 5C9.72386 5 9.5 5.22386 9.5 5.5V7.02841L6.79062 5.09314Z" fill="black"/>
</svg>
