<svg width="16" height="16" viewBox="0 0 16 16" fill="none" xmlns="http://www.w3.org/2000/svg">
<path d="M16 8C16 12.4183 12.4183 16 8 16C3.58172 16 0 12.4183 0 8C0 3.58172 3.58172 0 8 0C12.4183 0 16 3.58172 16 8ZM6.79062 5.09313C6.63821 4.98427 6.43774 4.96972 6.27121 5.05542C6.10467 5.14112 6 5.31271 6 5.5V10.5C6 10.6873 6.10467 10.8589 6.27121 10.9446C6.43774 11.0303 6.63821 11.0157 6.79062 10.9069L9.5 8.9716V10.5C9.5 10.7761 9.72386 11 10 11C10.2761 11 10.5 10.7761 10.5 10.5V5.5C10.5 5.22386 10.2761 5 10 5C9.72386 5 9.5 5.22386 9.5 5.5V7.02841L6.79062 5.09313Z" fill="black"/>
</svg>
