<svg width="16" height="16" viewBox="0 0 16 16" fill="none" xmlns="http://www.w3.org/2000/svg">
<path d="M6.79062 5.09314L9.5 7.02841V5.5C9.5 5.22386 9.72386 5 10 5C10.2761 5 10.5 5.22386 10.5 5.5V10.5C10.5 10.7761 10.2761 11 10 11C9.72386 11 9.5 10.7761 9.5 10.5V8.9716L6.79062 10.9069C6.63821 11.0157 6.43774 11.0303 6.27121 10.9446C6.10467 10.8589 6 10.6873 6 10.5V5.5C6 5.31271 6.10467 5.14112 6.27121 5.05542C6.43774 4.96972 6.63821 4.98427 6.79062 5.09314Z" fill="black"/>
<path d="M0 4C0 2.89543 0.895431 2 2 2H14C15.1046 2 16 2.89543 16 4V12C16 13.1046 15.1046 14 14 14H2C0.895431 14 0 13.1046 0 12V4ZM15 4C15 3.44772 14.5523 3 14 3H2C1.44772 3 1 3.44772 1 4V12C1 12.5523 1.44772 13 2 13H14C14.5523 13 15 12.5523 15 12V4Z" fill="black"/>
</svg>
