<svg width="16" height="16" viewBox="0 0 16 16" fill="none" xmlns="http://www.w3.org/2000/svg">
<path d="M16 8C16 12.4183 12.4183 16 8 16C3.58172 16 0 12.4183 0 8C0 3.58172 3.58172 0 8 0C12.4183 0 16 3.58172 16 8ZM11.2094 5.09313L8.5 7.02841V5.5C8.5 5.31271 8.39533 5.14112 8.22879 5.05542C8.06225 4.96972 7.86179 4.98427 7.70938 5.09313L5 7.02841V5.5C5 5.22386 4.77614 5 4.5 5C4.22386 5 4 5.22386 4 5.5V10.5C4 10.7761 4.22386 11 4.5 11C4.77614 11 5 10.7761 5 10.5V8.9716L7.70938 10.9069C7.86179 11.0157 8.06225 11.0303 8.22879 10.9446C8.39533 10.8589 8.5 10.6873 8.5 10.5V8.9716L11.2094 10.9069C11.3618 11.0157 11.5623 11.0303 11.7288 10.9446C11.8953 10.8589 12 10.6873 12 10.5V5.5C12 5.31271 11.8953 5.14112 11.7288 5.05542C11.5623 4.96972 11.3618 4.98427 11.2094 5.09313Z" fill="black"/>
</svg>
