<svg width="16" height="16" viewBox="0 0 16 16" fill="none" xmlns="http://www.w3.org/2000/svg">
<path d="M15.5 3.5C15.7761 3.5 16 3.72386 16 4V12C16 12.2761 15.7761 12.5 15.5 12.5C15.2239 12.5 15 12.2761 15 12V8.75257L8.73279 12.3885C8.1925 12.7019 7.5 12.3228 7.5 11.6922V8.75257L1.23279 12.3885C0.692502 12.7019 0 12.3228 0 11.6922V4.30846C0 3.67783 0.692502 3.29871 1.23279 3.61216L7.5 7.24808V4.30846C7.5 3.67783 8.1925 3.29871 8.73279 3.61216L15 7.24808V4C15 3.72386 15.2239 3.5 15.5 3.5Z" fill="black"/>
</svg>
