<svg width="16" height="16" viewBox="0 0 16 16" fill="none" xmlns="http://www.w3.org/2000/svg">
<path d="M0.5 3.5C0.776142 3.5 1 3.72386 1 4V7.24776L7.26721 3.61183C7.78744 3.31002 8.5 3.65488 8.5 4.30813V7.24776L14.7672 3.61183C15.2874 3.31002 16 3.65488 16 4.30813V11.6919C16 12.3451 15.2874 12.69 14.7672 12.3882L8.5 8.75224V11.6919C8.5 12.3451 7.78744 12.69 7.26721 12.3882L1 8.75224V12C1 12.2761 0.776142 12.5 0.5 12.5C0.223858 12.5 0 12.2761 0 12V4C0 3.72386 0.223858 3.5 0.5 3.5ZM7.5 4.63288L1.69613 8L7.5 11.3671V4.63288ZM15 4.63288L9.19613 8L15 11.3671V4.63288Z" fill="black"/>
</svg>
