<svg width="16" height="16" viewBox="0 0 16 16" fill="none" xmlns="http://www.w3.org/2000/svg">
<path d="M8 15C4.13401 15 1 11.866 1 8C1 4.13401 4.13401 1 8 1C11.866 1 15 4.13401 15 8C15 11.866 11.866 15 8 15ZM8 16C12.4183 16 16 12.4183 16 8C16 3.58172 12.4183 0 8 0C3.58172 0 0 3.58172 0 8C0 12.4183 3.58172 16 8 16Z" fill="black"/>
<path d="M4.27121 5.05542C4.43774 4.96972 4.63821 4.98427 4.79062 5.09313L7.5 7.02841V5.5C7.5 5.31271 7.60467 5.14112 7.77121 5.05542C7.93775 4.96972 8.13821 4.98427 8.29062 5.09313L11 7.02841V5.5C11 5.22386 11.2239 5 11.5 5C11.7761 5 12 5.22386 12 5.5V10.5C12 10.7761 11.7761 11 11.5 11C11.2239 11 11 10.7761 11 10.5V8.9716L8.29062 10.9069C8.13821 11.0157 7.93775 11.0303 7.77121 10.9446C7.60467 10.8589 7.5 10.6873 7.5 10.5V8.9716L4.79062 10.9069C4.63821 11.0157 4.43774 11.0303 4.27121 10.9446C4.10467 10.8589 4 10.6873 4 10.5V5.5C4 5.31271 4.10467 5.14112 4.27121 5.05542Z" fill="black"/>
</svg>
