<svg width="16" height="16" viewBox="0 0 16 16" fill="none" xmlns="http://www.w3.org/2000/svg">
<path d="M4.67147 0C5.55053 0 6.40406 0.246952 7.13866 0.702309C7.40017 0.674361 7.66348 0.660278 7.9275 0.660278C8.89914 0.660278 9.86127 0.851023 10.7589 1.22162C11.6566 1.59222 12.4723 2.13541 13.1593 2.82019C13.8464 3.50497 14.3914 4.31791 14.7632 5.21262C15.1351 6.10732 15.3264 7.06626 15.3264 8.03468C15.3264 8.37887 15.3023 8.72185 15.2544 9.06118C15.3451 9.22217 15.4264 9.38872 15.4976 9.56001C15.7324 10.1251 15.8533 10.7307 15.8533 11.3424C15.8533 11.954 15.7324 12.5597 15.4976 13.1248C15.2627 13.6898 14.9185 14.2033 14.4846 14.6358C14.0506 15.0683 13.5355 15.4114 12.9685 15.6454C12.4016 15.8795 11.7939 16 11.1802 16C10.3396 16 9.52239 15.7742 8.81007 15.3564C8.51779 15.3914 8.22309 15.4091 7.9275 15.4091C6.95586 15.4091 5.99373 15.2183 5.09605 14.8477C4.19837 14.4771 3.38272 13.9339 2.69566 13.2492C2.00861 12.5644 1.46361 11.7514 1.09177 10.8567C0.719944 9.96203 0.528564 9.0031 0.528564 8.03468C0.528564 7.67208 0.555394 7.31082 0.608479 6.95376C0.213109 6.25922 0 5.46856 0 4.656C0 3.42115 0.492171 2.23688 1.36824 1.36371C2.24431 0.490541 3.43252 0 4.67147 0ZM5.11793 7.00958C5.29849 7.31865 5.548 7.58185 5.847 7.77864C6.24316 8.03785 6.66428 8.25672 7.10407 8.43198C7.59581 8.63749 7.97732 8.81171 8.24861 8.95464C8.47801 9.06747 8.68622 9.21902 8.86408 9.40264C8.99867 9.54547 9.07348 9.7344 9.07315 9.93064C9.07894 10.069 9.05168 10.2068 8.99362 10.3326C8.93556 10.4584 8.84837 10.5685 8.73928 10.6538C8.44787 10.8499 8.09923 10.9429 7.74888 10.9178C7.55077 10.9199 7.35306 10.8995 7.15954 10.857C7.0026 10.8226 6.84909 10.774 6.70087 10.712C6.57109 10.6558 6.39385 10.5715 6.16914 10.4592C5.98842 10.3628 5.78726 10.311 5.58247 10.3082C5.39866 10.3007 5.21899 10.3641 5.0806 10.4853C5.01458 10.5481 4.96299 10.6246 4.92938 10.7093C4.89577 10.794 4.88095 10.885 4.88593 10.976C4.8818 11.1485 4.93383 11.3177 5.0342 11.4581C5.15508 11.6113 5.31139 11.7328 5.48967 11.8122C6.187 12.1145 6.94293 12.2575 7.70248 12.2309C8.25521 12.242 8.80534 12.1524 9.32595 11.9664C9.75792 11.813 10.1341 11.5338 10.406 11.1648C10.673 10.775 10.8083 10.31 10.7921 9.83784C10.8025 9.4522 10.7059 9.07121 10.5132 8.73704C10.3174 8.4191 10.0537 8.14844 9.74089 7.94451C9.34487 7.68903 8.92472 7.47306 8.48648 7.29971C8.43964 7.27676 8.39115 7.25733 8.34141 7.24158C7.89234 7.05598 7.55457 6.907 7.32808 6.79464C7.12587 6.69985 6.94275 6.5688 6.78781 6.40798C6.65741 6.27108 6.58548 6.08876 6.58727 5.89971C6.58103 5.75571 6.61356 5.61268 6.68149 5.48556C6.74941 5.35844 6.85023 5.25189 6.97341 5.17704C7.2653 5.00302 7.60128 4.91708 7.94088 4.92958C8.20144 4.92685 8.46119 4.95914 8.71315 5.02558C8.98687 5.10451 9.25473 5.20253 9.51475 5.31891C9.62025 5.36786 9.73499 5.39368 9.85129 5.39464C9.93581 5.39688 10.0198 5.38122 10.0979 5.34868C10.1759 5.31614 10.2462 5.26746 10.3041 5.20584C10.3653 5.13897 10.4127 5.0607 10.4436 4.97551C10.4745 4.89031 10.4884 4.79986 10.4844 4.70931C10.4871 4.53502 10.4262 4.3657 10.3132 4.23304C10.1597 4.07181 9.96934 3.95028 9.75849 3.87891C9.52887 3.79459 9.29143 3.73331 9.04969 3.69598C8.71194 3.64057 8.37006 3.61434 8.02781 3.61758C7.50472 3.61448 6.98504 3.70199 6.4918 3.87624C6.0383 4.02934 5.63346 4.29985 5.31847 4.66024C5.01537 5.01912 4.85512 5.47708 4.86833 5.94664C4.85757 6.31664 4.94361 6.68304 5.11793 7.00958Z" fill="black"/>
</svg>
