<svg width="16" height="16" viewBox="0 0 16 16" fill="none" xmlns="http://www.w3.org/2000/svg">
<path fill-rule="evenodd" clip-rule="evenodd" d="M10.5 1C10.7761 1 11 1.22386 11 1.5V5.5C11 5.77614 10.7761 6 10.5 6C10.2239 6 10 5.77614 10 5.5V4H1.5C1.22386 4 1 3.77614 1 3.5C1 3.22386 1.22386 3 1.5 3H10V1.5C10 1.22386 10.2239 1 10.5 1ZM12 3.5C12 3.22386 12.2239 3 12.5 3H14.5C14.7761 3 15 3.22386 15 3.5C15 3.77614 14.7761 4 14.5 4H12.5C12.2239 4 12 3.77614 12 3.5ZM5.5 5.5C5.77614 5.5 6 5.72386 6 6V7.5H14.5C14.7761 7.5 15 7.72386 15 8C15 8.27614 14.7761 8.5 14.5 8.5H6V10C6 10.2761 5.77614 10.5 5.5 10.5C5.22386 10.5 5 10.2761 5 10V6C5 5.72386 5.22386 5.5 5.5 5.5ZM1 8C1 7.72386 1.22386 7.5 1.5 7.5H3.5C3.77614 7.5 4 7.72386 4 8C4 8.27614 3.77614 8.5 3.5 8.5H1.5C1.22386 8.5 1 8.27614 1 8ZM10.5 10C10.7761 10 11 10.2239 11 10.5V14.5C11 14.7761 10.7761 15 10.5 15C10.2239 15 10 14.7761 10 14.5V13H1.5C1.22386 13 1 12.7761 1 12.5C1 12.2239 1.22386 12 1.5 12H10V10.5C10 10.2239 10.2239 10 10.5 10ZM12 12.5C12 12.2239 12.2239 12 12.5 12H14.5C14.7761 12 15 12.2239 15 12.5C15 12.7761 14.7761 13 14.5 13H12.5C12.2239 13 12 12.7761 12 12.5Z" fill="black"/>
</svg>
