<svg width="16" height="16" viewBox="0 0 16 16" fill="none" xmlns="http://www.w3.org/2000/svg">
<path fill-rule="evenodd" clip-rule="evenodd" d="M0 10.5C0 10.7761 0.223858 11 0.5 11H4.5C4.77614 11 5 10.7761 5 10.5C5 10.2239 4.77614 10 4.5 10H3L3 1.5C3 1.22386 2.77614 1 2.5 1C2.22386 1 2 1.22386 2 1.5L2 10H0.5C0.223858 10 0 10.2239 0 10.5ZM2.5 12C2.22386 12 2 12.2239 2 12.5V14.5C2 14.7761 2.22386 15 2.5 15C2.77614 15 3 14.7761 3 14.5V12.5C3 12.2239 2.77614 12 2.5 12ZM5.5 5.5C5.5 5.77614 5.72386 6 6 6L7.5 6L7.5 14.5C7.5 14.7761 7.72386 15 8 15C8.27614 15 8.5 14.7761 8.5 14.5V6H10C10.2761 6 10.5 5.77614 10.5 5.5C10.5 5.22386 10.2761 5 10 5H6C5.72386 5 5.5 5.22386 5.5 5.5ZM8 1C7.72386 1 7.5 1.22386 7.5 1.5V3.5C7.5 3.77614 7.72386 4 8 4C8.27614 4 8.5 3.77614 8.5 3.5V1.5C8.5 1.22386 8.27614 1 8 1ZM11 10.5C11 10.7761 11.2239 11 11.5 11L15.5 11C15.7761 11 16 10.7761 16 10.5C16 10.2239 15.7761 10 15.5 10L14 10V1.5C14 1.22386 13.7761 1 13.5 1C13.2239 1 13 1.22386 13 1.5V10H11.5C11.2239 10 11 10.2239 11 10.5ZM13.5 12C13.2239 12 13 12.2239 13 12.5V14.5C13 14.7761 13.2239 15 13.5 15C13.7761 15 14 14.7761 14 14.5V12.5C14 12.2239 13.7761 12 13.5 12Z" fill="black"/>
</svg>
