<svg width="16" height="16" viewBox="0 0 16 16" fill="none" xmlns="http://www.w3.org/2000/svg">
<path d="M9 5C9 4.72386 8.77614 4.5 8.5 4.5C8.22386 4.5 8 4.72386 8 5V8H6C5.72386 8 5.5 8.22386 5.5 8.5C5.5 8.77614 5.72386 9 6 9H8.5C8.77614 9 9 8.77614 9 8.5V5Z" fill="black"/>
<path d="M4 1.66667V2.05001C2.85888 2.28164 2 3.29052 2 4.5V11.5C2 12.7095 2.85888 13.7184 4 13.95V14.3333C4 15.2538 4.74619 16 5.66667 16H10.3333C11.2538 16 12 15.2538 12 14.3333V13.95C13.1411 13.7184 14 12.7095 14 11.5V8H14.5C14.7761 8 15 7.77614 15 7.5V5.5C15 5.22386 14.7761 5 14.5 5H14V4.5C14 3.29052 13.1411 2.28164 12 2.05001V1.66667C12 0.746191 11.2538 0 10.3333 0H5.66667C4.74619 0 4 0.746191 4 1.66667ZM4.5 3H11.5C12.3284 3 13 3.67157 13 4.5V11.5C13 12.3284 12.3284 13 11.5 13H4.5C3.67157 13 3 12.3284 3 11.5V4.5C3 3.67157 3.67157 3 4.5 3Z" fill="black"/>
</svg>
