<svg width="16" height="16" viewBox="0 0 16 16" fill="none" xmlns="http://www.w3.org/2000/svg">
<path d="M15.9428 11.5256C15.8316 11.223 15.6199 11.0612 15.3787 10.9271C15.3333 10.9005 15.2916 10.8793 15.256 10.8629C15.1841 10.8257 15.1105 10.7897 15.0373 10.7517C14.2855 10.3531 13.6985 9.85032 13.2914 9.25429C13.1757 9.0865 13.0754 8.90864 12.9917 8.72286C12.957 8.62352 12.9586 8.56711 12.9835 8.5156C13.0083 8.47592 13.041 8.44181 13.0796 8.41545C13.2088 8.33001 13.342 8.24334 13.4324 8.18489C13.5935 8.08064 13.721 7.99807 13.8032 7.93961C14.1118 7.72377 14.3277 7.49443 14.4626 7.23812C14.5567 7.06103 14.6116 6.86576 14.6235 6.66556C14.6354 6.46537 14.6041 6.26496 14.5316 6.07796C14.3272 5.53998 13.8191 5.206 13.2035 5.206C13.0736 5.20588 12.9441 5.21958 12.8172 5.24688C12.7832 5.25424 12.7493 5.262 12.7162 5.27059C12.7219 4.90267 12.7137 4.51432 12.681 4.1321C12.5649 2.78839 12.0944 2.08403 11.6039 1.52235C11.2897 1.17038 10.9197 0.872596 10.5087 0.64099C9.76428 0.215844 8.92012 0 7.99992 0C7.07972 0 6.23965 0.215844 5.49442 0.64099C5.0824 0.872666 4.71164 1.17104 4.39721 1.52399C3.90666 2.08567 3.43614 2.79125 3.32004 4.13373C3.28734 4.51595 3.27916 4.90635 3.28447 5.27222C3.25136 5.26364 3.21784 5.25587 3.18391 5.24851C3.05696 5.22122 2.92746 5.20751 2.7976 5.20763C2.18155 5.20763 1.6726 5.54162 1.46902 6.07959C1.39625 6.26668 1.36461 6.46723 1.37625 6.66763C1.38789 6.86803 1.44253 7.06358 1.53647 7.24098C1.67178 7.49729 1.88762 7.72663 2.19626 7.94247C2.27802 7.9997 2.40597 8.08228 2.56704 8.18775C2.65411 8.24416 2.78125 8.32674 2.90593 8.40931C2.94955 8.43752 2.98663 8.47473 3.01467 8.51846C3.04083 8.57201 3.04165 8.62965 3.00281 8.73594C2.92021 8.91781 2.82158 9.09197 2.70807 9.25634C2.30991 9.83887 1.74005 10.3327 1.01239 10.728C0.6269 10.9324 0.226281 11.0689 0.0570404 11.5288C-0.0705035 11.8759 0.0128906 12.2708 0.337065 12.6035C0.456039 12.7277 0.594032 12.8322 0.745859 12.913C1.06177 13.0866 1.3977 13.221 1.74618 13.3132C1.81809 13.3318 1.88637 13.3623 1.94812 13.4036C2.06627 13.507 2.04951 13.6627 2.20689 13.8908C2.2859 14.0087 2.38628 14.1108 2.50286 14.1917C2.83316 14.4198 3.20435 14.4341 3.59761 14.4493C3.95285 14.4627 4.35552 14.4783 4.81541 14.6299C5.00591 14.6929 5.20376 14.8147 5.4331 14.957C5.98375 15.2955 6.73756 15.7586 7.9991 15.7586C9.26064 15.7586 10.0198 15.293 10.5745 14.9533C10.8022 14.8135 10.9988 14.6929 11.184 14.6316C11.6439 14.4795 12.0466 14.4644 12.4018 14.4509C12.7951 14.4358 13.1663 14.4215 13.4966 14.1933C13.6346 14.0971 13.7497 13.9714 13.8334 13.8254C13.9467 13.6329 13.9438 13.4984 14.0501 13.4044C14.108 13.3651 14.1721 13.3358 14.2398 13.3177C14.593 13.2252 14.9335 13.0896 15.2536 12.9138C15.4149 12.8273 15.5601 12.7136 15.6828 12.5778L15.6869 12.5729C15.991 12.2475 16.0675 11.864 15.9428 11.5256ZM14.8215 12.1281C14.1376 12.5058 13.683 12.4654 13.3294 12.6931C13.0289 12.8864 13.2067 13.3034 12.9884 13.4538C12.7203 13.639 11.9276 13.4408 10.9036 13.7788C10.059 14.058 9.52023 14.8609 8.00115 14.8609C6.48207 14.8609 5.95595 14.0597 5.09748 13.7768C4.07549 13.4387 3.2812 13.637 3.01263 13.4518C2.79474 13.3014 2.97175 12.8844 2.67169 12.691C2.31767 12.4633 1.8631 12.5038 1.17959 12.1281C0.744224 11.8877 0.991136 11.7389 1.13626 11.6686C3.61355 10.4692 4.00886 8.61739 4.02644 8.48004C4.04769 8.31366 4.0714 8.18284 3.88826 8.0136C3.71126 7.85008 2.92596 7.36403 2.70807 7.21196C2.34752 6.96014 2.1889 6.70873 2.30582 6.39968C2.38758 6.18588 2.58707 6.10535 2.79637 6.10535C2.86252 6.10555 2.92846 6.11295 2.993 6.12742C3.38872 6.21327 3.77298 6.41153 3.99496 6.46509C4.02169 6.47195 4.04913 6.47565 4.07672 6.47612C4.19527 6.47612 4.23697 6.41644 4.22879 6.28072C4.20344 5.84781 4.14213 5.00406 4.21039 4.21549C4.30401 3.13055 4.65353 2.59298 5.06886 2.11756C5.26835 1.88904 6.20572 0.898531 7.99828 0.898531C9.79085 0.898531 10.7307 1.88495 10.9302 2.11265C11.3459 2.58808 11.6958 3.12564 11.7886 4.21059C11.8569 4.99915 11.798 5.84331 11.7702 6.27581C11.7608 6.41848 11.8038 6.47122 11.9223 6.47122C11.9499 6.47078 11.9773 6.46707 12.0041 6.46018C12.2264 6.40663 12.6107 6.20836 13.0064 6.12252C13.071 6.10805 13.1369 6.10065 13.2031 6.10044C13.4136 6.10044 13.6119 6.1822 13.6936 6.39477C13.8105 6.70382 13.6527 6.95523 13.2918 7.20705C13.0739 7.35912 12.2886 7.84477 12.1116 8.0087C11.928 8.17794 11.9521 8.30875 11.9734 8.47513C11.991 8.61453 12.3859 10.4664 14.8636 11.6637C15.0099 11.7369 15.2568 11.8857 14.8215 12.1281Z" fill="black"/>
</svg>
