<svg width="16" height="16" viewBox="0 0 16 16" fill="none" xmlns="http://www.w3.org/2000/svg">
<path d="M8.00009 16C7.72395 16 7.50009 15.7761 7.50009 15.5V14.2071L6.85364 14.8536C6.65838 15.0488 6.3418 15.0488 6.14653 14.8536C5.95127 14.6583 5.95127 14.3417 6.14653 14.1464L7.50009 12.7929L7.50009 11.7071L6.85364 12.3536C6.65838 12.5488 6.3418 12.5488 6.14653 12.3536C5.95127 12.1583 5.95127 11.8417 6.14653 11.6464L7.50009 10.2929V8.866L6.26435 9.57946L5.76891 11.4284C5.69744 11.6952 5.42327 11.8535 5.15654 11.782C4.88981 11.7105 4.73151 11.4364 4.80299 11.1696L5.0396 10.2866L4.09928 10.8295L3.60385 12.6784C3.53238 12.9452 3.25821 13.1035 2.99148 13.032C2.72474 12.9605 2.56645 12.6864 2.63792 12.4196L2.87454 11.5366L1.75486 12.183C1.51571 12.3211 1.20992 12.2391 1.07185 12C0.933776 11.7608 1.01571 11.4551 1.25486 11.317L2.37454 10.6705L1.49148 10.4339C1.22474 10.3625 1.06645 10.0883 1.13792 9.82155C1.20939 9.55482 1.48356 9.39652 1.75029 9.468L3.59928 9.96343L4.5396 9.42054L3.65654 9.18392C3.38981 9.11245 3.23151 8.83828 3.30299 8.57155C3.37446 8.30482 3.64863 8.14652 3.91536 8.218L5.76435 8.71343L7.00007 7.99999L5.76438 7.28657L3.91539 7.782C3.64866 7.85347 3.37449 7.69518 3.30302 7.42845C3.23155 7.16171 3.38984 6.88755 3.65658 6.81608L4.53964 6.57946L3.59932 6.03657L1.75033 6.532C1.4836 6.60347 1.20943 6.44518 1.13796 6.17845C1.06649 5.91171 1.22478 5.63755 1.49151 5.56608L2.37457 5.32946L1.2549 4.68301C1.01575 4.54494 0.933812 4.23915 1.07188 4C1.20995 3.76085 1.51575 3.67892 1.7549 3.81699L2.87458 4.46343L2.63796 3.58037C2.56649 3.31364 2.72478 3.03947 2.99151 2.968C3.25825 2.89653 3.53241 3.05482 3.60388 3.32155L4.09932 5.17054L5.03964 5.71343L4.80302 4.83037C4.73155 4.56364 4.88984 4.28947 5.15658 4.218C5.42331 4.14653 5.69748 4.30482 5.76895 4.57155L6.26438 6.42054L7.50009 7.13397V5.70711L6.14653 4.35355C5.95127 4.15829 5.95127 3.84171 6.14653 3.64645C6.3418 3.45118 6.65838 3.45118 6.85364 3.64645L7.50009 4.29289V3.20711L6.14653 1.85355C5.95127 1.65829 5.95127 1.34171 6.14653 1.14645C6.3418 0.951184 6.65838 0.951184 6.85364 1.14645L7.50009 1.79289V0.5C7.50009 0.223858 7.72395 0 8.00009 0C8.27623 0 8.50009 0.223858 8.50009 0.5V1.79289L9.14653 1.14645C9.3418 0.951184 9.65838 0.951184 9.85364 1.14645C10.0489 1.34171 10.0489 1.65829 9.85364 1.85355L8.50009 3.20711V4.29289L9.14653 3.64645C9.3418 3.45118 9.65838 3.45118 9.85364 3.64645C10.0489 3.84171 10.0489 4.15829 9.85364 4.35355L8.50009 5.70711V7.13395L9.73575 6.42054L10.2312 4.57155C10.3027 4.30482 10.5768 4.14652 10.8436 4.218C11.1103 4.28947 11.2686 4.56363 11.1971 4.83037L10.9605 5.71343L11.9008 5.17054L12.3963 3.32155C12.4677 3.05482 12.7419 2.89652 13.0086 2.968C13.2754 3.03947 13.4336 3.31363 13.3622 3.58037L13.1256 4.46343L14.2452 3.81698C14.4844 3.67891 14.7902 3.76085 14.9283 4C15.0663 4.23914 14.9844 4.54494 14.7452 4.68301L13.6256 5.32946L14.5086 5.56607C14.7754 5.63754 14.9336 5.91171 14.8622 6.17844C14.7907 6.44518 14.5165 6.60347 14.2498 6.532L12.4008 6.03656L11.4605 6.57946L12.3436 6.81607C12.6103 6.88754 12.7686 7.16171 12.6971 7.42844C12.6256 7.69518 12.3515 7.85347 12.0847 7.782L10.2358 7.28656L9.00007 7.99999L10.2358 8.71343L12.0848 8.218C12.3515 8.14653 12.6257 8.30482 12.6972 8.57155C12.7686 8.83829 12.6103 9.11245 12.3436 9.18393L11.4605 9.42054L12.4009 9.96343L14.2498 9.468C14.5166 9.39653 14.7907 9.55482 14.8622 9.82155C14.9337 10.0883 14.7754 10.3625 14.5087 10.4339L13.6256 10.6705L14.7453 11.317C14.9844 11.4551 15.0664 11.7609 14.9283 12C14.7902 12.2391 14.4844 12.3211 14.2453 12.183L13.1256 11.5366L13.3622 12.4196C13.4337 12.6864 13.2754 12.9605 13.0087 13.032C12.7419 13.1035 12.4678 12.9452 12.3963 12.6784L11.9009 10.8295L10.9605 10.2866L11.1972 11.1696C11.2686 11.4364 11.1103 11.7105 10.8436 11.782C10.5769 11.8535 10.3027 11.6952 10.2312 11.4284L9.73579 9.57946L8.50009 8.86603V10.2929L9.85364 11.6464C10.0489 11.8417 10.0489 12.1583 9.85364 12.3536C9.65838 12.5488 9.3418 12.5488 9.14653 12.3536L8.50009 11.7071V12.7929L9.85364 14.1464C10.0489 14.3417 10.0489 14.6583 9.85364 14.8536C9.65838 15.0488 9.3418 15.0488 9.14653 14.8536L8.50009 14.2071V15.5C8.50009 15.7761 8.27623 16 8.00009 16Z" fill="black"/>
</svg>
