<svg width="16" height="16" viewBox="0 0 16 16" fill="none" xmlns="http://www.w3.org/2000/svg">
<path d="M8.00008 16C7.72393 16 7.50008 15.7761 7.50008 15.5V14.2071L6.85363 14.8536C6.65837 15.0488 6.34178 15.0488 6.14652 14.8536C5.95126 14.6583 5.95126 14.3417 6.14652 14.1464L7.50008 12.7929L7.50008 8.86601L4.0993 10.8295L3.60386 12.6784C3.53239 12.9452 3.25822 13.1035 2.99149 13.032C2.72476 12.9605 2.56647 12.6864 2.63794 12.4196L2.87455 11.5366L1.75487 12.183C1.51573 12.3211 1.20993 12.2391 1.07186 12C0.933789 11.7608 1.01573 11.4551 1.25487 11.317L2.37455 10.6705L1.49149 10.4339C1.22476 10.3625 1.06646 10.0883 1.13794 9.82155C1.20941 9.55482 1.48357 9.39652 1.75031 9.468L3.5993 9.96343L7.00008 7.99999L3.59932 6.03656L1.75033 6.532C1.4836 6.60347 1.20943 6.44518 1.13796 6.17844C1.06649 5.91171 1.22478 5.63754 1.49151 5.56607L2.37458 5.32946L1.2549 4.68301C1.01575 4.54494 0.933814 4.23914 1.07189 4C1.20996 3.76085 1.51575 3.67891 1.7549 3.81698L2.87458 4.46343L2.63796 3.58037C2.56649 3.31363 2.72478 3.03947 2.99151 2.968C3.25825 2.89652 3.53241 3.05482 3.60389 3.32155L4.09932 5.17054L7.50008 7.13396L7.50008 3.20711L6.14652 1.85355C5.95126 1.65829 5.95126 1.34171 6.14652 1.14645C6.34178 0.951184 6.65837 0.951184 6.85363 1.14645L7.50008 1.79289V0.5C7.50008 0.223858 7.72393 0 8.00008 0C8.27622 0 8.50008 0.223858 8.50008 0.5V1.79289L9.14652 1.14645C9.34178 0.951184 9.65837 0.951184 9.85363 1.14645C10.0489 1.34171 10.0489 1.65829 9.85363 1.85355L8.50008 3.20711L8.50008 7.13396L11.9008 5.17054L12.3963 3.32155C12.4677 3.05482 12.7419 2.89652 13.0086 2.968C13.2754 3.03947 13.4337 3.31363 13.3622 3.58037L13.1256 4.46343L14.2453 3.81698C14.4844 3.67891 14.7902 3.76085 14.9283 4C15.0663 4.23914 14.9844 4.54494 14.7453 4.68301L13.6256 5.32946L14.5086 5.56607C14.7754 5.63754 14.9337 5.91171 14.8622 6.17844C14.7907 6.44518 14.5166 6.60347 14.2498 6.532L12.4008 6.03656L9.00008 7.99999L12.4009 9.96343L14.2498 9.468C14.5166 9.39652 14.7907 9.55482 14.8622 9.82155C14.9337 10.0883 14.7754 10.3625 14.5087 10.4339L13.6256 10.6705L14.7453 11.317C14.9844 11.4551 15.0664 11.7608 14.9283 12C14.7902 12.2391 14.4844 12.3211 14.2453 12.183L13.1256 11.5366L13.3622 12.4196C13.4337 12.6864 13.2754 12.9605 13.0087 13.032C12.7419 13.1035 12.4678 12.9452 12.3963 12.6784L11.9009 10.8295L8.50008 8.86601V12.7929L9.85363 14.1464C10.0489 14.3417 10.0489 14.6583 9.85363 14.8536C9.65837 15.0488 9.34178 15.0488 9.14652 14.8536L8.50008 14.2071V15.5C8.50008 15.7761 8.27622 16 8.00008 16Z" fill="black"/>
</svg>
