<svg width="16" height="16" viewBox="0 0 16 16" fill="none" xmlns="http://www.w3.org/2000/svg">
<path d="M12.4375 1.66797V7H11.3906V2.68359H11.3398L10.1289 3.54297V2.57422L11.3906 1.66797H12.4375Z" fill="black"/>
<path fill-rule="evenodd" clip-rule="evenodd" d="M11.3594 14.0977C10.2227 14.0977 9.65234 13.4414 9.59766 12.8203H10.6016C10.6602 13.043 10.9453 13.2695 11.375 13.2695C12.1992 13.2695 12.5391 12.4414 12.5078 11.4141H12.4492C12.3008 11.8047 11.8789 12.1562 11.1875 12.1562C10.2773 12.1562 9.46875 11.543 9.46875 10.3984C9.46875 9.25 10.3164 8.5625 11.4414 8.5625C12.5312 8.5625 13.5039 9.19922 13.5039 11.25C13.5039 13.1172 12.7812 14.0977 11.3594 14.0977ZM11.4219 11.3633C11.9258 11.3633 12.3555 11.0273 12.3555 10.3906C12.3555 9.75781 11.957 9.38281 11.4141 9.38281C10.8945 9.38281 10.4883 9.75781 10.4883 10.3828C10.4883 11.0234 10.9062 11.3633 11.4219 11.3633Z" fill="black"/>
<path d="M4.5 13.5C4.5 13.7761 4.27614 14 4 14C3.72386 14 3.5 13.7761 3.5 13.5L3.5 3.70711L2.35355 4.85355C2.15829 5.04882 1.84171 5.04882 1.64645 4.85355C1.45118 4.65829 1.45118 4.34171 1.64645 4.14645L3.64562 2.14728L3.65303 2.13998C3.69942 2.09524 3.75232 2.06123 3.80861 2.03794C3.86756 2.01349 3.9322 2 4 2C4.06779 2 4.13244 2.01349 4.19139 2.03794C4.25036 2.06234 4.30561 2.09851 4.35355 2.14645L6.35355 4.14645C6.54882 4.34171 6.54882 4.65829 6.35355 4.85355C6.15829 5.04882 5.84171 5.04882 5.64645 4.85355L4.5 3.70711L4.5 13.5Z" fill="black"/>
</svg>
