<svg width="16" height="16" viewBox="0 0 16 16" fill="none" xmlns="http://www.w3.org/2000/svg">
<path d="M3.5 12.5C3.5 12.7761 3.27614 13 3 13C2.72386 13 2.5 12.7761 2.5 12.5L2.5 3.70711L1.35355 4.85355C1.15829 5.04882 0.841709 5.04882 0.646447 4.85355C0.451184 4.65829 0.451184 4.34171 0.646447 4.14645L2.64562 2.14728L2.65303 2.13998C2.69942 2.09524 2.75232 2.06123 2.80861 2.03794C2.86756 2.01349 2.9322 2 3 2C3.06779 2 3.13244 2.01349 3.19139 2.03794C3.25036 2.06234 3.30561 2.09851 3.35355 2.14645L5.35355 4.14645C5.54882 4.34171 5.54882 4.65829 5.35355 4.85355C5.15829 5.04882 4.84171 5.04882 4.64645 4.85355L3.5 3.70711L3.5 12.5Z" fill="black"/>
<path d="M7 3.5C7 3.22386 7.22386 3 7.5 3H14.5C14.7761 3 15 3.22386 15 3.5C15 3.77614 14.7761 4 14.5 4H7.5C7.22386 4 7 3.77614 7 3.5Z" fill="black"/>
<path d="M7.5 6C7.22386 6 7 6.22386 7 6.5C7 6.77614 7.22386 7 7.5 7H12.5C12.7761 7 13 6.77614 13 6.5C13 6.22386 12.7761 6 12.5 6H7.5Z" fill="black"/>
<path d="M7.5 9C7.22386 9 7 9.22386 7 9.5C7 9.77614 7.22386 10 7.5 10H10.5C10.7761 10 11 9.77614 11 9.5C11 9.22386 10.7761 9 10.5 9H7.5Z" fill="black"/>
<path d="M7.5 12C7.22386 12 7 12.2239 7 12.5C7 12.7761 7.22386 13 7.5 13H8.5C8.77614 13 9 12.7761 9 12.5C9 12.2239 8.77614 12 8.5 12H7.5Z" fill="black"/>
</svg>
