<svg width="16" height="16" viewBox="0 0 16 16" fill="none" xmlns="http://www.w3.org/2000/svg">
<path d="M3.5 3.5C3.5 3.22386 3.27614 3 3 3C2.72386 3 2.5 3.22386 2.5 3.5L2.5 12.2929L1.35355 11.1464C1.15829 10.9512 0.841709 10.9512 0.646447 11.1464C0.451184 11.3417 0.451184 11.6583 0.646447 11.8536L2.6456 13.8527L2.65303 13.86C2.69942 13.9048 2.75232 13.9388 2.80861 13.9621C2.86756 13.9865 2.9322 14 3 14C3.06779 14 3.13244 13.9865 3.19139 13.9621C3.25036 13.9377 3.30561 13.9015 3.35355 13.8536L5.35355 11.8536C5.54882 11.6583 5.54882 11.3417 5.35355 11.1464C5.15829 10.9512 4.84171 10.9512 4.64645 11.1464L3.5 12.2929L3.5 3.5Z" fill="black"/>
<path d="M7.5 4C7.22386 4 7 3.77614 7 3.5C7 3.22386 7.22386 3 7.5 3H8.5C8.77614 3 9 3.22386 9 3.5C9 3.77614 8.77614 4 8.5 4H7.5Z" fill="black"/>
<path d="M7.5 7C7.22386 7 7 6.77614 7 6.5C7 6.22386 7.22386 6 7.5 6H10.5C10.7761 6 11 6.22386 11 6.5C11 6.77614 10.7761 7 10.5 7H7.5Z" fill="black"/>
<path d="M7.5 10C7.22386 10 7 9.77614 7 9.5C7 9.22386 7.22386 9 7.5 9H12.5C12.7761 9 13 9.22386 13 9.5C13 9.77614 12.7761 10 12.5 10H7.5Z" fill="black"/>
<path d="M7 12.5C7 12.7761 7.22386 13 7.5 13H14.5C14.7761 13 15 12.7761 15 12.5C15 12.2239 14.7761 12 14.5 12H7.5C7.22386 12 7 12.2239 7 12.5Z" fill="black"/>
</svg>
