<svg width="16" height="16" viewBox="0 0 16 16" fill="none" xmlns="http://www.w3.org/2000/svg">
<path d="M12.9609 7H9.02734V6.30859L11.6055 2.58984V2.53516H9.09766V1.66797H12.8828V2.35938L10.3164 6.07812V6.13281H12.9609V7Z" fill="black"/>
<path fill-rule="evenodd" clip-rule="evenodd" d="M10.082 12.6289L9.66406 14H8.59766L10.3867 8.66797H11.6211L13.4023 14H12.2812L11.8633 12.6289H10.082ZM11.6523 11.8438L11 9.6875H10.9531L10.3008 11.8438H11.6523Z" fill="black"/>
<path d="M4.5 13.5C4.5 13.7761 4.27614 14 4 14C3.72386 14 3.5 13.7761 3.5 13.5L3.5 3.70711L2.35355 4.85355C2.15829 5.04882 1.84171 5.04882 1.64645 4.85355C1.45118 4.65829 1.45118 4.34171 1.64645 4.14645L3.64562 2.14728L3.65303 2.13998C3.69942 2.09524 3.75232 2.06123 3.80861 2.03794C3.86756 2.01349 3.9322 2 4 2C4.06779 2 4.13244 2.01349 4.19139 2.03794C4.25036 2.06234 4.30561 2.09851 4.35355 2.14645L6.35355 4.14645C6.54882 4.34171 6.54882 4.65829 6.35355 4.85355C6.15829 5.04882 5.84171 5.04882 5.64645 4.85355L4.5 3.70711L4.5 13.5Z" fill="black"/>
</svg>
