<svg width="16" height="16" viewBox="0 0 16 16" fill="none" xmlns="http://www.w3.org/2000/svg">
<path fill-rule="evenodd" clip-rule="evenodd" d="M11.3594 7.09766C10.2227 7.09766 9.65234 6.44141 9.59766 5.82031H10.6016C10.6602 6.04297 10.9453 6.26953 11.375 6.26953C12.1992 6.26953 12.5391 5.44141 12.5078 4.41406H12.4492C12.3008 4.80469 11.8789 5.15625 11.1875 5.15625C10.2773 5.15625 9.46875 4.54297 9.46875 3.39844C9.46875 2.25 10.3164 1.5625 11.4414 1.5625C12.5312 1.5625 13.5039 2.19922 13.5039 4.25C13.5039 6.11719 12.7812 7.09766 11.3594 7.09766ZM11.4219 4.36328C11.9258 4.36328 12.3555 4.02734 12.3555 3.39062C12.3555 2.75781 11.957 2.38281 11.4141 2.38281C10.8945 2.38281 10.4883 2.75781 10.4883 3.38281C10.4883 4.02344 10.9062 4.36328 11.4219 4.36328Z" fill="black"/>
<path d="M12.4375 8.66797V14H11.3906V9.68359H11.3398L10.1289 10.543V9.57422L11.3906 8.66797H12.4375Z" fill="black"/>
<path d="M4.5 13.5C4.5 13.7761 4.27614 14 4 14C3.72386 14 3.5 13.7761 3.5 13.5L3.5 3.70711L2.35355 4.85355C2.15829 5.04882 1.84171 5.04882 1.64645 4.85355C1.45118 4.65829 1.45118 4.34171 1.64645 4.14645L3.64562 2.14728L3.65303 2.13998C3.69942 2.09524 3.75232 2.06123 3.80861 2.03794C3.86756 2.01349 3.9322 2 4 2C4.06779 2 4.13244 2.01349 4.19139 2.03794C4.25036 2.06234 4.30561 2.09851 4.35355 2.14645L6.35355 4.14645C6.54882 4.34171 6.54882 4.65829 6.35355 4.85355C6.15829 5.04882 5.84171 5.04882 5.64645 4.85355L4.5 3.70711L4.5 13.5Z" fill="black"/>
</svg>
