<svg width="16" height="16" viewBox="0 0 16 16" fill="none" xmlns="http://www.w3.org/2000/svg">
<path d="M3.5 2.5C3.5 2.22386 3.27614 2 3 2C2.72386 2 2.5 2.22386 2.5 2.5L2.5 11.2929L1.35355 10.1464C1.15829 9.95118 0.841709 9.95118 0.646447 10.1464C0.451184 10.3417 0.451184 10.6583 0.646447 10.8536L2.6456 12.8527L2.65303 12.86C2.69942 12.9048 2.75232 12.9388 2.80861 12.9621C2.86756 12.9865 2.9322 13 3 13C3.06779 13 3.13244 12.9865 3.19139 12.9621C3.25036 12.9377 3.30561 12.9015 3.35355 12.8536L5.35355 10.8536C5.54882 10.6583 5.54882 10.3417 5.35355 10.1464C5.15829 9.95118 4.84171 9.95118 4.64645 10.1464L3.5 11.2929L3.5 2.5Z" fill="black"/>
<path d="M7 3.5C7 3.22386 7.22386 3 7.5 3H14.5C14.7761 3 15 3.22386 15 3.5C15 3.77614 14.7761 4 14.5 4H7.5C7.22386 4 7 3.77614 7 3.5Z" fill="black"/>
<path d="M7.5 6C7.22386 6 7 6.22386 7 6.5C7 6.77614 7.22386 7 7.5 7H12.5C12.7761 7 13 6.77614 13 6.5C13 6.22386 12.7761 6 12.5 6H7.5Z" fill="black"/>
<path d="M7.5 9C7.22386 9 7 9.22386 7 9.5C7 9.77614 7.22386 10 7.5 10H10.5C10.7761 10 11 9.77614 11 9.5C11 9.22386 10.7761 9 10.5 9H7.5Z" fill="black"/>
<path d="M7.5 12C7.22386 12 7 12.2239 7 12.5C7 12.7761 7.22386 13 7.5 13H8.5C8.77614 13 9 12.7761 9 12.5C9 12.2239 8.77614 12 8.5 12H7.5Z" fill="black"/>
</svg>
