<svg width="16" height="16" viewBox="0 0 16 16" fill="none" xmlns="http://www.w3.org/2000/svg">
<path d="M12.9609 7H9.02734V6.30859L11.6055 2.58984V2.53516H9.09766V1.66797H12.8828V2.35938L10.3164 6.07812V6.13281H12.9609V7Z" fill="black"/>
<path fill-rule="evenodd" clip-rule="evenodd" d="M10.082 12.6289L9.66406 14H8.59766L10.3867 8.66797H11.6211L13.4023 14H12.2812L11.8633 12.6289H10.082ZM11.6523 11.8438L11 9.6875H10.9531L10.3008 11.8438H11.6523Z" fill="black"/>
<path d="M4.5 2.5C4.5 2.22386 4.27614 2 4 2C3.72386 2 3.5 2.22386 3.5 2.5L3.5 12.2929L2.35355 11.1464C2.15829 10.9512 1.84171 10.9512 1.64645 11.1464C1.45118 11.3417 1.45118 11.6583 1.64645 11.8536L3.6456 13.8527L3.65303 13.86C3.69942 13.9048 3.75232 13.9388 3.80861 13.9621C3.86756 13.9865 3.9322 14 4 14C4.06779 14 4.13244 13.9865 4.19139 13.9621C4.25036 13.9377 4.30561 13.9015 4.35355 13.8536L6.35355 11.8536C6.54882 11.6583 6.54882 11.3417 6.35355 11.1464C6.15829 10.9512 5.84171 10.9512 5.64645 11.1464L4.5 12.2929L4.5 2.5Z" fill="black"/>
</svg>
