<svg width="16" height="16" viewBox="0 0 16 16" fill="none" xmlns="http://www.w3.org/2000/svg">
<path d="M12.4375 1.66797V7H11.3906V2.68359H11.3398L10.1289 3.54297V2.57422L11.3906 1.66797H12.4375Z" fill="black"/>
<path fill-rule="evenodd" clip-rule="evenodd" d="M11.3594 14.0977C10.2227 14.0977 9.65234 13.4414 9.59766 12.8203H10.6016C10.6602 13.043 10.9453 13.2695 11.375 13.2695C12.1992 13.2695 12.5391 12.4414 12.5078 11.4141H12.4492C12.3008 11.8047 11.8789 12.1562 11.1875 12.1562C10.2773 12.1562 9.46875 11.543 9.46875 10.3984C9.46875 9.25 10.3164 8.5625 11.4414 8.5625C12.5312 8.5625 13.5039 9.19922 13.5039 11.25C13.5039 13.1172 12.7812 14.0977 11.3594 14.0977ZM11.4219 11.3633C11.9258 11.3633 12.3555 11.0273 12.3555 10.3906C12.3555 9.75781 11.957 9.38281 11.4141 9.38281C10.8945 9.38281 10.4883 9.75781 10.4883 10.3828C10.4883 11.0234 10.9062 11.3633 11.4219 11.3633Z" fill="black"/>
<path d="M4.5 2.5C4.5 2.22386 4.27614 2 4 2C3.72386 2 3.5 2.22386 3.5 2.5L3.5 12.2929L2.35355 11.1464C2.15829 10.9512 1.84171 10.9512 1.64645 11.1464C1.45118 11.3417 1.45118 11.6583 1.64645 11.8536L3.6456 13.8527L3.65303 13.86C3.69942 13.9048 3.75232 13.9388 3.80861 13.9621C3.86756 13.9865 3.9322 14 4 14C4.06779 14 4.13244 13.9865 4.19139 13.9621C4.25036 13.9377 4.30561 13.9015 4.35355 13.8536L6.35355 11.8536C6.54882 11.6583 6.54882 11.3417 6.35355 11.1464C6.15829 10.9512 5.84171 10.9512 5.64645 11.1464L4.5 12.2929L4.5 2.5Z" fill="black"/>
</svg>
