<svg width="16" height="16" viewBox="0 0 16 16" fill="none" xmlns="http://www.w3.org/2000/svg">
<path d="M3.5 13.5C3.5 13.7761 3.27614 14 3 14C2.72386 14 2.5 13.7761 2.5 13.5L2.5 4.70711L1.35355 5.85355C1.15829 6.04882 0.841709 6.04882 0.646447 5.85355C0.451184 5.65829 0.451184 5.34171 0.646447 5.14645L2.64562 3.14728L2.65303 3.13998C2.69942 3.09524 2.75232 3.06123 2.80861 3.03794C2.86756 3.01349 2.9322 3 3 3C3.06779 3 3.13244 3.01349 3.19139 3.03794C3.25036 3.06234 3.30561 3.09851 3.35355 3.14645L5.35355 5.14645C5.54882 5.34171 5.54882 5.65829 5.35355 5.85355C5.15829 6.04882 4.84171 6.04882 4.64645 5.85355L3.5 4.70711L3.5 13.5Z" fill="black"/>
<path d="M7.5 4C7.22386 4 7 3.77614 7 3.5C7 3.22386 7.22386 3 7.5 3H8.5C8.77614 3 9 3.22386 9 3.5C9 3.77614 8.77614 4 8.5 4H7.5Z" fill="black"/>
<path d="M7.5 7C7.22386 7 7 6.77614 7 6.5C7 6.22386 7.22386 6 7.5 6H10.5C10.7761 6 11 6.22386 11 6.5C11 6.77614 10.7761 7 10.5 7H7.5Z" fill="black"/>
<path d="M7.5 10C7.22386 10 7 9.77614 7 9.5C7 9.22386 7.22386 9 7.5 9H12.5C12.7761 9 13 9.22386 13 9.5C13 9.77614 12.7761 10 12.5 10H7.5Z" fill="black"/>
<path d="M7 12.5C7 12.7761 7.22386 13 7.5 13H14.5C14.7761 13 15 12.7761 15 12.5C15 12.2239 14.7761 12 14.5 12H7.5C7.22386 12 7 12.2239 7 12.5Z" fill="black"/>
</svg>
