<svg width="16" height="16" viewBox="0 0 16 16" fill="none" xmlns="http://www.w3.org/2000/svg">
<path fill-rule="evenodd" clip-rule="evenodd" d="M10.082 5.62891L9.66406 7H8.59766L10.3867 1.66797H11.6211L13.4023 7H12.2812L11.8633 5.62891H10.082ZM11.6523 4.84375L11 2.6875H10.9531L10.3008 4.84375H11.6523Z" fill="black"/>
<path d="M12.9609 14H9.02734V13.3086L11.6055 9.58984V9.53516H9.09766V8.66797H12.8828V9.35938L10.3164 13.0781V13.1328H12.9609V14Z" fill="black"/>
<path d="M4.5 13.5C4.5 13.7761 4.27614 14 4 14C3.72386 14 3.5 13.7761 3.5 13.5L3.5 3.70711L2.35355 4.85355C2.15829 5.04882 1.84171 5.04882 1.64645 4.85355C1.45118 4.65829 1.45118 4.34171 1.64645 4.14645L3.64562 2.14728L3.65303 2.13998C3.69942 2.09524 3.75232 2.06123 3.80861 2.03794C3.86756 2.01349 3.9322 2 4 2C4.06779 2 4.13244 2.01349 4.19139 2.03794C4.25036 2.06234 4.30561 2.09851 4.35355 2.14645L6.35355 4.14645C6.54882 4.34171 6.54882 4.65829 6.35355 4.85355C6.15829 5.04882 5.84171 5.04882 5.64645 4.85355L4.5 3.70711L4.5 13.5Z" fill="black"/>
</svg>
