<svg width="16" height="16" viewBox="0 0 16 16" fill="none" xmlns="http://www.w3.org/2000/svg">
<path fill-rule="evenodd" clip-rule="evenodd" d="M8.5 2C8.77614 2 9 2.22386 9 2.5V13.5C9 13.7761 8.77614 14 8.5 14C8.22386 14 8 13.7761 8 13.5V2.5C8 2.22386 8.22386 2 8.5 2ZM6.5 4C6.77614 4 7 4.22386 7 4.5V11.5C7 11.7761 6.77614 12 6.5 12C6.22386 12 6 11.7761 6 11.5V4.5C6 4.22386 6.22386 4 6.5 4ZM10.5 4C10.7761 4 11 4.22386 11 4.5V11.5C11 11.7761 10.7761 12 10.5 12C10.2239 12 10 11.7761 10 11.5V4.5C10 4.22386 10.2239 4 10.5 4ZM4.5 5.5C4.77614 5.5 5 5.72386 5 6V10C5 10.2761 4.77614 10.5 4.5 10.5C4.22386 10.5 4 10.2761 4 10V6C4 5.72386 4.22386 5.5 4.5 5.5ZM12.5 5.5C12.7761 5.5 13 5.72386 13 6V10C13 10.2761 12.7761 10.5 12.5 10.5C12.2239 10.5 12 10.2761 12 10V6C12 5.72386 12.2239 5.5 12.5 5.5ZM2.5 6.5C2.77614 6.5 3 6.72386 3 7V9C3 9.27614 2.77614 9.5 2.5 9.5C2.22386 9.5 2 9.27614 2 9V7C2 6.72386 2.22386 6.5 2.5 6.5ZM14.5 6.5C14.7761 6.5 15 6.72386 15 7V9C15 9.27614 14.7761 9.5 14.5 9.5C14.2239 9.5 14 9.27614 14 9V7C14 6.72386 14.2239 6.5 14.5 6.5Z" fill="black"/>
</svg>
