<svg width="16" height="16" viewBox="0 0 16 16" fill="none" xmlns="http://www.w3.org/2000/svg">
<path d="M9.13018 8.42942C9.13018 5.82572 8.20145 4.63974 7.70977 4.18989C7.61417 4.1081 7.46394 4.17626 7.47759 4.31257C7.5732 5.78482 5.71575 6.15289 5.71575 8.45668V8.47032C5.71575 9.87441 6.78105 11.0195 8.09219 11.0195C9.40333 11.0195 10.4686 9.87441 10.4686 8.47032V8.45668C10.4686 7.80235 10.2228 7.17528 9.97695 6.7118C9.92232 6.61637 9.78575 6.65727 9.7994 6.73906C10.2501 8.72932 9.13018 9.9562 9.13018 8.42942Z" fill="black"/>
<path d="M6.30303 13.9231C6.2484 13.9231 6.18011 13.8958 6.13914 13.8549L0.0614597 7.78871C-0.0204866 7.70691 -0.0204866 7.55696 0.0614597 7.46154L6.48058 1.05453C6.52155 1.02726 6.57618 1 6.63082 1H8.47461C8.58387 1 8.65215 1.06816 8.67947 1.13632C8.70679 1.20448 8.70679 1.2999 8.62484 1.38169L2.60179 7.40701C2.47887 7.5297 2.47887 7.72055 2.60179 7.84323L7.36833 12.6144C7.45028 12.6962 7.45028 12.8462 7.36833 12.9416L6.45327 13.8686C6.41229 13.8958 6.35766 13.9231 6.30303 13.9231ZM7.51857 14.9864C7.4093 14.9864 7.34102 14.9182 7.3137 14.85C7.28639 14.7819 7.28639 14.6865 7.36833 14.6047L13.405 8.57936C13.4597 8.52483 13.5006 8.44304 13.5006 8.36125C13.5006 8.27946 13.4733 8.19766 13.405 8.14314L8.62484 3.37196C8.54289 3.29017 8.54289 3.14021 8.62484 3.04479L9.55356 2.11782C9.59454 2.07692 9.64917 2.04966 9.71746 2.04966C9.78574 2.04966 9.82672 2.09056 9.86769 2.13145L15.9317 8.19766C15.9727 8.23856 16 8.29309 16 8.36125C16 8.42941 15.9727 8.48393 15.9317 8.52483L9.51259 14.9318C9.47162 14.9727 9.41699 15 9.3487 15H7.51857V14.9864Z" fill="black"/>
</svg>
