<svg width="16" height="16" viewBox="0 0 16 16" fill="none" xmlns="http://www.w3.org/2000/svg">
<path d="M12 1C12.5523 1 13 1.44772 13 2V14C13 14.5523 12.5523 15 12 15H4C3.44772 15 3 14.5523 3 14V2C3 1.44772 3.44772 1 4 1H12ZM4 0C2.89543 0 2 0.895431 2 2V14C2 15.1046 2.89543 16 4 16H12C13.1046 16 14 15.1046 14 14V2C14 0.895431 13.1046 0 12 0H4Z" fill="black"/>
<path d="M8 4.75C7.58579 4.75 7.25 4.41421 7.25 4C7.25 3.58579 7.58579 3.25 8 3.25C8.41421 3.25 8.75 3.58579 8.75 4C8.75 4.41421 8.41421 4.75 8 4.75ZM8 6C9.10457 6 10 5.10457 10 4C10 2.89543 9.10457 2 8 2C6.89543 2 6 2.89543 6 4C6 5.10457 6.89543 6 8 6Z" fill="black"/>
<path d="M8 9C7.17157 9 6.5 9.67157 6.5 10.5C6.5 11.3284 7.17157 12 8 12C8.82843 12 9.5 11.3284 9.5 10.5C9.5 9.67157 8.82843 9 8 9ZM4.5 10.5C4.5 8.567 6.067 7 8 7C9.933 7 11.5 8.567 11.5 10.5C11.5 12.433 9.933 14 8 14C6.067 14 4.5 12.433 4.5 10.5Z" fill="black"/>
</svg>
