<svg width="16" height="16" viewBox="0 0 16 16" fill="none" xmlns="http://www.w3.org/2000/svg">
<path d="M8 2C8.27614 2 8.5 2.22386 8.5 2.5V4C8.5 4.27614 8.27614 4.5 8 4.5C7.72386 4.5 7.5 4.27614 7.5 4V2.5C7.5 2.22386 7.72386 2 8 2Z" fill="black"/>
<path d="M3.73223 3.73223C3.9275 3.53697 4.24408 3.53697 4.43934 3.73223L5.35355 4.64645C5.54882 4.84171 5.54882 5.15829 5.35355 5.35355C5.15829 5.54882 4.84171 5.54882 4.64645 5.35355L3.73223 4.43934C3.53697 4.24408 3.53697 3.92749 3.73223 3.73223Z" fill="black"/>
<path d="M2 8C2 7.72386 2.22386 7.5 2.5 7.5H4.08579C4.36193 7.5 4.58579 7.72386 4.58579 8C4.58579 8.27614 4.36193 8.5 4.08579 8.5H2.5C2.22386 8.5 2 8.27614 2 8Z" fill="black"/>
<path d="M11.5 8C11.5 7.72386 11.7239 7.5 12 7.5L13.5 7.5C13.7761 7.5 14 7.72386 14 8C14 8.27614 13.7761 8.5 13.5 8.5H12C11.7239 8.5 11.5 8.27614 11.5 8Z" fill="black"/>
<path d="M12.2543 3.75422C12.1109 3.61073 11.8811 3.60182 11.7269 3.73376L7.54727 7.31056C7.14447 7.65526 7.12062 8.26999 7.49549 8.64486C7.87901 9.02838 8.51079 8.99319 8.84934 8.56944L12.2832 4.27153C12.4067 4.11691 12.3943 3.89416 12.2543 3.75422Z" fill="black"/>
<path fill-rule="evenodd" clip-rule="evenodd" d="M6.66375 15.8889C2.88157 15.2529 0 11.963 0 8C0 3.58172 3.58172 0 8 0C12.4183 0 16 3.58172 16 8C16 9.5164 15.5781 10.9343 14.8453 12.1426C13.4429 14.4549 10.9019 16 8.00004 16C7.54474 16 7.09828 15.962 6.66375 15.8889ZM1.99903 11.606C3.7643 10.5846 5.8139 10 8.00004 10C10.1862 10 12.2357 10.5846 14.001 11.6059C14.6352 10.5528 15 9.31898 15 8C15 4.13401 11.866 1 8 1C4.13401 1 1 4.13401 1 8C1 9.31899 1.36481 10.5528 1.99903 11.606Z" fill="black"/>
</svg>
