<svg width="16" height="16" viewBox="0 0 16 16" fill="none" xmlns="http://www.w3.org/2000/svg">
<path d="M8.2168 11.0684C9.43262 11.0684 10.165 10.1992 10.165 8.75879V8.05566C10.165 6.61523 9.4375 5.75098 8.23633 5.75098C7.49414 5.75098 6.9082 6.09766 6.7373 6.63965H6.67383V3.9834H5.38477V11H6.6543V10.209H6.71777C6.92773 10.7412 7.49414 11.0684 8.2168 11.0684ZM7.78711 10.043C7.12793 10.043 6.67383 9.52539 6.67383 8.76367V8.11914C6.67383 7.29395 7.09375 6.77637 7.77246 6.77637C8.45605 6.77637 8.84668 7.29395 8.84668 8.19238V8.6416C8.84668 9.53027 8.46094 10.043 7.78711 10.043ZM2.2041 11.0781C2.9707 11.0781 3.40527 10.7217 3.61035 10.3408H3.66895V11H4.88477V7.51855C4.88477 6.20508 3.9375 5.73633 2.77539 5.73633C1.35449 5.73633 0.749023 6.41992 0.69043 7.26953H1.90625C1.96973 6.94727 2.21875 6.71777 2.74609 6.71777C3.27344 6.71777 3.61035 6.9668 3.61035 7.48926V7.95312H2.3457C1.14453 7.95312 0.5 8.56836 0.5 9.49609C0.5 10.4727 1.19336 11.0781 2.2041 11.0781ZM2.62402 10.1309C2.18457 10.1309 1.7793 9.89648 1.7793 9.41309C1.7793 9.01758 2.04785 8.72949 2.61914 8.72949H3.61035V9.2666C3.61035 9.76953 3.16602 10.1309 2.62402 10.1309ZM11.5209 10.6978C10.9439 10.2976 10.6211 9.6105 10.6211 8.71484V8.06543C10.6211 6.64453 11.5146 5.72656 12.9258 5.72656C14.2783 5.72656 15.0449 6.54688 15.0645 7.5332H13.8779C13.8389 7.18164 13.5947 6.75684 12.96 6.75684C12.2861 6.75684 11.915 7.27441 11.915 8.08496V8.70996C11.915 9.17782 12.0363 9.54415 12.2576 9.77688L11.5209 10.6978Z" fill="black"/>
<path d="M14.4685 9.41435C14.792 9.67311 14.8444 10.1451 14.5857 10.4685L10.5857 15.4685C10.4524 15.6351 10.2545 15.7371 10.0415 15.7489C9.82847 15.7606 9.62052 15.6812 9.46967 15.5303L6.96967 13.0303C6.67678 12.7374 6.67678 12.2626 6.96967 11.9697C7.26256 11.6768 7.73744 11.6768 8.03033 11.9697L9.93781 13.8772L13.4143 9.53148C13.6731 9.20803 14.1451 9.15559 14.4685 9.41435Z" fill="black"/>
</svg>
