<svg width="16" height="16" viewBox="0 0 16 16" fill="none" xmlns="http://www.w3.org/2000/svg">
<path d="M7.99995 0C3.58179 0 0 3.5817 0 7.99986C0 12.4182 3.58179 15.9996 7.99995 15.9996C12.4186 15.9996 16 12.4182 16 7.99986C16 3.58199 12.4186 0.000382117 7.99986 0.000382117L7.99995 0ZM11.6687 11.5381C11.5254 11.7731 11.2178 11.8476 10.9828 11.7034C9.10447 10.556 6.73991 10.2962 3.95522 10.9324C3.68688 10.9936 3.41939 10.8254 3.35825 10.557C3.29683 10.2886 3.46429 10.0211 3.7333 9.95994C6.78071 9.26372 9.39469 9.56349 11.5034 10.8522C11.7384 10.9964 11.8129 11.3031 11.6687 11.5381ZM12.6479 9.35982C12.4673 9.65329 12.0833 9.74595 11.79 9.5654C9.63963 8.24365 6.36171 7.86086 3.81823 8.63293C3.48837 8.73257 3.13997 8.54667 3.03985 8.21738C2.9405 7.88751 3.1265 7.53978 3.45579 7.43948C6.36114 6.55793 9.97302 6.98495 12.4425 8.50244C12.7357 8.68299 12.8284 9.06692 12.6479 9.35982ZM12.7319 7.09156C10.1536 5.56012 5.89963 5.41931 3.43793 6.16645C3.04262 6.28634 2.62459 6.06318 2.50479 5.66788C2.385 5.27239 2.60796 4.85463 3.00355 4.73446C5.82942 3.8766 10.5271 4.04234 13.4956 5.80458C13.8519 6.01561 13.9685 6.47482 13.7573 6.8299C13.5472 7.18547 13.0867 7.30268 12.7323 7.09156H12.7319Z" fill="black"/>
</svg>
