<svg width="16" height="16" viewBox="0 0 16 16" fill="none" xmlns="http://www.w3.org/2000/svg">
<path d="M14.1193 10.1629L15.8348 11.0206C16.0551 11.1308 16.0551 11.4452 15.8348 11.5553L8.26739 15.339C8.09908 15.4231 7.90098 15.4231 7.73268 15.339L0.165301 11.5553C-0.0550089 11.4452 -0.0550094 11.1308 0.165301 11.0206L1.88074 10.1629L7.19798 12.8215C7.70289 13.074 8.29719 13.074 8.80209 12.8215L14.1193 10.1629Z" fill="black"/>
<path d="M7.73261 0.0631133C7.90092 -0.0210377 8.09902 -0.0210378 8.26732 0.0631131L15.8347 3.8468C16.055 3.95696 16.055 4.27135 15.8347 4.38151L8.26732 8.1652C8.09902 8.24935 7.90092 8.24935 7.73261 8.1652L0.165233 4.38151C-0.0550773 4.27135 -0.0550778 3.95696 0.165232 3.8468L7.73261 0.0631133Z" fill="black"/>
<path d="M14.1193 6.57598L15.8348 7.4337C16.0551 7.54386 16.0551 7.85825 15.8348 7.9684L8.26739 11.7521C8.09908 11.8362 7.90098 11.8362 7.73268 11.7521L0.165301 7.9684C-0.0550089 7.85825 -0.0550094 7.54386 0.165301 7.4337L1.88074 6.57598L7.19798 9.2346C7.70289 9.48705 8.29719 9.48705 8.80209 9.2346L14.1193 6.57598Z" fill="black"/>
</svg>
