<svg width="16" height="16" viewBox="0 0 16 16" fill="none" xmlns="http://www.w3.org/2000/svg">
<path d="M5.35411 5.11885L7.53823 0.792305C7.63633 0.597985 7.81801 0.500551 7.99992 0.500002C8.18286 0.499451 8.36604 0.596887 8.4647 0.792307L10.6488 5.11885L15.5473 5.81472C15.8144 5.85267 15.9823 6.0781 15.9999 6.31968C16.002 6.34769 16.002 6.37593 15.9999 6.40411C15.9904 6.53408 15.9362 6.66299 15.8295 6.76462L12.3072 10.1213L13.1369 14.8508C13.2147 15.2942 12.7771 15.6413 12.3907 15.4427L8.00146 13.1868L3.61224 15.4427C3.56393 15.4675 3.51483 15.4838 3.46603 15.4925C3.12446 15.5531 2.79796 15.2388 2.86603 14.8508L3.69576 10.1213L0.173428 6.76462C0.0551295 6.65189 0.00135121 6.50559 0.00146502 6.36151C0.00154915 6.25501 0.0310762 6.14972 0.0857544 6.06009C0.162946 5.93355 0.290266 5.83821 0.455637 5.81472L5.35411 5.11885ZM7.99992 12.0265C8.07945 12.0263 8.15902 12.045 8.23229 12.0826L11.918 13.977L11.2238 10.0197C11.1911 9.83316 11.2526 9.64214 11.3865 9.5145L14.2934 6.7444L10.2411 6.16874C10.0736 6.14494 9.92728 6.03795 9.84826 5.88141L8.00146 2.22308L7.99992 2.22614V12.0265Z" fill="black"/>
</svg>
