<svg width="16" height="16" viewBox="0 0 16 16" fill="none" xmlns="http://www.w3.org/2000/svg">
<path d="M7.65723 6.24707C7.76704 5.91764 8.233 5.91765 8.34281 6.24707L8.98828 8.1835C9.276 9.04666 9.95332 9.72399 10.8165 10.0117L12.7529 10.6572C13.0824 10.767 13.0824 11.233 12.7529 11.3428L10.8165 11.9883C9.95332 12.276 9.27599 12.9533 8.98828 13.8165L8.34281 15.7529C8.233 16.0823 7.76704 16.0823 7.65723 15.7529L7.01173 13.8165C6.72401 12.9533 6.04669 12.276 5.18353 11.9883L3.24707 11.3428C2.91764 11.233 2.91764 10.767 3.24707 10.6572L5.18353 10.0117C6.04669 9.72399 6.72401 9.04667 7.01173 8.18352L7.65723 6.24707Z" fill="black"/>
<path d="M3.79434 1.14824C3.86023 0.950586 4.1398 0.950587 4.20569 1.14824L4.59297 2.3101C4.7656 2.828 5.172 3.2344 5.6899 3.40703L6.85177 3.79432C7.04942 3.86021 7.04942 4.13978 6.85177 4.20567L5.6899 4.59296C5.172 4.76559 4.7656 5.17199 4.59297 5.68989L4.20569 6.85176C4.13981 7.04941 3.86023 7.04942 3.79434 6.85176L3.40704 5.68988C3.23441 5.17198 2.82801 4.76559 2.31012 4.59296L1.14824 4.20567C0.950586 4.13978 0.950586 3.86021 1.14824 3.79432L2.31012 3.40703C2.82802 3.2344 3.23441 2.82801 3.40704 2.31011L3.79434 1.14824Z" fill="black"/>
<path d="M10.8629 0.0988265C10.9068 -0.032943 11.0932 -0.0329419 11.1371 0.098828L11.3953 0.873401C11.5104 1.21867 11.7813 1.4896 12.1266 1.60469L12.9012 1.86288C13.0329 1.9068 13.0329 2.09319 12.9012 2.13711L12.1266 2.39531C11.7813 2.51039 11.5104 2.78133 11.3953 3.12659L11.1371 3.90117C11.0932 4.03294 10.9068 4.03294 10.8629 3.90117L10.6047 3.12659C10.4896 2.78132 10.2187 2.5104 9.87342 2.39531L9.09883 2.13711C8.96706 2.09319 8.96706 1.9068 9.09883 1.86288L9.87342 1.60469C10.2187 1.4896 10.4896 1.21867 10.6047 0.873408L10.8629 0.0988265Z" fill="black"/>
</svg>
