<svg width="16" height="16" viewBox="0 0 16 16" fill="none" xmlns="http://www.w3.org/2000/svg">
<path d="M0.328708 10.3333C1.32835 13.6136 4.38085 16 7.99141 16C12.4143 16 16 12.4182 16 8C16 3.58173 12.4143 0 7.99141 0C3.74713 0 0.274286 3.29813 0 7.4685C0.00114896 7.47043 0.00229636 7.47235 0.00344221 7.47427C0.00343306 7.47443 0.00345767 7.47401 0.00344221 7.47427L4.30676 9.24292C4.42383 9.16601 4.5486 9.0994 4.68175 9.04515C4.98381 8.92086 5.30237 8.86524 5.61982 8.87966L7.57956 6.03592C7.57887 6.02328 7.57887 6.00982 7.57887 5.99636C7.57887 4.31808 8.94343 2.95279 10.6208 2.95279C12.2988 2.95279 13.6627 4.31808 13.6627 5.99636C13.6627 7.67451 12.2988 9.04103 10.6208 9.04103C10.5981 9.04103 10.5747 9.04035 10.552 9.03966L7.74798 11.0414C7.75623 11.3504 7.69917 11.6601 7.57681 11.9554C7.1066 13.085 5.8033 13.6227 4.67295 13.1509C3.98208 12.8632 3.51381 12.2651 3.36106 11.5832L0.328708 10.3333Z" fill="black"/>
<path d="M4.86791 12.6826C5.74068 13.0458 6.74474 12.6318 7.10867 11.759C7.28465 11.3373 7.28534 10.8704 7.11142 10.4474C6.9375 10.0244 6.60932 9.69339 6.18634 9.5176C5.7668 9.34318 5.31777 9.34867 4.92277 9.49837L5.94642 9.92206C6.58972 10.1899 6.89419 10.9288 6.62581 11.5722C6.35826 12.2149 5.61982 12.5198 4.97618 12.252L3.98593 11.8421C4.1613 12.2081 4.46528 12.515 4.86791 12.6826Z" fill="black"/>
<path d="M8.59421 5.99636C8.59421 7.11485 9.50368 8.02472 10.6208 8.02472C11.7385 8.02472 12.648 7.11485 12.648 5.99636C12.648 4.87877 11.7385 3.96862 10.6208 3.96862C9.50368 3.96862 8.59421 4.87877 8.59421 5.99636ZM10.6242 4.46943C11.4649 4.46943 12.1469 5.15186 12.1469 5.99327C12.1469 6.83475 11.4649 7.51657 10.6242 7.51657C9.78416 7.51657 9.10222 6.83475 9.10222 5.99327C9.10222 5.15186 9.78416 4.46943 10.6242 4.46943Z" fill="black"/>
</svg>
