<svg width="16" height="16" viewBox="0 0 16 16" fill="none" xmlns="http://www.w3.org/2000/svg">
<path d="M0 1.5V13C0 13.5523 0.447715 14 1 14V1.5C1 1.22386 1.22386 1 1.5 1H14C14 0.447715 13.5523 0 13 0H1.5C0.671573 0 0 0.671573 0 1.5Z" fill="black"/>
<path d="M3.5 2C2.67157 2 2 2.67157 2 3.5V14.5C2 15.3284 2.67157 16 3.5 16H9.58579C9.98361 16 10.3651 15.842 10.6464 15.5607L15.5607 10.6464C15.842 10.3651 16 9.98361 16 9.58579V3.5C16 2.67157 15.3284 2 14.5 2H3.5ZM9.5 10.5C9.5 9.94772 9.94772 9.5 10.5 9.5H14.8964C15.1192 9.5 15.2307 9.76929 15.0732 9.92678L9.92678 15.0732C9.76929 15.2307 9.5 15.1192 9.5 14.8964V10.5Z" fill="black"/>
</svg>
