<svg width="16" height="16" viewBox="0 0 16 16" fill="none" xmlns="http://www.w3.org/2000/svg">
<path d="M8 5C8.82843 5 9.5 4.32843 9.5 3.5C9.5 2.67157 8.82843 2 8 2C7.17157 2 6.5 2.67157 6.5 3.5C6.5 4.32843 7.17157 5 8 5Z" fill="black"/>
<path d="M8 9C8.82843 9 9.5 8.32843 9.5 7.5C9.5 6.67157 8.82843 6 8 6C7.17157 6 6.5 6.67157 6.5 7.5C6.5 8.32843 7.17157 9 8 9Z" fill="black"/>
<path d="M9.5 11.5C9.5 12.3284 8.82843 13 8 13C7.17157 13 6.5 12.3284 6.5 11.5C6.5 10.6716 7.17157 10 8 10C8.82843 10 9.5 10.6716 9.5 11.5Z" fill="black"/>
<path d="M4 2C4 0.89543 4.89543 0 6 0H10C11.1046 0 12 0.895431 12 2H14C13.8333 2.5 13.2 3.6 12 4V6H14C13.8333 6.5 13.2 7.6 12 8V10H14C13.8333 10.5 13.2 11.6 12 12V13C12 14.1046 11.1046 15 10 15H6C4.89543 15 4 14.1046 4 13V12C2.8 11.6 2.16667 10.5 2 10H4V8C2.8 7.6 2.16667 6.5 2 6H4V4C2.8 3.6 2.16667 2.5 2 2L4 2ZM6 1C5.44772 1 5 1.44772 5 2V13C5 13.5523 5.44772 14 6 14H10C10.5523 14 11 13.5523 11 13V2C11 1.44772 10.5523 1 10 1H6Z" fill="black"/>
</svg>
