<svg width="16" height="16" viewBox="0 0 16 16" fill="none" xmlns="http://www.w3.org/2000/svg">
<path fill-rule="evenodd" clip-rule="evenodd" d="M6 0C4.89543 0 4 0.89543 4 2L2 2C2.16667 2.5 2.8 3.6 4 4V6H2C2.16667 6.5 2.8 7.6 4 8V10H2C2.16667 10.5 2.8 11.6 4 12V13C4 14.1046 4.89543 15 6 15H10C11.1046 15 12 14.1046 12 13V12C13.2 11.6 13.8333 10.5 14 10H12V8C13.2 7.6 13.8333 6.5 14 6H12V4C13.2 3.6 13.8333 2.5 14 2H12C12 0.895431 11.1046 0 10 0H6ZM9.5 3.5C9.5 4.32843 8.82843 5 8 5C7.17157 5 6.5 4.32843 6.5 3.5C6.5 2.67157 7.17157 2 8 2C8.82843 2 9.5 2.67157 9.5 3.5ZM9.5 7.5C9.5 8.32843 8.82843 9 8 9C7.17157 9 6.5 8.32843 6.5 7.5C6.5 6.67157 7.17157 6 8 6C8.82843 6 9.5 6.67157 9.5 7.5ZM8 13C7.17157 13 6.5 12.3284 6.5 11.5C6.5 10.6716 7.17157 10 8 10C8.82843 10 9.5 10.6716 9.5 11.5C9.5 12.3284 8.82843 13 8 13Z" fill="black"/>
</svg>
