<svg width="16" height="16" viewBox="0 0 16 16" fill="none" xmlns="http://www.w3.org/2000/svg">
<path d="M8 15C4.13401 15 1 11.866 1 8C1 4.13401 4.13401 1 8 1C11.866 1 15 4.13401 15 8C15 11.866 11.866 15 8 15ZM8 16C12.4183 16 16 12.4183 16 8C16 3.58172 12.4183 0 8 0C3.58172 0 0 3.58172 0 8C0 12.4183 3.58172 16 8 16Z" fill="black"/>
<path d="M5 6.5C5 5.67157 5.67157 5 6.5 5H9.5C10.3284 5 11 5.67157 11 6.5V9.5C11 10.3284 10.3284 11 9.5 11H6.5C5.67157 11 5 10.3284 5 9.5V6.5Z" fill="black"/>
</svg>
