<svg width="16" height="16" viewBox="0 0 16 16" fill="none" xmlns="http://www.w3.org/2000/svg">
<path d="M6.5 0C6.22386 0 6 0.223858 6 0.5C6 0.776142 6.22386 1 6.5 1H7V2.07094C3.60749 2.55639 1 5.47347 1 9C1 12.866 4.13401 16 8 16C11.866 16 15 12.866 15 9C15 7.24676 14.3555 5.64415 13.2905 4.41609C13.2948 4.41205 13.2991 4.40793 13.3033 4.40371L13.6569 4.05015L14.0104 4.40371C14.2057 4.59897 14.5223 4.59897 14.7175 4.40371C14.9128 4.20844 14.9128 3.89186 14.7175 3.6966L13.3033 2.28239C13.1081 2.08712 12.7915 2.08712 12.5962 2.28239C12.401 2.47765 12.401 2.79423 12.5962 2.98949L12.9498 3.34305L12.5962 3.6966C12.592 3.70083 12.5879 3.70511 12.5838 3.70945C11.5936 2.85082 10.3599 2.26553 9 2.07094V1H9.5C9.77614 1 10 0.776142 10 0.5C10 0.223858 9.77614 0 9.5 0H6.5ZM8.49999 5.59997L8.5 9C8.5 9.13261 8.44732 9.25978 8.35355 9.35355C8.25979 9.44732 8.13261 9.5 8 9.5H4.5C4.22386 9.5 4 9.27614 4 9C4 8.72386 4.22386 8.5 4.5 8.5H7.5L7.49999 5.59998C7.49999 5.32383 7.72384 5.09998 7.99999 5.09998C8.27613 5.09998 8.49999 5.32383 8.49999 5.59997Z" fill="black"/>
</svg>
