<svg width="16" height="16" viewBox="0 0 16 16" fill="none" xmlns="http://www.w3.org/2000/svg">
<path d="M2 0C0.895431 0 0 0.895431 0 2V14C0 15.1046 0.895431 16 2 16H14C15.1046 16 16 15.1046 16 14V2C16 0.895431 15.1046 0 14 0H2ZM8.22598 5.38462C7.64173 5.38462 7.28898 5.54945 7.28898 5.97802C7.28898 6.44595 7.89607 6.65179 8.64925 6.90716C9.8771 7.32347 11.4932 7.8714 11.5 9.9011C11.5 11.8681 9.92362 13 7.63071 13C6.68268 13 5.64646 12.8132 4.62126 12.3736V9.75824C5.54724 10.2637 6.71575 10.6374 7.63071 10.6374C8.24803 10.6374 8.68898 10.4725 8.68898 9.96703C8.68898 9.44871 8.03087 9.2118 7.23636 8.92577C6.02636 8.49018 4.5 7.9407 4.5 6.10989C4.5 4.16484 5.98819 3 8.22598 3C9.14095 3 10.0449 3.14286 10.9598 3.50549V6.08791C10.122 5.63736 9.06378 5.38462 8.22598 5.38462Z" fill="black"/>
</svg>
