<svg width="16" height="16" viewBox="0 0 16 16" fill="none" xmlns="http://www.w3.org/2000/svg">
<path d="M6 5C6.27614 5 6.5 5.22386 6.5 5.5V12.5C6.5 12.7761 6.27614 13 6 13C5.72386 13 5.5 12.7761 5.5 12.5V5.5C5.5 5.22386 5.72386 5 6 5Z" fill="black"/>
<path d="M8 5C8.27614 5 8.5 5.22386 8.5 5.5V12.5C8.5 12.7761 8.27614 13 8 13C7.72386 13 7.5 12.7761 7.5 12.5V5.5C7.5 5.22386 7.72386 5 8 5Z" fill="black"/>
<path d="M10 5C10.2761 5 10.5 5.22386 10.5 5.5V12.5C10.5 12.7761 10.2761 13 10 13C9.72386 13 9.5 12.7761 9.5 12.5V5.5C9.5 5.22386 9.72386 5 10 5Z" fill="black"/>
<path d="M6.5 0C6.22386 0 6 0.223858 6 0.5V3H5C3.89543 3 3 3.89543 3 5V13C3 13.7532 3.41634 14.4091 4.03144 14.7502C4.01092 14.8301 4 14.9138 4 15C4 15.5523 4.44772 16 5 16C5.55228 16 6 15.5523 6 15H10C10 15.5523 10.4477 16 11 16C11.5523 16 12 15.5523 12 15C12 14.9138 11.9891 14.8301 11.9686 14.7502C12.5837 14.4091 13 13.7532 13 13V5C13 3.89543 12.1046 3 11 3H10V0.5C10 0.223858 9.77614 0 9.5 0H6.5ZM9 3H7V1H9V3ZM12 13C12 13.5523 11.5523 14 11 14H5C4.44772 14 4 13.5523 4 13V5C4 4.44772 4.44772 4 5 4H11C11.5523 4 12 4.44772 12 5V13Z" fill="black"/>
</svg>
