<svg width="16" height="16" viewBox="0 0 16 16" fill="none" xmlns="http://www.w3.org/2000/svg">
<path d="M6.5 0C6.22386 0 6 0.223858 6 0.5V3H5C3.89543 3 3 3.89543 3 5V13C3 13.7532 3.41634 14.4091 4.03144 14.7502C4.01092 14.8301 4 14.9138 4 15C4 15.5523 4.44772 16 5 16C5.55228 16 6 15.5523 6 15H10C10 15.5523 10.4477 16 11 16C11.5523 16 12 15.5523 12 15C12 14.9138 11.9891 14.8301 11.9686 14.7502C12.5837 14.4091 13 13.7532 13 13V5C13 3.89543 12.1046 3 11 3H10V0.5C10 0.223858 9.77614 0 9.5 0H6.5ZM9 3H7V1H9V3ZM12 13C12 13.5523 11.5523 14 11 14H5C4.44772 14 4 13.5523 4 13V7H12V13ZM5 4H11C11.5523 4 12 4.44772 12 5V6H4V5C4 4.44772 4.44772 4 5 4Z" fill="black"/>
</svg>
