<svg width="16" height="16" viewBox="0 0 16 16" fill="none" xmlns="http://www.w3.org/2000/svg">
<path d="M6.5 0C6.22386 0 6 0.223858 6 0.5V3H4.5C3.67157 3 3 3.67157 3 4.5V13.5C3 14.1544 3.41907 14.7109 4.00349 14.9159C4.00118 14.9436 4 14.9717 4 15C4 15.5523 4.44772 16 5 16C5.55228 16 6 15.5523 6 15H10C10 15.5523 10.4477 16 11 16C11.5523 16 12 15.5523 12 15C12 14.9717 11.9988 14.9436 11.9965 14.9159C12.5809 14.7109 13 14.1544 13 13.5V4.5C13 3.67157 12.3284 3 11.5 3H10V0.5C10 0.223858 9.77614 0 9.5 0H6.5ZM9 3H7V1H9V3ZM4 7V6H12V7H4Z" fill="black"/>
</svg>
