<svg width="16" height="16" viewBox="0 0 16 16" fill="none" xmlns="http://www.w3.org/2000/svg">
<path d="M8 6.23605L7.10557 4.44719C6.884 4.00405 6.49875 3.36651 5.95408 2.85178C5.41783 2.34501 4.77649 1.99998 4 1.99998C2.324 1.99998 1 3.32626 1 4.91998C1 6.13105 1.55373 6.98575 2.86822 8.29C3.20476 8.62392 3.58935 8.98484 4.01356 9.38296C5.12195 10.4232 6.50087 11.7173 8 13.4467C9.49914 11.7173 10.878 10.4232 11.9864 9.38296C12.4107 8.98484 12.7952 8.62391 13.1318 8.29C14.4463 6.98575 15 6.13105 15 4.91998C15 3.32626 13.676 1.99998 12 1.99998C11.2235 1.99998 10.5822 2.34501 10.0459 2.85178C9.50125 3.36651 9.116 4.00405 8.89443 4.44719L8 6.23605ZM8.39151 14.5278C8.18771 14.7698 7.81229 14.7698 7.60849 14.5278C6.00693 12.6261 4.55819 11.2664 3.36507 10.1467C1.29947 8.20809 0 6.98853 0 4.91998C0 2.75502 1.79086 0.999981 4 0.999981C5.60015 0.999981 6.71852 2.0493 7.40353 3.00785C7.66423 3.37265 7.86217 3.72431 8 3.99998C8.13783 3.72431 8.33577 3.37265 8.59647 3.00785C9.28148 2.0493 10.3998 0.999981 12 0.999981C14.2091 0.999981 16 2.75502 16 4.91998C16 6.98853 14.7005 8.20809 12.6349 10.1467C11.4418 11.2664 9.99307 12.6261 8.39151 14.5278Z" fill="black"/>
</svg>
