<svg width="16" height="16" viewBox="0 0 16 16" fill="none" xmlns="http://www.w3.org/2000/svg">
<path d="M11.5 12.5C10.422 12.5 9.45785 12.0127 8.81581 11.2463C9.36337 12.4904 9.96526 13.4964 10.3983 14.1527C10.6292 14.5026 10.3789 15 9.95969 15H6.04031C5.62106 15 5.37078 14.5026 5.60169 14.1527C6.03474 13.4964 6.63663 12.4904 7.18419 11.2463C6.54215 12.0127 5.57799 12.5 4.5 12.5C2.567 12.5 1 10.933 1 9C1 7.067 2.567 5.5 4.5 5.5C4.54885 5.5 4.59747 5.501 4.64583 5.50298C4.55096 5.18525 4.5 4.84858 4.5 4.5C4.5 2.567 6.067 1 8 1C9.933 1 11.5 2.567 11.5 4.5C11.5 4.84858 11.449 5.18525 11.3542 5.50298C11.4025 5.501 11.4511 5.5 11.5 5.5C13.433 5.5 15 7.067 15 9C15 10.933 13.433 12.5 11.5 12.5Z" fill="black"/>
</svg>
