<svg width="16" height="16" viewBox="0 0 16 16" fill="none" xmlns="http://www.w3.org/2000/svg">
<path d="M8.384 1.22553C8.192 0.953192 7.808 0.953192 7.616 1.22553L3.056 7.69362C2.928 7.87518 2.928 8.12482 3.056 8.30638L7.616 14.7745C7.808 15.0468 8.192 15.0468 8.384 14.7745L12.944 8.30638C13.072 8.12482 13.072 7.87518 12.944 7.69362L8.384 1.22553ZM6.848 0.612766C7.424 -0.204255 8.576 -0.204255 9.152 0.612766L13.712 7.08085C14.096 7.62553 14.096 8.37447 13.712 8.91915L9.152 15.3872C8.576 16.2043 7.424 16.2043 6.848 15.3872L2.288 8.91915C1.904 8.37447 1.904 7.62553 2.288 7.08085L6.848 0.612766Z" fill="black"/>
</svg>
