<svg width="16" height="16" viewBox="0 0 16 16" fill="none" xmlns="http://www.w3.org/2000/svg">
<path d="M7.18419 11.2463C6.54215 12.0127 5.57799 12.5 4.5 12.5C2.567 12.5 1 10.933 1 9C1 7.39822 2.14031 6.36659 3.65988 4.99186C4.98634 3.79183 6.60178 2.33036 8 0C9.39822 2.33036 11.0137 3.79183 12.3401 4.99186C13.8597 6.36659 15 7.39822 15 9C15 10.933 13.433 12.5 11.5 12.5C10.422 12.5 9.45785 12.0127 8.81581 11.2463C9.36337 12.4904 9.96526 13.4964 10.3983 14.1527C10.6292 14.5026 10.3789 15 9.95969 15H6.04031C5.62106 15 5.37078 14.5026 5.60169 14.1527C6.03474 13.4964 6.63663 12.4904 7.18419 11.2463Z" fill="black"/>
</svg>
