<svg width="16" height="16" viewBox="0 0 16 16" fill="none" xmlns="http://www.w3.org/2000/svg">
<path d="M7 0C5.89543 0 5 0.895431 5 2H1.5C0.671573 2 0 2.67157 0 3.5V12.5C0 13.3284 0.671573 14 1.5 14H2C2 14.2761 2.22386 14.5 2.5 14.5C2.77614 14.5 3 14.2761 3 14H13C13 14.2761 13.2239 14.5 13.5 14.5C13.7761 14.5 14 14.2761 14 14H14.5C15.3284 14 16 13.3284 16 12.5V3.5C16 2.67157 15.3284 2 14.5 2H11C11 0.895431 10.1046 0 9 0H7ZM6 2C6 1.44772 6.44772 1 7 1H9C9.55228 1 10 1.44772 10 2H6ZM3 13V3H4V13H3ZM12 13V3H13V13H12Z" fill="black"/>
</svg>
