<svg width="16" height="16" viewBox="0 0 16 16" fill="none" xmlns="http://www.w3.org/2000/svg">
<path d="M8.00002 1C6.20509 1 4.75001 2.45508 4.75001 4.25001C4.75001 4.4357 4.7506 4.53943 4.76552 4.65999C4.78034 4.77965 4.81139 4.92973 4.88506 5.18684L5.07569 5.85216L4.38417 5.82415C4.3397 5.82235 4.29498 5.82144 4.25001 5.82144C2.45508 5.82144 1 7.27652 1 9.07146C1 10.8664 2.45508 12.3215 4.25001 12.3215C5.25029 12.3215 6.14468 11.8702 6.74164 11.1583C6.90083 10.9685 7.17503 10.9238 7.38621 11.0534C7.59739 11.1829 7.68186 11.4476 7.58478 11.6755L7.58224 11.6814L7.57589 11.6961L7.55195 11.7508C7.53106 11.7981 7.50039 11.8666 7.46046 11.9533C7.38064 12.1268 7.26367 12.3738 7.11375 12.6705C6.81443 13.263 6.3813 14.059 5.84773 14.8676C5.83549 14.8861 5.82854 14.9185 5.84915 14.9587C5.85866 14.9773 5.87027 14.9885 5.87835 14.9938C5.88445 14.9978 5.89016 15 5.90035 15H10.0997C10.1099 15 10.1156 14.9978 10.1217 14.9938C10.1298 14.9885 10.1414 14.9773 10.1509 14.9587C10.1715 14.9185 10.1646 14.8861 10.1523 14.8676C9.62018 14.0583 9.18665 13.2619 8.88703 12.67C8.73697 12.3735 8.61977 12.1269 8.53976 11.9537C8.49974 11.867 8.46899 11.7987 8.44805 11.7515L8.42404 11.697L8.41768 11.6823L8.41593 11.6783L8.41541 11.6771C8.31822 11.4502 8.40087 11.1857 8.61036 11.0552C8.81986 10.9247 9.09326 10.9666 9.25407 11.1538C9.85498 11.8535 10.7695 12.3215 11.75 12.3215C13.5449 12.3215 15 10.8664 15 9.07146C15 7.27652 13.5449 5.82144 11.75 5.82144C11.7035 5.82144 11.6573 5.82242 11.6113 5.82434L10.9123 5.85361L11.111 5.18279C11.2501 4.71308 11.2501 4.4375 11.25 4.25632V4.25001C11.25 2.45508 9.79496 1 8.00002 1ZM10.2069 13.0241C10.4319 13.4288 10.6944 13.8718 10.9874 14.3175C11.4376 15.0008 10.9753 16 10.0997 16H5.90035C5.02445 16 4.56212 15.0002 5.01308 14.3168C5.30438 13.8754 5.56518 13.4361 5.78899 13.0341C5.31179 13.2196 4.79275 13.3215 4.25001 13.3215C1.90279 13.3215 0 11.4187 0 9.07146C0 6.88248 1.65488 5.08002 3.78179 4.84694C3.77861 4.82536 3.77572 4.80402 3.7731 4.78285C3.74998 4.59615 3.75 4.43528 3.75001 4.26256L3.75001 4.25001C3.75001 1.90279 5.65281 0 8.00002 0C10.3472 0 12.25 1.90279 12.25 4.25001C12.25 4.38909 12.2494 4.58276 12.2102 4.84607C14.3409 5.07549 16 6.87972 16 9.07146C16 11.4187 14.0972 13.3215 11.75 13.3215C11.2088 13.3215 10.6872 13.2144 10.2069 13.0241Z" fill="black"/>
</svg>
