<svg width="16" height="16" viewBox="0 0 16 16" fill="none" xmlns="http://www.w3.org/2000/svg">
<path d="M6 0.5C6 0.223858 6.22386 0 6.5 0H9.5C9.77614 0 10 0.223858 10 0.5V3H11.5C12.3284 3 13 3.67157 13 4.5V13.5C13 14.1544 12.5809 14.7109 11.9965 14.9159C11.9988 14.9436 12 14.9717 12 15C12 15.5523 11.5523 16 11 16C10.4477 16 10 15.5523 10 15H6C6 15.5523 5.55228 16 5 16C4.44772 16 4 15.5523 4 15C4 14.9717 4.00118 14.9436 4.00349 14.9159C3.41907 14.7109 3 14.1544 3 13.5V4.5C3 3.67157 3.67157 3 4.5 3H6V0.5ZM9 1H7V3H9V1ZM6 5.5C6 5.22386 5.77614 5 5.5 5C5.22386 5 5 5.22386 5 5.5V12.5C5 12.7761 5.22386 13 5.5 13C5.77614 13 6 12.7761 6 12.5V5.5ZM8.5 5.5C8.5 5.22386 8.27614 5 8 5C7.72386 5 7.5 5.22386 7.5 5.5V12.5C7.5 12.7761 7.72386 13 8 13C8.27614 13 8.5 12.7761 8.5 12.5V5.5ZM11 5.5C11 5.22386 10.7761 5 10.5 5C10.2239 5 10 5.22386 10 5.5V12.5C10 12.7761 10.2239 13 10.5 13C10.7761 13 11 12.7761 11 12.5V5.5Z" fill="black"/>
</svg>
