<svg width="16" height="16" viewBox="0 0 16 16" fill="none" xmlns="http://www.w3.org/2000/svg">
<path d="M5 2C5 0.895431 5.89543 0 7 0H9C10.1046 0 11 0.895431 11 2H14.5C15.3284 2 16 2.67157 16 3.5V12.5C16 13.3284 15.3284 14 14.5 14H14C14 14.2761 13.7761 14.5 13.5 14.5C13.2239 14.5 13 14.2761 13 14H3C3 14.2761 2.77614 14.5 2.5 14.5C2.22386 14.5 2 14.2761 2 14H1.5C0.671573 14 0 13.3284 0 12.5V3.5C0 2.67157 0.671573 2 1.5 2H5ZM6 2H10C10 1.44772 9.55228 1 9 1H7C6.44772 1 6 1.44772 6 2ZM1.5 3C1.22386 3 1 3.22386 1 3.5V12.5C1 12.7761 1.22386 13 1.5 13H3V3H1.5ZM15 12.5V3.5C15 3.22386 14.7761 3 14.5 3H13V13H14.5C14.7761 13 15 12.7761 15 12.5ZM12 13V3H4V13H12Z" fill="black"/>
</svg>
