<svg width="16" height="16" viewBox="0 0 16 16" fill="none" xmlns="http://www.w3.org/2000/svg">
<path d="M8 0C8.17563 0 8.33838 0.0921494 8.42875 0.242752C9.78764 2.50757 11.3535 3.92464 12.6798 5.12488C12.7749 5.21097 12.8688 5.29594 12.9613 5.38003C14.3081 6.60439 15.5 7.74666 15.5 9.5C15.5 11.7091 13.7091 13.5 11.5 13.5C11.0052 13.5 10.5314 13.4101 10.094 13.2458C10.3294 13.6354 10.585 14.0277 10.8157 14.3774C11.2503 15.0359 10.8055 16 9.95969 16H6.04031C5.19454 16 4.74974 15.0359 5.18431 14.3774C5.44672 13.9797 5.69474 13.5995 5.91222 13.2434C5.47309 13.4092 4.9971 13.5 4.5 13.5C2.29086 13.5 0.5 11.7091 0.5 9.5C0.5 7.74666 1.69187 6.60439 3.03866 5.38003C3.13116 5.29594 3.22506 5.21097 3.32018 5.12488C4.64647 3.92464 6.21236 2.50757 7.57125 0.242752C7.66162 0.0921494 7.82437 0 8 0ZM3.71134 6.11997C2.30813 7.39561 1.5 8.25334 1.5 9.5C1.5 11.1569 2.84315 12.5 4.5 12.5C5.40958 12.5 6.22422 12.0958 6.77515 11.4555C6.92424 11.2823 7.17184 11.2321 7.37656 11.3338C7.58129 11.4355 7.69099 11.6631 7.64303 11.8865C7.54916 12.324 7.313 12.8175 7.03164 13.314C6.74553 13.819 6.38712 14.3702 6.01895 14.9282C6.01539 14.9336 6.01382 14.9384 6.01363 14.9456C6.0134 14.9545 6.01569 14.967 6.02213 14.9796C6.02856 14.9921 6.03564 14.9981 6.0381 14.9997C6.03827 14.9998 6.03826 14.9999 6.03829 14.9999C6.03834 15 6.03854 15 6.04031 15H9.95969C9.96146 15 9.96166 15 9.96171 14.9999C9.96174 14.9999 9.96173 14.9998 9.9619 14.9997C9.96436 14.9981 9.97144 14.9921 9.97787 14.9796C9.98431 14.967 9.9866 14.9545 9.98637 14.9456C9.98618 14.9384 9.98461 14.9336 9.98105 14.9282C9.68041 14.4726 9.32303 13.9227 9.02058 13.3934C8.72676 12.8791 8.45195 12.3292 8.35697 11.8865C8.30901 11.6631 8.41871 11.4355 8.62344 11.3338C8.82816 11.2321 9.07576 11.2823 9.22485 11.4555C9.77578 12.0958 10.5904 12.5 11.5 12.5C13.1569 12.5 14.5 11.1569 14.5 9.5C14.5 8.25334 13.6919 7.39561 12.2887 6.11997C12.1947 6.03453 12.0986 5.94767 12.0008 5.85914C10.8039 4.77672 9.332 3.44549 8 1.43668C6.668 3.44549 5.19607 4.77673 3.99925 5.85914C3.90136 5.94767 3.80532 6.03453 3.71134 6.11997Z" fill="black"/>
</svg>
