<svg width="16" height="16" viewBox="0 0 16 16" fill="none" xmlns="http://www.w3.org/2000/svg">
<path d="M3 5C1.89543 5 1 5.89543 1 7V7.5H0.5C0.223858 7.5 0 7.72386 0 8C0 8.27614 0.223858 8.5 0.5 8.5H1V9C1 10.1046 1.89543 11 3 11H4C5.65685 11 7 9.65685 7 8C7 7.44772 7.44771 7 8 7C8.55229 7 9 7.44772 9 8C9 9.65685 10.3431 11 12 11H13C14.1046 11 15 10.1046 15 9V8.5H15.5C15.7761 8.5 16 8.27614 16 8C16 7.72386 15.7761 7.5 15.5 7.5H15V7C15 5.89543 14.1046 5 13 5H11C10.1276 5 9.38566 5.55857 9.1123 6.33759C8.79427 6.12437 8.41166 6 8 6C7.58834 6 7.20573 6.12437 6.8877 6.33759C6.61434 5.55857 5.8724 5 5 5H3ZM3 6H3.94098C4.20479 6 4.28874 6.35563 4.05279 6.47361L3.59628 6.70186C3.20923 6.89539 2.89539 7.20923 2.70186 7.59628L2.47361 8.05279C2.35563 8.28874 2 8.20479 2 7.94098V7C2 6.44772 2.44772 6 3 6Z" fill="black"/>
</svg>
