<svg width="16" height="16" viewBox="0 0 16 16" fill="none" xmlns="http://www.w3.org/2000/svg">
<path d="M7.64645 1.14645C7.84171 0.951184 8.15829 0.951184 8.35355 1.14645L9.85355 2.64645C10.0488 2.84171 10.0488 3.15829 9.85355 3.35355C9.65829 3.54882 9.34171 3.54882 9.14645 3.35355L8.5 2.70711V4.5C8.5 4.77614 8.27614 5 8 5C7.72386 5 7.5 4.77614 7.5 4.5V2.70711L6.85355 3.35355C6.65829 3.54882 6.34171 3.54882 6.14645 3.35355C5.95118 3.15829 5.95118 2.84171 6.14645 2.64645L7.64645 1.14645ZM2.34315 4.34315C2.53841 4.14788 2.85499 4.14788 3.05025 4.34315L4.46447 5.75736C4.65973 5.95262 4.65973 6.2692 4.46447 6.46447C4.2692 6.65973 3.95262 6.65973 3.75736 6.46447L2.34315 5.05025C2.14788 4.85499 2.14788 4.53841 2.34315 4.34315ZM13.6569 4.34315C13.8521 4.53841 13.8521 4.85499 13.6569 5.05025L12.2426 6.46447C12.0474 6.65973 11.7308 6.65973 11.5355 6.46447C11.3403 6.2692 11.3403 5.95262 11.5355 5.75736L12.9497 4.34315C13.145 4.14788 13.4616 4.14788 13.6569 4.34315ZM8 7C9.65685 7 11 8.34315 11 10C11 10.5471 10.854 11.059 10.5988 11.5H5.40125C5.14603 11.059 5 10.5471 5 10C5 8.34315 6.34315 7 8 7ZM11.7091 11.5C11.8967 11.0366 12 10.53 12 10C12 7.79086 10.2091 6 8 6C5.79086 6 4 7.79086 4 10C4 10.53 4.10332 11.0366 4.29091 11.5H0.5C0.223858 11.5 0 11.7239 0 12C0 12.2761 0.223858 12.5 0.5 12.5H15.5C15.7761 12.5 16 12.2761 16 12C16 11.7239 15.7761 11.5 15.5 11.5H11.7091ZM0 10C0 9.72386 0.223858 9.5 0.5 9.5H2.5C2.77614 9.5 3 9.72386 3 10C3 10.2761 2.77614 10.5 2.5 10.5H0.5C0.223858 10.5 0 10.2761 0 10ZM13 10C13 9.72386 13.2239 9.5 13.5 9.5H15.5C15.7761 9.5 16 9.72386 16 10C16 10.2761 15.7761 10.5 15.5 10.5H13.5C13.2239 10.5 13 10.2761 13 10Z" fill="black"/>
</svg>
