<svg width="16" height="16" viewBox="0 0 16 16" fill="none" xmlns="http://www.w3.org/2000/svg">
<path d="M13.5 7C13.7286 7 13.928 6.84502 13.9845 6.62354C14.041 6.40207 13.9401 6.1705 13.7394 6.06105L2.73943 0.0610523C2.58451 -0.02345 2.39651 -0.0200302 2.24477 0.0700507C2.09302 0.160132 2 0.323532 2 0.5V6.5C2 6.77614 2.22386 7 2.5 7L13.5 7Z" fill="black"/>
<path d="M13.9845 9.37646C14.041 9.59793 13.9401 9.8295 13.7394 9.93895L2.73943 15.9389C2.5845 16.0235 2.39651 16.02 2.24477 15.9299C2.09302 15.8399 2 15.6765 2 15.5V9.5C2 9.22386 2.22386 9 2.5 9L13.5 9C13.7286 9 13.928 9.15499 13.9845 9.37646ZM11.5392 10L3 10L3 14.6577L11.5392 10Z" fill="black"/>
</svg>
