<svg width="16" height="16" viewBox="0 0 16 16" fill="none" xmlns="http://www.w3.org/2000/svg">
<path d="M12 1C12.5523 1 13 1.44772 13 2V14C13 14.5523 12.5523 15 12 15H4C3.44772 15 3 14.5523 3 14V2C3 1.44772 3.44772 1 4 1H12ZM4 0C2.89543 0 2 0.89543 2 2V14C2 15.1046 2.89543 16 4 16H12C13.1046 16 14 15.1046 14 14V2C14 0.895431 13.1046 0 12 0H4Z" fill="black"/>
<path d="M8 14C8.55228 14 9 13.5523 9 13C9 12.4477 8.55228 12 8 12C7.44772 12 7 12.4477 7 13C7 13.5523 7.44772 14 8 14Z" fill="black"/>
</svg>
