<svg width="16" height="16" viewBox="0 0 16 16" fill="none" xmlns="http://www.w3.org/2000/svg">
<path d="M6 1C5.44772 1 5 1.44772 5 2V3H4.81879C3.81872 3 2.91488 3.59599 2.52093 4.5152L1.72903 6.36297C1.65384 6.53842 1.51889 6.68154 1.34816 6.7669C0.849394 7.01629 0.493703 7.48198 0.384342 8.02878L0.0485483 9.70775C0.0162617 9.86918 0 10.0334 0 10.198V10.611C0 11.425 0.390331 12.1538 1 12.6085V14.5C1 14.7761 1.22386 15 1.5 15H3.5C3.77614 15 4 14.7761 4 14.5V13.162C5.29163 13.21 6.74462 13.25 8 13.25C9.25538 13.25 10.7084 13.21 12 13.162V14.5C12 14.7761 12.2239 15 12.5 15H14.5C14.7761 15 15 14.7761 15 14.5V12.6085C15.6097 12.1538 16 11.425 16 10.611V10.198C16 10.0334 15.9837 9.86918 15.9515 9.70775L15.6157 8.02878C15.5063 7.48197 15.1506 7.01629 14.6518 6.7669C14.4811 6.68154 14.3462 6.53842 14.271 6.36297L13.4791 4.5152C13.0851 3.59599 12.1813 3 11.1812 3H11V2C11 1.44772 10.5523 1 10 1H6ZM4.309 4H11.691C11.8804 4 12.0535 4.107 12.1382 4.27639L13.0943 6.18861C13.2704 6.54081 12.989 6.95195 12.5965 6.92034C11.6879 6.84716 9.24679 6.75 7.99999 6.75C6.75318 6.75 4.31206 6.84716 3.40344 6.92034C3.01094 6.95195 2.72958 6.54081 2.90568 6.18861L3.86179 4.27639C3.94649 4.107 4.11962 4 4.309 4ZM4 10C4 10.5523 3.55228 11 3 11C2.44772 11 2 10.5523 2 10C2 9.44772 2.44772 9 3 9C3.55228 9 4 9.44772 4 10ZM14 10C14 10.5523 13.5523 11 13 11C12.4477 11 12 10.5523 12 10C12 9.44772 12.4477 9 13 9C13.5523 9 14 9.44772 14 10ZM5 10C5 9.44772 5.44772 9 6 9H10C10.5523 9 11 9.44772 11 10C11 10.5523 10.5523 11 10 11H6C5.44772 11 5 10.5523 5 10Z" fill="black"/>
</svg>
