<svg width="16" height="16" viewBox="0 0 16 16" fill="none" xmlns="http://www.w3.org/2000/svg">
<path d="M4.8618 5.27639L3.9057 7.18861C3.72959 7.54081 4.01095 7.95195 4.40346 7.92034C5.31207 7.84716 6.75319 7.75 8 7.75C9.24681 7.75 10.6879 7.84716 11.5965 7.92034C11.989 7.95195 12.2704 7.54081 12.0943 7.18861L11.1382 5.27639C11.0535 5.107 10.8804 5 10.691 5H5.30902C5.11963 5 4.9465 5.107 4.8618 5.27639Z" fill="black"/>
<path d="M4 10C4 10.5523 3.55228 11 3 11C2.44772 11 2 10.5523 2 10C2 9.44772 2.44772 9 3 9C3.55228 9 4 9.44772 4 10Z" fill="black"/>
<path d="M14 10C14 10.5523 13.5523 11 13 11C12.4477 11 12 10.5523 12 10C12 9.44772 12.4477 9 13 9C13.5523 9 14 9.44772 14 10Z" fill="black"/>
<path d="M5 10C5 9.44772 5.44772 9 6 9H10C10.5523 9 11 9.44772 11 10C11 10.5523 10.5523 11 10 11H6C5.44772 11 5 10.5523 5 10Z" fill="black"/>
<path d="M6 1C5.44772 1 5 1.44772 5 2V3H4.81879C3.81872 3 2.91488 3.59599 2.52093 4.5152L1.72903 6.36297C1.65384 6.53842 1.51889 6.68154 1.34816 6.7669C0.849394 7.01629 0.493703 7.48198 0.384342 8.02878L0.0485483 9.70775C0.0162617 9.86918 0 10.0334 0 10.198V10.611C0 11.425 0.390331 12.1538 1 12.6085V14.5C1 14.7761 1.22386 15 1.5 15H3.5C3.77614 15 4 14.7761 4 14.5V13.162C5.29163 13.21 6.74462 13.25 8 13.25C9.25538 13.25 10.7084 13.21 12 13.162V14.5C12 14.7761 12.2239 15 12.5 15H14.5C14.7761 15 15 14.7761 15 14.5V12.6085C15.6097 12.1538 16 11.425 16 10.611V10.198C16 10.0334 15.9837 9.86918 15.9515 9.70775L15.6157 8.02878C15.5063 7.48197 15.1506 7.01629 14.6518 6.7669C14.4811 6.68154 14.3462 6.53842 14.271 6.36297L13.4791 4.5152C13.0851 3.59599 12.1813 3 11.1812 3H11V2C11 1.44772 10.5523 1 10 1H6ZM4.81879 4H11.1812C11.7812 4 12.3236 4.3576 12.5599 4.90912L13.3518 6.75689C13.5202 7.14974 13.8223 7.47019 14.2046 7.66133C14.4274 7.77271 14.5862 7.98069 14.6351 8.2249L14.9709 9.90386C14.9902 10.0007 15 10.0993 15 10.198V10.611C15 11.4075 14.3807 12.0593 13.5921 12.0952C12.0372 12.1659 9.80613 12.25 8 12.25C6.19387 12.25 3.96284 12.1659 2.40789 12.0952C1.61926 12.0593 1 11.4075 1 10.611V10.198C1 10.0993 1.00976 10.0007 1.02913 9.90386L1.36492 8.2249C1.41376 7.98069 1.57262 7.77271 1.79537 7.66133C2.17765 7.47019 2.47981 7.14974 2.64817 6.75689L3.44007 4.90912C3.67644 4.3576 4.21875 4 4.81879 4Z" fill="black"/>
</svg>
