<svg width="16" height="16" viewBox="0 0 16 16" fill="none" xmlns="http://www.w3.org/2000/svg">
<path fill-rule="evenodd" clip-rule="evenodd" d="M1.88477 0.511076C2.62689 -0.231039 3.85149 -0.154797 4.49583 0.673634L6.28954 2.97983C6.6187 3.40304 6.73502 3.95409 6.60498 4.47423L6.05772 6.66329C5.99994 6.8944 6.06766 7.13888 6.2361 7.30732L8.69268 9.7639C8.86113 9.93235 9.1056 10.0001 9.33671 9.94229L11.5258 9.39502C12.0459 9.26499 12.597 9.3813 13.0202 9.71047L15.3264 11.5042C16.1548 12.1485 16.231 13.3731 15.4889 14.1152L14.455 15.1492C13.7153 15.8889 12.6089 16.2137 11.5778 15.8512C9.01754 14.9511 6.61438 13.4774 4.56849 11.4315C2.5226 9.38562 1.04895 6.98246 0.148838 4.42225C-0.213682 3.39112 0.11113 2.28472 0.85085 1.545L1.88477 0.511076Z" fill="black"/>
<path fill-rule="evenodd" clip-rule="evenodd" d="M11.1464 1.64645C11.3417 1.45118 11.6583 1.45118 11.8536 1.64645L13 2.79289L14.1464 1.64645C14.3417 1.45118 14.6583 1.45118 14.8536 1.64645C15.0488 1.84171 15.0488 2.15829 14.8536 2.35355L13.7071 3.5L14.8536 4.64645C15.0488 4.84171 15.0488 5.15829 14.8536 5.35355C14.6583 5.54882 14.3417 5.54882 14.1464 5.35355L13 4.20711L11.8536 5.35355C11.6583 5.54882 11.3417 5.54882 11.1464 5.35355C10.9512 5.15829 10.9512 4.84171 11.1464 4.64645L12.2929 3.5L11.1464 2.35355C10.9512 2.15829 10.9512 1.84171 11.1464 1.64645Z" fill="black"/>
</svg>
