<svg width="16" height="16" viewBox="0 0 16 16" fill="none" xmlns="http://www.w3.org/2000/svg">
<path fill-rule="evenodd" clip-rule="evenodd" d="M1.88477 0.511076C2.62689 -0.231039 3.85149 -0.154797 4.49583 0.673634L6.28954 2.97983C6.6187 3.40304 6.73502 3.95409 6.60498 4.47423L6.05772 6.66329C5.99994 6.8944 6.06766 7.13888 6.2361 7.30732L8.69268 9.7639C8.86113 9.93235 9.1056 10.0001 9.33671 9.94229L11.5258 9.39502C12.0459 9.26499 12.597 9.3813 13.0202 9.71047L15.3264 11.5042C16.1548 12.1485 16.231 13.3731 15.4889 14.1152L14.455 15.1492C13.7153 15.8889 12.6089 16.2137 11.5778 15.8512C9.01754 14.9511 6.61438 13.4774 4.56849 11.4315C2.5226 9.38562 1.04895 6.98246 0.148838 4.42225C-0.213682 3.39112 0.11113 2.28472 0.85085 1.545L1.88477 0.511076Z" fill="black"/>
<path fill-rule="evenodd" clip-rule="evenodd" d="M15.8536 0.146447C16.0488 0.341709 16.0488 0.658291 15.8536 0.853553L11.7071 5H14.5C14.7761 5 15 5.22386 15 5.5C15 5.77614 14.7761 6 14.5 6H10.5C10.2239 6 10 5.77614 10 5.5V1.5C10 1.22386 10.2239 1 10.5 1C10.7761 1 11 1.22386 11 1.5V4.29289L15.1464 0.146447C15.3417 -0.0488155 15.6583 -0.0488155 15.8536 0.146447Z" fill="black"/>
</svg>
