<svg width="16" height="16" viewBox="0 0 16 16" fill="none" xmlns="http://www.w3.org/2000/svg">
<path fill-rule="evenodd" clip-rule="evenodd" d="M1.88477 0.511076C2.62689 -0.231039 3.85149 -0.154797 4.49583 0.673634L6.28954 2.97983C6.6187 3.40304 6.73502 3.95409 6.60498 4.47423L6.05772 6.66329C5.99994 6.8944 6.06766 7.13888 6.2361 7.30732L8.69268 9.7639C8.86113 9.93235 9.1056 10.0001 9.33671 9.94229L11.5258 9.39502C12.0459 9.26499 12.597 9.3813 13.0202 9.71047L15.3264 11.5042C16.1548 12.1485 16.231 13.3731 15.4889 14.1152L14.455 15.1492C13.7153 15.8889 12.6089 16.2137 11.5778 15.8512C9.01754 14.9511 6.61438 13.4774 4.56849 11.4315C2.5226 9.38562 1.04895 6.98246 0.148838 4.42225C-0.213682 3.39112 0.11113 2.28472 0.85085 1.545L1.88477 0.511076Z" fill="black"/>
<path fill-rule="evenodd" clip-rule="evenodd" d="M11 0.5C11 0.223858 11.2239 0 11.5 0H15.5C15.7761 0 16 0.223858 16 0.5V4.5C16 4.77614 15.7761 5 15.5 5C15.2239 5 15 4.77614 15 4.5V1.70711L10.8536 5.85355C10.6583 6.04882 10.3417 6.04882 10.1464 5.85355C9.95118 5.65829 9.95118 5.34171 10.1464 5.14645L14.2929 1H11.5C11.2239 1 11 0.776142 11 0.5Z" fill="black"/>
</svg>
