<svg width="16" height="16" viewBox="0 0 16 16" fill="none" xmlns="http://www.w3.org/2000/svg">
<path fill-rule="evenodd" clip-rule="evenodd" d="M1.88477 0.511076C2.62689 -0.231039 3.85149 -0.154797 4.49583 0.673634L6.28954 2.97983C6.6187 3.40304 6.73502 3.95409 6.60498 4.47423L6.05772 6.66329C5.99994 6.8944 6.06766 7.13888 6.2361 7.30732L8.69268 9.7639C8.86113 9.93235 9.1056 10.0001 9.33671 9.94229L11.5258 9.39502C12.0459 9.26499 12.597 9.3813 13.0202 9.71047L15.3264 11.5042C16.1548 12.1485 16.231 13.3731 15.4889 14.1152L14.455 15.1492C13.7153 15.8889 12.6089 16.2137 11.5778 15.8512C9.01754 14.9511 6.61438 13.4774 4.56849 11.4315C2.5226 9.38562 1.04895 6.98246 0.148838 4.42225C-0.213682 3.39112 0.11113 2.28472 0.85085 1.545L1.88477 0.511076Z" fill="black"/>
<path fill-rule="evenodd" clip-rule="evenodd" d="M12.6464 0.646447C12.8417 0.451184 13.1583 0.451184 13.3536 0.646447L15.8536 3.14645C16.0488 3.34171 16.0488 3.65829 15.8536 3.85355L13.3536 6.35355C13.1583 6.54882 12.8417 6.54882 12.6464 6.35355C12.4512 6.15829 12.4512 5.84171 12.6464 5.64645L14.2929 4H9.5C9.22386 4 9 3.77614 9 3.5C9 3.22386 9.22386 3 9.5 3H14.2929L12.6464 1.35355C12.4512 1.15829 12.4512 0.841709 12.6464 0.646447Z" fill="black"/>
</svg>
