<svg width="16" height="16" viewBox="0 0 16 16" fill="none" xmlns="http://www.w3.org/2000/svg">
<path d="M6.04832 3.32314C6.07037 3.59982 5.91863 3.84557 5.70978 3.87237C5.50063 3.89932 5.31337 3.6969 5.29117 3.42006C5.26927 3.14323 5.42085 2.89748 5.62924 2.87084C5.83886 2.84374 6.02643 3.04646 6.04832 3.32314Z" fill="black"/>
<path d="M8.31299 3.0831C7.71048 2.93657 7.41941 3.33911 7.37669 3.41567C7.35005 3.46375 7.36858 3.5328 7.41374 3.56695C7.45876 3.60094 7.50638 3.59114 7.53302 3.56251C7.8941 3.17268 8.28403 3.39094 8.36153 3.43433C8.36699 3.43738 8.37094 3.43959 8.37317 3.44063C8.42553 3.46513 8.52016 3.4685 8.56594 3.3434C8.58906 3.28032 8.58278 3.23346 8.55997 3.20054C8.5445 3.17834 8.47131 3.12169 8.31299 3.0831Z" fill="black"/>
<path d="M11.7266 6.71851C11.7272 6.69714 11.7361 6.34406 11.7361 6.16182C11.7361 3.09154 10.2867 0.00625662 6.72215 0.00610352C3.15777 0.00625639 1.70837 3.09154 1.70837 6.16182C1.70837 6.34411 1.71725 6.69732 1.71787 6.71852C1.71787 6.71851 1.71787 6.71853 1.71787 6.71852L0.998535 8.51394C0.801475 9.0278 0.606856 9.56288 0.464305 10.0216C-0.215529 12.2093 0.00480479 13.1147 0.172466 13.1351C0.532288 13.1786 1.57317 11.4882 1.57317 11.4882C1.57317 12.4669 2.0767 13.7443 3.16697 14.6667C2.75919 14.7925 2.25962 14.9859 1.9387 15.2231C1.64992 15.4362 1.68591 15.6535 1.73797 15.7412C1.96641 16.1267 5.65712 15.9874 6.72265 15.8674C7.78818 15.9874 11.4789 16.1267 11.7073 15.7412C11.7594 15.6535 11.7954 15.4362 11.5068 15.2231C11.1855 14.9858 10.6855 14.7923 10.2777 14.6665C11.3678 13.7441 11.8713 12.4668 11.8713 11.4882C11.8713 11.4882 12.9122 13.1786 13.272 13.1351C13.4396 13.1147 13.66 12.2093 12.9801 10.0216C12.8376 9.56288 12.643 9.02789 12.4459 8.51403L11.7266 6.71851ZM9.77256 5.53114C9.77838 5.54354 9.7819 5.55717 9.7819 5.57171C9.7819 5.59238 9.77501 5.61122 9.76414 5.62699C9.65527 5.78577 8.21032 6.57003 6.73092 6.57003H6.71361C5.23421 6.57003 3.78926 5.78562 3.68024 5.62699C3.66952 5.61107 3.66248 5.59254 3.66248 5.57187C3.66248 5.55732 3.66615 5.54354 3.67197 5.53114C3.8012 5.24497 5.10253 4.92603 6.71361 4.92603H6.73092C8.342 4.92603 9.64333 5.24497 9.77256 5.53114ZM5.45389 4.5422C4.97035 4.56409 4.55724 4.01318 4.53121 3.31299C4.50503 2.61233 4.87542 2.02666 5.35896 2.00476C5.84204 1.98317 6.25499 2.53378 6.28117 3.23428C6.30766 3.93494 5.93712 4.52061 5.45389 4.5422ZM7.99061 4.5422C7.50737 4.52046 7.13683 3.93494 7.16332 3.23428C7.18951 2.53378 7.60246 1.98317 8.08554 2.00476C8.56908 2.02666 8.93947 2.61233 8.91313 3.31299C8.88725 4.01318 8.47415 4.56409 7.99061 4.5422ZM2.92847 8.99018C3.14051 9.03221 3.35372 9.07134 3.56689 9.10735V11.4426C3.56689 11.4426 4.67101 11.6652 5.77727 11.511V9.36291C6.10275 9.38132 6.41668 9.38922 6.71373 9.38563H6.73073C7.84843 9.39913 9.20497 9.25008 10.5167 8.99003C10.6139 9.61191 10.668 10.3758 10.6143 11.2745C10.468 13.7237 9.01351 15.2633 6.76822 15.2856H6.67697C4.43183 15.2633 2.97723 13.7237 2.831 11.2745C2.77734 10.3759 2.83135 9.61196 2.92847 8.99018Z" fill="black"/>
</svg>
