<svg width="16" height="16" viewBox="0 0 16 16" fill="none" xmlns="http://www.w3.org/2000/svg">
<path d="M0 3C0 1.89543 0.895431 1 2 1H14C15.1046 1 16 1.89543 16 3V13C16 14.1046 15.1046 15 14 15H2C0.895431 15 0 14.1046 0 13V3ZM9.5 8.5H6.5C6.22386 8.5 6 8.72386 6 9C6 9.27614 6.22386 9.5 6.5 9.5H9.5C9.77614 9.5 10 9.27614 10 9C10 8.72386 9.77614 8.5 9.5 8.5ZM3.14645 8.14645C2.95118 8.34171 2.95118 8.65829 3.14645 8.85355C3.34171 9.04882 3.65829 9.04882 3.85355 8.85355L5.85355 6.85355C6.04882 6.65829 6.04882 6.34171 5.85355 6.14645L3.85355 4.14645C3.65829 3.95118 3.34171 3.95118 3.14645 4.14645C2.95118 4.34171 2.95118 4.65829 3.14645 4.85355L4.79289 6.5L3.14645 8.14645Z" fill="black"/>
</svg>
