<svg width="16" height="16" viewBox="0 0 16 16" fill="none" xmlns="http://www.w3.org/2000/svg">
<path d="M6 9C6 8.72386 6.22386 8.5 6.5 8.5H9.5C9.77614 8.5 10 8.72386 10 9C10 9.27614 9.77614 9.5 9.5 9.5H6.5C6.22386 9.5 6 9.27614 6 9Z" fill="black"/>
<path d="M3.85355 4.14645C3.65829 3.95118 3.34171 3.95118 3.14645 4.14645C2.95118 4.34171 2.95118 4.65829 3.14645 4.85355L4.79289 6.5L3.14645 8.14645C2.95118 8.34171 2.95118 8.65829 3.14645 8.85355C3.34171 9.04882 3.65829 9.04882 3.85355 8.85355L5.85355 6.85355C6.04882 6.65829 6.04882 6.34171 5.85355 6.14645L3.85355 4.14645Z" fill="black"/>
<path d="M2 1C0.895431 1 0 1.89543 0 3V13C0 14.1046 0.895431 15 2 15H14C15.1046 15 16 14.1046 16 13V3C16 1.89543 15.1046 1 14 1H2ZM14 2C14.5523 2 15 2.44772 15 3V13C15 13.5523 14.5523 14 14 14H2C1.44772 14 1 13.5523 1 13V3C1 2.44772 1.44772 2 2 2H14Z" fill="black"/>
</svg>
