<svg width="16" height="16" viewBox="0 0 16 16" fill="none" xmlns="http://www.w3.org/2000/svg">
<path d="M2.14645 3.14645C2.34171 2.95118 2.65829 2.95118 2.85355 3.14645L3.67678 3.96967C3.96967 4.26256 3.96967 4.73744 3.67678 5.03033L2.85355 5.85355C2.65829 6.04882 2.34171 6.04882 2.14645 5.85355C1.95118 5.65829 1.95118 5.34171 2.14645 5.14645L2.79289 4.5L2.14645 3.85355C1.95118 3.65829 1.95118 3.34171 2.14645 3.14645Z" fill="black"/>
<path d="M4 6C4 5.72386 4.22386 5.5 4.5 5.5H5.5C5.77614 5.5 6 5.72386 6 6C6 6.27614 5.77614 6.5 5.5 6.5H4.5C4.22386 6.5 4 6.27614 4 6Z" fill="black"/>
<path d="M10.3536 3.14645C10.1583 2.95118 9.84171 2.95118 9.64645 3.14645C9.45118 3.34171 9.45118 3.65829 9.64645 3.85355L10.2929 4.5L9.64645 5.14645C9.45118 5.34171 9.45118 5.65829 9.64645 5.85355C9.84171 6.04882 10.1583 6.04882 10.3536 5.85355L11.1768 5.03033C11.4697 4.73744 11.4697 4.26256 11.1768 3.96967L10.3536 3.14645Z" fill="black"/>
<path d="M12 5.5C11.7239 5.5 11.5 5.72386 11.5 6C11.5 6.27614 11.7239 6.5 12 6.5H13C13.2761 6.5 13.5 6.27614 13.5 6C13.5 5.72386 13.2761 5.5 13 5.5H12Z" fill="black"/>
<path d="M0 3C0 1.89543 0.89543 1 2 1H14C15.1046 1 16 1.89543 16 3V13C16 14.1046 15.1046 15 14 15H2C0.89543 15 0 14.1046 0 13V3ZM2 2C1.44772 2 1 2.44772 1 3V13C1 13.5523 1.44772 14 2 14H7.5V2H2ZM8.5 2V14H14C14.5523 14 15 13.5523 15 13V3C15 2.44772 14.5523 2 14 2H8.5Z" fill="black"/>
</svg>
