<svg width="16" height="16" viewBox="0 0 16 16" fill="none" xmlns="http://www.w3.org/2000/svg">
<path d="M2 3C1.44772 3 1 3.44772 1 4V12C1 12.5523 1.44772 13 2 13H7.5C7.77614 13 8 13.2239 8 13.5C8 13.7761 7.77614 14 7.5 14H2C0.895431 14 0 13.1046 0 12V4C0 2.89543 0.895431 2 2 2H13C14.1046 2 15 2.89543 15 4V8C15 8.27614 14.7761 8.5 14.5 8.5C14.2239 8.5 14 8.27614 14 8V4C14 3.44772 13.5523 3 13 3H2Z" fill="black"/>
<path d="M3.14645 5.14645C3.34171 4.95118 3.65829 4.95118 3.85355 5.14645L5.17678 6.46967C5.46967 6.76256 5.46967 7.23744 5.17678 7.53033L3.85355 8.85355C3.65829 9.04882 3.34171 9.04882 3.14645 8.85355C2.95118 8.65829 2.95118 8.34171 3.14645 8.14645L4.29289 7L3.14645 5.85355C2.95118 5.65829 2.95118 5.34171 3.14645 5.14645Z" fill="black"/>
<path d="M5.5 9C5.5 8.72386 5.72386 8.5 6 8.5H8C8.27614 8.5 8.5 8.72386 8.5 9C8.5 9.27614 8.27614 9.5 8 9.5H6C5.72386 9.5 5.5 9.27614 5.5 9Z" fill="black"/>
<path d="M16 12.5C16 14.433 14.433 16 12.5 16C10.567 16 9 14.433 9 12.5C9 10.567 10.567 9 12.5 9C14.433 9 16 10.567 16 12.5ZM10.5 12.5C10.5 12.7761 10.7239 13 11 13H14C14.2761 13 14.5 12.7761 14.5 12.5C14.5 12.2239 14.2761 12 14 12H11C10.7239 12 10.5 12.2239 10.5 12.5Z" fill="black"/>
</svg>
