<svg width="16" height="16" viewBox="0 0 16 16" fill="none" xmlns="http://www.w3.org/2000/svg">
<path fill-rule="evenodd" clip-rule="evenodd" d="M2 3.5C2 3.22386 2.22386 3 2.5 3H13.5C13.7761 3 14 3.22386 14 3.5C14 3.77614 13.7761 4 13.5 4H2.5C2.22386 4 2 3.77614 2 3.5ZM2 7.5C2 7.22386 2.22386 7 2.5 7H11.5C12.8807 7 14 8.11929 14 9.5C14 10.8807 12.8807 12 11.5 12H10.2071L10.8536 12.6464C11.0488 12.8417 11.0488 13.1583 10.8536 13.3536C10.6583 13.5488 10.3417 13.5488 10.1464 13.3536L8.64645 11.8536C8.45118 11.6583 8.45118 11.3417 8.64645 11.1464L10.1464 9.64645C10.3417 9.45118 10.6583 9.45118 10.8536 9.64645C11.0488 9.84171 11.0488 10.1583 10.8536 10.3536L10.2071 11H11.5C12.3284 11 13 10.3284 13 9.5C13 8.67157 12.3284 8 11.5 8H2.5C2.22386 8 2 7.77614 2 7.5ZM2 11.5C2 11.2239 2.22386 11 2.5 11H7C7.27614 11 7.5 11.2239 7.5 11.5C7.5 11.7761 7.27614 12 7 12H2.5C2.22386 12 2 11.7761 2 11.5Z" fill="black"/>
</svg>
