<svg width="16" height="16" viewBox="0 0 16 16" fill="none" xmlns="http://www.w3.org/2000/svg">
<path d="M1.5 2.5C1.5 1.67157 2.17157 1 3 1H13C13.8284 1 14.5 1.67157 14.5 2.5V6.06301C15.3626 6.28503 16 7.06808 16 8C16 8.93192 15.3626 9.71497 14.5 9.93699V13.5C14.5 14.3284 13.8284 15 13 15H3C2.17157 15 1.5 14.3284 1.5 13.5V9.93699C0.637386 9.71497 0 8.93192 0 8C0 7.06808 0.637386 6.28503 1.5 6.06301V2.5ZM2.5 6.06301C3.36261 6.28503 4 7.06808 4 8C4 8.93192 3.36261 9.71497 2.5 9.93699V13.5C2.5 13.7761 2.72386 14 3 14H13C13.2761 14 13.5 13.7761 13.5 13.5V9.93699C12.6374 9.71497 12 8.93192 12 8C12 7.06808 12.6374 6.28503 13.5 6.06301V2.5C13.5 2.22386 13.2761 2 13 2H3C2.72386 2 2.5 2.22386 2.5 2.5V6.06301ZM2 7C1.44772 7 1 7.44772 1 8C1 8.55228 1.44772 9 2 9C2.55228 9 3 8.55228 3 8C3 7.44772 2.55228 7 2 7ZM14 7C13.4477 7 13 7.44772 13 8C13 8.55228 13.4477 9 14 9C14.5523 9 15 8.55228 15 8C15 7.44772 14.5523 7 14 7Z" fill="black"/>
</svg>
