<svg width="16" height="16" viewBox="0 0 16 16" fill="none" xmlns="http://www.w3.org/2000/svg">
<path d="M0 4.5C0 3.11929 1.11929 2 2.5 2H13.5C14.8807 2 16 3.11929 16 4.5V11.5C16 12.8807 14.8807 14 13.5 14H2.5C1.11929 14 0 12.8807 0 11.5V4.5ZM2.5 3C1.67157 3 1 3.67157 1 4.5V11.5C1 12.3284 1.67157 13 2.5 13H13.5C14.3284 13 15 12.3284 15 11.5V4.5C15 3.67157 14.3284 3 13.5 3H2.5ZM13.3536 7.64645C13.5488 7.84171 13.5488 8.15829 13.3536 8.35355L10.3536 11.3536C10.1583 11.5488 9.84171 11.5488 9.64645 11.3536C9.45118 11.1583 9.45118 10.8417 9.64645 10.6464L12.6464 7.64645C12.8417 7.45118 13.1583 7.45118 13.3536 7.64645ZM13.3536 10.1464C13.5488 10.3417 13.5488 10.6583 13.3536 10.8536L12.8536 11.3536C12.6583 11.5488 12.3417 11.5488 12.1464 11.3536C11.9512 11.1583 11.9512 10.8417 12.1464 10.6464L12.6464 10.1464C12.8417 9.95118 13.1583 9.95118 13.3536 10.1464Z" fill="black"/>
</svg>
