<svg width="16" height="16" viewBox="0 0 16 16" fill="none" xmlns="http://www.w3.org/2000/svg">
<path d="M9.5 12.5C9.5 13.3284 8.82843 14 8 14C7.17157 14 6.5 13.3284 6.5 12.5C6.5 11.8469 6.9174 11.2913 7.5 11.0854V2.5C7.5 2.22386 7.72386 2 8 2C8.27614 2 8.5 2.22386 8.5 2.5V11.0854C9.0826 11.2913 9.5 11.8469 9.5 12.5Z" fill="black"/>
<path d="M5.5 2.5C5.5 1.11929 6.61929 0 8 0C9.38071 0 10.5 1.11929 10.5 2.5V10.0505C11.118 10.6813 11.5 11.5463 11.5 12.5C11.5 14.433 9.933 16 8 16C6.067 16 4.5 14.433 4.5 12.5C4.5 11.5463 4.88196 10.6813 5.5 10.0505V2.5ZM8 1C7.17157 1 6.5 1.67157 6.5 2.5V10.4874L6.33346 10.6365C5.8212 11.0949 5.5 11.7596 5.5 12.5C5.5 13.8807 6.61929 15 8 15C9.38071 15 10.5 13.8807 10.5 12.5C10.5 11.7596 10.1788 11.0949 9.66654 10.6365L9.5 10.4874V2.5C9.5 1.67157 8.82843 1 8 1Z" fill="black"/>
</svg>
