<svg width="16" height="16" viewBox="0 0 16 16" fill="none" xmlns="http://www.w3.org/2000/svg">
<path d="M5 12.5C5 13.3284 4.32843 14 3.5 14C2.67157 14 2 13.3284 2 12.5C2 11.8469 2.4174 11.2913 3 11.0854V2.5C3 2.22386 3.22386 2 3.5 2C3.77614 2 4 2.22386 4 2.5V11.0854C4.5826 11.2913 5 11.8469 5 12.5Z" fill="black"/>
<path d="M1 2.5C1 1.11929 2.11929 0 3.5 0C4.88071 0 6 1.11929 6 2.5V10.0505C6.61804 10.6813 7 11.5463 7 12.5C7 14.433 5.433 16 3.5 16C1.567 16 0 14.433 0 12.5C0 11.5463 0.381961 10.6813 1 10.0505V2.5ZM3.5 1C2.67157 1 2 1.67157 2 2.5V10.4874L1.83346 10.6365C1.3212 11.0949 1 11.7596 1 12.5C1 13.8807 2.11929 15 3.5 15C4.88071 15 6 13.8807 6 12.5C6 11.7596 5.6788 11.0949 5.16654 10.6365L5 10.4874V2.5C5 1.67157 4.32843 1 3.5 1Z" fill="black"/>
<path d="M8.5 2C8.77614 2 9 2.22386 9 2.5V3.5C9 3.77614 8.77614 4 8.5 4C8.22386 4 8 3.77614 8 3.5V2.5C8 2.22386 8.22386 2 8.5 2ZM12.7426 3.75735C12.9379 3.95261 12.9379 4.26919 12.7426 4.46445L12.0355 5.17156C11.8403 5.36682 11.5237 5.36682 11.3284 5.17156C11.1332 4.9763 11.1332 4.65971 11.3284 4.46445L12.0355 3.75735C12.2308 3.56208 12.5474 3.56208 12.7426 3.75735ZM8.00001 5.49999C8.00001 5.22385 8.22387 4.99999 8.50001 4.99999C10.1569 4.99999 11.5 6.34313 11.5 7.99999C11.5 9.65684 10.1569 11 8.50001 11C8.22387 11 8.00001 10.7761 8.00001 10.5C8.00001 10.2238 8.22387 9.99999 8.50001 9.99999C9.60458 9.99999 10.5 9.10456 10.5 7.99999C10.5 6.89542 9.60458 5.99999 8.50001 5.99999C8.22387 5.99999 8.00001 5.77613 8.00001 5.49999ZM12.5 7.99999C12.5 7.72385 12.7239 7.49999 13 7.49999H14C14.2762 7.49999 14.5 7.72385 14.5 7.99999C14.5 8.27613 14.2762 8.49999 14 8.49999H13C12.7239 8.49999 12.5 8.27613 12.5 7.99999ZM11.3284 10.8284C11.5237 10.6332 11.8403 10.6332 12.0355 10.8284L12.7427 11.5355C12.9379 11.7308 12.9379 12.0474 12.7427 12.2426C12.5474 12.4379 12.2308 12.4379 12.0355 12.2426L11.3284 11.5355C11.1332 11.3403 11.1332 11.0237 11.3284 10.8284ZM8.5 12C8.77614 12 9 12.2239 9 12.5V13.5C9 13.7761 8.77614 14 8.5 14C8.22386 14 8 13.7761 8 13.5V12.5C8 12.2239 8.22386 12 8.5 12Z" fill="black"/>
</svg>
