<svg width="16" height="16" viewBox="0 0 16 16" fill="none" xmlns="http://www.w3.org/2000/svg">
<path d="M5 12.5C5 13.3284 4.32843 14 3.5 14C2.67157 14 2 13.3284 2 12.5C2 11.8469 2.4174 11.2913 3 11.0854V9.5C3 9.22386 3.22386 9 3.5 9C3.77614 9 4 9.22386 4 9.5V11.0854C4.5826 11.2913 5 11.8469 5 12.5Z" fill="black"/>
<path d="M1 2.5C1 1.11929 2.11929 0 3.5 0C4.88071 0 6 1.11929 6 2.5V10.0505C6.61804 10.6813 7 11.5463 7 12.5C7 14.433 5.433 16 3.5 16C1.567 16 0 14.433 0 12.5C0 11.5463 0.381961 10.6813 1 10.0505V2.5ZM3.5 1C2.67157 1 2 1.67157 2 2.5V10.4874L1.83346 10.6365C1.3212 11.0949 1 11.7596 1 12.5C1 13.8807 2.11929 15 3.5 15C4.88071 15 6 13.8807 6 12.5C6 11.7596 5.6788 11.0949 5.16654 10.6365L5 10.4874V2.5C5 1.67157 4.32843 1 3.5 1Z" fill="black"/>
<path d="M8.5 2C8.77614 2 9 2.22386 9 2.5V3.79289L9.64645 3.14645C9.84171 2.95118 10.1583 2.95118 10.3536 3.14645C10.5488 3.34171 10.5488 3.65829 10.3536 3.85355L9 5.20711V7.134L10.6688 6.17054L11.1642 4.32155C11.2357 4.05482 11.5098 3.89652 11.7766 3.968C12.0433 4.03947 12.2016 4.31363 12.1301 4.58037L11.8935 5.46343L13.0132 4.81698C13.2523 4.67891 13.5581 4.76085 13.6962 5C13.8343 5.23914 13.7523 5.54494 13.5132 5.68301L12.3935 6.32946L13.2766 6.56607C13.5433 6.63754 13.7016 6.91171 13.6301 7.17844C13.5587 7.44518 13.2845 7.60347 13.0177 7.532L11.1688 7.03656L9.50003 8L11.1687 8.96343L13.0177 8.46799C13.2845 8.39652 13.5586 8.55482 13.6301 8.82155C13.7016 9.08828 13.5433 9.36245 13.2765 9.43392L12.3935 9.67054L13.5132 10.317C13.7523 10.4551 13.8342 10.7608 13.6962 11C13.5581 11.2391 13.2523 11.3211 13.0132 11.183L11.8935 10.5366L12.1301 11.4196C12.2016 11.6864 12.0433 11.9605 11.7765 12.032C11.5098 12.1035 11.2356 11.9452 11.1642 11.6784L10.6687 9.82945L9 8.86601V10.7929L10.3536 12.1464C10.5488 12.3417 10.5488 12.6583 10.3536 12.8536C10.1583 13.0488 9.84171 13.0488 9.64645 12.8536L9 12.2071V13.5C9 13.7761 8.77614 14 8.5 14C8.22386 14 8 13.7761 8 13.5V2.5C8 2.22386 8.22386 2 8.5 2Z" fill="black"/>
</svg>
