<svg width="16" height="16" viewBox="0 0 16 16" fill="none" xmlns="http://www.w3.org/2000/svg">
<path d="M8 14C8.82843 14 9.5 13.3284 9.5 12.5C9.5 11.6716 8.82843 11 8 11C7.17157 11 6.5 11.6716 6.5 12.5C6.5 13.3284 7.17157 14 8 14Z" fill="black"/>
<path d="M8 0C6.61929 0 5.5 1.11929 5.5 2.5V10.0505C4.88196 10.6813 4.5 11.5463 4.5 12.5C4.5 14.433 6.067 16 8 16C9.933 16 11.5 14.433 11.5 12.5C11.5 11.5463 11.118 10.6813 10.5 10.0505V2.5C10.5 1.11929 9.38071 0 8 0ZM6.5 2.5C6.5 1.67157 7.17157 1 8 1C8.82843 1 9.5 1.67157 9.5 2.5V10.4874L9.66654 10.6365C10.1788 11.0949 10.5 11.7596 10.5 12.5C10.5 13.8807 9.38071 15 8 15C6.61929 15 5.5 13.8807 5.5 12.5C5.5 11.7596 5.8212 11.0949 6.33346 10.6365L6.5 10.4874V2.5Z" fill="black"/>
</svg>
