<svg width="16" height="16" viewBox="0 0 16 16" fill="none" xmlns="http://www.w3.org/2000/svg">
<path d="M6.80912 9.20437C6.80912 8.79459 7.00708 8.14221 8.53725 8.14221C9.00599 8.14221 9.29512 8.17593 9.68305 8.263C9.55946 9.86877 8.77357 10.0809 8.00857 10.0809C7.59127 10.0809 6.80912 9.86267 6.80912 9.20437Z" fill="black"/>
<path d="M2.59 16H13.41C14.8403 16 16 14.8403 16 13.41V2.59C16 1.15967 14.8403 0 13.41 0H2.59C1.15967 0 0 1.15967 0 2.59V13.41C0 14.8403 1.15967 16 2.59 16ZM5.8662 5.9105C6.43324 5.0994 7.18127 4.78363 8.21519 4.78363C8.9464 4.78363 9.56727 5.0296 10.0105 5.49512C10.454 5.96081 10.707 6.62673 10.7645 7.47832C11.0103 7.58115 11.2373 7.70227 11.4434 7.84085C12.2746 8.39988 12.7324 9.23571 12.7324 10.194C12.7324 12.2308 11.0628 14 8.04066 14C5.44584 14 2.75 12.4904 2.75 7.99551C2.75 3.52615 5.36129 2 8.03336 2C9.26728 2 12.1616 2.18228 13.25 5.77667L12.2293 6.04145C11.3878 3.48058 9.62329 3.073 8.00552 3.073C5.33124 3.073 3.81856 4.70147 3.81856 8.1661C3.81856 11.2726 5.50933 12.9229 8.041 12.9229C10.1238 12.9229 11.6767 11.8405 11.6767 10.2559C11.6767 9.17744 10.7706 8.6611 10.7243 8.6611C10.5474 9.58637 10.073 11.1428 7.99075 11.1428C6.77754 11.1428 5.73157 10.3048 5.73157 9.20674C5.73157 7.63875 7.21896 7.07125 8.39362 7.07125C8.8335 7.07125 9.36439 7.10089 9.64078 7.15714C9.64078 6.67925 9.23655 5.86137 8.21536 5.86137C7.30351 5.86121 7.05442 6.14929 6.76447 6.48464C6.75669 6.49363 6.74889 6.50265 6.74104 6.51171C6.53867 6.37737 5.8662 5.9105 5.8662 5.9105Z" fill="black"/>
</svg>
