<svg width="16" height="16" viewBox="0 0 16 16" fill="none" xmlns="http://www.w3.org/2000/svg">
<path d="M6.32139 6.01561C6.05156 5.8365 5.15493 5.214 5.15493 5.214C5.91099 4.13253 6.90835 3.71151 8.28692 3.71151C9.26187 3.71151 10.0897 4.03947 10.6807 4.66016C11.272 5.28108 11.6093 6.16898 11.686 7.30443C12.0138 7.44154 12.3164 7.60303 12.5912 7.78779C13.6995 8.53317 14.3098 9.64761 14.3098 10.9254C14.3098 13.641 12.0837 16 8.05421 16C4.59445 16 1 13.9873 1 7.99401C1 2.03487 4.48172 0 8.04448 0C9.6897 0 13.5488 0.243037 15 5.03556L13.6391 5.3886C12.517 1.97411 10.1644 1.43066 8.00736 1.43066C4.44165 1.43066 2.42474 3.60196 2.42474 8.22147C2.42474 12.3635 4.67911 14.5639 8.05467 14.5639C10.8317 14.5639 12.9023 13.1206 12.9023 11.0078C12.9023 9.56991 11.6942 8.88146 11.6324 8.88146C11.3965 10.1152 10.764 12.1905 7.98766 12.1905C6.37006 12.1905 4.97542 11.0731 4.97542 9.60899C4.97542 7.51833 6.95861 6.76166 8.52483 6.76166C9.11134 6.76166 9.81918 6.80119 10.1877 6.87618C10.1877 6.239 9.64873 5.1485 8.28714 5.1485C7.03874 5.14827 6.72206 5.55326 6.32139 6.01561ZM8.71633 8.18962C6.6761 8.18962 6.41216 9.05945 6.41216 9.60583C6.41216 10.4836 7.45503 10.7745 8.01143 10.7745C9.03143 10.7745 10.0793 10.4917 10.2441 8.35067C9.72682 8.23457 9.34133 8.18962 8.71633 8.18962Z" fill="black"/>
</svg>
