<svg width="16" height="16" viewBox="0 0 16 16" fill="none" xmlns="http://www.w3.org/2000/svg">
<path d="M1 3C0.447715 3 0 3.44772 0 4V11.2929C0 11.5581 0.105357 11.8125 0.292893 12L2 13.7071C2.18754 13.8946 2.44189 14 2.70711 14H13.2929C13.5581 14 13.8125 13.8946 14 13.7071L15.7071 12C15.8946 11.8125 16 11.5581 16 11.2929V4C16 3.44771 15.5523 3 15 3H1ZM3.5 6H12.5C12.7761 6 13 6.22386 13 6.5V7.5C13 7.77614 12.7761 8 12.5 8H3.5C3.22386 8 3 7.77614 3 7.5V6.5C3 6.22386 3.22386 6 3.5 6Z" fill="black"/>
</svg>
