<svg width="16" height="16" viewBox="0 0 16 16" fill="none" xmlns="http://www.w3.org/2000/svg">
<path d="M3.5 7C3.22386 7 3 7.22386 3 7.5V8.5C3 8.77614 3.22386 9 3.5 9H12.5C12.7761 9 13 8.77614 13 8.5V7.5C13 7.22386 12.7761 7 12.5 7H3.5Z" fill="black"/>
<path d="M1 3C0.447715 3 0 3.44772 0 4V11.2929C0 11.5581 0.105357 11.8125 0.292893 12L2 13.7071C2.18754 13.8946 2.44189 14 2.70711 14H13.2929C13.5581 14 13.8125 13.8946 14 13.7071L15.7071 12C15.8946 11.8125 16 11.5581 16 11.2929V4C16 3.44771 15.5523 3 15 3H1ZM1 4H15V11.2929L13.2929 13H2.70711L1 11.2929V4Z" fill="black"/>
</svg>
