<svg width="16" height="16" viewBox="0 0 16 16" fill="none" xmlns="http://www.w3.org/2000/svg">
<path d="M0 4.5C0 3.67157 0.671573 3 1.5 3H14.5C15.3284 3 16 3.67157 16 4.5V6C16 6.27614 15.7761 6.5 15.5 6.5C14.6716 6.5 14 7.17157 14 8C14 8.82843 14.6716 9.5 15.5 9.5C15.7761 9.5 16 9.72386 16 10V11.5C16 12.3284 15.3284 13 14.5 13H1.5C0.671573 13 0 12.3284 0 11.5V10C0 9.72386 0.223858 9.5 0.5 9.5C1.32843 9.5 2 8.82843 2 8C2 7.17157 1.32843 6.5 0.5 6.5C0.223858 6.5 0 6.27614 0 6V4.5ZM4 5.5C4 5.77614 4.22386 6 4.5 6H11.5C11.7761 6 12 5.77614 12 5.5C12 5.22386 11.7761 5 11.5 5H4.5C4.22386 5 4 5.22386 4 5.5ZM4 10.5C4 10.7761 4.22386 11 4.5 11H11.5C11.7761 11 12 10.7761 12 10.5C12 10.2239 11.7761 10 11.5 10H4.5C4.22386 10 4 10.2239 4 10.5ZM4 8C4 8.55228 4.44772 9 5 9H11C11.5523 9 12 8.55228 12 8C12 7.44772 11.5523 7 11 7H5C4.44772 7 4 7.44772 4 8Z" fill="black"/>
</svg>
