<svg width="16" height="16" viewBox="0 0 16 16" fill="none" xmlns="http://www.w3.org/2000/svg">
<path d="M1.5 3C0.671573 3 0 3.67157 0 4.5V6C0 6.27614 0.223858 6.5 0.5 6.5C1.32843 6.5 2 7.17157 2 8C2 8.82843 1.32843 9.5 0.5 9.5C0.223858 9.5 0 9.72386 0 10V11.5C0 12.3284 0.671573 13 1.5 13H14.5C15.3284 13 16 12.3284 16 11.5V10C16 9.72386 15.7761 9.5 15.5 9.5C14.6716 9.5 14 8.82843 14 8C14 7.17157 14.6716 6.5 15.5 6.5C15.7761 6.5 16 6.27614 16 6V4.5C16 3.67157 15.3284 3 14.5 3H1.5Z" fill="black"/>
</svg>
