<svg width="16" height="16" viewBox="0 0 16 16" fill="none" xmlns="http://www.w3.org/2000/svg">
<path d="M4 4.85V5.75H5V4.85H4Z" fill="black"/>
<path d="M11 4.85V5.75H12V4.85H11Z" fill="black"/>
<path d="M4 6.65V7.55H5V6.65H4Z" fill="black"/>
<path d="M11 6.65V7.55H12V6.65H11Z" fill="black"/>
<path d="M4 8.45V9.35H5V8.45H4Z" fill="black"/>
<path d="M11 8.45V9.35H12V8.45H11Z" fill="black"/>
<path d="M4 10.25V11.15H5V10.25H4Z" fill="black"/>
<path d="M11 10.25V11.15H12V10.25H11Z" fill="black"/>
<path d="M1.5 3C0.671573 3 0 3.67157 0 4.5V6C0 6.27614 0.223858 6.5 0.5 6.5C1.32843 6.5 2 7.17157 2 8C2 8.82843 1.32843 9.5 0.5 9.5C0.223858 9.5 0 9.72386 0 10V11.5C0 12.3284 0.671573 13 1.5 13H14.5C15.3284 13 16 12.3284 16 11.5V10C16 9.72386 15.7761 9.5 15.5 9.5C14.6716 9.5 14 8.82843 14 8C14 7.17157 14.6716 6.5 15.5 6.5C15.7761 6.5 16 6.27614 16 6V4.5C16 3.67157 15.3284 3 14.5 3H1.5ZM1 4.5C1 4.22386 1.22386 4 1.5 4H14.5C14.7761 4 15 4.22386 15 4.5V5.55001C13.8589 5.78164 13 6.79052 13 8C13 9.20948 13.8589 10.2184 15 10.45V11.5C15 11.7761 14.7761 12 14.5 12H1.5C1.22386 12 1 11.7761 1 11.5V10.45C2.14112 10.2184 3 9.20948 3 8C3 6.79052 2.14112 5.78164 1 5.55001V4.5Z" fill="black"/>
</svg>
