<svg width="16" height="16" viewBox="0 0 16 16" fill="none" xmlns="http://www.w3.org/2000/svg">
<path d="M0 4.5C0 3.67157 0.671573 3 1.5 3H14.5C15.3284 3 16 3.67157 16 4.5V6C16 6.27614 15.7761 6.5 15.5 6.5C14.6716 6.5 14 7.17157 14 8C14 8.82843 14.6716 9.5 15.5 9.5C15.7761 9.5 16 9.72386 16 10V11.5C16 12.3284 15.3284 13 14.5 13H1.5C0.671573 13 0 12.3284 0 11.5V10C0 9.72386 0.223858 9.5 0.5 9.5C1.32843 9.5 2 8.82843 2 8C2 7.17157 1.32843 6.5 0.5 6.5C0.223858 6.5 0 6.27614 0 6V4.5ZM1.5 4C1.22386 4 1 4.22386 1 4.5V5.55001C2.14112 5.78164 3 6.79052 3 8C3 9.20948 2.14112 10.2184 1 10.45V11.5C1 11.7761 1.22386 12 1.5 12H14.5C14.7761 12 15 11.7761 15 11.5V10.45C13.8589 10.2184 13 9.20948 13 8C13 6.79052 13.8589 5.78164 15 5.55001V4.5C15 4.22386 14.7761 4 14.5 4H1.5Z" fill="black"/>
</svg>
