<svg width="16" height="16" viewBox="0 0 16 16" fill="none" xmlns="http://www.w3.org/2000/svg">
<path d="M9.46487 10H12C13.1046 10 14 10.8954 14 12C14 13.1046 13.1046 14 12 14H9.46487C9.80521 13.4117 10 12.7286 10 12C10 11.2714 9.80521 10.5883 9.46487 10Z" fill="black"/>
<path d="M6 15C7.65685 15 9 13.6569 9 12C9 10.3431 7.65685 9 6 9C4.34315 9 3 10.3431 3 12C3 13.6569 4.34315 15 6 15ZM6 16C3.79086 16 2 14.2091 2 12C2 9.79086 3.79086 8 6 8C8.20914 8 10 9.79086 10 12C10 14.2091 8.20914 16 6 16Z" fill="black"/>
<path d="M6.53513 6C6.35609 5.69049 6.21733 5.35477 6.12602 5H4C3.44772 5 3 4.55228 3 4C3 3.44772 3.44772 3 4 3H6.12602C6.21733 2.64523 6.35609 2.30951 6.53513 2H4C2.89543 2 2 2.89543 2 4C2 5.10457 2.89543 6 4 6H6.53513Z" fill="black"/>
<path d="M14 4C14 6.20914 12.2091 8 10 8C7.79086 8 6 6.20914 6 4C6 1.79086 7.79086 0 10 0C12.2091 0 14 1.79086 14 4Z" fill="black"/>
</svg>
