<svg width="16" height="16" viewBox="0 0 16 16" fill="none" xmlns="http://www.w3.org/2000/svg">
<path d="M4.5 9C2.567 9 1 10.567 1 12.5C1 14.433 2.567 16 4.5 16H11.5C13.433 16 15 14.433 15 12.5C15 10.567 13.433 9 11.5 9H4.5ZM11.5 15C10.1193 15 9 13.8807 9 12.5C9 11.1193 10.1193 10 11.5 10C12.8807 10 14 11.1193 14 12.5C14 13.8807 12.8807 15 11.5 15Z" fill="black"/>
<path d="M4.5 1C3.11929 1 2 2.11929 2 3.5C2 4.88071 3.11929 6 4.5 6C5.88071 6 7 4.88071 7 3.5C7 2.11929 5.88071 1 4.5 1ZM6.94949 1C7.59777 1.63526 8 2.52066 8 3.5C8 4.47934 7.59777 5.36474 6.94949 6H11.5C12.8807 6 14 4.88071 14 3.5C14 2.11929 12.8807 1 11.5 1H6.94949ZM4.5 0H11.5C13.433 0 15 1.567 15 3.5C15 5.433 13.433 7 11.5 7H4.5C2.567 7 1 5.433 1 3.5C1 1.567 2.567 0 4.5 0Z" fill="black"/>
</svg>
