<svg width="16" height="16" viewBox="0 0 16 16" fill="none" xmlns="http://www.w3.org/2000/svg">
<path d="M9.00037 11C9.62806 10.1643 10 9.12561 10 8C10 6.87439 9.62806 5.83566 9.00037 5H13C14.6569 5 16 6.34315 16 8C16 9.65685 14.6569 11 13 11H9.00037Z" fill="black"/>
<path d="M5 12C2.79086 12 1 10.2091 1 8C1 5.79086 2.79086 4 5 4C7.20914 4 9 5.79086 9 8C9 10.2091 7.20914 12 5 12ZM5 13C7.76142 13 10 10.7614 10 8C10 5.23858 7.76142 3 5 3C2.23858 3 0 5.23858 0 8C0 10.7614 2.23858 13 5 13Z" fill="black"/>
</svg>
