<svg width="16" height="16" viewBox="0 0 16 16" fill="none" xmlns="http://www.w3.org/2000/svg">
<path d="M1.12464 2.45049C1.05016 2.32177 1 2.1708 1 2C1 1.73977 1.11645 1.52554 1.25795 1.36597C1.39669 1.20951 1.57835 1.0825 1.77133 0.977211C2.15778 0.766364 2.68392 0.592326 3.29138 0.452144C4.5143 0.169932 6.1788 0 8 0C9.8212 0 11.4857 0.169932 12.7086 0.452144C13.3161 0.592326 13.8422 0.766364 14.2287 0.977211C14.4216 1.0825 14.6033 1.20951 14.742 1.36597C14.8835 1.52554 15 1.73977 15 2C15 3.01113 14.6507 3.61217 14.366 4.10216C14.3255 4.17184 14.2863 4.23927 14.2496 4.30532C14.1053 4.56506 13.9934 4.80742 13.9371 5.11376C13.8945 5.34557 13.8808 5.63171 13.9259 6.00548C14.0773 5.98294 14.237 6.02992 14.3536 6.14645C14.5488 6.34171 14.5488 6.65829 14.3536 6.85355C14.2932 6.91389 14.2214 6.97967 14.1387 7.04907C14.343 8.16534 14.2268 9.03959 13.8387 9.76049C13.3864 10.6004 12.6079 11.1433 11.8197 11.6162C11.615 11.7391 11.4072 11.859 11.1985 11.9795C9.75533 12.8123 8.27093 13.669 7.46423 15.6857C7.40774 15.8269 7.29003 15.9348 7.14441 15.9787C6.99879 16.0226 6.84108 15.9979 6.71591 15.9115L6.71471 15.9106L6.71322 15.9096L6.7094 15.9069L6.69847 15.8991C6.68975 15.8928 6.67821 15.8843 6.66415 15.8737C6.63605 15.8524 6.59775 15.8223 6.55164 15.7836C6.45958 15.7063 6.33539 15.5936 6.19852 15.446C5.92599 15.152 5.595 14.7109 5.37309 14.1271C5.22687 13.7424 5.13302 13.3094 5.12594 12.8318C5.04759 12.7435 5 12.6273 5 12.5L5 12.498L5.00002 12.496L5.00007 12.4916L5.0003 12.4822C5.00052 12.4756 5.00087 12.4682 5.00143 12.4601C5.00254 12.4441 5.00446 12.425 5.00777 12.4035C5.01428 12.3611 5.02676 12.3056 5.05139 12.244C5.08041 12.1714 5.12665 12.0908 5.1963 12.0169C5.2866 11.5284 5.46819 11.0029 5.7688 10.4433C5.65785 10.3855 5.56835 10.2862 5.52566 10.1581C5.43833 9.89614 5.57991 9.61298 5.84189 9.52566C6.06357 9.45176 6.26835 9.40593 6.45892 9.38075C6.50758 9.31675 6.55778 9.25238 6.60957 9.18765C6.89394 8.83218 7.01303 8.54931 7.04637 8.32695C7.07834 8.11376 7.03784 7.91567 6.92431 7.70819C6.67507 7.25267 6.10873 6.80453 5.31103 6.27788C5.11828 6.15062 4.91338 6.0196 4.70198 5.88442C4.66263 5.85926 4.62305 5.83395 4.58328 5.80849C4.10855 5.70469 3.6874 5.58951 3.34189 5.47434C3.07991 5.38702 2.93833 5.10386 3.02566 4.84189C3.03437 4.81574 3.04504 4.79079 3.05744 4.76715C2.97957 4.70767 2.9028 4.64747 2.82744 4.58653C2.11621 4.01145 1.46291 3.32098 1.12464 2.45049ZM3.09788 3.50135C3.21113 3.60512 3.33079 3.70753 3.45619 3.80893C3.92755 4.19006 4.44557 4.53145 4.97094 4.86874C6.51157 5.18638 8.60328 5.36944 10.4019 5.00971C10.6727 4.95555 10.9361 5.13116 10.9903 5.40194C11.0444 5.67272 10.8688 5.93613 10.5981 5.99029C9.38173 6.23356 8.0606 6.2506 6.83907 6.14691C7.23794 6.4733 7.58329 6.82924 7.80158 7.22819C8.00537 7.60063 8.1039 8.01782 8.03532 8.47523C7.98586 8.8051 7.8531 9.13215 7.6443 9.45955C7.71992 9.47709 7.79319 9.49541 7.86457 9.51325L7.87127 9.51493C8.35235 9.6352 8.73389 9.72832 9.34189 9.52566C9.60386 9.43833 9.88702 9.57991 9.97434 9.84189C10.0617 10.1039 9.92009 10.387 9.65811 10.4743C8.76995 10.7704 8.15297 10.6161 7.63543 10.4867L7.62873 10.4851C7.40365 10.4288 7.20036 10.3785 6.98547 10.3616C6.61471 10.9122 6.38653 11.4112 6.25933 11.8589C6.40093 11.9041 6.55501 11.9685 6.72361 12.0528C6.9706 12.1763 7.07071 12.4766 6.94721 12.7236C6.82372 12.9706 6.52338 13.0707 6.27639 12.9472C6.22188 12.92 6.17245 12.8969 6.12779 12.8775C6.14005 13.2215 6.21197 13.5195 6.30784 13.7718C6.44813 14.1408 6.64957 14.4381 6.8364 14.6585C7.82835 12.755 9.41937 11.8438 10.7208 11.0986C10.9238 10.9823 11.1197 10.8701 11.3053 10.7588C12.0796 10.2942 12.6449 9.86832 12.9582 9.28639C13.1698 8.89335 13.2882 8.38516 13.2178 7.66851C12.4175 8.10661 11.3069 8.5 10 8.5C9.72386 8.5 9.5 8.27614 9.5 8C9.5 7.72386 9.72386 7.5 10 7.5C11.2885 7.5 12.3496 7.04624 13.0167 6.62812C13.0141 6.61817 13.0117 6.60815 13.0097 6.59806C12.8751 5.9251 12.8694 5.39104 12.9535 4.93311C13.0379 4.47383 13.2072 4.12244 13.3754 3.81968C13.4199 3.73966 13.4637 3.66353 13.5062 3.58963C13.5706 3.47762 13.6321 3.37073 13.6885 3.26319C13.3983 3.37031 13.0677 3.465 12.7086 3.54786C11.4857 3.83007 9.8212 4 8 4C6.1788 4 4.5143 3.83007 3.29138 3.54786C3.22591 3.53275 3.16139 3.51725 3.09788 3.50135ZM13.9645 2C13.9232 1.96242 13.8552 1.91258 13.7497 1.85505C13.4783 1.70699 13.0526 1.5578 12.4838 1.42654C11.3541 1.16585 9.76865 1 8 1C6.23135 1 4.64585 1.16585 3.51624 1.42654C2.94742 1.5578 2.52166 1.70699 2.25028 1.85505C2.14483 1.91258 2.07681 1.96242 2.03553 2C2.07681 2.03758 2.14483 2.08741 2.25028 2.14495C2.52166 2.29301 2.94742 2.4422 3.51624 2.57346C4.64585 2.83415 6.23135 3 8 3C9.76865 3 11.3541 2.83415 12.4838 2.57346C13.0526 2.4422 13.4783 2.29301 13.7497 2.14495C13.8552 2.08741 13.9232 2.03758 13.9645 2Z" fill="black"/>
</svg>
