<svg width="16" height="16" viewBox="0 0 16 16" fill="none" xmlns="http://www.w3.org/2000/svg">
<path d="M6.5 0C6.22386 0 6 0.223858 6 0.5C6 0.776142 6.22386 1 6.5 1H7.5V2.01097C5.97503 2.07489 4.15428 2.40529 2.91229 2.66564C1.77488 2.90406 1 3.91469 1 5.055V13.5C1 14.8807 2.11929 16 3.5 16H12.5C13.8807 16 15 14.8807 15 13.5V5.05499C15 3.91469 14.2251 2.90406 13.0877 2.66564C11.8457 2.40529 10.025 2.07489 8.5 2.01097V1H9.5C9.77614 1 10 0.776142 10 0.5C10 0.223858 9.77614 0 9.5 0H6.5ZM8.00001 4C9.13569 4 10.6449 4.19942 11.6039 4.34583C12.4287 4.47174 12.9603 5.24538 12.8482 6.04336C12.8258 6.20331 12.802 6.37829 12.7777 6.56451C12.6435 7.59613 12.5 8.94896 12.5 10C12.5 10.4277 12.5238 10.933 12.5618 11.4644C12.6282 12.3939 12.7363 13.3848 12.8283 14.1458C12.8695 14.4863 12.9073 14.7799 12.9365 15H11.9278C11.9012 14.7964 11.8695 14.5469 11.8356 14.2658C11.7577 13.6214 11.6675 12.8077 11.6003 12H9.35356C8.99458 12 8.6503 11.8574 8.39646 11.6036C8.33015 11.5372 8.24023 11.5 8.14646 11.5H7.85356C7.7598 11.5 7.66987 11.5372 7.60356 11.6036C7.34972 11.8574 7.00544 12 6.64646 12H4.3997C4.33251 12.8077 4.24237 13.6214 4.16447 14.2658C4.1305 14.5469 4.09877 14.7964 4.07218 15H3.06356C3.09273 14.7799 3.13054 14.4863 3.1717 14.1458C3.26368 13.3848 3.37185 12.3939 3.43823 11.4644C3.47617 10.933 3.50001 10.4277 3.50001 10C3.50001 8.94896 3.35652 7.59613 3.2223 6.56451C3.19807 6.37829 3.17425 6.20331 3.15178 6.04336C3.03969 5.24538 3.57135 4.47173 4.39613 4.34583C5.35514 4.19942 6.86433 4 8.00001 4ZM6.64646 11H4.46953C4.48864 10.6468 4.50001 10.3077 4.50001 10C4.50001 9.07286 4.39647 7.9488 4.28414 7H11.7159C11.6036 7.9488 11.5 9.07286 11.5 10C11.5 10.3077 11.5114 10.6468 11.5305 11H9.35356C9.2598 11 9.16987 10.9628 9.10356 10.8964C8.84972 10.6426 8.50544 10.5 8.14646 10.5H7.85356C7.49458 10.5 7.1503 10.6426 6.89646 10.8964C6.83015 10.9628 6.74023 11 6.64646 11ZM11.8446 6H4.15542L4.14206 5.90426C4.10215 5.62013 4.29159 5.37337 4.54704 5.33437C5.5046 5.18819 6.94746 5 8.00001 5C9.05256 5 10.4954 5.18819 11.453 5.33437C11.7084 5.37337 11.8979 5.62013 11.858 5.90426L11.8446 6ZM6.00001 13.5C6.00001 13.7761 5.77615 14 5.50001 14C5.22387 14 5.00001 13.7761 5.00001 13.5C5.00001 13.2239 5.22387 13 5.50001 13C5.77615 13 6.00001 13.2239 6.00001 13.5ZM6.00001 13.5C6.00001 13.2239 6.22387 13 6.50001 13C6.77615 13 7.00001 13.2239 7.00001 13.5C7.00001 13.7761 6.77615 14 6.50001 14C6.22387 14 6.00001 13.7761 6.00001 13.5ZM10 13.5C10 13.7761 9.77615 14 9.50001 14C9.22387 14 9.00001 13.7761 9.00001 13.5C9.00001 13.2239 9.22387 13 9.50001 13C9.77615 13 10 13.2239 10 13.5ZM10 13.5C10 13.2239 10.2239 13 10.5 13C10.7762 13 11 13.2239 11 13.5C11 13.7761 10.7762 14 10.5 14C10.2239 14 10 13.7761 10 13.5Z" fill="black"/>
</svg>
