<svg width="16" height="16" viewBox="0 0 16 16" fill="none" xmlns="http://www.w3.org/2000/svg">
<path d="M10.6213 0.514889C8.64733 0.0214041 7.35267 0.0214041 5.37873 0.514889C4.45523 0.745764 3.39693 1.28105 2.59956 1.73433C1.56486 2.32253 1 3.4332 1 4.58299V13.4999C1 14.8807 2.11929 15.9999 3.5 15.9999H12.5C13.8807 15.9999 15 14.8807 15 13.4999V4.58299C15 3.4332 14.4351 2.32253 13.4004 1.73433C12.6031 1.28105 11.5448 0.745764 10.6213 0.514889ZM6.5 1.99994H9.5C9.77614 1.99994 10 2.2238 10 2.49994C10 2.77608 9.77614 2.99994 9.5 2.99994H6.5C6.22386 2.99994 6 2.77608 6 2.49994C6 2.2238 6.22386 1.99994 6.5 1.99994ZM4.5 3.99992H8H11.5C12.3284 3.99992 13 4.67149 13 5.49992V7.49992C13 8.32835 12.3284 8.99992 11.5 8.99992H8H4.5C3.67157 8.99992 3 8.32835 3 7.49992V5.49992C3 4.67149 3.67157 3.99992 4.5 3.99992ZM5 12.9999C5 13.5522 4.55228 13.9999 4 13.9999C3.44772 13.9999 3 13.5522 3 12.9999C3 12.4476 3.44772 11.9999 4 11.9999C4.55228 11.9999 5 12.4476 5 12.9999ZM5 12.9999C5 12.4476 5.44772 11.9999 6 11.9999C6.55228 11.9999 7 12.4476 7 12.9999C7 13.5522 6.55228 13.9999 6 13.9999C5.44772 13.9999 5 13.5522 5 12.9999ZM13 12.9999C13 13.5522 12.5523 13.9999 12 13.9999C11.4477 13.9999 11 13.5522 11 12.9999C11 12.4476 11.4477 11.9999 12 11.9999C12.5523 11.9999 13 12.4476 13 12.9999ZM10 11.9999C10.5523 11.9999 11 12.4476 11 12.9999C11 13.5522 10.5523 13.9999 10 13.9999C9.44772 13.9999 9 13.5522 9 12.9999C9 12.4476 9.44772 11.9999 10 11.9999ZM4 5.49994C4 5.2238 4.22386 4.99994 4.5 4.99994H7.5V7.99994H4.5C4.22386 7.99994 4 7.77608 4 7.49994V5.49994ZM8.5 7.99994V4.99994H11.5C11.7761 4.99994 12 5.2238 12 5.49994V7.49994C12 7.77608 11.7761 7.99994 11.5 7.99994H8.5Z" fill="black"/>
</svg>
