<svg width="16" height="16" viewBox="0 0 16 16" fill="none" xmlns="http://www.w3.org/2000/svg">
<path d="M5.73607 0C5.5032 0 5.27353 0.0542175 5.06525 0.158359L1.82918 1.77639C1.321 2.03048 1 2.54988 1 3.11803V8.62795L2.99988 8.02798V5C2.99988 4.44772 3.44759 4 3.99988 4H11.9999C12.5522 4 12.9999 4.44772 12.9999 5V8.02798L15 8.62802V3.11803C15 2.54988 14.679 2.03048 14.1708 1.77639L10.9348 0.158359C10.7265 0.0542177 10.4968 0 10.2639 0H5.73607ZM15 9.67205L9.49678 8.02109C9.45017 8.0071 9.40177 8 9.35311 8H8.49988V16H12.5C13.8807 16 15 14.8807 15 13.5V9.67205ZM7.49988 16V8H6.64665C6.59798 8 6.54958 8.0071 6.50297 8.02109L1 9.67198V13.5C1 14.8807 2.11929 16 3.5 16H7.49988ZM6.49988 2H9.49988C9.77602 2 9.99988 2.22386 9.99988 2.5C9.99988 2.77614 9.77602 3 9.49988 3H6.49988C6.22374 3 5.99988 2.77614 5.99988 2.5C5.99988 2.22386 6.22374 2 6.49988 2ZM11.9999 5V7.72798L9.78413 7.06326C9.6443 7.02131 9.4991 7 9.35311 7H8.49988V5H11.9999ZM7.49988 5V7H6.64665C6.50066 7 6.35546 7.02131 6.21562 7.06326L3.99988 7.72798V5H7.49988ZM3.49988 10C3.77602 10 3.99988 10.2239 3.99988 10.5C3.99988 10.7761 3.77602 11 3.49988 11C3.22374 11 2.99988 10.7761 2.99988 10.5C2.99988 10.2239 3.22374 10 3.49988 10ZM12.4999 10C12.776 10 12.9999 10.2239 12.9999 10.5C12.9999 10.7761 12.776 11 12.4999 11C12.2237 11 11.9999 10.7761 11.9999 10.5C11.9999 10.2239 12.2237 10 12.4999 10ZM4.99988 13C4.99988 13.5523 4.55216 14 3.99988 14C3.44759 14 2.99988 13.5523 2.99988 13C2.99988 12.4477 3.44759 12 3.99988 12C4.55216 12 4.99988 12.4477 4.99988 13ZM11.9999 14C11.4476 14 10.9999 13.5523 10.9999 13C10.9999 12.4477 11.4476 12 11.9999 12C12.5522 12 12.9999 12.4477 12.9999 13C12.9999 13.5523 12.5522 14 11.9999 14Z" fill="black"/>
</svg>
