<svg width="16" height="16" viewBox="0 0 16 16" fill="none" xmlns="http://www.w3.org/2000/svg">
<path d="M6.5 0C6.22386 0 6 0.223858 6 0.5C6 0.776142 6.22386 1 6.5 1H7.5V2.01097C5.97503 2.07489 4.15428 2.40529 2.91229 2.66564C1.77488 2.90406 1 3.91469 1 5.055V13.5C1 14.8807 2.11929 16 3.5 16H12.5C13.8807 16 15 14.8807 15 13.5V5.05499C15 3.91469 14.2251 2.90406 13.0877 2.66564C11.8457 2.40529 10.025 2.07489 8.5 2.01097V1H9.5C9.77614 1 10 0.776142 10 0.5C10 0.223858 9.77614 0 9.5 0H6.5ZM8 3C9.49708 3 11.505 3.35561 12.8826 3.64437C13.5356 3.78126 14 4.36591 14 5.05499V13.5C14 14.1796 13.548 14.7537 12.9283 14.938C12.9004 14.7259 12.8657 14.4553 12.8283 14.1458C12.7363 13.3848 12.6282 12.3939 12.5618 11.4644C12.5238 10.933 12.5 10.4277 12.5 10C12.5 8.94896 12.6435 7.59613 12.7777 6.56451C12.8019 6.37829 12.8258 6.20331 12.8482 6.04336C12.9603 5.24538 12.4287 4.47174 11.6039 4.34583C10.6449 4.19942 9.13568 4 8 4C6.86432 4 5.35513 4.19942 4.39611 4.34583C3.57134 4.47173 3.03968 5.24538 3.15177 6.04336C3.17423 6.20331 3.19806 6.37829 3.22229 6.56451C3.35651 7.59613 3.5 8.94896 3.5 10C3.5 10.4277 3.47616 10.933 3.43822 11.4644C3.37184 12.3939 3.26367 13.3848 3.17169 14.1458C3.13428 14.4553 3.09965 14.7259 3.07174 14.938C2.45198 14.7537 2 14.1796 2 13.5V5.055C2 4.36591 2.46438 3.78126 3.11745 3.64437C4.49501 3.35561 6.50292 3 8 3ZM11.8355 14.2658C11.8695 14.5469 11.9012 14.7964 11.9278 15H4.07217C4.09876 14.7964 4.13049 14.5469 4.16446 14.2658C4.24236 13.6214 4.3325 12.8077 4.39969 12H6.64645C7.00543 12 7.34971 11.8574 7.60355 11.6036C7.66986 11.5372 7.75979 11.5 7.85355 11.5H8.14645C8.24021 11.5 8.33014 11.5372 8.39645 11.6036C8.65029 11.8574 8.99457 12 9.35355 12H11.6003C11.6675 12.8077 11.7576 13.6214 11.8355 14.2658ZM6 13.5C6 13.7761 5.77614 14 5.5 14C5.22386 14 5 13.7761 5 13.5C5 13.2239 5.22386 13 5.5 13C5.77614 13 6 13.2239 6 13.5ZM6 13.5C6 13.2239 6.22386 13 6.5 13C6.77614 13 7 13.2239 7 13.5C7 13.7761 6.77614 14 6.5 14C6.22386 14 6 13.7761 6 13.5ZM9.5 14C9.77614 14 10 13.7761 10 13.5C10 13.7761 10.2239 14 10.5 14C10.7761 14 11 13.7761 11 13.5C11 13.2239 10.7761 13 10.5 13C10.2239 13 10 13.2239 10 13.5C10 13.2239 9.77614 13 9.5 13C9.22386 13 9 13.2239 9 13.5C9 13.7761 9.22386 14 9.5 14ZM4.46951 11C4.48863 10.6468 4.5 10.3077 4.5 10C4.5 9.07286 4.39646 7.9488 4.28413 7H11.7159C11.6035 7.9488 11.5 9.07286 11.5 10C11.5 10.3077 11.5114 10.6468 11.5305 11H9.35355C9.25978 11 9.16986 10.9628 9.10355 10.8964C8.84971 10.6426 8.50543 10.5 8.14645 10.5H7.85355C7.49457 10.5 7.15029 10.6426 6.89645 10.8964C6.83014 10.9628 6.74021 11 6.64645 11H4.46951ZM4.15541 6L4.14205 5.90426C4.10213 5.62013 4.29158 5.37337 4.54702 5.33437C5.50459 5.18819 6.94745 5 8 5C9.05255 5 10.4954 5.18819 11.453 5.33437C11.7084 5.37337 11.8979 5.62013 11.858 5.90426L11.8446 6H4.15541Z" fill="black"/>
</svg>
