<svg width="16" height="16" viewBox="0 0 16 16" fill="none" xmlns="http://www.w3.org/2000/svg">
<path d="M5.62127 1.48503C7.43597 1.03136 8.56403 1.03136 10.3787 1.48503C11.1625 1.68097 12.1217 2.15771 12.9062 2.60368C13.5939 2.99461 14 3.75153 14 4.58299V13.4999C14 14.3284 13.3284 14.9999 12.5 14.9999H3.5C2.67157 14.9999 2 14.3284 2 13.4999V4.58299C2 3.75153 2.40607 2.99461 3.09376 2.60368C3.87826 2.15771 4.83753 1.68097 5.62127 1.48503ZM10.6213 0.514889C8.64733 0.0214041 7.35267 0.0214041 5.37873 0.514889C4.45523 0.745764 3.39693 1.28105 2.59956 1.73433C1.56486 2.32253 1 3.4332 1 4.58299V13.4999C1 14.8807 2.11929 15.9999 3.5 15.9999H12.5C13.8807 15.9999 15 14.8807 15 13.4999V4.58299C15 3.4332 14.4351 2.32253 13.4004 1.73433C12.6031 1.28105 11.5448 0.745764 10.6213 0.514889ZM5 12.9999C5 13.5522 4.55228 13.9999 4 13.9999C3.44772 13.9999 3 13.5522 3 12.9999C3 12.4477 3.44772 11.9999 4 11.9999C4.55228 11.9999 5 12.4477 5 12.9999ZM5 12.9999C5 12.4477 5.44772 11.9999 6 11.9999C6.55228 11.9999 7 12.4477 7 12.9999C7 13.5522 6.55228 13.9999 6 13.9999C5.44772 13.9999 5 13.5522 5 12.9999ZM12 13.9999C12.5523 13.9999 13 13.5522 13 12.9999C13 12.4477 12.5523 11.9999 12 11.9999C11.4477 11.9999 11 12.4477 11 12.9999C11 12.4477 10.5523 11.9999 10 11.9999C9.44772 11.9999 9 12.4477 9 12.9999C9 13.5522 9.44772 13.9999 10 13.9999C10.5523 13.9999 11 13.5522 11 12.9999C11 13.5522 11.4477 13.9999 12 13.9999ZM4.5 4.99994C4.22386 4.99994 4 5.2238 4 5.49994V7.49994C4 7.77608 4.22386 7.99994 4.5 7.99994H7.5V4.99994H4.5ZM8.5 4.99994V7.99994H11.5C11.7761 7.99994 12 7.77608 12 7.49994V5.49994C12 5.2238 11.7761 4.99994 11.5 4.99994H8.5ZM3 5.49994C3 4.67152 3.67157 3.99994 4.5 3.99994H8H11.5C12.3284 3.99994 13 4.67151 13 5.49994V7.49994C13 8.32837 12.3284 8.99994 11.5 8.99994H8H4.5C3.67157 8.99994 3 8.32837 3 7.49994V5.49994ZM6.5 1.99996C6.22386 1.99996 6 2.22382 6 2.49996C6 2.7761 6.22386 2.99996 6.5 2.99996H9.5C9.77614 2.99996 10 2.7761 10 2.49996C10 2.22382 9.77614 1.99996 9.5 1.99996H6.5Z" fill="black"/>
</svg>
