<svg width="16" height="16" viewBox="0 0 16 16" fill="none" xmlns="http://www.w3.org/2000/svg">
<path d="M5.06538 0.158359C5.27366 0.0542175 5.50333 0 5.7362 0H10.2641C10.4969 0 10.7266 0.0542177 10.9349 0.158359L14.171 1.77639C14.6791 2.03048 15.0001 2.54988 15.0001 3.11803V8.98838C15.0003 8.99597 15.0003 9.0036 15.0001 9.01124V13.5C15.0001 14.8807 13.8808 16 12.5001 16H3.50013C2.11942 16 1.00013 14.8807 1.00013 13.5V9.01123C0.999956 9.00359 0.999957 8.99597 1.00013 8.98838V3.11803C1.00013 2.54988 1.32113 2.03048 1.82931 1.77639L5.06538 0.158359ZM2.00013 9.37201V13.5C2.00013 14.3284 2.6717 15 3.50013 15H7.50013V8H6.6469C6.59824 8 6.54984 8.0071 6.50323 8.02109L2.00013 9.37201ZM8.50013 15H12.5001C13.3286 15 14.0001 14.3284 14.0001 13.5V9.37201L9.49704 8.02109C9.45043 8.0071 9.40203 8 9.35336 8H8.50013V15ZM14.0001 8.32798V3.11803C14.0001 2.92865 13.8931 2.75552 13.7237 2.67082L10.4877 1.05279C10.4182 1.01807 10.3417 1 10.2641 1H5.7362C5.65858 1 5.58202 1.01807 5.51259 1.05279L2.27652 2.67082C2.10713 2.75552 2.00013 2.92865 2.00013 3.11803V8.32798L3.00013 8.02798V4.99998C3.00013 4.4477 3.44785 3.99998 4.00013 3.99998H12.0001C12.5524 3.99998 13.0001 4.4477 13.0001 4.99998V8.02798L14.0001 8.32798ZM12.0001 7.72798V4.99998H8.50013V7H9.35336C9.49935 7 9.64456 7.02131 9.78438 7.06326L12.0001 7.72798ZM7.50013 7V4.99998H4.00013V7.72798L6.21588 7.06326C6.35571 7.02131 6.50091 7 6.6469 7H7.50013ZM6.50013 1.99998C6.22399 1.99998 6.00013 2.22384 6.00013 2.49998C6.00013 2.77613 6.22399 2.99998 6.50013 2.99998H9.50013C9.77627 2.99998 10.0001 2.77613 10.0001 2.49998C10.0001 2.22384 9.77627 1.99998 9.50013 1.99998H6.50013ZM3.50013 9.99998C3.22399 9.99998 3.00013 10.2238 3.00013 10.5C3.00013 10.7761 3.22399 11 3.50013 11C3.77627 11 4.00013 10.7761 4.00013 10.5C4.00013 10.2238 3.77627 9.99998 3.50013 9.99998ZM12.5001 9.99998C12.224 9.99998 12.0001 10.2238 12.0001 10.5C12.0001 10.7761 12.224 11 12.5001 11C12.7763 11 13.0001 10.7761 13.0001 10.5C13.0001 10.2238 12.7763 9.99998 12.5001 9.99998ZM5.00013 13C5.00013 13.5523 4.55242 14 4.00013 14C3.44785 14 3.00013 13.5523 3.00013 13C3.00013 12.4477 3.44785 12 4.00013 12C4.55242 12 5.00013 12.4477 5.00013 13ZM12.0001 14C12.5524 14 13.0001 13.5523 13.0001 13C13.0001 12.4477 12.5524 12 12.0001 12C11.4478 12 11.0001 12.4477 11.0001 13C11.0001 13.5523 11.4478 14 12.0001 14Z" fill="black"/>
</svg>
