<svg width="16" height="16" viewBox="0 0 16 16" fill="none" xmlns="http://www.w3.org/2000/svg">
<path d="M0 6.5C0 2.91015 2.91015 0 6.5 0C9.06929 0 11.2904 1.49069 12.3456 3.65436C14.5093 4.7096 16 6.93071 16 9.5C16 13.0899 13.0899 16 9.5 16C6.93071 16 4.7096 14.5093 3.65436 12.3456C1.49069 11.2904 0 9.06929 0 6.5ZM5.14404 12.8584C6.14984 14.161 7.72694 15 9.5 15C12.5376 15 15 12.5376 15 9.5C15 7.72694 14.161 6.14984 12.8584 5.14404C12.9512 5.58139 13 6.03499 13 6.5C13 10.0899 10.0899 13 6.5 13C6.03499 13 5.58139 12.9512 5.14404 12.8584ZM4.41072 11.5893C4.77431 11.7387 5.15744 11.8503 5.55522 11.9192L4.08084 10.4448C4.1497 10.8426 4.26129 11.2257 4.41072 11.5893ZM7.02549 11.9752C7.43058 11.9368 7.82286 11.8545 8.19753 11.733L4.37416 7.90967C4.24112 8.26758 4.14127 8.64162 4.07832 9.02805L7.02549 11.9752ZM9.18174 11.303C9.47914 11.1366 9.7595 10.9434 10.0195 10.7266L5.41848 6.12557C5.2003 6.38331 5.00347 6.65971 4.83074 6.95204L9.18174 11.303ZM10.7266 10.0195C10.9434 9.75947 11.1366 9.47911 11.3031 9.18171L6.95206 4.83072C6.65974 5.00346 6.38333 5.20028 6.12559 5.41846L10.7266 10.0195ZM11.7331 8.1975C11.8545 7.82283 11.9368 7.43054 11.9752 7.02546L9.02808 4.07832C8.64165 4.14126 8.26761 4.24112 7.9097 4.37415L11.7331 8.1975ZM11.9192 5.55517C11.8503 5.15741 11.7387 4.77429 11.5893 4.41072C11.2257 4.2613 10.8426 4.14971 10.4448 4.08084L11.9192 5.55517Z" fill="black"/>
</svg>
