<svg width="16" height="16" viewBox="0 0 16 16" fill="none" xmlns="http://www.w3.org/2000/svg">
<path d="M14 3C14 3.07597 13.9873 3.15096 13.9625 3.22473L12.2785 13.3288C12.1178 14.2932 11.2834 15 10.3057 15H5.69425C4.71658 15 3.8822 14.2932 3.72147 13.3288L2.03745 3.22473C2.01271 3.15096 2 3.07597 2 3C2 1.89543 4.68629 1 8 1C11.3137 1 14 1.89543 14 3ZM3.21493 4.20679L4.70786 13.1644C4.78823 13.6466 5.20541 14 5.69425 14H10.3057C10.7946 14 11.2118 13.6466 11.2921 13.1644L12.7851 4.20679C11.6895 4.6887 9.95382 5 8 5C6.04618 5 4.31048 4.6887 3.21493 4.20679Z" fill="black"/>
</svg>
