<svg width="16" height="16" viewBox="0 0 16 16" fill="none" xmlns="http://www.w3.org/2000/svg">
<path d="M2.03746 3.22473C2.01271 3.15096 2 3.07597 2 3C2 1.89543 4.68629 1 8 1C11.3137 1 14 1.89543 14 3C14 3.07597 13.9873 3.15096 13.9625 3.22473L12.2785 13.3288C12.1178 14.2932 11.2834 15 10.3057 15H5.69425C4.71658 15 3.8822 14.2932 3.72147 13.3288L2.03746 3.22473ZM11.9264 2.53447C10.9675 2.21485 9.57928 2 8 2C6.42072 2 5.03245 2.21485 4.07359 2.53447C3.59686 2.69338 3.27937 2.86078 3.09935 3C3.27937 3.13922 3.59686 3.30662 4.07359 3.46553C5.03245 3.78515 6.42072 4 8 4C9.57928 4 10.9675 3.78515 11.9264 3.46553C12.4031 3.30662 12.7206 3.13922 12.9006 3C12.7206 2.86078 12.4031 2.69338 11.9264 2.53447Z" fill="black"/>
</svg>
