<svg width="16" height="16" viewBox="0 0 16 16" fill="none" xmlns="http://www.w3.org/2000/svg">
<path d="M14.1006 0H1.90198C0.852562 0 0.00144521 0.849968 1.53326e-05 1.89938L1.53326e-05 14.0904C-0.00201396 14.5961 0.197466 15.0819 0.554372 15.4402C0.911278 15.7986 1.39622 16 1.90198 16H14.1006C14.6059 15.9993 15.0902 15.7976 15.4465 15.4393C15.8029 15.081 16.002 14.5957 16 14.0904V1.89938C15.9986 0.850968 15.149 0.00141201 14.1006 0ZM7 11.3669C6.99932 11.5359 6.93135 11.6977 6.81109 11.8165C6.69084 11.9353 6.52822 12.0013 6.35918 12H3.59374C3.24507 11.9986 2.96317 11.7155 2.96317 11.3669V3.58345C2.96317 3.23478 3.24507 2.95174 3.59374 2.95033H6.35918C6.70827 2.95173 6.99091 3.23437 6.99231 3.58345L7 11.3669ZM13.0522 7.86683C13.0522 8.03608 12.9845 8.1983 12.8641 8.31726C12.7437 8.43621 12.5806 8.50201 12.4114 8.5H9.63314C9.28406 8.49855 9.00142 8.21591 9.00002 7.86683V3.58345C9.00142 3.23437 9.28406 2.95173 9.63314 2.95033H12.4114C12.7601 2.95174 13.042 3.23478 13.042 3.58345L13.0522 7.86683Z" fill="black"/>
</svg>
