<svg width="16" height="16" viewBox="0 0 16 16" fill="none" xmlns="http://www.w3.org/2000/svg">
<path d="M8.06463 2.0157C8.04727 2.00605 8.02557 2 8.00151 2V13.9833L14.8585 14C14.89 14 14.909 13.9925 14.9237 13.9833C14.9414 13.9724 14.962 13.9528 14.9784 13.9231C15.0112 13.864 15.012 13.8005 14.9763 13.7398L8.11935 2.07312C8.09945 2.03926 8.07963 2.02403 8.06463 2.0157ZM7.02154 1.56642C7.46542 0.811193 8.53759 0.811193 8.98147 1.56642L15.8384 13.2331C16.2955 14.0107 15.7468 15 14.8585 15H1.14455C0.256241 15 -0.292444 14.0107 0.164589 13.2331L7.02154 1.56642Z" fill="black"/>
</svg>
