<svg width="16" height="16" viewBox="0 0 16 16" fill="none" xmlns="http://www.w3.org/2000/svg">
<path d="M8 9.5C9.10457 9.5 10 8.60457 10 7.5C10 6.39543 9.10457 5.5 8 5.5C6.89543 5.5 6 6.39543 6 7.5C6 8.60457 6.89543 9.5 8 9.5Z" fill="black"/>
<path d="M9.5 2C8.59938 2 7.74931 2.21647 6.999 2.60022C7.32242 2.5345 7.65718 2.5 8 2.5C10.7614 2.5 13 4.73858 13 7.5C13 11.0899 10.0899 14 6.5 14C2.91015 14 0 11.0899 0 7.5C0 7.22386 0.223858 7 0.5 7C0.776142 7 1 7.22386 1 7.5C1 10.5376 3.46243 13 6.5 13C7.40062 13 8.25069 12.7835 9.001 12.3998C8.67758 12.4655 8.34282 12.5 8 12.5C5.23858 12.5 3 10.2614 3 7.5C3 3.91015 5.91015 1 9.5 1C13.0899 1 16 3.91015 16 7.5C16 7.77614 15.7761 8 15.5 8C15.2239 8 15 7.77614 15 7.5C15 4.46243 12.5376 2 9.5 2ZM8 3.5C5.79086 3.5 4 5.29086 4 7.5C4 9.70914 5.79086 11.5 8 11.5C10.2091 11.5 12 9.70914 12 7.5C12 5.29086 10.2091 3.5 8 3.5Z" fill="black"/>
</svg>
