<svg width="16" height="16" viewBox="0 0 16 16" fill="none" xmlns="http://www.w3.org/2000/svg">
<path d="M5 11C5 11.5523 4.55228 12 4 12C3.44772 12 3 11.5523 3 11C3 10.4477 3.44772 10 4 10C4.55228 10 5 10.4477 5 11Z" fill="black"/>
<path d="M13 11C13 11.5523 12.5523 12 12 12C11.4477 12 11 11.5523 11 11C11 10.4477 11.4477 10 12 10C12.5523 10 13 10.4477 13 11Z" fill="black"/>
<path d="M7 10C6.44772 10 6 10.4477 6 11C6 11.5523 6.44772 12 7 12H9C9.55228 12 10 11.5523 10 11C10 10.4477 9.55228 10 9 10H7Z" fill="black"/>
<path d="M4 2C3.44772 2 3 2.44772 3 3V6.90061C3 7.52497 3.56219 7.99172 4.16993 7.89359C5.07537 7.74739 6.79226 7.5 8 7.5C9.20774 7.5 10.9246 7.74739 11.8301 7.89359C12.4378 7.99172 13 7.52497 13 6.90061V3C13 2.44772 12.5523 2 12 2H4ZM4 3H12V6.90061C11.9997 6.90121 12 6.90231 12 6.90061C12 6.90058 11.9996 6.90248 11.9979 6.9039C11.9962 6.90533 11.9945 6.90608 11.9935 6.90637C11.993 6.90651 11.9921 6.90679 11.9895 6.90638C11.0875 6.76074 9.29768 6.5 8 6.5C6.70232 6.5 4.9125 6.76074 4.01053 6.90638C4.00795 6.90679 4.007 6.90652 4.00652 6.90638C4.0055 6.90609 4.00381 6.90533 4.00212 6.9039C4.00044 6.90248 3.9999 6.90139 3.99991 6.90142C3.99991 6.90313 4.0002 6.90202 3.99991 6.90142L4 3Z" fill="black"/>
<path d="M1 2.5C1 1.11929 2.11929 0 3.5 0H12.5C13.8807 0 15 1.11929 15 2.5V11.5C15 12.3179 14.6072 13.0441 14 13.5002V15.5C14 15.7761 13.7761 16 13.5 16H11.5C11.2239 16 11 15.7761 11 15.5V14H5V15.5C5 15.7761 4.77614 16 4.5 16H2.5C2.22386 16 2 15.7761 2 15.5V13.5002C1.39278 13.0441 1 12.3179 1 11.5V2.5ZM3.5 1C2.67157 1 2 1.67157 2 2.5V11.5C2 12.3284 2.67157 13 3.5 13H12.5C13.3284 13 14 12.3284 14 11.5V2.5C14 1.67157 13.3284 1 12.5 1H3.5Z" fill="black"/>
</svg>
