<svg width="16" height="16" viewBox="0 0 16 16" fill="none" xmlns="http://www.w3.org/2000/svg">
<path d="M3.5 0C2.11929 0 1 1.11929 1 2.5V11.5C1 12.3179 1.39278 13.0441 2 13.5002V15.5C2 15.7761 2.22386 16 2.5 16H4.5C4.77614 16 5 15.7761 5 15.5V14H11V15.5C11 15.7761 11.2239 16 11.5 16H13.5C13.7761 16 14 15.7761 14 15.5V13.5002C14.6072 13.0441 15 12.3179 15 11.5V2.5C15 1.11929 13.8807 0 12.5 0H3.5ZM3 3C3 2.44772 3.44772 2 4 2H12C12.5523 2 13 2.44772 13 3V6.90061C13 7.52497 12.4378 7.99172 11.8301 7.89359C10.9246 7.74739 9.20774 7.5 8 7.5C6.79226 7.5 5.07537 7.74739 4.16993 7.89359C3.56219 7.99172 3 7.52497 3 6.90061V3ZM4 12C3.44772 12 3 11.5523 3 11C3 10.4477 3.44772 10 4 10C4.55228 10 5 10.4477 5 11C5 11.5523 4.55228 12 4 12ZM12 12C11.4477 12 11 11.5523 11 11C11 10.4477 11.4477 10 12 10C12.5523 10 13 10.4477 13 11C13 11.5523 12.5523 12 12 12ZM7 10H9C9.55228 10 10 10.4477 10 11C10 11.5523 9.55228 12 9 12H7C6.44772 12 6 11.5523 6 11C6 10.4477 6.44772 10 7 10Z" fill="black"/>
</svg>
