<svg width="16" height="16" viewBox="0 0 16 16" fill="none" xmlns="http://www.w3.org/2000/svg">
<path d="M0 3.5C0 2.67157 0.671573 2 1.5 2H10.5C11.3284 2 12 2.67157 12 3.5V5H13.0194C13.4751 5 13.906 5.20713 14.1907 5.56296L15.6713 7.41374C15.8841 7.67971 16 8.01017 16 8.35078V10.5C16 11.3284 15.3284 12 14.5 12H14C14 13.1046 13.1046 14 12 14C10.8954 14 10 13.1046 10 12H5C5 13.1046 4.10457 14 3 14C1.89543 14 1 13.1046 1 12C1 11.9716 1.00059 11.9434 1.00176 11.9153C0.418245 11.7098 0 11.1538 0 10.5V3.5ZM1.29396 10.9557C1.64562 10.3824 2.27815 10 3 10C3.74028 10 4.38663 10.4022 4.73244 11H10.2676C10.4432 10.6964 10.6964 10.4432 11 10.2676V3.5C11 3.22386 10.7761 3 10.5 3H1.5C1.22386 3 1 3.22386 1 3.5V10.5C1 10.7027 1.1206 10.8772 1.29396 10.9557ZM12 10C12.7403 10 13.3866 10.4022 13.7324 11H14.5C14.7761 11 15 10.7761 15 10.5V8.35078C15 8.23725 14.9614 8.12709 14.8904 8.03843L13.4098 6.18765C13.3149 6.06905 13.1713 6 13.0194 6H12V10ZM3 11C2.44772 11 2 11.4477 2 12C2 12.5523 2.44772 13 3 13C3.55228 13 4 12.5523 4 12C4 11.4477 3.55228 11 3 11ZM12 11C11.4477 11 11 11.4477 11 12C11 12.5523 11.4477 13 12 13C12.5523 13 13 12.5523 13 12C13 11.4477 12.5523 11 12 11Z" fill="black"/>
</svg>
