<svg width="16" height="16" viewBox="0 0 16 16" fill="none" xmlns="http://www.w3.org/2000/svg">
<path d="M0.0356505 12.3143C0.138207 12.0579 0.429192 11.9332 0.685584 12.0358L2.4428 12.7386C2.80042 12.8817 3.19936 12.8817 3.55697 12.7386L4.57141 12.3329C5.16744 12.0945 5.83234 12.0945 6.42837 12.3329L7.4428 12.7386C7.80042 12.8817 8.19936 12.8817 8.55697 12.7386L9.57141 12.3329C10.1674 12.0945 10.8323 12.0945 11.4284 12.3329L12.4428 12.7386C12.8004 12.8817 13.1994 12.8817 13.557 12.7386L15.3142 12.0358C15.5706 11.9332 15.8616 12.0579 15.9641 12.3143C16.0667 12.5707 15.942 12.8617 15.6856 12.9642L13.9284 13.6671C13.3323 13.9055 12.6674 13.9055 12.0714 13.6671L11.057 13.2613C10.6994 13.1183 10.3004 13.1183 9.9428 13.2613L8.92837 13.6671C8.33234 13.9055 7.66744 13.9055 7.07141 13.6671L6.05697 13.2613C5.69936 13.1183 5.30042 13.1183 4.9428 13.2613L3.92837 13.6671C3.33234 13.9055 2.66744 13.9055 2.07141 13.6671L0.314193 12.9642C0.0578017 12.8617 -0.0669062 12.5707 0.0356505 12.3143ZM0.0356505 14.3143C0.138207 14.0579 0.429192 13.9332 0.685584 14.0358L2.4428 14.7386C2.80042 14.8817 3.19936 14.8817 3.55697 14.7386L4.57141 14.3329C5.16744 14.0945 5.83234 14.0945 6.42837 14.3329L7.4428 14.7386C7.80042 14.8817 8.19936 14.8817 8.55697 14.7386L9.57141 14.3329C10.1674 14.0945 10.8323 14.0945 11.4284 14.3329L12.4428 14.7386C12.8004 14.8817 13.1994 14.8817 13.557 14.7386L15.3142 14.0358C15.5706 13.9332 15.8616 14.0579 15.9641 14.3143C16.0667 14.5707 15.942 14.8617 15.6856 14.9642L13.9284 15.6671C13.3323 15.9055 12.6674 15.9055 12.0714 15.6671L11.057 15.2613C10.6994 15.1183 10.3004 15.1183 9.9428 15.2613L8.92837 15.6671C8.33234 15.9055 7.66744 15.9055 7.07141 15.6671L6.05697 15.2613C5.69936 15.1183 5.30042 15.1183 4.9428 15.2613L3.92837 15.6671C3.33234 15.9055 2.66744 15.9055 2.07141 15.6671L0.314193 14.9642C0.0578017 14.8617 -0.0669062 14.5707 0.0356505 14.3143Z" fill="black"/>
<path d="M2.66241 8.08017C2.20565 9.14332 1.66761 10.1777 0.819979 10.8841C0.60784 11.0609 0.292558 11.0322 0.115777 10.8201C-0.0610044 10.6079 -0.0323409 10.2926 0.179798 10.1159C0.832167 9.57223 1.29413 8.73166 1.74362 7.68543C1.88445 7.35764 2.02531 7.00574 2.17098 6.64181C2.47263 5.88821 2.79491 5.08308 3.18025 4.33382C3.76354 3.19964 4.5295 2.10538 5.70075 1.29909C6.87683 0.489467 8.41788 0 10.4999 0C11.9626 0 13.0115 0.400005 13.679 1.05798C14.3482 1.71756 14.5722 2.57649 14.4976 3.35991C14.4242 4.13138 14.0567 4.87593 13.4783 5.32473C12.9532 5.73208 12.2723 5.87611 11.5743 5.59471C10.9246 6.23693 10.6671 7.27353 10.8642 8.20948C11.0759 9.21519 11.7836 9.99998 12.9999 9.99998H15.4999C15.776 9.99998 15.9999 10.2238 15.9999 10.5C15.9999 10.7761 15.776 11 15.4999 11H12.9999C11.2162 11 10.1739 9.78477 9.88561 8.4155C9.65376 7.31417 9.89077 6.04243 10.644 5.13108L10.4999 5.05903L9.72349 5.44721C9.58273 5.51759 9.41705 5.51759 9.27629 5.44721L8.27629 4.94723C8.0293 4.82373 7.92918 4.5234 8.05267 4.27641C8.17616 4.02942 8.4765 3.9293 8.72349 4.05279L9.49989 4.44098L10.2763 4.05279C10.417 3.98241 10.5827 3.98242 10.7235 4.0528L11.7235 4.5528C11.7349 4.55852 11.7462 4.56468 11.7571 4.57126C12.1966 4.83496 12.567 4.76605 12.8653 4.53465C13.1931 4.28032 13.4506 3.80612 13.5021 3.2651C13.5525 2.73601 13.4016 2.18869 12.977 1.77015C12.5508 1.34999 11.7872 1 10.4999 1C8.58189 1 7.24795 1.44803 6.26778 2.12278C5.28278 2.80086 4.61124 3.73786 4.06953 4.79117C3.70471 5.50055 3.41539 6.22441 3.1249 6.95122C2.97459 7.32728 2.82397 7.70413 2.66241 8.08017Z" fill="black"/>
</svg>
