<svg width="16" height="16" viewBox="0 0 16 16" fill="none" xmlns="http://www.w3.org/2000/svg">
<path d="M2.5 13.5C2.5 13.2239 2.72386 13 3 13H13C13.2761 13 13.5 13.2239 13.5 13.5C13.5 13.7761 13.2761 14 13 14H3C2.72386 14 2.5 13.7761 2.5 13.5Z" fill="black"/>
<path d="M13.991 3C13.995 3.00016 14.003 3.00053 14.0147 3.00136C14.0428 3.00337 14.0895 3.00787 14.1481 3.01764C14.2701 3.03798 14.4175 3.07678 14.5528 3.14443C14.6842 3.21011 14.7851 3.29294 14.8554 3.39845C14.9216 3.4977 15 3.67498 15 4V9.99097C14.9998 9.99496 14.9995 10.003 14.9986 10.0147C14.9966 10.0428 14.9921 10.0895 14.9824 10.1481C14.962 10.2701 14.9232 10.4175 14.8556 10.5528C14.7899 10.6842 14.7071 10.7851 14.6016 10.8554C14.5023 10.9216 14.325 11 14 11H2.00903C2.00504 10.9998 1.99697 10.9995 1.98531 10.9986C1.95721 10.9966 1.91053 10.9921 1.8519 10.9824C1.72989 10.962 1.5825 10.9232 1.44721 10.8556C1.31584 10.7899 1.21489 10.7071 1.14455 10.6016C1.07838 10.5023 1 10.325 1 10V4.00902C1.00016 4.00504 1.00053 3.99696 1.00136 3.98531C1.00337 3.95721 1.00787 3.91053 1.01764 3.8519C1.03798 3.72989 1.07678 3.5825 1.14443 3.44721C1.21011 3.31584 1.29294 3.21489 1.39845 3.14455C1.4977 3.07838 1.67498 3 2 3H13.991ZM14 2H2C0 2 0 4 0 4V10C0 12 2 12 2 12H14C16 12 16 10 16 10V4C16 2 14 2 14 2Z" fill="black"/>
</svg>
