<svg width="16" height="16" viewBox="0 0 16 16" fill="none" xmlns="http://www.w3.org/2000/svg">
<path d="M11.0708 8.40091H12.1186C13.2929 8.40091 14.1087 9.09007 14.1227 10.1238C14.1368 11.1575 13.3211 11.91 12.0553 11.903C10.9442 11.8959 10.1495 11.2982 10.0651 10.5457H8.85559C8.92591 11.91 10.1144 13 12.0271 13C14.0173 13 15.4659 11.8115 15.4307 10.1308C15.4026 8.57671 14.1438 7.90865 13.3351 7.81723V7.74691C14.0595 7.62033 15.1495 6.81162 15.1073 5.45439C15.0721 4.06201 13.8977 2.98607 12.0693 3.00014C10.1425 3.00717 9.12985 4.19562 9.08766 5.42626H10.3183C10.3816 4.71601 11.0497 4.09014 12.0623 4.09014C13.089 4.09014 13.8063 4.73007 13.8063 5.65833C13.8133 6.60768 13.0679 7.29684 12.0623 7.29684H11.0708V8.40091Z" fill="black"/>
<path d="M7.49462 13V3.20105H6.17373V7.35037H1.32089V3.20105H0V13H1.32089V8.51333H6.17373V13H7.49462Z" fill="black"/>
</svg>
