<svg width="16" height="16" viewBox="0 0 16 16" fill="none" xmlns="http://www.w3.org/2000/svg">
<path d="M9 10.5161H10.2635C10.4573 11.4924 11.3762 11.8801 12.2735 11.8801C13.2785 11.8801 14.341 11.0976 14.341 9.63314C14.341 8.34096 13.3575 7.5513 12.252 7.5513C11.2398 7.5513 10.5937 8.14713 10.3281 8.62811H9.20818L9.64609 2.99997H15.1809V4.14139H10.766L10.5004 7.27851H10.5721C10.7732 6.96264 11.4551 6.43859 12.5391 6.43859C14.2477 6.43859 15.6691 7.61591 15.6691 9.59724C15.6691 11.6216 14.262 13 12.1945 13C10.3855 13 9.09332 11.9519 9 10.5161Z" fill="black"/>
<path d="M7.49462 13.0001V3.20106H6.17373V7.35038H1.32089V3.20106H0V13.0001H1.32089V8.51333H6.17373V13.0001H7.49462Z" fill="black"/>
</svg>
