<svg width="16" height="16" viewBox="0 0 16 16" fill="none" xmlns="http://www.w3.org/2000/svg">
<path d="M7.49462 13V3.20101H6.17373V7.35032H1.32089V3.20101H0V13H1.32089V8.51328H6.17373V13H7.49462Z" fill="black"/>
<path d="M10.6686 5.92893C10.6686 5.92175 10.6686 5.88586 10.6686 5.87868C10.6686 4.94544 11.3291 4.12706 12.4705 4.12706C13.4755 4.12706 14.2293 4.76597 14.2293 5.77818C14.2293 6.67552 13.6478 7.3575 13.1094 7.9677L9.41955 12.1673V13H15.7512V11.8514H11.2932V11.7724L13.8991 8.78607C14.818 7.73798 15.5646 6.91242 15.5646 5.68485C15.5646 4.1486 14.3513 3 12.4992 3C10.4605 3 9.38365 4.39268 9.38365 5.87868V5.92893H10.6686Z" fill="black"/>
</svg>
