<svg width="16" height="16" viewBox="0 0 16 16" fill="none" xmlns="http://www.w3.org/2000/svg">
<path d="M15.5962 5.17759H14.2995C14.1938 4.73362 13.6794 4.10641 12.5941 4.10641C11.2622 4.10641 10.2685 5.37491 10.2685 8.05285H10.339C10.6068 7.38337 11.382 6.60817 12.7844 6.60817C14.2784 6.60817 15.8006 7.6723 15.8006 9.68076C15.8006 11.7949 14.37 13 12.4813 13C11.4454 13 10.3883 12.6406 9.71177 11.5483C9.27484 10.8365 9 9.80761 9 8.36998C9 4.6561 10.494 3 12.6364 3C14.4475 3 15.5187 4.11346 15.5962 5.17759ZM10.4447 9.74419C10.4447 11.1113 11.389 11.8936 12.4884 11.8936C13.6159 11.8936 14.525 11.21 14.525 9.75828C14.525 8.34884 13.5243 7.69345 12.4954 7.69345C11.3044 7.69345 10.4447 8.54616 10.4447 9.74419Z" fill="black"/>
<path d="M7.49462 13V3.20105H6.17373V7.35037H1.32089V3.20105H0V13H1.32089V8.51333H6.17373V13H7.49462Z" fill="black"/>
</svg>
