<svg width="16" height="16" viewBox="0 0 16 16" fill="none" xmlns="http://www.w3.org/2000/svg">
<path d="M2.27315 9.53072C3.52858 9.53072 4.5463 8.51299 4.5463 7.25757C4.5463 6.00214 3.52858 4.98442 2.27315 4.98442C1.01772 4.98442 0 6.00214 0 7.25757C0 8.51299 1.01772 9.53072 2.27315 9.53072Z" fill="black"/>
<path d="M11.74 4.5463C12.9954 4.5463 14.0131 3.52858 14.0131 2.27315C14.0131 1.01772 12.9954 0 11.74 0C10.4846 0 9.46683 1.01772 9.46683 2.27315C9.46683 3.52858 10.4846 4.5463 11.74 4.5463Z" fill="black"/>
<path d="M7.39989 13.1077C6.59647 12.9379 5.8409 12.5914 5.18794 12.0934C4.53498 11.5954 4.00099 10.9584 3.62466 10.2285C3.01638 10.5046 2.33815 10.588 1.68109 10.4674C2.13555 11.5911 2.85907 12.5859 3.78806 13.3645C4.71705 14.1431 5.82307 14.6816 7.0089 14.9326C7.53935 15.0463 8.08057 15.102 8.62305 15.0987C8.20574 14.5515 7.97272 13.8861 7.95749 13.1982C7.77027 13.1774 7.58327 13.147 7.39989 13.1077Z" fill="black"/>
<path d="M11.2278 15.3934C12.4833 15.3934 13.501 14.3757 13.501 13.1203C13.501 11.8649 12.4833 10.8471 11.2278 10.8471C9.97242 10.8471 8.9547 11.8649 8.9547 13.1203C8.9547 14.3757 9.97242 15.3934 11.2278 15.3934Z" fill="black"/>
<path d="M14.391 12.2853C15.3655 11.056 15.9263 9.55011 15.9932 7.98287C16.0601 6.41564 15.6298 4.86736 14.7637 3.55946C14.5012 4.17771 14.0549 4.70032 13.4855 5.05651C13.9402 5.91499 14.1626 6.87743 14.1306 7.84838C14.0987 8.81934 13.8135 9.76507 13.3033 10.5918C13.8354 11.0274 14.2162 11.6202 14.391 12.2853Z" fill="black"/>
<path d="M2.09776 3.99765C2.15545 3.99449 2.21318 3.99292 2.27093 3.99295C2.87998 3.99339 3.47689 4.16337 3.99481 4.48386C4.4959 3.76008 5.16214 3.16602 5.93841 2.75086C6.71468 2.3357 7.57866 2.11136 8.45884 2.0964C8.49559 1.42601 8.73619 0.782816 9.14846 0.252892C6.28994 0.0265158 3.51235 1.5016 2.09776 3.99765Z" fill="black"/>
</svg>
