<svg width="16" height="16" viewBox="0 0 16 16" fill="none" xmlns="http://www.w3.org/2000/svg">
<path d="M7 2.5C7 2.22386 7.22386 2 7.5 2H14.5C14.7761 2 15 2.22386 15 2.5V3.5C15 3.77614 14.7761 4 14.5 4H7.5C7.22386 4 7 3.77614 7 3.5V2.5Z" fill="black"/>
<path d="M2 1C0.895431 1 0 1.89543 0 3V5C0 6.10457 0.89543 7 2 7H4C5.10457 7 6 6.10457 6 5V3C6 1.89543 5.10457 1 4 1H2ZM2 9C0.895431 9 0 9.89543 0 11V13C0 14.1046 0.89543 15 2 15H4C5.10457 15 6 14.1046 6 13V11C6 9.89543 5.10457 9 4 9H2ZM2.85355 5.35355C2.65829 5.54882 2.34171 5.54882 2.14645 5.35355L1.14645 4.35355C0.951184 4.15829 0.951184 3.84171 1.14645 3.64645C1.34171 3.45118 1.65829 3.45118 1.85355 3.64645L2.5 4.29289L4.14645 2.64645C4.34171 2.45118 4.65829 2.45118 4.85355 2.64645C5.04882 2.84171 5.04882 3.15829 4.85355 3.35355L2.85355 5.35355ZM2.85355 13.3536C2.65829 13.5488 2.34171 13.5488 2.14645 13.3536L1.14645 12.3536C0.951184 12.1583 0.951184 11.8417 1.14645 11.6464C1.34171 11.4512 1.65829 11.4512 1.85355 11.6464L2.5 12.2929L4.14645 10.6464C4.34171 10.4512 4.65829 10.4512 4.85355 10.6464C5.04882 10.8417 5.04882 11.1583 4.85355 11.3536L2.85355 13.3536Z" fill="black"/>
<path d="M7 10.5C7 10.2239 7.22386 10 7.5 10H14.5C14.7761 10 15 10.2239 15 10.5V11.5C15 11.7761 14.7761 12 14.5 12H7.5C7.22386 12 7 11.7761 7 11.5V10.5Z" fill="black"/>
<path d="M7 5.5C7 5.22386 7.22386 5 7.5 5H12.5C12.7761 5 13 5.22386 13 5.5C13 5.77614 12.7761 6 12.5 6H7.5C7.22386 6 7 5.77614 7 5.5Z" fill="black"/>
<path d="M7 13.5C7 13.2239 7.22386 13 7.5 13H12.5C12.7761 13 13 13.2239 13 13.5C13 13.7761 12.7761 14 12.5 14H7.5C7.22386 14 7 13.7761 7 13.5Z" fill="black"/>
</svg>
