<svg width="16" height="16" viewBox="0 0 16 16" fill="none" xmlns="http://www.w3.org/2000/svg">
<path d="M3.5 15C4.88071 15 6 13.8807 6 12.5C6 11.1193 4.88071 10 3.5 10C2.11929 10 1 11.1193 1 12.5C1 13.8807 2.11929 15 3.5 15ZM12.5 6C13.8807 6 15 4.88071 15 3.5C15 2.11929 13.8807 1 12.5 1C11.1193 1 10 2.11929 10 3.5C10 4.88071 11.1193 6 12.5 6ZM12.5 15C11.1193 15 10 13.8807 10 12.5C10 11.1193 11.1193 10 12.5 10C13.8807 10 15 11.1193 15 12.5C15 13.8807 13.8807 15 12.5 15ZM16 3.5C16 5.433 14.433 7 12.5 7C10.567 7 9 5.433 9 3.5C9 1.567 10.567 0 12.5 0C14.433 0 16 1.567 16 3.5ZM7 12.5C7 14.433 5.433 16 3.5 16C1.567 16 0 14.433 0 12.5C0 10.567 1.567 9 3.5 9C5.433 9 7 10.567 7 12.5ZM12.5 16C14.433 16 16 14.433 16 12.5C16 10.567 14.433 9 12.5 9C10.567 9 9 10.567 9 12.5C9 14.433 10.567 16 12.5 16Z" fill="black"/>
<path d="M3.5 5C2.67157 5 2 4.32843 2 3.5C2 2.67157 2.67157 2 3.5 2C4.32843 2 5 2.67157 5 3.5C5 4.32843 4.32843 5 3.5 5ZM3.5 7C5.433 7 7 5.433 7 3.5C7 1.567 5.433 0 3.5 0C1.567 0 0 1.567 0 3.5C0 5.433 1.567 7 3.5 7Z" fill="black"/>
</svg>
