<svg width="16" height="16" viewBox="0 0 16 16" fill="none" xmlns="http://www.w3.org/2000/svg">
<path d="M7 2.5C7 2.22386 7.22386 2 7.5 2H14.5C14.7761 2 15 2.22386 15 2.5V3.5C15 3.77614 14.7761 4 14.5 4H7.5C7.22386 4 7 3.77614 7 3.5V2.5Z" fill="black"/>
<path d="M0 12C0 10.3431 1.34315 9 3 9C4.65685 9 6 10.3431 6 12C6 13.6569 4.65685 15 3 15C1.34315 15 0 13.6569 0 12Z" fill="black"/>
<path d="M7 10.5C7 10.2239 7.22386 10 7.5 10H14.5C14.7761 10 15 10.2239 15 10.5V11.5C15 11.7761 14.7761 12 14.5 12H7.5C7.22386 12 7 11.7761 7 11.5V10.5Z" fill="black"/>
<path d="M7 5.5C7 5.22386 7.22386 5 7.5 5H12.5C12.7761 5 13 5.22386 13 5.5C13 5.77614 12.7761 6 12.5 6H7.5C7.22386 6 7 5.77614 7 5.5Z" fill="black"/>
<path d="M7 13.5C7 13.2239 7.22386 13 7.5 13H12.5C12.7761 13 13 13.2239 13 13.5C13 13.7761 12.7761 14 12.5 14H7.5C7.22386 14 7 13.7761 7 13.5Z" fill="black"/>
<path d="M3 1C1.34315 1 0 2.34315 0 4C0 5.65685 1.34315 7 3 7C4.65685 7 6 5.65685 6 4C6 2.34315 4.65685 1 3 1ZM3 5.5C2.17157 5.5 1.5 4.82843 1.5 4C1.5 3.17157 2.17157 2.5 3 2.5C3.82843 2.5 4.5 3.17157 4.5 4C4.5 4.82843 3.82843 5.5 3 5.5Z" fill="black"/>
</svg>
