<svg width="16" height="16" viewBox="0 0 16 16" fill="none" xmlns="http://www.w3.org/2000/svg">
<path fill-rule="evenodd" clip-rule="evenodd" d="M13 8C13 7.72386 12.7761 7.5 12.5 7.5H5.70711L7.85355 5.35355C8.04882 5.15829 8.04882 4.84171 7.85355 4.64645C7.65829 4.45118 7.34171 4.45118 7.14645 4.64645L4.14645 7.64645C3.95118 7.84171 3.95118 8.15829 4.14645 8.35355L7.14645 11.3536C7.34171 11.5488 7.65829 11.5488 7.85355 11.3536C8.04882 11.1583 8.04882 10.8417 7.85355 10.6464L5.70711 8.5H12.5C12.7761 8.5 13 8.27614 13 8Z" fill="black"/>
<path fill-rule="evenodd" clip-rule="evenodd" d="M3.5 4C3.22386 4 3 4.22386 3 4.5V11.5C3 11.7761 3.22386 12 3.5 12C3.77614 12 4 11.7761 4 11.5V4.5C4 4.22386 3.77614 4 3.5 4Z" fill="black"/>
</svg>
