<svg width="16" height="16" viewBox="0 0 16 16" fill="none" xmlns="http://www.w3.org/2000/svg">
<path d="M15 11.2V3.73333L8.60941 0V2.86667L11.1129 4.33333C11.2118 4.4 11.2118 4.53333 11.1129 4.56667L8.14824 6.3C8.04941 6.36667 7.95059 6.33333 7.88471 6.3L4.92 4.56667C4.82118 4.53333 4.82118 4.36667 4.92 4.33333L7.42353 2.86667V0L1 3.73333V11.2V11.1667V11.2L3.43765 9.76667V6.83333C3.43765 6.73333 3.56941 6.66667 3.63529 6.7L6.6 8.43333C6.69882 8.5 6.73176 8.56667 6.73176 8.66667V12.1333C6.73176 12.2333 6.6 12.3 6.53412 12.2667L4.03059 10.8L1.59294 12.2333L7.98353 16L14.3741 12.2667L11.9365 10.8333L9.43294 12.3C9.33412 12.3667 9.23529 12.3 9.23529 12.1667V8.7C9.23529 8.6 9.30118 8.5 9.36706 8.46667L12.3318 6.73333C12.4306 6.66667 12.5294 6.73333 12.5294 6.86667V9.8L15 11.2Z" fill="black"/>
</svg>
