<svg width="16" height="16" viewBox="0 0 16 16" fill="none" xmlns="http://www.w3.org/2000/svg">
<path d="M9.5 1.5C9.5 2.32843 8.82843 3 8 3C7.17157 3 6.5 2.32843 6.5 1.5C6.5 0.671573 7.17157 0 8 0C8.82843 0 9.5 0.671573 9.5 1.5Z" fill="black"/>
<path d="M6 5.5L1.46525 5.05816C1.19946 5.02493 1 4.79899 1 4.53113C1 4.23779 1.23779 4 1.53113 4H14.4689C14.7622 4 15 4.23779 15 4.53113C15 4.79899 14.8005 5.02493 14.5347 5.05816L10 5.5V9L10.4517 15.4201C10.4777 15.7323 10.2313 16 9.91807 16C9.67237 16 9.45819 15.8328 9.3986 15.5944L8.24254 9.97014C8.17941 9.71765 7.82059 9.71765 7.75746 9.97014L6.6014 15.5944C6.5418 15.8328 6.32763 16 6.08193 16C5.76867 16 5.52231 15.7323 5.54833 15.4201L6 9V5.5Z" fill="black"/>
</svg>
