<svg width="16" height="16" viewBox="0 0 16 16" fill="none" xmlns="http://www.w3.org/2000/svg">
<path d="M8 4.14286C8.59173 4.14286 9.07143 3.66316 9.07143 3.07143C9.07143 2.47969 8.59173 2 8 2C7.40827 2 6.92857 2.47969 6.92857 3.07143C6.92857 3.66316 7.40827 4.14286 8 4.14286Z" fill="black"/>
<path d="M3.33232 5.61297L6.57143 5.92857V8.42857L6.24881 13.0143C6.23022 13.2373 6.40619 13.4286 6.62995 13.4286C6.80545 13.4286 6.95843 13.3091 7.001 13.1389L7.82676 9.12153C7.87185 8.94118 8.12815 8.94118 8.17324 9.12153L8.999 13.1389C9.04157 13.3091 9.19455 13.4286 9.37005 13.4286C9.59381 13.4286 9.76978 13.2373 9.7512 13.0143L9.42857 8.42857V5.92857L12.6677 5.61297C12.8575 5.58924 13 5.42785 13 5.23652C13 5.027 12.8301 4.85714 12.6206 4.85714H3.37938C3.16985 4.85714 3 5.027 3 5.23652C3 5.42785 3.14247 5.58924 3.33232 5.61297Z" fill="black"/>
<path d="M8 0C3.58172 0 0 3.58172 0 8C0 12.4183 3.58172 16 8 16C12.4183 16 16 12.4183 16 8C16 3.58172 12.4183 0 8 0ZM1 8C1 4.13401 4.13401 1 8 1C11.866 1 15 4.13401 15 8C15 11.866 11.866 15 8 15C4.13401 15 1 11.866 1 8Z" fill="black"/>
</svg>
