<svg width="16" height="16" viewBox="0 0 16 16" fill="none" xmlns="http://www.w3.org/2000/svg">
<path d="M1.5 1C1.22386 1 1 1.22386 1 1.5V4.5C1 4.77614 0.776142 5 0.5 5C0.223858 5 0 4.77614 0 4.5V1.5C0 0.671573 0.671573 0 1.5 0H4.5C4.77614 0 5 0.223858 5 0.5C5 0.776142 4.77614 1 4.5 1H1.5ZM11 0.5C11 0.223858 11.2239 0 11.5 0H14.5C15.3284 0 16 0.671573 16 1.5V4.5C16 4.77614 15.7761 5 15.5 5C15.2239 5 15 4.77614 15 4.5V1.5C15 1.22386 14.7761 1 14.5 1H11.5C11.2239 1 11 0.776142 11 0.5ZM0.5 11C0.776142 11 1 11.2239 1 11.5V14.5C1 14.7761 1.22386 15 1.5 15H4.5C4.77614 15 5 15.2239 5 15.5C5 15.7761 4.77614 16 4.5 16H1.5C0.671573 16 0 15.3284 0 14.5V11.5C0 11.2239 0.223858 11 0.5 11ZM15.5 11C15.7761 11 16 11.2239 16 11.5V14.5C16 15.3284 15.3284 16 14.5 16H11.5C11.2239 16 11 15.7761 11 15.5C11 15.2239 11.2239 15 11.5 15H14.5C14.7761 15 15 14.7761 15 14.5V11.5C15 11.2239 15.2239 11 15.5 11Z" fill="black"/>
<path d="M3 4.5C3 4.22386 3.22386 4 3.5 4C3.77614 4 4 4.22386 4 4.5V11.5C4 11.7761 3.77614 12 3.5 12C3.22386 12 3 11.7761 3 11.5V4.5Z" fill="black"/>
<path d="M5 4.5C5 4.22386 5.22386 4 5.5 4C5.77614 4 6 4.22386 6 4.5V11.5C6 11.7761 5.77614 12 5.5 12C5.22386 12 5 11.7761 5 11.5V4.5Z" fill="black"/>
<path d="M7 4.5C7 4.22386 7.22386 4 7.5 4C7.77614 4 8 4.22386 8 4.5V11.5C8 11.7761 7.77614 12 7.5 12C7.22386 12 7 11.7761 7 11.5V4.5Z" fill="black"/>
<path d="M9 4.5C9 4.22386 9.22386 4 9.5 4H10.5C10.7761 4 11 4.22386 11 4.5V11.5C11 11.7761 10.7761 12 10.5 12H9.5C9.22386 12 9 11.7761 9 11.5V4.5Z" fill="black"/>
<path d="M12 4.5C12 4.22386 12.2239 4 12.5 4C12.7761 4 13 4.22386 13 4.5V11.5C13 11.7761 12.7761 12 12.5 12C12.2239 12 12 11.7761 12 11.5V4.5Z" fill="black"/>
</svg>
