<svg width="16" height="16" viewBox="0 0 16 16" fill="none" xmlns="http://www.w3.org/2000/svg">
<path d="M3 4.5C3 4.22386 3.22386 4 3.5 4C3.77614 4 4 4.22386 4 4.5V11.5C4 11.7761 3.77614 12 3.5 12C3.22386 12 3 11.7761 3 11.5V4.5Z" fill="black"/>
<path d="M5 4.5C5 4.22386 5.22386 4 5.5 4C5.77614 4 6 4.22386 6 4.5V11.5C6 11.7761 5.77614 12 5.5 12C5.22386 12 5 11.7761 5 11.5V4.5Z" fill="black"/>
<path d="M7 4.5C7 4.22386 7.22386 4 7.5 4C7.77614 4 8 4.22386 8 4.5V11.5C8 11.7761 7.77614 12 7.5 12C7.22386 12 7 11.7761 7 11.5V4.5Z" fill="black"/>
<path d="M9 4.5C9 4.22386 9.22386 4 9.5 4H10.5C10.7761 4 11 4.22386 11 4.5V11.5C11 11.7761 10.7761 12 10.5 12H9.5C9.22386 12 9 11.7761 9 11.5V4.5Z" fill="black"/>
<path d="M12 4.5C12 4.22386 12.2239 4 12.5 4C12.7761 4 13 4.22386 13 4.5V11.5C13 11.7761 12.7761 12 12.5 12C12.2239 12 12 11.7761 12 11.5V4.5Z" fill="black"/>
</svg>
