<svg width="16" height="16" viewBox="0 0 16 16" fill="none" xmlns="http://www.w3.org/2000/svg">
<path d="M6 0.5C6 0.223858 6.22386 0 6.5 0H10.5C10.7761 0 11 0.223858 11 0.5V4.5H6V0.5ZM7 1V2H8V1H7ZM9 1V2H10V1H9Z" fill="black"/>
<path d="M6 5C5.44772 5 5 5.44771 5 6V10.3944C5 10.888 5.14609 11.3705 5.41987 11.7812L6.4585 13.3391C6.81159 13.8688 7 14.4911 7 15.1276C7 15.6094 7.39059 16 7.87242 16H9.12758C9.60941 16 10 15.6094 10 15.1276C10 14.4911 10.1884 13.8688 10.5415 13.3391L11.5801 11.7812C11.8539 11.3705 12 10.888 12 10.3944V6C12 5.44772 11.5523 5 11 5H6ZM6 6H11V10.3944C11 10.6906 10.9123 10.9801 10.7481 11.2265L9.70945 12.7844C9.27047 13.4429 9.02577 14.2107 9.00193 15H7.99807C7.97423 14.2107 7.72953 13.4429 7.29055 12.7844L6.25192 11.2265C6.08766 10.9801 6 10.6906 6 10.3944V6Z" fill="black"/>
</svg>
