<svg width="16" height="16" viewBox="0 0 16 16" fill="none" xmlns="http://www.w3.org/2000/svg">
<path d="M3.5 8C3.22386 8 3 8.22386 3 8.5V9.5C3 9.77614 3.22386 10 3.5 10H12.5C12.7761 10 13 9.77614 13 9.5V8.5C13 8.22386 12.7761 8 12.5 8H3.5Z" fill="black"/>
<path d="M3 3C2.44772 3 2 3.44772 2 4V5.29289L0.292893 7C0.105357 7.18754 0 7.44189 0 7.70711V12C0 12.5523 0.447715 13 1 13H15C15.5523 13 16 12.5523 16 12V7.70711C16 7.44189 15.8946 7.18754 15.7071 7L14 5.29289V4C14 3.44772 13.5523 3 13 3H3ZM3 4H13V5.29289C13 5.55811 13.1054 5.81246 13.2929 6L15 7.70711V12H1L1 7.70711L2.70711 6C2.89464 5.81246 3 5.55811 3 5.29289V4Z" fill="black"/>
</svg>
