<svg width="16" height="16" viewBox="0 0 16 16" fill="none" xmlns="http://www.w3.org/2000/svg">
<path d="M6 0.5C6 0.223858 6.22386 0 6.5 0H10.5C10.7761 0 11 0.223858 11 0.5V4.5H6V0.5ZM7 1V2H8V1H7ZM9 1V2H10V1H9Z" fill="black"/>
<path d="M5.5 5C5.22386 5 5 5.22386 5 5.5V10.3944C5 10.7893 5.11688 11.1753 5.3359 11.5038L6.16604 12.7491C6.70982 13.5647 7 14.5231 7 15.5034C7 15.7777 7.22231 16 7.49655 16H9.50345C9.77769 16 10 15.7777 10 15.5034C10 14.5231 10.2902 13.5647 10.834 12.7491L11.6641 11.5038C11.8831 11.1753 12 10.7893 12 10.3944V5.5C12 5.22386 11.7761 5 11.5 5H5.5Z" fill="black"/>
</svg>
