<svg width="16" height="16" viewBox="0 0 16 16" fill="none" xmlns="http://www.w3.org/2000/svg">
<path d="M4.5 7C4.22386 7 4 7.22386 4 7.5V8.5C4 8.77614 4.22386 9 4.5 9H11.5C11.7761 9 12 8.77614 12 8.5V7.5C12 7.22386 11.7761 7 11.5 7H4.5Z" fill="black"/>
<path d="M2.70711 4C2.44189 4 2.18754 4.10536 2 4.29289L0.292893 6C0.105357 6.18754 0 6.44189 0 6.70711V11C0 11.5523 0.447715 12 1 12H15C15.5523 12 16 11.5523 16 11V6.70711C16 6.44189 15.8946 6.18754 15.7071 6L14 4.29289C13.8125 4.10536 13.5581 4 13.2929 4H2.70711ZM2.70711 5H13.2929L15 6.70711V11H1L1 6.70711L2.70711 5Z" fill="black"/>
</svg>
