<svg width="16" height="16" viewBox="0 0 16 16" fill="none" xmlns="http://www.w3.org/2000/svg">
<path d="M3.5 7.5C3.22386 7.5 3 7.72386 3 8C3 8.27614 3.22386 8.5 3.5 8.5H12.5C12.7761 8.5 13 8.27614 13 8C13 7.72386 12.7761 7.5 12.5 7.5H3.5Z" fill="black"/>
<path d="M0 8C0 6.34315 1.34315 5 3 5H13C14.6569 5 16 6.34315 16 8C16 9.65685 14.6569 11 13 11H3C1.34315 11 0 9.65685 0 8ZM3 6C1.89543 6 1 6.89543 1 8C1 9.10457 1.89543 10 3 10H13C14.1046 10 15 9.10457 15 8C15 6.89543 14.1046 6 13 6H3Z" fill="black"/>
</svg>
