<svg width="16" height="16" viewBox="0 0 16 16" fill="none" xmlns="http://www.w3.org/2000/svg">
<path d="M8 6.49272C9.66439 4.78197 13.8254 7.77578 8 11.625C2.17465 7.77578 6.33561 4.78197 8 6.49272Z" fill="black"/>
<path d="M4.25 2.99997C4.11193 2.99997 4 3.1119 4 3.24997V4.74997C4 4.88804 4.11193 4.99997 4.25 4.99997C4.38807 4.99997 4.5 4.88804 4.5 4.74997V3.49997H5.75C5.88807 3.49997 6 3.38804 6 3.24997C6 3.1119 5.88807 2.99997 5.75 2.99997H4.25Z" fill="black"/>
<path d="M10.25 2.99997C10.1119 2.99997 10 3.1119 10 3.24997C10 3.38804 10.1119 3.49997 10.25 3.49997H11.5V4.74997C11.5 4.88804 11.6119 4.99997 11.75 4.99997C11.8881 4.99997 12 4.88804 12 4.74997V3.24997C12 3.1119 11.8881 2.99997 11.75 2.99997H10.25Z" fill="black"/>
<path d="M4.5 12.25C4.5 12.1119 4.38807 12 4.25 12C4.11193 12 4 12.1119 4 12.25V13.75C4 13.888 4.11193 14 4.25 14H5.75C5.88807 14 6 13.888 6 13.75C6 13.6119 5.88807 13.5 5.75 13.5H4.5V12.25Z" fill="black"/>
<path d="M12 12.25C12 12.1119 11.8881 12 11.75 12C11.6119 12 11.5 12.1119 11.5 12.25V13.5H10.25C10.1119 13.5 10 13.6119 10 13.75C10 13.888 10.1119 14 10.25 14H11.75C11.8881 14 12 13.888 12 13.75V12.25Z" fill="black"/>
<path fill-rule="evenodd" clip-rule="evenodd" d="M2.00002 1.99362V1.95247C2.00002 1.43871 2.38931 1.00855 2.90052 0.957428L11.9005 0.0574284C12.4717 0.000312768 12.9695 0.433775 12.9987 0.999972H13C13.5523 0.999972 14 1.44769 14 1.99997V15C14 15.5523 13.5523 16 13 16H3C2.44772 16 2 15.5523 2 15V1.99997L2.00002 1.99362ZM3 1.99997V15H13V1.99997L3 1.99997Z" fill="black"/>
</svg>
