<svg width="16" height="16" viewBox="0 0 16 16" fill="none" xmlns="http://www.w3.org/2000/svg">
<path d="M8 5.99273C9.66439 4.28198 13.8254 7.27579 8 11.125C2.17465 7.27579 6.33561 4.28198 8 5.99273Z" fill="black"/>
<path d="M2.25 4C2.11193 4 2 4.11193 2 4.25V5.75C2 5.88807 2.11193 6 2.25 6C2.38807 6 2.5 5.88807 2.5 5.75V4.5H3.75C3.88807 4.5 4 4.38807 4 4.25C4 4.11193 3.88807 4 3.75 4H2.25Z" fill="black"/>
<path d="M12.25 4C12.1119 4 12 4.11193 12 4.25C12 4.38807 12.1119 4.5 12.25 4.5H13.5V5.75C13.5 5.88807 13.6119 6 13.75 6C13.8881 6 14 5.88807 14 5.75V4.25C14 4.11193 13.8881 4 13.75 4H12.25Z" fill="black"/>
<path d="M2.5 10.25C2.5 10.1119 2.38807 10 2.25 10C2.11193 10 2 10.1119 2 10.25V11.75C2 11.8881 2.11193 12 2.25 12H3.75C3.88807 12 4 11.8881 4 11.75C4 11.6119 3.88807 11.5 3.75 11.5H2.5V10.25Z" fill="black"/>
<path d="M14 10.25C14 10.1119 13.8881 10 13.75 10C13.6119 10 13.5 10.1119 13.5 10.25V11.5H12.25C12.1119 11.5 12 11.6119 12 11.75C12 11.8881 12.1119 12 12.25 12H13.75C13.8881 12 14 11.8881 14 11.75V10.25Z" fill="black"/>
<path fill-rule="evenodd" clip-rule="evenodd" d="M1.97366e-05 2.99363V2.93363C1.97366e-05 2.43598 0.365949 2.01405 0.858598 1.94368L13.8586 0.0865323C14.461 0.000470296 15 0.467934 15 1.07648V1.99998C15.5523 1.99999 16 2.4477 16 2.99998V13C16 13.5523 15.5523 14 15 14H1C0.447716 14 0 13.5523 0 13V2.99998L1.97366e-05 2.99363ZM1 2.99998V13H15V2.99998L1 2.99998Z" fill="black"/>
</svg>
