<svg width="16" height="16" viewBox="0 0 16 16" fill="none" xmlns="http://www.w3.org/2000/svg">
<path fill-rule="evenodd" clip-rule="evenodd" d="M10.6463 0.646447C10.8416 0.451184 11.1582 0.451184 11.3534 0.646447L15.3534 4.64645C15.5487 4.84171 15.5487 5.15829 15.3534 5.35355L13.4514 7.25563L12.6229 10.5694C12.4946 11.0827 12.1054 11.4903 11.5987 11.6424L1.25415 14.7457L4.35752 4.40116C4.50954 3.89445 4.91723 3.50528 5.43046 3.37697L8.74426 2.54852L10.6463 0.646447ZM8.84651 3.55373L5.67299 4.34711C5.50192 4.38988 5.36602 4.5196 5.31535 4.68851L2.74562 13.2543L11.3114 10.6845C11.4803 10.6339 11.61 10.498 11.6528 10.3269L12.4462 7.15338L8.84651 3.55373Z" fill="black"/>
<path fill-rule="evenodd" clip-rule="evenodd" d="M2.83184 13.2284L7.99993 9C8.55222 9 8.99993 8.55228 8.99993 8C8.99993 7.44772 8.55222 7 7.99993 7C7.44765 7 6.99993 7.44772 6.99993 8L2.77148 13.168L2.74562 13.2543L2.83184 13.2284Z" fill="black"/>
</svg>
