<svg width="16" height="16" viewBox="0 0 16 16" fill="none" xmlns="http://www.w3.org/2000/svg">
<path d="M3 0H13C14.1046 0 15 0.895431 15 2V5C15 6.10457 14.1046 7 13 7H3C1.89543 7 1 6.10457 1 5V2C1 0.89543 1.89543 0 3 0ZM3 1C2.44772 1 2 1.44772 2 2V5C2 5.55228 2.44772 6 3 6H13C13.5523 6 14 5.55228 14 5V2C14 1.44772 13.5523 1 13 1H3Z" fill="black"/>
<path d="M3 9H13C14.1046 9 15 9.89543 15 11V14C15 15.1046 14.1046 16 13 16H3C1.89543 16 1 15.1046 1 14V11C1 9.89543 1.89543 9 3 9ZM3 10C2.44772 10 2 10.4477 2 11V14C2 14.5523 2.44772 15 3 15H13C13.5523 15 14 14.5523 14 14V11C14 10.4477 13.5523 10 13 10H3Z" fill="black"/>
</svg>
