<svg width="16" height="16" viewBox="0 0 16 16" fill="none" xmlns="http://www.w3.org/2000/svg">
<path fill-rule="evenodd" clip-rule="evenodd" d="M8 1C4.13401 1 1 4.13401 1 8C1 11.866 4.13401 15 8 15C11.866 15 15 11.866 15 8C15 4.13401 11.866 1 8 1ZM0 8C0 3.58172 3.58172 0 8 0C12.4183 0 16 3.58172 16 8C16 12.4183 12.4183 16 8 16C3.58172 16 0 12.4183 0 8Z" fill="black"/>
<path d="M8.5 4.5C8.5 4.77614 8.27614 5 8 5C7.72386 5 7.5 4.77614 7.5 4.5C7.5 4.22386 7.72386 4 8 4C8.27614 4 8.5 4.22386 8.5 4.5Z" fill="black"/>
<path d="M8.5 11.5C8.5 11.7761 8.27614 12 8 12C7.72386 12 7.5 11.7761 7.5 11.5C7.5 11.2239 7.72386 11 8 11C8.27614 11 8.5 11.2239 8.5 11.5Z" fill="black"/>
<path d="M10.183 5.2189C10.045 5.45805 9.73918 5.53999 9.50003 5.40191C9.26088 5.26384 9.17895 4.95805 9.31702 4.7189C9.45509 4.47975 9.76088 4.39782 10 4.53589C10.2392 4.67396 10.3211 4.97975 10.183 5.2189Z" fill="black"/>
<path d="M6.68304 11.2811C6.54497 11.5202 6.23918 11.6022 6.00003 11.4641C5.76088 11.326 5.67895 11.0202 5.81702 10.7811C5.95509 10.5419 6.26088 10.46 6.50003 10.5981C6.73918 10.7361 6.82111 11.0419 6.68304 11.2811Z" fill="black"/>
<path d="M11.2811 6.68304C11.042 6.82111 10.7362 6.73918 10.5981 6.50003C10.46 6.26088 10.542 5.95509 10.7811 5.81702C11.0202 5.67895 11.326 5.76088 11.4641 6.00003C11.6022 6.23918 11.5202 6.54497 11.2811 6.68304Z" fill="black"/>
<path d="M5.21892 10.183C4.97977 10.3211 4.67398 10.2392 4.53591 10C4.39784 9.76088 4.47977 9.45509 4.71892 9.31702C4.95807 9.17895 5.26386 9.26088 5.40193 9.50003C5.54 9.73917 5.45807 10.045 5.21892 10.183Z" fill="black"/>
<path d="M11.5 8.5C11.2239 8.5 11 8.27614 11 8C11 7.72386 11.2239 7.5 11.5 7.5C11.7761 7.5 12 7.72386 12 8C12 8.27614 11.7761 8.5 11.5 8.5Z" fill="black"/>
<path d="M4.5 8.5C4.22386 8.5 4 8.27614 4 8C4 7.72386 4.22386 7.5 4.5 7.5C4.77614 7.5 5 7.72386 5 8C5 8.27614 4.77614 8.5 4.5 8.5Z" fill="black"/>
<path d="M10.7811 10.183C10.542 10.045 10.46 9.73918 10.5981 9.50003C10.7362 9.26088 11.042 9.17895 11.2811 9.31702C11.5202 9.45509 11.6022 9.76088 11.4641 10C11.326 10.2392 11.0202 10.3211 10.7811 10.183Z" fill="black"/>
<path d="M4.71892 6.68304C4.47977 6.54497 4.39784 6.23917 4.53591 6.00003C4.67398 5.76088 4.97977 5.67895 5.21892 5.81702C5.45807 5.95509 5.54 6.26088 5.40193 6.50003C5.26386 6.73918 4.95807 6.82111 4.71892 6.68304Z" fill="black"/>
<path d="M9.31696 11.2811C9.17889 11.042 9.26082 10.7362 9.49997 10.5981C9.73912 10.46 10.0449 10.542 10.183 10.7811C10.3211 11.0202 10.2391 11.326 9.99997 11.4641C9.76082 11.6022 9.45503 11.5202 9.31696 11.2811Z" fill="black"/>
<path d="M5.81696 5.21892C5.67889 4.97977 5.76082 4.67398 5.99997 4.53591C6.23912 4.39784 6.54491 4.47977 6.68298 4.71892C6.82105 4.95807 6.73912 5.26386 6.49997 5.40193C6.26082 5.54 5.95503 5.45807 5.81696 5.21892Z" fill="black"/>
</svg>
