<svg width="16" height="16" viewBox="0 0 16 16" fill="none" xmlns="http://www.w3.org/2000/svg">
<path d="M8 15C4.13401 15 1 11.866 1 8C1 4.13401 4.13401 1 8 1C11.866 1 15 4.13401 15 8C15 11.866 11.866 15 8 15ZM8 16C12.4183 16 16 12.4183 16 8C16 3.58172 12.4183 0 8 0C3.58172 0 0 3.58172 0 8C0 12.4183 3.58172 16 8 16Z" fill="black"/>
<path d="M8 6C6.89543 6 6 6.89543 6 8C6 9.10457 6.89543 10 8 10C9.10457 10 10 9.10457 10 8C10 6.89543 9.10457 6 8 6ZM4 8C4 5.79086 5.79086 4 8 4C10.2091 4 12 5.79086 12 8C12 10.2091 10.2091 12 8 12C5.79086 12 4 10.2091 4 8Z" fill="black"/>
<path d="M9 8C9 8.55229 8.55229 9 8 9C7.44772 9 7 8.55229 7 8C7 7.44772 7.44772 7 8 7C8.55229 7 9 7.44772 9 8Z" fill="black"/>
</svg>
