<svg width="16" height="16" viewBox="0 0 16 16" fill="none" xmlns="http://www.w3.org/2000/svg">
<path d="M8.00007 0C7.44779 0 7.00007 0.447715 7.00007 1V2.14289C7.00007 2.6998 6.59281 3.16834 6.07873 3.3825C5.5647 3.59664 4.95972 3.54547 4.56596 3.15172L3.75739 2.34315C3.36687 1.95262 2.7337 1.95262 2.34318 2.34315C1.95265 2.73367 1.95265 3.36684 2.34318 3.75736L3.15181 4.56599C3.54554 4.95972 3.59671 5.56467 3.38259 6.07868C3.16845 6.59275 2.69991 7 2.14302 7H0.999999C0.447714 7 0 7.44772 0 8C0 8.55229 0.447715 9 1 9H2.14303C2.69992 9 3.16845 9.40725 3.38259 9.92132C3.59671 10.4353 3.54554 11.0403 3.15181 11.434L2.34316 12.2426C1.95264 12.6332 1.95264 13.2663 2.34316 13.6569C2.73369 14.0474 3.36685 14.0474 3.75738 13.6569L4.56595 12.8483C4.95971 12.4545 5.56469 12.4034 6.07873 12.6175C6.59281 12.8317 7.00007 13.3002 7.00007 13.8571V15C7.00007 15.5523 7.44779 16 8.00007 16C8.55236 16 9.00007 15.5523 9.00007 15V13.8571C9.00007 13.3002 9.40734 12.8317 9.92143 12.6175C10.4354 12.4034 11.0404 12.4546 11.4341 12.8483L12.2427 13.6569C12.6332 14.0474 13.2664 14.0474 13.6569 13.6569C14.0474 13.2663 14.0474 12.6332 13.6569 12.2426L12.8484 11.4342C12.4547 11.0404 12.4035 10.4354 12.6176 9.92137C12.8318 9.40728 13.3003 9 13.8573 9H15C15.5523 9 16 8.55229 16 8C16 7.44772 15.5523 7 15 7H13.8573C13.3004 7 12.8318 6.59272 12.6176 6.07863C12.4035 5.56458 12.4547 4.95958 12.8484 4.56581L13.6569 3.75736C14.0474 3.36684 14.0474 2.73367 13.6569 2.34315C13.2663 1.95262 12.6332 1.95262 12.2427 2.34315L11.4341 3.15167C11.0404 3.54541 10.4354 3.59658 9.92142 3.38246C9.40734 3.16831 9.00007 2.69977 9.00007 2.14287V1C9.00007 0.447716 8.55236 0 8.00007 0ZM10.0001 5C10.0001 5.55228 9.55241 6 9.00012 6C8.44784 6 8.00012 5.55228 8.00012 5C8.00012 4.44772 8.44784 4 9.00012 4C9.55241 4 10.0001 4.44772 10.0001 5ZM7.00012 7C7.00012 7.55228 6.55241 8 6.00012 8C5.44784 8 5.00012 7.55228 5.00012 7C5.00012 6.44772 5.44784 6 6.00012 6C6.55241 6 7.00012 6.44772 7.00012 7ZM8.00012 12C7.44784 12 7.00012 11.5523 7.00012 11C7.00012 10.4477 7.44784 10 8.00012 10C8.55241 10 9.00012 10.4477 9.00012 11C9.00012 11.5523 8.55241 12 8.00012 12ZM12.0001 8C12.0001 8.55228 11.5524 9 11.0001 9C10.4478 9 10.0001 8.55228 10.0001 8C10.0001 7.44772 10.4478 7 11.0001 7C11.5524 7 12.0001 7.44772 12.0001 8Z" fill="black"/>
</svg>
