<svg width="16" height="16" viewBox="0 0 16 16" fill="none" xmlns="http://www.w3.org/2000/svg">
<path d="M8 0C8.55229 0 9 0.447715 9 1V2.40183C9 2.91338 9.67724 3.09484 9.93301 2.65183L10.6339 1.43783C10.9101 0.959535 11.5216 0.79566 11.9999 1.0718C12.4782 1.34794 12.6421 1.95954 12.366 2.43783L11.665 3.65196C11.4092 4.09498 11.905 4.59075 12.348 4.33497L13.5622 3.63398C14.0405 3.35784 14.652 3.52171 14.9282 4C15.2043 4.4783 15.0405 5.08989 14.5622 5.36603L13.3481 6.06699C12.905 6.32276 13.0865 7 13.5981 7H15C15.5523 7 16 7.44771 16 8C16 8.55228 15.5523 9 15 9H13.5981C13.0865 9 12.9051 9.67724 13.3481 9.93301L14.5622 10.634C15.0405 10.9101 15.2044 11.5217 14.9282 12C14.6521 12.4783 14.0405 12.6422 13.5622 12.366L12.3482 11.6651C11.9051 11.4093 11.4094 11.9051 11.6651 12.3481L12.3661 13.5622C12.6422 14.0405 12.4784 14.6521 12.0001 14.9282C11.5218 15.2043 10.9102 15.0405 10.634 14.5622L9.93301 13.348C9.67724 12.905 9 13.0864 9 13.598V15C9 15.5523 8.55229 16 8 16C7.44772 16 7 15.5523 7 15V13.598C7 13.0864 6.32276 12.905 6.06699 13.348L5.36597 14.5622C5.08982 15.0405 4.47823 15.2043 3.99994 14.9282C3.52165 14.6521 3.35777 14.0405 3.63392 13.5622L4.33486 12.3481C4.59064 11.9051 4.09486 11.4093 3.65185 11.6651L2.4378 12.366C1.95951 12.6422 1.34792 12.4783 1.07178 12C0.795635 11.5217 0.95951 10.9101 1.4378 10.634L2.65191 9.93301C3.09492 9.67724 2.91346 9 2.40191 9H1C0.447715 9 0 8.55229 0 8C0 7.44772 0.447715 7 1 7H2.40192C2.91347 7 3.09494 6.32276 2.65192 6.06699L1.43783 5.36603C0.959535 5.08989 0.79566 4.4783 1.0718 4C1.34795 3.52171 1.95954 3.35784 2.43783 3.63398L3.65201 4.33499C4.09503 4.59076 4.5908 4.09499 4.33502 3.65197L3.63403 2.43783C3.35789 1.95953 3.52177 1.34794 4.00006 1.0718C4.47835 0.795658 5.08994 0.959533 5.36608 1.43783L6.06699 2.65183C6.32276 3.09484 7 2.91338 7 2.40183V1C7 0.447715 7.44772 0 8 0ZM10 5C10 4.44772 9.55228 4 9 4C8.44772 4 8 4.44772 8 5C8 5.55228 8.44772 6 9 6C9.55228 6 10 5.55228 10 5ZM6 7C6 6.44772 5.55228 6 5 6C4.44772 6 4 6.44772 4 7C4 7.55228 4.44772 8 5 8C5.55228 8 6 7.55228 6 7ZM7 11C7.55228 11 8 10.5523 8 10C8 9.44772 7.55228 9 7 9C6.44772 9 6 9.44772 6 10C6 10.5523 6.44772 11 7 11ZM12 8C12 7.44772 11.5523 7 11 7C10.4477 7 10 7.44772 10 8C10 8.55228 10.4477 9 11 9C11.5523 9 12 8.55228 12 8Z" fill="black"/>
</svg>
