<svg width="16" height="16" viewBox="0 0 16 16" fill="none" xmlns="http://www.w3.org/2000/svg">
<path d="M7 8.5C7 9.47934 6.59777 10.3647 5.94949 11H10.0505C9.40223 10.3647 9 9.47934 9 8.5C9 6.567 10.567 5 12.5 5C14.433 5 16 6.567 16 8.5C16 10.433 14.433 12 12.5 12H3.5C1.567 12 0 10.433 0 8.5C0 6.567 1.567 5 3.5 5C5.433 5 7 6.567 7 8.5ZM1 8.5C1 9.88071 2.11929 11 3.5 11C4.88071 11 6 9.88071 6 8.5C6 7.11929 4.88071 6 3.5 6C2.11929 6 1 7.11929 1 8.5ZM15 8.5C15 7.11929 13.8807 6 12.5 6C11.1193 6 10 7.11929 10 8.5C10 9.88071 11.1193 11 12.5 11C13.8807 11 15 9.88071 15 8.5Z" fill="black"/>
</svg>
