<svg width="16" height="16" viewBox="0 0 16 16" fill="none" xmlns="http://www.w3.org/2000/svg">
<path d="M11.5355 14.0104C13.0737 12.4722 14.0251 10.3472 14.0251 8.00003C14.0251 5.65282 13.0737 3.52782 11.5355 1.98962L10.8284 2.69673C12.1857 4.05396 13.0251 5.92896 13.0251 8.00003C13.0251 10.0711 12.1857 11.9461 10.8284 13.3033L11.5355 14.0104Z" fill="black"/>
<path d="M10.1213 12.5962C11.2976 11.42 12.0251 9.79496 12.0251 8.00003C12.0251 6.20511 11.2976 4.58011 10.1213 3.40384L9.41421 4.11094C10.4095 5.10625 11.0251 6.48125 11.0251 8.00003C11.0251 9.51882 10.4095 10.8938 9.41421 11.8891L10.1213 12.5962Z" fill="black"/>
<path d="M8.70711 11.182C9.52145 10.3677 10.0251 9.24267 10.0251 8.00003C10.0251 6.75739 9.52145 5.63239 8.70711 4.81805L8 5.52516C8.63338 6.15853 9.02513 7.03353 9.02513 8.00003C9.02513 8.96653 8.63338 9.84153 8 10.4749L8.70711 11.182Z" fill="black"/>
<path d="M6.71659 3.54938C6.88983 3.63264 7 3.80783 7 4.00004V12C7 12.1922 6.88983 12.3674 6.71659 12.4507C6.54336 12.5339 6.33774 12.5105 6.18765 12.3905L3.82461 10.5H1.5C1.22386 10.5 1 10.2762 1 10V6.00004C1 5.72389 1.22386 5.50004 1.5 5.50004H3.82461L6.18765 3.6096C6.33774 3.48953 6.54336 3.46612 6.71659 3.54938Z" fill="black"/>
</svg>
