<svg width="16" height="16" viewBox="0 0 16 16" fill="none" xmlns="http://www.w3.org/2000/svg">
<path d="M10.7166 3.54935C10.8898 3.63261 11 3.8078 11 4V12C11 12.1922 10.8898 12.3674 10.7166 12.4507C10.5434 12.5339 10.3377 12.5105 10.1877 12.3904L7.82461 10.5H5.5C5.22386 10.5 5 10.2761 5 10V6C5 5.72386 5.22386 5.5 5.5 5.5H7.82461L10.1877 3.60957C10.3377 3.4895 10.5434 3.46609 10.7166 3.54935ZM10 5.04032L8.31235 6.39044C8.22369 6.46136 8.11354 6.5 8 6.5H6V9.5H8C8.11354 9.5 8.22369 9.53865 8.31235 9.60957L10 10.9597V5.04032Z" fill="black"/>
</svg>
