<svg width="16" height="16" viewBox="0 0 16 16" fill="none" xmlns="http://www.w3.org/2000/svg">
<path d="M3 12V4C3 3.44772 3.44772 3 4 3H6.5V2H4C2.89543 2 2 2.89543 2 4V12C2 13.1046 2.89543 14 4 14H6.5V13H4C3.44772 13 3 12.5523 3 12Z" fill="black"/>
<path d="M9.5 13V14H12C13.1046 14 14 13.1046 14 12V4C14 2.89543 13.1046 2 12 2H9.5V3H12C12.5523 3 13 3.44772 13 4V12C13 12.5523 12.5523 13 12 13H9.5Z" fill="black"/>
<path d="M8 16C7.72386 16 7.5 15.7761 7.5 15.5V0.5C7.5 0.223858 7.72386 0 8 0C8.27614 0 8.5 0.223858 8.5 0.5V15.5C8.5 15.7761 8.27614 16 8 16Z" fill="black"/>
</svg>
