<svg width="16" height="16" viewBox="0 0 16 16" fill="none" xmlns="http://www.w3.org/2000/svg">
<path d="M12.1362 0.325554C13.0829 0.0888744 14 0.804911 14 1.78077V2.99999H14.5C15.3284 2.99999 16 3.67156 16 4.49999V13.5C16 14.3284 15.3284 15 14.5 15H1.5C0.671573 15 0 14.3284 0 13.5V4.49999C0 3.69419 0.635386 3.0368 1.43248 3.00148L12.1362 0.325554ZM5.56155 2.99999H13V1.78077C13 1.45548 12.6943 1.2168 12.3787 1.2957L5.56155 2.99999ZM1.5 3.99999C1.22386 3.99999 1 4.22385 1 4.49999V13.5C1 13.7761 1.22386 14 1.5 14H14.5C14.7761 14 15 13.7761 15 13.5V4.49999C15 4.22385 14.7761 3.99999 14.5 3.99999H1.5Z" fill="black"/>
</svg>
