<svg width="16" height="16" viewBox="0 0 16 16" fill="none" xmlns="http://www.w3.org/2000/svg">
<path d="M8.5 5C8.5 4.72386 8.27614 4.5 8 4.5C7.72386 4.5 7.5 4.72386 7.5 5V7.5H6C5.72386 7.5 5.5 7.72386 5.5 8C5.5 8.27614 5.72386 8.5 6 8.5H8C8.27614 8.5 8.5 8.27614 8.5 8V5Z" fill="black"/>
<path d="M5.66667 16C4.74619 16 4 15.2538 4 14.3333V12.4722C2.7725 11.3736 2 9.777 2 8C2 6.223 2.7725 4.62643 4 3.52779V1.66667C4 0.746191 4.74619 0 5.66667 0H10.3333C11.2538 0 12 0.746191 12 1.66667V3.52779C12.9938 4.41722 13.6893 5.633 13.9182 7.00667C13.9448 7.00228 13.9721 7 14 7C14.2761 7 14.5 7.22386 14.5 7.5V8.5C14.5 8.77614 14.2761 9 14 9C13.9721 9 13.9448 8.99772 13.9182 8.99333C13.6893 10.367 12.9938 11.5828 12 12.4722V14.3333C12 15.2538 11.2538 16 10.3333 16H5.66667ZM13 8C13 5.23858 10.7614 3 8 3C5.23858 3 3 5.23858 3 8C3 10.7614 5.23858 13 8 13C10.7614 13 13 10.7614 13 8Z" fill="black"/>
</svg>
