<svg width="16" height="16" viewBox="0 0 16 16" fill="none" xmlns="http://www.w3.org/2000/svg">
<path d="M0.0356505 3.31432C0.138207 3.05792 0.429192 2.93322 0.685584 3.03577L2.4428 3.73866C2.80042 3.88171 3.19936 3.88171 3.55697 3.73866L4.57141 3.33289C5.16744 3.09447 5.83234 3.09447 6.42837 3.33289L7.4428 3.73866C7.80042 3.88171 8.19936 3.88171 8.55697 3.73866L9.57141 3.33289C10.1674 3.09447 10.8323 3.09447 11.4284 3.33289L12.4428 3.73866C12.8004 3.88171 13.1994 3.88171 13.557 3.73866L15.3142 3.03577C15.5706 2.93322 15.8616 3.05792 15.9641 3.31432C16.0667 3.57071 15.942 3.86169 15.6856 3.96425L13.9284 4.66714C13.3323 4.90555 12.6674 4.90555 12.0714 4.66714L11.057 4.26136C10.6994 4.11832 10.3004 4.11832 9.9428 4.26136L8.92837 4.66714C8.33234 4.90555 7.66744 4.90555 7.07141 4.66714L6.05697 4.26136C5.69936 4.11832 5.30042 4.11832 4.9428 4.26136L3.92837 4.66714C3.33234 4.90555 2.66744 4.90555 2.07141 4.66714L0.314194 3.96425C0.0578018 3.86169 -0.0669062 3.57071 0.0356505 3.31432ZM0.0356505 6.31432C0.138207 6.05792 0.429192 5.93322 0.685584 6.03577L2.4428 6.73866C2.80042 6.88171 3.19936 6.88171 3.55697 6.73866L4.57141 6.33289C5.16744 6.09447 5.83234 6.09447 6.42837 6.33289L7.4428 6.73866C7.80042 6.88171 8.19936 6.88171 8.55697 6.73866L9.57141 6.33289C10.1674 6.09447 10.8323 6.09447 11.4284 6.33289L12.4428 6.73866C12.8004 6.88171 13.1994 6.88171 13.557 6.73866L15.3142 6.03577C15.5706 5.93322 15.8616 6.05792 15.9641 6.31432C16.0667 6.57071 15.942 6.86169 15.6856 6.96425L13.9284 7.66714C13.3323 7.90555 12.6674 7.90555 12.0714 7.66714L11.057 7.26136C10.6994 7.11831 10.3004 7.11832 9.9428 7.26136L8.92837 7.66714C8.33234 7.90555 7.66744 7.90555 7.07141 7.66714L6.05697 7.26136C5.69936 7.11831 5.30042 7.11832 4.9428 7.26136L3.92837 7.66714C3.33234 7.90555 2.66744 7.90555 2.07141 7.66714L0.314194 6.96425C0.0578018 6.86169 -0.0669062 6.57071 0.0356505 6.31432ZM0.0356506 9.31432C0.138207 9.05792 0.429192 8.93322 0.685584 9.03577L2.4428 9.73866C2.80042 9.88171 3.19936 9.88171 3.55697 9.73866L4.57141 9.33289C5.16744 9.09447 5.83234 9.09447 6.42837 9.33289L7.4428 9.73866C7.80042 9.88171 8.19936 9.88171 8.55697 9.73866L9.57141 9.33289C10.1674 9.09447 10.8323 9.09447 11.4284 9.33289L12.4428 9.73866C12.8004 9.88171 13.1994 9.88171 13.557 9.73866L15.3142 9.03577C15.5706 8.93322 15.8616 9.05792 15.9641 9.31432C16.0667 9.57071 15.942 9.86169 15.6856 9.96425L13.9284 10.6671C13.3323 10.9055 12.6674 10.9055 12.0714 10.6671L11.057 10.2614C10.6994 10.1183 10.3004 10.1183 9.9428 10.2614L8.92837 10.6671C8.33234 10.9055 7.66744 10.9055 7.07141 10.6671L6.05697 10.2614C5.69936 10.1183 5.30042 10.1183 4.9428 10.2614L3.92837 10.6671C3.33234 10.9055 2.66744 10.9055 2.07141 10.6671L0.314193 9.96425C0.0578017 9.86169 -0.0669062 9.57071 0.0356506 9.31432ZM0.0356506 12.3143C0.138207 12.0579 0.429192 11.9332 0.685584 12.0358L2.4428 12.7387C2.80042 12.8817 3.19936 12.8817 3.55697 12.7387L4.57141 12.3329C5.16744 12.0945 5.83234 12.0945 6.42837 12.3329L7.4428 12.7387C7.80042 12.8817 8.19936 12.8817 8.55697 12.7387L9.57141 12.3329C10.1674 12.0945 10.8323 12.0945 11.4284 12.3329L12.4428 12.7387C12.8004 12.8817 13.1994 12.8817 13.557 12.7387L15.3142 12.0358C15.5706 11.9332 15.8616 12.0579 15.9641 12.3143C16.0667 12.5707 15.942 12.8617 15.6856 12.9642L13.9284 13.6671C13.3323 13.9055 12.6674 13.9055 12.0714 13.6671L11.057 13.2614C10.6994 13.1183 10.3004 13.1183 9.9428 13.2614L8.92837 13.6671C8.33234 13.9055 7.66744 13.9055 7.07141 13.6671L6.05697 13.2614C5.69936 13.1183 5.30042 13.1183 4.9428 13.2614L3.92837 13.6671C3.33234 13.9055 2.66744 13.9055 2.07141 13.6671L0.314193 12.9642C0.0578017 12.8617 -0.0669062 12.5707 0.0356506 12.3143Z" fill="black"/>
</svg>
