<svg width="16" height="16" viewBox="0 0 16 16" fill="none" xmlns="http://www.w3.org/2000/svg">
<path d="M6.64364 11.0936C6.73763 10.9981 6.86601 10.9443 7 10.9443H9C9.13399 10.9443 9.26237 10.9981 9.35636 11.0936C9.53107 11.2711 9.7454 11.4409 9.95906 11.59C10.1616 11.7314 10.3549 11.8483 10.4979 11.93C10.5691 11.9706 10.6271 12.0021 10.6666 12.0231C10.6863 12.0336 10.7014 12.0414 10.7111 12.0464L10.7216 12.0518L10.7236 12.0528C10.931 12.1565 11.0399 12.3892 10.9866 12.6149C10.9333 12.8406 10.7319 13 10.5 13H5.5C5.26811 13 5.06665 12.8406 5.01338 12.6149C4.96012 12.3893 5.06889 12.1567 5.27611 12.0529L5.27836 12.0518L5.28886 12.0464C5.29859 12.0414 5.31365 12.0336 5.33339 12.0231C5.37289 12.0021 5.43088 11.9706 5.50209 11.93C5.64508 11.8483 5.8384 11.7314 6.04094 11.59C6.2546 11.4409 6.46893 11.2711 6.64364 11.0936Z" fill="black"/>
<path d="M7 6.5C7 5.94772 7.44772 5.5 8 5.5C8.55228 5.5 9 5.94772 9 6.5C9 7.05228 8.55228 7.5 8 7.5C7.44772 7.5 7 7.05228 7 6.5Z" fill="black"/>
<path d="M2 3C0.895431 3 0 3.89543 0 5V8C0 9.10457 0.89543 10 2 10H14C15.1046 10 16 9.10457 16 8V5C16 3.89543 15.1046 3 14 3H2ZM8 4.5C9.10457 4.5 10 5.39543 10 6.5C10 7.60457 9.10457 8.5 8 8.5C6.89543 8.5 6 7.60457 6 6.5C6 5.39543 6.89543 4.5 8 4.5ZM12.5 7C12.2239 7 12 6.77614 12 6.5C12 6.22386 12.2239 6 12.5 6C12.7761 6 13 6.22386 13 6.5C13 6.77614 12.7761 7 12.5 7Z" fill="black"/>
</svg>
