<svg width="16" height="16" viewBox="0 0 16 16" fill="none" xmlns="http://www.w3.org/2000/svg">
<path d="M0 6C0 4.89543 0.895431 4 2 4H14C15.1046 4 16 4.89543 16 6V9C16 10.1046 15.1046 11 14 11H9.26874C9.41291 11.1625 9.59922 11.3244 9.8 11.475C10.03 11.6475 10.2627 11.7931 10.4394 11.8962C10.5273 11.9475 10.6001 11.9875 10.6502 12.0143C10.6752 12.0277 10.6945 12.0378 10.707 12.0443L10.7207 12.0513L10.7236 12.0528C10.9309 12.1565 11.0399 12.3892 10.9866 12.6149C10.9333 12.8406 10.7319 13 10.5 13H5.5C5.26811 13 5.06665 12.8406 5.01338 12.6149C4.96012 12.3893 5.06891 12.1567 5.27617 12.0529L5.27926 12.0513L5.29295 12.0443C5.30553 12.0378 5.32481 12.0277 5.34983 12.0143C5.39992 11.9875 5.47271 11.9475 5.56056 11.8962C5.73731 11.7931 5.97001 11.6475 6.2 11.475C6.40078 11.3244 6.58709 11.1625 6.73126 11H2C0.89543 11 0 10.1046 0 9V6ZM2 5C1.44772 5 1 5.44772 1 6V9C1 9.55228 1.44772 10 2 10H14C14.5523 10 15 9.55228 15 9V6C15 5.44772 14.5523 5 14 5H2Z" fill="black"/>
<path d="M8 6.5C7.44772 6.5 7 6.94772 7 7.5C7 8.05228 7.44772 8.5 8 8.5C8.55228 8.5 9 8.05228 9 7.5C9 6.94772 8.55228 6.5 8 6.5ZM6 7.5C6 6.39543 6.89543 5.5 8 5.5C9.10457 5.5 10 6.39543 10 7.5C10 8.60457 9.10457 9.5 8 9.5C6.89543 9.5 6 8.60457 6 7.5Z" fill="black"/>
<path d="M13 7.5C13 7.77614 12.7761 8 12.5 8C12.2239 8 12 7.77614 12 7.5C12 7.22386 12.2239 7 12.5 7C12.7761 7 13 7.22386 13 7.5Z" fill="black"/>
</svg>
