<svg width="16" height="16" viewBox="0 0 16 16" fill="none" xmlns="http://www.w3.org/2000/svg">
<path d="M11.176 14.4286C8.51089 14.4286 6.34998 12.6295 6.34998 10.4108C6.34998 8.19027 8.50897 6.39111 11.174 6.39111C13.8391 6.39111 16 8.19027 16 10.4108C16 11.6212 15.3496 12.7122 14.3336 13.4473C14.2916 13.4772 14.2572 13.5167 14.2335 13.5626C14.2097 13.6084 14.1972 13.6593 14.197 13.7109C14.1989 13.7454 14.2047 13.7797 14.2143 13.8129L14.4318 14.623C14.4452 14.6611 14.4549 14.7004 14.4606 14.7404C14.4596 14.7829 14.4423 14.8235 14.4122 14.8536C14.3821 14.8837 14.3415 14.901 14.299 14.902C14.2659 14.9006 14.2339 14.8899 14.2066 14.8712L13.1502 14.2612C13.0727 14.215 12.9845 14.1898 12.8943 14.1881C12.8461 14.1884 12.7981 14.1955 12.7519 14.2093C12.2395 14.3561 11.709 14.43 11.176 14.4286ZM9.0644 9.54227C9.13409 9.64898 9.23376 9.73272 9.3509 9.78296C9.46804 9.83319 9.59741 9.84769 9.72276 9.82462C9.84811 9.80155 9.96385 9.74194 10.0554 9.6533C10.147 9.56465 10.2103 9.45091 10.2375 9.32638C10.2646 9.20184 10.2543 9.07207 10.2079 8.95336C10.1615 8.83465 10.081 8.73231 9.97665 8.65919C9.87225 8.58607 9.74857 8.54544 9.62115 8.5424C9.53618 8.54214 9.45199 8.55869 9.37343 8.59109C9.29488 8.6235 9.2235 8.67111 9.16341 8.7312C9.10333 8.79129 9.05571 8.86266 9.02331 8.94122C8.99091 9.01977 8.97436 9.10396 8.97461 9.18894C8.97351 9.31639 8.99471 9.43555 9.0644 9.54227ZM12.2958 9.54331C12.3659 9.65026 12.4661 9.73403 12.5838 9.78401C12.7015 9.834 12.8314 9.84796 12.957 9.82413C13.0826 9.8003 13.1984 9.73976 13.2896 9.65015C13.3808 9.56054 13.4434 9.4459 13.4695 9.32071C13.4956 9.19552 13.4839 9.06542 13.436 8.94685C13.3882 8.82827 13.3062 8.72656 13.2005 8.65457C13.0948 8.58258 12.9702 8.54354 12.8423 8.5424C12.6714 8.5424 12.5074 8.61031 12.3865 8.7312C12.2656 8.85209 12.1977 9.01605 12.1977 9.18701C12.1966 9.31488 12.2257 9.43637 12.2958 9.54331Z" fill="black"/>
<path d="M0 6.82598C0 8.2807 0.781239 9.5911 2.0012 10.482C2.05183 10.5176 2.09312 10.5649 2.1216 10.6198C2.15007 10.6747 2.16488 10.7357 2.16476 10.7976C2.16352 10.8394 2.15639 10.8809 2.1436 10.9207C2.09648 11.0988 2.03461 11.3295 1.98304 11.5217C1.92933 11.722 1.88677 11.8807 1.88382 11.8944C1.86617 11.9394 1.85515 11.9867 1.85111 12.0349C1.85111 12.0859 1.87139 12.1349 1.90747 12.1709C1.94356 12.207 1.9925 12.2273 2.04354 12.2273C2.08261 12.2275 2.12107 12.2176 2.15514 12.1984L3.42321 11.4653C3.51634 11.4094 3.62249 11.3789 3.73109 11.3768C3.78904 11.3774 3.84664 11.3858 3.90235 11.4018C4.43188 11.5539 4.97753 11.6413 5.52742 11.6623C5.41193 11.2668 5.34998 10.8483 5.34998 10.4108C5.34998 7.47497 8.1352 5.39111 11.174 5.39111C11.224 5.39111 11.274 5.39168 11.3238 5.3928C10.5872 3.42946 8.39153 2 5.79579 2C2.59579 2 0 4.16091 0 6.82598ZM4.63162 5.2712C4.63162 5.42343 4.58648 5.57224 4.5019 5.69882C4.41733 5.82539 4.29712 5.92404 4.15648 5.9823C4.01583 6.04056 3.86107 6.0558 3.71177 6.0261C3.56246 5.9964 3.42531 5.9231 3.31767 5.81545C3.21003 5.70781 3.13672 5.57066 3.10702 5.42136C3.07732 5.27205 3.09257 5.11729 3.15082 4.97665C3.20908 4.836 3.30773 4.7158 3.43431 4.63122C3.56088 4.54664 3.7097 4.5015 3.86193 4.5015C4.06606 4.5015 4.26184 4.5826 4.40618 4.72694C4.55053 4.87129 4.63162 5.06706 4.63162 5.2712ZM8.50702 5.2712C8.50702 5.42343 8.46188 5.57224 8.37731 5.69882C8.29273 5.82539 8.17252 5.92404 8.03188 5.9823C7.89124 6.04056 7.73648 6.0558 7.58717 6.0261C7.43787 5.9964 7.30072 5.9231 7.19308 5.81545C7.08543 5.70781 7.01213 5.57066 6.98243 5.42136C6.95273 5.27205 6.96797 5.11729 7.02623 4.97665C7.08448 4.836 7.18314 4.7158 7.30971 4.63122C7.43629 4.54664 7.5851 4.5015 7.73733 4.5015C7.94147 4.5015 8.13724 4.5826 8.28159 4.72694C8.42593 4.87129 8.50702 5.06706 8.50702 5.2712Z" fill="black"/>
</svg>
