<svg width="16" height="16" viewBox="0 0 16 16" fill="none" xmlns="http://www.w3.org/2000/svg">
<path d="M10.7061 3.29374C9.83469 3.1014 8.9291 3 7.99983 3C5.25858 3 2.72341 3.8824 0.662891 5.37865C0.421419 5.554 0.404214 5.90437 0.615229 6.11539C0.793772 6.29393 1.0783 6.31191 1.28314 6.16427C3.1728 4.80234 5.49262 4 7.99983 4C8.63021 4 9.24875 4.05072 9.85158 4.1483L10.7061 3.29374Z" fill="black"/>
<path d="M7.99988 6C6.09483 6 4.3207 6.56074 2.83363 7.52619C2.57729 7.69261 2.55475 8.05491 2.77086 8.27102C2.94354 8.4437 3.21754 8.46769 3.42321 8.33603C4.46121 7.67154 5.65316 7.22646 6.93366 7.06622L7.99988 6Z" fill="black"/>
<path d="M10.5961 7.40381L11.3807 6.6192C12.0107 6.85917 12.6085 7.16424 13.166 7.52619C13.4224 7.69261 13.4449 8.05491 13.2288 8.27102C13.0561 8.4437 12.7821 8.46769 12.5765 8.33603C11.9653 7.94476 11.3007 7.62957 10.5961 7.40381Z" fill="black"/>
<path d="M7.99993 10L8.93339 9.06653C9.64836 9.16937 10.3257 9.38857 10.9457 9.70432C11.2307 9.84946 11.2721 10.2278 11.0459 10.4539L11.0309 10.469C10.8705 10.6293 10.6233 10.6595 10.4197 10.5595C9.68946 10.2012 8.86819 10 7.99993 10Z" fill="black"/>
<path d="M12.9045 5.09537L13.652 4.34787C14.2421 4.64754 14.8052 4.99267 15.3368 5.37865C15.5782 5.554 15.5955 5.90437 15.3844 6.11539C15.2059 6.29393 14.9214 6.31191 14.7165 6.16427C14.1491 5.75533 13.5429 5.39683 12.9045 5.09537Z" fill="black"/>
<path d="M9.02038 11.7796C9.25775 11.9207 9.25576 12.2441 9.06049 12.4393L8.35339 13.1464C8.15813 13.3417 7.84154 13.3417 7.64628 13.1464L6.93917 12.4393C6.74391 12.2441 6.74192 11.9207 6.97929 11.7796C7.27806 11.602 7.62703 11.5 7.99983 11.5C8.37263 11.5 8.72161 11.602 9.02038 11.7796Z" fill="black"/>
<path d="M13.3749 1.875C13.582 1.66789 13.9178 1.66789 14.1249 1.875C14.332 2.0821 14.332 2.41789 14.1249 2.625L3.37488 13.375C3.16777 13.5821 2.83199 13.5821 2.62488 13.375C2.41778 13.1679 2.41778 12.8321 2.62488 12.625L13.3749 1.875Z" fill="black"/>
</svg>
