<svg width="16" height="16" viewBox="0 0 16 16" fill="none" xmlns="http://www.w3.org/2000/svg">
<path d="M15.3844 6.11539C15.5955 5.90438 15.5782 5.554 15.3368 5.37866C13.2763 3.8824 10.7411 3 7.99983 3C5.25858 3 2.72341 3.8824 0.662891 5.37866C0.421419 5.554 0.404214 5.90438 0.615229 6.11539C0.793772 6.29394 1.0783 6.31191 1.28314 6.16428C3.1728 4.80234 5.49262 4 7.99983 4C10.507 4 12.8269 4.80234 14.7165 6.16428C14.9214 6.31191 15.2059 6.29394 15.3844 6.11539Z" fill="black"/>
<path d="M13.2288 8.27103C13.4449 8.05492 13.4224 7.69262 13.166 7.52619C11.679 6.56075 9.90489 6 7.99983 6C6.09478 6 4.3207 6.56075 2.83363 7.52619C2.57729 7.69262 2.55475 8.05492 2.77086 8.27103C2.94354 8.44371 3.21754 8.46769 3.42321 8.33603C4.74431 7.49031 6.31482 7 7.99983 7C9.68485 7 11.2554 7.4903 12.5765 8.33603C12.7821 8.46769 13.0561 8.44371 13.2288 8.27103Z" fill="black"/>
<path d="M11.0459 10.4539C11.2721 10.2278 11.2307 9.84946 10.9457 9.70432C10.0614 9.25394 9.06027 9 7.99983 9C6.9394 9 5.93828 9.25394 5.05396 9.70432C4.76898 9.84946 4.72761 10.2278 4.95375 10.4539L4.96879 10.469C5.12917 10.6293 5.3764 10.6595 5.58002 10.5595C6.31024 10.2012 7.13154 10 7.99983 10C8.86813 10 9.68943 10.2012 10.4197 10.5595C10.6233 10.6595 10.8705 10.6293 11.0309 10.469L11.0459 10.4539Z" fill="black"/>
<path d="M9.06049 12.4393C9.25576 12.2441 9.25775 11.9207 9.02038 11.7796C8.72161 11.602 8.37263 11.5 7.99983 11.5C7.62703 11.5 7.27806 11.602 6.97929 11.7796C6.74192 11.9207 6.74391 12.2441 6.93917 12.4393L7.64628 13.1464C7.84154 13.3417 8.15813 13.3417 8.35339 13.1464L9.06049 12.4393Z" fill="black"/>
</svg>
