<svg width="16" height="16" viewBox="0 0 16 16" fill="none" xmlns="http://www.w3.org/2000/svg">
<path d="M13.229 8.27103C13.4451 8.05492 13.4225 7.69262 13.1662 7.52619C11.6791 6.56075 9.90504 6 7.99998 6C6.09493 6 4.32084 6.56075 2.83378 7.52619C2.57743 7.69262 2.5549 8.05492 2.77101 8.27103C2.94369 8.44371 3.21769 8.46769 3.42336 8.33603C4.74446 7.49031 6.31496 7 7.99998 7C9.685 7 11.2555 7.49031 12.5766 8.33603C12.7823 8.46769 13.0563 8.44371 13.229 8.27103Z" fill="black"/>
<path d="M11.0461 10.4539C11.2722 10.2278 11.2308 9.84946 10.9459 9.70432C10.0615 9.25394 9.06041 9 7.99998 9C6.93955 9 5.93843 9.25394 5.05411 9.70432C4.76913 9.84946 4.72776 10.2278 4.9539 10.4539L4.96894 10.469C5.12932 10.6293 5.37655 10.6595 5.58016 10.5595C6.31039 10.2012 7.13169 10 7.99998 10C8.86828 10 9.68958 10.2012 10.4198 10.5595C10.6234 10.6595 10.8706 10.6293 11.031 10.469L11.0461 10.4539Z" fill="black"/>
<path d="M9.06064 12.4393C9.2559 12.2441 9.25789 11.9207 9.02053 11.7796C8.72176 11.602 8.37278 11.5 7.99998 11.5C7.62718 11.5 7.2782 11.602 6.97944 11.7796C6.74207 11.9207 6.74406 12.2441 6.93932 12.4393L7.64643 13.1464C7.84169 13.3417 8.15827 13.3417 8.35354 13.1464L9.06064 12.4393Z" fill="black"/>
</svg>
