<svg width="16" height="16" viewBox="0 0 16 16" fill="none" xmlns="http://www.w3.org/2000/svg">
<path d="M11.046 10.4539C11.2721 10.2278 11.2308 9.84946 10.9458 9.70432C10.0615 9.25394 9.06034 9 7.99991 9C6.93948 9 5.93835 9.25394 5.05404 9.70432C4.76906 9.84946 4.72769 10.2278 4.95383 10.4539L4.96886 10.469C5.12924 10.6293 5.37647 10.6595 5.58009 10.5595C6.31031 10.2012 7.13161 10 7.99991 10C8.8682 10 9.68951 10.2012 10.4197 10.5595C10.6233 10.6595 10.8706 10.6293 11.031 10.469L11.046 10.4539Z" fill="black"/>
<path d="M9.06057 12.4393C9.25583 12.2441 9.25782 11.9207 9.02046 11.7796C8.72169 11.602 8.37271 11.5 7.99991 11.5C7.62711 11.5 7.27813 11.602 6.97936 11.7796C6.742 11.9207 6.74399 12.2441 6.93925 12.4393L7.64636 13.1464C7.84162 13.3417 8.1582 13.3417 8.35346 13.1464L9.06057 12.4393Z" fill="black"/>
</svg>
