<svg width="16" height="16" viewBox="0 0 16 16" fill="none" xmlns="http://www.w3.org/2000/svg">
<path d="M8.83501 3.00258C9.66306 2.99677 11.523 3.00258 11.523 3.00258L11.5561 3.03335V3.32137C11.5561 3.40092 11.5114 3.44041 11.4231 3.44041C10.9899 3.46073 10.9011 3.5037 10.7425 3.73191C10.656 3.85676 10.4853 4.12445 10.3082 4.42466L8.78798 7.26766L8.74522 7.35687L10.6032 11.1582L10.7158 11.189L13.6424 4.24348C13.7441 3.9636 13.7284 3.76501 13.5977 3.64829C13.4665 3.53448 13.3742 3.46712 13.0351 3.45319L12.7604 3.43925C12.7267 3.43925 12.6948 3.42705 12.664 3.40441C12.6338 3.38292 12.6181 3.35447 12.6181 3.32021V3.03103L12.6599 3.00142H15.9663L16 3.03103V3.32021C16 3.3986 15.9553 3.43809 15.867 3.43809C15.4338 3.45725 15.1127 3.55132 14.9048 3.71913C14.6964 3.88811 14.5338 4.12096 14.4171 4.42349C14.4171 4.42349 11.7256 10.5839 10.8047 12.6314C10.4522 13.3026 10.1055 13.2411 9.80068 12.6122C9.41897 11.8261 8.62638 10.0923 8.04411 8.81049C7.42141 10.095 6.56875 11.836 6.1459 12.6204C5.73478 13.3352 5.39624 13.2417 5.12681 12.6389C4.67541 11.5739 3.99457 10.1204 3.30924 8.65737C2.57429 7.0884 1.83418 5.5084 1.36633 4.3846C1.1991 3.98451 1.07309 3.72785 0.954053 3.62623C0.834433 3.52577 0.585905 3.46538 0.207884 3.44505C0.0691017 3.42996 0 3.39628 0 3.3417V3.03917L0.0336785 3.00955C0.649197 3.00606 3.62808 3.00955 3.62808 3.00955L3.66175 3.03917V3.32717C3.66175 3.40673 3.61123 3.44505 3.51194 3.44505L3.13682 3.46074C2.81513 3.47409 2.65428 3.57049 2.65428 3.74875C2.65428 3.83179 2.68796 3.9665 2.76287 4.14825C3.48291 5.90248 5.96995 11.1466 5.96995 11.1466L6.06111 11.1704L7.6643 7.97288C7.46826 7.53979 7.34325 7.26243 7.34325 7.26243L6.24113 5.0965C6.24113 5.0965 6.02802 4.66332 5.95543 4.51931C5.92008 4.44924 5.88736 4.38402 5.8569 4.32327C5.4702 3.55229 5.44579 3.50363 4.99209 3.44389C4.85505 3.42589 4.7842 3.40847 4.7842 3.34053V3.03683L4.82543 3.00722C5.7098 3.00606 7.67772 3.00606 7.67772 3.00606L7.75321 3.03103V3.33356C7.75321 3.40266 7.70386 3.43809 7.6034 3.43809L7.39667 3.4677C6.87406 3.50835 6.95942 3.72203 7.30667 4.41362L8.36411 6.57711L9.53357 4.24465C9.72926 3.81785 9.68919 3.71101 9.60848 3.61229C9.56202 3.55655 9.4064 3.4677 9.06787 3.45376L8.93489 3.43925C8.90121 3.43925 8.86985 3.42763 8.83908 3.40499C8.80888 3.3835 8.79379 3.35563 8.79379 3.32021V3.03219L8.83501 3.00258Z" fill="black"/>
</svg>
