<svg width="16" height="16" viewBox="0 0 16 16" fill="none" xmlns="http://www.w3.org/2000/svg">
<path d="M4.5 6C4.77614 6 5 5.77614 5 5.5C5 5.22386 4.77614 5 4.5 5C4.22386 5 4 5.22386 4 5.5C4 5.77614 4.22386 6 4.5 6Z" fill="black"/>
<path d="M6 6C6.27614 6 6.5 5.77614 6.5 5.5C6.5 5.22386 6.27614 5 6 5C5.72386 5 5.5 5.22386 5.5 5.5C5.5 5.77614 5.72386 6 6 6Z" fill="black"/>
<path d="M8 5.5C8 5.77614 7.77614 6 7.5 6C7.22386 6 7 5.77614 7 5.5C7 5.22386 7.22386 5 7.5 5C7.77614 5 8 5.22386 8 5.5Z" fill="black"/>
<path d="M12 1C13.1046 1 14 1.89543 14 3C15.1046 3 16 3.89543 16 5V13C16 14.1046 15.1046 15 14 15H4C2.89543 15 2 14.1046 2 13C0.895431 13 0 12.1046 0 11V3C0 1.89543 0.895431 1 2 1H12ZM2 12V5C2 3.89543 2.89543 3 4 3L13 3C13 2.44772 12.5523 2 12 2H2C1.44772 2 1 2.44772 1 3V11C1 11.5523 1.44772 12 2 12ZM3 8V13C3 13.5523 3.44772 14 4 14H14C14.5523 14 15 13.5523 15 13V8H3ZM15 7V5C15 4.44772 14.5523 4 14 4H4C3.44772 4 3 4.44772 3 5V7H15Z" fill="black"/>
</svg>
