<svg width="16" height="16" viewBox="0 0 16 16" fill="none" xmlns="http://www.w3.org/2000/svg">
<path d="M3 3.5C3 3.77614 2.77614 4 2.5 4C2.22386 4 2 3.77614 2 3.5C2 3.22386 2.22386 3 2.5 3C2.77614 3 3 3.22386 3 3.5Z" fill="black"/>
<path d="M4.5 3.5C4.5 3.77614 4.27614 4 4 4C3.72386 4 3.5 3.77614 3.5 3.5C3.5 3.22386 3.72386 3 4 3C4.27614 3 4.5 3.22386 4.5 3.5Z" fill="black"/>
<path d="M5.5 4C5.77614 4 6 3.77614 6 3.5C6 3.22386 5.77614 3 5.5 3C5.22386 3 5 3.22386 5 3.5C5 3.77614 5.22386 4 5.5 4Z" fill="black"/>
<path d="M0.5 1C0.223858 1 0 1.22386 0 1.5V14.5C0 14.7761 0.223858 15 0.5 15H15.5C15.7761 15 16 14.7761 16 14.5V1.5C16 1.22386 15.7761 1 15.5 1H0.5ZM1 5V2H15V5H1ZM1 6H15V14H1V6Z" fill="black"/>
</svg>
