<svg width="16" height="16" viewBox="0 0 16 16" fill="none" xmlns="http://www.w3.org/2000/svg">
<path d="M3.5 11C3.22386 11 3 11.2239 3 11.5V12.5C3 12.7761 3.22386 13 3.5 13H12.5C12.7761 13 13 12.7761 13 12.5V11.5C13 11.2239 12.7761 11 12.5 11H3.5Z" fill="black"/>
<path d="M2.375 1C1.06785 1 0 2.05083 0 3.35714V12.6429C0 13.9492 1.06785 15 2.375 15H13.625C14.9322 15 16 13.9492 16 12.6429V3.35714C16 2.05083 14.9322 1 13.625 1H2.375ZM1 3.35714C1 2.61211 1.61109 2 2.375 2H13.625C14.3889 2 15 2.61211 15 3.35714V4H1V3.35714ZM1 5H15V12.6429C15 13.3879 14.3889 14 13.625 14H2.375C1.61109 14 1 13.3879 1 12.6429V5Z" fill="black"/>
</svg>
