<svg width="16" height="16" viewBox="0 0 16 16" fill="none" xmlns="http://www.w3.org/2000/svg">
<path d="M12.5 2C11.1193 2 10 3.11929 10 4.5C10 4.77614 9.77614 5 9.5 5C9.22386 5 9 4.77614 9 4.5C9 2.567 10.567 1 12.5 1C14.433 1 16 2.567 16 4.5C16 6.433 14.433 8 12.5 8H0.5C0.223858 8 0 7.77614 0 7.5C0 7.22386 0.223858 7 0.5 7H12.5C13.8807 7 15 5.88071 15 4.5C15 3.11929 13.8807 2 12.5 2ZM5.5 3C4.94772 3 4.5 3.44772 4.5 4C4.5 4.27614 4.27614 4.5 4 4.5C3.72386 4.5 3.5 4.27614 3.5 4C3.5 2.89543 4.39543 2 5.5 2C6.60457 2 7.5 2.89543 7.5 4C7.5 5.10457 6.60457 6 5.5 6H0.5C0.223858 6 0 5.77614 0 5.5C0 5.22386 0.223858 5 0.5 5H5.5C6.05228 5 6.5 4.55228 6.5 4C6.5 3.44772 6.05228 3 5.5 3ZM0 9.5C0 9.22386 0.223858 9 0.5 9H10.5417C12.1985 9 13.5417 10.3431 13.5417 12C13.5417 13.6569 12.1985 15 10.5417 15C8.88481 15 7.54167 13.6569 7.54167 12C7.54167 11.7239 7.76552 11.5 8.04167 11.5C8.31781 11.5 8.54167 11.7239 8.54167 12C8.54167 13.1046 9.4371 14 10.5417 14C11.6462 14 12.5417 13.1046 12.5417 12C12.5417 10.8954 11.6462 10 10.5417 10H0.5C0.223858 10 0 9.77614 0 9.5Z" fill="black"/>
</svg>
