<svg width="16" height="16" viewBox="0 0 16 16" fill="none" xmlns="http://www.w3.org/2000/svg">
<path d="M2.5 4C2.77614 4 3 3.77614 3 3.5C3 3.22386 2.77614 3 2.5 3C2.22386 3 2 3.22386 2 3.5C2 3.77614 2.22386 4 2.5 4Z" fill="black"/>
<path d="M4.5 3.5C4.5 3.77614 4.27614 4 4 4C3.72386 4 3.5 3.77614 3.5 3.5C3.5 3.22386 3.72386 3 4 3C4.27614 3 4.5 3.22386 4.5 3.5Z" fill="black"/>
<path d="M5.5 4C5.77614 4 6 3.77614 6 3.5C6 3.22386 5.77614 3 5.5 3C5.22386 3 5 3.22386 5 3.5C5 3.77614 5.22386 4 5.5 4Z" fill="black"/>
<path d="M2 1C0.895431 1 0 1.89543 0 3V13C0 14.1046 0.895431 15 2 15H14C15.1046 15 16 14.1046 16 13V3C16 1.89543 15.1046 1 14 1H2ZM15 3V5H1V3C1 2.44772 1.44772 2 2 2H14C14.5523 2 15 2.44772 15 3ZM2 14C1.44772 14 1 13.5523 1 13V6H15V13C15 13.5523 14.5523 14 14 14H2Z" fill="black"/>
</svg>
