<svg width="16" height="16" viewBox="0 0 16 16" fill="none" xmlns="http://www.w3.org/2000/svg">
<path d="M3.5 11C3.22386 11 3 11.2239 3 11.5V12.5C3 12.7761 3.22386 13 3.5 13H4.5C4.77614 13 5 12.7761 5 12.5V11.5C5 11.2239 4.77614 11 4.5 11H3.5Z" fill="black"/>
<path d="M7 11.5C7 11.2239 7.22386 11 7.5 11H8.5C8.77614 11 9 11.2239 9 11.5V12.5C9 12.7761 8.77614 13 8.5 13H7.5C7.22386 13 7 12.7761 7 12.5V11.5Z" fill="black"/>
<path d="M11.5 11C11.2239 11 11 11.2239 11 11.5V12.5C11 12.7761 11.2239 13 11.5 13H12.5C12.7761 13 13 12.7761 13 12.5V11.5C13 11.2239 12.7761 11 12.5 11H11.5Z" fill="black"/>
<path d="M14 1C15.1046 1 16 1.89543 16 3V13C16 14.1046 15.1046 15 14 15H2C0.895431 15 0 14.1046 0 13V3C0 1.89543 0.895431 1 2 1H14ZM2 14H14C14.5523 14 15 13.5523 15 13V5H1V13C1 13.5523 1.44772 14 2 14ZM2 2C1.44772 2 1 2.44772 1 3V4H15V3C15 2.44772 14.5523 2 14 2H2Z" fill="black"/>
</svg>
