<svg width="16" height="16" viewBox="0 0 16 16" fill="none" xmlns="http://www.w3.org/2000/svg">
<path d="M2.5 5C2.77614 5 3 4.77614 3 4.5C3 4.22386 2.77614 4 2.5 4C2.22386 4 2 4.22386 2 4.5C2 4.77614 2.22386 5 2.5 5Z" fill="black"/>
<path d="M4 5C4.27614 5 4.5 4.77614 4.5 4.5C4.5 4.22386 4.27614 4 4 4C3.72386 4 3.5 4.22386 3.5 4.5C3.5 4.77614 3.72386 5 4 5Z" fill="black"/>
<path d="M6 4.5C6 4.77614 5.77614 5 5.5 5C5.22386 5 5 4.77614 5 4.5C5 4.22386 5.22386 4 5.5 4C5.77614 4 6 4.22386 6 4.5Z" fill="black"/>
<path d="M0 4C0 2.89543 0.89543 2 2 2H13C14.1046 2 15 2.89543 15 4V8C15 8.27614 14.7761 8.5 14.5 8.5C14.2239 8.5 14 8.27614 14 8V7H1V12C1 12.5523 1.44772 13 2 13H7.5C7.77614 13 8 13.2239 8 13.5C8 13.7761 7.77614 14 7.5 14H2C0.895431 14 0 13.1046 0 12V4ZM1 6H14V4C14 3.44772 13.5523 3 13 3H2C1.44772 3 1 3.44772 1 4V6Z" fill="black"/>
<path d="M16 12.5C16 14.433 14.433 16 12.5 16C10.567 16 9 14.433 9 12.5C9 10.567 10.567 9 12.5 9C14.433 9 16 10.567 16 12.5ZM11.1464 11.1464C10.9512 11.3417 10.9512 11.6583 11.1464 11.8536L11.7929 12.5L11.1464 13.1464C10.9512 13.3417 10.9512 13.6583 11.1464 13.8536C11.3417 14.0488 11.6583 14.0488 11.8536 13.8536L12.5 13.2071L13.1464 13.8536C13.3417 14.0488 13.6583 14.0488 13.8536 13.8536C14.0488 13.6583 14.0488 13.3417 13.8536 13.1464L13.2071 12.5L13.8536 11.8536C14.0488 11.6583 14.0488 11.3417 13.8536 11.1464C13.6583 10.9512 13.3417 10.9512 13.1464 11.1464L12.5 11.7929L11.8536 11.1464C11.6583 10.9512 11.3417 10.9512 11.1464 11.1464Z" fill="black"/>
</svg>
