<svg width="16" height="16" viewBox="0 0 16 16" fill="none" xmlns="http://www.w3.org/2000/svg">
<path d="M12.6326 7.65324C12.6326 6.8051 12.328 6.21773 12.0667 5.76056C12.0398 5.71682 12.013 5.67359 11.9865 5.63081C11.6703 5.12066 11.3928 4.6728 11.3928 4.15125C11.3928 3.5204 11.8712 2.93317 12.5452 2.93317C12.5648 2.93317 12.5838 2.93474 12.6027 2.93632C12.6131 2.93718 12.6236 2.93805 12.6341 2.93865C11.4131 1.82007 9.78645 1.13712 7.9998 1.13712C5.60229 1.13712 3.49298 2.36722 2.26588 4.23038C2.42689 4.23521 2.57863 4.23861 2.70752 4.23861C3.42533 4.23861 4.53647 4.15151 4.53647 4.15151C4.90641 4.1297 4.95003 4.67306 4.58047 4.71681C4.58047 4.71681 4.2087 4.76055 3.79502 4.78223L6.29412 12.2157L7.79596 7.71148L6.72675 4.78197C6.35719 4.76029 6.0071 4.71655 6.0071 4.71655C5.63729 4.69487 5.68064 4.12944 6.05045 4.15125C6.05045 4.15125 7.18379 4.23835 7.85812 4.23835C8.57581 4.23835 9.68707 4.15125 9.68707 4.15125C10.0573 4.12944 10.1008 4.6728 9.73108 4.71655C9.73108 4.71655 9.35852 4.76029 8.94562 4.78197L11.4257 12.1591L12.1102 9.87172C12.1285 9.81314 12.1465 9.75558 12.1643 9.699C12.4339 8.83875 12.6326 8.20446 12.6326 7.65324Z" fill="black"/>
<path d="M1.13712 7.99954C1.13712 10.7159 2.71574 13.0634 5.00487 14.1759L1.73128 5.20662C1.3505 6.06012 1.13712 7.00463 1.13712 7.99954Z" fill="black"/>
<path d="M6.06116 14.583L8.1202 8.59983L10.2299 14.3791C10.2436 14.413 10.2603 14.4442 10.2787 14.4736C9.56537 14.7245 8.79898 14.8626 7.99981 14.8626C7.32613 14.8626 6.67595 14.7638 6.06116 14.583Z" fill="black"/>
<path d="M14.0215 4.70701C14.051 4.92561 14.0678 5.16027 14.0678 5.41269C14.0678 6.10909 13.9377 6.89194 13.5459 7.87079L11.4497 13.9316C13.4899 12.7418 14.8622 10.5314 14.8622 7.99968C14.8624 6.80653 14.5576 5.68456 14.0215 4.70701Z" fill="black"/>
<path d="M0 7.99954C0 3.58856 3.58883 0 7.9998 0C12.4107 0 15.9999 3.58856 16 7.99954C16 12.411 12.4107 15.9995 7.9998 15.9995C3.58883 15.9995 0 12.411 0 7.99954ZM0.366809 7.99954C0.366809 12.2085 3.7911 15.6328 7.9998 15.6328C12.2084 15.6328 15.6324 12.2085 15.6324 7.99954C15.6324 3.79084 12.2084 0.366809 7.9998 0.366809C3.79097 0.366809 0.366809 3.79084 0.366809 7.99954Z" fill="black"/>
</svg>
