<svg width="16" height="16" viewBox="0 0 16 16" fill="none" xmlns="http://www.w3.org/2000/svg">
<path d="M6.70456 8.13868C6.7638 8.04981 6.76005 7.93313 6.69522 7.84825C6.63039 7.76338 6.51881 7.72906 6.41749 7.76283L4.91749 8.26283L5.0756 8.73717L5.88436 8.46758L5.28853 9.36132C5.22929 9.45019 5.23304 9.56687 5.29787 9.65175C5.36269 9.73662 5.47428 9.77094 5.5756 9.73717L6.38436 9.46758L5.78853 10.3613C5.72929 10.4502 5.73304 10.5669 5.79787 10.6517C5.86269 10.7366 5.97428 10.7709 6.0756 10.7372L7.5756 10.2372L7.41749 9.76283L6.60873 10.0324L7.20456 9.13868C7.2638 9.04981 7.26005 8.93313 7.19522 8.84825C7.13039 8.76338 7.01881 8.72906 6.91749 8.76283L6.10873 9.03242L6.70456 8.13868Z" fill="black"/>
<path d="M8 16C12.4183 16 16 12.4183 16 8C16 3.58172 12.4183 0 8 0C3.58172 0 0 3.58172 0 8C0 12.4183 3.58172 16 8 16ZM1.79797 11.2488L3.78623 9.59193C3.59901 9.09702 3.49654 8.56048 3.49654 8C3.49654 5.51472 5.51126 3.5 7.99654 3.5C9.31446 3.5 10.5001 4.06655 11.3231 4.96939L7.49654 6.5L8.49654 9L9.82978 12.1109C9.26984 12.361 8.64943 12.5 7.99654 12.5C7.43606 12.5 6.89952 12.3975 6.40462 12.2103L4.74678 14.1997C3.48964 13.5387 2.45814 12.5065 1.79797 11.2488ZM12.4965 8C12.4965 9.42835 11.8311 10.7013 10.7932 11.5256L9.49654 8.5L12.4556 7.39036C12.4826 7.58972 12.4965 7.79323 12.4965 8Z" fill="black"/>
</svg>
