<svg width="16" height="16" viewBox="0 0 16 16" fill="none" xmlns="http://www.w3.org/2000/svg">
<path d="M12.4965 8C12.4965 9.42835 11.8311 10.7013 10.7932 11.5256L9.49654 8.5L12.4556 7.39036C12.4826 7.58972 12.4965 7.79323 12.4965 8Z" fill="black"/>
<path d="M16 8C16 12.4183 12.4183 16 8 16C6.58144 16 5.24911 15.6308 4.09387 14.9832C4.01226 14.9375 3.93152 14.8903 3.85171 14.8418C2.67087 14.1243 1.69051 13.1097 1.01437 11.9018C0.368295 10.7476 0 9.41679 0 8C0 3.58172 3.58172 0 8 0C12.4183 0 16 3.58172 16 8ZM15 8C15 4.13401 11.866 1 8 1C4.13401 1 1 4.13401 1 8C1 9.17262 1.28833 10.2779 1.79797 11.2488L3.78623 9.59193C3.59901 9.09702 3.49654 8.56048 3.49654 8C3.49654 5.51472 5.51126 3.5 7.99654 3.5C9.31446 3.5 10.5001 4.06655 11.3231 4.96939L7.49654 6.5L8.49654 9L9.82977 12.1109C9.26983 12.361 8.64942 12.5 7.99654 12.5C7.43606 12.5 6.89952 12.3975 6.40461 12.2103L4.74678 14.1997C5.71875 14.7108 6.8256 15 8 15C11.866 15 15 11.866 15 8ZM6.70455 8.13868C6.76379 8.04981 6.76004 7.93313 6.69522 7.84825C6.63039 7.76338 6.5188 7.72906 6.41748 7.76283L4.91748 8.26283L5.0756 8.73717L5.88435 8.46758L5.28853 9.36132C5.22928 9.45019 5.23304 9.56687 5.29786 9.65175C5.36269 9.73662 5.47428 9.77094 5.5756 9.73717L6.38435 9.46758L5.78853 10.3613C5.72928 10.4502 5.73304 10.5669 5.79786 10.6517C5.86269 10.7366 5.97428 10.7709 6.0756 10.7372L7.5756 10.2372L7.41748 9.76283L6.60872 10.0324L7.20455 9.13868C7.26379 9.04981 7.26004 8.93313 7.19522 8.84825C7.13039 8.76338 7.0188 8.72906 6.91748 8.76283L6.10872 9.03242L6.70455 8.13868Z" fill="black"/>
</svg>
