<svg width="16" height="16" viewBox="0 0 16 16" fill="none" xmlns="http://www.w3.org/2000/svg">
<path d="M16 4.5C16 5.92835 15.3345 7.20128 14.2967 8.02563L13 5L15.959 3.89036C15.986 4.08972 16 4.29323 16 4.5Z" fill="black"/>
<path d="M11.5 9C12.1528 9 12.7733 8.86096 13.3332 8.61088L12 5.5L11 3L14.8265 1.46939C14.0035 0.566554 12.8179 0 11.5 0C9.01468 0 6.99996 2.01472 6.99996 4.5C6.99996 5.06048 7.10243 5.59702 7.28965 6.09193L1.17282 11.1893C0.00599647 12.1616 -0.0740367 13.926 0.999961 15C2.07396 16.074 3.83833 15.994 4.81068 14.8271L9.90803 8.71031C10.4029 8.89753 10.9395 9 11.5 9ZM10.208 4.63868L9.61215 5.53241L10.4209 5.26283C10.5222 5.22906 10.6338 5.26338 10.6986 5.34825C10.7635 5.43313 10.7672 5.54981 10.708 5.63868L10.1121 6.53241L10.9209 6.26283L11.079 6.73717L9.57902 7.23717C9.4777 7.27094 9.36611 7.23662 9.30128 7.15175C9.23646 7.06687 9.23271 6.95019 9.29195 6.86133L9.88778 5.96759L9.07902 6.23717C8.9777 6.27094 8.86611 6.23662 8.80128 6.15175C8.73646 6.06687 8.73271 5.95019 8.79195 5.86132L9.38778 4.96759L8.57902 5.23717L8.4209 4.76283L9.9209 4.26283C10.0222 4.22906 10.1338 4.26338 10.1986 4.34825C10.2635 4.43313 10.2672 4.54981 10.208 4.63868ZM2.99996 14C2.44768 14 1.99996 13.5523 1.99996 13C1.99996 12.4477 2.44768 12 2.99996 12C3.55225 12 3.99996 12.4477 3.99996 13C3.99996 13.5523 3.55225 14 2.99996 14Z" fill="black"/>
</svg>
