<svg width="16" height="16" viewBox="0 0 16 16" fill="none" xmlns="http://www.w3.org/2000/svg">
<path d="M7.98651 15.9999C7.59909 15.9965 7.21271 15.8471 6.91711 15.5515L0.448547 9.08289C-0.149515 8.48483 -0.149517 7.51517 0.448547 6.91711L6.91711 0.448547C7.51517 -0.149515 8.48483 -0.149517 9.08289 0.448547L15.5515 6.91711C15.8471 7.21271 15.9965 7.59909 15.9999 7.98651C16 7.9955 16 8.0045 15.9999 8.01349C15.9965 8.40091 15.8471 8.78729 15.5515 9.08289L9.08289 15.5515C8.78729 15.8471 8.40091 15.9965 8.01349 15.9999C8.0045 16 7.9955 16 7.98651 15.9999ZM7.63904 1.17047L4.76572 4.04379L8 7.27807L11.2343 4.04379L8.36096 1.17047C8.16161 0.971119 7.83839 0.971118 7.63904 1.17047ZM8.72193 8L11.9562 11.2343L14.8295 8.36096C15.0289 8.16161 15.0289 7.83839 14.8295 7.63904L11.9562 4.76572L8.72193 8ZM8 8.72193L4.76572 11.9562L7.63904 14.8295C7.83839 15.0289 8.16161 15.0289 8.36096 14.8295L11.2343 11.9562L8 8.72193ZM7.27807 8L4.04379 4.76572L1.17047 7.63904C0.971119 7.83839 0.971118 8.16161 1.17047 8.36096L4.04379 11.2343L7.27807 8Z" fill="black"/>
</svg>
