<svg width="16" height="16" viewBox="0 0 16 16" fill="none" xmlns="http://www.w3.org/2000/svg">
<path d="M9.04941 0.43471C8.46984 -0.144862 7.53017 -0.144863 6.95059 0.434709L4.0462 3.3391L8 7.29289L11.9538 3.3391L9.04941 0.43471Z" fill="black"/>
<path d="M12.6609 4.04621L8.70711 8L12.6609 11.9538L15.5653 9.04944C16.1449 8.46987 16.1449 7.5302 15.5653 6.95062L12.6609 4.04621Z" fill="black"/>
<path d="M11.9538 12.6609L8 8.70711L4.04617 12.6609L6.95059 15.5654C7.53016 16.1449 8.46983 16.1449 9.04941 15.5654L11.9538 12.6609Z" fill="black"/>
<path d="M3.33907 11.9538L7.29289 8L3.3391 4.0462L0.434679 6.95062C-0.144892 7.53019 -0.144894 8.46986 0.434678 9.04944L3.33907 11.9538Z" fill="black"/>
</svg>
