<svg width="16" height="16" viewBox="0 0 16 16" fill="none" xmlns="http://www.w3.org/2000/svg">
<path d="M11.4602 0.146447C11.3664 0.0526784 11.2392 0 11.1066 0H4.8934C4.76079 0 4.63361 0.0526784 4.53984 0.146447L0.146447 4.53984C0.0526784 4.63361 0 4.76079 0 4.8934V11.1066C0 11.2392 0.0526784 11.3664 0.146447 11.4602L4.53984 15.8536C4.63361 15.9473 4.76079 16 4.8934 16H11.1066C11.2392 16 11.3664 15.9473 11.4602 15.8536L15.8536 11.4602C15.9473 11.3664 16 11.2392 16 11.1066V4.8934C16 4.76079 15.9473 4.63361 15.8536 4.53984L11.4602 0.146447ZM5.35355 4.64645L8 7.29289L10.6464 4.64645C10.8417 4.45118 11.1583 4.45118 11.3536 4.64645C11.5488 4.84171 11.5488 5.15829 11.3536 5.35355L8.70711 8L11.3536 10.6464C11.5488 10.8417 11.5488 11.1583 11.3536 11.3536C11.1583 11.5488 10.8417 11.5488 10.6464 11.3536L8 8.70711L5.35355 11.3536C5.15829 11.5488 4.84171 11.5488 4.64645 11.3536C4.45118 11.1583 4.45118 10.8417 4.64645 10.6464L7.29289 8L4.64645 5.35355C4.45118 5.15829 4.45118 4.84171 4.64645 4.64645C4.84171 4.45118 5.15829 4.45118 5.35355 4.64645Z" fill="black"/>
</svg>
