<svg width="16" height="16" viewBox="0 0 16 16" fill="none" xmlns="http://www.w3.org/2000/svg">
<path d="M7.20222 15.9671C5.96976 15.8491 4.72197 15.4068 3.65007 14.7078C2.75184 14.1221 2.54901 13.8813 2.54901 13.4008C2.54901 12.4356 3.61083 10.7451 5.42755 8.81792C6.45933 7.72342 7.89652 6.4405 8.05195 6.47524C8.35405 6.54277 10.7697 8.89777 11.674 10.0064C13.104 11.7594 13.7615 13.1948 13.4275 13.8347C13.1736 14.3212 11.5982 15.272 10.4408 15.6372C9.48695 15.9383 8.23419 16.0659 7.20222 15.9671ZM1.33585 12.3973C0.589451 11.2528 0.212344 10.1261 0.0302742 8.49652C-0.0298457 7.95843 -0.00830182 7.65064 0.166791 6.54619C0.385019 5.16964 1.16937 3.57715 2.11184 2.5971C2.51324 2.17969 2.54909 2.16952 3.03838 2.33426C3.63256 2.53431 4.2671 2.97231 5.25117 3.86165L5.82534 4.38055L5.5118 4.76552C4.05636 6.55256 2.51994 9.08562 1.94091 10.6528C1.62612 11.5047 1.49916 12.3599 1.6346 12.716C1.72605 12.9564 1.64205 12.8668 1.33585 12.3973ZM14.4375 12.5919C14.5113 12.2322 14.418 11.5714 14.1994 10.905C13.7261 9.46185 12.1438 6.77703 10.691 4.95161L10.2336 4.37697L10.7284 3.92287C11.3745 3.32995 11.8231 2.97492 12.3071 2.67342C12.689 2.4355 13.2348 2.22488 13.4694 2.22488C13.614 2.22488 14.1233 2.75305 14.5343 3.32944C15.171 4.22217 15.6394 5.30434 15.8767 6.43089C16.03 7.15879 16.0428 8.71689 15.9014 9.443C15.7853 10.0389 15.5403 10.8119 15.3013 11.3361C15.1222 11.7289 14.6767 12.4917 14.4815 12.74C14.3812 12.8676 14.3811 12.8673 14.4375 12.5919H14.4375ZM7.33418 1.95236C6.66381 1.61212 5.62965 1.2469 5.05837 1.14864C4.8581 1.1142 4.51646 1.09498 4.29918 1.10595C3.82783 1.12974 3.84888 1.10511 4.60502 0.748065C5.23365 0.451228 5.75802 0.276675 6.46986 0.127291C7.27062 -0.040755 8.77577 -0.0427271 9.56379 0.123237C10.4149 0.302492 11.4171 0.675251 11.9819 1.0226L12.1497 1.12584L11.7646 1.1064C10.9994 1.06778 9.88409 1.37677 8.68669 1.95917C8.32553 2.13484 8.01132 2.27514 7.98846 2.27095C7.96559 2.26676 7.67117 2.12339 7.33418 1.95236V1.95236Z" fill="black"/>
</svg>
