<svg width="16" height="16" viewBox="0 0 16 16" fill="none" xmlns="http://www.w3.org/2000/svg">
<path d="M4.1875 10.0951L4.92425 9.92485C4.93974 9.9213 4.96534 9.91542 4.9966 9.90533C5.19989 9.85061 5.37409 9.71917 5.48252 9.53853C5.59095 9.35797 5.62515 9.14235 5.57792 8.93718C5.57689 8.93268 5.57591 8.9284 5.57487 8.9239C5.55067 8.82556 5.50828 8.73259 5.44989 8.64993C5.36732 8.54513 5.26515 8.45753 5.14908 8.39192C5.01245 8.31398 4.86944 8.24771 4.72161 8.19394L3.91381 7.89906C3.46047 7.73054 3.00717 7.56623 2.5496 7.40599C2.25287 7.30039 2.00146 7.20771 1.783 7.14015C1.74176 7.12745 1.69628 7.11475 1.65929 7.10197C1.3952 7.02103 1.20964 6.98747 1.0526 6.98637C0.947712 6.98251 0.843233 7.00157 0.746418 7.0422C0.645532 7.08571 0.554922 7.15002 0.480518 7.23094C0.443507 7.27303 0.40871 7.31701 0.376267 7.36266C0.345824 7.40925 0.317905 7.45737 0.292631 7.50694C0.264801 7.56014 0.240884 7.61522 0.221073 7.67183C0.0711449 8.11505 -0.00353709 8.58018 0.000128676 9.048C0.00283137 9.47089 0.0141901 10.0137 0.246644 10.3816C0.302657 10.4761 0.377825 10.5577 0.467302 10.6213C0.632904 10.7356 0.800247 10.7507 0.974347 10.7632C1.23452 10.7819 1.48658 10.718 1.73785 10.6599L4.18545 10.0944L4.1875 10.0951Z" fill="black"/>
<path d="M12.4071 6.1836C12.2059 5.76143 11.9355 5.37602 11.607 5.04336C11.5646 5.00113 11.519 4.96206 11.4709 4.92646C11.4264 4.89308 11.3801 4.86206 11.3324 4.83351C11.2833 4.8066 11.2328 4.78233 11.1811 4.7608C11.079 4.7207 10.9694 4.70262 10.8598 4.70773C10.755 4.7137 10.6526 4.74242 10.56 4.79193C10.4195 4.86177 10.2674 4.97404 10.0652 5.16202C10.0373 5.18977 10.0022 5.22108 9.97066 5.2506C9.80381 5.40746 9.61824 5.60084 9.39739 5.82602C9.05621 6.1708 8.72019 6.51747 8.38627 6.86793L7.78884 7.48749C7.67946 7.60071 7.57982 7.723 7.49106 7.85305C7.41544 7.96293 7.36188 8.08652 7.3335 8.21694C7.3171 8.31688 7.31949 8.41906 7.34061 8.51813C7.34163 8.52263 7.34264 8.52691 7.34366 8.53141C7.39091 8.73665 7.51581 8.91548 7.69224 9.03022C7.8686 9.14503 8.08262 9.18684 8.28931 9.14677C8.32204 9.14206 8.34745 9.1364 8.3629 9.13262L11.5484 8.39664C11.7994 8.33858 12.0541 8.28545 12.2797 8.15453C12.431 8.06678 12.5749 7.97984 12.6736 7.80442C12.7263 7.70805 12.7582 7.60165 12.7673 7.49221C12.8161 7.05806 12.5895 6.56502 12.4071 6.1836Z" fill="black"/>
<path d="M6.70575 7.52312C6.93659 7.23311 6.93601 6.8009 6.95666 6.44753C7.02614 5.26686 7.0993 4.08603 7.15729 2.90472C7.17942 2.45727 7.22761 2.01588 7.20098 1.56503C7.17906 1.1931 7.17637 0.766065 6.94154 0.460836C6.52702 -0.0774102 5.64313 -0.0331729 5.04004 0.050319C4.8553 0.0759626 4.67023 0.110441 4.48665 0.154512C4.30308 0.198584 4.12138 0.246717 3.9436 0.30365C3.36491 0.493208 2.55136 0.841159 2.4136 1.50796C2.33594 1.88492 2.51996 2.27052 2.66273 2.61454C2.83578 3.03155 3.07215 3.4072 3.28758 3.79975C3.85714 4.83608 4.43726 5.86595 5.01575 6.89691C5.18849 7.20466 5.3768 7.59447 5.71103 7.75391C5.73312 7.76357 5.75569 7.77213 5.77864 7.77946C5.92852 7.83621 6.09189 7.84717 6.24804 7.81088C6.25747 7.80871 6.26668 7.8066 6.27589 7.80442C6.42008 7.76523 6.55064 7.68685 6.65307 7.57792C6.67157 7.56057 6.68916 7.54228 6.70575 7.52312Z" fill="black"/>
<path d="M6.42937 10.684C6.33927 10.5573 6.21141 10.4623 6.06406 10.4126C5.91671 10.363 5.75742 10.3612 5.60896 10.4076C5.57408 10.4192 5.5401 10.4333 5.50726 10.4498C5.45649 10.4756 5.40805 10.5058 5.36247 10.5401C5.22971 10.6384 5.11792 10.7662 5.01613 10.8944C4.99031 10.927 4.96675 10.9706 4.93603 10.9985L4.42365 11.7034C4.13324 12.0982 3.84683 12.494 3.56282 12.8961C3.37751 13.1557 3.21722 13.375 3.09061 13.569C3.06661 13.6055 3.0417 13.6463 3.0189 13.6788C2.86716 13.9136 2.78121 14.0849 2.7371 14.2376C2.70397 14.339 2.69348 14.4464 2.70639 14.5523C2.72049 14.6626 2.75763 14.7687 2.81538 14.8637C2.84609 14.9113 2.87918 14.9574 2.91454 15.0016C2.95129 15.0443 2.99031 15.0849 3.03144 15.1233C3.07537 15.1651 3.12234 15.2037 3.17199 15.2387C3.52565 15.4848 3.91281 15.6615 4.32006 15.7981C4.65895 15.9106 5.01121 15.978 5.36774 15.9984C5.42839 16.0015 5.48918 16.0001 5.54965 15.9944C5.6057 15.9896 5.66145 15.9817 5.71668 15.971C5.77187 15.9582 5.82633 15.9423 5.87984 15.9236C5.98396 15.8846 6.07876 15.8243 6.15813 15.7465C6.23326 15.6712 6.29109 15.5805 6.32757 15.4805C6.38679 15.3329 6.42574 15.1455 6.45136 14.8672C6.45361 14.8277 6.45925 14.7802 6.46319 14.7367C6.48339 14.5058 6.49266 14.2346 6.50751 13.9157C6.53257 13.4252 6.55222 12.9369 6.56776 12.4473C6.56776 12.4473 6.60076 11.5771 6.60066 11.5766C6.60821 11.3761 6.60203 11.1538 6.5464 10.9542C6.52198 10.8585 6.48248 10.7673 6.42937 10.684Z" fill="black"/>
<path d="M12.2129 12.0465C12.106 11.9292 11.9544 11.8123 11.7154 11.6677C11.681 11.6485 11.6405 11.6228 11.6032 11.6005C11.4042 11.4808 11.1645 11.3549 10.8845 11.2028C10.4544 10.9667 10.0239 10.7365 9.58942 10.5081L8.82172 10.101C8.78195 10.0893 8.74153 10.0606 8.70401 10.0425C8.55653 9.97195 8.40014 9.90613 8.23786 9.87594C8.1819 9.86519 8.12515 9.85932 8.06825 9.8583C8.03145 9.85787 7.9948 9.86011 7.95837 9.86498C7.80487 9.88878 7.66277 9.96041 7.55231 10.0698C7.44185 10.1791 7.3687 10.3205 7.34322 10.4738C7.33154 10.5714 7.3351 10.6701 7.35382 10.7665C7.39134 10.9708 7.48257 11.1729 7.57692 11.3499L7.98689 12.1182C8.215 12.5516 8.44586 12.9824 8.6826 13.4119C8.83522 13.6921 8.9623 13.9319 9.08132 14.1306C9.1039 14.168 9.12944 14.2082 9.14875 14.2428C9.29361 14.4817 9.41002 14.6321 9.52802 14.7399C9.60445 14.8137 9.69611 14.8699 9.79648 14.9046C9.902 14.9396 10.0138 14.952 10.1244 14.941C10.1807 14.9343 10.2366 14.9247 10.2918 14.912C10.3462 14.8974 10.3999 14.88 10.4524 14.8597C10.5092 14.8384 10.5644 14.8129 10.6174 14.7835C10.9292 14.6088 11.2164 14.3937 11.4719 14.1438C11.7784 13.8422 12.0492 13.5135 12.2599 13.137C12.2892 13.0838 12.3145 13.0285 12.3358 12.9716C12.3557 12.9189 12.3729 12.8652 12.3873 12.8108C12.3997 12.7555 12.4093 12.6995 12.4159 12.6433C12.4265 12.5327 12.4136 12.4212 12.3783 12.3159C12.3435 12.2151 12.287 12.1231 12.2129 12.0465Z" fill="black"/>
</svg>
