<svg width="16" height="16" viewBox="0 0 16 16" fill="none" xmlns="http://www.w3.org/2000/svg">
<path d="M9.16669 4.5C9.16669 5.14433 8.64435 5.66667 8.00002 5.66667C7.35569 5.66667 6.83335 5.14433 6.83335 4.5C6.83335 3.85567 7.35569 3.33333 8.00002 3.33333C8.64435 3.33333 9.16669 3.85567 9.16669 4.5Z" fill="black"/>
<path d="M8 0C3.58172 0 0 3.58172 0 8C0 12.4183 3.58172 16 8 16C12.4183 16 16 12.4183 16 8C16 3.58172 12.4183 0 8 0ZM1 8C1 4.13401 4.13401 1 8 1C9.933 1 11.5 2.567 11.5 4.5C11.5 6.433 9.933 8 8 8C6.067 8 4.5 9.567 4.5 11.5C4.5 13.433 6.067 15 8 15C4.13401 15 1 11.866 1 8ZM8.00002 12.6667C7.35569 12.6667 6.83335 12.1443 6.83335 11.5C6.83335 10.8557 7.35569 10.3333 8.00002 10.3333C8.64435 10.3333 9.16669 10.8557 9.16669 11.5C9.16669 12.1443 8.64435 12.6667 8.00002 12.6667Z" fill="black"/>
</svg>
